G04 #@! TF.FileFunction,Copper,L2,Bot,Signal*
%FSLAX46Y46*%
G04 Gerber Fmt 4.6, Leading zero omitted, Abs format (unit mm)*
G04 Created by KiCad (PCBNEW 4.0.4+e1-6308~48~ubuntu16.04.1-stable) date Sun Jan 28 16:14:42 2018*
%MOMM*%
%LPD*%
G01*
G04 APERTURE LIST*
%ADD10C,0.100000*%
%ADD11R,1.700000X1.700000*%
%ADD12C,0.254000*%
G04 APERTURE END LIST*
D10*
D11*
X110000000Y-145000000D03*
X110000000Y-65000000D03*
X152500000Y-145000000D03*
X120000000Y-124000000D03*
X110000000Y-105000000D03*
X152500000Y-105000000D03*
X142000000Y-86000000D03*
X142000000Y-124000000D03*
X152500000Y-65000000D03*
X131000000Y-113000000D03*
X120000000Y-86000000D03*
X131000000Y-75000000D03*
X131000000Y-135000000D03*
X105000000Y-124000000D03*
X157000000Y-124000000D03*
X131000000Y-97000000D03*
D12*
G36*
X160988338Y-55821046D02*
X161402333Y-56097669D01*
X161678953Y-56511660D01*
X161790000Y-57069931D01*
X161790000Y-152930069D01*
X161678953Y-153488340D01*
X161402333Y-153902331D01*
X160988338Y-154178954D01*
X160430069Y-154290000D01*
X102069931Y-154290000D01*
X101511660Y-154178953D01*
X101097669Y-153902333D01*
X100821046Y-153488338D01*
X100710000Y-152930069D01*
X100710000Y-145285750D01*
X108515000Y-145285750D01*
X108515000Y-145976310D01*
X108611673Y-146209699D01*
X108790302Y-146388327D01*
X109023691Y-146485000D01*
X109714250Y-146485000D01*
X109873000Y-146326250D01*
X109873000Y-145127000D01*
X110127000Y-145127000D01*
X110127000Y-146326250D01*
X110285750Y-146485000D01*
X110976309Y-146485000D01*
X111209698Y-146388327D01*
X111388327Y-146209699D01*
X111485000Y-145976310D01*
X111485000Y-145285750D01*
X111326250Y-145127000D01*
X110127000Y-145127000D01*
X109873000Y-145127000D01*
X108673750Y-145127000D01*
X108515000Y-145285750D01*
X100710000Y-145285750D01*
X100710000Y-144023690D01*
X108515000Y-144023690D01*
X108515000Y-144714250D01*
X108673750Y-144873000D01*
X109873000Y-144873000D01*
X109873000Y-143673750D01*
X110127000Y-143673750D01*
X110127000Y-144873000D01*
X111326250Y-144873000D01*
X111485000Y-144714250D01*
X111485000Y-144023690D01*
X111388327Y-143790301D01*
X111209698Y-143611673D01*
X110976309Y-143515000D01*
X110285750Y-143515000D01*
X110127000Y-143673750D01*
X109873000Y-143673750D01*
X109714250Y-143515000D01*
X109023691Y-143515000D01*
X108790302Y-143611673D01*
X108611673Y-143790301D01*
X108515000Y-144023690D01*
X100710000Y-144023690D01*
X100710000Y-142500000D01*
X113435000Y-142500000D01*
X113498561Y-142819540D01*
X113679566Y-143090434D01*
X118679566Y-148090434D01*
X118950459Y-148271439D01*
X119270000Y-148335000D01*
X143230000Y-148335000D01*
X143549541Y-148271439D01*
X143820434Y-148090434D01*
X146625118Y-145285750D01*
X151015000Y-145285750D01*
X151015000Y-145976310D01*
X151111673Y-146209699D01*
X151290302Y-146388327D01*
X151523691Y-146485000D01*
X152214250Y-146485000D01*
X152373000Y-146326250D01*
X152373000Y-145127000D01*
X152627000Y-145127000D01*
X152627000Y-146326250D01*
X152785750Y-146485000D01*
X153476309Y-146485000D01*
X153709698Y-146388327D01*
X153888327Y-146209699D01*
X153985000Y-145976310D01*
X153985000Y-145285750D01*
X153826250Y-145127000D01*
X152627000Y-145127000D01*
X152373000Y-145127000D01*
X151173750Y-145127000D01*
X151015000Y-145285750D01*
X146625118Y-145285750D01*
X147887178Y-144023690D01*
X151015000Y-144023690D01*
X151015000Y-144714250D01*
X151173750Y-144873000D01*
X152373000Y-144873000D01*
X152373000Y-143673750D01*
X152627000Y-143673750D01*
X152627000Y-144873000D01*
X153826250Y-144873000D01*
X153985000Y-144714250D01*
X153985000Y-144023690D01*
X153888327Y-143790301D01*
X153709698Y-143611673D01*
X153476309Y-143515000D01*
X152785750Y-143515000D01*
X152627000Y-143673750D01*
X152373000Y-143673750D01*
X152214250Y-143515000D01*
X151523691Y-143515000D01*
X151290302Y-143611673D01*
X151111673Y-143790301D01*
X151015000Y-144023690D01*
X147887178Y-144023690D01*
X148820434Y-143090434D01*
X149001439Y-142819540D01*
X149065000Y-142500000D01*
X149001439Y-142180460D01*
X148820434Y-141909566D01*
X143820434Y-136909566D01*
X143549541Y-136728561D01*
X143230000Y-136665000D01*
X119270000Y-136665000D01*
X118950459Y-136728561D01*
X118679566Y-136909566D01*
X113679566Y-141909566D01*
X113498561Y-142180460D01*
X113435000Y-142500000D01*
X100710000Y-142500000D01*
X100710000Y-124285750D01*
X103515000Y-124285750D01*
X103515000Y-124976310D01*
X103611673Y-125209699D01*
X103790302Y-125388327D01*
X104023691Y-125485000D01*
X104714250Y-125485000D01*
X104873000Y-125326250D01*
X104873000Y-124127000D01*
X105127000Y-124127000D01*
X105127000Y-125326250D01*
X105285750Y-125485000D01*
X105976309Y-125485000D01*
X106209698Y-125388327D01*
X106388327Y-125209699D01*
X106485000Y-124976310D01*
X106485000Y-124285750D01*
X106326250Y-124127000D01*
X105127000Y-124127000D01*
X104873000Y-124127000D01*
X103673750Y-124127000D01*
X103515000Y-124285750D01*
X100710000Y-124285750D01*
X100710000Y-123023690D01*
X103515000Y-123023690D01*
X103515000Y-123714250D01*
X103673750Y-123873000D01*
X104873000Y-123873000D01*
X104873000Y-122673750D01*
X105127000Y-122673750D01*
X105127000Y-123873000D01*
X106326250Y-123873000D01*
X106485000Y-123714250D01*
X106485000Y-123023690D01*
X106388327Y-122790301D01*
X106209698Y-122611673D01*
X105976309Y-122515000D01*
X105285750Y-122515000D01*
X105127000Y-122673750D01*
X104873000Y-122673750D01*
X104714250Y-122515000D01*
X104023691Y-122515000D01*
X103790302Y-122611673D01*
X103611673Y-122790301D01*
X103515000Y-123023690D01*
X100710000Y-123023690D01*
X100710000Y-111770000D01*
X106665000Y-111770000D01*
X106665000Y-135730000D01*
X106728561Y-136049541D01*
X106835575Y-136209699D01*
X106909566Y-136320434D01*
X111909566Y-141320434D01*
X112180460Y-141501439D01*
X112500000Y-141565000D01*
X112819540Y-141501439D01*
X113090434Y-141320434D01*
X118090434Y-136320434D01*
X118164425Y-136209699D01*
X118271439Y-136049541D01*
X118335000Y-135730000D01*
X118335000Y-135285750D01*
X129515000Y-135285750D01*
X129515000Y-135976310D01*
X129611673Y-136209699D01*
X129790302Y-136388327D01*
X130023691Y-136485000D01*
X130714250Y-136485000D01*
X130873000Y-136326250D01*
X130873000Y-135127000D01*
X131127000Y-135127000D01*
X131127000Y-136326250D01*
X131285750Y-136485000D01*
X131976309Y-136485000D01*
X132209698Y-136388327D01*
X132388327Y-136209699D01*
X132485000Y-135976310D01*
X132485000Y-135285750D01*
X132326250Y-135127000D01*
X131127000Y-135127000D01*
X130873000Y-135127000D01*
X129673750Y-135127000D01*
X129515000Y-135285750D01*
X118335000Y-135285750D01*
X118335000Y-134023690D01*
X129515000Y-134023690D01*
X129515000Y-134714250D01*
X129673750Y-134873000D01*
X130873000Y-134873000D01*
X130873000Y-133673750D01*
X131127000Y-133673750D01*
X131127000Y-134873000D01*
X132326250Y-134873000D01*
X132485000Y-134714250D01*
X132485000Y-134023690D01*
X132388327Y-133790301D01*
X132209698Y-133611673D01*
X131976309Y-133515000D01*
X131285750Y-133515000D01*
X131127000Y-133673750D01*
X130873000Y-133673750D01*
X130714250Y-133515000D01*
X130023691Y-133515000D01*
X129790302Y-133611673D01*
X129611673Y-133790301D01*
X129515000Y-134023690D01*
X118335000Y-134023690D01*
X118335000Y-124285750D01*
X118515000Y-124285750D01*
X118515000Y-124976310D01*
X118611673Y-125209699D01*
X118790302Y-125388327D01*
X119023691Y-125485000D01*
X119714250Y-125485000D01*
X119873000Y-125326250D01*
X119873000Y-124127000D01*
X120127000Y-124127000D01*
X120127000Y-125326250D01*
X120285750Y-125485000D01*
X120976309Y-125485000D01*
X121209698Y-125388327D01*
X121388327Y-125209699D01*
X121485000Y-124976310D01*
X121485000Y-124285750D01*
X140515000Y-124285750D01*
X140515000Y-124976310D01*
X140611673Y-125209699D01*
X140790302Y-125388327D01*
X141023691Y-125485000D01*
X141714250Y-125485000D01*
X141873000Y-125326250D01*
X141873000Y-124127000D01*
X142127000Y-124127000D01*
X142127000Y-125326250D01*
X142285750Y-125485000D01*
X142976309Y-125485000D01*
X143209698Y-125388327D01*
X143388327Y-125209699D01*
X143485000Y-124976310D01*
X143485000Y-124285750D01*
X143326250Y-124127000D01*
X142127000Y-124127000D01*
X141873000Y-124127000D01*
X140673750Y-124127000D01*
X140515000Y-124285750D01*
X121485000Y-124285750D01*
X121326250Y-124127000D01*
X120127000Y-124127000D01*
X119873000Y-124127000D01*
X118673750Y-124127000D01*
X118515000Y-124285750D01*
X118335000Y-124285750D01*
X118335000Y-123023690D01*
X118515000Y-123023690D01*
X118515000Y-123714250D01*
X118673750Y-123873000D01*
X119873000Y-123873000D01*
X119873000Y-122673750D01*
X120127000Y-122673750D01*
X120127000Y-123873000D01*
X121326250Y-123873000D01*
X121485000Y-123714250D01*
X121485000Y-123023690D01*
X140515000Y-123023690D01*
X140515000Y-123714250D01*
X140673750Y-123873000D01*
X141873000Y-123873000D01*
X141873000Y-122673750D01*
X142127000Y-122673750D01*
X142127000Y-123873000D01*
X143326250Y-123873000D01*
X143485000Y-123714250D01*
X143485000Y-123023690D01*
X143388327Y-122790301D01*
X143209698Y-122611673D01*
X142976309Y-122515000D01*
X142285750Y-122515000D01*
X142127000Y-122673750D01*
X141873000Y-122673750D01*
X141714250Y-122515000D01*
X141023691Y-122515000D01*
X140790302Y-122611673D01*
X140611673Y-122790301D01*
X140515000Y-123023690D01*
X121485000Y-123023690D01*
X121388327Y-122790301D01*
X121209698Y-122611673D01*
X120976309Y-122515000D01*
X120285750Y-122515000D01*
X120127000Y-122673750D01*
X119873000Y-122673750D01*
X119714250Y-122515000D01*
X119023691Y-122515000D01*
X118790302Y-122611673D01*
X118611673Y-122790301D01*
X118515000Y-123023690D01*
X118335000Y-123023690D01*
X118335000Y-113285750D01*
X129515000Y-113285750D01*
X129515000Y-113976310D01*
X129611673Y-114209699D01*
X129790302Y-114388327D01*
X130023691Y-114485000D01*
X130714250Y-114485000D01*
X130873000Y-114326250D01*
X130873000Y-113127000D01*
X131127000Y-113127000D01*
X131127000Y-114326250D01*
X131285750Y-114485000D01*
X131976309Y-114485000D01*
X132209698Y-114388327D01*
X132388327Y-114209699D01*
X132485000Y-113976310D01*
X132485000Y-113285750D01*
X132326250Y-113127000D01*
X131127000Y-113127000D01*
X130873000Y-113127000D01*
X129673750Y-113127000D01*
X129515000Y-113285750D01*
X118335000Y-113285750D01*
X118335000Y-112023690D01*
X129515000Y-112023690D01*
X129515000Y-112714250D01*
X129673750Y-112873000D01*
X130873000Y-112873000D01*
X130873000Y-111673750D01*
X131127000Y-111673750D01*
X131127000Y-112873000D01*
X132326250Y-112873000D01*
X132485000Y-112714250D01*
X132485000Y-112023690D01*
X132388327Y-111790301D01*
X132368026Y-111770000D01*
X144165000Y-111770000D01*
X144165000Y-135730000D01*
X144228561Y-136049541D01*
X144335575Y-136209699D01*
X144409566Y-136320434D01*
X149409566Y-141320434D01*
X149680460Y-141501439D01*
X150000000Y-141565000D01*
X150319540Y-141501439D01*
X150590434Y-141320434D01*
X155590434Y-136320434D01*
X155664425Y-136209699D01*
X155771439Y-136049541D01*
X155835000Y-135730000D01*
X155835000Y-125406842D01*
X156023691Y-125485000D01*
X156714250Y-125485000D01*
X156873000Y-125326250D01*
X156873000Y-124127000D01*
X157127000Y-124127000D01*
X157127000Y-125326250D01*
X157285750Y-125485000D01*
X157976309Y-125485000D01*
X158209698Y-125388327D01*
X158388327Y-125209699D01*
X158485000Y-124976310D01*
X158485000Y-124285750D01*
X158326250Y-124127000D01*
X157127000Y-124127000D01*
X156873000Y-124127000D01*
X156853000Y-124127000D01*
X156853000Y-123873000D01*
X156873000Y-123873000D01*
X156873000Y-122673750D01*
X157127000Y-122673750D01*
X157127000Y-123873000D01*
X158326250Y-123873000D01*
X158485000Y-123714250D01*
X158485000Y-123023690D01*
X158388327Y-122790301D01*
X158209698Y-122611673D01*
X157976309Y-122515000D01*
X157285750Y-122515000D01*
X157127000Y-122673750D01*
X156873000Y-122673750D01*
X156714250Y-122515000D01*
X156023691Y-122515000D01*
X155835000Y-122593158D01*
X155835000Y-111770000D01*
X155771439Y-111450459D01*
X155590434Y-111179566D01*
X150590434Y-106179566D01*
X150319540Y-105998561D01*
X150000000Y-105935000D01*
X149680460Y-105998561D01*
X149409566Y-106179566D01*
X144409566Y-111179566D01*
X144228561Y-111450459D01*
X144165000Y-111770000D01*
X132368026Y-111770000D01*
X132209698Y-111611673D01*
X131976309Y-111515000D01*
X131285750Y-111515000D01*
X131127000Y-111673750D01*
X130873000Y-111673750D01*
X130714250Y-111515000D01*
X130023691Y-111515000D01*
X129790302Y-111611673D01*
X129611673Y-111790301D01*
X129515000Y-112023690D01*
X118335000Y-112023690D01*
X118335000Y-111770000D01*
X118271439Y-111450459D01*
X118090434Y-111179566D01*
X113090434Y-106179566D01*
X112819540Y-105998561D01*
X112500000Y-105935000D01*
X112180460Y-105998561D01*
X111909566Y-106179566D01*
X106909566Y-111179566D01*
X106728561Y-111450459D01*
X106665000Y-111770000D01*
X100710000Y-111770000D01*
X100710000Y-105285750D01*
X108515000Y-105285750D01*
X108515000Y-105976310D01*
X108611673Y-106209699D01*
X108790302Y-106388327D01*
X109023691Y-106485000D01*
X109714250Y-106485000D01*
X109873000Y-106326250D01*
X109873000Y-105127000D01*
X110127000Y-105127000D01*
X110127000Y-106326250D01*
X110285750Y-106485000D01*
X110976309Y-106485000D01*
X111209698Y-106388327D01*
X111388327Y-106209699D01*
X111485000Y-105976310D01*
X111485000Y-105285750D01*
X111326250Y-105127000D01*
X110127000Y-105127000D01*
X109873000Y-105127000D01*
X108673750Y-105127000D01*
X108515000Y-105285750D01*
X100710000Y-105285750D01*
X100710000Y-105000000D01*
X113435000Y-105000000D01*
X113498561Y-105319540D01*
X113679566Y-105590434D01*
X118679566Y-110590434D01*
X118950459Y-110771439D01*
X119270000Y-110835000D01*
X143230000Y-110835000D01*
X143549541Y-110771439D01*
X143820434Y-110590434D01*
X148820434Y-105590434D01*
X149001439Y-105319540D01*
X149008160Y-105285750D01*
X151015000Y-105285750D01*
X151015000Y-105976310D01*
X151111673Y-106209699D01*
X151290302Y-106388327D01*
X151523691Y-106485000D01*
X152214250Y-106485000D01*
X152373000Y-106326250D01*
X152373000Y-105127000D01*
X152627000Y-105127000D01*
X152627000Y-106326250D01*
X152785750Y-106485000D01*
X153476309Y-106485000D01*
X153709698Y-106388327D01*
X153888327Y-106209699D01*
X153985000Y-105976310D01*
X153985000Y-105285750D01*
X153826250Y-105127000D01*
X152627000Y-105127000D01*
X152373000Y-105127000D01*
X151173750Y-105127000D01*
X151015000Y-105285750D01*
X149008160Y-105285750D01*
X149065000Y-105000000D01*
X149001439Y-104680460D01*
X148820434Y-104409566D01*
X143820434Y-99409566D01*
X143549541Y-99228561D01*
X143230000Y-99165000D01*
X119270000Y-99165000D01*
X118950459Y-99228561D01*
X118679566Y-99409566D01*
X113679566Y-104409566D01*
X113498561Y-104680460D01*
X113435000Y-105000000D01*
X100710000Y-105000000D01*
X100710000Y-104023690D01*
X108515000Y-104023690D01*
X108515000Y-104714250D01*
X108673750Y-104873000D01*
X109873000Y-104873000D01*
X109873000Y-103673750D01*
X110127000Y-103673750D01*
X110127000Y-104873000D01*
X111326250Y-104873000D01*
X111485000Y-104714250D01*
X111485000Y-104023690D01*
X111388327Y-103790301D01*
X111209698Y-103611673D01*
X110976309Y-103515000D01*
X110285750Y-103515000D01*
X110127000Y-103673750D01*
X109873000Y-103673750D01*
X109714250Y-103515000D01*
X109023691Y-103515000D01*
X108790302Y-103611673D01*
X108611673Y-103790301D01*
X108515000Y-104023690D01*
X100710000Y-104023690D01*
X100710000Y-74270000D01*
X106665000Y-74270000D01*
X106665000Y-98230000D01*
X106728561Y-98549541D01*
X106909566Y-98820434D01*
X111909566Y-103820434D01*
X112180460Y-104001439D01*
X112500000Y-104065000D01*
X112819540Y-104001439D01*
X113090434Y-103820434D01*
X118090434Y-98820434D01*
X118271439Y-98549541D01*
X118335000Y-98230000D01*
X118335000Y-97285750D01*
X129515000Y-97285750D01*
X129515000Y-97976310D01*
X129611673Y-98209699D01*
X129790302Y-98388327D01*
X130023691Y-98485000D01*
X130714250Y-98485000D01*
X130873000Y-98326250D01*
X130873000Y-97127000D01*
X131127000Y-97127000D01*
X131127000Y-98326250D01*
X131285750Y-98485000D01*
X131976309Y-98485000D01*
X132209698Y-98388327D01*
X132388327Y-98209699D01*
X132485000Y-97976310D01*
X132485000Y-97285750D01*
X132326250Y-97127000D01*
X131127000Y-97127000D01*
X130873000Y-97127000D01*
X129673750Y-97127000D01*
X129515000Y-97285750D01*
X118335000Y-97285750D01*
X118335000Y-96023690D01*
X129515000Y-96023690D01*
X129515000Y-96714250D01*
X129673750Y-96873000D01*
X130873000Y-96873000D01*
X130873000Y-95673750D01*
X131127000Y-95673750D01*
X131127000Y-96873000D01*
X132326250Y-96873000D01*
X132485000Y-96714250D01*
X132485000Y-96023690D01*
X132388327Y-95790301D01*
X132209698Y-95611673D01*
X131976309Y-95515000D01*
X131285750Y-95515000D01*
X131127000Y-95673750D01*
X130873000Y-95673750D01*
X130714250Y-95515000D01*
X130023691Y-95515000D01*
X129790302Y-95611673D01*
X129611673Y-95790301D01*
X129515000Y-96023690D01*
X118335000Y-96023690D01*
X118335000Y-86285750D01*
X118515000Y-86285750D01*
X118515000Y-86976310D01*
X118611673Y-87209699D01*
X118790302Y-87388327D01*
X119023691Y-87485000D01*
X119714250Y-87485000D01*
X119873000Y-87326250D01*
X119873000Y-86127000D01*
X120127000Y-86127000D01*
X120127000Y-87326250D01*
X120285750Y-87485000D01*
X120976309Y-87485000D01*
X121209698Y-87388327D01*
X121388327Y-87209699D01*
X121485000Y-86976310D01*
X121485000Y-86285750D01*
X121326250Y-86127000D01*
X120127000Y-86127000D01*
X119873000Y-86127000D01*
X118673750Y-86127000D01*
X118515000Y-86285750D01*
X118335000Y-86285750D01*
X118335000Y-85023690D01*
X118515000Y-85023690D01*
X118515000Y-85714250D01*
X118673750Y-85873000D01*
X119873000Y-85873000D01*
X119873000Y-84673750D01*
X120127000Y-84673750D01*
X120127000Y-85873000D01*
X121326250Y-85873000D01*
X121485000Y-85714250D01*
X121485000Y-85023690D01*
X121388327Y-84790301D01*
X121209698Y-84611673D01*
X120976309Y-84515000D01*
X120285750Y-84515000D01*
X120127000Y-84673750D01*
X119873000Y-84673750D01*
X119714250Y-84515000D01*
X119023691Y-84515000D01*
X118790302Y-84611673D01*
X118611673Y-84790301D01*
X118515000Y-85023690D01*
X118335000Y-85023690D01*
X118335000Y-81000000D01*
X125165000Y-81000000D01*
X125165000Y-91000000D01*
X125228561Y-91319541D01*
X125409566Y-91590434D01*
X125680459Y-91771439D01*
X126000000Y-91835000D01*
X136000000Y-91835000D01*
X136319541Y-91771439D01*
X136590434Y-91590434D01*
X136771439Y-91319541D01*
X136835000Y-91000000D01*
X136835000Y-86285750D01*
X140515000Y-86285750D01*
X140515000Y-86976310D01*
X140611673Y-87209699D01*
X140790302Y-87388327D01*
X141023691Y-87485000D01*
X141714250Y-87485000D01*
X141873000Y-87326250D01*
X141873000Y-86127000D01*
X142127000Y-86127000D01*
X142127000Y-87326250D01*
X142285750Y-87485000D01*
X142976309Y-87485000D01*
X143209698Y-87388327D01*
X143388327Y-87209699D01*
X143485000Y-86976310D01*
X143485000Y-86285750D01*
X143326250Y-86127000D01*
X142127000Y-86127000D01*
X141873000Y-86127000D01*
X140673750Y-86127000D01*
X140515000Y-86285750D01*
X136835000Y-86285750D01*
X136835000Y-85023690D01*
X140515000Y-85023690D01*
X140515000Y-85714250D01*
X140673750Y-85873000D01*
X141873000Y-85873000D01*
X141873000Y-84673750D01*
X142127000Y-84673750D01*
X142127000Y-85873000D01*
X143326250Y-85873000D01*
X143485000Y-85714250D01*
X143485000Y-85023690D01*
X143388327Y-84790301D01*
X143209698Y-84611673D01*
X142976309Y-84515000D01*
X142285750Y-84515000D01*
X142127000Y-84673750D01*
X141873000Y-84673750D01*
X141714250Y-84515000D01*
X141023691Y-84515000D01*
X140790302Y-84611673D01*
X140611673Y-84790301D01*
X140515000Y-85023690D01*
X136835000Y-85023690D01*
X136835000Y-81000000D01*
X136771439Y-80680459D01*
X136590434Y-80409566D01*
X136319541Y-80228561D01*
X136000000Y-80165000D01*
X126000000Y-80165000D01*
X125680459Y-80228561D01*
X125409566Y-80409566D01*
X125228561Y-80680459D01*
X125165000Y-81000000D01*
X118335000Y-81000000D01*
X118335000Y-75285750D01*
X129515000Y-75285750D01*
X129515000Y-75976310D01*
X129611673Y-76209699D01*
X129790302Y-76388327D01*
X130023691Y-76485000D01*
X130714250Y-76485000D01*
X130873000Y-76326250D01*
X130873000Y-75127000D01*
X131127000Y-75127000D01*
X131127000Y-76326250D01*
X131285750Y-76485000D01*
X131976309Y-76485000D01*
X132209698Y-76388327D01*
X132388327Y-76209699D01*
X132485000Y-75976310D01*
X132485000Y-75285750D01*
X132326250Y-75127000D01*
X131127000Y-75127000D01*
X130873000Y-75127000D01*
X129673750Y-75127000D01*
X129515000Y-75285750D01*
X118335000Y-75285750D01*
X118335000Y-74270000D01*
X118286006Y-74023690D01*
X129515000Y-74023690D01*
X129515000Y-74714250D01*
X129673750Y-74873000D01*
X130873000Y-74873000D01*
X130873000Y-73673750D01*
X131127000Y-73673750D01*
X131127000Y-74873000D01*
X132326250Y-74873000D01*
X132485000Y-74714250D01*
X132485000Y-74270000D01*
X144165000Y-74270000D01*
X144165000Y-98230000D01*
X144228561Y-98549541D01*
X144409566Y-98820434D01*
X149409566Y-103820434D01*
X149680460Y-104001439D01*
X150000000Y-104065000D01*
X150207677Y-104023690D01*
X151015000Y-104023690D01*
X151015000Y-104714250D01*
X151173750Y-104873000D01*
X152373000Y-104873000D01*
X152373000Y-103673750D01*
X152627000Y-103673750D01*
X152627000Y-104873000D01*
X153826250Y-104873000D01*
X153985000Y-104714250D01*
X153985000Y-104023690D01*
X153888327Y-103790301D01*
X153709698Y-103611673D01*
X153476309Y-103515000D01*
X152785750Y-103515000D01*
X152627000Y-103673750D01*
X152373000Y-103673750D01*
X152214250Y-103515000D01*
X151523691Y-103515000D01*
X151290302Y-103611673D01*
X151111673Y-103790301D01*
X151015000Y-104023690D01*
X150207677Y-104023690D01*
X150319540Y-104001439D01*
X150590434Y-103820434D01*
X155590434Y-98820434D01*
X155771439Y-98549541D01*
X155835000Y-98230000D01*
X155835000Y-74270000D01*
X155771439Y-73950459D01*
X155590434Y-73679566D01*
X150590434Y-68679566D01*
X150319540Y-68498561D01*
X150000000Y-68435000D01*
X149680460Y-68498561D01*
X149409566Y-68679566D01*
X144409566Y-73679566D01*
X144228561Y-73950459D01*
X144165000Y-74270000D01*
X132485000Y-74270000D01*
X132485000Y-74023690D01*
X132388327Y-73790301D01*
X132209698Y-73611673D01*
X131976309Y-73515000D01*
X131285750Y-73515000D01*
X131127000Y-73673750D01*
X130873000Y-73673750D01*
X130714250Y-73515000D01*
X130023691Y-73515000D01*
X129790302Y-73611673D01*
X129611673Y-73790301D01*
X129515000Y-74023690D01*
X118286006Y-74023690D01*
X118271439Y-73950459D01*
X118090434Y-73679566D01*
X113090434Y-68679566D01*
X112819540Y-68498561D01*
X112500000Y-68435000D01*
X112180460Y-68498561D01*
X111909566Y-68679566D01*
X106909566Y-73679566D01*
X106728561Y-73950459D01*
X106665000Y-74270000D01*
X100710000Y-74270000D01*
X100710000Y-67500000D01*
X113435000Y-67500000D01*
X113498561Y-67819540D01*
X113679566Y-68090434D01*
X118679566Y-73090434D01*
X118950459Y-73271439D01*
X119270000Y-73335000D01*
X143230000Y-73335000D01*
X143549541Y-73271439D01*
X143820434Y-73090434D01*
X148820434Y-68090434D01*
X149001439Y-67819540D01*
X149065000Y-67500000D01*
X149001439Y-67180460D01*
X148820434Y-66909566D01*
X147196618Y-65285750D01*
X151015000Y-65285750D01*
X151015000Y-65976310D01*
X151111673Y-66209699D01*
X151290302Y-66388327D01*
X151523691Y-66485000D01*
X152214250Y-66485000D01*
X152373000Y-66326250D01*
X152373000Y-65127000D01*
X152627000Y-65127000D01*
X152627000Y-66326250D01*
X152785750Y-66485000D01*
X153476309Y-66485000D01*
X153709698Y-66388327D01*
X153888327Y-66209699D01*
X153985000Y-65976310D01*
X153985000Y-65285750D01*
X153826250Y-65127000D01*
X152627000Y-65127000D01*
X152373000Y-65127000D01*
X151173750Y-65127000D01*
X151015000Y-65285750D01*
X147196618Y-65285750D01*
X145934558Y-64023690D01*
X151015000Y-64023690D01*
X151015000Y-64714250D01*
X151173750Y-64873000D01*
X152373000Y-64873000D01*
X152373000Y-63673750D01*
X152627000Y-63673750D01*
X152627000Y-64873000D01*
X153826250Y-64873000D01*
X153985000Y-64714250D01*
X153985000Y-64023690D01*
X153888327Y-63790301D01*
X153709698Y-63611673D01*
X153476309Y-63515000D01*
X152785750Y-63515000D01*
X152627000Y-63673750D01*
X152373000Y-63673750D01*
X152214250Y-63515000D01*
X151523691Y-63515000D01*
X151290302Y-63611673D01*
X151111673Y-63790301D01*
X151015000Y-64023690D01*
X145934558Y-64023690D01*
X143820434Y-61909566D01*
X143549541Y-61728561D01*
X143230000Y-61665000D01*
X119270000Y-61665000D01*
X118950459Y-61728561D01*
X118679566Y-61909566D01*
X113679566Y-66909566D01*
X113498561Y-67180460D01*
X113435000Y-67500000D01*
X100710000Y-67500000D01*
X100710000Y-65285750D01*
X108515000Y-65285750D01*
X108515000Y-65976310D01*
X108611673Y-66209699D01*
X108790302Y-66388327D01*
X109023691Y-66485000D01*
X109714250Y-66485000D01*
X109873000Y-66326250D01*
X109873000Y-65127000D01*
X110127000Y-65127000D01*
X110127000Y-66326250D01*
X110285750Y-66485000D01*
X110976309Y-66485000D01*
X111209698Y-66388327D01*
X111388327Y-66209699D01*
X111485000Y-65976310D01*
X111485000Y-65285750D01*
X111326250Y-65127000D01*
X110127000Y-65127000D01*
X109873000Y-65127000D01*
X108673750Y-65127000D01*
X108515000Y-65285750D01*
X100710000Y-65285750D01*
X100710000Y-64023690D01*
X108515000Y-64023690D01*
X108515000Y-64714250D01*
X108673750Y-64873000D01*
X109873000Y-64873000D01*
X109873000Y-63673750D01*
X110127000Y-63673750D01*
X110127000Y-64873000D01*
X111326250Y-64873000D01*
X111485000Y-64714250D01*
X111485000Y-64023690D01*
X111388327Y-63790301D01*
X111209698Y-63611673D01*
X110976309Y-63515000D01*
X110285750Y-63515000D01*
X110127000Y-63673750D01*
X109873000Y-63673750D01*
X109714250Y-63515000D01*
X109023691Y-63515000D01*
X108790302Y-63611673D01*
X108611673Y-63790301D01*
X108515000Y-64023690D01*
X100710000Y-64023690D01*
X100710000Y-57069931D01*
X100821046Y-56511662D01*
X101097669Y-56097667D01*
X101511660Y-55821047D01*
X102069931Y-55710000D01*
X160430069Y-55710000D01*
X160988338Y-55821046D01*
X160988338Y-55821046D01*
G37*
X160988338Y-55821046D02*
X161402333Y-56097669D01*
X161678953Y-56511660D01*
X161790000Y-57069931D01*
X161790000Y-152930069D01*
X161678953Y-153488340D01*
X161402333Y-153902331D01*
X160988338Y-154178954D01*
X160430069Y-154290000D01*
X102069931Y-154290000D01*
X101511660Y-154178953D01*
X101097669Y-153902333D01*
X100821046Y-153488338D01*
X100710000Y-152930069D01*
X100710000Y-145285750D01*
X108515000Y-145285750D01*
X108515000Y-145976310D01*
X108611673Y-146209699D01*
X108790302Y-146388327D01*
X109023691Y-146485000D01*
X109714250Y-146485000D01*
X109873000Y-146326250D01*
X109873000Y-145127000D01*
X110127000Y-145127000D01*
X110127000Y-146326250D01*
X110285750Y-146485000D01*
X110976309Y-146485000D01*
X111209698Y-146388327D01*
X111388327Y-146209699D01*
X111485000Y-145976310D01*
X111485000Y-145285750D01*
X111326250Y-145127000D01*
X110127000Y-145127000D01*
X109873000Y-145127000D01*
X108673750Y-145127000D01*
X108515000Y-145285750D01*
X100710000Y-145285750D01*
X100710000Y-144023690D01*
X108515000Y-144023690D01*
X108515000Y-144714250D01*
X108673750Y-144873000D01*
X109873000Y-144873000D01*
X109873000Y-143673750D01*
X110127000Y-143673750D01*
X110127000Y-144873000D01*
X111326250Y-144873000D01*
X111485000Y-144714250D01*
X111485000Y-144023690D01*
X111388327Y-143790301D01*
X111209698Y-143611673D01*
X110976309Y-143515000D01*
X110285750Y-143515000D01*
X110127000Y-143673750D01*
X109873000Y-143673750D01*
X109714250Y-143515000D01*
X109023691Y-143515000D01*
X108790302Y-143611673D01*
X108611673Y-143790301D01*
X108515000Y-144023690D01*
X100710000Y-144023690D01*
X100710000Y-142500000D01*
X113435000Y-142500000D01*
X113498561Y-142819540D01*
X113679566Y-143090434D01*
X118679566Y-148090434D01*
X118950459Y-148271439D01*
X119270000Y-148335000D01*
X143230000Y-148335000D01*
X143549541Y-148271439D01*
X143820434Y-148090434D01*
X146625118Y-145285750D01*
X151015000Y-145285750D01*
X151015000Y-145976310D01*
X151111673Y-146209699D01*
X151290302Y-146388327D01*
X151523691Y-146485000D01*
X152214250Y-146485000D01*
X152373000Y-146326250D01*
X152373000Y-145127000D01*
X152627000Y-145127000D01*
X152627000Y-146326250D01*
X152785750Y-146485000D01*
X153476309Y-146485000D01*
X153709698Y-146388327D01*
X153888327Y-146209699D01*
X153985000Y-145976310D01*
X153985000Y-145285750D01*
X153826250Y-145127000D01*
X152627000Y-145127000D01*
X152373000Y-145127000D01*
X151173750Y-145127000D01*
X151015000Y-145285750D01*
X146625118Y-145285750D01*
X147887178Y-144023690D01*
X151015000Y-144023690D01*
X151015000Y-144714250D01*
X151173750Y-144873000D01*
X152373000Y-144873000D01*
X152373000Y-143673750D01*
X152627000Y-143673750D01*
X152627000Y-144873000D01*
X153826250Y-144873000D01*
X153985000Y-144714250D01*
X153985000Y-144023690D01*
X153888327Y-143790301D01*
X153709698Y-143611673D01*
X153476309Y-143515000D01*
X152785750Y-143515000D01*
X152627000Y-143673750D01*
X152373000Y-143673750D01*
X152214250Y-143515000D01*
X151523691Y-143515000D01*
X151290302Y-143611673D01*
X151111673Y-143790301D01*
X151015000Y-144023690D01*
X147887178Y-144023690D01*
X148820434Y-143090434D01*
X149001439Y-142819540D01*
X149065000Y-142500000D01*
X149001439Y-142180460D01*
X148820434Y-141909566D01*
X143820434Y-136909566D01*
X143549541Y-136728561D01*
X143230000Y-136665000D01*
X119270000Y-136665000D01*
X118950459Y-136728561D01*
X118679566Y-136909566D01*
X113679566Y-141909566D01*
X113498561Y-142180460D01*
X113435000Y-142500000D01*
X100710000Y-142500000D01*
X100710000Y-124285750D01*
X103515000Y-124285750D01*
X103515000Y-124976310D01*
X103611673Y-125209699D01*
X103790302Y-125388327D01*
X104023691Y-125485000D01*
X104714250Y-125485000D01*
X104873000Y-125326250D01*
X104873000Y-124127000D01*
X105127000Y-124127000D01*
X105127000Y-125326250D01*
X105285750Y-125485000D01*
X105976309Y-125485000D01*
X106209698Y-125388327D01*
X106388327Y-125209699D01*
X106485000Y-124976310D01*
X106485000Y-124285750D01*
X106326250Y-124127000D01*
X105127000Y-124127000D01*
X104873000Y-124127000D01*
X103673750Y-124127000D01*
X103515000Y-124285750D01*
X100710000Y-124285750D01*
X100710000Y-123023690D01*
X103515000Y-123023690D01*
X103515000Y-123714250D01*
X103673750Y-123873000D01*
X104873000Y-123873000D01*
X104873000Y-122673750D01*
X105127000Y-122673750D01*
X105127000Y-123873000D01*
X106326250Y-123873000D01*
X106485000Y-123714250D01*
X106485000Y-123023690D01*
X106388327Y-122790301D01*
X106209698Y-122611673D01*
X105976309Y-122515000D01*
X105285750Y-122515000D01*
X105127000Y-122673750D01*
X104873000Y-122673750D01*
X104714250Y-122515000D01*
X104023691Y-122515000D01*
X103790302Y-122611673D01*
X103611673Y-122790301D01*
X103515000Y-123023690D01*
X100710000Y-123023690D01*
X100710000Y-111770000D01*
X106665000Y-111770000D01*
X106665000Y-135730000D01*
X106728561Y-136049541D01*
X106835575Y-136209699D01*
X106909566Y-136320434D01*
X111909566Y-141320434D01*
X112180460Y-141501439D01*
X112500000Y-141565000D01*
X112819540Y-141501439D01*
X113090434Y-141320434D01*
X118090434Y-136320434D01*
X118164425Y-136209699D01*
X118271439Y-136049541D01*
X118335000Y-135730000D01*
X118335000Y-135285750D01*
X129515000Y-135285750D01*
X129515000Y-135976310D01*
X129611673Y-136209699D01*
X129790302Y-136388327D01*
X130023691Y-136485000D01*
X130714250Y-136485000D01*
X130873000Y-136326250D01*
X130873000Y-135127000D01*
X131127000Y-135127000D01*
X131127000Y-136326250D01*
X131285750Y-136485000D01*
X131976309Y-136485000D01*
X132209698Y-136388327D01*
X132388327Y-136209699D01*
X132485000Y-135976310D01*
X132485000Y-135285750D01*
X132326250Y-135127000D01*
X131127000Y-135127000D01*
X130873000Y-135127000D01*
X129673750Y-135127000D01*
X129515000Y-135285750D01*
X118335000Y-135285750D01*
X118335000Y-134023690D01*
X129515000Y-134023690D01*
X129515000Y-134714250D01*
X129673750Y-134873000D01*
X130873000Y-134873000D01*
X130873000Y-133673750D01*
X131127000Y-133673750D01*
X131127000Y-134873000D01*
X132326250Y-134873000D01*
X132485000Y-134714250D01*
X132485000Y-134023690D01*
X132388327Y-133790301D01*
X132209698Y-133611673D01*
X131976309Y-133515000D01*
X131285750Y-133515000D01*
X131127000Y-133673750D01*
X130873000Y-133673750D01*
X130714250Y-133515000D01*
X130023691Y-133515000D01*
X129790302Y-133611673D01*
X129611673Y-133790301D01*
X129515000Y-134023690D01*
X118335000Y-134023690D01*
X118335000Y-124285750D01*
X118515000Y-124285750D01*
X118515000Y-124976310D01*
X118611673Y-125209699D01*
X118790302Y-125388327D01*
X119023691Y-125485000D01*
X119714250Y-125485000D01*
X119873000Y-125326250D01*
X119873000Y-124127000D01*
X120127000Y-124127000D01*
X120127000Y-125326250D01*
X120285750Y-125485000D01*
X120976309Y-125485000D01*
X121209698Y-125388327D01*
X121388327Y-125209699D01*
X121485000Y-124976310D01*
X121485000Y-124285750D01*
X140515000Y-124285750D01*
X140515000Y-124976310D01*
X140611673Y-125209699D01*
X140790302Y-125388327D01*
X141023691Y-125485000D01*
X141714250Y-125485000D01*
X141873000Y-125326250D01*
X141873000Y-124127000D01*
X142127000Y-124127000D01*
X142127000Y-125326250D01*
X142285750Y-125485000D01*
X142976309Y-125485000D01*
X143209698Y-125388327D01*
X143388327Y-125209699D01*
X143485000Y-124976310D01*
X143485000Y-124285750D01*
X143326250Y-124127000D01*
X142127000Y-124127000D01*
X141873000Y-124127000D01*
X140673750Y-124127000D01*
X140515000Y-124285750D01*
X121485000Y-124285750D01*
X121326250Y-124127000D01*
X120127000Y-124127000D01*
X119873000Y-124127000D01*
X118673750Y-124127000D01*
X118515000Y-124285750D01*
X118335000Y-124285750D01*
X118335000Y-123023690D01*
X118515000Y-123023690D01*
X118515000Y-123714250D01*
X118673750Y-123873000D01*
X119873000Y-123873000D01*
X119873000Y-122673750D01*
X120127000Y-122673750D01*
X120127000Y-123873000D01*
X121326250Y-123873000D01*
X121485000Y-123714250D01*
X121485000Y-123023690D01*
X140515000Y-123023690D01*
X140515000Y-123714250D01*
X140673750Y-123873000D01*
X141873000Y-123873000D01*
X141873000Y-122673750D01*
X142127000Y-122673750D01*
X142127000Y-123873000D01*
X143326250Y-123873000D01*
X143485000Y-123714250D01*
X143485000Y-123023690D01*
X143388327Y-122790301D01*
X143209698Y-122611673D01*
X142976309Y-122515000D01*
X142285750Y-122515000D01*
X142127000Y-122673750D01*
X141873000Y-122673750D01*
X141714250Y-122515000D01*
X141023691Y-122515000D01*
X140790302Y-122611673D01*
X140611673Y-122790301D01*
X140515000Y-123023690D01*
X121485000Y-123023690D01*
X121388327Y-122790301D01*
X121209698Y-122611673D01*
X120976309Y-122515000D01*
X120285750Y-122515000D01*
X120127000Y-122673750D01*
X119873000Y-122673750D01*
X119714250Y-122515000D01*
X119023691Y-122515000D01*
X118790302Y-122611673D01*
X118611673Y-122790301D01*
X118515000Y-123023690D01*
X118335000Y-123023690D01*
X118335000Y-113285750D01*
X129515000Y-113285750D01*
X129515000Y-113976310D01*
X129611673Y-114209699D01*
X129790302Y-114388327D01*
X130023691Y-114485000D01*
X130714250Y-114485000D01*
X130873000Y-114326250D01*
X130873000Y-113127000D01*
X131127000Y-113127000D01*
X131127000Y-114326250D01*
X131285750Y-114485000D01*
X131976309Y-114485000D01*
X132209698Y-114388327D01*
X132388327Y-114209699D01*
X132485000Y-113976310D01*
X132485000Y-113285750D01*
X132326250Y-113127000D01*
X131127000Y-113127000D01*
X130873000Y-113127000D01*
X129673750Y-113127000D01*
X129515000Y-113285750D01*
X118335000Y-113285750D01*
X118335000Y-112023690D01*
X129515000Y-112023690D01*
X129515000Y-112714250D01*
X129673750Y-112873000D01*
X130873000Y-112873000D01*
X130873000Y-111673750D01*
X131127000Y-111673750D01*
X131127000Y-112873000D01*
X132326250Y-112873000D01*
X132485000Y-112714250D01*
X132485000Y-112023690D01*
X132388327Y-111790301D01*
X132368026Y-111770000D01*
X144165000Y-111770000D01*
X144165000Y-135730000D01*
X144228561Y-136049541D01*
X144335575Y-136209699D01*
X144409566Y-136320434D01*
X149409566Y-141320434D01*
X149680460Y-141501439D01*
X150000000Y-141565000D01*
X150319540Y-141501439D01*
X150590434Y-141320434D01*
X155590434Y-136320434D01*
X155664425Y-136209699D01*
X155771439Y-136049541D01*
X155835000Y-135730000D01*
X155835000Y-125406842D01*
X156023691Y-125485000D01*
X156714250Y-125485000D01*
X156873000Y-125326250D01*
X156873000Y-124127000D01*
X157127000Y-124127000D01*
X157127000Y-125326250D01*
X157285750Y-125485000D01*
X157976309Y-125485000D01*
X158209698Y-125388327D01*
X158388327Y-125209699D01*
X158485000Y-124976310D01*
X158485000Y-124285750D01*
X158326250Y-124127000D01*
X157127000Y-124127000D01*
X156873000Y-124127000D01*
X156853000Y-124127000D01*
X156853000Y-123873000D01*
X156873000Y-123873000D01*
X156873000Y-122673750D01*
X157127000Y-122673750D01*
X157127000Y-123873000D01*
X158326250Y-123873000D01*
X158485000Y-123714250D01*
X158485000Y-123023690D01*
X158388327Y-122790301D01*
X158209698Y-122611673D01*
X157976309Y-122515000D01*
X157285750Y-122515000D01*
X157127000Y-122673750D01*
X156873000Y-122673750D01*
X156714250Y-122515000D01*
X156023691Y-122515000D01*
X155835000Y-122593158D01*
X155835000Y-111770000D01*
X155771439Y-111450459D01*
X155590434Y-111179566D01*
X150590434Y-106179566D01*
X150319540Y-105998561D01*
X150000000Y-105935000D01*
X149680460Y-105998561D01*
X149409566Y-106179566D01*
X144409566Y-111179566D01*
X144228561Y-111450459D01*
X144165000Y-111770000D01*
X132368026Y-111770000D01*
X132209698Y-111611673D01*
X131976309Y-111515000D01*
X131285750Y-111515000D01*
X131127000Y-111673750D01*
X130873000Y-111673750D01*
X130714250Y-111515000D01*
X130023691Y-111515000D01*
X129790302Y-111611673D01*
X129611673Y-111790301D01*
X129515000Y-112023690D01*
X118335000Y-112023690D01*
X118335000Y-111770000D01*
X118271439Y-111450459D01*
X118090434Y-111179566D01*
X113090434Y-106179566D01*
X112819540Y-105998561D01*
X112500000Y-105935000D01*
X112180460Y-105998561D01*
X111909566Y-106179566D01*
X106909566Y-111179566D01*
X106728561Y-111450459D01*
X106665000Y-111770000D01*
X100710000Y-111770000D01*
X100710000Y-105285750D01*
X108515000Y-105285750D01*
X108515000Y-105976310D01*
X108611673Y-106209699D01*
X108790302Y-106388327D01*
X109023691Y-106485000D01*
X109714250Y-106485000D01*
X109873000Y-106326250D01*
X109873000Y-105127000D01*
X110127000Y-105127000D01*
X110127000Y-106326250D01*
X110285750Y-106485000D01*
X110976309Y-106485000D01*
X111209698Y-106388327D01*
X111388327Y-106209699D01*
X111485000Y-105976310D01*
X111485000Y-105285750D01*
X111326250Y-105127000D01*
X110127000Y-105127000D01*
X109873000Y-105127000D01*
X108673750Y-105127000D01*
X108515000Y-105285750D01*
X100710000Y-105285750D01*
X100710000Y-105000000D01*
X113435000Y-105000000D01*
X113498561Y-105319540D01*
X113679566Y-105590434D01*
X118679566Y-110590434D01*
X118950459Y-110771439D01*
X119270000Y-110835000D01*
X143230000Y-110835000D01*
X143549541Y-110771439D01*
X143820434Y-110590434D01*
X148820434Y-105590434D01*
X149001439Y-105319540D01*
X149008160Y-105285750D01*
X151015000Y-105285750D01*
X151015000Y-105976310D01*
X151111673Y-106209699D01*
X151290302Y-106388327D01*
X151523691Y-106485000D01*
X152214250Y-106485000D01*
X152373000Y-106326250D01*
X152373000Y-105127000D01*
X152627000Y-105127000D01*
X152627000Y-106326250D01*
X152785750Y-106485000D01*
X153476309Y-106485000D01*
X153709698Y-106388327D01*
X153888327Y-106209699D01*
X153985000Y-105976310D01*
X153985000Y-105285750D01*
X153826250Y-105127000D01*
X152627000Y-105127000D01*
X152373000Y-105127000D01*
X151173750Y-105127000D01*
X151015000Y-105285750D01*
X149008160Y-105285750D01*
X149065000Y-105000000D01*
X149001439Y-104680460D01*
X148820434Y-104409566D01*
X143820434Y-99409566D01*
X143549541Y-99228561D01*
X143230000Y-99165000D01*
X119270000Y-99165000D01*
X118950459Y-99228561D01*
X118679566Y-99409566D01*
X113679566Y-104409566D01*
X113498561Y-104680460D01*
X113435000Y-105000000D01*
X100710000Y-105000000D01*
X100710000Y-104023690D01*
X108515000Y-104023690D01*
X108515000Y-104714250D01*
X108673750Y-104873000D01*
X109873000Y-104873000D01*
X109873000Y-103673750D01*
X110127000Y-103673750D01*
X110127000Y-104873000D01*
X111326250Y-104873000D01*
X111485000Y-104714250D01*
X111485000Y-104023690D01*
X111388327Y-103790301D01*
X111209698Y-103611673D01*
X110976309Y-103515000D01*
X110285750Y-103515000D01*
X110127000Y-103673750D01*
X109873000Y-103673750D01*
X109714250Y-103515000D01*
X109023691Y-103515000D01*
X108790302Y-103611673D01*
X108611673Y-103790301D01*
X108515000Y-104023690D01*
X100710000Y-104023690D01*
X100710000Y-74270000D01*
X106665000Y-74270000D01*
X106665000Y-98230000D01*
X106728561Y-98549541D01*
X106909566Y-98820434D01*
X111909566Y-103820434D01*
X112180460Y-104001439D01*
X112500000Y-104065000D01*
X112819540Y-104001439D01*
X113090434Y-103820434D01*
X118090434Y-98820434D01*
X118271439Y-98549541D01*
X118335000Y-98230000D01*
X118335000Y-97285750D01*
X129515000Y-97285750D01*
X129515000Y-97976310D01*
X129611673Y-98209699D01*
X129790302Y-98388327D01*
X130023691Y-98485000D01*
X130714250Y-98485000D01*
X130873000Y-98326250D01*
X130873000Y-97127000D01*
X131127000Y-97127000D01*
X131127000Y-98326250D01*
X131285750Y-98485000D01*
X131976309Y-98485000D01*
X132209698Y-98388327D01*
X132388327Y-98209699D01*
X132485000Y-97976310D01*
X132485000Y-97285750D01*
X132326250Y-97127000D01*
X131127000Y-97127000D01*
X130873000Y-97127000D01*
X129673750Y-97127000D01*
X129515000Y-97285750D01*
X118335000Y-97285750D01*
X118335000Y-96023690D01*
X129515000Y-96023690D01*
X129515000Y-96714250D01*
X129673750Y-96873000D01*
X130873000Y-96873000D01*
X130873000Y-95673750D01*
X131127000Y-95673750D01*
X131127000Y-96873000D01*
X132326250Y-96873000D01*
X132485000Y-96714250D01*
X132485000Y-96023690D01*
X132388327Y-95790301D01*
X132209698Y-95611673D01*
X131976309Y-95515000D01*
X131285750Y-95515000D01*
X131127000Y-95673750D01*
X130873000Y-95673750D01*
X130714250Y-95515000D01*
X130023691Y-95515000D01*
X129790302Y-95611673D01*
X129611673Y-95790301D01*
X129515000Y-96023690D01*
X118335000Y-96023690D01*
X118335000Y-86285750D01*
X118515000Y-86285750D01*
X118515000Y-86976310D01*
X118611673Y-87209699D01*
X118790302Y-87388327D01*
X119023691Y-87485000D01*
X119714250Y-87485000D01*
X119873000Y-87326250D01*
X119873000Y-86127000D01*
X120127000Y-86127000D01*
X120127000Y-87326250D01*
X120285750Y-87485000D01*
X120976309Y-87485000D01*
X121209698Y-87388327D01*
X121388327Y-87209699D01*
X121485000Y-86976310D01*
X121485000Y-86285750D01*
X121326250Y-86127000D01*
X120127000Y-86127000D01*
X119873000Y-86127000D01*
X118673750Y-86127000D01*
X118515000Y-86285750D01*
X118335000Y-86285750D01*
X118335000Y-85023690D01*
X118515000Y-85023690D01*
X118515000Y-85714250D01*
X118673750Y-85873000D01*
X119873000Y-85873000D01*
X119873000Y-84673750D01*
X120127000Y-84673750D01*
X120127000Y-85873000D01*
X121326250Y-85873000D01*
X121485000Y-85714250D01*
X121485000Y-85023690D01*
X121388327Y-84790301D01*
X121209698Y-84611673D01*
X120976309Y-84515000D01*
X120285750Y-84515000D01*
X120127000Y-84673750D01*
X119873000Y-84673750D01*
X119714250Y-84515000D01*
X119023691Y-84515000D01*
X118790302Y-84611673D01*
X118611673Y-84790301D01*
X118515000Y-85023690D01*
X118335000Y-85023690D01*
X118335000Y-81000000D01*
X125165000Y-81000000D01*
X125165000Y-91000000D01*
X125228561Y-91319541D01*
X125409566Y-91590434D01*
X125680459Y-91771439D01*
X126000000Y-91835000D01*
X136000000Y-91835000D01*
X136319541Y-91771439D01*
X136590434Y-91590434D01*
X136771439Y-91319541D01*
X136835000Y-91000000D01*
X136835000Y-86285750D01*
X140515000Y-86285750D01*
X140515000Y-86976310D01*
X140611673Y-87209699D01*
X140790302Y-87388327D01*
X141023691Y-87485000D01*
X141714250Y-87485000D01*
X141873000Y-87326250D01*
X141873000Y-86127000D01*
X142127000Y-86127000D01*
X142127000Y-87326250D01*
X142285750Y-87485000D01*
X142976309Y-87485000D01*
X143209698Y-87388327D01*
X143388327Y-87209699D01*
X143485000Y-86976310D01*
X143485000Y-86285750D01*
X143326250Y-86127000D01*
X142127000Y-86127000D01*
X141873000Y-86127000D01*
X140673750Y-86127000D01*
X140515000Y-86285750D01*
X136835000Y-86285750D01*
X136835000Y-85023690D01*
X140515000Y-85023690D01*
X140515000Y-85714250D01*
X140673750Y-85873000D01*
X141873000Y-85873000D01*
X141873000Y-84673750D01*
X142127000Y-84673750D01*
X142127000Y-85873000D01*
X143326250Y-85873000D01*
X143485000Y-85714250D01*
X143485000Y-85023690D01*
X143388327Y-84790301D01*
X143209698Y-84611673D01*
X142976309Y-84515000D01*
X142285750Y-84515000D01*
X142127000Y-84673750D01*
X141873000Y-84673750D01*
X141714250Y-84515000D01*
X141023691Y-84515000D01*
X140790302Y-84611673D01*
X140611673Y-84790301D01*
X140515000Y-85023690D01*
X136835000Y-85023690D01*
X136835000Y-81000000D01*
X136771439Y-80680459D01*
X136590434Y-80409566D01*
X136319541Y-80228561D01*
X136000000Y-80165000D01*
X126000000Y-80165000D01*
X125680459Y-80228561D01*
X125409566Y-80409566D01*
X125228561Y-80680459D01*
X125165000Y-81000000D01*
X118335000Y-81000000D01*
X118335000Y-75285750D01*
X129515000Y-75285750D01*
X129515000Y-75976310D01*
X129611673Y-76209699D01*
X129790302Y-76388327D01*
X130023691Y-76485000D01*
X130714250Y-76485000D01*
X130873000Y-76326250D01*
X130873000Y-75127000D01*
X131127000Y-75127000D01*
X131127000Y-76326250D01*
X131285750Y-76485000D01*
X131976309Y-76485000D01*
X132209698Y-76388327D01*
X132388327Y-76209699D01*
X132485000Y-75976310D01*
X132485000Y-75285750D01*
X132326250Y-75127000D01*
X131127000Y-75127000D01*
X130873000Y-75127000D01*
X129673750Y-75127000D01*
X129515000Y-75285750D01*
X118335000Y-75285750D01*
X118335000Y-74270000D01*
X118286006Y-74023690D01*
X129515000Y-74023690D01*
X129515000Y-74714250D01*
X129673750Y-74873000D01*
X130873000Y-74873000D01*
X130873000Y-73673750D01*
X131127000Y-73673750D01*
X131127000Y-74873000D01*
X132326250Y-74873000D01*
X132485000Y-74714250D01*
X132485000Y-74270000D01*
X144165000Y-74270000D01*
X144165000Y-98230000D01*
X144228561Y-98549541D01*
X144409566Y-98820434D01*
X149409566Y-103820434D01*
X149680460Y-104001439D01*
X150000000Y-104065000D01*
X150207677Y-104023690D01*
X151015000Y-104023690D01*
X151015000Y-104714250D01*
X151173750Y-104873000D01*
X152373000Y-104873000D01*
X152373000Y-103673750D01*
X152627000Y-103673750D01*
X152627000Y-104873000D01*
X153826250Y-104873000D01*
X153985000Y-104714250D01*
X153985000Y-104023690D01*
X153888327Y-103790301D01*
X153709698Y-103611673D01*
X153476309Y-103515000D01*
X152785750Y-103515000D01*
X152627000Y-103673750D01*
X152373000Y-103673750D01*
X152214250Y-103515000D01*
X151523691Y-103515000D01*
X151290302Y-103611673D01*
X151111673Y-103790301D01*
X151015000Y-104023690D01*
X150207677Y-104023690D01*
X150319540Y-104001439D01*
X150590434Y-103820434D01*
X155590434Y-98820434D01*
X155771439Y-98549541D01*
X155835000Y-98230000D01*
X155835000Y-74270000D01*
X155771439Y-73950459D01*
X155590434Y-73679566D01*
X150590434Y-68679566D01*
X150319540Y-68498561D01*
X150000000Y-68435000D01*
X149680460Y-68498561D01*
X149409566Y-68679566D01*
X144409566Y-73679566D01*
X144228561Y-73950459D01*
X144165000Y-74270000D01*
X132485000Y-74270000D01*
X132485000Y-74023690D01*
X132388327Y-73790301D01*
X132209698Y-73611673D01*
X131976309Y-73515000D01*
X131285750Y-73515000D01*
X131127000Y-73673750D01*
X130873000Y-73673750D01*
X130714250Y-73515000D01*
X130023691Y-73515000D01*
X129790302Y-73611673D01*
X129611673Y-73790301D01*
X129515000Y-74023690D01*
X118286006Y-74023690D01*
X118271439Y-73950459D01*
X118090434Y-73679566D01*
X113090434Y-68679566D01*
X112819540Y-68498561D01*
X112500000Y-68435000D01*
X112180460Y-68498561D01*
X111909566Y-68679566D01*
X106909566Y-73679566D01*
X106728561Y-73950459D01*
X106665000Y-74270000D01*
X100710000Y-74270000D01*
X100710000Y-67500000D01*
X113435000Y-67500000D01*
X113498561Y-67819540D01*
X113679566Y-68090434D01*
X118679566Y-73090434D01*
X118950459Y-73271439D01*
X119270000Y-73335000D01*
X143230000Y-73335000D01*
X143549541Y-73271439D01*
X143820434Y-73090434D01*
X148820434Y-68090434D01*
X149001439Y-67819540D01*
X149065000Y-67500000D01*
X149001439Y-67180460D01*
X148820434Y-66909566D01*
X147196618Y-65285750D01*
X151015000Y-65285750D01*
X151015000Y-65976310D01*
X151111673Y-66209699D01*
X151290302Y-66388327D01*
X151523691Y-66485000D01*
X152214250Y-66485000D01*
X152373000Y-66326250D01*
X152373000Y-65127000D01*
X152627000Y-65127000D01*
X152627000Y-66326250D01*
X152785750Y-66485000D01*
X153476309Y-66485000D01*
X153709698Y-66388327D01*
X153888327Y-66209699D01*
X153985000Y-65976310D01*
X153985000Y-65285750D01*
X153826250Y-65127000D01*
X152627000Y-65127000D01*
X152373000Y-65127000D01*
X151173750Y-65127000D01*
X151015000Y-65285750D01*
X147196618Y-65285750D01*
X145934558Y-64023690D01*
X151015000Y-64023690D01*
X151015000Y-64714250D01*
X151173750Y-64873000D01*
X152373000Y-64873000D01*
X152373000Y-63673750D01*
X152627000Y-63673750D01*
X152627000Y-64873000D01*
X153826250Y-64873000D01*
X153985000Y-64714250D01*
X153985000Y-64023690D01*
X153888327Y-63790301D01*
X153709698Y-63611673D01*
X153476309Y-63515000D01*
X152785750Y-63515000D01*
X152627000Y-63673750D01*
X152373000Y-63673750D01*
X152214250Y-63515000D01*
X151523691Y-63515000D01*
X151290302Y-63611673D01*
X151111673Y-63790301D01*
X151015000Y-64023690D01*
X145934558Y-64023690D01*
X143820434Y-61909566D01*
X143549541Y-61728561D01*
X143230000Y-61665000D01*
X119270000Y-61665000D01*
X118950459Y-61728561D01*
X118679566Y-61909566D01*
X113679566Y-66909566D01*
X113498561Y-67180460D01*
X113435000Y-67500000D01*
X100710000Y-67500000D01*
X100710000Y-65285750D01*
X108515000Y-65285750D01*
X108515000Y-65976310D01*
X108611673Y-66209699D01*
X108790302Y-66388327D01*
X109023691Y-66485000D01*
X109714250Y-66485000D01*
X109873000Y-66326250D01*
X109873000Y-65127000D01*
X110127000Y-65127000D01*
X110127000Y-66326250D01*
X110285750Y-66485000D01*
X110976309Y-66485000D01*
X111209698Y-66388327D01*
X111388327Y-66209699D01*
X111485000Y-65976310D01*
X111485000Y-65285750D01*
X111326250Y-65127000D01*
X110127000Y-65127000D01*
X109873000Y-65127000D01*
X108673750Y-65127000D01*
X108515000Y-65285750D01*
X100710000Y-65285750D01*
X100710000Y-64023690D01*
X108515000Y-64023690D01*
X108515000Y-64714250D01*
X108673750Y-64873000D01*
X109873000Y-64873000D01*
X109873000Y-63673750D01*
X110127000Y-63673750D01*
X110127000Y-64873000D01*
X111326250Y-64873000D01*
X111485000Y-64714250D01*
X111485000Y-64023690D01*
X111388327Y-63790301D01*
X111209698Y-63611673D01*
X110976309Y-63515000D01*
X110285750Y-63515000D01*
X110127000Y-63673750D01*
X109873000Y-63673750D01*
X109714250Y-63515000D01*
X109023691Y-63515000D01*
X108790302Y-63611673D01*
X108611673Y-63790301D01*
X108515000Y-64023690D01*
X100710000Y-64023690D01*
X100710000Y-57069931D01*
X100821046Y-56511662D01*
X101097669Y-56097667D01*
X101511660Y-55821047D01*
X102069931Y-55710000D01*
X160430069Y-55710000D01*
X160988338Y-55821046D01*
M02*
