G04 #@! TF.FileFunction,Legend,Top*
%FSLAX46Y46*%
G04 Gerber Fmt 4.6, Leading zero omitted, Abs format (unit mm)*
G04 Created by KiCad (PCBNEW 4.0.4+e1-6308~48~ubuntu16.04.1-stable) date Sun Jan 28 16:14:42 2018*
%MOMM*%
%LPD*%
G01*
G04 APERTURE LIST*
%ADD10C,0.100000*%
%ADD11C,0.120000*%
G04 APERTURE END LIST*
D10*
D11*
X108670000Y-146330000D02*
X111330000Y-146330000D01*
X108670000Y-146270000D02*
X108670000Y-146330000D01*
X111330000Y-146270000D02*
X111330000Y-146330000D01*
X108670000Y-146270000D02*
X111330000Y-146270000D01*
X108670000Y-145000000D02*
X108670000Y-143670000D01*
X108670000Y-143670000D02*
X110000000Y-143670000D01*
X108670000Y-66330000D02*
X111330000Y-66330000D01*
X108670000Y-66270000D02*
X108670000Y-66330000D01*
X111330000Y-66270000D02*
X111330000Y-66330000D01*
X108670000Y-66270000D02*
X111330000Y-66270000D01*
X108670000Y-65000000D02*
X108670000Y-63670000D01*
X108670000Y-63670000D02*
X110000000Y-63670000D01*
X151170000Y-146330000D02*
X153830000Y-146330000D01*
X151170000Y-146270000D02*
X151170000Y-146330000D01*
X153830000Y-146270000D02*
X153830000Y-146330000D01*
X151170000Y-146270000D02*
X153830000Y-146270000D01*
X151170000Y-145000000D02*
X151170000Y-143670000D01*
X151170000Y-143670000D02*
X152500000Y-143670000D01*
X118670000Y-125330000D02*
X121330000Y-125330000D01*
X118670000Y-125270000D02*
X118670000Y-125330000D01*
X121330000Y-125270000D02*
X121330000Y-125330000D01*
X118670000Y-125270000D02*
X121330000Y-125270000D01*
X118670000Y-124000000D02*
X118670000Y-122670000D01*
X118670000Y-122670000D02*
X120000000Y-122670000D01*
X108670000Y-106330000D02*
X111330000Y-106330000D01*
X108670000Y-106270000D02*
X108670000Y-106330000D01*
X111330000Y-106270000D02*
X111330000Y-106330000D01*
X108670000Y-106270000D02*
X111330000Y-106270000D01*
X108670000Y-105000000D02*
X108670000Y-103670000D01*
X108670000Y-103670000D02*
X110000000Y-103670000D01*
X151170000Y-106330000D02*
X153830000Y-106330000D01*
X151170000Y-106270000D02*
X151170000Y-106330000D01*
X153830000Y-106270000D02*
X153830000Y-106330000D01*
X151170000Y-106270000D02*
X153830000Y-106270000D01*
X151170000Y-105000000D02*
X151170000Y-103670000D01*
X151170000Y-103670000D02*
X152500000Y-103670000D01*
X140670000Y-87330000D02*
X143330000Y-87330000D01*
X140670000Y-87270000D02*
X140670000Y-87330000D01*
X143330000Y-87270000D02*
X143330000Y-87330000D01*
X140670000Y-87270000D02*
X143330000Y-87270000D01*
X140670000Y-86000000D02*
X140670000Y-84670000D01*
X140670000Y-84670000D02*
X142000000Y-84670000D01*
X140670000Y-125330000D02*
X143330000Y-125330000D01*
X140670000Y-125270000D02*
X140670000Y-125330000D01*
X143330000Y-125270000D02*
X143330000Y-125330000D01*
X140670000Y-125270000D02*
X143330000Y-125270000D01*
X140670000Y-124000000D02*
X140670000Y-122670000D01*
X140670000Y-122670000D02*
X142000000Y-122670000D01*
X151170000Y-66330000D02*
X153830000Y-66330000D01*
X151170000Y-66270000D02*
X151170000Y-66330000D01*
X153830000Y-66270000D02*
X153830000Y-66330000D01*
X151170000Y-66270000D02*
X153830000Y-66270000D01*
X151170000Y-65000000D02*
X151170000Y-63670000D01*
X151170000Y-63670000D02*
X152500000Y-63670000D01*
X129670000Y-114330000D02*
X132330000Y-114330000D01*
X129670000Y-114270000D02*
X129670000Y-114330000D01*
X132330000Y-114270000D02*
X132330000Y-114330000D01*
X129670000Y-114270000D02*
X132330000Y-114270000D01*
X129670000Y-113000000D02*
X129670000Y-111670000D01*
X129670000Y-111670000D02*
X131000000Y-111670000D01*
X118670000Y-87330000D02*
X121330000Y-87330000D01*
X118670000Y-87270000D02*
X118670000Y-87330000D01*
X121330000Y-87270000D02*
X121330000Y-87330000D01*
X118670000Y-87270000D02*
X121330000Y-87270000D01*
X118670000Y-86000000D02*
X118670000Y-84670000D01*
X118670000Y-84670000D02*
X120000000Y-84670000D01*
X129670000Y-76330000D02*
X132330000Y-76330000D01*
X129670000Y-76270000D02*
X129670000Y-76330000D01*
X132330000Y-76270000D02*
X132330000Y-76330000D01*
X129670000Y-76270000D02*
X132330000Y-76270000D01*
X129670000Y-75000000D02*
X129670000Y-73670000D01*
X129670000Y-73670000D02*
X131000000Y-73670000D01*
X129670000Y-136330000D02*
X132330000Y-136330000D01*
X129670000Y-136270000D02*
X129670000Y-136330000D01*
X132330000Y-136270000D02*
X132330000Y-136330000D01*
X129670000Y-136270000D02*
X132330000Y-136270000D01*
X129670000Y-135000000D02*
X129670000Y-133670000D01*
X129670000Y-133670000D02*
X131000000Y-133670000D01*
X103670000Y-125330000D02*
X106330000Y-125330000D01*
X103670000Y-125270000D02*
X103670000Y-125330000D01*
X106330000Y-125270000D02*
X106330000Y-125330000D01*
X103670000Y-125270000D02*
X106330000Y-125270000D01*
X103670000Y-124000000D02*
X103670000Y-122670000D01*
X103670000Y-122670000D02*
X105000000Y-122670000D01*
X155670000Y-125330000D02*
X158330000Y-125330000D01*
X155670000Y-125270000D02*
X155670000Y-125330000D01*
X158330000Y-125270000D02*
X158330000Y-125330000D01*
X155670000Y-125270000D02*
X158330000Y-125270000D01*
X155670000Y-124000000D02*
X155670000Y-122670000D01*
X155670000Y-122670000D02*
X157000000Y-122670000D01*
X129670000Y-98330000D02*
X132330000Y-98330000D01*
X129670000Y-98270000D02*
X129670000Y-98330000D01*
X132330000Y-98270000D02*
X132330000Y-98330000D01*
X129670000Y-98270000D02*
X132330000Y-98270000D01*
X129670000Y-97000000D02*
X129670000Y-95670000D01*
X129670000Y-95670000D02*
X131000000Y-95670000D01*
M02*
