G04 #@! TF.FileFunction,Legend,Top*
%FSLAX46Y46*%
G04 Gerber Fmt 4.6, Leading zero omitted, Abs format (unit mm)*
G04 Created by KiCad (PCBNEW 4.0.4+e1-6308~48~ubuntu16.04.1-stable) date Sun Jan 28 16:13:34 2018*
%MOMM*%
%LPD*%
G01*
G04 APERTURE LIST*
%ADD10C,0.100000*%
%ADD11C,0.300000*%
%ADD12C,0.400000*%
%ADD13C,0.120000*%
%ADD14C,0.150000*%
G04 APERTURE END LIST*
D10*
D11*
X126214286Y-143857143D02*
X126214286Y-140857143D01*
X126928571Y-140857143D01*
X127357143Y-141000000D01*
X127642857Y-141285714D01*
X127785714Y-141571429D01*
X127928571Y-142142857D01*
X127928571Y-142571429D01*
X127785714Y-143142857D01*
X127642857Y-143428571D01*
X127357143Y-143714286D01*
X126928571Y-143857143D01*
X126214286Y-143857143D01*
X111857143Y-117785714D02*
X112857143Y-117785714D01*
X113285714Y-119357143D02*
X111857143Y-119357143D01*
X111857143Y-116357143D01*
X113285714Y-116357143D01*
X150928571Y-119071429D02*
X150785714Y-119214286D01*
X150357143Y-119357143D01*
X150071429Y-119357143D01*
X149642857Y-119214286D01*
X149357143Y-118928571D01*
X149214286Y-118642857D01*
X149071429Y-118071429D01*
X149071429Y-117642857D01*
X149214286Y-117071429D01*
X149357143Y-116785714D01*
X149642857Y-116500000D01*
X150071429Y-116357143D01*
X150357143Y-116357143D01*
X150785714Y-116500000D01*
X150928571Y-116642857D01*
X127285714Y-103500000D02*
X127000000Y-103357143D01*
X126571429Y-103357143D01*
X126142857Y-103500000D01*
X125857143Y-103785714D01*
X125714286Y-104071429D01*
X125571429Y-104642857D01*
X125571429Y-105071429D01*
X125714286Y-105642857D01*
X125857143Y-105928571D01*
X126142857Y-106214286D01*
X126571429Y-106357143D01*
X126857143Y-106357143D01*
X127285714Y-106214286D01*
X127428571Y-106071429D01*
X127428571Y-105071429D01*
X126857143Y-105071429D01*
X112928572Y-80785714D02*
X111928572Y-80785714D01*
X111928572Y-82357143D02*
X111928572Y-79357143D01*
X113357143Y-79357143D01*
X150214286Y-80785714D02*
X150642857Y-80928571D01*
X150785714Y-81071429D01*
X150928571Y-81357143D01*
X150928571Y-81785714D01*
X150785714Y-82071429D01*
X150642857Y-82214286D01*
X150357143Y-82357143D01*
X149214286Y-82357143D01*
X149214286Y-79357143D01*
X150214286Y-79357143D01*
X150500000Y-79500000D01*
X150642857Y-79642857D01*
X150785714Y-79928571D01*
X150785714Y-80214286D01*
X150642857Y-80500000D01*
X150500000Y-80642857D01*
X150214286Y-80785714D01*
X149214286Y-80785714D01*
X126285715Y-68000000D02*
X127714286Y-68000000D01*
X126000000Y-68857143D02*
X127000000Y-65857143D01*
X128000000Y-68857143D01*
D12*
X112500000Y-106770000D02*
X117500000Y-111770000D01*
X117500000Y-111770000D02*
X117500000Y-135730000D01*
X112500000Y-140730000D02*
X117500000Y-135730000D01*
X107500000Y-135730000D02*
X112500000Y-140730000D01*
X107500000Y-111770000D02*
X107500000Y-135730000D01*
X107500000Y-111770000D02*
X112500000Y-106770000D01*
X145000000Y-111770000D02*
X150000000Y-106770000D01*
X145000000Y-111770000D02*
X145000000Y-135730000D01*
X145000000Y-135730000D02*
X150000000Y-140730000D01*
X150000000Y-140730000D02*
X155000000Y-135730000D01*
X155000000Y-111770000D02*
X155000000Y-135730000D01*
X150000000Y-106770000D02*
X155000000Y-111770000D01*
X114270000Y-105000000D02*
X119270000Y-100000000D01*
X114270000Y-105000000D02*
X119270000Y-110000000D01*
X119270000Y-110000000D02*
X143230000Y-110000000D01*
X143230000Y-110000000D02*
X148230000Y-105000000D01*
X143230000Y-100000000D02*
X148230000Y-105000000D01*
X119270000Y-100000000D02*
X143230000Y-100000000D01*
X150000000Y-69270000D02*
X155000000Y-74270000D01*
X155000000Y-74270000D02*
X155000000Y-98230000D01*
X150000000Y-103230000D02*
X155000000Y-98230000D01*
X145000000Y-98230000D02*
X150000000Y-103230000D01*
X145000000Y-74270000D02*
X145000000Y-98230000D01*
X145000000Y-74270000D02*
X150000000Y-69270000D01*
X107500000Y-74270000D02*
X112500000Y-69270000D01*
X107500000Y-74270000D02*
X107500000Y-98230000D01*
X107500000Y-98230000D02*
X112500000Y-103230000D01*
X112500000Y-103230000D02*
X117500000Y-98230000D01*
X117500000Y-74270000D02*
X117500000Y-98230000D01*
X112500000Y-69270000D02*
X117500000Y-74270000D01*
X119270000Y-137500000D02*
X143230000Y-137500000D01*
X143230000Y-137500000D02*
X148230000Y-142500000D01*
X143230000Y-147500000D02*
X148230000Y-142500000D01*
X119270000Y-147500000D02*
X143230000Y-147500000D01*
X114270000Y-142500000D02*
X119270000Y-147500000D01*
X114270000Y-142500000D02*
X119270000Y-137500000D01*
X114270000Y-67500000D02*
X119270000Y-62500000D01*
X114270000Y-67500000D02*
X119270000Y-72500000D01*
X119270000Y-72500000D02*
X143230000Y-72500000D01*
X143230000Y-72500000D02*
X148230000Y-67500000D01*
X143230000Y-62500000D02*
X148230000Y-67500000D01*
X119270000Y-62500000D02*
X143230000Y-62500000D01*
D13*
X141500000Y-66490000D02*
X138800000Y-66490000D01*
X138800000Y-66490000D02*
X138800000Y-68510000D01*
X138800000Y-68510000D02*
X141500000Y-68510000D01*
X148990000Y-74000000D02*
X148990000Y-76700000D01*
X148990000Y-76700000D02*
X151010000Y-76700000D01*
X151010000Y-76700000D02*
X151010000Y-74000000D01*
X151010000Y-136000000D02*
X151010000Y-133300000D01*
X151010000Y-133300000D02*
X148990000Y-133300000D01*
X148990000Y-133300000D02*
X148990000Y-136000000D01*
X141500000Y-141490000D02*
X138800000Y-141490000D01*
X138800000Y-141490000D02*
X138800000Y-143510000D01*
X138800000Y-143510000D02*
X141500000Y-143510000D01*
X113510000Y-136000000D02*
X113510000Y-133300000D01*
X113510000Y-133300000D02*
X111490000Y-133300000D01*
X111490000Y-133300000D02*
X111490000Y-136000000D01*
X113510000Y-98500000D02*
X113510000Y-95800000D01*
X113510000Y-95800000D02*
X111490000Y-95800000D01*
X111490000Y-95800000D02*
X111490000Y-98500000D01*
X141500000Y-103990000D02*
X138800000Y-103990000D01*
X138800000Y-103990000D02*
X138800000Y-106010000D01*
X138800000Y-106010000D02*
X141500000Y-106010000D01*
X132250000Y-66490000D02*
X129550000Y-66490000D01*
X129550000Y-66490000D02*
X129550000Y-68510000D01*
X129550000Y-68510000D02*
X132250000Y-68510000D01*
X148990000Y-85250000D02*
X148990000Y-87950000D01*
X148990000Y-87950000D02*
X151010000Y-87950000D01*
X151010000Y-87950000D02*
X151010000Y-85250000D01*
X151010000Y-124500000D02*
X151010000Y-121800000D01*
X151010000Y-121800000D02*
X148990000Y-121800000D01*
X148990000Y-121800000D02*
X148990000Y-124500000D01*
X132250000Y-141490000D02*
X129550000Y-141490000D01*
X129550000Y-141490000D02*
X129550000Y-143510000D01*
X129550000Y-143510000D02*
X132250000Y-143510000D01*
X113510000Y-124750000D02*
X113510000Y-122050000D01*
X113510000Y-122050000D02*
X111490000Y-122050000D01*
X111490000Y-122050000D02*
X111490000Y-124750000D01*
X113510000Y-87250000D02*
X113510000Y-84550000D01*
X113510000Y-84550000D02*
X111490000Y-84550000D01*
X111490000Y-84550000D02*
X111490000Y-87250000D01*
X132250000Y-103990000D02*
X129550000Y-103990000D01*
X129550000Y-103990000D02*
X129550000Y-106010000D01*
X129550000Y-106010000D02*
X132250000Y-106010000D01*
X123000000Y-66490000D02*
X120300000Y-66490000D01*
X120300000Y-66490000D02*
X120300000Y-68510000D01*
X120300000Y-68510000D02*
X123000000Y-68510000D01*
X148990000Y-96500000D02*
X148990000Y-99200000D01*
X148990000Y-99200000D02*
X151010000Y-99200000D01*
X151010000Y-99200000D02*
X151010000Y-96500000D01*
X151010000Y-113500000D02*
X151010000Y-110800000D01*
X151010000Y-110800000D02*
X148990000Y-110800000D01*
X148990000Y-110800000D02*
X148990000Y-113500000D01*
X123000000Y-141490000D02*
X120300000Y-141490000D01*
X120300000Y-141490000D02*
X120300000Y-143510000D01*
X120300000Y-143510000D02*
X123000000Y-143510000D01*
X113510000Y-113500000D02*
X113510000Y-110800000D01*
X113510000Y-110800000D02*
X111490000Y-110800000D01*
X111490000Y-110800000D02*
X111490000Y-113500000D01*
X113510000Y-76000000D02*
X113510000Y-73300000D01*
X113510000Y-73300000D02*
X111490000Y-73300000D01*
X111490000Y-73300000D02*
X111490000Y-76000000D01*
X123000000Y-103990000D02*
X120300000Y-103990000D01*
X120300000Y-103990000D02*
X120300000Y-106010000D01*
X120300000Y-106010000D02*
X123000000Y-106010000D01*
X144010000Y-59950000D02*
X144010000Y-57290000D01*
X121090000Y-59950000D02*
X144010000Y-59950000D01*
X121090000Y-57290000D02*
X144010000Y-57290000D01*
X121090000Y-59950000D02*
X121090000Y-57290000D01*
X119820000Y-59950000D02*
X118490000Y-59950000D01*
X118490000Y-59950000D02*
X118490000Y-58620000D01*
X118490000Y-150050000D02*
X118490000Y-152710000D01*
X141410000Y-150050000D02*
X118490000Y-150050000D01*
X141410000Y-152710000D02*
X118490000Y-152710000D01*
X141410000Y-150050000D02*
X141410000Y-152710000D01*
X142680000Y-150050000D02*
X144010000Y-150050000D01*
X144010000Y-150050000D02*
X144010000Y-151380000D01*
X104810000Y-56630000D02*
X104810000Y-59370000D01*
X104810000Y-59370000D02*
X111350000Y-59370000D01*
X111350000Y-59370000D02*
X111350000Y-56630000D01*
X111350000Y-56630000D02*
X104810000Y-56630000D01*
X104040000Y-58000000D02*
X104810000Y-58000000D01*
X112120000Y-58000000D02*
X111350000Y-58000000D01*
X157690000Y-59370000D02*
X157690000Y-56630000D01*
X157690000Y-56630000D02*
X151150000Y-56630000D01*
X151150000Y-56630000D02*
X151150000Y-59370000D01*
X151150000Y-59370000D02*
X157690000Y-59370000D01*
X158460000Y-58000000D02*
X157690000Y-58000000D01*
X150380000Y-58000000D02*
X151150000Y-58000000D01*
X157690000Y-153370000D02*
X157690000Y-150630000D01*
X157690000Y-150630000D02*
X151150000Y-150630000D01*
X151150000Y-150630000D02*
X151150000Y-153370000D01*
X151150000Y-153370000D02*
X157690000Y-153370000D01*
X158460000Y-152000000D02*
X157690000Y-152000000D01*
X150380000Y-152000000D02*
X151150000Y-152000000D01*
X104810000Y-146630000D02*
X104810000Y-149370000D01*
X104810000Y-149370000D02*
X111350000Y-149370000D01*
X111350000Y-149370000D02*
X111350000Y-146630000D01*
X111350000Y-146630000D02*
X104810000Y-146630000D01*
X104040000Y-148000000D02*
X104810000Y-148000000D01*
X112120000Y-148000000D02*
X111350000Y-148000000D01*
X104810000Y-150630000D02*
X104810000Y-153370000D01*
X104810000Y-153370000D02*
X111350000Y-153370000D01*
X111350000Y-153370000D02*
X111350000Y-150630000D01*
X111350000Y-150630000D02*
X104810000Y-150630000D01*
X104040000Y-152000000D02*
X104810000Y-152000000D01*
X112120000Y-152000000D02*
X111350000Y-152000000D01*
X104810000Y-60630000D02*
X104810000Y-63370000D01*
X104810000Y-63370000D02*
X111350000Y-63370000D01*
X111350000Y-63370000D02*
X111350000Y-60630000D01*
X111350000Y-60630000D02*
X104810000Y-60630000D01*
X104040000Y-62000000D02*
X104810000Y-62000000D01*
X112120000Y-62000000D02*
X111350000Y-62000000D01*
X157690000Y-149370000D02*
X157690000Y-146630000D01*
X157690000Y-146630000D02*
X151150000Y-146630000D01*
X151150000Y-146630000D02*
X151150000Y-149370000D01*
X151150000Y-149370000D02*
X157690000Y-149370000D01*
X158460000Y-148000000D02*
X157690000Y-148000000D01*
X150380000Y-148000000D02*
X151150000Y-148000000D01*
X102290000Y-91390000D02*
X104950000Y-91390000D01*
X102290000Y-86250000D02*
X102290000Y-91390000D01*
X104950000Y-86250000D02*
X104950000Y-91390000D01*
X102290000Y-86250000D02*
X104950000Y-86250000D01*
X102290000Y-84980000D02*
X102290000Y-83650000D01*
X102290000Y-83650000D02*
X103620000Y-83650000D01*
X157550000Y-91390000D02*
X160210000Y-91390000D01*
X157550000Y-86250000D02*
X157550000Y-91390000D01*
X160210000Y-86250000D02*
X160210000Y-91390000D01*
X157550000Y-86250000D02*
X160210000Y-86250000D01*
X157550000Y-84980000D02*
X157550000Y-83650000D01*
X157550000Y-83650000D02*
X158880000Y-83650000D01*
X104950000Y-118610000D02*
X102290000Y-118610000D01*
X104950000Y-123750000D02*
X104950000Y-118610000D01*
X102290000Y-123750000D02*
X102290000Y-118610000D01*
X104950000Y-123750000D02*
X102290000Y-123750000D01*
X104950000Y-125020000D02*
X104950000Y-126350000D01*
X104950000Y-126350000D02*
X103620000Y-126350000D01*
X160210000Y-118610000D02*
X157550000Y-118610000D01*
X160210000Y-123750000D02*
X160210000Y-118610000D01*
X157550000Y-123750000D02*
X157550000Y-118610000D01*
X160210000Y-123750000D02*
X157550000Y-123750000D01*
X160210000Y-125020000D02*
X160210000Y-126350000D01*
X160210000Y-126350000D02*
X158880000Y-126350000D01*
D14*
X139761905Y-66102381D02*
X139761905Y-65102381D01*
X140000000Y-65102381D01*
X140142858Y-65150000D01*
X140238096Y-65245238D01*
X140285715Y-65340476D01*
X140333334Y-65530952D01*
X140333334Y-65673810D01*
X140285715Y-65864286D01*
X140238096Y-65959524D01*
X140142858Y-66054762D01*
X140000000Y-66102381D01*
X139761905Y-66102381D01*
X141285715Y-66102381D02*
X140714286Y-66102381D01*
X141000000Y-66102381D02*
X141000000Y-65102381D01*
X140904762Y-65245238D01*
X140809524Y-65340476D01*
X140714286Y-65388095D01*
X148602381Y-75738095D02*
X147602381Y-75738095D01*
X147602381Y-75500000D01*
X147650000Y-75357142D01*
X147745238Y-75261904D01*
X147840476Y-75214285D01*
X148030952Y-75166666D01*
X148173810Y-75166666D01*
X148364286Y-75214285D01*
X148459524Y-75261904D01*
X148554762Y-75357142D01*
X148602381Y-75500000D01*
X148602381Y-75738095D01*
X147697619Y-74785714D02*
X147650000Y-74738095D01*
X147602381Y-74642857D01*
X147602381Y-74404761D01*
X147650000Y-74309523D01*
X147697619Y-74261904D01*
X147792857Y-74214285D01*
X147888095Y-74214285D01*
X148030952Y-74261904D01*
X148602381Y-74833333D01*
X148602381Y-74214285D01*
X152302381Y-135738095D02*
X151302381Y-135738095D01*
X151302381Y-135500000D01*
X151350000Y-135357142D01*
X151445238Y-135261904D01*
X151540476Y-135214285D01*
X151730952Y-135166666D01*
X151873810Y-135166666D01*
X152064286Y-135214285D01*
X152159524Y-135261904D01*
X152254762Y-135357142D01*
X152302381Y-135500000D01*
X152302381Y-135738095D01*
X151302381Y-134833333D02*
X151302381Y-134214285D01*
X151683333Y-134547619D01*
X151683333Y-134404761D01*
X151730952Y-134309523D01*
X151778571Y-134261904D01*
X151873810Y-134214285D01*
X152111905Y-134214285D01*
X152207143Y-134261904D01*
X152254762Y-134309523D01*
X152302381Y-134404761D01*
X152302381Y-134690476D01*
X152254762Y-134785714D01*
X152207143Y-134833333D01*
X139761905Y-141102381D02*
X139761905Y-140102381D01*
X140000000Y-140102381D01*
X140142858Y-140150000D01*
X140238096Y-140245238D01*
X140285715Y-140340476D01*
X140333334Y-140530952D01*
X140333334Y-140673810D01*
X140285715Y-140864286D01*
X140238096Y-140959524D01*
X140142858Y-141054762D01*
X140000000Y-141102381D01*
X139761905Y-141102381D01*
X141190477Y-140435714D02*
X141190477Y-141102381D01*
X140952381Y-140054762D02*
X140714286Y-140769048D01*
X141333334Y-140769048D01*
X114802381Y-135738095D02*
X113802381Y-135738095D01*
X113802381Y-135500000D01*
X113850000Y-135357142D01*
X113945238Y-135261904D01*
X114040476Y-135214285D01*
X114230952Y-135166666D01*
X114373810Y-135166666D01*
X114564286Y-135214285D01*
X114659524Y-135261904D01*
X114754762Y-135357142D01*
X114802381Y-135500000D01*
X114802381Y-135738095D01*
X113802381Y-134261904D02*
X113802381Y-134738095D01*
X114278571Y-134785714D01*
X114230952Y-134738095D01*
X114183333Y-134642857D01*
X114183333Y-134404761D01*
X114230952Y-134309523D01*
X114278571Y-134261904D01*
X114373810Y-134214285D01*
X114611905Y-134214285D01*
X114707143Y-134261904D01*
X114754762Y-134309523D01*
X114802381Y-134404761D01*
X114802381Y-134642857D01*
X114754762Y-134738095D01*
X114707143Y-134785714D01*
X114802381Y-98238095D02*
X113802381Y-98238095D01*
X113802381Y-98000000D01*
X113850000Y-97857142D01*
X113945238Y-97761904D01*
X114040476Y-97714285D01*
X114230952Y-97666666D01*
X114373810Y-97666666D01*
X114564286Y-97714285D01*
X114659524Y-97761904D01*
X114754762Y-97857142D01*
X114802381Y-98000000D01*
X114802381Y-98238095D01*
X113802381Y-96809523D02*
X113802381Y-97000000D01*
X113850000Y-97095238D01*
X113897619Y-97142857D01*
X114040476Y-97238095D01*
X114230952Y-97285714D01*
X114611905Y-97285714D01*
X114707143Y-97238095D01*
X114754762Y-97190476D01*
X114802381Y-97095238D01*
X114802381Y-96904761D01*
X114754762Y-96809523D01*
X114707143Y-96761904D01*
X114611905Y-96714285D01*
X114373810Y-96714285D01*
X114278571Y-96761904D01*
X114230952Y-96809523D01*
X114183333Y-96904761D01*
X114183333Y-97095238D01*
X114230952Y-97190476D01*
X114278571Y-97238095D01*
X114373810Y-97285714D01*
X139761905Y-103602381D02*
X139761905Y-102602381D01*
X140000000Y-102602381D01*
X140142858Y-102650000D01*
X140238096Y-102745238D01*
X140285715Y-102840476D01*
X140333334Y-103030952D01*
X140333334Y-103173810D01*
X140285715Y-103364286D01*
X140238096Y-103459524D01*
X140142858Y-103554762D01*
X140000000Y-103602381D01*
X139761905Y-103602381D01*
X140666667Y-102602381D02*
X141333334Y-102602381D01*
X140904762Y-103602381D01*
X130511905Y-66102381D02*
X130511905Y-65102381D01*
X130750000Y-65102381D01*
X130892858Y-65150000D01*
X130988096Y-65245238D01*
X131035715Y-65340476D01*
X131083334Y-65530952D01*
X131083334Y-65673810D01*
X131035715Y-65864286D01*
X130988096Y-65959524D01*
X130892858Y-66054762D01*
X130750000Y-66102381D01*
X130511905Y-66102381D01*
X131654762Y-65530952D02*
X131559524Y-65483333D01*
X131511905Y-65435714D01*
X131464286Y-65340476D01*
X131464286Y-65292857D01*
X131511905Y-65197619D01*
X131559524Y-65150000D01*
X131654762Y-65102381D01*
X131845239Y-65102381D01*
X131940477Y-65150000D01*
X131988096Y-65197619D01*
X132035715Y-65292857D01*
X132035715Y-65340476D01*
X131988096Y-65435714D01*
X131940477Y-65483333D01*
X131845239Y-65530952D01*
X131654762Y-65530952D01*
X131559524Y-65578571D01*
X131511905Y-65626190D01*
X131464286Y-65721429D01*
X131464286Y-65911905D01*
X131511905Y-66007143D01*
X131559524Y-66054762D01*
X131654762Y-66102381D01*
X131845239Y-66102381D01*
X131940477Y-66054762D01*
X131988096Y-66007143D01*
X132035715Y-65911905D01*
X132035715Y-65721429D01*
X131988096Y-65626190D01*
X131940477Y-65578571D01*
X131845239Y-65530952D01*
X148602381Y-86988095D02*
X147602381Y-86988095D01*
X147602381Y-86750000D01*
X147650000Y-86607142D01*
X147745238Y-86511904D01*
X147840476Y-86464285D01*
X148030952Y-86416666D01*
X148173810Y-86416666D01*
X148364286Y-86464285D01*
X148459524Y-86511904D01*
X148554762Y-86607142D01*
X148602381Y-86750000D01*
X148602381Y-86988095D01*
X148602381Y-85940476D02*
X148602381Y-85750000D01*
X148554762Y-85654761D01*
X148507143Y-85607142D01*
X148364286Y-85511904D01*
X148173810Y-85464285D01*
X147792857Y-85464285D01*
X147697619Y-85511904D01*
X147650000Y-85559523D01*
X147602381Y-85654761D01*
X147602381Y-85845238D01*
X147650000Y-85940476D01*
X147697619Y-85988095D01*
X147792857Y-86035714D01*
X148030952Y-86035714D01*
X148126190Y-85988095D01*
X148173810Y-85940476D01*
X148221429Y-85845238D01*
X148221429Y-85654761D01*
X148173810Y-85559523D01*
X148126190Y-85511904D01*
X148030952Y-85464285D01*
X152302381Y-124714286D02*
X151302381Y-124714286D01*
X151302381Y-124476191D01*
X151350000Y-124333333D01*
X151445238Y-124238095D01*
X151540476Y-124190476D01*
X151730952Y-124142857D01*
X151873810Y-124142857D01*
X152064286Y-124190476D01*
X152159524Y-124238095D01*
X152254762Y-124333333D01*
X152302381Y-124476191D01*
X152302381Y-124714286D01*
X152302381Y-123190476D02*
X152302381Y-123761905D01*
X152302381Y-123476191D02*
X151302381Y-123476191D01*
X151445238Y-123571429D01*
X151540476Y-123666667D01*
X151588095Y-123761905D01*
X151302381Y-122571429D02*
X151302381Y-122476190D01*
X151350000Y-122380952D01*
X151397619Y-122333333D01*
X151492857Y-122285714D01*
X151683333Y-122238095D01*
X151921429Y-122238095D01*
X152111905Y-122285714D01*
X152207143Y-122333333D01*
X152254762Y-122380952D01*
X152302381Y-122476190D01*
X152302381Y-122571429D01*
X152254762Y-122666667D01*
X152207143Y-122714286D01*
X152111905Y-122761905D01*
X151921429Y-122809524D01*
X151683333Y-122809524D01*
X151492857Y-122761905D01*
X151397619Y-122714286D01*
X151350000Y-122666667D01*
X151302381Y-122571429D01*
X130035714Y-141102381D02*
X130035714Y-140102381D01*
X130273809Y-140102381D01*
X130416667Y-140150000D01*
X130511905Y-140245238D01*
X130559524Y-140340476D01*
X130607143Y-140530952D01*
X130607143Y-140673810D01*
X130559524Y-140864286D01*
X130511905Y-140959524D01*
X130416667Y-141054762D01*
X130273809Y-141102381D01*
X130035714Y-141102381D01*
X131559524Y-141102381D02*
X130988095Y-141102381D01*
X131273809Y-141102381D02*
X131273809Y-140102381D01*
X131178571Y-140245238D01*
X131083333Y-140340476D01*
X130988095Y-140388095D01*
X132511905Y-141102381D02*
X131940476Y-141102381D01*
X132226190Y-141102381D02*
X132226190Y-140102381D01*
X132130952Y-140245238D01*
X132035714Y-140340476D01*
X131940476Y-140388095D01*
X114802381Y-124964286D02*
X113802381Y-124964286D01*
X113802381Y-124726191D01*
X113850000Y-124583333D01*
X113945238Y-124488095D01*
X114040476Y-124440476D01*
X114230952Y-124392857D01*
X114373810Y-124392857D01*
X114564286Y-124440476D01*
X114659524Y-124488095D01*
X114754762Y-124583333D01*
X114802381Y-124726191D01*
X114802381Y-124964286D01*
X114802381Y-123440476D02*
X114802381Y-124011905D01*
X114802381Y-123726191D02*
X113802381Y-123726191D01*
X113945238Y-123821429D01*
X114040476Y-123916667D01*
X114088095Y-124011905D01*
X113897619Y-123059524D02*
X113850000Y-123011905D01*
X113802381Y-122916667D01*
X113802381Y-122678571D01*
X113850000Y-122583333D01*
X113897619Y-122535714D01*
X113992857Y-122488095D01*
X114088095Y-122488095D01*
X114230952Y-122535714D01*
X114802381Y-123107143D01*
X114802381Y-122488095D01*
X114802381Y-87464286D02*
X113802381Y-87464286D01*
X113802381Y-87226191D01*
X113850000Y-87083333D01*
X113945238Y-86988095D01*
X114040476Y-86940476D01*
X114230952Y-86892857D01*
X114373810Y-86892857D01*
X114564286Y-86940476D01*
X114659524Y-86988095D01*
X114754762Y-87083333D01*
X114802381Y-87226191D01*
X114802381Y-87464286D01*
X114802381Y-85940476D02*
X114802381Y-86511905D01*
X114802381Y-86226191D02*
X113802381Y-86226191D01*
X113945238Y-86321429D01*
X114040476Y-86416667D01*
X114088095Y-86511905D01*
X113802381Y-85607143D02*
X113802381Y-84988095D01*
X114183333Y-85321429D01*
X114183333Y-85178571D01*
X114230952Y-85083333D01*
X114278571Y-85035714D01*
X114373810Y-84988095D01*
X114611905Y-84988095D01*
X114707143Y-85035714D01*
X114754762Y-85083333D01*
X114802381Y-85178571D01*
X114802381Y-85464286D01*
X114754762Y-85559524D01*
X114707143Y-85607143D01*
X130035714Y-103602381D02*
X130035714Y-102602381D01*
X130273809Y-102602381D01*
X130416667Y-102650000D01*
X130511905Y-102745238D01*
X130559524Y-102840476D01*
X130607143Y-103030952D01*
X130607143Y-103173810D01*
X130559524Y-103364286D01*
X130511905Y-103459524D01*
X130416667Y-103554762D01*
X130273809Y-103602381D01*
X130035714Y-103602381D01*
X131559524Y-103602381D02*
X130988095Y-103602381D01*
X131273809Y-103602381D02*
X131273809Y-102602381D01*
X131178571Y-102745238D01*
X131083333Y-102840476D01*
X130988095Y-102888095D01*
X132416667Y-102935714D02*
X132416667Y-103602381D01*
X132178571Y-102554762D02*
X131940476Y-103269048D01*
X132559524Y-103269048D01*
X120785714Y-66102381D02*
X120785714Y-65102381D01*
X121023809Y-65102381D01*
X121166667Y-65150000D01*
X121261905Y-65245238D01*
X121309524Y-65340476D01*
X121357143Y-65530952D01*
X121357143Y-65673810D01*
X121309524Y-65864286D01*
X121261905Y-65959524D01*
X121166667Y-66054762D01*
X121023809Y-66102381D01*
X120785714Y-66102381D01*
X122309524Y-66102381D02*
X121738095Y-66102381D01*
X122023809Y-66102381D02*
X122023809Y-65102381D01*
X121928571Y-65245238D01*
X121833333Y-65340476D01*
X121738095Y-65388095D01*
X123214286Y-65102381D02*
X122738095Y-65102381D01*
X122690476Y-65578571D01*
X122738095Y-65530952D01*
X122833333Y-65483333D01*
X123071429Y-65483333D01*
X123166667Y-65530952D01*
X123214286Y-65578571D01*
X123261905Y-65673810D01*
X123261905Y-65911905D01*
X123214286Y-66007143D01*
X123166667Y-66054762D01*
X123071429Y-66102381D01*
X122833333Y-66102381D01*
X122738095Y-66054762D01*
X122690476Y-66007143D01*
X148602381Y-98714286D02*
X147602381Y-98714286D01*
X147602381Y-98476191D01*
X147650000Y-98333333D01*
X147745238Y-98238095D01*
X147840476Y-98190476D01*
X148030952Y-98142857D01*
X148173810Y-98142857D01*
X148364286Y-98190476D01*
X148459524Y-98238095D01*
X148554762Y-98333333D01*
X148602381Y-98476191D01*
X148602381Y-98714286D01*
X148602381Y-97190476D02*
X148602381Y-97761905D01*
X148602381Y-97476191D02*
X147602381Y-97476191D01*
X147745238Y-97571429D01*
X147840476Y-97666667D01*
X147888095Y-97761905D01*
X147602381Y-96333333D02*
X147602381Y-96523810D01*
X147650000Y-96619048D01*
X147697619Y-96666667D01*
X147840476Y-96761905D01*
X148030952Y-96809524D01*
X148411905Y-96809524D01*
X148507143Y-96761905D01*
X148554762Y-96714286D01*
X148602381Y-96619048D01*
X148602381Y-96428571D01*
X148554762Y-96333333D01*
X148507143Y-96285714D01*
X148411905Y-96238095D01*
X148173810Y-96238095D01*
X148078571Y-96285714D01*
X148030952Y-96333333D01*
X147983333Y-96428571D01*
X147983333Y-96619048D01*
X148030952Y-96714286D01*
X148078571Y-96761905D01*
X148173810Y-96809524D01*
X152302381Y-113714286D02*
X151302381Y-113714286D01*
X151302381Y-113476191D01*
X151350000Y-113333333D01*
X151445238Y-113238095D01*
X151540476Y-113190476D01*
X151730952Y-113142857D01*
X151873810Y-113142857D01*
X152064286Y-113190476D01*
X152159524Y-113238095D01*
X152254762Y-113333333D01*
X152302381Y-113476191D01*
X152302381Y-113714286D01*
X152302381Y-112190476D02*
X152302381Y-112761905D01*
X152302381Y-112476191D02*
X151302381Y-112476191D01*
X151445238Y-112571429D01*
X151540476Y-112666667D01*
X151588095Y-112761905D01*
X151302381Y-111857143D02*
X151302381Y-111190476D01*
X152302381Y-111619048D01*
X120785714Y-141102381D02*
X120785714Y-140102381D01*
X121023809Y-140102381D01*
X121166667Y-140150000D01*
X121261905Y-140245238D01*
X121309524Y-140340476D01*
X121357143Y-140530952D01*
X121357143Y-140673810D01*
X121309524Y-140864286D01*
X121261905Y-140959524D01*
X121166667Y-141054762D01*
X121023809Y-141102381D01*
X120785714Y-141102381D01*
X122309524Y-141102381D02*
X121738095Y-141102381D01*
X122023809Y-141102381D02*
X122023809Y-140102381D01*
X121928571Y-140245238D01*
X121833333Y-140340476D01*
X121738095Y-140388095D01*
X122880952Y-140530952D02*
X122785714Y-140483333D01*
X122738095Y-140435714D01*
X122690476Y-140340476D01*
X122690476Y-140292857D01*
X122738095Y-140197619D01*
X122785714Y-140150000D01*
X122880952Y-140102381D01*
X123071429Y-140102381D01*
X123166667Y-140150000D01*
X123214286Y-140197619D01*
X123261905Y-140292857D01*
X123261905Y-140340476D01*
X123214286Y-140435714D01*
X123166667Y-140483333D01*
X123071429Y-140530952D01*
X122880952Y-140530952D01*
X122785714Y-140578571D01*
X122738095Y-140626190D01*
X122690476Y-140721429D01*
X122690476Y-140911905D01*
X122738095Y-141007143D01*
X122785714Y-141054762D01*
X122880952Y-141102381D01*
X123071429Y-141102381D01*
X123166667Y-141054762D01*
X123214286Y-141007143D01*
X123261905Y-140911905D01*
X123261905Y-140721429D01*
X123214286Y-140626190D01*
X123166667Y-140578571D01*
X123071429Y-140530952D01*
X114802381Y-113714286D02*
X113802381Y-113714286D01*
X113802381Y-113476191D01*
X113850000Y-113333333D01*
X113945238Y-113238095D01*
X114040476Y-113190476D01*
X114230952Y-113142857D01*
X114373810Y-113142857D01*
X114564286Y-113190476D01*
X114659524Y-113238095D01*
X114754762Y-113333333D01*
X114802381Y-113476191D01*
X114802381Y-113714286D01*
X114802381Y-112190476D02*
X114802381Y-112761905D01*
X114802381Y-112476191D02*
X113802381Y-112476191D01*
X113945238Y-112571429D01*
X114040476Y-112666667D01*
X114088095Y-112761905D01*
X114802381Y-111714286D02*
X114802381Y-111523810D01*
X114754762Y-111428571D01*
X114707143Y-111380952D01*
X114564286Y-111285714D01*
X114373810Y-111238095D01*
X113992857Y-111238095D01*
X113897619Y-111285714D01*
X113850000Y-111333333D01*
X113802381Y-111428571D01*
X113802381Y-111619048D01*
X113850000Y-111714286D01*
X113897619Y-111761905D01*
X113992857Y-111809524D01*
X114230952Y-111809524D01*
X114326190Y-111761905D01*
X114373810Y-111714286D01*
X114421429Y-111619048D01*
X114421429Y-111428571D01*
X114373810Y-111333333D01*
X114326190Y-111285714D01*
X114230952Y-111238095D01*
X114802381Y-76214286D02*
X113802381Y-76214286D01*
X113802381Y-75976191D01*
X113850000Y-75833333D01*
X113945238Y-75738095D01*
X114040476Y-75690476D01*
X114230952Y-75642857D01*
X114373810Y-75642857D01*
X114564286Y-75690476D01*
X114659524Y-75738095D01*
X114754762Y-75833333D01*
X114802381Y-75976191D01*
X114802381Y-76214286D01*
X113897619Y-75261905D02*
X113850000Y-75214286D01*
X113802381Y-75119048D01*
X113802381Y-74880952D01*
X113850000Y-74785714D01*
X113897619Y-74738095D01*
X113992857Y-74690476D01*
X114088095Y-74690476D01*
X114230952Y-74738095D01*
X114802381Y-75309524D01*
X114802381Y-74690476D01*
X113802381Y-74071429D02*
X113802381Y-73976190D01*
X113850000Y-73880952D01*
X113897619Y-73833333D01*
X113992857Y-73785714D01*
X114183333Y-73738095D01*
X114421429Y-73738095D01*
X114611905Y-73785714D01*
X114707143Y-73833333D01*
X114754762Y-73880952D01*
X114802381Y-73976190D01*
X114802381Y-74071429D01*
X114754762Y-74166667D01*
X114707143Y-74214286D01*
X114611905Y-74261905D01*
X114421429Y-74309524D01*
X114183333Y-74309524D01*
X113992857Y-74261905D01*
X113897619Y-74214286D01*
X113850000Y-74166667D01*
X113802381Y-74071429D01*
X120785714Y-103602381D02*
X120785714Y-102602381D01*
X121023809Y-102602381D01*
X121166667Y-102650000D01*
X121261905Y-102745238D01*
X121309524Y-102840476D01*
X121357143Y-103030952D01*
X121357143Y-103173810D01*
X121309524Y-103364286D01*
X121261905Y-103459524D01*
X121166667Y-103554762D01*
X121023809Y-103602381D01*
X120785714Y-103602381D01*
X121738095Y-102697619D02*
X121785714Y-102650000D01*
X121880952Y-102602381D01*
X122119048Y-102602381D01*
X122214286Y-102650000D01*
X122261905Y-102697619D01*
X122309524Y-102792857D01*
X122309524Y-102888095D01*
X122261905Y-103030952D01*
X121690476Y-103602381D01*
X122309524Y-103602381D01*
X123261905Y-103602381D02*
X122690476Y-103602381D01*
X122976190Y-103602381D02*
X122976190Y-102602381D01*
X122880952Y-102745238D01*
X122785714Y-102840476D01*
X122690476Y-102888095D01*
X107833334Y-58452381D02*
X107500000Y-57976190D01*
X107261905Y-58452381D02*
X107261905Y-57452381D01*
X107642858Y-57452381D01*
X107738096Y-57500000D01*
X107785715Y-57547619D01*
X107833334Y-57642857D01*
X107833334Y-57785714D01*
X107785715Y-57880952D01*
X107738096Y-57928571D01*
X107642858Y-57976190D01*
X107261905Y-57976190D01*
X108785715Y-58452381D02*
X108214286Y-58452381D01*
X108500000Y-58452381D02*
X108500000Y-57452381D01*
X108404762Y-57595238D01*
X108309524Y-57690476D01*
X108214286Y-57738095D01*
X154333334Y-58452381D02*
X154000000Y-57976190D01*
X153761905Y-58452381D02*
X153761905Y-57452381D01*
X154142858Y-57452381D01*
X154238096Y-57500000D01*
X154285715Y-57547619D01*
X154333334Y-57642857D01*
X154333334Y-57785714D01*
X154285715Y-57880952D01*
X154238096Y-57928571D01*
X154142858Y-57976190D01*
X153761905Y-57976190D01*
X154714286Y-57547619D02*
X154761905Y-57500000D01*
X154857143Y-57452381D01*
X155095239Y-57452381D01*
X155190477Y-57500000D01*
X155238096Y-57547619D01*
X155285715Y-57642857D01*
X155285715Y-57738095D01*
X155238096Y-57880952D01*
X154666667Y-58452381D01*
X155285715Y-58452381D01*
X154333334Y-152452381D02*
X154000000Y-151976190D01*
X153761905Y-152452381D02*
X153761905Y-151452381D01*
X154142858Y-151452381D01*
X154238096Y-151500000D01*
X154285715Y-151547619D01*
X154333334Y-151642857D01*
X154333334Y-151785714D01*
X154285715Y-151880952D01*
X154238096Y-151928571D01*
X154142858Y-151976190D01*
X153761905Y-151976190D01*
X154666667Y-151452381D02*
X155285715Y-151452381D01*
X154952381Y-151833333D01*
X155095239Y-151833333D01*
X155190477Y-151880952D01*
X155238096Y-151928571D01*
X155285715Y-152023810D01*
X155285715Y-152261905D01*
X155238096Y-152357143D01*
X155190477Y-152404762D01*
X155095239Y-152452381D01*
X154809524Y-152452381D01*
X154714286Y-152404762D01*
X154666667Y-152357143D01*
X107833334Y-148452381D02*
X107500000Y-147976190D01*
X107261905Y-148452381D02*
X107261905Y-147452381D01*
X107642858Y-147452381D01*
X107738096Y-147500000D01*
X107785715Y-147547619D01*
X107833334Y-147642857D01*
X107833334Y-147785714D01*
X107785715Y-147880952D01*
X107738096Y-147928571D01*
X107642858Y-147976190D01*
X107261905Y-147976190D01*
X108690477Y-147785714D02*
X108690477Y-148452381D01*
X108452381Y-147404762D02*
X108214286Y-148119048D01*
X108833334Y-148119048D01*
X107833334Y-152452381D02*
X107500000Y-151976190D01*
X107261905Y-152452381D02*
X107261905Y-151452381D01*
X107642858Y-151452381D01*
X107738096Y-151500000D01*
X107785715Y-151547619D01*
X107833334Y-151642857D01*
X107833334Y-151785714D01*
X107785715Y-151880952D01*
X107738096Y-151928571D01*
X107642858Y-151976190D01*
X107261905Y-151976190D01*
X108738096Y-151452381D02*
X108261905Y-151452381D01*
X108214286Y-151928571D01*
X108261905Y-151880952D01*
X108357143Y-151833333D01*
X108595239Y-151833333D01*
X108690477Y-151880952D01*
X108738096Y-151928571D01*
X108785715Y-152023810D01*
X108785715Y-152261905D01*
X108738096Y-152357143D01*
X108690477Y-152404762D01*
X108595239Y-152452381D01*
X108357143Y-152452381D01*
X108261905Y-152404762D01*
X108214286Y-152357143D01*
X107833334Y-62452381D02*
X107500000Y-61976190D01*
X107261905Y-62452381D02*
X107261905Y-61452381D01*
X107642858Y-61452381D01*
X107738096Y-61500000D01*
X107785715Y-61547619D01*
X107833334Y-61642857D01*
X107833334Y-61785714D01*
X107785715Y-61880952D01*
X107738096Y-61928571D01*
X107642858Y-61976190D01*
X107261905Y-61976190D01*
X108690477Y-61452381D02*
X108500000Y-61452381D01*
X108404762Y-61500000D01*
X108357143Y-61547619D01*
X108261905Y-61690476D01*
X108214286Y-61880952D01*
X108214286Y-62261905D01*
X108261905Y-62357143D01*
X108309524Y-62404762D01*
X108404762Y-62452381D01*
X108595239Y-62452381D01*
X108690477Y-62404762D01*
X108738096Y-62357143D01*
X108785715Y-62261905D01*
X108785715Y-62023810D01*
X108738096Y-61928571D01*
X108690477Y-61880952D01*
X108595239Y-61833333D01*
X108404762Y-61833333D01*
X108309524Y-61880952D01*
X108261905Y-61928571D01*
X108214286Y-62023810D01*
X154333334Y-148452381D02*
X154000000Y-147976190D01*
X153761905Y-148452381D02*
X153761905Y-147452381D01*
X154142858Y-147452381D01*
X154238096Y-147500000D01*
X154285715Y-147547619D01*
X154333334Y-147642857D01*
X154333334Y-147785714D01*
X154285715Y-147880952D01*
X154238096Y-147928571D01*
X154142858Y-147976190D01*
X153761905Y-147976190D01*
X154666667Y-147452381D02*
X155333334Y-147452381D01*
X154904762Y-148452381D01*
M02*
