G04 #@! TF.FileFunction,Soldermask,Bot*
%FSLAX46Y46*%
G04 Gerber Fmt 4.6, Leading zero omitted, Abs format (unit mm)*
G04 Created by KiCad (PCBNEW 4.0.4+e1-6308~48~ubuntu16.04.1-stable) date Sun Jan 28 16:13:34 2018*
%MOMM*%
%LPD*%
G01*
G04 APERTURE LIST*
%ADD10C,0.100000*%
%ADD11R,2.100000X2.100000*%
%ADD12O,2.100000X2.100000*%
%ADD13C,2.000000*%
%ADD14O,2.000000X2.000000*%
%ADD15R,1.370000X1.670000*%
%ADD16R,1.670000X1.370000*%
G04 APERTURE END LIST*
D10*
D11*
X119820000Y-58620000D03*
D12*
X122360000Y-58620000D03*
X124900000Y-58620000D03*
X127440000Y-58620000D03*
X129980000Y-58620000D03*
X132520000Y-58620000D03*
X135060000Y-58620000D03*
X137600000Y-58620000D03*
X140140000Y-58620000D03*
X142680000Y-58620000D03*
D11*
X142680000Y-151380000D03*
D12*
X140140000Y-151380000D03*
X137600000Y-151380000D03*
X135060000Y-151380000D03*
X132520000Y-151380000D03*
X129980000Y-151380000D03*
X127440000Y-151380000D03*
X124900000Y-151380000D03*
X122360000Y-151380000D03*
X119820000Y-151380000D03*
D13*
X103000000Y-58000000D03*
D14*
X113160000Y-58000000D03*
D13*
X159500000Y-58000000D03*
D14*
X149340000Y-58000000D03*
D13*
X159500000Y-152000000D03*
D14*
X149340000Y-152000000D03*
D13*
X103000000Y-148000000D03*
D14*
X113160000Y-148000000D03*
D13*
X103000000Y-152000000D03*
D14*
X113160000Y-152000000D03*
D13*
X103000000Y-62000000D03*
D14*
X113160000Y-62000000D03*
D13*
X159500000Y-148000000D03*
D14*
X149340000Y-148000000D03*
D11*
X103620000Y-84980000D03*
D12*
X103620000Y-87520000D03*
X103620000Y-90060000D03*
D11*
X158880000Y-84980000D03*
D12*
X158880000Y-87520000D03*
X158880000Y-90060000D03*
D11*
X103620000Y-125020000D03*
D12*
X103620000Y-122480000D03*
X103620000Y-119940000D03*
D11*
X158880000Y-125020000D03*
D12*
X158880000Y-122480000D03*
X158880000Y-119940000D03*
D15*
X150640000Y-88000000D03*
X149360000Y-88000000D03*
D16*
X146000000Y-91640000D03*
X146000000Y-90360000D03*
D15*
X150640000Y-122000000D03*
X149360000Y-122000000D03*
M02*
