G04 #@! TF.FileFunction,Copper,L2,Bot,Signal*
%FSLAX46Y46*%
G04 Gerber Fmt 4.6, Leading zero omitted, Abs format (unit mm)*
G04 Created by KiCad (PCBNEW 4.0.4+e1-6308~48~ubuntu16.04.1-stable) date Sun Jan 28 16:13:34 2018*
%MOMM*%
%LPD*%
G01*
G04 APERTURE LIST*
%ADD10C,0.100000*%
%ADD11R,1.700000X1.700000*%
%ADD12O,1.700000X1.700000*%
%ADD13C,1.600000*%
%ADD14O,1.600000X1.600000*%
%ADD15R,0.970000X1.270000*%
%ADD16R,1.270000X0.970000*%
%ADD17C,0.600000*%
%ADD18C,0.400000*%
%ADD19C,0.600000*%
%ADD20C,0.254000*%
G04 APERTURE END LIST*
D10*
D11*
X119820000Y-58620000D03*
D12*
X122360000Y-58620000D03*
X124900000Y-58620000D03*
X127440000Y-58620000D03*
X129980000Y-58620000D03*
X132520000Y-58620000D03*
X135060000Y-58620000D03*
X137600000Y-58620000D03*
X140140000Y-58620000D03*
X142680000Y-58620000D03*
D11*
X142680000Y-151380000D03*
D12*
X140140000Y-151380000D03*
X137600000Y-151380000D03*
X135060000Y-151380000D03*
X132520000Y-151380000D03*
X129980000Y-151380000D03*
X127440000Y-151380000D03*
X124900000Y-151380000D03*
X122360000Y-151380000D03*
X119820000Y-151380000D03*
D13*
X103000000Y-58000000D03*
D14*
X113160000Y-58000000D03*
D13*
X159500000Y-58000000D03*
D14*
X149340000Y-58000000D03*
D13*
X159500000Y-152000000D03*
D14*
X149340000Y-152000000D03*
D13*
X103000000Y-148000000D03*
D14*
X113160000Y-148000000D03*
D13*
X103000000Y-152000000D03*
D14*
X113160000Y-152000000D03*
D13*
X103000000Y-62000000D03*
D14*
X113160000Y-62000000D03*
D13*
X159500000Y-148000000D03*
D14*
X149340000Y-148000000D03*
D11*
X103620000Y-84980000D03*
D12*
X103620000Y-87520000D03*
X103620000Y-90060000D03*
D11*
X158880000Y-84980000D03*
D12*
X158880000Y-87520000D03*
X158880000Y-90060000D03*
D11*
X103620000Y-125020000D03*
D12*
X103620000Y-122480000D03*
X103620000Y-119940000D03*
D11*
X158880000Y-125020000D03*
D12*
X158880000Y-122480000D03*
X158880000Y-119940000D03*
D15*
X150640000Y-88000000D03*
X149360000Y-88000000D03*
D16*
X146000000Y-91640000D03*
X146000000Y-90360000D03*
D15*
X150640000Y-122000000D03*
X149360000Y-122000000D03*
D17*
X150000000Y-72500000D03*
X150000000Y-137500000D03*
X112500000Y-137000000D03*
X112500000Y-100000000D03*
X144000000Y-105000000D03*
X140000000Y-69500000D03*
X119380000Y-67395000D03*
X122500000Y-96500000D03*
X135000000Y-96500000D03*
X135000000Y-113000000D03*
X127500000Y-113000000D03*
X129980000Y-141000000D03*
X128500000Y-111500000D03*
X132500000Y-111500000D03*
X125000000Y-75000000D03*
X135000000Y-75000000D03*
X137500000Y-103000000D03*
X121000000Y-103000000D03*
X153500000Y-145750000D03*
D18*
X149340000Y-58000000D02*
X149340000Y-62000000D01*
X149340000Y-71840000D02*
X150000000Y-72500000D01*
X149340000Y-62000000D02*
X149340000Y-71840000D01*
X151500000Y-149840000D02*
X149340000Y-152000000D01*
X151500000Y-139000000D02*
X151500000Y-149840000D01*
X150000000Y-137500000D02*
X151500000Y-139000000D01*
X111000000Y-149840000D02*
X113160000Y-152000000D01*
X111000000Y-138500000D02*
X111000000Y-149840000D01*
X112500000Y-137000000D02*
X111000000Y-138500000D01*
X113160000Y-98340000D02*
X113160000Y-99340000D01*
X113160000Y-62000000D02*
X113160000Y-98340000D01*
X113160000Y-99340000D02*
X112500000Y-100000000D01*
X149340000Y-148000000D02*
X149340000Y-143590000D01*
X145250000Y-106250000D02*
X144000000Y-105000000D01*
X145250000Y-139500000D02*
X145250000Y-106250000D01*
X149340000Y-143590000D02*
X145250000Y-139500000D01*
X140140000Y-151380000D02*
X140140000Y-69640000D01*
X140140000Y-69640000D02*
X140000000Y-69500000D01*
X122360000Y-58620000D02*
X122360000Y-61240000D01*
X119380000Y-64220000D02*
X119380000Y-67395000D01*
X122360000Y-61240000D02*
X119380000Y-64220000D01*
X124900000Y-71100000D02*
X124900000Y-58620000D01*
X122500000Y-73500000D02*
X124900000Y-71100000D01*
X122500000Y-96500000D02*
X122500000Y-73500000D01*
X137600000Y-151380000D02*
X137600000Y-107100000D01*
X135000000Y-104500000D02*
X135000000Y-96500000D01*
X137600000Y-107100000D02*
X135000000Y-104500000D01*
X135060000Y-151380000D02*
X135060000Y-113060000D01*
X135060000Y-113060000D02*
X135000000Y-113000000D01*
X127440000Y-58620000D02*
X127440000Y-112940000D01*
X127440000Y-112940000D02*
X127500000Y-113000000D01*
X129980000Y-58620000D02*
X129980000Y-141000000D01*
X129980000Y-141000000D02*
X129980000Y-140980000D01*
X129980000Y-140980000D02*
X132520000Y-143520000D01*
X132520000Y-143520000D02*
X132520000Y-151380000D01*
X129980000Y-151380000D02*
X129980000Y-143480000D01*
X128500000Y-142000000D02*
X128500000Y-111500000D01*
X129980000Y-143480000D02*
X128500000Y-142000000D01*
X132520000Y-58620000D02*
X132520000Y-111480000D01*
X132520000Y-111480000D02*
X132500000Y-111500000D01*
X127440000Y-151380000D02*
X127440000Y-143440000D01*
X125000000Y-141000000D02*
X125000000Y-75000000D01*
X127440000Y-143440000D02*
X125000000Y-141000000D01*
X135060000Y-74940000D02*
X135060000Y-58620000D01*
X135000000Y-75000000D02*
X135060000Y-74940000D01*
X137600000Y-102900000D02*
X137600000Y-58620000D01*
X137500000Y-103000000D02*
X137600000Y-102900000D01*
X124900000Y-151380000D02*
X124900000Y-143400000D01*
X121000000Y-139500000D02*
X121000000Y-103000000D01*
X124900000Y-143400000D02*
X121000000Y-139500000D01*
D19*
X103000000Y-152000000D02*
X103000000Y-148000000D01*
X159500000Y-58000000D02*
X159500000Y-84360000D01*
X159500000Y-84360000D02*
X158880000Y-84980000D01*
X159500000Y-148000000D02*
X159500000Y-125640000D01*
X159500000Y-125640000D02*
X158880000Y-125020000D01*
X103000000Y-148000000D02*
X103000000Y-125640000D01*
X103000000Y-125640000D02*
X103620000Y-125020000D01*
X103000000Y-62000000D02*
X103000000Y-84360000D01*
X103000000Y-84360000D02*
X103620000Y-84980000D01*
X159500000Y-152000000D02*
X159500000Y-148000000D01*
X103000000Y-58000000D02*
X103000000Y-62000000D01*
X158880000Y-87520000D02*
X154480000Y-87520000D01*
X154000000Y-88000000D02*
X150640000Y-88000000D01*
X154480000Y-87520000D02*
X154000000Y-88000000D01*
X158880000Y-122480000D02*
X154480000Y-122480000D01*
X154000000Y-122000000D02*
X150640000Y-122000000D01*
X154480000Y-122480000D02*
X154000000Y-122000000D01*
X142680000Y-58620000D02*
X142680000Y-84680000D01*
X142680000Y-84680000D02*
X146000000Y-88000000D01*
X149360000Y-88000000D02*
X146000000Y-88000000D01*
X146000000Y-88000000D02*
X146000000Y-90360000D01*
X149360000Y-122000000D02*
X149360000Y-133610000D01*
X153500000Y-137750000D02*
X153500000Y-145750000D01*
X149360000Y-133610000D02*
X153500000Y-137750000D01*
X149360000Y-122000000D02*
X149360000Y-96860000D01*
X146000000Y-93500000D02*
X146000000Y-91640000D01*
X149360000Y-96860000D02*
X146000000Y-93500000D01*
D20*
G36*
X160988338Y-55821046D02*
X161402333Y-56097669D01*
X161678953Y-56511660D01*
X161790000Y-57069931D01*
X161790000Y-152930069D01*
X161678953Y-153488340D01*
X161402333Y-153902331D01*
X160988338Y-154178954D01*
X160430069Y-154290000D01*
X102069931Y-154290000D01*
X101511660Y-154178953D01*
X101097669Y-153902333D01*
X100821046Y-153488338D01*
X100710000Y-152930069D01*
X100710000Y-148284187D01*
X101564752Y-148284187D01*
X101782757Y-148811800D01*
X102065000Y-149094536D01*
X102065000Y-150905742D01*
X101784176Y-151186077D01*
X101565250Y-151713309D01*
X101564752Y-152284187D01*
X101782757Y-152811800D01*
X102186077Y-153215824D01*
X102713309Y-153434750D01*
X103284187Y-153435248D01*
X103811800Y-153217243D01*
X104215824Y-152813923D01*
X104434750Y-152286691D01*
X104435248Y-151715813D01*
X104217243Y-151188200D01*
X103935000Y-150905464D01*
X103935000Y-149094258D01*
X104215824Y-148813923D01*
X104434750Y-148286691D01*
X104435248Y-147715813D01*
X104217243Y-147188200D01*
X103935000Y-146905464D01*
X103935000Y-138500000D01*
X110165000Y-138500000D01*
X110165000Y-149840000D01*
X110228561Y-150159541D01*
X110322983Y-150300853D01*
X110409566Y-150430434D01*
X111743714Y-151764582D01*
X111696887Y-152000000D01*
X111806120Y-152549151D01*
X112117189Y-153014698D01*
X112582736Y-153325767D01*
X113131887Y-153435000D01*
X113188113Y-153435000D01*
X113737264Y-153325767D01*
X114202811Y-153014698D01*
X114513880Y-152549151D01*
X114623113Y-152000000D01*
X114513880Y-151450849D01*
X114447101Y-151350907D01*
X118335000Y-151350907D01*
X118335000Y-151409093D01*
X118448039Y-151977378D01*
X118769946Y-152459147D01*
X119251715Y-152781054D01*
X119820000Y-152894093D01*
X120388285Y-152781054D01*
X120870054Y-152459147D01*
X121097702Y-152118447D01*
X121164817Y-152261358D01*
X121593076Y-152651645D01*
X122003110Y-152821476D01*
X122233000Y-152700155D01*
X122233000Y-151507000D01*
X122213000Y-151507000D01*
X122213000Y-151253000D01*
X122233000Y-151253000D01*
X122233000Y-150059845D01*
X122003110Y-149938524D01*
X121593076Y-150108355D01*
X121164817Y-150498642D01*
X121097702Y-150641553D01*
X120870054Y-150300853D01*
X120388285Y-149978946D01*
X119820000Y-149865907D01*
X119251715Y-149978946D01*
X118769946Y-150300853D01*
X118448039Y-150782622D01*
X118335000Y-151350907D01*
X114447101Y-151350907D01*
X114202811Y-150985302D01*
X113737264Y-150674233D01*
X113188113Y-150565000D01*
X113131887Y-150565000D01*
X112943367Y-150602499D01*
X111835000Y-149494132D01*
X111835000Y-148592373D01*
X112117189Y-149014698D01*
X112582736Y-149325767D01*
X113131887Y-149435000D01*
X113188113Y-149435000D01*
X113737264Y-149325767D01*
X114202811Y-149014698D01*
X114513880Y-148549151D01*
X114623113Y-148000000D01*
X114513880Y-147450849D01*
X114202811Y-146985302D01*
X113737264Y-146674233D01*
X113188113Y-146565000D01*
X113131887Y-146565000D01*
X112582736Y-146674233D01*
X112117189Y-146985302D01*
X111835000Y-147407627D01*
X111835000Y-138845868D01*
X112788333Y-137892535D01*
X113028943Y-137793117D01*
X113292192Y-137530327D01*
X113434838Y-137186799D01*
X113435162Y-136814833D01*
X113293117Y-136471057D01*
X113030327Y-136207808D01*
X112686799Y-136065162D01*
X112314833Y-136064838D01*
X111971057Y-136206883D01*
X111707808Y-136469673D01*
X111607222Y-136711910D01*
X110409566Y-137909566D01*
X110228561Y-138180459D01*
X110165000Y-138500000D01*
X103935000Y-138500000D01*
X103935000Y-126517440D01*
X104470000Y-126517440D01*
X104705317Y-126473162D01*
X104921441Y-126334090D01*
X105066431Y-126121890D01*
X105117440Y-125870000D01*
X105117440Y-124170000D01*
X105073162Y-123934683D01*
X104934090Y-123718559D01*
X104721890Y-123573569D01*
X104613893Y-123551699D01*
X104891645Y-123246924D01*
X105061476Y-122836890D01*
X104940155Y-122607000D01*
X103747000Y-122607000D01*
X103747000Y-122627000D01*
X103493000Y-122627000D01*
X103493000Y-122607000D01*
X102299845Y-122607000D01*
X102178524Y-122836890D01*
X102348355Y-123246924D01*
X102624501Y-123549937D01*
X102534683Y-123566838D01*
X102318559Y-123705910D01*
X102173569Y-123918110D01*
X102122560Y-124170000D01*
X102122560Y-125350628D01*
X102065000Y-125640000D01*
X102065000Y-146905742D01*
X101784176Y-147186077D01*
X101565250Y-147713309D01*
X101564752Y-148284187D01*
X100710000Y-148284187D01*
X100710000Y-120296890D01*
X102178524Y-120296890D01*
X102348355Y-120706924D01*
X102738642Y-121135183D01*
X102897954Y-121210000D01*
X102738642Y-121284817D01*
X102348355Y-121713076D01*
X102178524Y-122123110D01*
X102299845Y-122353000D01*
X103493000Y-122353000D01*
X103493000Y-120067000D01*
X103747000Y-120067000D01*
X103747000Y-122353000D01*
X104940155Y-122353000D01*
X105061476Y-122123110D01*
X104891645Y-121713076D01*
X104501358Y-121284817D01*
X104342046Y-121210000D01*
X104501358Y-121135183D01*
X104891645Y-120706924D01*
X105061476Y-120296890D01*
X104940155Y-120067000D01*
X103747000Y-120067000D01*
X103493000Y-120067000D01*
X102299845Y-120067000D01*
X102178524Y-120296890D01*
X100710000Y-120296890D01*
X100710000Y-119583110D01*
X102178524Y-119583110D01*
X102299845Y-119813000D01*
X103493000Y-119813000D01*
X103493000Y-118619181D01*
X103747000Y-118619181D01*
X103747000Y-119813000D01*
X104940155Y-119813000D01*
X105061476Y-119583110D01*
X104891645Y-119173076D01*
X104501358Y-118744817D01*
X103976892Y-118498514D01*
X103747000Y-118619181D01*
X103493000Y-118619181D01*
X103263108Y-118498514D01*
X102738642Y-118744817D01*
X102348355Y-119173076D01*
X102178524Y-119583110D01*
X100710000Y-119583110D01*
X100710000Y-100185167D01*
X111564838Y-100185167D01*
X111706883Y-100528943D01*
X111969673Y-100792192D01*
X112313201Y-100934838D01*
X112685167Y-100935162D01*
X113028943Y-100793117D01*
X113292192Y-100530327D01*
X113392778Y-100288090D01*
X113750434Y-99930434D01*
X113827676Y-99814833D01*
X113931439Y-99659541D01*
X113995000Y-99340000D01*
X113995000Y-67580167D01*
X118444838Y-67580167D01*
X118586883Y-67923943D01*
X118849673Y-68187192D01*
X119193201Y-68329838D01*
X119565167Y-68330162D01*
X119908943Y-68188117D01*
X120172192Y-67925327D01*
X120314838Y-67581799D01*
X120315162Y-67209833D01*
X120215000Y-66967422D01*
X120215000Y-64565868D01*
X122950434Y-61830434D01*
X123076214Y-61642191D01*
X123131439Y-61559541D01*
X123195000Y-61240000D01*
X123195000Y-59842841D01*
X123410054Y-59699147D01*
X123630000Y-59369974D01*
X123849946Y-59699147D01*
X124065000Y-59842841D01*
X124065000Y-70754132D01*
X121909566Y-72909566D01*
X121728561Y-73180459D01*
X121665000Y-73500000D01*
X121665000Y-96072766D01*
X121565162Y-96313201D01*
X121564838Y-96685167D01*
X121706883Y-97028943D01*
X121969673Y-97292192D01*
X122313201Y-97434838D01*
X122685167Y-97435162D01*
X123028943Y-97293117D01*
X123292192Y-97030327D01*
X123434838Y-96686799D01*
X123435162Y-96314833D01*
X123335000Y-96072422D01*
X123335000Y-73845868D01*
X125490434Y-71690434D01*
X125671440Y-71419540D01*
X125735000Y-71100000D01*
X125735000Y-59842841D01*
X125950054Y-59699147D01*
X126170000Y-59369974D01*
X126389946Y-59699147D01*
X126605000Y-59842841D01*
X126605000Y-112717261D01*
X126565162Y-112813201D01*
X126564838Y-113185167D01*
X126706883Y-113528943D01*
X126969673Y-113792192D01*
X127313201Y-113934838D01*
X127665000Y-113935144D01*
X127665000Y-142000000D01*
X127728561Y-142319541D01*
X127892572Y-142565000D01*
X127909566Y-142590434D01*
X129145000Y-143825868D01*
X129145000Y-150157159D01*
X128929946Y-150300853D01*
X128710000Y-150630026D01*
X128490054Y-150300853D01*
X128275000Y-150157159D01*
X128275000Y-143440000D01*
X128211439Y-143120459D01*
X128030434Y-142849566D01*
X125835000Y-140654132D01*
X125835000Y-75427234D01*
X125934838Y-75186799D01*
X125935162Y-74814833D01*
X125793117Y-74471057D01*
X125530327Y-74207808D01*
X125186799Y-74065162D01*
X124814833Y-74064838D01*
X124471057Y-74206883D01*
X124207808Y-74469673D01*
X124065162Y-74813201D01*
X124064838Y-75185167D01*
X124165000Y-75427578D01*
X124165000Y-141000000D01*
X124228561Y-141319541D01*
X124288714Y-141409566D01*
X124409566Y-141590434D01*
X126605000Y-143785868D01*
X126605000Y-150157159D01*
X126389946Y-150300853D01*
X126170000Y-150630026D01*
X125950054Y-150300853D01*
X125735000Y-150157159D01*
X125735000Y-143400000D01*
X125671439Y-143080459D01*
X125490434Y-142809566D01*
X121835000Y-139154132D01*
X121835000Y-103427234D01*
X121934838Y-103186799D01*
X121935162Y-102814833D01*
X121793117Y-102471057D01*
X121530327Y-102207808D01*
X121186799Y-102065162D01*
X120814833Y-102064838D01*
X120471057Y-102206883D01*
X120207808Y-102469673D01*
X120065162Y-102813201D01*
X120064838Y-103185167D01*
X120165000Y-103427578D01*
X120165000Y-139500000D01*
X120228561Y-139819541D01*
X120392463Y-140064838D01*
X120409566Y-140090434D01*
X124065000Y-143745868D01*
X124065000Y-150157159D01*
X123849946Y-150300853D01*
X123622298Y-150641553D01*
X123555183Y-150498642D01*
X123126924Y-150108355D01*
X122716890Y-149938524D01*
X122487000Y-150059845D01*
X122487000Y-151253000D01*
X122507000Y-151253000D01*
X122507000Y-151507000D01*
X122487000Y-151507000D01*
X122487000Y-152700155D01*
X122716890Y-152821476D01*
X123126924Y-152651645D01*
X123555183Y-152261358D01*
X123622298Y-152118447D01*
X123849946Y-152459147D01*
X124331715Y-152781054D01*
X124900000Y-152894093D01*
X125468285Y-152781054D01*
X125950054Y-152459147D01*
X126170000Y-152129974D01*
X126389946Y-152459147D01*
X126871715Y-152781054D01*
X127440000Y-152894093D01*
X128008285Y-152781054D01*
X128490054Y-152459147D01*
X128710000Y-152129974D01*
X128929946Y-152459147D01*
X129411715Y-152781054D01*
X129980000Y-152894093D01*
X130548285Y-152781054D01*
X131030054Y-152459147D01*
X131250000Y-152129974D01*
X131469946Y-152459147D01*
X131951715Y-152781054D01*
X132520000Y-152894093D01*
X133088285Y-152781054D01*
X133570054Y-152459147D01*
X133790000Y-152129974D01*
X134009946Y-152459147D01*
X134491715Y-152781054D01*
X135060000Y-152894093D01*
X135628285Y-152781054D01*
X136110054Y-152459147D01*
X136330000Y-152129974D01*
X136549946Y-152459147D01*
X137031715Y-152781054D01*
X137600000Y-152894093D01*
X138168285Y-152781054D01*
X138650054Y-152459147D01*
X138870000Y-152129974D01*
X139089946Y-152459147D01*
X139571715Y-152781054D01*
X140140000Y-152894093D01*
X140708285Y-152781054D01*
X141190054Y-152459147D01*
X141219403Y-152415223D01*
X141291673Y-152589698D01*
X141470301Y-152768327D01*
X141703690Y-152865000D01*
X142394250Y-152865000D01*
X142553000Y-152706250D01*
X142553000Y-151507000D01*
X142807000Y-151507000D01*
X142807000Y-152706250D01*
X142965750Y-152865000D01*
X143656310Y-152865000D01*
X143889699Y-152768327D01*
X144068327Y-152589698D01*
X144165000Y-152356309D01*
X144165000Y-151665750D01*
X144006250Y-151507000D01*
X142807000Y-151507000D01*
X142553000Y-151507000D01*
X142533000Y-151507000D01*
X142533000Y-151253000D01*
X142553000Y-151253000D01*
X142553000Y-150053750D01*
X142807000Y-150053750D01*
X142807000Y-151253000D01*
X144006250Y-151253000D01*
X144165000Y-151094250D01*
X144165000Y-150403691D01*
X144068327Y-150170302D01*
X143889699Y-149991673D01*
X143656310Y-149895000D01*
X142965750Y-149895000D01*
X142807000Y-150053750D01*
X142553000Y-150053750D01*
X142394250Y-149895000D01*
X141703690Y-149895000D01*
X141470301Y-149991673D01*
X141291673Y-150170302D01*
X141219403Y-150344777D01*
X141190054Y-150300853D01*
X140975000Y-150157159D01*
X140975000Y-105185167D01*
X143064838Y-105185167D01*
X143206883Y-105528943D01*
X143469673Y-105792192D01*
X143711910Y-105892778D01*
X144415000Y-106595868D01*
X144415000Y-139500000D01*
X144478561Y-139819541D01*
X144642463Y-140064838D01*
X144659566Y-140090434D01*
X148505000Y-143935868D01*
X148505000Y-146846447D01*
X148297189Y-146985302D01*
X147986120Y-147450849D01*
X147876887Y-148000000D01*
X147986120Y-148549151D01*
X148297189Y-149014698D01*
X148762736Y-149325767D01*
X149311887Y-149435000D01*
X149368113Y-149435000D01*
X149917264Y-149325767D01*
X150382811Y-149014698D01*
X150665000Y-148592373D01*
X150665000Y-149494132D01*
X149556633Y-150602499D01*
X149368113Y-150565000D01*
X149311887Y-150565000D01*
X148762736Y-150674233D01*
X148297189Y-150985302D01*
X147986120Y-151450849D01*
X147876887Y-152000000D01*
X147986120Y-152549151D01*
X148297189Y-153014698D01*
X148762736Y-153325767D01*
X149311887Y-153435000D01*
X149368113Y-153435000D01*
X149917264Y-153325767D01*
X150382811Y-153014698D01*
X150693880Y-152549151D01*
X150803113Y-152000000D01*
X150756286Y-151764582D01*
X152090434Y-150430434D01*
X152177017Y-150300853D01*
X152271439Y-150159541D01*
X152335000Y-149840000D01*
X152335000Y-139000000D01*
X152271439Y-138680459D01*
X152090434Y-138409566D01*
X150892535Y-137211667D01*
X150793117Y-136971057D01*
X150530327Y-136707808D01*
X150186799Y-136565162D01*
X149814833Y-136564838D01*
X149471057Y-136706883D01*
X149207808Y-136969673D01*
X149065162Y-137313201D01*
X149064838Y-137685167D01*
X149206883Y-138028943D01*
X149469673Y-138292192D01*
X149711910Y-138392778D01*
X150665000Y-139345868D01*
X150665000Y-147407627D01*
X150382811Y-146985302D01*
X150175000Y-146846447D01*
X150175000Y-143590000D01*
X150111439Y-143270459D01*
X149930434Y-142999566D01*
X146085000Y-139154132D01*
X146085000Y-106250000D01*
X146021439Y-105930459D01*
X145840434Y-105659566D01*
X144892535Y-104711667D01*
X144793117Y-104471057D01*
X144530327Y-104207808D01*
X144186799Y-104065162D01*
X143814833Y-104064838D01*
X143471057Y-104206883D01*
X143207808Y-104469673D01*
X143065162Y-104813201D01*
X143064838Y-105185167D01*
X140975000Y-105185167D01*
X140975000Y-69640000D01*
X140935054Y-69439177D01*
X140935162Y-69314833D01*
X140793117Y-68971057D01*
X140530327Y-68707808D01*
X140186799Y-68565162D01*
X139814833Y-68564838D01*
X139471057Y-68706883D01*
X139207808Y-68969673D01*
X139065162Y-69313201D01*
X139064838Y-69685167D01*
X139206883Y-70028943D01*
X139305000Y-70127231D01*
X139305000Y-150157159D01*
X139089946Y-150300853D01*
X138870000Y-150630026D01*
X138650054Y-150300853D01*
X138435000Y-150157159D01*
X138435000Y-107100000D01*
X138371439Y-106780459D01*
X138190434Y-106509566D01*
X135835000Y-104154132D01*
X135835000Y-96927234D01*
X135934838Y-96686799D01*
X135935162Y-96314833D01*
X135793117Y-95971057D01*
X135530327Y-95707808D01*
X135186799Y-95565162D01*
X134814833Y-95564838D01*
X134471057Y-95706883D01*
X134207808Y-95969673D01*
X134065162Y-96313201D01*
X134064838Y-96685167D01*
X134165000Y-96927578D01*
X134165000Y-104500000D01*
X134228561Y-104819541D01*
X134349140Y-105000000D01*
X134409566Y-105090434D01*
X136765000Y-107445868D01*
X136765000Y-150157159D01*
X136549946Y-150300853D01*
X136330000Y-150630026D01*
X136110054Y-150300853D01*
X135895000Y-150157159D01*
X135895000Y-113282739D01*
X135934838Y-113186799D01*
X135935162Y-112814833D01*
X135793117Y-112471057D01*
X135530327Y-112207808D01*
X135186799Y-112065162D01*
X134814833Y-112064838D01*
X134471057Y-112206883D01*
X134207808Y-112469673D01*
X134065162Y-112813201D01*
X134064838Y-113185167D01*
X134206883Y-113528943D01*
X134225000Y-113547092D01*
X134225000Y-150157159D01*
X134009946Y-150300853D01*
X133790000Y-150630026D01*
X133570054Y-150300853D01*
X133355000Y-150157159D01*
X133355000Y-143520000D01*
X133291439Y-143200459D01*
X133110434Y-142929566D01*
X130858452Y-140677584D01*
X130815000Y-140572422D01*
X130815000Y-59842841D01*
X131030054Y-59699147D01*
X131250000Y-59369974D01*
X131469946Y-59699147D01*
X131685000Y-59842841D01*
X131685000Y-111024600D01*
X131565162Y-111313201D01*
X131564838Y-111685167D01*
X131706883Y-112028943D01*
X131969673Y-112292192D01*
X132313201Y-112434838D01*
X132685167Y-112435162D01*
X133028943Y-112293117D01*
X133292192Y-112030327D01*
X133434838Y-111686799D01*
X133435162Y-111314833D01*
X133355000Y-111120826D01*
X133355000Y-59842841D01*
X133570054Y-59699147D01*
X133790000Y-59369974D01*
X134009946Y-59699147D01*
X134225000Y-59842841D01*
X134225000Y-74452511D01*
X134207808Y-74469673D01*
X134065162Y-74813201D01*
X134064838Y-75185167D01*
X134206883Y-75528943D01*
X134469673Y-75792192D01*
X134813201Y-75934838D01*
X135185167Y-75935162D01*
X135528943Y-75793117D01*
X135792192Y-75530327D01*
X135934838Y-75186799D01*
X135935162Y-74814833D01*
X135895000Y-74717633D01*
X135895000Y-59842841D01*
X136110054Y-59699147D01*
X136330000Y-59369974D01*
X136549946Y-59699147D01*
X136765000Y-59842841D01*
X136765000Y-102412581D01*
X136707808Y-102469673D01*
X136565162Y-102813201D01*
X136564838Y-103185167D01*
X136706883Y-103528943D01*
X136969673Y-103792192D01*
X137313201Y-103934838D01*
X137685167Y-103935162D01*
X138028943Y-103793117D01*
X138292192Y-103530327D01*
X138434838Y-103186799D01*
X138435162Y-102814833D01*
X138435000Y-102814441D01*
X138435000Y-59842841D01*
X138650054Y-59699147D01*
X138877702Y-59358447D01*
X138944817Y-59501358D01*
X139373076Y-59891645D01*
X139783110Y-60061476D01*
X140013000Y-59940155D01*
X140013000Y-58747000D01*
X139993000Y-58747000D01*
X139993000Y-58493000D01*
X140013000Y-58493000D01*
X140013000Y-57299845D01*
X140267000Y-57299845D01*
X140267000Y-58493000D01*
X140287000Y-58493000D01*
X140287000Y-58747000D01*
X140267000Y-58747000D01*
X140267000Y-59940155D01*
X140496890Y-60061476D01*
X140906924Y-59891645D01*
X141335183Y-59501358D01*
X141402298Y-59358447D01*
X141629946Y-59699147D01*
X141745000Y-59776023D01*
X141745000Y-84680000D01*
X141816173Y-85037809D01*
X142018855Y-85341145D01*
X145065000Y-88387290D01*
X145065000Y-89313460D01*
X144913559Y-89410910D01*
X144768569Y-89623110D01*
X144717560Y-89875000D01*
X144717560Y-90845000D01*
X144747796Y-91005690D01*
X144717560Y-91155000D01*
X144717560Y-92125000D01*
X144761838Y-92360317D01*
X144900910Y-92576441D01*
X145065000Y-92688559D01*
X145065000Y-93500000D01*
X145136173Y-93857809D01*
X145338855Y-94161145D01*
X148425000Y-97247290D01*
X148425000Y-120899983D01*
X148423559Y-120900910D01*
X148278569Y-121113110D01*
X148227560Y-121365000D01*
X148227560Y-122635000D01*
X148271838Y-122870317D01*
X148410910Y-123086441D01*
X148425000Y-123096068D01*
X148425000Y-133610000D01*
X148496173Y-133967809D01*
X148698855Y-134271145D01*
X152565000Y-138137290D01*
X152565000Y-145749184D01*
X152564838Y-145935167D01*
X152706883Y-146278943D01*
X152969673Y-146542192D01*
X153313201Y-146684838D01*
X153685167Y-146685162D01*
X154028943Y-146543117D01*
X154292192Y-146280327D01*
X154434838Y-145936799D01*
X154435162Y-145564833D01*
X154435000Y-145564441D01*
X154435000Y-137750000D01*
X154363827Y-137392191D01*
X154161145Y-137088855D01*
X150295000Y-133222710D01*
X150295000Y-123282440D01*
X151125000Y-123282440D01*
X151360317Y-123238162D01*
X151576441Y-123099090D01*
X151688559Y-122935000D01*
X153612711Y-122935000D01*
X153818853Y-123141142D01*
X153818855Y-123141145D01*
X154122191Y-123343827D01*
X154181556Y-123355636D01*
X154480000Y-123415001D01*
X154480005Y-123415000D01*
X157723977Y-123415000D01*
X157800853Y-123530054D01*
X157842452Y-123557850D01*
X157794683Y-123566838D01*
X157578559Y-123705910D01*
X157433569Y-123918110D01*
X157382560Y-124170000D01*
X157382560Y-125870000D01*
X157426838Y-126105317D01*
X157565910Y-126321441D01*
X157778110Y-126466431D01*
X158030000Y-126517440D01*
X158565000Y-126517440D01*
X158565000Y-146905742D01*
X158284176Y-147186077D01*
X158065250Y-147713309D01*
X158064752Y-148284187D01*
X158282757Y-148811800D01*
X158565000Y-149094536D01*
X158565000Y-150905742D01*
X158284176Y-151186077D01*
X158065250Y-151713309D01*
X158064752Y-152284187D01*
X158282757Y-152811800D01*
X158686077Y-153215824D01*
X159213309Y-153434750D01*
X159784187Y-153435248D01*
X160311800Y-153217243D01*
X160715824Y-152813923D01*
X160934750Y-152286691D01*
X160935248Y-151715813D01*
X160717243Y-151188200D01*
X160435000Y-150905464D01*
X160435000Y-149094258D01*
X160715824Y-148813923D01*
X160934750Y-148286691D01*
X160935248Y-147715813D01*
X160717243Y-147188200D01*
X160435000Y-146905464D01*
X160435000Y-125640000D01*
X160377440Y-125350628D01*
X160377440Y-124170000D01*
X160333162Y-123934683D01*
X160194090Y-123718559D01*
X159981890Y-123573569D01*
X159914459Y-123559914D01*
X159959147Y-123530054D01*
X160281054Y-123048285D01*
X160394093Y-122480000D01*
X160281054Y-121911715D01*
X159959147Y-121429946D01*
X159618447Y-121202298D01*
X159761358Y-121135183D01*
X160151645Y-120706924D01*
X160321476Y-120296890D01*
X160200155Y-120067000D01*
X159007000Y-120067000D01*
X159007000Y-120087000D01*
X158753000Y-120087000D01*
X158753000Y-120067000D01*
X157559845Y-120067000D01*
X157438524Y-120296890D01*
X157608355Y-120706924D01*
X157998642Y-121135183D01*
X158141553Y-121202298D01*
X157800853Y-121429946D01*
X157723977Y-121545000D01*
X154867290Y-121545000D01*
X154661145Y-121338855D01*
X154357809Y-121136173D01*
X154000000Y-121065000D01*
X151686540Y-121065000D01*
X151589090Y-120913559D01*
X151376890Y-120768569D01*
X151125000Y-120717560D01*
X150295000Y-120717560D01*
X150295000Y-119583110D01*
X157438524Y-119583110D01*
X157559845Y-119813000D01*
X158753000Y-119813000D01*
X158753000Y-118619181D01*
X159007000Y-118619181D01*
X159007000Y-119813000D01*
X160200155Y-119813000D01*
X160321476Y-119583110D01*
X160151645Y-119173076D01*
X159761358Y-118744817D01*
X159236892Y-118498514D01*
X159007000Y-118619181D01*
X158753000Y-118619181D01*
X158523108Y-118498514D01*
X157998642Y-118744817D01*
X157608355Y-119173076D01*
X157438524Y-119583110D01*
X150295000Y-119583110D01*
X150295000Y-96860005D01*
X150295001Y-96860000D01*
X150223827Y-96502192D01*
X150223827Y-96502191D01*
X150021145Y-96198855D01*
X146935000Y-93112710D01*
X146935000Y-92686540D01*
X147086441Y-92589090D01*
X147231431Y-92376890D01*
X147282440Y-92125000D01*
X147282440Y-91155000D01*
X147252204Y-90994310D01*
X147282440Y-90845000D01*
X147282440Y-90416890D01*
X157438524Y-90416890D01*
X157608355Y-90826924D01*
X157998642Y-91255183D01*
X158523108Y-91501486D01*
X158753000Y-91380819D01*
X158753000Y-90187000D01*
X159007000Y-90187000D01*
X159007000Y-91380819D01*
X159236892Y-91501486D01*
X159761358Y-91255183D01*
X160151645Y-90826924D01*
X160321476Y-90416890D01*
X160200155Y-90187000D01*
X159007000Y-90187000D01*
X158753000Y-90187000D01*
X157559845Y-90187000D01*
X157438524Y-90416890D01*
X147282440Y-90416890D01*
X147282440Y-89875000D01*
X147238162Y-89639683D01*
X147099090Y-89423559D01*
X146935000Y-89311441D01*
X146935000Y-88935000D01*
X148313460Y-88935000D01*
X148410910Y-89086441D01*
X148623110Y-89231431D01*
X148875000Y-89282440D01*
X149845000Y-89282440D01*
X150005690Y-89252204D01*
X150155000Y-89282440D01*
X151125000Y-89282440D01*
X151360317Y-89238162D01*
X151576441Y-89099090D01*
X151688559Y-88935000D01*
X154000000Y-88935000D01*
X154357809Y-88863827D01*
X154661145Y-88661145D01*
X154867290Y-88455000D01*
X157723977Y-88455000D01*
X157800853Y-88570054D01*
X158141553Y-88797702D01*
X157998642Y-88864817D01*
X157608355Y-89293076D01*
X157438524Y-89703110D01*
X157559845Y-89933000D01*
X158753000Y-89933000D01*
X158753000Y-89913000D01*
X159007000Y-89913000D01*
X159007000Y-89933000D01*
X160200155Y-89933000D01*
X160321476Y-89703110D01*
X160151645Y-89293076D01*
X159761358Y-88864817D01*
X159618447Y-88797702D01*
X159959147Y-88570054D01*
X160281054Y-88088285D01*
X160394093Y-87520000D01*
X160281054Y-86951715D01*
X159959147Y-86469946D01*
X159917548Y-86442150D01*
X159965317Y-86433162D01*
X160181441Y-86294090D01*
X160326431Y-86081890D01*
X160377440Y-85830000D01*
X160377440Y-84649372D01*
X160435000Y-84360000D01*
X160435000Y-59094258D01*
X160715824Y-58813923D01*
X160934750Y-58286691D01*
X160935248Y-57715813D01*
X160717243Y-57188200D01*
X160313923Y-56784176D01*
X159786691Y-56565250D01*
X159215813Y-56564752D01*
X158688200Y-56782757D01*
X158284176Y-57186077D01*
X158065250Y-57713309D01*
X158064752Y-58284187D01*
X158282757Y-58811800D01*
X158565000Y-59094536D01*
X158565000Y-83482560D01*
X158030000Y-83482560D01*
X157794683Y-83526838D01*
X157578559Y-83665910D01*
X157433569Y-83878110D01*
X157382560Y-84130000D01*
X157382560Y-85830000D01*
X157426838Y-86065317D01*
X157565910Y-86281441D01*
X157778110Y-86426431D01*
X157845541Y-86440086D01*
X157800853Y-86469946D01*
X157723977Y-86585000D01*
X154480005Y-86585000D01*
X154480000Y-86584999D01*
X154181556Y-86644364D01*
X154122191Y-86656173D01*
X153818855Y-86858855D01*
X153818853Y-86858858D01*
X153612711Y-87065000D01*
X151686540Y-87065000D01*
X151589090Y-86913559D01*
X151376890Y-86768569D01*
X151125000Y-86717560D01*
X150155000Y-86717560D01*
X149994310Y-86747796D01*
X149845000Y-86717560D01*
X148875000Y-86717560D01*
X148639683Y-86761838D01*
X148423559Y-86900910D01*
X148311441Y-87065000D01*
X146387290Y-87065000D01*
X143615000Y-84292710D01*
X143615000Y-59776023D01*
X143730054Y-59699147D01*
X144051961Y-59217378D01*
X144165000Y-58649093D01*
X144165000Y-58590907D01*
X144051961Y-58022622D01*
X144036846Y-58000000D01*
X147876887Y-58000000D01*
X147986120Y-58549151D01*
X148297189Y-59014698D01*
X148505000Y-59153553D01*
X148505000Y-71840000D01*
X148568561Y-72159541D01*
X148672324Y-72314833D01*
X148749566Y-72430434D01*
X149107465Y-72788333D01*
X149206883Y-73028943D01*
X149469673Y-73292192D01*
X149813201Y-73434838D01*
X150185167Y-73435162D01*
X150528943Y-73293117D01*
X150792192Y-73030327D01*
X150934838Y-72686799D01*
X150935162Y-72314833D01*
X150793117Y-71971057D01*
X150530327Y-71707808D01*
X150288090Y-71607222D01*
X150175000Y-71494132D01*
X150175000Y-59153553D01*
X150382811Y-59014698D01*
X150693880Y-58549151D01*
X150803113Y-58000000D01*
X150693880Y-57450849D01*
X150382811Y-56985302D01*
X149917264Y-56674233D01*
X149368113Y-56565000D01*
X149311887Y-56565000D01*
X148762736Y-56674233D01*
X148297189Y-56985302D01*
X147986120Y-57450849D01*
X147876887Y-58000000D01*
X144036846Y-58000000D01*
X143730054Y-57540853D01*
X143248285Y-57218946D01*
X142680000Y-57105907D01*
X142111715Y-57218946D01*
X141629946Y-57540853D01*
X141402298Y-57881553D01*
X141335183Y-57738642D01*
X140906924Y-57348355D01*
X140496890Y-57178524D01*
X140267000Y-57299845D01*
X140013000Y-57299845D01*
X139783110Y-57178524D01*
X139373076Y-57348355D01*
X138944817Y-57738642D01*
X138877702Y-57881553D01*
X138650054Y-57540853D01*
X138168285Y-57218946D01*
X137600000Y-57105907D01*
X137031715Y-57218946D01*
X136549946Y-57540853D01*
X136330000Y-57870026D01*
X136110054Y-57540853D01*
X135628285Y-57218946D01*
X135060000Y-57105907D01*
X134491715Y-57218946D01*
X134009946Y-57540853D01*
X133790000Y-57870026D01*
X133570054Y-57540853D01*
X133088285Y-57218946D01*
X132520000Y-57105907D01*
X131951715Y-57218946D01*
X131469946Y-57540853D01*
X131250000Y-57870026D01*
X131030054Y-57540853D01*
X130548285Y-57218946D01*
X129980000Y-57105907D01*
X129411715Y-57218946D01*
X128929946Y-57540853D01*
X128710000Y-57870026D01*
X128490054Y-57540853D01*
X128008285Y-57218946D01*
X127440000Y-57105907D01*
X126871715Y-57218946D01*
X126389946Y-57540853D01*
X126170000Y-57870026D01*
X125950054Y-57540853D01*
X125468285Y-57218946D01*
X124900000Y-57105907D01*
X124331715Y-57218946D01*
X123849946Y-57540853D01*
X123630000Y-57870026D01*
X123410054Y-57540853D01*
X122928285Y-57218946D01*
X122360000Y-57105907D01*
X121791715Y-57218946D01*
X121309946Y-57540853D01*
X121280597Y-57584777D01*
X121208327Y-57410302D01*
X121029699Y-57231673D01*
X120796310Y-57135000D01*
X120105750Y-57135000D01*
X119947000Y-57293750D01*
X119947000Y-58493000D01*
X119967000Y-58493000D01*
X119967000Y-58747000D01*
X119947000Y-58747000D01*
X119947000Y-59946250D01*
X120105750Y-60105000D01*
X120796310Y-60105000D01*
X121029699Y-60008327D01*
X121208327Y-59829698D01*
X121280597Y-59655223D01*
X121309946Y-59699147D01*
X121525000Y-59842841D01*
X121525000Y-60894132D01*
X118789566Y-63629566D01*
X118608561Y-63900459D01*
X118545000Y-64220000D01*
X118545000Y-66967766D01*
X118445162Y-67208201D01*
X118444838Y-67580167D01*
X113995000Y-67580167D01*
X113995000Y-63153553D01*
X114202811Y-63014698D01*
X114513880Y-62549151D01*
X114623113Y-62000000D01*
X114513880Y-61450849D01*
X114202811Y-60985302D01*
X113737264Y-60674233D01*
X113188113Y-60565000D01*
X113131887Y-60565000D01*
X112582736Y-60674233D01*
X112117189Y-60985302D01*
X111806120Y-61450849D01*
X111696887Y-62000000D01*
X111806120Y-62549151D01*
X112117189Y-63014698D01*
X112325000Y-63153553D01*
X112325000Y-98994132D01*
X112211667Y-99107465D01*
X111971057Y-99206883D01*
X111707808Y-99469673D01*
X111565162Y-99813201D01*
X111564838Y-100185167D01*
X100710000Y-100185167D01*
X100710000Y-90416890D01*
X102178524Y-90416890D01*
X102348355Y-90826924D01*
X102738642Y-91255183D01*
X103263108Y-91501486D01*
X103493000Y-91380819D01*
X103493000Y-90187000D01*
X103747000Y-90187000D01*
X103747000Y-91380819D01*
X103976892Y-91501486D01*
X104501358Y-91255183D01*
X104891645Y-90826924D01*
X105061476Y-90416890D01*
X104940155Y-90187000D01*
X103747000Y-90187000D01*
X103493000Y-90187000D01*
X102299845Y-90187000D01*
X102178524Y-90416890D01*
X100710000Y-90416890D01*
X100710000Y-87876890D01*
X102178524Y-87876890D01*
X102348355Y-88286924D01*
X102738642Y-88715183D01*
X102897954Y-88790000D01*
X102738642Y-88864817D01*
X102348355Y-89293076D01*
X102178524Y-89703110D01*
X102299845Y-89933000D01*
X103493000Y-89933000D01*
X103493000Y-87647000D01*
X103747000Y-87647000D01*
X103747000Y-89933000D01*
X104940155Y-89933000D01*
X105061476Y-89703110D01*
X104891645Y-89293076D01*
X104501358Y-88864817D01*
X104342046Y-88790000D01*
X104501358Y-88715183D01*
X104891645Y-88286924D01*
X105061476Y-87876890D01*
X104940155Y-87647000D01*
X103747000Y-87647000D01*
X103493000Y-87647000D01*
X102299845Y-87647000D01*
X102178524Y-87876890D01*
X100710000Y-87876890D01*
X100710000Y-58284187D01*
X101564752Y-58284187D01*
X101782757Y-58811800D01*
X102065000Y-59094536D01*
X102065000Y-60905742D01*
X101784176Y-61186077D01*
X101565250Y-61713309D01*
X101564752Y-62284187D01*
X101782757Y-62811800D01*
X102065000Y-63094536D01*
X102065000Y-84360000D01*
X102122560Y-84649372D01*
X102122560Y-85830000D01*
X102166838Y-86065317D01*
X102305910Y-86281441D01*
X102518110Y-86426431D01*
X102626107Y-86448301D01*
X102348355Y-86753076D01*
X102178524Y-87163110D01*
X102299845Y-87393000D01*
X103493000Y-87393000D01*
X103493000Y-87373000D01*
X103747000Y-87373000D01*
X103747000Y-87393000D01*
X104940155Y-87393000D01*
X105061476Y-87163110D01*
X104891645Y-86753076D01*
X104615499Y-86450063D01*
X104705317Y-86433162D01*
X104921441Y-86294090D01*
X105066431Y-86081890D01*
X105117440Y-85830000D01*
X105117440Y-84130000D01*
X105073162Y-83894683D01*
X104934090Y-83678559D01*
X104721890Y-83533569D01*
X104470000Y-83482560D01*
X103935000Y-83482560D01*
X103935000Y-63094258D01*
X104215824Y-62813923D01*
X104434750Y-62286691D01*
X104435248Y-61715813D01*
X104217243Y-61188200D01*
X103935000Y-60905464D01*
X103935000Y-59094258D01*
X104215824Y-58813923D01*
X104434750Y-58286691D01*
X104435000Y-58000000D01*
X111696887Y-58000000D01*
X111806120Y-58549151D01*
X112117189Y-59014698D01*
X112582736Y-59325767D01*
X113131887Y-59435000D01*
X113188113Y-59435000D01*
X113737264Y-59325767D01*
X114202811Y-59014698D01*
X114275607Y-58905750D01*
X118335000Y-58905750D01*
X118335000Y-59596309D01*
X118431673Y-59829698D01*
X118610301Y-60008327D01*
X118843690Y-60105000D01*
X119534250Y-60105000D01*
X119693000Y-59946250D01*
X119693000Y-58747000D01*
X118493750Y-58747000D01*
X118335000Y-58905750D01*
X114275607Y-58905750D01*
X114513880Y-58549151D01*
X114623113Y-58000000D01*
X114552239Y-57643691D01*
X118335000Y-57643691D01*
X118335000Y-58334250D01*
X118493750Y-58493000D01*
X119693000Y-58493000D01*
X119693000Y-57293750D01*
X119534250Y-57135000D01*
X118843690Y-57135000D01*
X118610301Y-57231673D01*
X118431673Y-57410302D01*
X118335000Y-57643691D01*
X114552239Y-57643691D01*
X114513880Y-57450849D01*
X114202811Y-56985302D01*
X113737264Y-56674233D01*
X113188113Y-56565000D01*
X113131887Y-56565000D01*
X112582736Y-56674233D01*
X112117189Y-56985302D01*
X111806120Y-57450849D01*
X111696887Y-58000000D01*
X104435000Y-58000000D01*
X104435248Y-57715813D01*
X104217243Y-57188200D01*
X103813923Y-56784176D01*
X103286691Y-56565250D01*
X102715813Y-56564752D01*
X102188200Y-56782757D01*
X101784176Y-57186077D01*
X101565250Y-57713309D01*
X101564752Y-58284187D01*
X100710000Y-58284187D01*
X100710000Y-57069931D01*
X100821046Y-56511662D01*
X101097669Y-56097667D01*
X101511660Y-55821047D01*
X102069931Y-55710000D01*
X160430069Y-55710000D01*
X160988338Y-55821046D01*
X160988338Y-55821046D01*
G37*
X160988338Y-55821046D02*
X161402333Y-56097669D01*
X161678953Y-56511660D01*
X161790000Y-57069931D01*
X161790000Y-152930069D01*
X161678953Y-153488340D01*
X161402333Y-153902331D01*
X160988338Y-154178954D01*
X160430069Y-154290000D01*
X102069931Y-154290000D01*
X101511660Y-154178953D01*
X101097669Y-153902333D01*
X100821046Y-153488338D01*
X100710000Y-152930069D01*
X100710000Y-148284187D01*
X101564752Y-148284187D01*
X101782757Y-148811800D01*
X102065000Y-149094536D01*
X102065000Y-150905742D01*
X101784176Y-151186077D01*
X101565250Y-151713309D01*
X101564752Y-152284187D01*
X101782757Y-152811800D01*
X102186077Y-153215824D01*
X102713309Y-153434750D01*
X103284187Y-153435248D01*
X103811800Y-153217243D01*
X104215824Y-152813923D01*
X104434750Y-152286691D01*
X104435248Y-151715813D01*
X104217243Y-151188200D01*
X103935000Y-150905464D01*
X103935000Y-149094258D01*
X104215824Y-148813923D01*
X104434750Y-148286691D01*
X104435248Y-147715813D01*
X104217243Y-147188200D01*
X103935000Y-146905464D01*
X103935000Y-138500000D01*
X110165000Y-138500000D01*
X110165000Y-149840000D01*
X110228561Y-150159541D01*
X110322983Y-150300853D01*
X110409566Y-150430434D01*
X111743714Y-151764582D01*
X111696887Y-152000000D01*
X111806120Y-152549151D01*
X112117189Y-153014698D01*
X112582736Y-153325767D01*
X113131887Y-153435000D01*
X113188113Y-153435000D01*
X113737264Y-153325767D01*
X114202811Y-153014698D01*
X114513880Y-152549151D01*
X114623113Y-152000000D01*
X114513880Y-151450849D01*
X114447101Y-151350907D01*
X118335000Y-151350907D01*
X118335000Y-151409093D01*
X118448039Y-151977378D01*
X118769946Y-152459147D01*
X119251715Y-152781054D01*
X119820000Y-152894093D01*
X120388285Y-152781054D01*
X120870054Y-152459147D01*
X121097702Y-152118447D01*
X121164817Y-152261358D01*
X121593076Y-152651645D01*
X122003110Y-152821476D01*
X122233000Y-152700155D01*
X122233000Y-151507000D01*
X122213000Y-151507000D01*
X122213000Y-151253000D01*
X122233000Y-151253000D01*
X122233000Y-150059845D01*
X122003110Y-149938524D01*
X121593076Y-150108355D01*
X121164817Y-150498642D01*
X121097702Y-150641553D01*
X120870054Y-150300853D01*
X120388285Y-149978946D01*
X119820000Y-149865907D01*
X119251715Y-149978946D01*
X118769946Y-150300853D01*
X118448039Y-150782622D01*
X118335000Y-151350907D01*
X114447101Y-151350907D01*
X114202811Y-150985302D01*
X113737264Y-150674233D01*
X113188113Y-150565000D01*
X113131887Y-150565000D01*
X112943367Y-150602499D01*
X111835000Y-149494132D01*
X111835000Y-148592373D01*
X112117189Y-149014698D01*
X112582736Y-149325767D01*
X113131887Y-149435000D01*
X113188113Y-149435000D01*
X113737264Y-149325767D01*
X114202811Y-149014698D01*
X114513880Y-148549151D01*
X114623113Y-148000000D01*
X114513880Y-147450849D01*
X114202811Y-146985302D01*
X113737264Y-146674233D01*
X113188113Y-146565000D01*
X113131887Y-146565000D01*
X112582736Y-146674233D01*
X112117189Y-146985302D01*
X111835000Y-147407627D01*
X111835000Y-138845868D01*
X112788333Y-137892535D01*
X113028943Y-137793117D01*
X113292192Y-137530327D01*
X113434838Y-137186799D01*
X113435162Y-136814833D01*
X113293117Y-136471057D01*
X113030327Y-136207808D01*
X112686799Y-136065162D01*
X112314833Y-136064838D01*
X111971057Y-136206883D01*
X111707808Y-136469673D01*
X111607222Y-136711910D01*
X110409566Y-137909566D01*
X110228561Y-138180459D01*
X110165000Y-138500000D01*
X103935000Y-138500000D01*
X103935000Y-126517440D01*
X104470000Y-126517440D01*
X104705317Y-126473162D01*
X104921441Y-126334090D01*
X105066431Y-126121890D01*
X105117440Y-125870000D01*
X105117440Y-124170000D01*
X105073162Y-123934683D01*
X104934090Y-123718559D01*
X104721890Y-123573569D01*
X104613893Y-123551699D01*
X104891645Y-123246924D01*
X105061476Y-122836890D01*
X104940155Y-122607000D01*
X103747000Y-122607000D01*
X103747000Y-122627000D01*
X103493000Y-122627000D01*
X103493000Y-122607000D01*
X102299845Y-122607000D01*
X102178524Y-122836890D01*
X102348355Y-123246924D01*
X102624501Y-123549937D01*
X102534683Y-123566838D01*
X102318559Y-123705910D01*
X102173569Y-123918110D01*
X102122560Y-124170000D01*
X102122560Y-125350628D01*
X102065000Y-125640000D01*
X102065000Y-146905742D01*
X101784176Y-147186077D01*
X101565250Y-147713309D01*
X101564752Y-148284187D01*
X100710000Y-148284187D01*
X100710000Y-120296890D01*
X102178524Y-120296890D01*
X102348355Y-120706924D01*
X102738642Y-121135183D01*
X102897954Y-121210000D01*
X102738642Y-121284817D01*
X102348355Y-121713076D01*
X102178524Y-122123110D01*
X102299845Y-122353000D01*
X103493000Y-122353000D01*
X103493000Y-120067000D01*
X103747000Y-120067000D01*
X103747000Y-122353000D01*
X104940155Y-122353000D01*
X105061476Y-122123110D01*
X104891645Y-121713076D01*
X104501358Y-121284817D01*
X104342046Y-121210000D01*
X104501358Y-121135183D01*
X104891645Y-120706924D01*
X105061476Y-120296890D01*
X104940155Y-120067000D01*
X103747000Y-120067000D01*
X103493000Y-120067000D01*
X102299845Y-120067000D01*
X102178524Y-120296890D01*
X100710000Y-120296890D01*
X100710000Y-119583110D01*
X102178524Y-119583110D01*
X102299845Y-119813000D01*
X103493000Y-119813000D01*
X103493000Y-118619181D01*
X103747000Y-118619181D01*
X103747000Y-119813000D01*
X104940155Y-119813000D01*
X105061476Y-119583110D01*
X104891645Y-119173076D01*
X104501358Y-118744817D01*
X103976892Y-118498514D01*
X103747000Y-118619181D01*
X103493000Y-118619181D01*
X103263108Y-118498514D01*
X102738642Y-118744817D01*
X102348355Y-119173076D01*
X102178524Y-119583110D01*
X100710000Y-119583110D01*
X100710000Y-100185167D01*
X111564838Y-100185167D01*
X111706883Y-100528943D01*
X111969673Y-100792192D01*
X112313201Y-100934838D01*
X112685167Y-100935162D01*
X113028943Y-100793117D01*
X113292192Y-100530327D01*
X113392778Y-100288090D01*
X113750434Y-99930434D01*
X113827676Y-99814833D01*
X113931439Y-99659541D01*
X113995000Y-99340000D01*
X113995000Y-67580167D01*
X118444838Y-67580167D01*
X118586883Y-67923943D01*
X118849673Y-68187192D01*
X119193201Y-68329838D01*
X119565167Y-68330162D01*
X119908943Y-68188117D01*
X120172192Y-67925327D01*
X120314838Y-67581799D01*
X120315162Y-67209833D01*
X120215000Y-66967422D01*
X120215000Y-64565868D01*
X122950434Y-61830434D01*
X123076214Y-61642191D01*
X123131439Y-61559541D01*
X123195000Y-61240000D01*
X123195000Y-59842841D01*
X123410054Y-59699147D01*
X123630000Y-59369974D01*
X123849946Y-59699147D01*
X124065000Y-59842841D01*
X124065000Y-70754132D01*
X121909566Y-72909566D01*
X121728561Y-73180459D01*
X121665000Y-73500000D01*
X121665000Y-96072766D01*
X121565162Y-96313201D01*
X121564838Y-96685167D01*
X121706883Y-97028943D01*
X121969673Y-97292192D01*
X122313201Y-97434838D01*
X122685167Y-97435162D01*
X123028943Y-97293117D01*
X123292192Y-97030327D01*
X123434838Y-96686799D01*
X123435162Y-96314833D01*
X123335000Y-96072422D01*
X123335000Y-73845868D01*
X125490434Y-71690434D01*
X125671440Y-71419540D01*
X125735000Y-71100000D01*
X125735000Y-59842841D01*
X125950054Y-59699147D01*
X126170000Y-59369974D01*
X126389946Y-59699147D01*
X126605000Y-59842841D01*
X126605000Y-112717261D01*
X126565162Y-112813201D01*
X126564838Y-113185167D01*
X126706883Y-113528943D01*
X126969673Y-113792192D01*
X127313201Y-113934838D01*
X127665000Y-113935144D01*
X127665000Y-142000000D01*
X127728561Y-142319541D01*
X127892572Y-142565000D01*
X127909566Y-142590434D01*
X129145000Y-143825868D01*
X129145000Y-150157159D01*
X128929946Y-150300853D01*
X128710000Y-150630026D01*
X128490054Y-150300853D01*
X128275000Y-150157159D01*
X128275000Y-143440000D01*
X128211439Y-143120459D01*
X128030434Y-142849566D01*
X125835000Y-140654132D01*
X125835000Y-75427234D01*
X125934838Y-75186799D01*
X125935162Y-74814833D01*
X125793117Y-74471057D01*
X125530327Y-74207808D01*
X125186799Y-74065162D01*
X124814833Y-74064838D01*
X124471057Y-74206883D01*
X124207808Y-74469673D01*
X124065162Y-74813201D01*
X124064838Y-75185167D01*
X124165000Y-75427578D01*
X124165000Y-141000000D01*
X124228561Y-141319541D01*
X124288714Y-141409566D01*
X124409566Y-141590434D01*
X126605000Y-143785868D01*
X126605000Y-150157159D01*
X126389946Y-150300853D01*
X126170000Y-150630026D01*
X125950054Y-150300853D01*
X125735000Y-150157159D01*
X125735000Y-143400000D01*
X125671439Y-143080459D01*
X125490434Y-142809566D01*
X121835000Y-139154132D01*
X121835000Y-103427234D01*
X121934838Y-103186799D01*
X121935162Y-102814833D01*
X121793117Y-102471057D01*
X121530327Y-102207808D01*
X121186799Y-102065162D01*
X120814833Y-102064838D01*
X120471057Y-102206883D01*
X120207808Y-102469673D01*
X120065162Y-102813201D01*
X120064838Y-103185167D01*
X120165000Y-103427578D01*
X120165000Y-139500000D01*
X120228561Y-139819541D01*
X120392463Y-140064838D01*
X120409566Y-140090434D01*
X124065000Y-143745868D01*
X124065000Y-150157159D01*
X123849946Y-150300853D01*
X123622298Y-150641553D01*
X123555183Y-150498642D01*
X123126924Y-150108355D01*
X122716890Y-149938524D01*
X122487000Y-150059845D01*
X122487000Y-151253000D01*
X122507000Y-151253000D01*
X122507000Y-151507000D01*
X122487000Y-151507000D01*
X122487000Y-152700155D01*
X122716890Y-152821476D01*
X123126924Y-152651645D01*
X123555183Y-152261358D01*
X123622298Y-152118447D01*
X123849946Y-152459147D01*
X124331715Y-152781054D01*
X124900000Y-152894093D01*
X125468285Y-152781054D01*
X125950054Y-152459147D01*
X126170000Y-152129974D01*
X126389946Y-152459147D01*
X126871715Y-152781054D01*
X127440000Y-152894093D01*
X128008285Y-152781054D01*
X128490054Y-152459147D01*
X128710000Y-152129974D01*
X128929946Y-152459147D01*
X129411715Y-152781054D01*
X129980000Y-152894093D01*
X130548285Y-152781054D01*
X131030054Y-152459147D01*
X131250000Y-152129974D01*
X131469946Y-152459147D01*
X131951715Y-152781054D01*
X132520000Y-152894093D01*
X133088285Y-152781054D01*
X133570054Y-152459147D01*
X133790000Y-152129974D01*
X134009946Y-152459147D01*
X134491715Y-152781054D01*
X135060000Y-152894093D01*
X135628285Y-152781054D01*
X136110054Y-152459147D01*
X136330000Y-152129974D01*
X136549946Y-152459147D01*
X137031715Y-152781054D01*
X137600000Y-152894093D01*
X138168285Y-152781054D01*
X138650054Y-152459147D01*
X138870000Y-152129974D01*
X139089946Y-152459147D01*
X139571715Y-152781054D01*
X140140000Y-152894093D01*
X140708285Y-152781054D01*
X141190054Y-152459147D01*
X141219403Y-152415223D01*
X141291673Y-152589698D01*
X141470301Y-152768327D01*
X141703690Y-152865000D01*
X142394250Y-152865000D01*
X142553000Y-152706250D01*
X142553000Y-151507000D01*
X142807000Y-151507000D01*
X142807000Y-152706250D01*
X142965750Y-152865000D01*
X143656310Y-152865000D01*
X143889699Y-152768327D01*
X144068327Y-152589698D01*
X144165000Y-152356309D01*
X144165000Y-151665750D01*
X144006250Y-151507000D01*
X142807000Y-151507000D01*
X142553000Y-151507000D01*
X142533000Y-151507000D01*
X142533000Y-151253000D01*
X142553000Y-151253000D01*
X142553000Y-150053750D01*
X142807000Y-150053750D01*
X142807000Y-151253000D01*
X144006250Y-151253000D01*
X144165000Y-151094250D01*
X144165000Y-150403691D01*
X144068327Y-150170302D01*
X143889699Y-149991673D01*
X143656310Y-149895000D01*
X142965750Y-149895000D01*
X142807000Y-150053750D01*
X142553000Y-150053750D01*
X142394250Y-149895000D01*
X141703690Y-149895000D01*
X141470301Y-149991673D01*
X141291673Y-150170302D01*
X141219403Y-150344777D01*
X141190054Y-150300853D01*
X140975000Y-150157159D01*
X140975000Y-105185167D01*
X143064838Y-105185167D01*
X143206883Y-105528943D01*
X143469673Y-105792192D01*
X143711910Y-105892778D01*
X144415000Y-106595868D01*
X144415000Y-139500000D01*
X144478561Y-139819541D01*
X144642463Y-140064838D01*
X144659566Y-140090434D01*
X148505000Y-143935868D01*
X148505000Y-146846447D01*
X148297189Y-146985302D01*
X147986120Y-147450849D01*
X147876887Y-148000000D01*
X147986120Y-148549151D01*
X148297189Y-149014698D01*
X148762736Y-149325767D01*
X149311887Y-149435000D01*
X149368113Y-149435000D01*
X149917264Y-149325767D01*
X150382811Y-149014698D01*
X150665000Y-148592373D01*
X150665000Y-149494132D01*
X149556633Y-150602499D01*
X149368113Y-150565000D01*
X149311887Y-150565000D01*
X148762736Y-150674233D01*
X148297189Y-150985302D01*
X147986120Y-151450849D01*
X147876887Y-152000000D01*
X147986120Y-152549151D01*
X148297189Y-153014698D01*
X148762736Y-153325767D01*
X149311887Y-153435000D01*
X149368113Y-153435000D01*
X149917264Y-153325767D01*
X150382811Y-153014698D01*
X150693880Y-152549151D01*
X150803113Y-152000000D01*
X150756286Y-151764582D01*
X152090434Y-150430434D01*
X152177017Y-150300853D01*
X152271439Y-150159541D01*
X152335000Y-149840000D01*
X152335000Y-139000000D01*
X152271439Y-138680459D01*
X152090434Y-138409566D01*
X150892535Y-137211667D01*
X150793117Y-136971057D01*
X150530327Y-136707808D01*
X150186799Y-136565162D01*
X149814833Y-136564838D01*
X149471057Y-136706883D01*
X149207808Y-136969673D01*
X149065162Y-137313201D01*
X149064838Y-137685167D01*
X149206883Y-138028943D01*
X149469673Y-138292192D01*
X149711910Y-138392778D01*
X150665000Y-139345868D01*
X150665000Y-147407627D01*
X150382811Y-146985302D01*
X150175000Y-146846447D01*
X150175000Y-143590000D01*
X150111439Y-143270459D01*
X149930434Y-142999566D01*
X146085000Y-139154132D01*
X146085000Y-106250000D01*
X146021439Y-105930459D01*
X145840434Y-105659566D01*
X144892535Y-104711667D01*
X144793117Y-104471057D01*
X144530327Y-104207808D01*
X144186799Y-104065162D01*
X143814833Y-104064838D01*
X143471057Y-104206883D01*
X143207808Y-104469673D01*
X143065162Y-104813201D01*
X143064838Y-105185167D01*
X140975000Y-105185167D01*
X140975000Y-69640000D01*
X140935054Y-69439177D01*
X140935162Y-69314833D01*
X140793117Y-68971057D01*
X140530327Y-68707808D01*
X140186799Y-68565162D01*
X139814833Y-68564838D01*
X139471057Y-68706883D01*
X139207808Y-68969673D01*
X139065162Y-69313201D01*
X139064838Y-69685167D01*
X139206883Y-70028943D01*
X139305000Y-70127231D01*
X139305000Y-150157159D01*
X139089946Y-150300853D01*
X138870000Y-150630026D01*
X138650054Y-150300853D01*
X138435000Y-150157159D01*
X138435000Y-107100000D01*
X138371439Y-106780459D01*
X138190434Y-106509566D01*
X135835000Y-104154132D01*
X135835000Y-96927234D01*
X135934838Y-96686799D01*
X135935162Y-96314833D01*
X135793117Y-95971057D01*
X135530327Y-95707808D01*
X135186799Y-95565162D01*
X134814833Y-95564838D01*
X134471057Y-95706883D01*
X134207808Y-95969673D01*
X134065162Y-96313201D01*
X134064838Y-96685167D01*
X134165000Y-96927578D01*
X134165000Y-104500000D01*
X134228561Y-104819541D01*
X134349140Y-105000000D01*
X134409566Y-105090434D01*
X136765000Y-107445868D01*
X136765000Y-150157159D01*
X136549946Y-150300853D01*
X136330000Y-150630026D01*
X136110054Y-150300853D01*
X135895000Y-150157159D01*
X135895000Y-113282739D01*
X135934838Y-113186799D01*
X135935162Y-112814833D01*
X135793117Y-112471057D01*
X135530327Y-112207808D01*
X135186799Y-112065162D01*
X134814833Y-112064838D01*
X134471057Y-112206883D01*
X134207808Y-112469673D01*
X134065162Y-112813201D01*
X134064838Y-113185167D01*
X134206883Y-113528943D01*
X134225000Y-113547092D01*
X134225000Y-150157159D01*
X134009946Y-150300853D01*
X133790000Y-150630026D01*
X133570054Y-150300853D01*
X133355000Y-150157159D01*
X133355000Y-143520000D01*
X133291439Y-143200459D01*
X133110434Y-142929566D01*
X130858452Y-140677584D01*
X130815000Y-140572422D01*
X130815000Y-59842841D01*
X131030054Y-59699147D01*
X131250000Y-59369974D01*
X131469946Y-59699147D01*
X131685000Y-59842841D01*
X131685000Y-111024600D01*
X131565162Y-111313201D01*
X131564838Y-111685167D01*
X131706883Y-112028943D01*
X131969673Y-112292192D01*
X132313201Y-112434838D01*
X132685167Y-112435162D01*
X133028943Y-112293117D01*
X133292192Y-112030327D01*
X133434838Y-111686799D01*
X133435162Y-111314833D01*
X133355000Y-111120826D01*
X133355000Y-59842841D01*
X133570054Y-59699147D01*
X133790000Y-59369974D01*
X134009946Y-59699147D01*
X134225000Y-59842841D01*
X134225000Y-74452511D01*
X134207808Y-74469673D01*
X134065162Y-74813201D01*
X134064838Y-75185167D01*
X134206883Y-75528943D01*
X134469673Y-75792192D01*
X134813201Y-75934838D01*
X135185167Y-75935162D01*
X135528943Y-75793117D01*
X135792192Y-75530327D01*
X135934838Y-75186799D01*
X135935162Y-74814833D01*
X135895000Y-74717633D01*
X135895000Y-59842841D01*
X136110054Y-59699147D01*
X136330000Y-59369974D01*
X136549946Y-59699147D01*
X136765000Y-59842841D01*
X136765000Y-102412581D01*
X136707808Y-102469673D01*
X136565162Y-102813201D01*
X136564838Y-103185167D01*
X136706883Y-103528943D01*
X136969673Y-103792192D01*
X137313201Y-103934838D01*
X137685167Y-103935162D01*
X138028943Y-103793117D01*
X138292192Y-103530327D01*
X138434838Y-103186799D01*
X138435162Y-102814833D01*
X138435000Y-102814441D01*
X138435000Y-59842841D01*
X138650054Y-59699147D01*
X138877702Y-59358447D01*
X138944817Y-59501358D01*
X139373076Y-59891645D01*
X139783110Y-60061476D01*
X140013000Y-59940155D01*
X140013000Y-58747000D01*
X139993000Y-58747000D01*
X139993000Y-58493000D01*
X140013000Y-58493000D01*
X140013000Y-57299845D01*
X140267000Y-57299845D01*
X140267000Y-58493000D01*
X140287000Y-58493000D01*
X140287000Y-58747000D01*
X140267000Y-58747000D01*
X140267000Y-59940155D01*
X140496890Y-60061476D01*
X140906924Y-59891645D01*
X141335183Y-59501358D01*
X141402298Y-59358447D01*
X141629946Y-59699147D01*
X141745000Y-59776023D01*
X141745000Y-84680000D01*
X141816173Y-85037809D01*
X142018855Y-85341145D01*
X145065000Y-88387290D01*
X145065000Y-89313460D01*
X144913559Y-89410910D01*
X144768569Y-89623110D01*
X144717560Y-89875000D01*
X144717560Y-90845000D01*
X144747796Y-91005690D01*
X144717560Y-91155000D01*
X144717560Y-92125000D01*
X144761838Y-92360317D01*
X144900910Y-92576441D01*
X145065000Y-92688559D01*
X145065000Y-93500000D01*
X145136173Y-93857809D01*
X145338855Y-94161145D01*
X148425000Y-97247290D01*
X148425000Y-120899983D01*
X148423559Y-120900910D01*
X148278569Y-121113110D01*
X148227560Y-121365000D01*
X148227560Y-122635000D01*
X148271838Y-122870317D01*
X148410910Y-123086441D01*
X148425000Y-123096068D01*
X148425000Y-133610000D01*
X148496173Y-133967809D01*
X148698855Y-134271145D01*
X152565000Y-138137290D01*
X152565000Y-145749184D01*
X152564838Y-145935167D01*
X152706883Y-146278943D01*
X152969673Y-146542192D01*
X153313201Y-146684838D01*
X153685167Y-146685162D01*
X154028943Y-146543117D01*
X154292192Y-146280327D01*
X154434838Y-145936799D01*
X154435162Y-145564833D01*
X154435000Y-145564441D01*
X154435000Y-137750000D01*
X154363827Y-137392191D01*
X154161145Y-137088855D01*
X150295000Y-133222710D01*
X150295000Y-123282440D01*
X151125000Y-123282440D01*
X151360317Y-123238162D01*
X151576441Y-123099090D01*
X151688559Y-122935000D01*
X153612711Y-122935000D01*
X153818853Y-123141142D01*
X153818855Y-123141145D01*
X154122191Y-123343827D01*
X154181556Y-123355636D01*
X154480000Y-123415001D01*
X154480005Y-123415000D01*
X157723977Y-123415000D01*
X157800853Y-123530054D01*
X157842452Y-123557850D01*
X157794683Y-123566838D01*
X157578559Y-123705910D01*
X157433569Y-123918110D01*
X157382560Y-124170000D01*
X157382560Y-125870000D01*
X157426838Y-126105317D01*
X157565910Y-126321441D01*
X157778110Y-126466431D01*
X158030000Y-126517440D01*
X158565000Y-126517440D01*
X158565000Y-146905742D01*
X158284176Y-147186077D01*
X158065250Y-147713309D01*
X158064752Y-148284187D01*
X158282757Y-148811800D01*
X158565000Y-149094536D01*
X158565000Y-150905742D01*
X158284176Y-151186077D01*
X158065250Y-151713309D01*
X158064752Y-152284187D01*
X158282757Y-152811800D01*
X158686077Y-153215824D01*
X159213309Y-153434750D01*
X159784187Y-153435248D01*
X160311800Y-153217243D01*
X160715824Y-152813923D01*
X160934750Y-152286691D01*
X160935248Y-151715813D01*
X160717243Y-151188200D01*
X160435000Y-150905464D01*
X160435000Y-149094258D01*
X160715824Y-148813923D01*
X160934750Y-148286691D01*
X160935248Y-147715813D01*
X160717243Y-147188200D01*
X160435000Y-146905464D01*
X160435000Y-125640000D01*
X160377440Y-125350628D01*
X160377440Y-124170000D01*
X160333162Y-123934683D01*
X160194090Y-123718559D01*
X159981890Y-123573569D01*
X159914459Y-123559914D01*
X159959147Y-123530054D01*
X160281054Y-123048285D01*
X160394093Y-122480000D01*
X160281054Y-121911715D01*
X159959147Y-121429946D01*
X159618447Y-121202298D01*
X159761358Y-121135183D01*
X160151645Y-120706924D01*
X160321476Y-120296890D01*
X160200155Y-120067000D01*
X159007000Y-120067000D01*
X159007000Y-120087000D01*
X158753000Y-120087000D01*
X158753000Y-120067000D01*
X157559845Y-120067000D01*
X157438524Y-120296890D01*
X157608355Y-120706924D01*
X157998642Y-121135183D01*
X158141553Y-121202298D01*
X157800853Y-121429946D01*
X157723977Y-121545000D01*
X154867290Y-121545000D01*
X154661145Y-121338855D01*
X154357809Y-121136173D01*
X154000000Y-121065000D01*
X151686540Y-121065000D01*
X151589090Y-120913559D01*
X151376890Y-120768569D01*
X151125000Y-120717560D01*
X150295000Y-120717560D01*
X150295000Y-119583110D01*
X157438524Y-119583110D01*
X157559845Y-119813000D01*
X158753000Y-119813000D01*
X158753000Y-118619181D01*
X159007000Y-118619181D01*
X159007000Y-119813000D01*
X160200155Y-119813000D01*
X160321476Y-119583110D01*
X160151645Y-119173076D01*
X159761358Y-118744817D01*
X159236892Y-118498514D01*
X159007000Y-118619181D01*
X158753000Y-118619181D01*
X158523108Y-118498514D01*
X157998642Y-118744817D01*
X157608355Y-119173076D01*
X157438524Y-119583110D01*
X150295000Y-119583110D01*
X150295000Y-96860005D01*
X150295001Y-96860000D01*
X150223827Y-96502192D01*
X150223827Y-96502191D01*
X150021145Y-96198855D01*
X146935000Y-93112710D01*
X146935000Y-92686540D01*
X147086441Y-92589090D01*
X147231431Y-92376890D01*
X147282440Y-92125000D01*
X147282440Y-91155000D01*
X147252204Y-90994310D01*
X147282440Y-90845000D01*
X147282440Y-90416890D01*
X157438524Y-90416890D01*
X157608355Y-90826924D01*
X157998642Y-91255183D01*
X158523108Y-91501486D01*
X158753000Y-91380819D01*
X158753000Y-90187000D01*
X159007000Y-90187000D01*
X159007000Y-91380819D01*
X159236892Y-91501486D01*
X159761358Y-91255183D01*
X160151645Y-90826924D01*
X160321476Y-90416890D01*
X160200155Y-90187000D01*
X159007000Y-90187000D01*
X158753000Y-90187000D01*
X157559845Y-90187000D01*
X157438524Y-90416890D01*
X147282440Y-90416890D01*
X147282440Y-89875000D01*
X147238162Y-89639683D01*
X147099090Y-89423559D01*
X146935000Y-89311441D01*
X146935000Y-88935000D01*
X148313460Y-88935000D01*
X148410910Y-89086441D01*
X148623110Y-89231431D01*
X148875000Y-89282440D01*
X149845000Y-89282440D01*
X150005690Y-89252204D01*
X150155000Y-89282440D01*
X151125000Y-89282440D01*
X151360317Y-89238162D01*
X151576441Y-89099090D01*
X151688559Y-88935000D01*
X154000000Y-88935000D01*
X154357809Y-88863827D01*
X154661145Y-88661145D01*
X154867290Y-88455000D01*
X157723977Y-88455000D01*
X157800853Y-88570054D01*
X158141553Y-88797702D01*
X157998642Y-88864817D01*
X157608355Y-89293076D01*
X157438524Y-89703110D01*
X157559845Y-89933000D01*
X158753000Y-89933000D01*
X158753000Y-89913000D01*
X159007000Y-89913000D01*
X159007000Y-89933000D01*
X160200155Y-89933000D01*
X160321476Y-89703110D01*
X160151645Y-89293076D01*
X159761358Y-88864817D01*
X159618447Y-88797702D01*
X159959147Y-88570054D01*
X160281054Y-88088285D01*
X160394093Y-87520000D01*
X160281054Y-86951715D01*
X159959147Y-86469946D01*
X159917548Y-86442150D01*
X159965317Y-86433162D01*
X160181441Y-86294090D01*
X160326431Y-86081890D01*
X160377440Y-85830000D01*
X160377440Y-84649372D01*
X160435000Y-84360000D01*
X160435000Y-59094258D01*
X160715824Y-58813923D01*
X160934750Y-58286691D01*
X160935248Y-57715813D01*
X160717243Y-57188200D01*
X160313923Y-56784176D01*
X159786691Y-56565250D01*
X159215813Y-56564752D01*
X158688200Y-56782757D01*
X158284176Y-57186077D01*
X158065250Y-57713309D01*
X158064752Y-58284187D01*
X158282757Y-58811800D01*
X158565000Y-59094536D01*
X158565000Y-83482560D01*
X158030000Y-83482560D01*
X157794683Y-83526838D01*
X157578559Y-83665910D01*
X157433569Y-83878110D01*
X157382560Y-84130000D01*
X157382560Y-85830000D01*
X157426838Y-86065317D01*
X157565910Y-86281441D01*
X157778110Y-86426431D01*
X157845541Y-86440086D01*
X157800853Y-86469946D01*
X157723977Y-86585000D01*
X154480005Y-86585000D01*
X154480000Y-86584999D01*
X154181556Y-86644364D01*
X154122191Y-86656173D01*
X153818855Y-86858855D01*
X153818853Y-86858858D01*
X153612711Y-87065000D01*
X151686540Y-87065000D01*
X151589090Y-86913559D01*
X151376890Y-86768569D01*
X151125000Y-86717560D01*
X150155000Y-86717560D01*
X149994310Y-86747796D01*
X149845000Y-86717560D01*
X148875000Y-86717560D01*
X148639683Y-86761838D01*
X148423559Y-86900910D01*
X148311441Y-87065000D01*
X146387290Y-87065000D01*
X143615000Y-84292710D01*
X143615000Y-59776023D01*
X143730054Y-59699147D01*
X144051961Y-59217378D01*
X144165000Y-58649093D01*
X144165000Y-58590907D01*
X144051961Y-58022622D01*
X144036846Y-58000000D01*
X147876887Y-58000000D01*
X147986120Y-58549151D01*
X148297189Y-59014698D01*
X148505000Y-59153553D01*
X148505000Y-71840000D01*
X148568561Y-72159541D01*
X148672324Y-72314833D01*
X148749566Y-72430434D01*
X149107465Y-72788333D01*
X149206883Y-73028943D01*
X149469673Y-73292192D01*
X149813201Y-73434838D01*
X150185167Y-73435162D01*
X150528943Y-73293117D01*
X150792192Y-73030327D01*
X150934838Y-72686799D01*
X150935162Y-72314833D01*
X150793117Y-71971057D01*
X150530327Y-71707808D01*
X150288090Y-71607222D01*
X150175000Y-71494132D01*
X150175000Y-59153553D01*
X150382811Y-59014698D01*
X150693880Y-58549151D01*
X150803113Y-58000000D01*
X150693880Y-57450849D01*
X150382811Y-56985302D01*
X149917264Y-56674233D01*
X149368113Y-56565000D01*
X149311887Y-56565000D01*
X148762736Y-56674233D01*
X148297189Y-56985302D01*
X147986120Y-57450849D01*
X147876887Y-58000000D01*
X144036846Y-58000000D01*
X143730054Y-57540853D01*
X143248285Y-57218946D01*
X142680000Y-57105907D01*
X142111715Y-57218946D01*
X141629946Y-57540853D01*
X141402298Y-57881553D01*
X141335183Y-57738642D01*
X140906924Y-57348355D01*
X140496890Y-57178524D01*
X140267000Y-57299845D01*
X140013000Y-57299845D01*
X139783110Y-57178524D01*
X139373076Y-57348355D01*
X138944817Y-57738642D01*
X138877702Y-57881553D01*
X138650054Y-57540853D01*
X138168285Y-57218946D01*
X137600000Y-57105907D01*
X137031715Y-57218946D01*
X136549946Y-57540853D01*
X136330000Y-57870026D01*
X136110054Y-57540853D01*
X135628285Y-57218946D01*
X135060000Y-57105907D01*
X134491715Y-57218946D01*
X134009946Y-57540853D01*
X133790000Y-57870026D01*
X133570054Y-57540853D01*
X133088285Y-57218946D01*
X132520000Y-57105907D01*
X131951715Y-57218946D01*
X131469946Y-57540853D01*
X131250000Y-57870026D01*
X131030054Y-57540853D01*
X130548285Y-57218946D01*
X129980000Y-57105907D01*
X129411715Y-57218946D01*
X128929946Y-57540853D01*
X128710000Y-57870026D01*
X128490054Y-57540853D01*
X128008285Y-57218946D01*
X127440000Y-57105907D01*
X126871715Y-57218946D01*
X126389946Y-57540853D01*
X126170000Y-57870026D01*
X125950054Y-57540853D01*
X125468285Y-57218946D01*
X124900000Y-57105907D01*
X124331715Y-57218946D01*
X123849946Y-57540853D01*
X123630000Y-57870026D01*
X123410054Y-57540853D01*
X122928285Y-57218946D01*
X122360000Y-57105907D01*
X121791715Y-57218946D01*
X121309946Y-57540853D01*
X121280597Y-57584777D01*
X121208327Y-57410302D01*
X121029699Y-57231673D01*
X120796310Y-57135000D01*
X120105750Y-57135000D01*
X119947000Y-57293750D01*
X119947000Y-58493000D01*
X119967000Y-58493000D01*
X119967000Y-58747000D01*
X119947000Y-58747000D01*
X119947000Y-59946250D01*
X120105750Y-60105000D01*
X120796310Y-60105000D01*
X121029699Y-60008327D01*
X121208327Y-59829698D01*
X121280597Y-59655223D01*
X121309946Y-59699147D01*
X121525000Y-59842841D01*
X121525000Y-60894132D01*
X118789566Y-63629566D01*
X118608561Y-63900459D01*
X118545000Y-64220000D01*
X118545000Y-66967766D01*
X118445162Y-67208201D01*
X118444838Y-67580167D01*
X113995000Y-67580167D01*
X113995000Y-63153553D01*
X114202811Y-63014698D01*
X114513880Y-62549151D01*
X114623113Y-62000000D01*
X114513880Y-61450849D01*
X114202811Y-60985302D01*
X113737264Y-60674233D01*
X113188113Y-60565000D01*
X113131887Y-60565000D01*
X112582736Y-60674233D01*
X112117189Y-60985302D01*
X111806120Y-61450849D01*
X111696887Y-62000000D01*
X111806120Y-62549151D01*
X112117189Y-63014698D01*
X112325000Y-63153553D01*
X112325000Y-98994132D01*
X112211667Y-99107465D01*
X111971057Y-99206883D01*
X111707808Y-99469673D01*
X111565162Y-99813201D01*
X111564838Y-100185167D01*
X100710000Y-100185167D01*
X100710000Y-90416890D01*
X102178524Y-90416890D01*
X102348355Y-90826924D01*
X102738642Y-91255183D01*
X103263108Y-91501486D01*
X103493000Y-91380819D01*
X103493000Y-90187000D01*
X103747000Y-90187000D01*
X103747000Y-91380819D01*
X103976892Y-91501486D01*
X104501358Y-91255183D01*
X104891645Y-90826924D01*
X105061476Y-90416890D01*
X104940155Y-90187000D01*
X103747000Y-90187000D01*
X103493000Y-90187000D01*
X102299845Y-90187000D01*
X102178524Y-90416890D01*
X100710000Y-90416890D01*
X100710000Y-87876890D01*
X102178524Y-87876890D01*
X102348355Y-88286924D01*
X102738642Y-88715183D01*
X102897954Y-88790000D01*
X102738642Y-88864817D01*
X102348355Y-89293076D01*
X102178524Y-89703110D01*
X102299845Y-89933000D01*
X103493000Y-89933000D01*
X103493000Y-87647000D01*
X103747000Y-87647000D01*
X103747000Y-89933000D01*
X104940155Y-89933000D01*
X105061476Y-89703110D01*
X104891645Y-89293076D01*
X104501358Y-88864817D01*
X104342046Y-88790000D01*
X104501358Y-88715183D01*
X104891645Y-88286924D01*
X105061476Y-87876890D01*
X104940155Y-87647000D01*
X103747000Y-87647000D01*
X103493000Y-87647000D01*
X102299845Y-87647000D01*
X102178524Y-87876890D01*
X100710000Y-87876890D01*
X100710000Y-58284187D01*
X101564752Y-58284187D01*
X101782757Y-58811800D01*
X102065000Y-59094536D01*
X102065000Y-60905742D01*
X101784176Y-61186077D01*
X101565250Y-61713309D01*
X101564752Y-62284187D01*
X101782757Y-62811800D01*
X102065000Y-63094536D01*
X102065000Y-84360000D01*
X102122560Y-84649372D01*
X102122560Y-85830000D01*
X102166838Y-86065317D01*
X102305910Y-86281441D01*
X102518110Y-86426431D01*
X102626107Y-86448301D01*
X102348355Y-86753076D01*
X102178524Y-87163110D01*
X102299845Y-87393000D01*
X103493000Y-87393000D01*
X103493000Y-87373000D01*
X103747000Y-87373000D01*
X103747000Y-87393000D01*
X104940155Y-87393000D01*
X105061476Y-87163110D01*
X104891645Y-86753076D01*
X104615499Y-86450063D01*
X104705317Y-86433162D01*
X104921441Y-86294090D01*
X105066431Y-86081890D01*
X105117440Y-85830000D01*
X105117440Y-84130000D01*
X105073162Y-83894683D01*
X104934090Y-83678559D01*
X104721890Y-83533569D01*
X104470000Y-83482560D01*
X103935000Y-83482560D01*
X103935000Y-63094258D01*
X104215824Y-62813923D01*
X104434750Y-62286691D01*
X104435248Y-61715813D01*
X104217243Y-61188200D01*
X103935000Y-60905464D01*
X103935000Y-59094258D01*
X104215824Y-58813923D01*
X104434750Y-58286691D01*
X104435000Y-58000000D01*
X111696887Y-58000000D01*
X111806120Y-58549151D01*
X112117189Y-59014698D01*
X112582736Y-59325767D01*
X113131887Y-59435000D01*
X113188113Y-59435000D01*
X113737264Y-59325767D01*
X114202811Y-59014698D01*
X114275607Y-58905750D01*
X118335000Y-58905750D01*
X118335000Y-59596309D01*
X118431673Y-59829698D01*
X118610301Y-60008327D01*
X118843690Y-60105000D01*
X119534250Y-60105000D01*
X119693000Y-59946250D01*
X119693000Y-58747000D01*
X118493750Y-58747000D01*
X118335000Y-58905750D01*
X114275607Y-58905750D01*
X114513880Y-58549151D01*
X114623113Y-58000000D01*
X114552239Y-57643691D01*
X118335000Y-57643691D01*
X118335000Y-58334250D01*
X118493750Y-58493000D01*
X119693000Y-58493000D01*
X119693000Y-57293750D01*
X119534250Y-57135000D01*
X118843690Y-57135000D01*
X118610301Y-57231673D01*
X118431673Y-57410302D01*
X118335000Y-57643691D01*
X114552239Y-57643691D01*
X114513880Y-57450849D01*
X114202811Y-56985302D01*
X113737264Y-56674233D01*
X113188113Y-56565000D01*
X113131887Y-56565000D01*
X112582736Y-56674233D01*
X112117189Y-56985302D01*
X111806120Y-57450849D01*
X111696887Y-58000000D01*
X104435000Y-58000000D01*
X104435248Y-57715813D01*
X104217243Y-57188200D01*
X103813923Y-56784176D01*
X103286691Y-56565250D01*
X102715813Y-56564752D01*
X102188200Y-56782757D01*
X101784176Y-57186077D01*
X101565250Y-57713309D01*
X101564752Y-58284187D01*
X100710000Y-58284187D01*
X100710000Y-57069931D01*
X100821046Y-56511662D01*
X101097669Y-56097667D01*
X101511660Y-55821047D01*
X102069931Y-55710000D01*
X160430069Y-55710000D01*
X160988338Y-55821046D01*
M02*
