G04 #@! TF.FileFunction,Legend,Bot*
%FSLAX46Y46*%
G04 Gerber Fmt 4.6, Leading zero omitted, Abs format (unit mm)*
G04 Created by KiCad (PCBNEW 4.0.4+e1-6308~48~ubuntu16.04.1-stable) date Sun Jan 28 16:13:34 2018*
%MOMM*%
%LPD*%
G01*
G04 APERTURE LIST*
%ADD10C,0.100000*%
%ADD11C,0.150000*%
%ADD12C,0.120000*%
%ADD13C,0.010000*%
G04 APERTURE END LIST*
D10*
D11*
X146761905Y-147127381D02*
X146761905Y-146127381D01*
X146523810Y-146127381D01*
X146380952Y-146175000D01*
X146285714Y-146270238D01*
X146238095Y-146365476D01*
X146190476Y-146555952D01*
X146190476Y-146698810D01*
X146238095Y-146889286D01*
X146285714Y-146984524D01*
X146380952Y-147079762D01*
X146523810Y-147127381D01*
X146761905Y-147127381D01*
X145761905Y-147127381D02*
X145761905Y-146460714D01*
X145761905Y-146127381D02*
X145809524Y-146175000D01*
X145761905Y-146222619D01*
X145714286Y-146175000D01*
X145761905Y-146127381D01*
X145761905Y-146222619D01*
X144857143Y-146460714D02*
X144857143Y-147270238D01*
X144904762Y-147365476D01*
X144952381Y-147413095D01*
X145047620Y-147460714D01*
X145190477Y-147460714D01*
X145285715Y-147413095D01*
X144857143Y-147079762D02*
X144952381Y-147127381D01*
X145142858Y-147127381D01*
X145238096Y-147079762D01*
X145285715Y-147032143D01*
X145333334Y-146936905D01*
X145333334Y-146651190D01*
X145285715Y-146555952D01*
X145238096Y-146508333D01*
X145142858Y-146460714D01*
X144952381Y-146460714D01*
X144857143Y-146508333D01*
X144380953Y-147127381D02*
X144380953Y-146460714D01*
X144380953Y-146127381D02*
X144428572Y-146175000D01*
X144380953Y-146222619D01*
X144333334Y-146175000D01*
X144380953Y-146127381D01*
X144380953Y-146222619D01*
X144047620Y-146460714D02*
X143666668Y-146460714D01*
X143904763Y-146127381D02*
X143904763Y-146984524D01*
X143857144Y-147079762D01*
X143761906Y-147127381D01*
X143666668Y-147127381D01*
X146190476Y-148777381D02*
X146523810Y-148301190D01*
X146761905Y-148777381D02*
X146761905Y-147777381D01*
X146380952Y-147777381D01*
X146285714Y-147825000D01*
X146238095Y-147872619D01*
X146190476Y-147967857D01*
X146190476Y-148110714D01*
X146238095Y-148205952D01*
X146285714Y-148253571D01*
X146380952Y-148301190D01*
X146761905Y-148301190D01*
X145380952Y-148729762D02*
X145476190Y-148777381D01*
X145666667Y-148777381D01*
X145761905Y-148729762D01*
X145809524Y-148634524D01*
X145809524Y-148253571D01*
X145761905Y-148158333D01*
X145666667Y-148110714D01*
X145476190Y-148110714D01*
X145380952Y-148158333D01*
X145333333Y-148253571D01*
X145333333Y-148348810D01*
X145809524Y-148444048D01*
X144761905Y-148777381D02*
X144857143Y-148729762D01*
X144904762Y-148634524D01*
X144904762Y-147777381D01*
X143952380Y-148777381D02*
X143952380Y-148253571D01*
X143999999Y-148158333D01*
X144095237Y-148110714D01*
X144285714Y-148110714D01*
X144380952Y-148158333D01*
X143952380Y-148729762D02*
X144047618Y-148777381D01*
X144285714Y-148777381D01*
X144380952Y-148729762D01*
X144428571Y-148634524D01*
X144428571Y-148539286D01*
X144380952Y-148444048D01*
X144285714Y-148396429D01*
X144047618Y-148396429D01*
X143952380Y-148348810D01*
X143571428Y-148110714D02*
X143333333Y-148777381D01*
X143095237Y-148110714D02*
X143333333Y-148777381D01*
X143428571Y-149015476D01*
X143476190Y-149063095D01*
X143571428Y-149110714D01*
X142142856Y-148682143D02*
X142190475Y-148729762D01*
X142333332Y-148777381D01*
X142428570Y-148777381D01*
X142571428Y-148729762D01*
X142666666Y-148634524D01*
X142714285Y-148539286D01*
X142761904Y-148348810D01*
X142761904Y-148205952D01*
X142714285Y-148015476D01*
X142666666Y-147920238D01*
X142571428Y-147825000D01*
X142428570Y-147777381D01*
X142333332Y-147777381D01*
X142190475Y-147825000D01*
X142142856Y-147872619D01*
X141571428Y-148777381D02*
X141666666Y-148729762D01*
X141714285Y-148634524D01*
X141714285Y-147777381D01*
X141047618Y-148777381D02*
X141142856Y-148729762D01*
X141190475Y-148682143D01*
X141238094Y-148586905D01*
X141238094Y-148301190D01*
X141190475Y-148205952D01*
X141142856Y-148158333D01*
X141047618Y-148110714D01*
X140904760Y-148110714D01*
X140809522Y-148158333D01*
X140761903Y-148205952D01*
X140714284Y-148301190D01*
X140714284Y-148586905D01*
X140761903Y-148682143D01*
X140809522Y-148729762D01*
X140904760Y-148777381D01*
X141047618Y-148777381D01*
X139857141Y-148729762D02*
X139952379Y-148777381D01*
X140142856Y-148777381D01*
X140238094Y-148729762D01*
X140285713Y-148682143D01*
X140333332Y-148586905D01*
X140333332Y-148301190D01*
X140285713Y-148205952D01*
X140238094Y-148158333D01*
X140142856Y-148110714D01*
X139952379Y-148110714D01*
X139857141Y-148158333D01*
X139428570Y-148777381D02*
X139428570Y-147777381D01*
X139333332Y-148396429D02*
X139047617Y-148777381D01*
X139047617Y-148110714D02*
X139428570Y-148491667D01*
X137952379Y-148110714D02*
X137714284Y-148777381D01*
X137476188Y-148110714D01*
X136571426Y-148777381D02*
X137142855Y-148777381D01*
X136857141Y-148777381D02*
X136857141Y-147777381D01*
X136952379Y-147920238D01*
X137047617Y-148015476D01*
X137142855Y-148063095D01*
X136142855Y-148682143D02*
X136095236Y-148729762D01*
X136142855Y-148777381D01*
X136190474Y-148729762D01*
X136142855Y-148682143D01*
X136142855Y-148777381D01*
X135476189Y-147777381D02*
X135380950Y-147777381D01*
X135285712Y-147825000D01*
X135238093Y-147872619D01*
X135190474Y-147967857D01*
X135142855Y-148158333D01*
X135142855Y-148396429D01*
X135190474Y-148586905D01*
X135238093Y-148682143D01*
X135285712Y-148729762D01*
X135380950Y-148777381D01*
X135476189Y-148777381D01*
X135571427Y-148729762D01*
X135619046Y-148682143D01*
X135666665Y-148586905D01*
X135714284Y-148396429D01*
X135714284Y-148158333D01*
X135666665Y-147967857D01*
X135619046Y-147872619D01*
X135571427Y-147825000D01*
X135476189Y-147777381D01*
D12*
X151270000Y-88890000D02*
X148730000Y-88890000D01*
X148730000Y-87110000D02*
X151270000Y-87110000D01*
X148730000Y-87110000D02*
X148730000Y-88890000D01*
X151270000Y-88890000D02*
X151270000Y-87110000D01*
X145110000Y-92270000D02*
X145110000Y-89730000D01*
X146890000Y-89730000D02*
X146890000Y-92270000D01*
X146890000Y-89730000D02*
X145110000Y-89730000D01*
X145110000Y-92270000D02*
X146890000Y-92270000D01*
X151270000Y-122890000D02*
X148730000Y-122890000D01*
X148730000Y-121110000D02*
X151270000Y-121110000D01*
X148730000Y-121110000D02*
X148730000Y-122890000D01*
X151270000Y-122890000D02*
X151270000Y-121110000D01*
D13*
G36*
X152281767Y-145885991D02*
X152199826Y-146103239D01*
X152081280Y-146438838D01*
X151933592Y-146871315D01*
X151764226Y-147379194D01*
X151609479Y-147852025D01*
X151401952Y-148496907D01*
X151245004Y-148999441D01*
X151134083Y-149377385D01*
X151064633Y-149648497D01*
X151032101Y-149830537D01*
X151031932Y-149941261D01*
X151059146Y-149998038D01*
X151154713Y-150067408D01*
X151364871Y-150209307D01*
X151665809Y-150408369D01*
X152033719Y-150649226D01*
X152444792Y-150916511D01*
X152875216Y-151194858D01*
X153301184Y-151468899D01*
X153698886Y-151723268D01*
X154044511Y-151942596D01*
X154314251Y-152111518D01*
X154484297Y-152214667D01*
X154532215Y-152239614D01*
X154607439Y-152194795D01*
X154804642Y-152070224D01*
X155103966Y-151878646D01*
X155485550Y-151632803D01*
X155929536Y-151345439D01*
X156247260Y-151139121D01*
X156725761Y-150826910D01*
X157158180Y-150542675D01*
X157523777Y-150300218D01*
X157801809Y-150113345D01*
X157971535Y-149995859D01*
X158013608Y-149963592D01*
X158005828Y-149869750D01*
X157960984Y-149680833D01*
X157647682Y-149680833D01*
X157572901Y-149790514D01*
X157350806Y-149978605D01*
X156983377Y-150243608D01*
X156472592Y-150584024D01*
X156356515Y-150659025D01*
X155066333Y-151489050D01*
X154875833Y-151268137D01*
X154746896Y-151099441D01*
X154692969Y-150995438D01*
X154346667Y-150995438D01*
X154293278Y-151117825D01*
X154165741Y-151280673D01*
X154099213Y-151353416D01*
X154040039Y-151401717D01*
X153967803Y-151416609D01*
X153862087Y-151389125D01*
X153702473Y-151310298D01*
X153468545Y-151171161D01*
X153139884Y-150962747D01*
X152696073Y-150676088D01*
X152499006Y-150548667D01*
X152011687Y-150223992D01*
X151660411Y-149967986D01*
X151449805Y-149784253D01*
X151384237Y-149680833D01*
X151406866Y-149555000D01*
X151432727Y-149532667D01*
X151555565Y-149553770D01*
X151794088Y-149608873D01*
X152101102Y-149685666D01*
X152429414Y-149771840D01*
X152731830Y-149855086D01*
X152961157Y-149923093D01*
X153054329Y-149955631D01*
X153226137Y-150052635D01*
X153461948Y-150215834D01*
X153725610Y-150416142D01*
X153980973Y-150624471D01*
X154191886Y-150811735D01*
X154322199Y-150948847D01*
X154346667Y-150995438D01*
X154692969Y-150995438D01*
X154686047Y-150982089D01*
X154685333Y-150975007D01*
X154746835Y-150898403D01*
X154907214Y-150749643D01*
X155130288Y-150558706D01*
X155379871Y-150355571D01*
X155619778Y-150170218D01*
X155813824Y-150032625D01*
X155851434Y-150008896D01*
X155981611Y-149956810D01*
X156228577Y-149877223D01*
X156544789Y-149783490D01*
X156882707Y-149688968D01*
X157194787Y-149607013D01*
X157433488Y-149550983D01*
X157542833Y-149533718D01*
X157631920Y-149602270D01*
X157647682Y-149680833D01*
X157960984Y-149680833D01*
X157951818Y-149642220D01*
X157872050Y-149351575D01*
X157547167Y-149351575D01*
X156730084Y-149547922D01*
X156330603Y-149650735D01*
X156032307Y-149752779D01*
X155773746Y-149883683D01*
X155493471Y-150073079D01*
X155235667Y-150268537D01*
X154949371Y-150488575D01*
X154717072Y-150664173D01*
X154568414Y-150773094D01*
X154530185Y-150797735D01*
X154455657Y-150751549D01*
X154278024Y-150623292D01*
X154027592Y-150435179D01*
X153852852Y-150301167D01*
X153523234Y-150056244D01*
X153250870Y-149887101D01*
X152973347Y-149763728D01*
X152628255Y-149656114D01*
X152371344Y-149588789D01*
X152020974Y-149497905D01*
X151738789Y-149420710D01*
X151560598Y-149367234D01*
X151517032Y-149349455D01*
X151530844Y-149259217D01*
X151590278Y-149041235D01*
X151685118Y-148726440D01*
X151805142Y-148345761D01*
X151940134Y-147930130D01*
X152079873Y-147510476D01*
X152214141Y-147117732D01*
X152332720Y-146782827D01*
X152425389Y-146536692D01*
X152481930Y-146410257D01*
X152491478Y-146400000D01*
X152574676Y-146452063D01*
X152761762Y-146595309D01*
X153028397Y-146810329D01*
X153350240Y-147077709D01*
X153500000Y-147204333D01*
X153838112Y-147488298D01*
X154131477Y-147728277D01*
X154355764Y-147904860D01*
X154486644Y-147998636D01*
X154508178Y-148008667D01*
X154591348Y-147956811D01*
X154778895Y-147814063D01*
X155046560Y-147599655D01*
X155370084Y-147332815D01*
X155528831Y-147199573D01*
X155868421Y-146920675D01*
X156163604Y-146692670D01*
X156390412Y-146532957D01*
X156524874Y-146458937D01*
X156549393Y-146458740D01*
X156594978Y-146557957D01*
X156683117Y-146790783D01*
X156803996Y-147129797D01*
X156947804Y-147547573D01*
X157079136Y-147939287D01*
X157547167Y-149351575D01*
X157872050Y-149351575D01*
X157859978Y-149307591D01*
X157738705Y-148892454D01*
X157596398Y-148423401D01*
X157441456Y-147927021D01*
X157282276Y-147429907D01*
X157127257Y-146958647D01*
X156984797Y-146539834D01*
X156863294Y-146200057D01*
X156771147Y-145965908D01*
X156719717Y-145866858D01*
X156638253Y-145896050D01*
X156452030Y-146019927D01*
X156183721Y-146221663D01*
X155856001Y-146484435D01*
X155608458Y-146691376D01*
X155253364Y-146990902D01*
X154944324Y-147247609D01*
X154703791Y-147443162D01*
X154554220Y-147559227D01*
X154516000Y-147583393D01*
X154440322Y-147531585D01*
X154258187Y-147388313D01*
X153992118Y-147171832D01*
X153664638Y-146900394D01*
X153420306Y-146695375D01*
X153063741Y-146397171D01*
X152752905Y-146141756D01*
X152510439Y-145947372D01*
X152358985Y-145832261D01*
X152319640Y-145808570D01*
X152281767Y-145885991D01*
X152281767Y-145885991D01*
G37*
X152281767Y-145885991D02*
X152199826Y-146103239D01*
X152081280Y-146438838D01*
X151933592Y-146871315D01*
X151764226Y-147379194D01*
X151609479Y-147852025D01*
X151401952Y-148496907D01*
X151245004Y-148999441D01*
X151134083Y-149377385D01*
X151064633Y-149648497D01*
X151032101Y-149830537D01*
X151031932Y-149941261D01*
X151059146Y-149998038D01*
X151154713Y-150067408D01*
X151364871Y-150209307D01*
X151665809Y-150408369D01*
X152033719Y-150649226D01*
X152444792Y-150916511D01*
X152875216Y-151194858D01*
X153301184Y-151468899D01*
X153698886Y-151723268D01*
X154044511Y-151942596D01*
X154314251Y-152111518D01*
X154484297Y-152214667D01*
X154532215Y-152239614D01*
X154607439Y-152194795D01*
X154804642Y-152070224D01*
X155103966Y-151878646D01*
X155485550Y-151632803D01*
X155929536Y-151345439D01*
X156247260Y-151139121D01*
X156725761Y-150826910D01*
X157158180Y-150542675D01*
X157523777Y-150300218D01*
X157801809Y-150113345D01*
X157971535Y-149995859D01*
X158013608Y-149963592D01*
X158005828Y-149869750D01*
X157960984Y-149680833D01*
X157647682Y-149680833D01*
X157572901Y-149790514D01*
X157350806Y-149978605D01*
X156983377Y-150243608D01*
X156472592Y-150584024D01*
X156356515Y-150659025D01*
X155066333Y-151489050D01*
X154875833Y-151268137D01*
X154746896Y-151099441D01*
X154692969Y-150995438D01*
X154346667Y-150995438D01*
X154293278Y-151117825D01*
X154165741Y-151280673D01*
X154099213Y-151353416D01*
X154040039Y-151401717D01*
X153967803Y-151416609D01*
X153862087Y-151389125D01*
X153702473Y-151310298D01*
X153468545Y-151171161D01*
X153139884Y-150962747D01*
X152696073Y-150676088D01*
X152499006Y-150548667D01*
X152011687Y-150223992D01*
X151660411Y-149967986D01*
X151449805Y-149784253D01*
X151384237Y-149680833D01*
X151406866Y-149555000D01*
X151432727Y-149532667D01*
X151555565Y-149553770D01*
X151794088Y-149608873D01*
X152101102Y-149685666D01*
X152429414Y-149771840D01*
X152731830Y-149855086D01*
X152961157Y-149923093D01*
X153054329Y-149955631D01*
X153226137Y-150052635D01*
X153461948Y-150215834D01*
X153725610Y-150416142D01*
X153980973Y-150624471D01*
X154191886Y-150811735D01*
X154322199Y-150948847D01*
X154346667Y-150995438D01*
X154692969Y-150995438D01*
X154686047Y-150982089D01*
X154685333Y-150975007D01*
X154746835Y-150898403D01*
X154907214Y-150749643D01*
X155130288Y-150558706D01*
X155379871Y-150355571D01*
X155619778Y-150170218D01*
X155813824Y-150032625D01*
X155851434Y-150008896D01*
X155981611Y-149956810D01*
X156228577Y-149877223D01*
X156544789Y-149783490D01*
X156882707Y-149688968D01*
X157194787Y-149607013D01*
X157433488Y-149550983D01*
X157542833Y-149533718D01*
X157631920Y-149602270D01*
X157647682Y-149680833D01*
X157960984Y-149680833D01*
X157951818Y-149642220D01*
X157872050Y-149351575D01*
X157547167Y-149351575D01*
X156730084Y-149547922D01*
X156330603Y-149650735D01*
X156032307Y-149752779D01*
X155773746Y-149883683D01*
X155493471Y-150073079D01*
X155235667Y-150268537D01*
X154949371Y-150488575D01*
X154717072Y-150664173D01*
X154568414Y-150773094D01*
X154530185Y-150797735D01*
X154455657Y-150751549D01*
X154278024Y-150623292D01*
X154027592Y-150435179D01*
X153852852Y-150301167D01*
X153523234Y-150056244D01*
X153250870Y-149887101D01*
X152973347Y-149763728D01*
X152628255Y-149656114D01*
X152371344Y-149588789D01*
X152020974Y-149497905D01*
X151738789Y-149420710D01*
X151560598Y-149367234D01*
X151517032Y-149349455D01*
X151530844Y-149259217D01*
X151590278Y-149041235D01*
X151685118Y-148726440D01*
X151805142Y-148345761D01*
X151940134Y-147930130D01*
X152079873Y-147510476D01*
X152214141Y-147117732D01*
X152332720Y-146782827D01*
X152425389Y-146536692D01*
X152481930Y-146410257D01*
X152491478Y-146400000D01*
X152574676Y-146452063D01*
X152761762Y-146595309D01*
X153028397Y-146810329D01*
X153350240Y-147077709D01*
X153500000Y-147204333D01*
X153838112Y-147488298D01*
X154131477Y-147728277D01*
X154355764Y-147904860D01*
X154486644Y-147998636D01*
X154508178Y-148008667D01*
X154591348Y-147956811D01*
X154778895Y-147814063D01*
X155046560Y-147599655D01*
X155370084Y-147332815D01*
X155528831Y-147199573D01*
X155868421Y-146920675D01*
X156163604Y-146692670D01*
X156390412Y-146532957D01*
X156524874Y-146458937D01*
X156549393Y-146458740D01*
X156594978Y-146557957D01*
X156683117Y-146790783D01*
X156803996Y-147129797D01*
X156947804Y-147547573D01*
X157079136Y-147939287D01*
X157547167Y-149351575D01*
X157872050Y-149351575D01*
X157859978Y-149307591D01*
X157738705Y-148892454D01*
X157596398Y-148423401D01*
X157441456Y-147927021D01*
X157282276Y-147429907D01*
X157127257Y-146958647D01*
X156984797Y-146539834D01*
X156863294Y-146200057D01*
X156771147Y-145965908D01*
X156719717Y-145866858D01*
X156638253Y-145896050D01*
X156452030Y-146019927D01*
X156183721Y-146221663D01*
X155856001Y-146484435D01*
X155608458Y-146691376D01*
X155253364Y-146990902D01*
X154944324Y-147247609D01*
X154703791Y-147443162D01*
X154554220Y-147559227D01*
X154516000Y-147583393D01*
X154440322Y-147531585D01*
X154258187Y-147388313D01*
X153992118Y-147171832D01*
X153664638Y-146900394D01*
X153420306Y-146695375D01*
X153063741Y-146397171D01*
X152752905Y-146141756D01*
X152510439Y-145947372D01*
X152358985Y-145832261D01*
X152319640Y-145808570D01*
X152281767Y-145885991D01*
G36*
X155803466Y-148398978D02*
X155604408Y-148526583D01*
X155402170Y-148689156D01*
X155248181Y-148845707D01*
X155193333Y-148948771D01*
X155265708Y-148998881D01*
X155439325Y-149016382D01*
X155648925Y-148999501D01*
X155786000Y-148964873D01*
X155939572Y-148875737D01*
X156102443Y-148746125D01*
X156226356Y-148598915D01*
X156215385Y-148484179D01*
X156197909Y-148460568D01*
X156036901Y-148362079D01*
X155947913Y-148347333D01*
X155803466Y-148398978D01*
X155803466Y-148398978D01*
G37*
X155803466Y-148398978D02*
X155604408Y-148526583D01*
X155402170Y-148689156D01*
X155248181Y-148845707D01*
X155193333Y-148948771D01*
X155265708Y-148998881D01*
X155439325Y-149016382D01*
X155648925Y-148999501D01*
X155786000Y-148964873D01*
X155939572Y-148875737D01*
X156102443Y-148746125D01*
X156226356Y-148598915D01*
X156215385Y-148484179D01*
X156197909Y-148460568D01*
X156036901Y-148362079D01*
X155947913Y-148347333D01*
X155803466Y-148398978D01*
G36*
X152923850Y-148433660D02*
X152833899Y-148536103D01*
X152889162Y-148684739D01*
X153092062Y-148852751D01*
X153307203Y-148952029D01*
X153536489Y-149012181D01*
X153728092Y-149025649D01*
X153830185Y-148984878D01*
X153835622Y-148961167D01*
X153784594Y-148859398D01*
X153662936Y-148690868D01*
X153636069Y-148657468D01*
X153393970Y-148458668D01*
X153155347Y-148403468D01*
X152923850Y-148433660D01*
X152923850Y-148433660D01*
G37*
X152923850Y-148433660D02*
X152833899Y-148536103D01*
X152889162Y-148684739D01*
X153092062Y-148852751D01*
X153307203Y-148952029D01*
X153536489Y-149012181D01*
X153728092Y-149025649D01*
X153830185Y-148984878D01*
X153835622Y-148961167D01*
X153784594Y-148859398D01*
X153662936Y-148690868D01*
X153636069Y-148657468D01*
X153393970Y-148458668D01*
X153155347Y-148403468D01*
X152923850Y-148433660D01*
D11*
X150833333Y-85672381D02*
X150833333Y-86386667D01*
X150880953Y-86529524D01*
X150976191Y-86624762D01*
X151119048Y-86672381D01*
X151214286Y-86672381D01*
X150357143Y-86672381D02*
X150357143Y-85672381D01*
X149976190Y-85672381D01*
X149880952Y-85720000D01*
X149833333Y-85767619D01*
X149785714Y-85862857D01*
X149785714Y-86005714D01*
X149833333Y-86100952D01*
X149880952Y-86148571D01*
X149976190Y-86196190D01*
X150357143Y-86196190D01*
X148833333Y-86672381D02*
X149404762Y-86672381D01*
X149119048Y-86672381D02*
X149119048Y-85672381D01*
X149214286Y-85815238D01*
X149309524Y-85910476D01*
X149404762Y-85958095D01*
X147232381Y-90166667D02*
X147946667Y-90166667D01*
X148089524Y-90119047D01*
X148184762Y-90023809D01*
X148232381Y-89880952D01*
X148232381Y-89785714D01*
X148232381Y-90642857D02*
X147232381Y-90642857D01*
X147232381Y-91023810D01*
X147280000Y-91119048D01*
X147327619Y-91166667D01*
X147422857Y-91214286D01*
X147565714Y-91214286D01*
X147660952Y-91166667D01*
X147708571Y-91119048D01*
X147756190Y-91023810D01*
X147756190Y-90642857D01*
X147327619Y-91595238D02*
X147280000Y-91642857D01*
X147232381Y-91738095D01*
X147232381Y-91976191D01*
X147280000Y-92071429D01*
X147327619Y-92119048D01*
X147422857Y-92166667D01*
X147518095Y-92166667D01*
X147660952Y-92119048D01*
X148232381Y-91547619D01*
X148232381Y-92166667D01*
X150833333Y-119672381D02*
X150833333Y-120386667D01*
X150880953Y-120529524D01*
X150976191Y-120624762D01*
X151119048Y-120672381D01*
X151214286Y-120672381D01*
X150357143Y-120672381D02*
X150357143Y-119672381D01*
X149976190Y-119672381D01*
X149880952Y-119720000D01*
X149833333Y-119767619D01*
X149785714Y-119862857D01*
X149785714Y-120005714D01*
X149833333Y-120100952D01*
X149880952Y-120148571D01*
X149976190Y-120196190D01*
X150357143Y-120196190D01*
X149452381Y-119672381D02*
X148833333Y-119672381D01*
X149166667Y-120053333D01*
X149023809Y-120053333D01*
X148928571Y-120100952D01*
X148880952Y-120148571D01*
X148833333Y-120243810D01*
X148833333Y-120481905D01*
X148880952Y-120577143D01*
X148928571Y-120624762D01*
X149023809Y-120672381D01*
X149309524Y-120672381D01*
X149404762Y-120624762D01*
X149452381Y-120577143D01*
M02*
