M48
METRIC,TZ
T1C0.400
T2C0.800
T3C1.000
%
G90
G05
T1
X112500Y-100000
X112500Y-137000
X119380Y-67395
X121000Y-103000
X122500Y-96500
X125000Y-75000
X127500Y-113000
X128500Y-111500
X129980Y-141000
X132500Y-111500
X135000Y-75000
X135000Y-96500
X135000Y-113000
X137500Y-103000
X140000Y-69500
X144000Y-105000
X150000Y-72500
X150000Y-137500
X153500Y-145750
T2
X103000Y-58000
X103000Y-62000
X103000Y-148000
X103000Y-152000
X113160Y-58000
X113160Y-62000
X113160Y-148000
X113160Y-152000
X149340Y-58000
X149340Y-148000
X149340Y-152000
X159500Y-58000
X159500Y-148000
X159500Y-152000
T3
X103620Y-84980
X103620Y-87520
X103620Y-90060
X103620Y-119940
X103620Y-122480
X103620Y-125020
X119820Y-58620
X119820Y-151380
X122360Y-58620
X122360Y-151380
X124900Y-58620
X124900Y-151380
X127440Y-58620
X127440Y-151380
X129980Y-58620
X129980Y-151380
X132520Y-58620
X132520Y-151380
X135060Y-58620
X135060Y-151380
X137600Y-58620
X137600Y-151380
X140140Y-58620
X140140Y-151380
X142680Y-58620
X142680Y-151380
X158880Y-84980
X158880Y-87520
X158880Y-90060
X158880Y-119940
X158880Y-122480
X158880Y-125020
T0
M30
