999
dxfrw 0.6.3
  0
SECTION
  2
HEADER
  9
$ACADVER
  1
AC1021
  9
$DWGCODEPAGE
  3
ANSI_1252
  9
$INSBASE
 10
0
 20
0
 30
0
  9
$EXTMIN
 10
-10
 20
-10
 30
0
  9
$EXTMAX
 10
510
 20
510
 30
0
  9
$LIMMIN
 10
0
 20
0
  9
$LIMMAX
 10
420
 20
297
  9
$ORTHOMODE
 70
    0
  9
$REGENMODE
 70
    1
  9
$FILLMODE
 70
    1
  9
$QTEXTMODE
 70
    0
  9
$MIRRTEXT
 70
    0
  9
$LTSCALE
 40
1
  9
$ATTMODE
 70
    0
  9
$TEXTSIZE
 40
2.5
  9
$TRACEWID
 40
15.68
  9
$TEXTSTYLE
  7
STANDARD
  9
$CLAYER
  8
Module_Names
  9
$CELTYPE
  6
BYLAYER
  9
$CECOLOR
 62
  256
  9
$CELTSCALE
 40
1
  9
$DISPSILH
 70
    0
  9
$DIMSCALE
 40
2.5
  9
$DIMASZ
 40
2.5
  9
$DIMEXO
 40
0.625
  9
$DIMDLI
 40
3.75
  9
$DIMRND
 40
0
  9
$DIMDLE
 40
0
  9
$DIMEXE
 40
1.25
  9
$DIMTP
 40
0
  9
$DIMTM
 40
0
  9
$DIMTXT
 40
2.5
  9
$DIMCEN
 40
2.5
  9
$DIMTSZ
 40
0
  9
$DIMTOL
 70
    0
  9
$DIMLIM
 70
    0
  9
$DIMTIH
 70
    0
  9
$DIMTOH
 70
    0
  9
$DIMSE1
 70
    0
  9
$DIMSE2
 70
    0
  9
$DIMTAD
 70
    1
  9
$DIMZIN
 70
    8
  9
$DIMBLK
  1

  9
$DIMASO
 70
    1
  9
$DIMSHO
 70
    1
  9
$DIMPOST
  1

  9
$DIMAPOST
  1

  9
$DIMALT
 70
    0
  9
$DIMALTD
 70
    3
  9
$DIMALTF
 40
0.03937
  9
$DIMLFAC
 40
1
  9
$DIMTOFL
 70
    1
  9
$DIMTVP
 40
0
  9
$DIMTIX
 70
    0
  9
$DIMSOXD
 70
    0
  9
$DIMSAH
 70
    0
  9
$DIMBLK1
  1

  9
$DIMBLK2
  1

  9
$DIMSTYLE
  2
STANDARD
  9
$DIMCLRD
 70
    0
  9
$DIMCLRE
 70
    0
  9
$DIMCLRT
 70
    0
  9
$DIMTFAC
 40
1
  9
$DIMGAP
 40
0.625
  9
$DIMJUST
 70
    0
  9
$DIMSD1
 70
    0
  9
$DIMSD2
 70
    0
  9
$DIMTOLJ
 70
    0
  9
$DIMTZIN
 70
    8
  9
$DIMALTZ
 70
    0
  9
$DIMALTTZ
 70
    0
  9
$DIMUPT
 70
    0
  9
$DIMDEC
 70
    2
  9
$DIMTDEC
 70
    2
  9
$DIMALTU
 70
    2
  9
$DIMALTTD
 70
    3
  9
$DIMTXSTY
  7
STANDARD
  9
$DIMAUNIT
 70
    0
  9
$DIMADEC
 70
    0
  9
$DIMALTRND
 40
0
  9
$DIMAZIN
 70
    0
  9
$DIMDSEP
 70
   44
  9
$DIMATFIT
 70
    3
  9
$DIMFRAC
 70
    0
  9
$DIMLDRBLK
  1
STANDARD
  9
$DIMLUNIT
 70
    2
  9
$DIMLWD
 70
   -2
  9
$DIMLWE
 70
   -2
  9
$DIMTMOVE
 70
    0
  9
$DIMFXL
 40
1
  9
$DIMFXLON
 70
    0
  9
$DIMJOGANG
 40
0.7854
  9
$DIMTFILL
 70
    0
  9
$DIMTFILLCLR
 70
    0
  9
$DIMARCSYM
 70
    0
  9
$DIMLTYPE
  6

  9
$DIMLTEX1
  6

  9
$DIMLTEX2
  6

  9
$LUNITS
 70
    2
  9
$LUPREC
 70
    4
  9
$SKETCHINC
 40
1
  9
$FILLETRAD
 40
0
  9
$AUNITS
 70
    0
  9
$AUPREC
 70
    2
  9
$MENU
  1
.
  9
$ELEVATION
 40
0
  9
$PELEVATION
 40
0
  9
$THICKNESS
 40
0
  9
$LIMCHECK
 70
    0
  9
$CHAMFERA
 40
0
  9
$CHAMFERB
 40
0
  9
$CHAMFERC
 40
0
  9
$CHAMFERD
 40
0
  9
$SKPOLY
 70
    0
  9
$USRTIMER
 70
    1
  9
$ANGBASE
 50
0
  9
$ANGDIR
 70
    0
  9
$PDMODE
 70
   34
  9
$PDSIZE
 40
0
  9
$PLINEWID
 40
0
  9
$SPLFRAME
 70
    0
  9
$SPLINETYPE
 70
    2
  9
$SPLINESEGS
 70
    8
  9
$HANDSEED
  5
20000
  9
$SURFTAB1
 70
    6
  9
$SURFTAB2
 70
    6
  9
$SURFTYPE
 70
    6
  9
$SURFU
 70
    6
  9
$SURFV
 70
    6
  9
$UCSBASE
  2

  9
$UCSNAME
  2

  9
$UCSORG
 10
0
 20
0
 30
0
  9
$UCSXDIR
 10
1
 20
0
 30
0
  9
$UCSYDIR
 10
0
 20
1
 30
0
  9
$UCSORTHOREF
  2

  9
$UCSORTHOVIEW
 70
    0
  9
$UCSORGTOP
 10
0
 20
0
 30
0
  9
$UCSORGBOTTOM
 10
0
 20
0
 30
0
  9
$UCSORGLEFT
 10
0
 20
0
 30
0
  9
$UCSORGRIGHT
 10
0
 20
0
 30
0
  9
$UCSORGFRONT
 10
0
 20
0
 30
0
  9
$UCSORGBACK
 10
0
 20
0
 30
0
  9
$PUCSBASE
  2

  9
$PUCSNAME
  2

  9
$PUCSORG
 10
0
 20
0
 30
0
  9
$PUCSXDIR
 10
1
 20
0
 30
0
  9
$PUCSYDIR
 10
0
 20
1
 30
0
  9
$PUCSORTHOREF
  2

  9
$PUCSORTHOVIEW
 70
    0
  9
$PUCSORGTOP
 10
0
 20
0
 30
0
  9
$PUCSORGBOTTOM
 10
0
 20
0
 30
0
  9
$PUCSORGLEFT
 10
0
 20
0
 30
0
  9
$PUCSORGRIGHT
 10
0
 20
0
 30
0
  9
$PUCSORGFRONT
 10
0
 20
0
 30
0
  9
$PUCSORGBACK
 10
0
 20
0
 30
0
  9
$USERI1
 70
    0
  9
$USERI2
 70
    0
  9
$USERI3
 70
    0
  9
$USERI4
 70
    0
  9
$USERI5
 70
    0
  9
$USERR1
 40
0
  9
$USERR2
 40
0
  9
$USERR3
 40
0
  9
$USERR4
 40
0
  9
$USERR5
 40
0
  9
$WORLDVIEW
 70
    1
  9
$SHADEDGE
 70
    3
  9
$SHADEDIF
 70
   70
  9
$TILEMODE
 70
    1
  9
$MAXACTVP
 70
   64
  9
$PINSBASE
 10
0
 20
0
 30
0
  9
$PLIMCHECK
 70
    0
  9
$PEXTMIN
 10
0
 20
0
 30
0
  9
$PEXTMAX
 10
0
 20
0
 30
0
  9
$GRIDMODE
 70
    1
  9
$SNAPSTYLE
 70
    0
  9
$PLIMMIN
 10
0
 20
0
  9
$PLIMMAX
 10
210
 20
297
  9
$UNITMODE
 70
    0
  9
$VISRETAIN
 70
    1
  9
$PLINEGEN
 70
    0
  9
$PSLTSCALE
 70
    1
  9
$TREEDEPTH
 70
 3020
  9
$CMLSTYLE
  2
Standard
  9
$CMLJUST
 70
    0
  9
$CMLSCALE
 40
20
  9
$PROXYGRAPHICS
 70
    1
  9
$MEASUREMENT
 70
    1
  9
$CELWEIGHT
370
   -1
  9
$ENDCAPS
280
    0
  9
$JOINSTYLE
280
    0
  9
$LWDISPLAY
290
    0
  9
$INSUNITS
 70
    4
  9
$HYPERLINKBASE
  1

  9
$STYLESHEET
  1

  9
$XEDIT
290
    1
  9
$CEPSNTYPE
380
    0
  9
$PSTYLEMODE
290
    1
  9
$EXTNAMES
290
    1
  9
$PSVPSCALE
 40
1
  9
$OLESTARTUP
290
    0
  9
$SORTENTS
280
  127
  9
$INDEXCTL
280
    0
  9
$HIDETEXT
280
    1
  9
$XCLIPFRAME
290
    0
  9
$HALOGAP
280
    0
  9
$OBSCOLOR
 70
  257
  9
$OBSLTYPE
280
    0
  9
$INTERSECTIONDISPLAY
280
    0
  9
$INTERSECTIONCOLOR
 70
  257
  9
$DIMASSOC
280
    1
  9
$PROJECTNAME
  1

  9
$CAMERADISPLAY
290
    0
  9
$LENSLENGTH
 40
50
  9
$CAMERAHEIGHT
 40
0
  9
$STEPSPERSEC
 40
2
  9
$STEPSIZE
 40
50
  9
$3DDWFPREC
 40
2
  9
$PSOLWIDTH
 40
5
  9
$PSOLHEIGHT
 40
80
  9
$LOFTANG1
 40
1.570796326794897
  9
$LOFTANG2
 40
1.570796326794897
  9
$LOFTMAG1
 40
0
  9
$LOFTMAG2
 40
0
  9
$LOFTPARAM
 70
    7
  9
$LOFTNORMALS
280
    1
  9
$LATITUDE
 40
1
  9
$LONGITUDE
 40
1
  9
$NORTHDIRECTION
 40
0
  9
$TIMEZONE
 70
-8000
  9
$LIGHTGLYPHDISPLAY
280
    1
  9
$TILEMODELIGHTSYNCH
280
    1
  9
$SOLIDHIST
280
    1
  9
$SHOWHIST
280
    1
  9
$DWFFRAME
280
    2
  9
$DGNFRAME
280
    0
  9
$REALWORLDSCALE
290
    1
  9
$INTERFERECOLOR
 62
    1
  9
$CSHADOW
280
    0
  9
$SHADOWPLANELOCATION
 40
0
  0
ENDSEC
  0
SECTION
  2
CLASSES
  0
ENDSEC
  0
SECTION
  2
TABLES
  0
TABLE
  2
VPORT
  5
8
330
0
100
AcDbSymbolTable
 70
    1
  0
VPORT
  5
31
330
2
100
AcDbSymbolTableRecord
100
AcDbViewportTableRecord
  2
*ACTIVE
 70
    0
 10
0
 20
0
 11
1
 21
1
 12
384.7349288296728
 22
266.3805963040802
 13
0
 23
0
 14
10
 24
10
 15
10
 25
10
 16
0
 26
0
 36
1
 17
0
 27
0
 37
0
 40
555.4318816553161
 41
1.897959183673469
 42
50
 43
0
 44
0
 50
0
 51
0
 71
    0
 72
  100
 73
    1
 74
    3
 75
    0
 76
    1
 77
    0
 78
    0
281
    0
 65
    1
110
0
120
0
130
0
111
1
121
0
131
0
112
0
122
1
132
0
 79
    0
146
0
348
10020
 60
    7
 61
    5
292
1
282
    1
141
0
142
0
 63
  250
421
3358443
  0
ENDTAB
  0
TABLE
  2
LTYPE
  5
5
330
0
100
AcDbSymbolTable
 70
    4
  0
LTYPE
  5
14
330
5
100
AcDbSymbolTableRecord
100
AcDbLinetypeTableRecord
  2
ByBlock
 70
    0
  3

 72
   65
 73
    0
 40
0
  0
LTYPE
  5
15
330
5
100
AcDbSymbolTableRecord
100
AcDbLinetypeTableRecord
  2
ByLayer
 70
    0
  3

 72
   65
 73
    0
 40
0
  0
LTYPE
  5
16
330
5
100
AcDbSymbolTableRecord
100
AcDbLinetypeTableRecord
  2
Continuous
 70
    0
  3
Solid line
 72
   65
 73
    0
 40
0
  0
LTYPE
  5
32
330
5
100
AcDbSymbolTableRecord
100
AcDbLinetypeTableRecord
  2
DOT
 70
    0
  3
Dot . . . . . . . . . . . . . . . . . . . . . .
 72
   65
 73
    2
 40
6.35
 49
0
 74
    0
 49
-6.35
 74
    0
  0
LTYPE
  5
33
330
5
100
AcDbSymbolTableRecord
100
AcDbLinetypeTableRecord
  2
DOTTINY
 70
    0
  3
Dot (.15x) .....................................
 72
   65
 73
    2
 40
0.9525
 49
0
 74
    0
 49
-0.9525
 74
    0
  0
LTYPE
  5
34
330
5
100
AcDbSymbolTableRecord
100
AcDbLinetypeTableRecord
  2
DOT2
 70
    0
  3
Dot (.5x) .....................................
 72
   65
 73
    2
 40
3.175
 49
0
 74
    0
 49
-3.175
 74
    0
  0
LTYPE
  5
35
330
5
100
AcDbSymbolTableRecord
100
AcDbLinetypeTableRecord
  2
DOTX2
 70
    0
  3
Dot (2x) .  .  .  .  .  .  .  .  .  .  .  .  .
 72
   65
 73
    2
 40
12.7
 49
0
 74
    0
 49
-12.7
 74
    0
  0
LTYPE
  5
36
330
5
100
AcDbSymbolTableRecord
100
AcDbLinetypeTableRecord
  2
DASHED
 70
    0
  3
Dashed _ _ _ _ _ _ _ _ _ _ _ _ _ _ _ _ _
 72
   65
 73
    2
 40
19.05
 49
12.7
 74
    0
 49
-6.35
 74
    0
  0
LTYPE
  5
37
330
5
100
AcDbSymbolTableRecord
100
AcDbLinetypeTableRecord
  2
DASHEDTINY
 70
    0
  3
Dashed (.15x) _ _ _ _ _ _ _ _ _ _ _ _ _ _ _ _ _
 72
   65
 73
    2
 40
2.8575
 49
1.905
 74
    0
 49
-0.9525
 74
    0
  0
LTYPE
  5
38
330
5
100
AcDbSymbolTableRecord
100
AcDbLinetypeTableRecord
  2
DASHED2
 70
    0
  3
Dashed (.5x) _ _ _ _ _ _ _ _ _ _ _ _ _ _ _ _ _
 72
   65
 73
    2
 40
9.524999999999999
 49
6.35
 74
    0
 49
-3.175
 74
    0
  0
LTYPE
  5
39
330
5
100
AcDbSymbolTableRecord
100
AcDbLinetypeTableRecord
  2
DASHEDX2
 70
    0
  3
Dashed (2x) ____  ____  ____  ____  ____  ___
 72
   65
 73
    2
 40
38.09999999999999
 49
25.4
 74
    0
 49
-12.7
 74
    0
  0
LTYPE
  5
3A
330
5
100
AcDbSymbolTableRecord
100
AcDbLinetypeTableRecord
  2
DASHDOT
 70
    0
  3
Dash dot __ . __ . __ . __ . __ . __ . __ . __
 72
   65
 73
    4
 40
25.4
 49
12.7
 74
    0
 49
-6.35
 74
    0
 49
0
 74
    0
 49
-6.35
 74
    0
  0
LTYPE
  5
3B
330
5
100
AcDbSymbolTableRecord
100
AcDbLinetypeTableRecord
  2
DASHDOTTINY
 70
    0
  3
Dash dot (.15x) _._._._._._._._._._._._._._._.
 72
   65
 73
    4
 40
3.81
 49
1.905
 74
    0
 49
-0.9525
 74
    0
 49
0
 74
    0
 49
-0.9525
 74
    0
  0
LTYPE
  5
3C
330
5
100
AcDbSymbolTableRecord
100
AcDbLinetypeTableRecord
  2
DASHDOT2
 70
    0
  3
Dash dot (.5x) _._._._._._._._._._._._._._._.
 72
   65
 73
    4
 40
12.7
 49
6.35
 74
    0
 49
-3.175
 74
    0
 49
0
 74
    0
 49
-3.175
 74
    0
  0
LTYPE
  5
3D
330
5
100
AcDbSymbolTableRecord
100
AcDbLinetypeTableRecord
  2
DASHDOTX2
 70
    0
  3
Dash dot (2x) ____  .  ____  .  ____  .  ___
 72
   65
 73
    4
 40
50.8
 49
25.4
 74
    0
 49
-12.7
 74
    0
 49
0
 74
    0
 49
-12.7
 74
    0
  0
LTYPE
  5
3E
330
5
100
AcDbSymbolTableRecord
100
AcDbLinetypeTableRecord
  2
DIVIDE
 70
    0
  3
Divide ____ . . ____ . . ____ . . ____ . . ____
 72
   65
 73
    6
 40
31.75
 49
12.7
 74
    0
 49
-6.35
 74
    0
 49
0
 74
    0
 49
-6.35
 74
    0
 49
0
 74
    0
 49
-6.35
 74
    0
  0
LTYPE
  5
3F
330
5
100
AcDbSymbolTableRecord
100
AcDbLinetypeTableRecord
  2
DIVIDETINY
 70
    0
  3
Divide (.15x) __..__..__..__..__..__..__..__.._
 72
   65
 73
    6
 40
4.7625
 49
1.905
 74
    0
 49
-0.9525
 74
    0
 49
0
 74
    0
 49
-0.9525
 74
    0
 49
0
 74
    0
 49
-0.9525
 74
    0
  0
LTYPE
  5
40
330
5
100
AcDbSymbolTableRecord
100
AcDbLinetypeTableRecord
  2
DIVIDE2
 70
    0
  3
Divide (.5x) __..__..__..__..__..__..__..__.._
 72
   65
 73
    6
 40
15.875
 49
6.35
 74
    0
 49
-3.175
 74
    0
 49
0
 74
    0
 49
-3.175
 74
    0
 49
0
 74
    0
 49
-3.175
 74
    0
  0
LTYPE
  5
41
330
5
100
AcDbSymbolTableRecord
100
AcDbLinetypeTableRecord
  2
DIVIDEX2
 70
    0
  3
Divide (2x) ________  .  .  ________  .  .  _
 72
   65
 73
    6
 40
63.5
 49
25.4
 74
    0
 49
-12.7
 74
    0
 49
0
 74
    0
 49
-12.7
 74
    0
 49
0
 74
    0
 49
-12.7
 74
    0
  0
LTYPE
  5
42
330
5
100
AcDbSymbolTableRecord
100
AcDbLinetypeTableRecord
  2
BORDER
 70
    0
  3
Border __ __ . __ __ . __ __ . __ __ . __ __ .
 72
   65
 73
    6
 40
44.45
 49
12.7
 74
    0
 49
-6.35
 74
    0
 49
12.7
 74
    0
 49
-6.35
 74
    0
 49
0
 74
    0
 49
-6.35
 74
    0
  0
LTYPE
  5
43
330
5
100
AcDbSymbolTableRecord
100
AcDbLinetypeTableRecord
  2
BORDERTINY
 70
    0
  3
Border (.15x) __.__.__.__.__.__.__.__.__.__.__.
 72
   65
 73
    6
 40
6.6675
 49
1.905
 74
    0
 49
-0.9525
 74
    0
 49
1.905
 74
    0
 49
-0.9525
 74
    0
 49
0
 74
    0
 49
-0.9525
 74
    0
  0
LTYPE
  5
44
330
5
100
AcDbSymbolTableRecord
100
AcDbLinetypeTableRecord
  2
BORDER2
 70
    0
  3
Border (.5x) __.__.__.__.__.__.__.__.__.__.__.
 72
   65
 73
    6
 40
22.225
 49
6.35
 74
    0
 49
-3.175
 74
    0
 49
6.35
 74
    0
 49
-3.175
 74
    0
 49
0
 74
    0
 49
-3.175
 74
    0
  0
LTYPE
  5
45
330
5
100
AcDbSymbolTableRecord
100
AcDbLinetypeTableRecord
  2
BORDERX2
 70
    0
  3
Border (2x) ____  ____  .  ____  ____  .  ___
 72
   65
 73
    6
 40
88.89999999999999
 49
25.4
 74
    0
 49
-12.7
 74
    0
 49
25.4
 74
    0
 49
-12.7
 74
    0
 49
0
 74
    0
 49
-12.7
 74
    0
  0
LTYPE
  5
46
330
5
100
AcDbSymbolTableRecord
100
AcDbLinetypeTableRecord
  2
CENTER
 70
    0
  3
Center ____ _ ____ _ ____ _ ____ _ ____ _ ____
 72
   65
 73
    4
 40
50.8
 49
31.75
 74
    0
 49
-6.35
 74
    0
 49
6.35
 74
    0
 49
-6.35
 74
    0
  0
LTYPE
  5
47
330
5
100
AcDbSymbolTableRecord
100
AcDbLinetypeTableRecord
  2
CENTERTINY
 70
    0
  3
Center (.15x) ___ _ ___ _ ___ _ ___ _ ___ _ ___
 72
   65
 73
    4
 40
7.619999999999999
 49
4.7625
 74
    0
 49
-0.9525
 74
    0
 49
0.9525
 74
    0
 49
-0.9525
 74
    0
  0
LTYPE
  5
48
330
5
100
AcDbSymbolTableRecord
100
AcDbLinetypeTableRecord
  2
CENTER2
 70
    0
  3
Center (.5x) ___ _ ___ _ ___ _ ___ _ ___ _ ___
 72
   65
 73
    4
 40
28.575
 49
19.05
 74
    0
 49
-3.175
 74
    0
 49
3.175
 74
    0
 49
-3.175
 74
    0
  0
LTYPE
  5
49
330
5
100
AcDbSymbolTableRecord
100
AcDbLinetypeTableRecord
  2
CENTERX2
 70
    0
  3
Center (2x) ________  __  ________  __  _____
 72
   65
 73
    4
 40
101.6
 49
63.5
 74
    0
 49
-12.7
 74
    0
 49
12.7
 74
    0
 49
-12.7
 74
    0
  0
ENDTAB
  0
TABLE
  2
LAYER
  5
2
330
0
100
AcDbSymbolTable
 70
    1
  0
LAYER
  5
10
330
2
100
AcDbSymbolTableRecord
100
AcDbLayerTableRecord
  2
0
 70
    0
 62
    7
  6
CONTINUOUS
370
    0
390
F
  0
LAYER
  5
4A
330
2
100
AcDbSymbolTableRecord
100
AcDbLayerTableRecord
  2
Digit
 70
    0
 62
    3
  6
CONTINUOUS
370
    0
390
F
  0
LAYER
  5
4B
330
2
100
AcDbSymbolTableRecord
100
AcDbLayerTableRecord
  2
Frame
 70
    4
 62
    7
  6
CONTINUOUS
370
    0
390
F
  0
LAYER
  5
4C
330
2
100
AcDbSymbolTableRecord
100
AcDbLayerTableRecord
  2
Module_Names
 70
    1
 62
    4
  6
CONTINUOUS
370
    0
390
F
  0
LAYER
  5
4D
330
2
100
AcDbSymbolTableRecord
100
AcDbLayerTableRecord
  2
PCBs
 70
    0
 62
  136
420
32896
  6
CONTINUOUS
370
    0
390
F
  0
LAYER
  5
4E
330
2
100
AcDbSymbolTableRecord
100
AcDbLayerTableRecord
  2
Pins
 70
    0
 62
    2
  6
CONTINUOUS
370
    0
390
F
  0
LAYER
  5
4F
330
2
100
AcDbSymbolTableRecord
100
AcDbLayerTableRecord
  2
Signals
 70
    1
 62
    1
  6
CONTINUOUS
370
    0
390
F
  0
LAYER
  5
50
330
2
100
AcDbSymbolTableRecord
100
AcDbLayerTableRecord
  2
help
 70
    1
 62
    7
  6
CONTINUOUS
370
    0
390
F
  0
ENDTAB
  0
TABLE
  2
STYLE
  5
3
330
0
100
AcDbSymbolTable
 70
    3
  0
STYLE
  5
51
330
2
100
AcDbSymbolTableRecord
100
AcDbTextStyleTableRecord
  2
standard
 70
    0
 40
0
 41
1
 50
0
 71
    0
 42
1
  3
standard
  4

  0
ENDTAB
  0
TABLE
  2
VIEW
  5
6
330
0
100
AcDbSymbolTable
 70
    0
  0
ENDTAB
  0
TABLE
  2
UCS
  5
7
330
0
100
AcDbSymbolTable
 70
    0
  0
ENDTAB
  0
TABLE
  2
APPID
  5
9
330
0
100
AcDbSymbolTable
 70
    1
  0
APPID
  5
12
330
9
100
AcDbSymbolTableRecord
100
AcDbRegAppTableRecord
  2
ACAD
 70
    0
  0
APPID
  5
52
330
9
100
AcDbSymbolTableRecord
100
AcDbRegAppTableRecord
  2
LibreCad
 70
    0
  0
ENDTAB
  0
TABLE
  2
DIMSTYLE
  5
A
330
0
100
AcDbSymbolTable
 70
    1
100
AcDbDimStyleTable
 71
    1
  0
DIMSTYLE
105
53
330
A
100
AcDbSymbolTableRecord
100
AcDbDimStyleTableRecord
  2
Standard
 70
    0
 40
2.5
 41
2.5
 42
0.625
 43
0.38
 44
1.25
 45
0
 46
0
 47
0
 48
0
 49
1
140
2.5
141
0.09
142
0
143
25.4
144
1
145
0
146
1
147
0.625
148
0
 71
    0
 72
    0
 73
    0
 74
    1
 75
    0
 76
    0
 77
    0
 78
    8
 79
    0
170
    0
171
    2
172
    0
173
    0
174
    0
175
    0
176
    0
177
    0
178
    0
179
    0
271
    2
272
    4
273
    2
274
    2
275
    0
276
    0
277
    2
278
   44
279
    0
280
    0
281
    0
282
    0
283
    1
284
    0
285
    0
286
    0
288
    0
289
    3
340
STANDARD
341

371
   -2
372
   -2
  0
ENDTAB
  0
TABLE
  2
BLOCK_RECORD
  5
1
330
0
100
AcDbSymbolTable
 70
    2
  0
BLOCK_RECORD
  5
1F
330
1
100
AcDbSymbolTableRecord
100
AcDbBlockTableRecord
  2
*Model_Space
 70
    0
280
    1
281
    0
  0
BLOCK_RECORD
  5
1E
330
1
100
AcDbSymbolTableRecord
100
AcDbBlockTableRecord
  2
*Paper_Space
 70
    0
280
    1
281
    0
  0
BLOCK_RECORD
  5
54
330
1
100
AcDbSymbolTableRecord
100
AcDbBlockTableRecord
  2
*D6
 70
    0
280
    1
281
    0
  0
BLOCK_RECORD
  5
57
330
1
100
AcDbSymbolTableRecord
100
AcDbBlockTableRecord
  2
*D1
 70
    0
280
    1
281
    0
  0
BLOCK_RECORD
  5
5A
330
1
100
AcDbSymbolTableRecord
100
AcDbBlockTableRecord
  2
*D3
 70
    0
280
    1
281
    0
  0
BLOCK_RECORD
  5
5D
330
1
100
AcDbSymbolTableRecord
100
AcDbBlockTableRecord
  2
*D2
 70
    0
280
    1
281
    0
  0
BLOCK_RECORD
  5
60
330
1
100
AcDbSymbolTableRecord
100
AcDbBlockTableRecord
  2
*D4
 70
    0
280
    1
281
    0
  0
BLOCK_RECORD
  5
63
330
1
100
AcDbSymbolTableRecord
100
AcDbBlockTableRecord
  2
*D5
 70
    0
280
    1
281
    0
  0
BLOCK_RECORD
  5
66
330
1
100
AcDbSymbolTableRecord
100
AcDbBlockTableRecord
  2
Digit
 70
    0
280
    1
281
    0
  0
BLOCK_RECORD
  5
69
330
1
100
AcDbSymbolTableRecord
100
AcDbBlockTableRecord
  2
pin_2
 70
    0
280
    1
281
    0
  0
BLOCK_RECORD
  5
6C
330
1
100
AcDbSymbolTableRecord
100
AcDbBlockTableRecord
  2
pin_10
 70
    0
280
    1
281
    0
  0
BLOCK_RECORD
  5
6F
330
1
100
AcDbSymbolTableRecord
100
AcDbBlockTableRecord
  2
pin_3
 70
    0
280
    1
281
    0
  0
ENDTAB
  0
ENDSEC
  0
SECTION
  2
BLOCKS
  0
BLOCK
  5
20
330
1F
100
AcDbEntity
  8
0
100
AcDbBlockBegin
  2
*Model_Space
 70
    0
 10
0
 20
0
 30
0
  3
*Model_Space
  1

  0
ENDBLK
  5
21
330
1F
100
AcDbEntity
  8
0
100
AcDbBlockEnd
  0
BLOCK
  5
1C
330
1B
100
AcDbEntity
  8
0
100
AcDbBlockBegin
  2
*Paper_Space
 70
    0
 10
0
 20
0
 30
0
  3
*Paper_Space
  1

  0
ENDBLK
  5
1D
330
1F
100
AcDbEntity
  8
0
100
AcDbBlockEnd
  0
BLOCK
  5
55
330
54
100
AcDbEntity
  8
0
100
AcDbBlockBegin
  2
*D6
 70
    1
 10
0
 20
0
  3
*D6
  1

  0
LINE
  5
72
100
AcDbEntity
  8
help
  6
ByBlock
 62
    0
370
   -2
100
AcDbLine
 10
168.75
 20
328.1249907905063
 11
211.43
 21
328.1249907905063
  0
SOLID
  5
73
100
AcDbEntity
  8
help
  6
ByBlock
 62
    0
370
   -2
100
AcDbTrace
 10
168.75
 20
328.1249907905063
 30
0
 11
175
 21
329.1657024349384
 31
0
 12
175
 22
327.0842791460742
 32
0
 13
175
 23
327.0842791460742
 33
0
  0
SOLID
  5
74
100
AcDbEntity
  8
help
  6
ByBlock
 62
    0
370
   -2
100
AcDbTrace
 10
211.43
 20
328.1249907905063
 30
0
 11
205.18
 21
327.0842791460742
 31
0
 12
205.18
 22
329.1657024349384
 32
0
 13
205.18
 23
329.1657024349384
 33
0
  0
MTEXT
  5
75
100
AcDbEntity
  8
help
  6
CONTINUOUS
 62
    0
370
   -2
100
AcDbMText
 10
190.09
 20
332.8124907905063
 30
0
 40
6.25
 41
20.4861111111115
 71
    5
 72
    1
  1
42,68
  7
STANDARD
210
0
220
0
230
1
 50
0
 73
    2
 44
1
  0
LINE
  5
76
100
AcDbEntity
  8
help
  6
ByBlock
 62
    0
370
   -2
100
AcDbLine
 10
168.75
 20
301.5625
 11
168.75
 21
331.2499907905063
  0
LINE
  5
77
100
AcDbEntity
  8
help
  6
ByBlock
 62
    0
370
   -2
100
AcDbLine
 10
211.43
 20
299.2125
 11
211.43
 21
331.2499907905063
  0
ENDBLK
  5
56
330
54
100
AcDbEntity
  8
0
100
AcDbBlockEnd
  0
BLOCK
  5
58
330
57
100
AcDbEntity
  8
0
100
AcDbBlockBegin
  2
*D1
 70
    1
 10
0
 20
0
  3
*D1
  1

  0
LINE
  5
78
100
AcDbEntity
  8
help
  6
ByBlock
 62
    0
370
   -2
100
AcDbLine
 10
597.5
 20
225
 11
633.5
 21
225
  0
SOLID
  5
79
100
AcDbEntity
  8
help
  6
ByBlock
 62
    0
370
   -2
100
AcDbTrace
 10
610
 20
225
 30
0
 11
603.75
 21
223.9592883555679
 31
0
 12
603.75
 22
226.0407116444321
 32
0
 13
603.75
 23
226.0407116444321
 33
0
  0
SOLID
  5
7A
100
AcDbEntity
  8
help
  6
ByBlock
 62
    0
370
   -2
100
AcDbTrace
 10
621
 20
225
 30
0
 11
627.25
 21
226.0407116444321
 31
0
 12
627.25
 22
223.9592883555679
 32
0
 13
627.25
 23
223.9592883555679
 33
0
  0
MTEXT
  5
7B
100
AcDbEntity
  8
help
  6
CONTINUOUS
 62
    0
370
   -2
100
AcDbMText
 10
615.5
 20
229.6875
 30
0
 40
6.25
 41
4.861111111111111
 71
    5
 72
    1
  1
11
  7
STANDARD
210
0
220
0
230
1
 50
0
 73
    2
 44
1
  0
LINE
  5
7C
100
AcDbEntity
  8
help
  6
ByBlock
 62
    0
370
   -2
100
AcDbLine
 10
610
 20
221.5625
 11
610
 21
228.125
  0
LINE
  5
7D
100
AcDbEntity
  8
help
  6
ByBlock
 62
    0
370
   -2
100
AcDbLine
 10
621
 20
221.5625
 11
621
 21
228.125
  0
ENDBLK
  5
59
330
57
100
AcDbEntity
  8
0
100
AcDbBlockEnd
  0
BLOCK
  5
5B
330
5A
100
AcDbEntity
  8
0
100
AcDbBlockBegin
  2
*D3
 70
    1
 10
0
 20
0
  3
*D3
  1

  0
LINE
  5
7E
100
AcDbEntity
  8
help
  6
ByBlock
 62
    0
370
   -2
100
AcDbLine
 10
268.75
 20
420
 11
399.9999999999999
 21
420
  0
SOLID
  5
7F
100
AcDbEntity
  8
help
  6
ByBlock
 62
    0
370
   -2
100
AcDbTrace
 10
268.75
 20
420
 30
0
 11
275
 21
421.0407116444321
 31
0
 12
275
 22
418.9592883555679
 32
0
 13
275
 23
418.9592883555679
 33
0
  0
SOLID
  5
80
100
AcDbEntity
  8
help
  6
ByBlock
 62
    0
370
   -2
100
AcDbTrace
 10
399.9999999999999
 20
420
 30
0
 11
393.7499999999999
 21
418.9592883555679
 31
0
 12
393.7499999999999
 22
421.0407116444321
 32
0
 13
393.7499999999999
 23
421.0407116444321
 33
0
  0
MTEXT
  5
81
100
AcDbEntity
  8
help
  6
CONTINUOUS
 62
    0
370
   -2
100
AcDbMText
 10
334.3749999999999
 20
424.6875
 30
0
 40
6.25
 41
21.87500000000077
 71
    5
 72
    1
  1
131,25
  7
STANDARD
210
0
220
0
230
1
 50
0
 73
    2
 44
1
  0
LINE
  5
82
100
AcDbEntity
  8
help
  6
ByBlock
 62
    0
370
   -2
100
AcDbLine
 10
268.75
 20
351.5625
 11
268.75
 21
423.125
  0
LINE
  5
83
100
AcDbEntity
  8
help
  6
ByBlock
 62
    0
370
   -2
100
AcDbLine
 10
399.9999999999999
 20
351.5625
 11
399.9999999999999
 21
423.125
  0
ENDBLK
  5
5C
330
5A
100
AcDbEntity
  8
0
100
AcDbBlockEnd
  0
BLOCK
  5
5E
330
5D
100
AcDbEntity
  8
0
100
AcDbBlockBegin
  2
*D2
 70
    1
 10
0
 20
0
  3
*D2
  1

  0
LINE
  5
84
100
AcDbEntity
  8
help
  6
ByBlock
 62
    0
370
   -2
100
AcDbLine
 10
100
 20
420
 11
262.5
 21
420
  0
SOLID
  5
85
100
AcDbEntity
  8
help
  6
ByBlock
 62
    0
370
   -2
100
AcDbTrace
 10
100
 20
420
 30
0
 11
106.25
 21
421.0407116444321
 31
0
 12
106.25
 22
418.9592883555679
 32
0
 13
106.25
 23
418.9592883555679
 33
0
  0
SOLID
  5
86
100
AcDbEntity
  8
help
  6
ByBlock
 62
    0
370
   -2
100
AcDbTrace
 10
262.5
 20
420
 30
0
 11
256.25
 21
418.9592883555679
 31
0
 12
256.25
 22
421.0407116444321
 32
0
 13
256.25
 23
421.0407116444321
 33
0
  0
MTEXT
  5
87
100
AcDbEntity
  8
help
  6
CONTINUOUS
 62
    0
370
   -2
100
AcDbMText
 10
181.25
 20
424.6875
 30
0
 40
6.25
 41
18.40277777777855
 71
    5
 72
    1
  1
162,5
  7
STANDARD
210
0
220
0
230
1
 50
0
 73
    2
 44
1
  0
LINE
  5
88
100
AcDbEntity
  8
help
  6
ByBlock
 62
    0
370
   -2
100
AcDbLine
 10
100
 20
351.5625
 11
100
 21
423.125
  0
LINE
  5
89
100
AcDbEntity
  8
help
  6
ByBlock
 62
    0
370
   -2
100
AcDbLine
 10
262.5
 20
351.5625
 11
262.5
 21
423.125
  0
ENDBLK
  5
5F
330
5D
100
AcDbEntity
  8
0
100
AcDbBlockEnd
  0
BLOCK
  5
61
330
60
100
AcDbEntity
  8
0
100
AcDbBlockBegin
  2
*D4
 70
    1
 10
0
 20
0
  3
*D4
  1

  0
LINE
  5
8A
100
AcDbEntity
  8
help
  6
ByBlock
 62
    0
370
   -2
100
AcDbLine
 10
70
 20
300
 11
70
 21
270.02
  0
SOLID
  5
8B
100
AcDbEntity
  8
help
  6
ByBlock
 62
    0
370
   -2
100
AcDbTrace
 10
70
 20
300
 30
0
 11
71.04071164443211
 21
293.75
 31
0
 12
68.95928835556789
 22
293.75
 32
0
 13
68.95928835556789
 23
293.75
 33
0
  0
SOLID
  5
8C
100
AcDbEntity
  8
help
  6
ByBlock
 62
    0
370
   -2
100
AcDbTrace
 10
70
 20
270.02
 30
0
 11
68.95928835556791
 21
276.27
 31
0
 12
71.04071164443211
 22
276.27
 32
0
 13
71.04071164443211
 23
276.27
 33
0
  0
MTEXT
  5
8D
100
AcDbEntity
  8
help
  6
CONTINUOUS
 62
    0
370
   -2
100
AcDbMText
 10
65.3125
 20
285.01
 30
0
 40
6.25
 41
19.79166666666666
 71
    5
 72
    1
  1
29,98
  7
STANDARD
210
0
220
0
230
1
 50
90
 73
    2
 44
1
  0
LINE
  5
8E
100
AcDbEntity
  8
help
  6
ByBlock
 62
    0
370
   -2
100
AcDbLine
 10
98.4375
 20
300
 11
66.875
 21
300
  0
LINE
  5
8F
100
AcDbEntity
  8
help
  6
ByBlock
 62
    0
370
   -2
100
AcDbLine
 10
102.0575
 20
270.02
 11
66.875
 21
270.02
  0
ENDBLK
  5
62
330
60
100
AcDbEntity
  8
0
100
AcDbBlockEnd
  0
BLOCK
  5
64
330
63
100
AcDbEntity
  8
0
100
AcDbBlockBegin
  2
*D5
 70
    1
 10
0
 20
0
  3
*D5
  1

  0
LINE
  5
90
100
AcDbEntity
  8
help
  6
ByBlock
 62
    0
370
   -2
100
AcDbLine
 10
30
 20
300
 11
30
 21
203.62
  0
SOLID
  5
91
100
AcDbEntity
  8
help
  6
ByBlock
 62
    0
370
   -2
100
AcDbTrace
 10
30
 20
300
 30
0
 11
31.0407116444321
 21
293.75
 31
0
 12
28.9592883555679
 22
293.75
 32
0
 13
28.9592883555679
 23
293.75
 33
0
  0
SOLID
  5
92
100
AcDbEntity
  8
help
  6
ByBlock
 62
    0
370
   -2
100
AcDbTrace
 10
30
 20
203.62
 30
0
 11
28.9592883555679
 21
209.87
 31
0
 12
31.0407116444321
 22
209.87
 32
0
 13
31.0407116444321
 23
209.87
 33
0
  0
MTEXT
  5
93
100
AcDbEntity
  8
help
  6
CONTINUOUS
 62
    0
370
   -2
100
AcDbMText
 10
25.3125
 20
251.81
 30
0
 40
6.25
 41
19.79166666666783
 71
    5
 72
    1
  1
96,38
  7
STANDARD
210
0
220
0
230
1
 50
90
 73
    2
 44
1
  0
LINE
  5
94
100
AcDbEntity
  8
help
  6
ByBlock
 62
    0
370
   -2
100
AcDbLine
 10
98.4375
 20
300
 11
26.875
 21
300
  0
LINE
  5
95
100
AcDbEntity
  8
help
  6
ByBlock
 62
    0
370
   -2
100
AcDbLine
 10
116.9875
 20
203.62
 11
26.875
 21
203.62
  0
ENDBLK
  5
65
330
63
100
AcDbEntity
  8
0
100
AcDbBlockEnd
  0
BLOCK
  5
67
330
66
100
AcDbEntity
  8
0
100
AcDbBlockBegin
  2
Digit
 70
    0
 10
0
 20
0
  3
Digit
  1

  0
LINE
  5
96
100
AcDbEntity
  8
Digit
  6
ByLayer
 62
  256
370
   -1
100
AcDbLine
 10
-15
 20
28.5857864376269
 11
-11
 21
24.58578643762691
  0
LINE
  5
97
100
AcDbEntity
  8
Digit
  6
ByLayer
 62
  256
370
   -1
100
AcDbLine
 10
-19
 20
24.5857864376269
 11
-15
 21
28.5857864376269
  0
LINE
  5
98
100
AcDbEntity
  8
Digit
  6
ByLayer
 62
  256
370
   -1
100
AcDbLine
 10
-19
 20
5.414213562373093
 11
-19
 21
24.5857864376269
  0
LINE
  5
99
100
AcDbEntity
  8
Digit
  6
ByLayer
 62
  256
370
   -1
100
AcDbLine
 10
-15
 20
1.414213562373096
 11
-19
 21
5.414213562373093
  0
LINE
  5
9A
100
AcDbEntity
  8
Digit
  6
ByLayer
 62
  256
370
   -1
100
AcDbLine
 10
-15
 20
1.414213562373096
 11
-11
 21
5.414213562373097
  0
LINE
  5
9B
100
AcDbEntity
  8
Digit
  6
ByLayer
 62
  256
370
   -1
100
AcDbLine
 10
-11
 20
24.58578643762691
 11
-11
 21
5.414213562373097
  0
LINE
  5
9C
100
AcDbEntity
  8
Digit
  6
ByLayer
 62
  256
370
   -1
100
AcDbLine
 10
-13.5857864376269
 20
0
 11
-9.585786437626902
 21
4
  0
LINE
  5
9D
100
AcDbEntity
  8
Digit
  6
ByLayer
 62
  256
370
   -1
100
AcDbLine
 10
-9.585786437626904
 20
-4
 11
-13.5857864376269
 21
0
  0
LINE
  5
9E
100
AcDbEntity
  8
Digit
  6
ByLayer
 62
  256
370
   -1
100
AcDbLine
 10
9.585786437626904
 20
-4
 11
-9.585786437626904
 21
-4
  0
LINE
  5
9F
100
AcDbEntity
  8
Digit
  6
ByLayer
 62
  256
370
   -1
100
AcDbLine
 10
-9.585786437626902
 20
4
 11
9.585786437626904
 21
4
  0
LINE
  5
A0
100
AcDbEntity
  8
Digit
  6
ByLayer
 62
  256
370
   -1
100
AcDbLine
 10
13.5857864376269
 20
-7.547552762134168e-16
 11
9.585786437626904
 21
-4
  0
LINE
  5
A1
100
AcDbEntity
  8
Digit
  6
ByLayer
 62
  256
370
   -1
100
AcDbLine
 10
9.585786437626904
 20
4
 11
13.5857864376269
 21
-7.547552762134168e-16
  0
LINE
  5
A2
100
AcDbEntity
  8
Digit
  6
ByLayer
 62
  256
370
   -1
100
AcDbLine
 10
-21
 20
25.41421356237309
 11
-15.70710678118655
 21
30.70710678118655
  0
LINE
  5
A3
100
AcDbEntity
  8
Digit
  6
ByLayer
 62
  256
370
   -1
100
AcDbLine
 10
-21
 20
4.585786437626903
 11
-21
 21
25.41421356237309
  0
LINE
  5
A4
100
AcDbEntity
  8
Digit
  6
ByLayer
 62
  256
370
   -1
100
AcDbLine
 10
-13.5857864376269
 20
30
 11
-9.585786437626908
 21
26
  0
LINE
  5
A5
100
AcDbEntity
  8
Digit
  6
ByLayer
 62
  256
370
   -1
100
AcDbLine
 10
-9.585786437626904
 20
34
 11
-13.5857864376269
 21
30
  0
LINE
  5
A6
100
AcDbEntity
  8
Digit
  6
ByLayer
 62
  256
370
   -1
100
AcDbLine
 10
9.585786437626908
 20
34
 11
-9.585786437626904
 21
34
  0
LINE
  5
A7
100
AcDbEntity
  8
Digit
  6
ByLayer
 62
  256
370
   -1
100
AcDbLine
 10
13.5857864376269
 20
30
 11
9.585786437626908
 21
34
  0
LINE
  5
A8
100
AcDbEntity
  8
Digit
  6
ByLayer
 62
  256
370
   -1
100
AcDbLine
 10
13.5857864376269
 20
30
 11
9.585786437626904
 21
26
  0
LINE
  5
A9
100
AcDbEntity
  8
Digit
  6
ByLayer
 62
  256
370
   -1
100
AcDbLine
 10
-9.585786437626908
 20
26
 11
9.585786437626904
 21
26
  0
LINE
  5
AA
100
AcDbEntity
  8
Digit
  6
ByLayer
 62
  256
370
   -1
100
AcDbLine
 10
15
 20
28.5857864376269
 11
11
 21
24.5857864376269
  0
LINE
  5
AB
100
AcDbEntity
  8
Digit
  6
ByLayer
 62
  256
370
   -1
100
AcDbLine
 10
19
 20
24.5857864376269
 11
15
 21
28.5857864376269
  0
LINE
  5
AC
100
AcDbEntity
  8
Digit
  6
ByLayer
 62
  256
370
   -1
100
AcDbLine
 10
19
 20
5.414213562373099
 11
19
 21
24.5857864376269
  0
LINE
  5
AD
100
AcDbEntity
  8
Digit
  6
ByLayer
 62
  256
370
   -1
100
AcDbLine
 10
11
 20
24.5857864376269
 11
11
 21
5.414213562373099
  0
LINE
  5
AE
100
AcDbEntity
  8
Digit
  6
ByLayer
 62
  256
370
   -1
100
AcDbLine
 10
15
 20
1.4142135623731
 11
19
 21
5.414213562373099
  0
LINE
  5
AF
100
AcDbEntity
  8
Digit
  6
ByLayer
 62
  256
370
   -1
100
AcDbLine
 10
11
 20
5.414213562373099
 11
15
 21
1.4142135623731
  0
LINE
  5
B0
100
AcDbEntity
  8
Digit
  6
ByLayer
 62
  256
370
   -1
100
AcDbLine
 10
-10.41421356237309
 20
36
 11
-15.70710678118654
 21
30.70710678118655
  0
LINE
  5
B1
100
AcDbEntity
  8
Digit
  6
ByLayer
 62
  256
370
   -1
100
AcDbLine
 10
10.4142135623731
 20
36.00000000000001
 11
-10.41421356237309
 21
36
  0
LINE
  5
B2
100
AcDbEntity
  8
Digit
  6
ByLayer
 62
  256
370
   -1
100
AcDbLine
 10
15.70710678118655
 20
30.70710678118655
 11
10.4142135623731
 21
36.00000000000001
  0
LINE
  5
B3
100
AcDbEntity
  8
Digit
  6
ByLayer
 62
  256
370
   -1
100
AcDbLine
 10
21
 20
25.4142135623731
 11
15.70710678118654
 21
30.70710678118655
  0
LINE
  5
B4
100
AcDbEntity
  8
Digit
  6
ByLayer
 62
  256
370
   -1
100
AcDbLine
 10
21
 20
4.585786437626912
 11
21
 21
25.4142135623731
  0
LINE
  5
B5
100
AcDbEntity
  8
Digit
  6
ByLayer
 62
  256
370
   -1
100
AcDbLine
 10
-9
 20
24
 11
9
 21
24
  0
LINE
  5
B6
100
AcDbEntity
  8
Digit
  6
ByLayer
 62
  256
370
   -1
100
AcDbLine
 10
-9
 20
24
 11
-9
 21
6
  0
LINE
  5
B7
100
AcDbEntity
  8
Digit
  6
ByLayer
 62
  256
370
   -1
100
AcDbLine
 10
9
 20
24
 11
9.000000000000009
 21
6
  0
LINE
  5
B8
100
AcDbEntity
  8
Digit
  6
ByLayer
 62
  256
370
   -1
100
AcDbLine
 10
-9
 20
6
 11
9.000000000000009
 21
6
  0
LINE
  5
B9
100
AcDbEntity
  8
Digit
  6
ByLayer
 62
  256
370
   -1
100
AcDbLine
 10
-15
 20
-28.5857864376269
 11
-11
 21
-24.58578643762691
  0
LINE
  5
BA
100
AcDbEntity
  8
Digit
  6
ByLayer
 62
  256
370
   -1
100
AcDbLine
 10
-19
 20
-24.5857864376269
 11
-15
 21
-28.5857864376269
  0
LINE
  5
BB
100
AcDbEntity
  8
Digit
  6
ByLayer
 62
  256
370
   -1
100
AcDbLine
 10
-19
 20
-5.414213562373093
 11
-19
 21
-24.5857864376269
  0
LINE
  5
BC
100
AcDbEntity
  8
Digit
  6
ByLayer
 62
  256
370
   -1
100
AcDbLine
 10
-15
 20
-1.414213562373096
 11
-19
 21
-5.414213562373093
  0
LINE
  5
BD
100
AcDbEntity
  8
Digit
  6
ByLayer
 62
  256
370
   -1
100
AcDbLine
 10
-15
 20
-1.414213562373096
 11
-11
 21
-5.414213562373097
  0
LINE
  5
BE
100
AcDbEntity
  8
Digit
  6
ByLayer
 62
  256
370
   -1
100
AcDbLine
 10
-11
 20
-24.58578643762691
 11
-11
 21
-5.414213562373097
  0
LINE
  5
BF
100
AcDbEntity
  8
Digit
  6
ByLayer
 62
  256
370
   -1
100
AcDbLine
 10
-21
 20
-25.41421356237309
 11
-15.70710678118655
 21
-30.70710678118655
  0
LINE
  5
C0
100
AcDbEntity
  8
Digit
  6
ByLayer
 62
  256
370
   -1
100
AcDbLine
 10
-21
 20
-4.585786437626902
 11
-21
 21
-25.41421356237309
  0
LINE
  5
C1
100
AcDbEntity
  8
Digit
  6
ByLayer
 62
  256
370
   -1
100
AcDbLine
 10
-13.58578643762691
 20
-30
 11
-9.585786437626908
 21
-26
  0
LINE
  5
C2
100
AcDbEntity
  8
Digit
  6
ByLayer
 62
  256
370
   -1
100
AcDbLine
 10
-9.585786437626904
 20
-34
 11
-13.58578643762691
 21
-30
  0
LINE
  5
C3
100
AcDbEntity
  8
Digit
  6
ByLayer
 62
  256
370
   -1
100
AcDbLine
 10
9.585786437626908
 20
-34
 11
-9.585786437626904
 21
-34
  0
LINE
  5
C4
100
AcDbEntity
  8
Digit
  6
ByLayer
 62
  256
370
   -1
100
AcDbLine
 10
13.5857864376269
 20
-30
 11
9.585786437626908
 21
-34
  0
LINE
  5
C5
100
AcDbEntity
  8
Digit
  6
ByLayer
 62
  256
370
   -1
100
AcDbLine
 10
13.5857864376269
 20
-30
 11
9.585786437626911
 21
-26
  0
LINE
  5
C6
100
AcDbEntity
  8
Digit
  6
ByLayer
 62
  256
370
   -1
100
AcDbLine
 10
-9.585786437626908
 20
-26
 11
9.585786437626911
 21
-26
  0
LINE
  5
C7
100
AcDbEntity
  8
Digit
  6
ByLayer
 62
  256
370
   -1
100
AcDbLine
 10
15
 20
-28.58578643762691
 11
10.99999999999999
 21
-24.5857864376269
  0
LINE
  5
C8
100
AcDbEntity
  8
Digit
  6
ByLayer
 62
  256
370
   -1
100
AcDbLine
 10
19.00000000000001
 20
-24.58578643762691
 11
15
 21
-28.58578643762691
  0
LINE
  5
C9
100
AcDbEntity
  8
Digit
  6
ByLayer
 62
  256
370
   -1
100
AcDbLine
 10
19
 20
-5.414213562373101
 11
19.00000000000001
 21
-24.58578643762691
  0
LINE
  5
CA
100
AcDbEntity
  8
Digit
  6
ByLayer
 62
  256
370
   -1
100
AcDbLine
 10
10.99999999999999
 20
-24.5857864376269
 11
11
 21
-5.414213562373101
  0
LINE
  5
CB
100
AcDbEntity
  8
Digit
  6
ByLayer
 62
  256
370
   -1
100
AcDbLine
 10
15
 20
-1.414213562373102
 11
19
 21
-5.414213562373101
  0
LINE
  5
CC
100
AcDbEntity
  8
Digit
  6
ByLayer
 62
  256
370
   -1
100
AcDbLine
 10
11
 20
-5.414213562373101
 11
15
 21
-1.414213562373102
  0
LINE
  5
CD
100
AcDbEntity
  8
Digit
  6
ByLayer
 62
  256
370
   -1
100
AcDbLine
 10
-10.4142135623731
 20
-36
 11
-15.70710678118655
 21
-30.70710678118655
  0
LINE
  5
CE
100
AcDbEntity
  8
Digit
  6
ByLayer
 62
  256
370
   -1
100
AcDbLine
 10
10.4142135623731
 20
-36.00000000000001
 11
-10.4142135623731
 21
-36
  0
LINE
  5
CF
100
AcDbEntity
  8
Digit
  6
ByLayer
 62
  256
370
   -1
100
AcDbLine
 10
15.70710678118654
 20
-30.70710678118655
 11
10.4142135623731
 21
-36.00000000000001
  0
LINE
  5
D0
100
AcDbEntity
  8
Digit
  6
ByLayer
 62
  256
370
   -1
100
AcDbLine
 10
21.00000000000001
 20
-25.4142135623731
 11
15.70710678118654
 21
-30.70710678118656
  0
LINE
  5
D1
100
AcDbEntity
  8
Digit
  6
ByLayer
 62
  256
370
   -1
100
AcDbLine
 10
21
 20
-4.585786437626915
 11
21.00000000000001
 21
-25.4142135623731
  0
LINE
  5
D2
100
AcDbEntity
  8
Digit
  6
ByLayer
 62
  256
370
   -1
100
AcDbLine
 10
-9
 20
-24
 11
9
 21
-24
  0
LINE
  5
D3
100
AcDbEntity
  8
Digit
  6
ByLayer
 62
  256
370
   -1
100
AcDbLine
 10
-9
 20
-24
 11
-9
 21
-6
  0
LINE
  5
D4
100
AcDbEntity
  8
Digit
  6
ByLayer
 62
  256
370
   -1
100
AcDbLine
 10
9
 20
-24
 11
9.000000000000012
 21
-6.000000000000002
  0
LINE
  5
D5
100
AcDbEntity
  8
Digit
  6
ByLayer
 62
  256
370
   -1
100
AcDbLine
 10
-9
 20
-6
 11
9.000000000000012
 21
-6.000000000000002
  0
LINE
  5
D6
100
AcDbEntity
  8
Digit
  6
ByLayer
 62
  256
370
   -1
100
AcDbLine
 10
-16.4142135623731
 20
1.342446760940679e-15
 11
-21
 21
4.585786437626903
  0
LINE
  5
D7
100
AcDbEntity
  8
Digit
  6
ByLayer
 62
  256
370
   -1
100
AcDbLine
 10
-16.4142135623731
 20
1.342446760940679e-15
 11
-21
 21
-4.585786437626902
  0
LINE
  5
D8
100
AcDbEntity
  8
Digit
  6
ByLayer
 62
  256
370
   -1
100
AcDbLine
 10
16.4142135623731
 20
-1.342446760940679e-15
 11
21
 21
4.585786437626912
  0
LINE
  5
D9
100
AcDbEntity
  8
Digit
  6
ByLayer
 62
  256
370
   -1
100
AcDbLine
 10
16.4142135623731
 20
-1.342446760940679e-15
 11
21
 21
-4.585786437626915
  0
ARC
  5
DA
100
AcDbEntity
  8
PCBs
  6
ByLayer
 62
  256
370
   -1
100
AcDbCircle
 10
-23
 20
38
 40
2
100
AcDbArc
 50
90
 51
180
  0
ARC
  5
DB
100
AcDbEntity
  8
PCBs
  6
ByLayer
 62
  256
370
   -1
100
AcDbCircle
 10
23
 20
38
 40
2
100
AcDbArc
 50
0
 51
90
  0
ARC
  5
DC
100
AcDbEntity
  8
PCBs
  6
ByLayer
 62
  256
370
   -1
100
AcDbCircle
 10
23
 20
-38
 40
2
100
AcDbArc
 50
270
 51
0
  0
ARC
  5
DD
100
AcDbEntity
  8
PCBs
  6
ByLayer
 62
  256
370
   -1
100
AcDbCircle
 10
-23
 20
-38
 40
2
100
AcDbArc
 50
180
 51
270
  0
LINE
  5
DE
100
AcDbEntity
  8
PCBs
  6
ByLayer
 62
  256
370
   -1
100
AcDbLine
 10
-22.9999986513009
 20
-40
 11
23
 21
-40
  0
LINE
  5
DF
100
AcDbEntity
  8
PCBs
  6
ByLayer
 62
  256
370
   -1
100
AcDbLine
 10
-25
 20
38
 11
-24.99999999999999
 21
-37.9999990463257
  0
LINE
  5
E0
100
AcDbEntity
  8
PCBs
  6
ByLayer
 62
  256
370
   -1
100
AcDbLine
 10
25
 20
-38
 11
24.99999999999999
 21
37.99999932565044
  0
LINE
  5
E1
100
AcDbEntity
  8
PCBs
  6
ByLayer
 62
  256
370
   -1
100
AcDbLine
 10
22.9999990463257
 20
40
 11
-22.99999958704691
 21
40
  0
ENDBLK
  5
68
330
66
100
AcDbEntity
  8
0
100
AcDbBlockEnd
  0
BLOCK
  5
6A
330
69
100
AcDbEntity
  8
0
100
AcDbBlockBegin
  2
pin_2
 70
    0
 10
0
 20
0
  3
pin_2
  1

  0
LINE
  5
E2
100
AcDbEntity
  8
Pins
  6
ByLayer
 62
  256
370
   -1
100
AcDbLine
 10
-1.27
 20
0
 11
3.81
 21
0
  0
LINE
  5
E3
100
AcDbEntity
  8
Pins
  6
ByLayer
 62
  256
370
   -1
100
AcDbLine
 10
0
 20
-1.27
 11
0
 21
1.27
  0
LINE
  5
E4
100
AcDbEntity
  8
Pins
  6
ByLayer
 62
  256
370
   -1
100
AcDbLine
 10
2.54
 20
-1.27
 11
2.54
 21
1.27
  0
ENDBLK
  5
6B
330
69
100
AcDbEntity
  8
0
100
AcDbBlockEnd
  0
BLOCK
  5
6D
330
6C
100
AcDbEntity
  8
0
100
AcDbBlockBegin
  2
pin_10
 70
    0
 10
0
 20
0
  3
pin_10
  1

  0
LINE
  5
E5
100
AcDbEntity
  8
Pins
  6
ByLayer
 62
  256
370
   -1
100
AcDbLine
 10
-12.7
 20
0
 11
12.7
 21
0
  0
LINE
  5
E6
100
AcDbEntity
  8
Pins
  6
ByLayer
 62
  256
370
   -1
100
AcDbLine
 10
-11.43
 20
-1.27
 11
-11.43
 21
1.27
  0
LINE
  5
E7
100
AcDbEntity
  8
Pins
  6
ByLayer
 62
  256
370
   -1
100
AcDbLine
 10
-8.890000000000001
 20
-1.27
 11
-8.890000000000001
 21
1.27
  0
LINE
  5
E8
100
AcDbEntity
  8
Pins
  6
ByLayer
 62
  256
370
   -1
100
AcDbLine
 10
-6.350000000000001
 20
-1.27
 11
-6.350000000000001
 21
1.27
  0
LINE
  5
E9
100
AcDbEntity
  8
Pins
  6
ByLayer
 62
  256
370
   -1
100
AcDbLine
 10
-3.810000000000002
 20
-1.27
 11
-3.810000000000002
 21
1.27
  0
LINE
  5
EA
100
AcDbEntity
  8
Pins
  6
ByLayer
 62
  256
370
   -1
100
AcDbLine
 10
-1.270000000000003
 20
-1.27
 11
-1.270000000000003
 21
1.27
  0
LINE
  5
EB
100
AcDbEntity
  8
Pins
  6
ByLayer
 62
  256
370
   -1
100
AcDbLine
 10
1.269999999999996
 20
-1.27
 11
1.269999999999996
 21
1.27
  0
LINE
  5
EC
100
AcDbEntity
  8
Pins
  6
ByLayer
 62
  256
370
   -1
100
AcDbLine
 10
3.809999999999995
 20
-1.27
 11
3.809999999999995
 21
1.27
  0
LINE
  5
ED
100
AcDbEntity
  8
Pins
  6
ByLayer
 62
  256
370
   -1
100
AcDbLine
 10
6.349999999999994
 20
-1.27
 11
6.349999999999994
 21
1.27
  0
LINE
  5
EE
100
AcDbEntity
  8
Pins
  6
ByLayer
 62
  256
370
   -1
100
AcDbLine
 10
8.889999999999993
 20
-1.27
 11
8.889999999999993
 21
1.27
  0
LINE
  5
EF
100
AcDbEntity
  8
Pins
  6
ByLayer
 62
  256
370
   -1
100
AcDbLine
 10
11.42999999999999
 20
-1.27
 11
11.42999999999999
 21
1.27
  0
ENDBLK
  5
6E
330
6C
100
AcDbEntity
  8
0
100
AcDbBlockEnd
  0
BLOCK
  5
70
330
6F
100
AcDbEntity
  8
0
100
AcDbBlockBegin
  2
pin_3
 70
    0
 10
0
 20
0
  3
pin_3
  1

  0
LINE
  5
F0
100
AcDbEntity
  8
Pins
  6
ByLayer
 62
  256
370
   -1
100
AcDbLine
 10
0
 20
-1.27
 11
0
 21
1.27
  0
LINE
  5
F1
100
AcDbEntity
  8
Pins
  6
ByLayer
 62
  256
370
   -1
100
AcDbLine
 10
2.54
 20
-1.27
 11
2.54
 21
1.27
  0
LINE
  5
F2
100
AcDbEntity
  8
Pins
  6
ByLayer
 62
  256
370
   -1
100
AcDbLine
 10
5.08
 20
-1.27
 11
5.08
 21
1.27
  0
LINE
  5
F3
100
AcDbEntity
  8
Pins
  6
ByLayer
 62
  256
370
   -1
100
AcDbLine
 10
-1.27
 20
0
 11
6.35
 21
0
  0
ENDBLK
  5
71
330
6F
100
AcDbEntity
  8
0
100
AcDbBlockEnd
  0
ENDSEC
  0
SECTION
  2
ENTITIES
  0
LWPOLYLINE
  5
F4
100
AcDbEntity
  8
Frame
  6
ByLayer
 62
  256
370
   -1
100
AcDbPolyline
 90
    4
 70
    1
 43
0
 10
500
 20
500
 10
0
 20
500
 10
0
 20
0
 10
500
 20
0
  0
LWPOLYLINE
  5
F5
100
AcDbEntity
  8
Frame
  6
ByLayer
 62
  256
370
   -1
100
AcDbPolyline
 90
    4
 70
    1
 43
0
 10
-10
 20
-10
 10
510
 20
-10
 10
510
 20
510
 10
-10
 20
510
  0
INSERT
  5
F6
100
AcDbEntity
  8
Pins
  6
ByLayer
 62
  256
370
   -1
100
AcDbBlockReference
  2
pin_10
 10
300
 20
296.38
 30
0
 41
1
 42
1
 43
0
 50
0
 70
    1
 71
    1
 44
1
 45
1
  0
INSERT
  5
F7
100
AcDbEntity
  8
Pins
  6
ByLayer
 62
  256
370
   -1
100
AcDbBlockReference
  2
pin_10
 10
368.75
 20
296.38
 30
0
 41
1
 42
1
 43
0
 50
0
 70
    1
 71
    1
 44
1
 45
1
  0
INSERT
  5
F8
100
AcDbEntity
  8
Pins
  6
ByLayer
 62
  256
370
   -1
100
AcDbBlockReference
  2
pin_10
 10
300
 20
309.87
 30
0
 41
1
 42
1
 43
0
 50
0
 70
    1
 71
    1
 44
1
 45
1
  0
INSERT
  5
F9
100
AcDbEntity
  8
Pins
  6
ByLayer
 62
  256
370
   -1
100
AcDbBlockReference
  2
pin_10
 10
368.75
 20
309.87
 30
0
 41
1
 42
1
 43
0
 50
0
 70
    1
 71
    1
 44
1
 45
1
  0
INSERT
  5
FA
100
AcDbEntity
  8
Pins
  6
ByLayer
 62
  256
370
   -1
100
AcDbBlockReference
  2
pin_10
 10
200
 20
296.38
 30
0
 41
-1
 42
1
 43
0
 50
0
 70
    1
 71
    1
 44
1
 45
1
  0
INSERT
  5
FB
100
AcDbEntity
  8
Pins
  6
ByLayer
 62
  256
370
   -1
100
AcDbBlockReference
  2
pin_10
 10
131.25
 20
296.38
 30
0
 41
-1
 42
1
 43
0
 50
0
 70
    1
 71
    1
 44
1
 45
1
  0
INSERT
  5
FC
100
AcDbEntity
  8
Pins
  6
ByLayer
 62
  256
370
   -1
100
AcDbBlockReference
  2
pin_10
 10
131.25
 20
309.87
 30
0
 41
-1
 42
1
 43
0
 50
0
 70
    1
 71
    1
 44
1
 45
1
  0
INSERT
  5
FD
100
AcDbEntity
  8
Pins
  6
ByLayer
 62
  256
370
   -1
100
AcDbBlockReference
  2
pin_10
 10
300
 20
203.62
 30
0
 41
-1
 42
1
 43
0
 50
180
 70
    1
 71
    1
 44
1
 45
1
  0
INSERT
  5
FE
100
AcDbEntity
  8
Pins
  6
ByLayer
 62
  256
370
   -1
100
AcDbBlockReference
  2
pin_10
 10
368.75
 20
203.62
 30
0
 41
-1
 42
1
 43
0
 50
180
 70
    1
 71
    1
 44
1
 45
1
  0
INSERT
  5
FF
100
AcDbEntity
  8
Pins
  6
ByLayer
 62
  256
370
   -1
100
AcDbBlockReference
  2
pin_10
 10
200
 20
203.62
 30
0
 41
1
 42
1
 43
0
 50
180
 70
    1
 71
    1
 44
1
 45
1
  0
INSERT
  5
100
100
AcDbEntity
  8
Pins
  6
ByLayer
 62
  256
370
   -1
100
AcDbBlockReference
  2
pin_10
 10
131.25
 20
203.62
 30
0
 41
1
 42
1
 43
0
 50
180
 70
    1
 71
    1
 44
1
 45
1
  0
LINE
  5
101
100
AcDbEntity
  8
help
  6
ByLayer
 62
  256
370
   -1
100
AcDbLine
 10
600
 20
208
 11
630
 21
208
  0
LINE
  5
102
100
AcDbEntity
  8
help
  6
ByLayer
 62
  256
370
   -1
100
AcDbLine
 10
600
 20
211.2
 11
630
 21
211.2
  0
LINE
  5
103
100
AcDbEntity
  8
help
  6
ByLayer
 62
  256
370
   -1
100
AcDbLine
 10
600
 20
209.6
 11
630
 21
209.6
  0
LINE
  5
104
100
AcDbEntity
  8
help
  6
ByLayer
 62
  256
370
   -1
100
AcDbLine
 10
600
 20
212.8
 11
630
 21
212.8
  0
LINE
  5
105
100
AcDbEntity
  8
help
  6
ByLayer
 62
  256
370
   -1
100
AcDbLine
 10
610
 20
201
 11
610
 21
220
  0
LINE
  5
106
100
AcDbEntity
  8
help
  6
ByLayer
 62
  256
370
   -1
100
AcDbLine
 10
610
 20
201
 11
626.4544826719043
 21
210.5
  0
LINE
  5
107
100
AcDbEntity
  8
help
  6
ByLayer
 62
  256
370
   -1
100
AcDbLine
 10
610
 20
201
 11
593.5455173280957
 21
210.5
  0
LINE
  5
108
100
AcDbEntity
  8
help
  6
ByLayer
 62
  256
370
   -1
100
AcDbLine
 10
621
 20
201
 11
621
 21
220
  0
LINE
  5
109
100
AcDbEntity
  8
help
  6
ByLayer
 62
  256
370
   -1
100
AcDbLine
 10
621
 20
201
 11
637.4544826719043
 21
210.5
  0
LINE
  5
10A
100
AcDbEntity
  8
help
  6
ByLayer
 62
  256
370
   -1
100
AcDbLine
 10
621
 20
201
 11
604.5455173280957
 21
210.5
  0
DIMENSION
  5
10B
100
AcDbEntity
  8
help
  6
ByLayer
 62
  256
370
   -1
100
AcDbDimension
  2
*D1
 10
621
 20
225
 30
0
 11
615.5
 21
229.6875
 31
0
 70
   32
 71
    5
  3
Standard
 53
0
210
0
220
0
230
1
100
AcDbAlignedDimension
 13
610
 23
220
 33
0
 14
621
 24
220
 34
0
100
AcDbRotatedDimension
  0
LINE
  5
10C
100
AcDbEntity
  8
help
  6
ByLayer
 62
  256
370
   -1
100
AcDbLine
 10
627
 20
201
 11
627
 21
220
  0
INSERT
  5
10D
100
AcDbEntity
  8
Pins
  6
ByLayer
 62
  256
370
   -1
100
AcDbBlockReference
  2
pin_2
 10
256.7449999999999
 20
359.87
 30
0
 41
1
 42
1
 43
0
 50
0
 70
    1
 71
    1
 44
1
 45
1
  0
INSERT
  5
10E
100
AcDbEntity
  8
Pins
  6
ByLayer
 62
  256
370
   -1
100
AcDbBlockReference
  2
pin_2
 10
218.46375
 20
359.87
 30
0
 41
1
 42
1
 43
0
 50
0
 70
    1
 71
    1
 44
1
 45
1
  0
INSERT
  5
10F
100
AcDbEntity
  8
Pins
  6
ByLayer
 62
  256
370
   -1
100
AcDbBlockReference
  2
pin_2
 10
295.0262499999999
 20
359.87
 30
0
 41
1
 42
1
 43
0
 50
0
 70
    1
 71
    1
 44
1
 45
1
  0
INSERT
  5
110
100
AcDbEntity
  8
Pins
  6
ByLayer
 62
  256
370
   -1
100
AcDbBlockReference
  2
pin_2
 10
333.3074999999999
 20
359.87
 30
0
 41
1
 42
1
 43
0
 50
0
 70
    1
 71
    1
 44
1
 45
1
  0
INSERT
  5
111
100
AcDbEntity
  8
Pins
  6
ByLayer
 62
  256
370
   -1
100
AcDbBlockReference
  2
pin_2
 10
371.5887499999999
 20
359.87
 30
0
 41
1
 42
1
 43
0
 50
0
 70
    1
 71
    1
 44
1
 45
1
  0
INSERT
  5
112
100
AcDbEntity
  8
Pins
  6
ByLayer
 62
  256
370
   -1
100
AcDbBlockReference
  2
pin_2
 10
180.1825
 20
359.87
 30
0
 41
1
 42
1
 43
0
 50
0
 70
    1
 71
    1
 44
1
 45
1
  0
INSERT
  5
113
100
AcDbEntity
  8
Pins
  6
ByLayer
 62
  256
370
   -1
100
AcDbBlockReference
  2
pin_2
 10
141.90125
 20
359.87
 30
0
 41
1
 42
1
 43
0
 50
0
 70
    1
 71
    1
 44
1
 45
1
  0
INSERT
  5
114
100
AcDbEntity
  8
Pins
  6
ByLayer
 62
  256
370
   -1
100
AcDbBlockReference
  2
pin_2
 10
103.62
 20
359.87
 30
0
 41
1
 42
1
 43
0
 50
0
 70
    1
 71
    1
 44
1
 45
1
  0
INSERT
  5
115
100
AcDbEntity
  8
Pins
  6
ByLayer
 62
  256
370
   -1
100
AcDbBlockReference
  2
pin_2
 10
128.41125
 20
359.87
 30
0
 41
-1
 42
1
 43
0
 50
0
 70
    1
 71
    1
 44
1
 45
1
  0
INSERT
  5
116
100
AcDbEntity
  8
Pins
  6
ByLayer
 62
  256
370
   -1
100
AcDbBlockReference
  2
pin_2
 10
166.6925
 20
359.87
 30
0
 41
-1
 42
1
 43
0
 50
0
 70
    1
 71
    1
 44
1
 45
1
  0
INSERT
  5
117
100
AcDbEntity
  8
Pins
  6
ByLayer
 62
  256
370
   -1
100
AcDbBlockReference
  2
pin_2
 10
204.97375
 20
359.87
 30
0
 41
-1
 42
1
 43
0
 50
0
 70
    1
 71
    1
 44
1
 45
1
  0
INSERT
  5
118
100
AcDbEntity
  8
Pins
  6
ByLayer
 62
  256
370
   -1
100
AcDbBlockReference
  2
pin_2
 10
243.255
 20
359.87
 30
0
 41
-1
 42
1
 43
0
 50
0
 70
    1
 71
    1
 44
1
 45
1
  0
INSERT
  5
119
100
AcDbEntity
  8
Pins
  6
ByLayer
 62
  256
370
   -1
100
AcDbBlockReference
  2
pin_2
 10
281.53625
 20
359.87
 30
0
 41
-1
 42
1
 43
0
 50
0
 70
    1
 71
    1
 44
1
 45
1
  0
INSERT
  5
11A
100
AcDbEntity
  8
Pins
  6
ByLayer
 62
  256
370
   -1
100
AcDbBlockReference
  2
pin_2
 10
319.8175
 20
359.87
 30
0
 41
-1
 42
1
 43
0
 50
0
 70
    1
 71
    1
 44
1
 45
1
  0
INSERT
  5
11B
100
AcDbEntity
  8
Pins
  6
ByLayer
 62
  256
370
   -1
100
AcDbBlockReference
  2
pin_2
 10
358.09875
 20
359.87
 30
0
 41
-1
 42
1
 43
0
 50
0
 70
    1
 71
    1
 44
1
 45
1
  0
INSERT
  5
11C
100
AcDbEntity
  8
Pins
  6
ByLayer
 62
  256
370
   -1
100
AcDbBlockReference
  2
pin_2
 10
396.38
 20
359.87
 30
0
 41
-1
 42
1
 43
0
 50
0
 70
    1
 71
    1
 44
1
 45
1
  0
INSERT
  5
11D
100
AcDbEntity
  8
Pins
  6
ByLayer
 62
  256
370
   -1
100
AcDbBlockReference
  2
pin_2
 10
256.7449999999999
 20
346.38
 30
0
 41
1
 42
1
 43
0
 50
0
 70
    1
 71
    1
 44
1
 45
1
  0
INSERT
  5
11E
100
AcDbEntity
  8
Pins
  6
ByLayer
 62
  256
370
   -1
100
AcDbBlockReference
  2
pin_2
 10
218.46375
 20
346.38
 30
0
 41
1
 42
1
 43
0
 50
0
 70
    1
 71
    1
 44
1
 45
1
  0
INSERT
  5
11F
100
AcDbEntity
  8
Pins
  6
ByLayer
 62
  256
370
   -1
100
AcDbBlockReference
  2
pin_2
 10
295.0262499999999
 20
346.38
 30
0
 41
1
 42
1
 43
0
 50
0
 70
    1
 71
    1
 44
1
 45
1
  0
INSERT
  5
120
100
AcDbEntity
  8
Pins
  6
ByLayer
 62
  256
370
   -1
100
AcDbBlockReference
  2
pin_2
 10
333.3074999999999
 20
346.38
 30
0
 41
1
 42
1
 43
0
 50
0
 70
    1
 71
    1
 44
1
 45
1
  0
INSERT
  5
121
100
AcDbEntity
  8
Pins
  6
ByLayer
 62
  256
370
   -1
100
AcDbBlockReference
  2
pin_2
 10
371.5887499999999
 20
346.38
 30
0
 41
1
 42
1
 43
0
 50
0
 70
    1
 71
    1
 44
1
 45
1
  0
INSERT
  5
122
100
AcDbEntity
  8
Pins
  6
ByLayer
 62
  256
370
   -1
100
AcDbBlockReference
  2
pin_2
 10
180.1825
 20
346.38
 30
0
 41
1
 42
1
 43
0
 50
0
 70
    1
 71
    1
 44
1
 45
1
  0
INSERT
  5
123
100
AcDbEntity
  8
Pins
  6
ByLayer
 62
  256
370
   -1
100
AcDbBlockReference
  2
pin_2
 10
141.90125
 20
346.38
 30
0
 41
1
 42
1
 43
0
 50
0
 70
    1
 71
    1
 44
1
 45
1
  0
INSERT
  5
124
100
AcDbEntity
  8
Pins
  6
ByLayer
 62
  256
370
   -1
100
AcDbBlockReference
  2
pin_2
 10
103.62
 20
346.38
 30
0
 41
1
 42
1
 43
0
 50
0
 70
    1
 71
    1
 44
1
 45
1
  0
INSERT
  5
125
100
AcDbEntity
  8
Pins
  6
ByLayer
 62
  256
370
   -1
100
AcDbBlockReference
  2
pin_2
 10
128.41125
 20
346.38
 30
0
 41
-1
 42
1
 43
0
 50
0
 70
    1
 71
    1
 44
1
 45
1
  0
INSERT
  5
126
100
AcDbEntity
  8
Pins
  6
ByLayer
 62
  256
370
   -1
100
AcDbBlockReference
  2
pin_2
 10
166.6925
 20
346.38
 30
0
 41
-1
 42
1
 43
0
 50
0
 70
    1
 71
    1
 44
1
 45
1
  0
INSERT
  5
127
100
AcDbEntity
  8
Pins
  6
ByLayer
 62
  256
370
   -1
100
AcDbBlockReference
  2
pin_2
 10
204.97375
 20
346.38
 30
0
 41
-1
 42
1
 43
0
 50
0
 70
    1
 71
    1
 44
1
 45
1
  0
INSERT
  5
128
100
AcDbEntity
  8
Pins
  6
ByLayer
 62
  256
370
   -1
100
AcDbBlockReference
  2
pin_2
 10
243.255
 20
346.38
 30
0
 41
-1
 42
1
 43
0
 50
0
 70
    1
 71
    1
 44
1
 45
1
  0
INSERT
  5
129
100
AcDbEntity
  8
Pins
  6
ByLayer
 62
  256
370
   -1
100
AcDbBlockReference
  2
pin_2
 10
281.53625
 20
346.38
 30
0
 41
-1
 42
1
 43
0
 50
0
 70
    1
 71
    1
 44
1
 45
1
  0
INSERT
  5
12A
100
AcDbEntity
  8
Pins
  6
ByLayer
 62
  256
370
   -1
100
AcDbBlockReference
  2
pin_2
 10
319.8175
 20
346.38
 30
0
 41
-1
 42
1
 43
0
 50
0
 70
    1
 71
    1
 44
1
 45
1
  0
INSERT
  5
12B
100
AcDbEntity
  8
Pins
  6
ByLayer
 62
  256
370
   -1
100
AcDbBlockReference
  2
pin_2
 10
358.09875
 20
346.38
 30
0
 41
-1
 42
1
 43
0
 50
0
 70
    1
 71
    1
 44
1
 45
1
  0
INSERT
  5
12C
100
AcDbEntity
  8
Pins
  6
ByLayer
 62
  256
370
   -1
100
AcDbBlockReference
  2
pin_2
 10
396.38
 20
346.38
 30
0
 41
-1
 42
1
 43
0
 50
0
 70
    1
 71
    1
 44
1
 45
1
  0
INSERT
  5
12D
100
AcDbEntity
  8
Pins
  6
ByLayer
 62
  256
370
   -1
100
AcDbBlockReference
  2
pin_2
 10
248.73
 20
296.38
 30
0
 41
1
 42
1
 43
0
 50
0
 70
    1
 71
    1
 44
1
 45
1
  0
INSERT
  5
12E
100
AcDbEntity
  8
Pins
  6
ByLayer
 62
  256
370
   -1
100
AcDbBlockReference
  2
pin_2
 10
248.73
 20
309.87
 30
0
 41
1
 42
1
 43
0
 50
0
 70
    1
 71
    1
 44
1
 45
1
  0
INSERT
  5
12F
100
AcDbEntity
  8
Pins
  6
ByLayer
 62
  256
370
   -1
100
AcDbBlockReference
  2
pin_2
 10
248.73
 20
203.6200000000001
 30
0
 41
-1
 42
1
 43
0
 50
180.0000000000001
 70
    1
 71
    1
 44
1
 45
1
  0
ARC
  5
130
100
AcDbEntity
  8
PCBs
  6
ByLayer
 62
  256
370
   -1
100
AcDbCircle
 10
102
 20
398
 40
2
100
AcDbArc
 50
90
 51
180
  0
ARC
  5
131
100
AcDbEntity
  8
PCBs
  6
ByLayer
 62
  256
370
   -1
100
AcDbCircle
 10
130.03125
 20
398
 40
2
100
AcDbArc
 50
0
 51
90
  0
ARC
  5
132
100
AcDbEntity
  8
PCBs
  6
ByLayer
 62
  256
370
   -1
100
AcDbCircle
 10
102
 20
358.25
 40
2
100
AcDbArc
 50
180
 51
270
  0
ARC
  5
133
100
AcDbEntity
  8
PCBs
  6
ByLayer
 62
  256
370
   -1
100
AcDbCircle
 10
130.03125
 20
358.25
 40
2
100
AcDbArc
 50
270
 51
0
  0
LINE
  5
134
100
AcDbEntity
  8
PCBs
  6
ByLayer
 62
  256
370
   -1
100
AcDbLine
 10
102.0000000000001
 20
400
 11
130.03125
 21
400
  0
LINE
  5
135
100
AcDbEntity
  8
PCBs
  6
ByLayer
 62
  256
370
   -1
100
AcDbLine
 10
102.0000000000001
 20
400
 11
130.0312423706056
 21
400.0000000000001
  0
LINE
  5
136
100
AcDbEntity
  8
PCBs
  6
ByLayer
 62
  256
370
   -1
100
AcDbLine
 10
102.0000000000001
 20
400
 11
130.0312423706056
 21
400.0000000000001
  0
LINE
  5
137
100
AcDbEntity
  8
PCBs
  6
ByLayer
 62
  256
370
   -1
100
AcDbLine
 10
99.99999999999997
 20
397.9999892104072
 11
100
 21
358.2499999999999
  0
LINE
  5
138
100
AcDbEntity
  8
PCBs
  6
ByLayer
 62
  256
370
   -1
100
AcDbLine
 10
99.99999999999997
 20
397.9999946052034
 11
100
 21
358.25
  0
LINE
  5
139
100
AcDbEntity
  8
PCBs
  6
ByLayer
 62
  256
370
   -1
100
AcDbLine
 10
99.99999999999997
 20
397.9999892104072
 11
99.99999999999997
 21
358.25
  0
LINE
  5
13A
100
AcDbEntity
  8
PCBs
  6
ByLayer
 62
  256
370
   -1
100
AcDbLine
 10
132.03125
 20
397.9999923706056
 11
132.03125
 21
358.2500076293946
  0
LINE
  5
13B
100
AcDbEntity
  8
PCBs
  6
ByLayer
 62
  256
370
   -1
100
AcDbLine
 10
132.03125
 20
397.9999923706056
 11
132.03125
 21
358.2500053947966
  0
LINE
  5
13C
100
AcDbEntity
  8
PCBs
  6
ByLayer
 62
  256
370
   -1
100
AcDbLine
 10
132.03125
 20
397.9999923706056
 11
132.03125
 21
358.2500053947966
  0
LINE
  5
13D
100
AcDbEntity
  8
PCBs
  6
ByLayer
 62
  256
370
   -1
100
AcDbLine
 10
102.0000053947966
 20
356.25
 11
130.0312423706055
 21
356.25
  0
LINE
  5
13E
100
AcDbEntity
  8
PCBs
  6
ByLayer
 62
  256
370
   -1
100
AcDbLine
 10
102.0000053947966
 20
356.2500000000001
 11
130.03125
 21
356.25
  0
LINE
  5
13F
100
AcDbEntity
  8
PCBs
  6
ByLayer
 62
  256
370
   -1
100
AcDbLine
 10
102.0000053947966
 20
356.25
 11
130.0312446052035
 21
356.2499999999999
  0
ARC
  5
140
100
AcDbEntity
  8
PCBs
  6
ByLayer
 62
  256
370
   -1
100
AcDbCircle
 10
102
 20
348
 40
2
100
AcDbArc
 50
90
 51
180
  0
ARC
  5
141
100
AcDbEntity
  8
PCBs
  6
ByLayer
 62
  256
370
   -1
100
AcDbCircle
 10
102
 20
308.25
 40
2
100
AcDbArc
 50
180
 51
270
  0
ARC
  5
142
100
AcDbEntity
  8
PCBs
  6
ByLayer
 62
  256
370
   -1
100
AcDbCircle
 10
260.5
 20
308.25
 40
2
100
AcDbArc
 50
270
 51
0
  0
ARC
  5
143
100
AcDbEntity
  8
PCBs
  6
ByLayer
 62
  256
370
   -1
100
AcDbCircle
 10
260.5
 20
348
 40
2
100
AcDbArc
 50
0
 51
90
  0
ARC
  5
144
100
AcDbEntity
  8
PCBs
  6
ByLayer
 62
  256
370
   -1
100
AcDbCircle
 10
270.75
 20
348
 40
2
100
AcDbArc
 50
90
 51
180
  0
ARC
  5
145
100
AcDbEntity
  8
PCBs
  6
ByLayer
 62
  256
370
   -1
100
AcDbCircle
 10
270.75
 20
308.25
 40
2
100
AcDbArc
 50
180
 51
270
  0
ARC
  5
146
100
AcDbEntity
  8
PCBs
  6
ByLayer
 62
  256
370
   -1
100
AcDbCircle
 10
397.9999999999999
 20
348
 40
2
100
AcDbArc
 50
0
 51
90
  0
ARC
  5
147
100
AcDbEntity
  8
PCBs
  6
ByLayer
 62
  256
370
   -1
100
AcDbCircle
 10
397.9999999999999
 20
308.25
 40
2
100
AcDbArc
 50
270
 51
0
  0
LINE
  5
148
100
AcDbEntity
  8
PCBs
  6
ByLayer
 62
  256
370
   -1
100
AcDbLine
 10
102.0000053947967
 20
350
 11
260.4999892104069
 21
350
  0
LINE
  5
149
100
AcDbEntity
  8
PCBs
  6
ByLayer
 62
  256
370
   -1
100
AcDbLine
 10
102
 20
350
 11
260.4999892104069
 21
350
  0
LINE
  5
14A
100
AcDbEntity
  8
PCBs
  6
ByLayer
 62
  256
370
   -1
100
AcDbLine
 10
102.0000053947967
 20
350
 11
260.4999892104069
 21
350
  0
LINE
  5
14B
100
AcDbEntity
  8
PCBs
  6
ByLayer
 62
  256
370
   -1
100
AcDbLine
 10
262.5
 20
347.9999892104071
 11
262.5
 21
308.2499999999999
  0
LINE
  5
14C
100
AcDbEntity
  8
PCBs
  6
ByLayer
 62
  256
370
   -1
100
AcDbLine
 10
262.5
 20
347.9999923706055
 11
262.5
 21
308.2500076293946
  0
LINE
  5
14D
100
AcDbEntity
  8
PCBs
  6
ByLayer
 62
  256
370
   -1
100
AcDbLine
 10
262.5
 20
347.9999892104071
 11
262.5000000000001
 21
308.2499923706055
  0
LINE
  5
14E
100
AcDbEntity
  8
PCBs
  6
ByLayer
 62
  256
370
   -1
100
AcDbLine
 10
99.99999999999999
 20
348
 11
99.99999999999999
 21
308.2500053947965
  0
LINE
  5
14F
100
AcDbEntity
  8
PCBs
  6
ByLayer
 62
  256
370
   -1
100
AcDbLine
 10
99.99999999999999
 20
348
 11
99.99999999999999
 21
308.2500053947965
  0
LINE
  5
150
100
AcDbEntity
  8
PCBs
  6
ByLayer
 62
  256
370
   -1
100
AcDbLine
 10
100
 20
347.9999946052035
 11
100
 21
308.25
  0
LINE
  5
151
100
AcDbEntity
  8
PCBs
  6
ByLayer
 62
  256
370
   -1
100
AcDbLine
 10
102
 20
306.25
 11
260.4999923706056
 21
306.2499999999999
  0
LINE
  5
152
100
AcDbEntity
  8
PCBs
  6
ByLayer
 62
  256
370
   -1
100
AcDbLine
 10
102.0000076293946
 20
306.25
 11
260.4999923706056
 21
306.2499999999999
  0
LINE
  5
153
100
AcDbEntity
  8
PCBs
  6
ByLayer
 62
  256
370
   -1
100
AcDbLine
 10
102.0000000000001
 20
306.25
 11
260.4999923706055
 21
306.25
  0
LINE
  5
154
100
AcDbEntity
  8
PCBs
  6
ByLayer
 62
  256
370
   -1
100
AcDbLine
 10
270.7500076293946
 20
350
 11
397.9999999999999
 21
350.0000000000001
  0
LINE
  5
155
100
AcDbEntity
  8
PCBs
  6
ByLayer
 62
  256
370
   -1
100
AcDbLine
 10
270.7500132144989
 20
350
 11
397.9999847412113
 21
350.0000000000001
  0
LINE
  5
156
100
AcDbEntity
  8
PCBs
  6
ByLayer
 62
  256
370
   -1
100
AcDbLine
 10
270.75
 20
350.0000000000001
 11
397.9999847412113
 21
350
  0
LINE
  5
157
100
AcDbEntity
  8
PCBs
  6
ByLayer
 62
  256
370
   -1
100
AcDbLine
 10
399.9999999999999
 20
348.0000107895933
 11
399.9999999999999
 21
308.2500132144989
  0
LINE
  5
158
100
AcDbEntity
  8
PCBs
  6
ByLayer
 62
  256
370
   -1
100
AcDbLine
 10
399.9999999999999
 20
347.999989210407
 11
399.9999999999999
 21
308.250013214499
  0
LINE
  5
159
100
AcDbEntity
  8
PCBs
  6
ByLayer
 62
  256
370
   -1
100
AcDbLine
 10
399.9999999999999
 20
347.999989210407
 11
399.9999999999999
 21
308.2500107895932
  0
LINE
  5
15A
100
AcDbEntity
  8
PCBs
  6
ByLayer
 62
  256
370
   -1
100
AcDbLine
 10
268.75
 20
348.0000000000001
 11
268.75
 21
308.2500107895931
  0
LINE
  5
15B
100
AcDbEntity
  8
PCBs
  6
ByLayer
 62
  256
370
   -1
100
AcDbLine
 10
268.75
 20
347.9999923706055
 11
268.75
 21
308.2500132144991
  0
LINE
  5
15C
100
AcDbEntity
  8
PCBs
  6
ByLayer
 62
  256
370
   -1
100
AcDbLine
 10
268.75
 20
347.9999923706056
 11
268.7500000000001
 21
308.2500107895933
  0
LINE
  5
15D
100
AcDbEntity
  8
PCBs
  6
ByLayer
 62
  256
370
   -1
100
AcDbLine
 10
397.9999923706055
 20
306.2499999999998
 11
270.7500107895933
 21
306.25
  0
LINE
  5
15E
100
AcDbEntity
  8
PCBs
  6
ByLayer
 62
  256
370
   -1
100
AcDbLine
 10
397.9999923706055
 20
306.2499999999999
 11
270.7500107895931
 21
306.2499999999999
  0
LINE
  5
15F
100
AcDbEntity
  8
PCBs
  6
ByLayer
 62
  256
370
   -1
100
AcDbLine
 10
397.9999892104069
 20
306.2500000000001
 11
270.7500107895931
 21
306.25
  0
ARC
  5
160
100
AcDbEntity
  8
PCBs
  6
ByLayer
 62
  256
370
   -1
100
AcDbCircle
 10
140.28125
 20
398
 40
2
100
AcDbArc
 50
90
 51
180
  0
ARC
  5
161
100
AcDbEntity
  8
PCBs
  6
ByLayer
 62
  256
370
   -1
100
AcDbCircle
 10
168.3125
 20
398
 40
2
100
AcDbArc
 50
0
 51
90
  0
ARC
  5
162
100
AcDbEntity
  8
PCBs
  6
ByLayer
 62
  256
370
   -1
100
AcDbCircle
 10
140.28125
 20
358.25
 40
2
100
AcDbArc
 50
180
 51
270
  0
ARC
  5
163
100
AcDbEntity
  8
PCBs
  6
ByLayer
 62
  256
370
   -1
100
AcDbCircle
 10
168.3125
 20
358.25
 40
2
100
AcDbArc
 50
270
 51
0
  0
LINE
  5
164
100
AcDbEntity
  8
PCBs
  6
ByLayer
 62
  256
370
   -1
100
AcDbLine
 10
140.2812500000001
 20
400
 11
168.3125
 21
400
  0
LINE
  5
165
100
AcDbEntity
  8
PCBs
  6
ByLayer
 62
  256
370
   -1
100
AcDbLine
 10
140.2812500000001
 20
400
 11
168.3124923706056
 21
400.0000000000001
  0
LINE
  5
166
100
AcDbEntity
  8
PCBs
  6
ByLayer
 62
  256
370
   -1
100
AcDbLine
 10
140.2812500000001
 20
400
 11
168.3124923706056
 21
400.0000000000001
  0
LINE
  5
167
100
AcDbEntity
  8
PCBs
  6
ByLayer
 62
  256
370
   -1
100
AcDbLine
 10
138.28125
 20
397.9999892104072
 11
138.28125
 21
358.2499999999999
  0
LINE
  5
168
100
AcDbEntity
  8
PCBs
  6
ByLayer
 62
  256
370
   -1
100
AcDbLine
 10
138.28125
 20
397.9999946052034
 11
138.28125
 21
358.25
  0
LINE
  5
169
100
AcDbEntity
  8
PCBs
  6
ByLayer
 62
  256
370
   -1
100
AcDbLine
 10
138.28125
 20
397.9999892104072
 11
138.28125
 21
358.25
  0
LINE
  5
16A
100
AcDbEntity
  8
PCBs
  6
ByLayer
 62
  256
370
   -1
100
AcDbLine
 10
170.3125
 20
397.9999923706056
 11
170.3125
 21
358.2500076293946
  0
LINE
  5
16B
100
AcDbEntity
  8
PCBs
  6
ByLayer
 62
  256
370
   -1
100
AcDbLine
 10
170.3125
 20
397.9999923706056
 11
170.3125
 21
358.2500053947966
  0
LINE
  5
16C
100
AcDbEntity
  8
PCBs
  6
ByLayer
 62
  256
370
   -1
100
AcDbLine
 10
170.3125
 20
397.9999923706056
 11
170.3125
 21
358.2500053947966
  0
LINE
  5
16D
100
AcDbEntity
  8
PCBs
  6
ByLayer
 62
  256
370
   -1
100
AcDbLine
 10
140.2812553947966
 20
356.25
 11
168.3124923706055
 21
356.25
  0
LINE
  5
16E
100
AcDbEntity
  8
PCBs
  6
ByLayer
 62
  256
370
   -1
100
AcDbLine
 10
140.2812553947966
 20
356.2500000000001
 11
168.3125
 21
356.25
  0
LINE
  5
16F
100
AcDbEntity
  8
PCBs
  6
ByLayer
 62
  256
370
   -1
100
AcDbLine
 10
140.2812553947966
 20
356.25
 11
168.3124946052035
 21
356.2499999999999
  0
ARC
  5
170
100
AcDbEntity
  8
PCBs
  6
ByLayer
 62
  256
370
   -1
100
AcDbCircle
 10
178.5625
 20
398
 40
2
100
AcDbArc
 50
90
 51
180
  0
ARC
  5
171
100
AcDbEntity
  8
PCBs
  6
ByLayer
 62
  256
370
   -1
100
AcDbCircle
 10
206.59375
 20
398
 40
2
100
AcDbArc
 50
0
 51
90
  0
ARC
  5
172
100
AcDbEntity
  8
PCBs
  6
ByLayer
 62
  256
370
   -1
100
AcDbCircle
 10
178.5625
 20
358.25
 40
2
100
AcDbArc
 50
180
 51
270
  0
ARC
  5
173
100
AcDbEntity
  8
PCBs
  6
ByLayer
 62
  256
370
   -1
100
AcDbCircle
 10
206.59375
 20
358.25
 40
2
100
AcDbArc
 50
270
 51
0
  0
LINE
  5
174
100
AcDbEntity
  8
PCBs
  6
ByLayer
 62
  256
370
   -1
100
AcDbLine
 10
178.5625000000001
 20
400
 11
206.59375
 21
400
  0
LINE
  5
175
100
AcDbEntity
  8
PCBs
  6
ByLayer
 62
  256
370
   -1
100
AcDbLine
 10
178.5625000000001
 20
400
 11
206.5937423706056
 21
400.0000000000001
  0
LINE
  5
176
100
AcDbEntity
  8
PCBs
  6
ByLayer
 62
  256
370
   -1
100
AcDbLine
 10
178.5625000000001
 20
400
 11
206.5937423706056
 21
400.0000000000001
  0
LINE
  5
177
100
AcDbEntity
  8
PCBs
  6
ByLayer
 62
  256
370
   -1
100
AcDbLine
 10
176.5625
 20
397.9999892104072
 11
176.5625
 21
358.2499999999999
  0
LINE
  5
178
100
AcDbEntity
  8
PCBs
  6
ByLayer
 62
  256
370
   -1
100
AcDbLine
 10
176.5625
 20
397.9999946052034
 11
176.5625
 21
358.25
  0
LINE
  5
179
100
AcDbEntity
  8
PCBs
  6
ByLayer
 62
  256
370
   -1
100
AcDbLine
 10
176.5625
 20
397.9999892104072
 11
176.5625
 21
358.25
  0
LINE
  5
17A
100
AcDbEntity
  8
PCBs
  6
ByLayer
 62
  256
370
   -1
100
AcDbLine
 10
208.59375
 20
397.9999923706056
 11
208.59375
 21
358.2500076293946
  0
LINE
  5
17B
100
AcDbEntity
  8
PCBs
  6
ByLayer
 62
  256
370
   -1
100
AcDbLine
 10
208.59375
 20
397.9999923706056
 11
208.59375
 21
358.2500053947966
  0
LINE
  5
17C
100
AcDbEntity
  8
PCBs
  6
ByLayer
 62
  256
370
   -1
100
AcDbLine
 10
208.59375
 20
397.9999923706056
 11
208.59375
 21
358.2500053947966
  0
LINE
  5
17D
100
AcDbEntity
  8
PCBs
  6
ByLayer
 62
  256
370
   -1
100
AcDbLine
 10
178.5625053947966
 20
356.25
 11
206.5937423706055
 21
356.25
  0
LINE
  5
17E
100
AcDbEntity
  8
PCBs
  6
ByLayer
 62
  256
370
   -1
100
AcDbLine
 10
178.5625053947966
 20
356.2500000000001
 11
206.59375
 21
356.25
  0
LINE
  5
17F
100
AcDbEntity
  8
PCBs
  6
ByLayer
 62
  256
370
   -1
100
AcDbLine
 10
178.5625053947966
 20
356.25
 11
206.5937446052035
 21
356.2499999999999
  0
ARC
  5
180
100
AcDbEntity
  8
PCBs
  6
ByLayer
 62
  256
370
   -1
100
AcDbCircle
 10
216.84375
 20
398
 40
2
100
AcDbArc
 50
90
 51
180
  0
ARC
  5
181
100
AcDbEntity
  8
PCBs
  6
ByLayer
 62
  256
370
   -1
100
AcDbCircle
 10
244.875
 20
398
 40
2
100
AcDbArc
 50
0
 51
90
  0
ARC
  5
182
100
AcDbEntity
  8
PCBs
  6
ByLayer
 62
  256
370
   -1
100
AcDbCircle
 10
216.84375
 20
358.25
 40
2
100
AcDbArc
 50
180
 51
270
  0
ARC
  5
183
100
AcDbEntity
  8
PCBs
  6
ByLayer
 62
  256
370
   -1
100
AcDbCircle
 10
244.875
 20
358.25
 40
2
100
AcDbArc
 50
270
 51
0
  0
LINE
  5
184
100
AcDbEntity
  8
PCBs
  6
ByLayer
 62
  256
370
   -1
100
AcDbLine
 10
216.8437500000001
 20
400
 11
244.875
 21
400
  0
LINE
  5
185
100
AcDbEntity
  8
PCBs
  6
ByLayer
 62
  256
370
   -1
100
AcDbLine
 10
216.8437500000001
 20
400
 11
244.8749923706056
 21
400.0000000000001
  0
LINE
  5
186
100
AcDbEntity
  8
PCBs
  6
ByLayer
 62
  256
370
   -1
100
AcDbLine
 10
216.8437500000001
 20
400
 11
244.8749923706056
 21
400.0000000000001
  0
LINE
  5
187
100
AcDbEntity
  8
PCBs
  6
ByLayer
 62
  256
370
   -1
100
AcDbLine
 10
214.84375
 20
397.9999892104072
 11
214.84375
 21
358.2499999999999
  0
LINE
  5
188
100
AcDbEntity
  8
PCBs
  6
ByLayer
 62
  256
370
   -1
100
AcDbLine
 10
214.84375
 20
397.9999946052034
 11
214.84375
 21
358.25
  0
LINE
  5
189
100
AcDbEntity
  8
PCBs
  6
ByLayer
 62
  256
370
   -1
100
AcDbLine
 10
214.84375
 20
397.9999892104072
 11
214.84375
 21
358.25
  0
LINE
  5
18A
100
AcDbEntity
  8
PCBs
  6
ByLayer
 62
  256
370
   -1
100
AcDbLine
 10
246.875
 20
397.9999923706056
 11
246.875
 21
358.2500076293946
  0
LINE
  5
18B
100
AcDbEntity
  8
PCBs
  6
ByLayer
 62
  256
370
   -1
100
AcDbLine
 10
246.875
 20
397.9999923706056
 11
246.875
 21
358.2500053947966
  0
LINE
  5
18C
100
AcDbEntity
  8
PCBs
  6
ByLayer
 62
  256
370
   -1
100
AcDbLine
 10
246.875
 20
397.9999923706056
 11
246.875
 21
358.2500053947966
  0
LINE
  5
18D
100
AcDbEntity
  8
PCBs
  6
ByLayer
 62
  256
370
   -1
100
AcDbLine
 10
216.8437553947966
 20
356.25
 11
244.8749923706055
 21
356.25
  0
LINE
  5
18E
100
AcDbEntity
  8
PCBs
  6
ByLayer
 62
  256
370
   -1
100
AcDbLine
 10
216.8437553947966
 20
356.2500000000001
 11
244.875
 21
356.25
  0
LINE
  5
18F
100
AcDbEntity
  8
PCBs
  6
ByLayer
 62
  256
370
   -1
100
AcDbLine
 10
216.8437553947966
 20
356.25
 11
244.8749946052035
 21
356.2499999999999
  0
ARC
  5
190
100
AcDbEntity
  8
PCBs
  6
ByLayer
 62
  256
370
   -1
100
AcDbCircle
 10
255.125
 20
398
 40
2
100
AcDbArc
 50
90
 51
180
  0
ARC
  5
191
100
AcDbEntity
  8
PCBs
  6
ByLayer
 62
  256
370
   -1
100
AcDbCircle
 10
283.15625
 20
398
 40
2
100
AcDbArc
 50
0
 51
90
  0
ARC
  5
192
100
AcDbEntity
  8
PCBs
  6
ByLayer
 62
  256
370
   -1
100
AcDbCircle
 10
255.125
 20
358.25
 40
2
100
AcDbArc
 50
180
 51
270
  0
ARC
  5
193
100
AcDbEntity
  8
PCBs
  6
ByLayer
 62
  256
370
   -1
100
AcDbCircle
 10
283.15625
 20
358.25
 40
2
100
AcDbArc
 50
270
 51
0
  0
LINE
  5
194
100
AcDbEntity
  8
PCBs
  6
ByLayer
 62
  256
370
   -1
100
AcDbLine
 10
255.1250000000001
 20
400
 11
283.15625
 21
400
  0
LINE
  5
195
100
AcDbEntity
  8
PCBs
  6
ByLayer
 62
  256
370
   -1
100
AcDbLine
 10
255.1250000000001
 20
400
 11
283.1562423706056
 21
400.0000000000001
  0
LINE
  5
196
100
AcDbEntity
  8
PCBs
  6
ByLayer
 62
  256
370
   -1
100
AcDbLine
 10
255.1250000000001
 20
400
 11
283.1562423706056
 21
400.0000000000001
  0
LINE
  5
197
100
AcDbEntity
  8
PCBs
  6
ByLayer
 62
  256
370
   -1
100
AcDbLine
 10
253.125
 20
397.9999892104072
 11
253.125
 21
358.2499999999999
  0
LINE
  5
198
100
AcDbEntity
  8
PCBs
  6
ByLayer
 62
  256
370
   -1
100
AcDbLine
 10
253.125
 20
397.9999946052034
 11
253.125
 21
358.25
  0
LINE
  5
199
100
AcDbEntity
  8
PCBs
  6
ByLayer
 62
  256
370
   -1
100
AcDbLine
 10
253.125
 20
397.9999892104072
 11
253.125
 21
358.25
  0
LINE
  5
19A
100
AcDbEntity
  8
PCBs
  6
ByLayer
 62
  256
370
   -1
100
AcDbLine
 10
285.15625
 20
397.9999923706056
 11
285.15625
 21
358.2500076293946
  0
LINE
  5
19B
100
AcDbEntity
  8
PCBs
  6
ByLayer
 62
  256
370
   -1
100
AcDbLine
 10
285.15625
 20
397.9999923706056
 11
285.15625
 21
358.2500053947966
  0
LINE
  5
19C
100
AcDbEntity
  8
PCBs
  6
ByLayer
 62
  256
370
   -1
100
AcDbLine
 10
285.15625
 20
397.9999923706056
 11
285.15625
 21
358.2500053947966
  0
LINE
  5
19D
100
AcDbEntity
  8
PCBs
  6
ByLayer
 62
  256
370
   -1
100
AcDbLine
 10
255.1250053947966
 20
356.25
 11
283.1562423706055
 21
356.25
  0
LINE
  5
19E
100
AcDbEntity
  8
PCBs
  6
ByLayer
 62
  256
370
   -1
100
AcDbLine
 10
255.1250053947966
 20
356.2500000000001
 11
283.15625
 21
356.25
  0
LINE
  5
19F
100
AcDbEntity
  8
PCBs
  6
ByLayer
 62
  256
370
   -1
100
AcDbLine
 10
255.1250053947966
 20
356.25
 11
283.1562446052035
 21
356.2499999999999
  0
ARC
  5
1A0
100
AcDbEntity
  8
PCBs
  6
ByLayer
 62
  256
370
   -1
100
AcDbCircle
 10
293.40625
 20
398
 40
2
100
AcDbArc
 50
90
 51
180
  0
ARC
  5
1A1
100
AcDbEntity
  8
PCBs
  6
ByLayer
 62
  256
370
   -1
100
AcDbCircle
 10
321.4375
 20
398
 40
2
100
AcDbArc
 50
0
 51
90
  0
ARC
  5
1A2
100
AcDbEntity
  8
PCBs
  6
ByLayer
 62
  256
370
   -1
100
AcDbCircle
 10
293.40625
 20
358.25
 40
2
100
AcDbArc
 50
180
 51
270
  0
ARC
  5
1A3
100
AcDbEntity
  8
PCBs
  6
ByLayer
 62
  256
370
   -1
100
AcDbCircle
 10
321.4375
 20
358.25
 40
2
100
AcDbArc
 50
270
 51
0
  0
LINE
  5
1A4
100
AcDbEntity
  8
PCBs
  6
ByLayer
 62
  256
370
   -1
100
AcDbLine
 10
293.4062500000001
 20
400
 11
321.4375
 21
400
  0
LINE
  5
1A5
100
AcDbEntity
  8
PCBs
  6
ByLayer
 62
  256
370
   -1
100
AcDbLine
 10
293.4062500000001
 20
400
 11
321.4374923706056
 21
400.0000000000001
  0
LINE
  5
1A6
100
AcDbEntity
  8
PCBs
  6
ByLayer
 62
  256
370
   -1
100
AcDbLine
 10
293.4062500000001
 20
400
 11
321.4374923706056
 21
400.0000000000001
  0
LINE
  5
1A7
100
AcDbEntity
  8
PCBs
  6
ByLayer
 62
  256
370
   -1
100
AcDbLine
 10
291.40625
 20
397.9999892104072
 11
291.40625
 21
358.2499999999999
  0
LINE
  5
1A8
100
AcDbEntity
  8
PCBs
  6
ByLayer
 62
  256
370
   -1
100
AcDbLine
 10
291.40625
 20
397.9999946052034
 11
291.40625
 21
358.25
  0
LINE
  5
1A9
100
AcDbEntity
  8
PCBs
  6
ByLayer
 62
  256
370
   -1
100
AcDbLine
 10
291.40625
 20
397.9999892104072
 11
291.40625
 21
358.25
  0
LINE
  5
1AA
100
AcDbEntity
  8
PCBs
  6
ByLayer
 62
  256
370
   -1
100
AcDbLine
 10
323.4375
 20
397.9999923706056
 11
323.4375
 21
358.2500076293946
  0
LINE
  5
1AB
100
AcDbEntity
  8
PCBs
  6
ByLayer
 62
  256
370
   -1
100
AcDbLine
 10
323.4375
 20
397.9999923706056
 11
323.4375
 21
358.2500053947966
  0
LINE
  5
1AC
100
AcDbEntity
  8
PCBs
  6
ByLayer
 62
  256
370
   -1
100
AcDbLine
 10
323.4375
 20
397.9999923706056
 11
323.4375
 21
358.2500053947966
  0
LINE
  5
1AD
100
AcDbEntity
  8
PCBs
  6
ByLayer
 62
  256
370
   -1
100
AcDbLine
 10
293.4062553947966
 20
356.25
 11
321.4374923706055
 21
356.25
  0
LINE
  5
1AE
100
AcDbEntity
  8
PCBs
  6
ByLayer
 62
  256
370
   -1
100
AcDbLine
 10
293.4062553947966
 20
356.2500000000001
 11
321.4375
 21
356.25
  0
LINE
  5
1AF
100
AcDbEntity
  8
PCBs
  6
ByLayer
 62
  256
370
   -1
100
AcDbLine
 10
293.4062553947966
 20
356.25
 11
321.4374946052035
 21
356.2499999999999
  0
ARC
  5
1B0
100
AcDbEntity
  8
PCBs
  6
ByLayer
 62
  256
370
   -1
100
AcDbCircle
 10
331.6875
 20
398
 40
2
100
AcDbArc
 50
90
 51
180
  0
ARC
  5
1B1
100
AcDbEntity
  8
PCBs
  6
ByLayer
 62
  256
370
   -1
100
AcDbCircle
 10
359.71875
 20
398
 40
2
100
AcDbArc
 50
0
 51
90
  0
ARC
  5
1B2
100
AcDbEntity
  8
PCBs
  6
ByLayer
 62
  256
370
   -1
100
AcDbCircle
 10
331.6875
 20
358.25
 40
2
100
AcDbArc
 50
180
 51
270
  0
ARC
  5
1B3
100
AcDbEntity
  8
PCBs
  6
ByLayer
 62
  256
370
   -1
100
AcDbCircle
 10
359.71875
 20
358.25
 40
2
100
AcDbArc
 50
270
 51
0
  0
LINE
  5
1B4
100
AcDbEntity
  8
PCBs
  6
ByLayer
 62
  256
370
   -1
100
AcDbLine
 10
331.6875000000001
 20
400
 11
359.71875
 21
400
  0
LINE
  5
1B5
100
AcDbEntity
  8
PCBs
  6
ByLayer
 62
  256
370
   -1
100
AcDbLine
 10
331.6875000000001
 20
400
 11
359.7187423706056
 21
400.0000000000001
  0
LINE
  5
1B6
100
AcDbEntity
  8
PCBs
  6
ByLayer
 62
  256
370
   -1
100
AcDbLine
 10
331.6875000000001
 20
400
 11
359.7187423706056
 21
400.0000000000001
  0
LINE
  5
1B7
100
AcDbEntity
  8
PCBs
  6
ByLayer
 62
  256
370
   -1
100
AcDbLine
 10
329.6875
 20
397.9999892104072
 11
329.6875
 21
358.2499999999999
  0
LINE
  5
1B8
100
AcDbEntity
  8
PCBs
  6
ByLayer
 62
  256
370
   -1
100
AcDbLine
 10
329.6875
 20
397.9999946052034
 11
329.6875
 21
358.25
  0
LINE
  5
1B9
100
AcDbEntity
  8
PCBs
  6
ByLayer
 62
  256
370
   -1
100
AcDbLine
 10
329.6875
 20
397.9999892104072
 11
329.6875
 21
358.25
  0
LINE
  5
1BA
100
AcDbEntity
  8
PCBs
  6
ByLayer
 62
  256
370
   -1
100
AcDbLine
 10
361.71875
 20
397.9999923706056
 11
361.71875
 21
358.2500076293946
  0
LINE
  5
1BB
100
AcDbEntity
  8
PCBs
  6
ByLayer
 62
  256
370
   -1
100
AcDbLine
 10
361.71875
 20
397.9999923706056
 11
361.71875
 21
358.2500053947966
  0
LINE
  5
1BC
100
AcDbEntity
  8
PCBs
  6
ByLayer
 62
  256
370
   -1
100
AcDbLine
 10
361.71875
 20
397.9999923706056
 11
361.71875
 21
358.2500053947966
  0
LINE
  5
1BD
100
AcDbEntity
  8
PCBs
  6
ByLayer
 62
  256
370
   -1
100
AcDbLine
 10
331.6875053947966
 20
356.25
 11
359.7187423706055
 21
356.25
  0
LINE
  5
1BE
100
AcDbEntity
  8
PCBs
  6
ByLayer
 62
  256
370
   -1
100
AcDbLine
 10
331.6875053947966
 20
356.2500000000001
 11
359.71875
 21
356.25
  0
LINE
  5
1BF
100
AcDbEntity
  8
PCBs
  6
ByLayer
 62
  256
370
   -1
100
AcDbLine
 10
331.6875053947966
 20
356.25
 11
359.7187446052035
 21
356.2499999999999
  0
ARC
  5
1C0
100
AcDbEntity
  8
PCBs
  6
ByLayer
 62
  256
370
   -1
100
AcDbCircle
 10
369.96875
 20
398
 40
2
100
AcDbArc
 50
90
 51
180
  0
ARC
  5
1C1
100
AcDbEntity
  8
PCBs
  6
ByLayer
 62
  256
370
   -1
100
AcDbCircle
 10
398
 20
398
 40
2
100
AcDbArc
 50
0
 51
90
  0
ARC
  5
1C2
100
AcDbEntity
  8
PCBs
  6
ByLayer
 62
  256
370
   -1
100
AcDbCircle
 10
369.96875
 20
358.25
 40
2
100
AcDbArc
 50
180
 51
270
  0
ARC
  5
1C3
100
AcDbEntity
  8
PCBs
  6
ByLayer
 62
  256
370
   -1
100
AcDbCircle
 10
398
 20
358.25
 40
2
100
AcDbArc
 50
270
 51
0
  0
LINE
  5
1C4
100
AcDbEntity
  8
PCBs
  6
ByLayer
 62
  256
370
   -1
100
AcDbLine
 10
369.9687500000001
 20
400
 11
398
 21
400
  0
LINE
  5
1C5
100
AcDbEntity
  8
PCBs
  6
ByLayer
 62
  256
370
   -1
100
AcDbLine
 10
369.9687500000001
 20
400
 11
397.9999923706056
 21
400.0000000000001
  0
LINE
  5
1C6
100
AcDbEntity
  8
PCBs
  6
ByLayer
 62
  256
370
   -1
100
AcDbLine
 10
369.9687500000001
 20
400
 11
397.9999923706056
 21
400.0000000000001
  0
LINE
  5
1C7
100
AcDbEntity
  8
PCBs
  6
ByLayer
 62
  256
370
   -1
100
AcDbLine
 10
367.96875
 20
397.9999892104072
 11
367.96875
 21
358.2499999999999
  0
LINE
  5
1C8
100
AcDbEntity
  8
PCBs
  6
ByLayer
 62
  256
370
   -1
100
AcDbLine
 10
367.96875
 20
397.9999946052034
 11
367.96875
 21
358.25
  0
LINE
  5
1C9
100
AcDbEntity
  8
PCBs
  6
ByLayer
 62
  256
370
   -1
100
AcDbLine
 10
367.96875
 20
397.9999892104072
 11
367.96875
 21
358.25
  0
LINE
  5
1CA
100
AcDbEntity
  8
PCBs
  6
ByLayer
 62
  256
370
   -1
100
AcDbLine
 10
400
 20
397.9999923706056
 11
400
 21
358.2500076293946
  0
LINE
  5
1CB
100
AcDbEntity
  8
PCBs
  6
ByLayer
 62
  256
370
   -1
100
AcDbLine
 10
400
 20
397.9999923706056
 11
400
 21
358.2500053947966
  0
LINE
  5
1CC
100
AcDbEntity
  8
PCBs
  6
ByLayer
 62
  256
370
   -1
100
AcDbLine
 10
400
 20
397.9999923706056
 11
400
 21
358.2500053947966
  0
LINE
  5
1CD
100
AcDbEntity
  8
PCBs
  6
ByLayer
 62
  256
370
   -1
100
AcDbLine
 10
369.9687553947966
 20
356.25
 11
397.9999923706055
 21
356.25
  0
LINE
  5
1CE
100
AcDbEntity
  8
PCBs
  6
ByLayer
 62
  256
370
   -1
100
AcDbLine
 10
369.9687553947966
 20
356.2500000000001
 11
398
 21
356.25
  0
LINE
  5
1CF
100
AcDbEntity
  8
PCBs
  6
ByLayer
 62
  256
370
   -1
100
AcDbLine
 10
369.9687553947966
 20
356.25
 11
397.9999946052035
 21
356.2499999999999
  0
INSERT
  5
1D0
100
AcDbEntity
  8
Pins
  6
ByLayer
 62
  256
370
   -1
100
AcDbBlockReference
  2
pin_10
 10
200
 20
190.13
 30
0
 41
1
 42
1
 43
0
 50
180
 70
    1
 71
    1
 44
1
 45
1
  0
INSERT
  5
1D1
100
AcDbEntity
  8
Pins
  6
ByLayer
 62
  256
370
   -1
100
AcDbBlockReference
  2
pin_10
 10
131.25
 20
190.13
 30
0
 41
1
 42
1
 43
0
 50
180
 70
    1
 71
    1
 44
1
 45
1
  0
INSERT
  5
1D2
100
AcDbEntity
  8
Pins
  6
ByLayer
 62
  256
370
   -1
100
AcDbBlockReference
  2
pin_10
 10
300
 20
190.13
 30
0
 41
-1
 42
1
 43
0
 50
180
 70
    1
 71
    1
 44
1
 45
1
  0
INSERT
  5
1D3
100
AcDbEntity
  8
Pins
  6
ByLayer
 62
  256
370
   -1
100
AcDbBlockReference
  2
pin_10
 10
368.75
 20
190.13
 30
0
 41
-1
 42
1
 43
0
 50
180
 70
    1
 71
    1
 44
1
 45
1
  0
INSERT
  5
1D4
100
AcDbEntity
  8
Pins
  6
ByLayer
 62
  256
370
   -1
100
AcDbBlockReference
  2
pin_2
 10
243.2550000000001
 20
140.13
 30
0
 41
1
 42
1
 43
0
 50
180
 70
    1
 71
    1
 44
1
 45
1
  0
INSERT
  5
1D5
100
AcDbEntity
  8
Pins
  6
ByLayer
 62
  256
370
   -1
100
AcDbBlockReference
  2
pin_2
 10
281.53625
 20
140.13
 30
0
 41
1
 42
1
 43
0
 50
180
 70
    1
 71
    1
 44
1
 45
1
  0
INSERT
  5
1D6
100
AcDbEntity
  8
Pins
  6
ByLayer
 62
  256
370
   -1
100
AcDbBlockReference
  2
pin_2
 10
204.9737500000001
 20
140.13
 30
0
 41
1
 42
1
 43
0
 50
180
 70
    1
 71
    1
 44
1
 45
1
  0
INSERT
  5
1D7
100
AcDbEntity
  8
Pins
  6
ByLayer
 62
  256
370
   -1
100
AcDbBlockReference
  2
pin_2
 10
166.6925000000001
 20
140.13
 30
0
 41
1
 42
1
 43
0
 50
180
 70
    1
 71
    1
 44
1
 45
1
  0
INSERT
  5
1D8
100
AcDbEntity
  8
Pins
  6
ByLayer
 62
  256
370
   -1
100
AcDbBlockReference
  2
pin_2
 10
128.4112500000001
 20
140.13
 30
0
 41
1
 42
1
 43
0
 50
180
 70
    1
 71
    1
 44
1
 45
1
  0
INSERT
  5
1D9
100
AcDbEntity
  8
Pins
  6
ByLayer
 62
  256
370
   -1
100
AcDbBlockReference
  2
pin_2
 10
319.8175
 20
140.13
 30
0
 41
1
 42
1
 43
0
 50
180
 70
    1
 71
    1
 44
1
 45
1
  0
INSERT
  5
1DA
100
AcDbEntity
  8
Pins
  6
ByLayer
 62
  256
370
   -1
100
AcDbBlockReference
  2
pin_2
 10
358.09875
 20
140.13
 30
0
 41
1
 42
1
 43
0
 50
180
 70
    1
 71
    1
 44
1
 45
1
  0
INSERT
  5
1DB
100
AcDbEntity
  8
Pins
  6
ByLayer
 62
  256
370
   -1
100
AcDbBlockReference
  2
pin_2
 10
396.38
 20
140.13
 30
0
 41
1
 42
1
 43
0
 50
180
 70
    1
 71
    1
 44
1
 45
1
  0
INSERT
  5
1DC
100
AcDbEntity
  8
Pins
  6
ByLayer
 62
  256
370
   -1
100
AcDbBlockReference
  2
pin_2
 10
371.58875
 20
140.13
 30
0
 41
-1
 42
1
 43
0
 50
180
 70
    1
 71
    1
 44
1
 45
1
  0
INSERT
  5
1DD
100
AcDbEntity
  8
Pins
  6
ByLayer
 62
  256
370
   -1
100
AcDbBlockReference
  2
pin_2
 10
333.3075
 20
140.13
 30
0
 41
-1
 42
1
 43
0
 50
180
 70
    1
 71
    1
 44
1
 45
1
  0
INSERT
  5
1DE
100
AcDbEntity
  8
Pins
  6
ByLayer
 62
  256
370
   -1
100
AcDbBlockReference
  2
pin_2
 10
295.02625
 20
140.13
 30
0
 41
-1
 42
1
 43
0
 50
180
 70
    1
 71
    1
 44
1
 45
1
  0
INSERT
  5
1DF
100
AcDbEntity
  8
Pins
  6
ByLayer
 62
  256
370
   -1
100
AcDbBlockReference
  2
pin_2
 10
256.745
 20
140.13
 30
0
 41
-1
 42
1
 43
0
 50
180
 70
    1
 71
    1
 44
1
 45
1
  0
INSERT
  5
1E0
100
AcDbEntity
  8
Pins
  6
ByLayer
 62
  256
370
   -1
100
AcDbBlockReference
  2
pin_2
 10
218.46375
 20
140.13
 30
0
 41
-1
 42
1
 43
0
 50
180
 70
    1
 71
    1
 44
1
 45
1
  0
INSERT
  5
1E1
100
AcDbEntity
  8
Pins
  6
ByLayer
 62
  256
370
   -1
100
AcDbBlockReference
  2
pin_2
 10
180.1825
 20
140.13
 30
0
 41
-1
 42
1
 43
0
 50
180
 70
    1
 71
    1
 44
1
 45
1
  0
INSERT
  5
1E2
100
AcDbEntity
  8
Pins
  6
ByLayer
 62
  256
370
   -1
100
AcDbBlockReference
  2
pin_2
 10
141.90125
 20
140.13
 30
0
 41
-1
 42
1
 43
0
 50
180
 70
    1
 71
    1
 44
1
 45
1
  0
INSERT
  5
1E3
100
AcDbEntity
  8
Pins
  6
ByLayer
 62
  256
370
   -1
100
AcDbBlockReference
  2
pin_2
 10
103.62
 20
140.13
 30
0
 41
-1
 42
1
 43
0
 50
180
 70
    1
 71
    1
 44
1
 45
1
  0
INSERT
  5
1E4
100
AcDbEntity
  8
Pins
  6
ByLayer
 62
  256
370
   -1
100
AcDbBlockReference
  2
pin_2
 10
243.2550000000001
 20
153.62
 30
0
 41
1
 42
1
 43
0
 50
180
 70
    1
 71
    1
 44
1
 45
1
  0
INSERT
  5
1E5
100
AcDbEntity
  8
Pins
  6
ByLayer
 62
  256
370
   -1
100
AcDbBlockReference
  2
pin_2
 10
281.53625
 20
153.62
 30
0
 41
1
 42
1
 43
0
 50
180
 70
    1
 71
    1
 44
1
 45
1
  0
INSERT
  5
1E6
100
AcDbEntity
  8
Pins
  6
ByLayer
 62
  256
370
   -1
100
AcDbBlockReference
  2
pin_2
 10
204.9737500000001
 20
153.62
 30
0
 41
1
 42
1
 43
0
 50
180
 70
    1
 71
    1
 44
1
 45
1
  0
INSERT
  5
1E7
100
AcDbEntity
  8
Pins
  6
ByLayer
 62
  256
370
   -1
100
AcDbBlockReference
  2
pin_2
 10
166.6925000000001
 20
153.62
 30
0
 41
1
 42
1
 43
0
 50
180
 70
    1
 71
    1
 44
1
 45
1
  0
INSERT
  5
1E8
100
AcDbEntity
  8
Pins
  6
ByLayer
 62
  256
370
   -1
100
AcDbBlockReference
  2
pin_2
 10
128.4112500000001
 20
153.62
 30
0
 41
1
 42
1
 43
0
 50
180
 70
    1
 71
    1
 44
1
 45
1
  0
INSERT
  5
1E9
100
AcDbEntity
  8
Pins
  6
ByLayer
 62
  256
370
   -1
100
AcDbBlockReference
  2
pin_2
 10
319.8175
 20
153.62
 30
0
 41
1
 42
1
 43
0
 50
180
 70
    1
 71
    1
 44
1
 45
1
  0
INSERT
  5
1EA
100
AcDbEntity
  8
Pins
  6
ByLayer
 62
  256
370
   -1
100
AcDbBlockReference
  2
pin_2
 10
358.09875
 20
153.62
 30
0
 41
1
 42
1
 43
0
 50
180
 70
    1
 71
    1
 44
1
 45
1
  0
INSERT
  5
1EB
100
AcDbEntity
  8
Pins
  6
ByLayer
 62
  256
370
   -1
100
AcDbBlockReference
  2
pin_2
 10
396.38
 20
153.62
 30
0
 41
1
 42
1
 43
0
 50
180
 70
    1
 71
    1
 44
1
 45
1
  0
INSERT
  5
1EC
100
AcDbEntity
  8
Pins
  6
ByLayer
 62
  256
370
   -1
100
AcDbBlockReference
  2
pin_2
 10
371.58875
 20
153.62
 30
0
 41
-1
 42
1
 43
0
 50
180
 70
    1
 71
    1
 44
1
 45
1
  0
INSERT
  5
1ED
100
AcDbEntity
  8
Pins
  6
ByLayer
 62
  256
370
   -1
100
AcDbBlockReference
  2
pin_2
 10
333.3075
 20
153.62
 30
0
 41
-1
 42
1
 43
0
 50
180
 70
    1
 71
    1
 44
1
 45
1
  0
INSERT
  5
1EE
100
AcDbEntity
  8
Pins
  6
ByLayer
 62
  256
370
   -1
100
AcDbBlockReference
  2
pin_2
 10
295.02625
 20
153.62
 30
0
 41
-1
 42
1
 43
0
 50
180
 70
    1
 71
    1
 44
1
 45
1
  0
INSERT
  5
1EF
100
AcDbEntity
  8
Pins
  6
ByLayer
 62
  256
370
   -1
100
AcDbBlockReference
  2
pin_2
 10
256.745
 20
153.62
 30
0
 41
-1
 42
1
 43
0
 50
180
 70
    1
 71
    1
 44
1
 45
1
  0
INSERT
  5
1F0
100
AcDbEntity
  8
Pins
  6
ByLayer
 62
  256
370
   -1
100
AcDbBlockReference
  2
pin_2
 10
218.46375
 20
153.62
 30
0
 41
-1
 42
1
 43
0
 50
180
 70
    1
 71
    1
 44
1
 45
1
  0
INSERT
  5
1F1
100
AcDbEntity
  8
Pins
  6
ByLayer
 62
  256
370
   -1
100
AcDbBlockReference
  2
pin_2
 10
180.1825
 20
153.62
 30
0
 41
-1
 42
1
 43
0
 50
180
 70
    1
 71
    1
 44
1
 45
1
  0
INSERT
  5
1F2
100
AcDbEntity
  8
Pins
  6
ByLayer
 62
  256
370
   -1
100
AcDbBlockReference
  2
pin_2
 10
141.90125
 20
153.62
 30
0
 41
-1
 42
1
 43
0
 50
180
 70
    1
 71
    1
 44
1
 45
1
  0
INSERT
  5
1F3
100
AcDbEntity
  8
Pins
  6
ByLayer
 62
  256
370
   -1
100
AcDbBlockReference
  2
pin_2
 10
103.62
 20
153.62
 30
0
 41
-1
 42
1
 43
0
 50
180
 70
    1
 71
    1
 44
1
 45
1
  0
INSERT
  5
1F4
100
AcDbEntity
  8
Pins
  6
ByLayer
 62
  256
370
   -1
100
AcDbBlockReference
  2
pin_2
 10
251.27
 20
190.13
 30
0
 41
1
 42
1
 43
0
 50
180
 70
    1
 71
    1
 44
1
 45
1
  0
ARC
  5
1F5
100
AcDbEntity
  8
PCBs
  6
ByLayer
 62
  256
370
   -1
100
AcDbCircle
 10
398
 20
102
 40
2
100
AcDbArc
 50
270
 51
360
  0
ARC
  5
1F6
100
AcDbEntity
  8
PCBs
  6
ByLayer
 62
  256
370
   -1
100
AcDbCircle
 10
369.96875
 20
102
 40
2
100
AcDbArc
 50
180
 51
270
  0
ARC
  5
1F7
100
AcDbEntity
  8
PCBs
  6
ByLayer
 62
  256
370
   -1
100
AcDbCircle
 10
398
 20
141.75
 40
2
100
AcDbArc
 50
360
 51
90
  0
ARC
  5
1F8
100
AcDbEntity
  8
PCBs
  6
ByLayer
 62
  256
370
   -1
100
AcDbCircle
 10
369.96875
 20
141.75
 40
2
100
AcDbArc
 50
90
 51
180
  0
LINE
  5
1F9
100
AcDbEntity
  8
PCBs
  6
ByLayer
 62
  256
370
   -1
100
AcDbLine
 10
397.9999999999999
 20
99.99999999999997
 11
369.96875
 21
99.99999999999997
  0
LINE
  5
1FA
100
AcDbEntity
  8
PCBs
  6
ByLayer
 62
  256
370
   -1
100
AcDbLine
 10
397.9999999999999
 20
99.99999999999997
 11
369.9687576293944
 21
99.99999999999991
  0
LINE
  5
1FB
100
AcDbEntity
  8
PCBs
  6
ByLayer
 62
  256
370
   -1
100
AcDbLine
 10
397.9999999999999
 20
99.99999999999997
 11
369.9687576293944
 21
99.99999999999991
  0
LINE
  5
1FC
100
AcDbEntity
  8
PCBs
  6
ByLayer
 62
  256
370
   -1
100
AcDbLine
 10
400
 20
102.0000107895928
 11
400
 21
141.7500000000001
  0
LINE
  5
1FD
100
AcDbEntity
  8
PCBs
  6
ByLayer
 62
  256
370
   -1
100
AcDbLine
 10
400
 20
102.0000053947965
 11
400
 21
141.75
  0
LINE
  5
1FE
100
AcDbEntity
  8
PCBs
  6
ByLayer
 62
  256
370
   -1
100
AcDbLine
 10
400
 20
102.0000107895928
 11
400
 21
141.75
  0
LINE
  5
1FF
100
AcDbEntity
  8
PCBs
  6
ByLayer
 62
  256
370
   -1
100
AcDbLine
 10
367.96875
 20
102.0000076293944
 11
367.96875
 21
141.7499923706054
  0
LINE
  5
200
100
AcDbEntity
  8
PCBs
  6
ByLayer
 62
  256
370
   -1
100
AcDbLine
 10
367.96875
 20
102.0000076293944
 11
367.96875
 21
141.7499946052034
  0
LINE
  5
201
100
AcDbEntity
  8
PCBs
  6
ByLayer
 62
  256
370
   -1
100
AcDbLine
 10
367.96875
 20
102.0000076293944
 11
367.96875
 21
141.7499946052034
  0
LINE
  5
202
100
AcDbEntity
  8
PCBs
  6
ByLayer
 62
  256
370
   -1
100
AcDbLine
 10
397.9999946052034
 20
143.75
 11
369.9687576293945
 21
143.75
  0
LINE
  5
203
100
AcDbEntity
  8
PCBs
  6
ByLayer
 62
  256
370
   -1
100
AcDbLine
 10
397.9999946052034
 20
143.7499999999999
 11
369.9687499999999
 21
143.75
  0
LINE
  5
204
100
AcDbEntity
  8
PCBs
  6
ByLayer
 62
  256
370
   -1
100
AcDbLine
 10
397.9999946052034
 20
143.75
 11
369.9687553947965
 21
143.7500000000001
  0
ARC
  5
205
100
AcDbEntity
  8
PCBs
  6
ByLayer
 62
  256
370
   -1
100
AcDbCircle
 10
398
 20
152
 40
2
100
AcDbArc
 50
270
 51
360
  0
ARC
  5
206
100
AcDbEntity
  8
PCBs
  6
ByLayer
 62
  256
370
   -1
100
AcDbCircle
 10
398
 20
191.75
 40
2
100
AcDbArc
 50
360
 51
90
  0
ARC
  5
207
100
AcDbEntity
  8
PCBs
  6
ByLayer
 62
  256
370
   -1
100
AcDbCircle
 10
239.5
 20
191.75
 40
2
100
AcDbArc
 50
90
 51
180
  0
ARC
  5
208
100
AcDbEntity
  8
PCBs
  6
ByLayer
 62
  256
370
   -1
100
AcDbCircle
 10
239.5
 20
152
 40
2
100
AcDbArc
 50
180
 51
270
  0
ARC
  5
209
100
AcDbEntity
  8
PCBs
  6
ByLayer
 62
  256
370
   -1
100
AcDbCircle
 10
229.25
 20
152
 40
2
100
AcDbArc
 50
270
 51
360
  0
ARC
  5
20A
100
AcDbEntity
  8
PCBs
  6
ByLayer
 62
  256
370
   -1
100
AcDbCircle
 10
229.25
 20
191.75
 40
2
100
AcDbArc
 50
360
 51
90
  0
ARC
  5
20B
100
AcDbEntity
  8
PCBs
  6
ByLayer
 62
  256
370
   -1
100
AcDbCircle
 10
102.0000000000001
 20
152
 40
2
100
AcDbArc
 50
180
 51
270
  0
ARC
  5
20C
100
AcDbEntity
  8
PCBs
  6
ByLayer
 62
  256
370
   -1
100
AcDbCircle
 10
102.0000000000001
 20
191.75
 40
2
100
AcDbArc
 50
90
 51
180
  0
LINE
  5
20D
100
AcDbEntity
  8
PCBs
  6
ByLayer
 62
  256
370
   -1
100
AcDbLine
 10
397.9999946052033
 20
150
 11
239.5000107895931
 21
150
  0
LINE
  5
20E
100
AcDbEntity
  8
PCBs
  6
ByLayer
 62
  256
370
   -1
100
AcDbLine
 10
398.0000000000001
 20
150
 11
239.5000107895931
 21
150
  0
LINE
  5
20F
100
AcDbEntity
  8
PCBs
  6
ByLayer
 62
  256
370
   -1
100
AcDbLine
 10
397.9999946052033
 20
150
 11
239.5000107895931
 21
150
  0
LINE
  5
210
100
AcDbEntity
  8
PCBs
  6
ByLayer
 62
  256
370
   -1
100
AcDbLine
 10
237.5
 20
152.0000107895929
 11
237.5
 21
191.7500000000001
  0
LINE
  5
211
100
AcDbEntity
  8
PCBs
  6
ByLayer
 62
  256
370
   -1
100
AcDbLine
 10
237.5
 20
152.0000076293945
 11
237.5
 21
191.7499923706054
  0
LINE
  5
212
100
AcDbEntity
  8
PCBs
  6
ByLayer
 62
  256
370
   -1
100
AcDbLine
 10
237.5
 20
152.0000107895929
 11
237.4999999999999
 21
191.7500076293945
  0
LINE
  5
213
100
AcDbEntity
  8
PCBs
  6
ByLayer
 62
  256
370
   -1
100
AcDbLine
 10
400
 20
152
 11
400
 21
191.7499946052035
  0
LINE
  5
214
100
AcDbEntity
  8
PCBs
  6
ByLayer
 62
  256
370
   -1
100
AcDbLine
 10
400
 20
152
 11
400
 21
191.7499946052035
  0
LINE
  5
215
100
AcDbEntity
  8
PCBs
  6
ByLayer
 62
  256
370
   -1
100
AcDbLine
 10
400
 20
152.0000053947965
 11
400
 21
191.75
  0
LINE
  5
216
100
AcDbEntity
  8
PCBs
  6
ByLayer
 62
  256
370
   -1
100
AcDbLine
 10
397.9999999999999
 20
193.75
 11
239.5000076293944
 21
193.7500000000001
  0
LINE
  5
217
100
AcDbEntity
  8
PCBs
  6
ByLayer
 62
  256
370
   -1
100
AcDbLine
 10
397.9999923706054
 20
193.75
 11
239.5000076293944
 21
193.7500000000001
  0
LINE
  5
218
100
AcDbEntity
  8
PCBs
  6
ByLayer
 62
  256
370
   -1
100
AcDbLine
 10
397.9999999999999
 20
193.75
 11
239.5000076293945
 21
193.75
  0
LINE
  5
219
100
AcDbEntity
  8
PCBs
  6
ByLayer
 62
  256
370
   -1
100
AcDbLine
 10
229.2499923706054
 20
150
 11
102.0000000000001
 21
149.9999999999999
  0
LINE
  5
21A
100
AcDbEntity
  8
PCBs
  6
ByLayer
 62
  256
370
   -1
100
AcDbLine
 10
229.2499867855011
 20
150
 11
102.0000152587887
 21
149.9999999999999
  0
LINE
  5
21B
100
AcDbEntity
  8
PCBs
  6
ByLayer
 62
  256
370
   -1
100
AcDbLine
 10
229.25
 20
149.9999999999999
 11
102.0000152587887
 21
150
  0
LINE
  5
21C
100
AcDbEntity
  8
PCBs
  6
ByLayer
 62
  256
370
   -1
100
AcDbLine
 10
100.0000000000001
 20
151.9999892104067
 11
100.0000000000001
 21
191.7499867855011
  0
LINE
  5
21D
100
AcDbEntity
  8
PCBs
  6
ByLayer
 62
  256
370
   -1
100
AcDbLine
 10
100.0000000000001
 20
152.000010789593
 11
100.0000000000001
 21
191.749986785501
  0
LINE
  5
21E
100
AcDbEntity
  8
PCBs
  6
ByLayer
 62
  256
370
   -1
100
AcDbLine
 10
100.0000000000001
 20
152.000010789593
 11
100.0000000000001
 21
191.7499892104068
  0
LINE
  5
21F
100
AcDbEntity
  8
PCBs
  6
ByLayer
 62
  256
370
   -1
100
AcDbLine
 10
231.25
 20
151.9999999999999
 11
231.25
 21
191.7499892104069
  0
LINE
  5
220
100
AcDbEntity
  8
PCBs
  6
ByLayer
 62
  256
370
   -1
100
AcDbLine
 10
231.25
 20
152.0000076293945
 11
231.25
 21
191.7499867855009
  0
LINE
  5
221
100
AcDbEntity
  8
PCBs
  6
ByLayer
 62
  256
370
   -1
100
AcDbLine
 10
231.25
 20
152.0000076293944
 11
231.2499999999999
 21
191.7499892104067
  0
LINE
  5
222
100
AcDbEntity
  8
PCBs
  6
ByLayer
 62
  256
370
   -1
100
AcDbLine
 10
102.0000076293945
 20
193.7500000000002
 11
229.2499892104067
 21
193.75
  0
LINE
  5
223
100
AcDbEntity
  8
PCBs
  6
ByLayer
 62
  256
370
   -1
100
AcDbLine
 10
102.0000076293945
 20
193.7500000000001
 11
229.2499892104069
 21
193.7500000000001
  0
LINE
  5
224
100
AcDbEntity
  8
PCBs
  6
ByLayer
 62
  256
370
   -1
100
AcDbLine
 10
102.0000107895931
 20
193.75
 11
229.2499892104069
 21
193.75
  0
ARC
  5
225
100
AcDbEntity
  8
PCBs
  6
ByLayer
 62
  256
370
   -1
100
AcDbCircle
 10
359.71875
 20
102
 40
2
100
AcDbArc
 50
270
 51
360
  0
ARC
  5
226
100
AcDbEntity
  8
PCBs
  6
ByLayer
 62
  256
370
   -1
100
AcDbCircle
 10
331.6875
 20
102
 40
2
100
AcDbArc
 50
180
 51
270
  0
ARC
  5
227
100
AcDbEntity
  8
PCBs
  6
ByLayer
 62
  256
370
   -1
100
AcDbCircle
 10
359.71875
 20
141.75
 40
2
100
AcDbArc
 50
360
 51
90
  0
ARC
  5
228
100
AcDbEntity
  8
PCBs
  6
ByLayer
 62
  256
370
   -1
100
AcDbCircle
 10
331.6875
 20
141.75
 40
2
100
AcDbArc
 50
90
 51
180
  0
LINE
  5
229
100
AcDbEntity
  8
PCBs
  6
ByLayer
 62
  256
370
   -1
100
AcDbLine
 10
359.7187499999999
 20
100
 11
331.6875
 21
100
  0
LINE
  5
22A
100
AcDbEntity
  8
PCBs
  6
ByLayer
 62
  256
370
   -1
100
AcDbLine
 10
359.7187499999999
 20
100
 11
331.6875076293944
 21
99.99999999999994
  0
LINE
  5
22B
100
AcDbEntity
  8
PCBs
  6
ByLayer
 62
  256
370
   -1
100
AcDbLine
 10
359.7187499999999
 20
100
 11
331.6875076293944
 21
99.99999999999994
  0
LINE
  5
22C
100
AcDbEntity
  8
PCBs
  6
ByLayer
 62
  256
370
   -1
100
AcDbLine
 10
361.71875
 20
102.0000107895928
 11
361.71875
 21
141.7500000000001
  0
LINE
  5
22D
100
AcDbEntity
  8
PCBs
  6
ByLayer
 62
  256
370
   -1
100
AcDbLine
 10
361.71875
 20
102.0000053947966
 11
361.71875
 21
141.75
  0
LINE
  5
22E
100
AcDbEntity
  8
PCBs
  6
ByLayer
 62
  256
370
   -1
100
AcDbLine
 10
361.71875
 20
102.0000107895928
 11
361.71875
 21
141.75
  0
LINE
  5
22F
100
AcDbEntity
  8
PCBs
  6
ByLayer
 62
  256
370
   -1
100
AcDbLine
 10
329.6875
 20
102.0000076293944
 11
329.6875
 21
141.7499923706054
  0
LINE
  5
230
100
AcDbEntity
  8
PCBs
  6
ByLayer
 62
  256
370
   -1
100
AcDbLine
 10
329.6875
 20
102.0000076293944
 11
329.6875
 21
141.7499946052034
  0
LINE
  5
231
100
AcDbEntity
  8
PCBs
  6
ByLayer
 62
  256
370
   -1
100
AcDbLine
 10
329.6875
 20
102.0000076293944
 11
329.6875
 21
141.7499946052034
  0
LINE
  5
232
100
AcDbEntity
  8
PCBs
  6
ByLayer
 62
  256
370
   -1
100
AcDbLine
 10
359.7187446052034
 20
143.75
 11
331.6875076293945
 21
143.75
  0
LINE
  5
233
100
AcDbEntity
  8
PCBs
  6
ByLayer
 62
  256
370
   -1
100
AcDbLine
 10
359.7187446052034
 20
143.7499999999999
 11
331.6874999999999
 21
143.75
  0
LINE
  5
234
100
AcDbEntity
  8
PCBs
  6
ByLayer
 62
  256
370
   -1
100
AcDbLine
 10
359.7187446052034
 20
143.75
 11
331.6875053947965
 21
143.7500000000001
  0
ARC
  5
235
100
AcDbEntity
  8
PCBs
  6
ByLayer
 62
  256
370
   -1
100
AcDbCircle
 10
321.4375
 20
102
 40
2
100
AcDbArc
 50
270
 51
360
  0
ARC
  5
236
100
AcDbEntity
  8
PCBs
  6
ByLayer
 62
  256
370
   -1
100
AcDbCircle
 10
293.40625
 20
102
 40
2
100
AcDbArc
 50
180
 51
270
  0
ARC
  5
237
100
AcDbEntity
  8
PCBs
  6
ByLayer
 62
  256
370
   -1
100
AcDbCircle
 10
321.4375
 20
141.75
 40
2
100
AcDbArc
 50
360
 51
90
  0
ARC
  5
238
100
AcDbEntity
  8
PCBs
  6
ByLayer
 62
  256
370
   -1
100
AcDbCircle
 10
293.40625
 20
141.75
 40
2
100
AcDbArc
 50
90
 51
180
  0
LINE
  5
239
100
AcDbEntity
  8
PCBs
  6
ByLayer
 62
  256
370
   -1
100
AcDbLine
 10
321.4374999999999
 20
100
 11
293.40625
 21
100
  0
LINE
  5
23A
100
AcDbEntity
  8
PCBs
  6
ByLayer
 62
  256
370
   -1
100
AcDbLine
 10
321.4374999999999
 20
100
 11
293.4062576293944
 21
99.99999999999994
  0
LINE
  5
23B
100
AcDbEntity
  8
PCBs
  6
ByLayer
 62
  256
370
   -1
100
AcDbLine
 10
321.4374999999999
 20
100
 11
293.4062576293944
 21
99.99999999999994
  0
LINE
  5
23C
100
AcDbEntity
  8
PCBs
  6
ByLayer
 62
  256
370
   -1
100
AcDbLine
 10
323.4375
 20
102.0000107895928
 11
323.4375
 21
141.7500000000001
  0
LINE
  5
23D
100
AcDbEntity
  8
PCBs
  6
ByLayer
 62
  256
370
   -1
100
AcDbLine
 10
323.4375
 20
102.0000053947966
 11
323.4375
 21
141.75
  0
LINE
  5
23E
100
AcDbEntity
  8
PCBs
  6
ByLayer
 62
  256
370
   -1
100
AcDbLine
 10
323.4375
 20
102.0000107895928
 11
323.4375
 21
141.75
  0
LINE
  5
23F
100
AcDbEntity
  8
PCBs
  6
ByLayer
 62
  256
370
   -1
100
AcDbLine
 10
291.40625
 20
102.0000076293944
 11
291.40625
 21
141.7499923706054
  0
LINE
  5
240
100
AcDbEntity
  8
PCBs
  6
ByLayer
 62
  256
370
   -1
100
AcDbLine
 10
291.40625
 20
102.0000076293944
 11
291.40625
 21
141.7499946052034
  0
LINE
  5
241
100
AcDbEntity
  8
PCBs
  6
ByLayer
 62
  256
370
   -1
100
AcDbLine
 10
291.40625
 20
102.0000076293944
 11
291.40625
 21
141.7499946052034
  0
LINE
  5
242
100
AcDbEntity
  8
PCBs
  6
ByLayer
 62
  256
370
   -1
100
AcDbLine
 10
321.4374946052034
 20
143.75
 11
293.4062576293945
 21
143.75
  0
LINE
  5
243
100
AcDbEntity
  8
PCBs
  6
ByLayer
 62
  256
370
   -1
100
AcDbLine
 10
321.4374946052034
 20
143.7499999999999
 11
293.4062499999999
 21
143.75
  0
LINE
  5
244
100
AcDbEntity
  8
PCBs
  6
ByLayer
 62
  256
370
   -1
100
AcDbLine
 10
321.4374946052034
 20
143.75
 11
293.4062553947965
 21
143.7500000000001
  0
ARC
  5
245
100
AcDbEntity
  8
PCBs
  6
ByLayer
 62
  256
370
   -1
100
AcDbCircle
 10
283.15625
 20
102
 40
2
100
AcDbArc
 50
270
 51
360
  0
ARC
  5
246
100
AcDbEntity
  8
PCBs
  6
ByLayer
 62
  256
370
   -1
100
AcDbCircle
 10
255.125
 20
102
 40
2
100
AcDbArc
 50
180
 51
270
  0
ARC
  5
247
100
AcDbEntity
  8
PCBs
  6
ByLayer
 62
  256
370
   -1
100
AcDbCircle
 10
283.15625
 20
141.75
 40
2
100
AcDbArc
 50
360
 51
90
  0
ARC
  5
248
100
AcDbEntity
  8
PCBs
  6
ByLayer
 62
  256
370
   -1
100
AcDbCircle
 10
255.125
 20
141.75
 40
2
100
AcDbArc
 50
90
 51
180
  0
LINE
  5
249
100
AcDbEntity
  8
PCBs
  6
ByLayer
 62
  256
370
   -1
100
AcDbLine
 10
283.1562499999999
 20
100
 11
255.125
 21
100
  0
LINE
  5
24A
100
AcDbEntity
  8
PCBs
  6
ByLayer
 62
  256
370
   -1
100
AcDbLine
 10
283.1562499999999
 20
100
 11
255.1250076293944
 21
99.99999999999994
  0
LINE
  5
24B
100
AcDbEntity
  8
PCBs
  6
ByLayer
 62
  256
370
   -1
100
AcDbLine
 10
283.1562499999999
 20
100
 11
255.1250076293944
 21
99.99999999999994
  0
LINE
  5
24C
100
AcDbEntity
  8
PCBs
  6
ByLayer
 62
  256
370
   -1
100
AcDbLine
 10
285.15625
 20
102.0000107895928
 11
285.15625
 21
141.7500000000001
  0
LINE
  5
24D
100
AcDbEntity
  8
PCBs
  6
ByLayer
 62
  256
370
   -1
100
AcDbLine
 10
285.15625
 20
102.0000053947966
 11
285.15625
 21
141.75
  0
LINE
  5
24E
100
AcDbEntity
  8
PCBs
  6
ByLayer
 62
  256
370
   -1
100
AcDbLine
 10
285.15625
 20
102.0000107895928
 11
285.15625
 21
141.75
  0
LINE
  5
24F
100
AcDbEntity
  8
PCBs
  6
ByLayer
 62
  256
370
   -1
100
AcDbLine
 10
253.125
 20
102.0000076293944
 11
253.125
 21
141.7499923706054
  0
LINE
  5
250
100
AcDbEntity
  8
PCBs
  6
ByLayer
 62
  256
370
   -1
100
AcDbLine
 10
253.125
 20
102.0000076293944
 11
253.125
 21
141.7499946052034
  0
LINE
  5
251
100
AcDbEntity
  8
PCBs
  6
ByLayer
 62
  256
370
   -1
100
AcDbLine
 10
253.125
 20
102.0000076293944
 11
253.125
 21
141.7499946052034
  0
LINE
  5
252
100
AcDbEntity
  8
PCBs
  6
ByLayer
 62
  256
370
   -1
100
AcDbLine
 10
283.1562446052034
 20
143.75
 11
255.1250076293945
 21
143.75
  0
LINE
  5
253
100
AcDbEntity
  8
PCBs
  6
ByLayer
 62
  256
370
   -1
100
AcDbLine
 10
283.1562446052034
 20
143.7499999999999
 11
255.125
 21
143.75
  0
LINE
  5
254
100
AcDbEntity
  8
PCBs
  6
ByLayer
 62
  256
370
   -1
100
AcDbLine
 10
283.1562446052034
 20
143.75
 11
255.1250053947965
 21
143.7500000000001
  0
ARC
  5
255
100
AcDbEntity
  8
PCBs
  6
ByLayer
 62
  256
370
   -1
100
AcDbCircle
 10
244.875
 20
102
 40
2
100
AcDbArc
 50
270
 51
360
  0
ARC
  5
256
100
AcDbEntity
  8
PCBs
  6
ByLayer
 62
  256
370
   -1
100
AcDbCircle
 10
216.84375
 20
102
 40
2
100
AcDbArc
 50
180
 51
270
  0
ARC
  5
257
100
AcDbEntity
  8
PCBs
  6
ByLayer
 62
  256
370
   -1
100
AcDbCircle
 10
244.875
 20
141.75
 40
2
100
AcDbArc
 50
360
 51
90
  0
ARC
  5
258
100
AcDbEntity
  8
PCBs
  6
ByLayer
 62
  256
370
   -1
100
AcDbCircle
 10
216.84375
 20
141.75
 40
2
100
AcDbArc
 50
90
 51
180
  0
LINE
  5
259
100
AcDbEntity
  8
PCBs
  6
ByLayer
 62
  256
370
   -1
100
AcDbLine
 10
244.8749999999999
 20
100
 11
216.84375
 21
100
  0
LINE
  5
25A
100
AcDbEntity
  8
PCBs
  6
ByLayer
 62
  256
370
   -1
100
AcDbLine
 10
244.8749999999999
 20
100
 11
216.8437576293944
 21
99.99999999999994
  0
LINE
  5
25B
100
AcDbEntity
  8
PCBs
  6
ByLayer
 62
  256
370
   -1
100
AcDbLine
 10
244.8749999999999
 20
100
 11
216.8437576293944
 21
99.99999999999994
  0
LINE
  5
25C
100
AcDbEntity
  8
PCBs
  6
ByLayer
 62
  256
370
   -1
100
AcDbLine
 10
246.875
 20
102.0000107895928
 11
246.875
 21
141.7500000000001
  0
LINE
  5
25D
100
AcDbEntity
  8
PCBs
  6
ByLayer
 62
  256
370
   -1
100
AcDbLine
 10
246.875
 20
102.0000053947966
 11
246.875
 21
141.75
  0
LINE
  5
25E
100
AcDbEntity
  8
PCBs
  6
ByLayer
 62
  256
370
   -1
100
AcDbLine
 10
246.875
 20
102.0000107895928
 11
246.875
 21
141.75
  0
LINE
  5
25F
100
AcDbEntity
  8
PCBs
  6
ByLayer
 62
  256
370
   -1
100
AcDbLine
 10
214.84375
 20
102.0000076293944
 11
214.84375
 21
141.7499923706054
  0
LINE
  5
260
100
AcDbEntity
  8
PCBs
  6
ByLayer
 62
  256
370
   -1
100
AcDbLine
 10
214.84375
 20
102.0000076293944
 11
214.84375
 21
141.7499946052034
  0
LINE
  5
261
100
AcDbEntity
  8
PCBs
  6
ByLayer
 62
  256
370
   -1
100
AcDbLine
 10
214.84375
 20
102.0000076293944
 11
214.84375
 21
141.7499946052034
  0
LINE
  5
262
100
AcDbEntity
  8
PCBs
  6
ByLayer
 62
  256
370
   -1
100
AcDbLine
 10
244.8749946052034
 20
143.75
 11
216.8437576293945
 21
143.75
  0
LINE
  5
263
100
AcDbEntity
  8
PCBs
  6
ByLayer
 62
  256
370
   -1
100
AcDbLine
 10
244.8749946052034
 20
143.7499999999999
 11
216.84375
 21
143.75
  0
LINE
  5
264
100
AcDbEntity
  8
PCBs
  6
ByLayer
 62
  256
370
   -1
100
AcDbLine
 10
244.8749946052034
 20
143.75
 11
216.8437553947965
 21
143.7500000000001
  0
ARC
  5
265
100
AcDbEntity
  8
PCBs
  6
ByLayer
 62
  256
370
   -1
100
AcDbCircle
 10
206.59375
 20
102
 40
2
100
AcDbArc
 50
270
 51
360
  0
ARC
  5
266
100
AcDbEntity
  8
PCBs
  6
ByLayer
 62
  256
370
   -1
100
AcDbCircle
 10
178.5625
 20
102
 40
2
100
AcDbArc
 50
180
 51
270
  0
ARC
  5
267
100
AcDbEntity
  8
PCBs
  6
ByLayer
 62
  256
370
   -1
100
AcDbCircle
 10
206.59375
 20
141.75
 40
2
100
AcDbArc
 50
360
 51
90
  0
ARC
  5
268
100
AcDbEntity
  8
PCBs
  6
ByLayer
 62
  256
370
   -1
100
AcDbCircle
 10
178.5625
 20
141.75
 40
2
100
AcDbArc
 50
90
 51
180
  0
LINE
  5
269
100
AcDbEntity
  8
PCBs
  6
ByLayer
 62
  256
370
   -1
100
AcDbLine
 10
206.5937499999999
 20
100
 11
178.5625
 21
100
  0
LINE
  5
26A
100
AcDbEntity
  8
PCBs
  6
ByLayer
 62
  256
370
   -1
100
AcDbLine
 10
206.5937499999999
 20
100
 11
178.5625076293944
 21
99.99999999999994
  0
LINE
  5
26B
100
AcDbEntity
  8
PCBs
  6
ByLayer
 62
  256
370
   -1
100
AcDbLine
 10
206.5937499999999
 20
100
 11
178.5625076293944
 21
99.99999999999994
  0
LINE
  5
26C
100
AcDbEntity
  8
PCBs
  6
ByLayer
 62
  256
370
   -1
100
AcDbLine
 10
208.59375
 20
102.0000107895928
 11
208.59375
 21
141.7500000000001
  0
LINE
  5
26D
100
AcDbEntity
  8
PCBs
  6
ByLayer
 62
  256
370
   -1
100
AcDbLine
 10
208.59375
 20
102.0000053947966
 11
208.59375
 21
141.75
  0
LINE
  5
26E
100
AcDbEntity
  8
PCBs
  6
ByLayer
 62
  256
370
   -1
100
AcDbLine
 10
208.59375
 20
102.0000107895928
 11
208.59375
 21
141.75
  0
LINE
  5
26F
100
AcDbEntity
  8
PCBs
  6
ByLayer
 62
  256
370
   -1
100
AcDbLine
 10
176.5625
 20
102.0000076293944
 11
176.5625
 21
141.7499923706054
  0
LINE
  5
270
100
AcDbEntity
  8
PCBs
  6
ByLayer
 62
  256
370
   -1
100
AcDbLine
 10
176.5625
 20
102.0000076293944
 11
176.5625
 21
141.7499946052034
  0
LINE
  5
271
100
AcDbEntity
  8
PCBs
  6
ByLayer
 62
  256
370
   -1
100
AcDbLine
 10
176.5625
 20
102.0000076293944
 11
176.5625
 21
141.7499946052034
  0
LINE
  5
272
100
AcDbEntity
  8
PCBs
  6
ByLayer
 62
  256
370
   -1
100
AcDbLine
 10
206.5937446052034
 20
143.75
 11
178.5625076293945
 21
143.75
  0
LINE
  5
273
100
AcDbEntity
  8
PCBs
  6
ByLayer
 62
  256
370
   -1
100
AcDbLine
 10
206.5937446052034
 20
143.7499999999999
 11
178.5625
 21
143.75
  0
LINE
  5
274
100
AcDbEntity
  8
PCBs
  6
ByLayer
 62
  256
370
   -1
100
AcDbLine
 10
206.5937446052034
 20
143.75
 11
178.5625053947965
 21
143.7500000000001
  0
ARC
  5
275
100
AcDbEntity
  8
PCBs
  6
ByLayer
 62
  256
370
   -1
100
AcDbCircle
 10
168.3125
 20
102
 40
2
100
AcDbArc
 50
270
 51
360
  0
ARC
  5
276
100
AcDbEntity
  8
PCBs
  6
ByLayer
 62
  256
370
   -1
100
AcDbCircle
 10
140.28125
 20
102
 40
2
100
AcDbArc
 50
180
 51
270
  0
ARC
  5
277
100
AcDbEntity
  8
PCBs
  6
ByLayer
 62
  256
370
   -1
100
AcDbCircle
 10
168.3125
 20
141.75
 40
2
100
AcDbArc
 50
360
 51
90
  0
ARC
  5
278
100
AcDbEntity
  8
PCBs
  6
ByLayer
 62
  256
370
   -1
100
AcDbCircle
 10
140.28125
 20
141.75
 40
2
100
AcDbArc
 50
90
 51
180
  0
LINE
  5
279
100
AcDbEntity
  8
PCBs
  6
ByLayer
 62
  256
370
   -1
100
AcDbLine
 10
168.3124999999999
 20
100
 11
140.28125
 21
100
  0
LINE
  5
27A
100
AcDbEntity
  8
PCBs
  6
ByLayer
 62
  256
370
   -1
100
AcDbLine
 10
168.3124999999999
 20
100
 11
140.2812576293944
 21
99.99999999999994
  0
LINE
  5
27B
100
AcDbEntity
  8
PCBs
  6
ByLayer
 62
  256
370
   -1
100
AcDbLine
 10
168.3124999999999
 20
100
 11
140.2812576293944
 21
99.99999999999994
  0
LINE
  5
27C
100
AcDbEntity
  8
PCBs
  6
ByLayer
 62
  256
370
   -1
100
AcDbLine
 10
170.3125
 20
102.0000107895928
 11
170.3125
 21
141.7500000000001
  0
LINE
  5
27D
100
AcDbEntity
  8
PCBs
  6
ByLayer
 62
  256
370
   -1
100
AcDbLine
 10
170.3125
 20
102.0000053947966
 11
170.3125
 21
141.75
  0
LINE
  5
27E
100
AcDbEntity
  8
PCBs
  6
ByLayer
 62
  256
370
   -1
100
AcDbLine
 10
170.3125
 20
102.0000107895928
 11
170.3125
 21
141.75
  0
LINE
  5
27F
100
AcDbEntity
  8
PCBs
  6
ByLayer
 62
  256
370
   -1
100
AcDbLine
 10
138.28125
 20
102.0000076293944
 11
138.28125
 21
141.7499923706054
  0
LINE
  5
280
100
AcDbEntity
  8
PCBs
  6
ByLayer
 62
  256
370
   -1
100
AcDbLine
 10
138.28125
 20
102.0000076293944
 11
138.28125
 21
141.7499946052034
  0
LINE
  5
281
100
AcDbEntity
  8
PCBs
  6
ByLayer
 62
  256
370
   -1
100
AcDbLine
 10
138.28125
 20
102.0000076293944
 11
138.28125
 21
141.7499946052034
  0
LINE
  5
282
100
AcDbEntity
  8
PCBs
  6
ByLayer
 62
  256
370
   -1
100
AcDbLine
 10
168.3124946052034
 20
143.75
 11
140.2812576293945
 21
143.75
  0
LINE
  5
283
100
AcDbEntity
  8
PCBs
  6
ByLayer
 62
  256
370
   -1
100
AcDbLine
 10
168.3124946052034
 20
143.7499999999999
 11
140.28125
 21
143.75
  0
LINE
  5
284
100
AcDbEntity
  8
PCBs
  6
ByLayer
 62
  256
370
   -1
100
AcDbLine
 10
168.3124946052034
 20
143.75
 11
140.2812553947965
 21
143.7500000000001
  0
ARC
  5
285
100
AcDbEntity
  8
PCBs
  6
ByLayer
 62
  256
370
   -1
100
AcDbCircle
 10
130.03125
 20
102
 40
2
100
AcDbArc
 50
270
 51
360
  0
ARC
  5
286
100
AcDbEntity
  8
PCBs
  6
ByLayer
 62
  256
370
   -1
100
AcDbCircle
 10
102
 20
102
 40
2
100
AcDbArc
 50
180
 51
270
  0
ARC
  5
287
100
AcDbEntity
  8
PCBs
  6
ByLayer
 62
  256
370
   -1
100
AcDbCircle
 10
130.03125
 20
141.75
 40
2
100
AcDbArc
 50
360
 51
90
  0
ARC
  5
288
100
AcDbEntity
  8
PCBs
  6
ByLayer
 62
  256
370
   -1
100
AcDbCircle
 10
102
 20
141.75
 40
2
100
AcDbArc
 50
90
 51
180
  0
LINE
  5
289
100
AcDbEntity
  8
PCBs
  6
ByLayer
 62
  256
370
   -1
100
AcDbLine
 10
130.0312499999999
 20
100
 11
102
 21
100
  0
LINE
  5
28A
100
AcDbEntity
  8
PCBs
  6
ByLayer
 62
  256
370
   -1
100
AcDbLine
 10
130.0312499999999
 20
100
 11
102.0000076293944
 21
99.99999999999997
  0
LINE
  5
28B
100
AcDbEntity
  8
PCBs
  6
ByLayer
 62
  256
370
   -1
100
AcDbLine
 10
130.0312499999999
 20
100
 11
102.0000076293944
 21
99.99999999999997
  0
LINE
  5
28C
100
AcDbEntity
  8
PCBs
  6
ByLayer
 62
  256
370
   -1
100
AcDbLine
 10
132.03125
 20
102.0000107895928
 11
132.03125
 21
141.7500000000001
  0
LINE
  5
28D
100
AcDbEntity
  8
PCBs
  6
ByLayer
 62
  256
370
   -1
100
AcDbLine
 10
132.03125
 20
102.0000053947966
 11
132.03125
 21
141.75
  0
LINE
  5
28E
100
AcDbEntity
  8
PCBs
  6
ByLayer
 62
  256
370
   -1
100
AcDbLine
 10
132.03125
 20
102.0000107895928
 11
132.03125
 21
141.75
  0
LINE
  5
28F
100
AcDbEntity
  8
PCBs
  6
ByLayer
 62
  256
370
   -1
100
AcDbLine
 10
99.99999999999997
 20
102.0000076293944
 11
100
 21
141.7499923706054
  0
LINE
  5
290
100
AcDbEntity
  8
PCBs
  6
ByLayer
 62
  256
370
   -1
100
AcDbLine
 10
99.99999999999997
 20
102.0000076293944
 11
100
 21
141.7499946052034
  0
LINE
  5
291
100
AcDbEntity
  8
PCBs
  6
ByLayer
 62
  256
370
   -1
100
AcDbLine
 10
99.99999999999997
 20
102.0000076293944
 11
100
 21
141.7499946052034
  0
LINE
  5
292
100
AcDbEntity
  8
PCBs
  6
ByLayer
 62
  256
370
   -1
100
AcDbLine
 10
130.0312446052034
 20
143.75
 11
102.0000076293945
 21
143.75
  0
LINE
  5
293
100
AcDbEntity
  8
PCBs
  6
ByLayer
 62
  256
370
   -1
100
AcDbLine
 10
130.0312446052034
 20
143.7499999999999
 11
102
 21
143.75
  0
LINE
  5
294
100
AcDbEntity
  8
PCBs
  6
ByLayer
 62
  256
370
   -1
100
AcDbLine
 10
130.0312446052034
 20
143.75
 11
102.0000053947965
 21
143.7500000000001
  0
LWPOLYLINE
  5
295
100
AcDbEntity
  8
Digit
  6
ByLayer
 62
  256
370
   -1
100
AcDbPolyline
 90
    4
 70
    1
 43
0
 10
245
 20
267.5
 10
255
 20
267.5
 10
255
 20
257.5
 10
245
 20
257.5
  0
LWPOLYLINE
  5
296
100
AcDbEntity
  8
Digit
  6
ByLayer
 62
  256
370
   -1
100
AcDbPolyline
 90
    4
 70
    1
 43
0
 10
242.5
 20
270
 10
257.5
 20
270
 10
257.5
 20
255
 10
242.5
 20
255
  0
LWPOLYLINE
  5
297
100
AcDbEntity
  8
Digit
  6
ByLayer
 62
  256
370
   -1
100
AcDbPolyline
 90
    4
 70
    1
 43
0
 10
245
 20
242.5
 10
255
 20
242.5
 10
255
 20
232.5
 10
245
 20
232.5
  0
LWPOLYLINE
  5
298
100
AcDbEntity
  8
Digit
  6
ByLayer
 62
  256
370
   -1
100
AcDbPolyline
 90
    4
 70
    1
 43
0
 10
242.5
 20
245
 10
257.5
 20
245
 10
257.5
 20
230
 10
242.5
 20
230
  0
INSERT
  5
299
100
AcDbEntity
  8
Pins
  6
ByLayer
 62
  256
370
   -1
100
AcDbBlockReference
  2
pin_3
 10
241.12
 20
270.02
 30
0
 41
1
 42
1
 43
0
 50
270
 70
    1
 71
    1
 44
1
 45
1
  0
INSERT
  5
29A
100
AcDbEntity
  8
Pins
  6
ByLayer
 62
  256
370
   -1
100
AcDbBlockReference
  2
pin_3
 10
258.88
 20
270.02
 30
0
 41
-1
 42
1
 43
0
 50
90
 70
    1
 71
    1
 44
1
 45
1
  0
INSERT
  5
29B
100
AcDbEntity
  8
Pins
  6
ByLayer
 62
  256
370
   -1
100
AcDbBlockReference
  2
pin_3
 10
241.12
 20
229.98
 30
0
 41
-1
 42
1
 43
0
 50
270
 70
    1
 71
    1
 44
1
 45
1
  0
INSERT
  5
29C
100
AcDbEntity
  8
Pins
  6
ByLayer
 62
  256
370
   -1
100
AcDbBlockReference
  2
pin_3
 10
258.88
 20
229.98
 30
0
 41
1
 42
1
 43
0
 50
90
 70
    1
 71
    1
 44
1
 45
1
  0
INSERT
  5
29D
100
AcDbEntity
  8
Pins
  6
ByLayer
 62
  256
370
   -1
100
AcDbBlockReference
  2
pin_3
 10
227.63
 20
270.02
 30
0
 41
-1
 42
1
 43
0
 50
90
 70
    1
 71
    1
 44
1
 45
1
  0
INSERT
  5
29E
100
AcDbEntity
  8
Pins
  6
ByLayer
 62
  256
370
   -1
100
AcDbBlockReference
  2
pin_3
 10
227.63
 20
229.98
 30
0
 41
1
 42
1
 43
0
 50
90
 70
    1
 71
    1
 44
1
 45
1
  0
INSERT
  5
29F
100
AcDbEntity
  8
Pins
  6
ByLayer
 62
  256
370
   -1
100
AcDbBlockReference
  2
pin_3
 10
172.37
 20
270.02
 30
0
 41
1
 42
1
 43
0
 50
270
 70
    1
 71
    1
 44
1
 45
1
  0
INSERT
  5
2A0
100
AcDbEntity
  8
Pins
  6
ByLayer
 62
  256
370
   -1
100
AcDbBlockReference
  2
pin_3
 10
172.37
 20
229.98
 30
0
 41
-1
 42
1
 43
0
 50
270
 70
    1
 71
    1
 44
1
 45
1
  0
INSERT
  5
2A1
100
AcDbEntity
  8
Pins
  6
ByLayer
 62
  256
370
   -1
100
AcDbBlockReference
  2
pin_3
 10
158.88
 20
270.02
 30
0
 41
-1
 42
1
 43
0
 50
90
 70
    1
 71
    1
 44
1
 45
1
  0
INSERT
  5
2A2
100
AcDbEntity
  8
Pins
  6
ByLayer
 62
  256
370
   -1
100
AcDbBlockReference
  2
pin_3
 10
158.88
 20
229.98
 30
0
 41
1
 42
1
 43
0
 50
90
 70
    1
 71
    1
 44
1
 45
1
  0
INSERT
  5
2A3
100
AcDbEntity
  8
Pins
  6
ByLayer
 62
  256
370
   -1
100
AcDbBlockReference
  2
pin_3
 10
103.62
 20
270.02
 30
0
 41
1
 42
1
 43
0
 50
270
 70
    1
 71
    1
 44
1
 45
1
  0
INSERT
  5
2A4
100
AcDbEntity
  8
Pins
  6
ByLayer
 62
  256
370
   -1
100
AcDbBlockReference
  2
pin_3
 10
103.62
 20
229.98
 30
0
 41
-1
 42
1
 43
0
 50
270
 70
    1
 71
    1
 44
1
 45
1
  0
INSERT
  5
2A5
100
AcDbEntity
  8
Pins
  6
ByLayer
 62
  256
370
   -1
100
AcDbBlockReference
  2
pin_3
 10
396.38
 20
270.02
 30
0
 41
-1
 42
1
 43
0
 50
90
 70
    1
 71
    1
 44
1
 45
1
  0
INSERT
  5
2A6
100
AcDbEntity
  8
Pins
  6
ByLayer
 62
  256
370
   -1
100
AcDbBlockReference
  2
pin_3
 10
396.38
 20
229.98
 30
0
 41
1
 42
1
 43
0
 50
90
 70
    1
 71
    1
 44
1
 45
1
  0
INSERT
  5
2A7
100
AcDbEntity
  8
Pins
  6
ByLayer
 62
  256
370
   -1
100
AcDbBlockReference
  2
pin_3
 10
341.12
 20
270.02
 30
0
 41
1
 42
1
 43
0
 50
270
 70
    1
 71
    1
 44
1
 45
1
  0
INSERT
  5
2A8
100
AcDbEntity
  8
Pins
  6
ByLayer
 62
  256
370
   -1
100
AcDbBlockReference
  2
pin_3
 10
341.12
 20
229.98
 30
0
 41
-1
 42
1
 43
0
 50
270
 70
    1
 71
    1
 44
1
 45
1
  0
INSERT
  5
2A9
100
AcDbEntity
  8
Pins
  6
ByLayer
 62
  256
370
   -1
100
AcDbBlockReference
  2
pin_3
 10
327.63
 20
270.02
 30
0
 41
-1
 42
1
 43
0
 50
90
 70
    1
 71
    1
 44
1
 45
1
  0
INSERT
  5
2AA
100
AcDbEntity
  8
Pins
  6
ByLayer
 62
  256
370
   -1
100
AcDbBlockReference
  2
pin_3
 10
327.63
 20
229.98
 30
0
 41
1
 42
1
 43
0
 50
90
 70
    1
 71
    1
 44
1
 45
1
  0
INSERT
  5
2AB
100
AcDbEntity
  8
Pins
  6
ByLayer
 62
  256
370
   -1
100
AcDbBlockReference
  2
pin_3
 10
272.37
 20
270.02
 30
0
 41
1
 42
1
 43
0
 50
270
 70
    1
 71
    1
 44
1
 45
1
  0
INSERT
  5
2AC
100
AcDbEntity
  8
Pins
  6
ByLayer
 62
  256
370
   -1
100
AcDbBlockReference
  2
pin_3
 10
272.37
 20
229.98
 30
0
 41
-1
 42
1
 43
0
 50
270
 70
    1
 71
    1
 44
1
 45
1
  0
INSERT
  5
2AD
100
AcDbEntity
  8
Pins
  6
ByLayer
 62
  256
370
   -1
100
AcDbBlockReference
  2
pin_10
 10
200
 20
309.87
 30
0
 41
-1
 42
1
 43
0
 50
0
 70
    1
 71
    1
 44
1
 45
1
  0
LINE
  5
2AE
100
AcDbEntity
  8
Signals
  6
ByLayer
 62
  256
370
   -1
100
AcDbLine
 10
380.18
 20
309.87
 11
380.18
 21
296.38
  0
LINE
  5
2AF
100
AcDbEntity
  8
Signals
  6
ByLayer
 62
  256
370
   -1
100
AcDbLine
 10
380.18
 20
296.38
 11
380.18
 21
203.62
  0
LINE
  5
2B0
100
AcDbEntity
  8
Signals
  6
ByLayer
 62
  256
370
   -1
100
AcDbLine
 10
380.18
 20
203.62
 11
380.18
 21
190.13
  0
LINE
  5
2B1
100
AcDbEntity
  8
Signals
  6
ByLayer
 62
  256
370
   -1
100
AcDbLine
 10
380.18
 20
190.13
 11
380
 21
180
  0
LINE
  5
2B2
100
AcDbEntity
  8
Signals
  6
ByLayer
 62
  256
370
   -1
100
AcDbLine
 10
380.18
 20
309.87
 11
380
 21
320
  0
LINE
  5
2B3
100
AcDbEntity
  8
Signals
  6
ByLayer
 62
  256
370
   -1
100
AcDbLine
 10
278.99625
 20
346.38
 11
278.99625
 21
359.87
  0
DIMENSION
  5
2B4
100
AcDbEntity
  8
help
  6
ByLayer
 62
  256
370
   -1
100
AcDbDimension
  2
*D2
 10
262.5
 20
420
 30
0
 11
181.25
 21
424.6875
 31
0
 70
   32
 71
    5
  3
Standard
 53
0
210
0
220
0
230
1
100
AcDbAlignedDimension
 13
100
 23
350
 33
0
 14
262.5
 24
350
 34
0
100
AcDbRotatedDimension
  0
DIMENSION
  5
2B5
100
AcDbEntity
  8
help
  6
ByLayer
 62
  256
370
   -1
100
AcDbDimension
  2
*D3
 10
399.9999999999999
 20
420
 30
0
 11
334.3749999999999
 21
424.6875
 31
0
 70
   32
 71
    5
  3
Standard
 53
0
210
0
220
0
230
1
100
AcDbAlignedDimension
 13
268.75
 23
350
 33
0
 14
399.9999999999999
 24
350
 34
0
100
AcDbRotatedDimension
  0
DIMENSION
  5
2B6
100
AcDbEntity
  8
help
  6
ByLayer
 62
  256
370
   -1
100
AcDbDimension
  2
*D4
 10
70
 20
280.7322330470336
 30
0
 11
65.3125
 21
285.01
 31
0
 70
   32
 71
    5
  3
Standard
 53
0
210
0
220
0
230
1
100
AcDbAlignedDimension
 13
100
 23
300
 33
0
 14
103.62
 24
270.02
 34
0
 50
90
100
AcDbRotatedDimension
  0
DIMENSION
  5
2B7
100
AcDbEntity
  8
help
  6
ByLayer
 62
  256
370
   -1
100
AcDbDimension
  2
*D5
 10
30
 20
251.7677669529664
 30
0
 11
25.3125
 21
251.81
 31
0
 70
   32
 71
    5
  3
Standard
 53
0
210
0
220
0
230
1
100
AcDbAlignedDimension
 13
100
 23
300
 33
0
 14
118.55
 24
203.62
 34
0
 50
90
100
AcDbRotatedDimension
  0
DIMENSION
  5
2B8
100
AcDbEntity
  8
help
  6
ByLayer
 62
  256
370
   -1
100
AcDbDimension
  2
*D6
 10
258.88
 20
328.1249907905063
 30
0
 11
190.09
 21
332.8124907905063
 31
0
 70
   32
 71
    5
 72
    0
  3
Standard
 53
0
210
0
220
0
230
1
100
AcDbAlignedDimension
 13
168.75
 23
300
 33
0
 14
211.43
 24
297.65
 34
0
100
AcDbRotatedDimension
  0
LINE
  5
2B9
100
AcDbEntity
  8
Signals
  6
ByLayer
 62
  256
370
   -1
100
AcDbLine
 10
279
 20
330
 11
278.99625
 21
346.38
  0
LINE
  5
2BA
100
AcDbEntity
  8
Signals
  6
ByLayer
 62
  256
370
   -1
100
AcDbLine
 10
311.43
 20
296.38
 11
311.43
 21
309.87
  0
LINE
  5
2BB
100
AcDbEntity
  8
Signals
  6
ByLayer
 62
  256
370
   -1
100
AcDbLine
 10
311.43
 20
203.62
 11
311.43
 21
190.13
  0
LINE
  5
2BC
100
AcDbEntity
  8
Signals
  6
ByLayer
 62
  256
370
   -1
100
AcDbLine
 10
272.37
 20
267.48
 11
311.43
 21
267.4780058653985
  0
LINE
  5
2BD
100
AcDbEntity
  8
Signals
  6
ByLayer
 62
  256
370
   -1
100
AcDbLine
 10
272.37
 20
232.52
 11
311.43
 21
232.5219941351551
  0
LINE
  5
2BE
100
AcDbEntity
  8
Signals
  6
ByLayer
 62
  256
370
   -1
100
AcDbLine
 10
311.43
 20
267.4780058653985
 11
311.43
 21
296.38
  0
LINE
  5
2BF
100
AcDbEntity
  8
Signals
  6
ByLayer
 62
  256
370
   -1
100
AcDbLine
 10
311.43
 20
232.5219941351551
 11
311.43
 21
203.62
  0
LINE
  5
2C0
100
AcDbEntity
  8
Signals
  6
ByLayer
 62
  256
370
   -1
100
AcDbLine
 10
272.37
 20
267.48
 11
258.88
 21
267.48
  0
LINE
  5
2C1
100
AcDbEntity
  8
Signals
  6
ByLayer
 62
  256
370
   -1
100
AcDbLine
 10
272.37
 20
232.52
 11
258.88
 21
232.52
  0
LINE
  5
2C2
100
AcDbEntity
  8
Signals
  6
ByLayer
 62
  256
370
   -1
100
AcDbLine
 10
211.43
 20
309.87
 11
211.43
 21
296.38
  0
LINE
  5
2C3
100
AcDbEntity
  8
Signals
  6
ByLayer
 62
  256
370
   -1
100
AcDbLine
 10
211.43
 20
296.38
 11
211.43
 21
203.62
  0
LINE
  5
2C4
100
AcDbEntity
  8
Signals
  6
ByLayer
 62
  256
370
   -1
100
AcDbLine
 10
211.43
 20
203.62
 11
211.43
 21
190.13
  0
LINE
  5
2C5
100
AcDbEntity
  8
Signals
  6
ByLayer
 62
  256
370
   -1
100
AcDbLine
 10
211.43
 20
190.13
 11
211
 21
180
  0
LINE
  5
2C6
100
AcDbEntity
  8
Signals
  6
ByLayer
 62
  256
370
   -1
100
AcDbLine
 10
211.43
 20
309.87
 11
211
 21
330
  0
LINE
  5
2C7
100
AcDbEntity
  8
Signals
  6
ByLayer
 62
  256
370
   -1
100
AcDbLine
 10
211
 20
330
 11
241
 21
330
  0
LINE
  5
2C8
100
AcDbEntity
  8
Signals
  6
ByLayer
 62
  256
370
   -1
100
AcDbLine
 10
241
 20
330
 11
240.715
 21
346.38
  0
LINE
  5
2C9
100
AcDbEntity
  8
Signals
  6
ByLayer
 62
  256
370
   -1
100
AcDbLine
 10
240.715
 20
346.38
 11
240.715
 21
359.87
  0
LINE
  5
2CA
100
AcDbEntity
  8
Signals
  6
ByLayer
 62
  256
370
   -1
100
AcDbLine
 10
240.715
 20
359.87
 11
241
 21
370
  0
LINE
  5
2CB
100
AcDbEntity
  8
Signals
  6
ByLayer
 62
  256
370
   -1
100
AcDbLine
 10
278.99625
 20
359.87
 11
279
 21
370
  0
LINE
  5
2CC
100
AcDbEntity
  8
Signals
  6
ByLayer
 62
  256
370
   -1
100
AcDbLine
 10
143
 20
320
 11
142.68
 21
309.87
  0
LINE
  5
2CD
100
AcDbEntity
  8
Signals
  6
ByLayer
 62
  256
370
   -1
100
AcDbLine
 10
142.68
 20
309.87
 11
142.68
 21
296.38
  0
LINE
  5
2CE
100
AcDbEntity
  8
Signals
  6
ByLayer
 62
  256
370
   -1
100
AcDbLine
 10
142.68
 20
296.38
 11
142.68
 21
203.62
  0
LINE
  5
2CF
100
AcDbEntity
  8
Signals
  6
ByLayer
 62
  256
370
   -1
100
AcDbLine
 10
142.68
 20
203.62
 11
142.68
 21
190.13
  0
LINE
  5
2D0
100
AcDbEntity
  8
Signals
  6
ByLayer
 62
  256
370
   -1
100
AcDbLine
 10
142.68
 20
190.13
 11
143
 21
180
  0
LINE
  5
2D1
100
AcDbEntity
  8
Signals
  6
ByLayer
 62
  256
370
   -1
100
AcDbLine
 10
335.8475
 20
153.62
 11
336
 21
170
  0
LINE
  5
2D2
100
AcDbEntity
  8
Signals
  6
ByLayer
 62
  256
370
   -1
100
AcDbLine
 10
336
 20
170
 11
312
 21
170
  0
LINE
  5
2D3
100
AcDbEntity
  8
Signals
  6
ByLayer
 62
  256
370
   -1
100
AcDbLine
 10
312
 20
170
 11
311.43
 21
190.13
  0
LINE
  5
2D4
100
AcDbEntity
  8
Signals
  6
ByLayer
 62
  256
370
   -1
100
AcDbLine
 10
335.8475
 20
153.62
 11
335.8475
 21
140.13
  0
LINE
  5
2D5
100
AcDbEntity
  8
Signals
  6
ByLayer
 62
  256
370
   -1
100
AcDbLine
 10
335.8475
 20
140.13
 11
336
 21
130
  0
LINE
  5
2D6
100
AcDbEntity
  8
Signals
  6
ByLayer
 62
  256
370
   -1
100
AcDbLine
 10
317.2775
 20
346.38
 11
317
 21
320
  0
LINE
  5
2D7
100
AcDbEntity
  8
Signals
  6
ByLayer
 62
  256
370
   -1
100
AcDbLine
 10
317
 20
320
 11
380
 21
320
  0
LINE
  5
2D8
100
AcDbEntity
  8
Signals
  6
ByLayer
 62
  256
370
   -1
100
AcDbLine
 10
317.2775
 20
346.38
 11
317.2775
 21
359.87
  0
LINE
  5
2D9
100
AcDbEntity
  8
Signals
  6
ByLayer
 62
  256
370
   -1
100
AcDbLine
 10
317.2775
 20
359.87
 11
317
 21
370
  0
LINE
  5
2DA
100
AcDbEntity
  8
Signals
  6
ByLayer
 62
  256
370
   -1
100
AcDbLine
 10
311.43
 20
309.87
 11
311
 21
330
  0
LINE
  5
2DB
100
AcDbEntity
  8
Signals
  6
ByLayer
 62
  256
370
   -1
100
AcDbLine
 10
311
 20
330
 11
355
 21
330
  0
LINE
  5
2DC
100
AcDbEntity
  8
Signals
  6
ByLayer
 62
  256
370
   -1
100
AcDbLine
 10
355
 20
330
 11
355.55875
 21
346.38
  0
LINE
  5
2DD
100
AcDbEntity
  8
Signals
  6
ByLayer
 62
  256
370
   -1
100
AcDbLine
 10
355.55875
 20
346.38
 11
355.55875
 21
359.87
  0
LINE
  5
2DE
100
AcDbEntity
  8
Signals
  6
ByLayer
 62
  256
370
   -1
100
AcDbLine
 10
355.55875
 20
359.87
 11
355
 21
370
  0
LINE
  5
2DF
100
AcDbEntity
  8
Signals
  6
ByLayer
 62
  256
370
   -1
100
AcDbLine
 10
144.44125
 20
140.13
 11
144.44125
 21
153.62
  0
LINE
  5
2E0
100
AcDbEntity
  8
Signals
  6
ByLayer
 62
  256
370
   -1
100
AcDbLine
 10
144.44125
 20
153.62
 11
144
 21
163
  0
LINE
  5
2E1
100
AcDbEntity
  8
Signals
  6
ByLayer
 62
  256
370
   -1
100
AcDbLine
 10
336
 20
130
 11
145
 21
130
  0
LINE
  5
2E2
100
AcDbEntity
  8
Signals
  6
ByLayer
 62
  256
370
   -1
100
AcDbLine
 10
145
 20
130
 11
144.44125
 21
140.13
  0
LINE
  5
2E3
100
AcDbEntity
  8
Signals
  6
ByLayer
 62
  256
370
   -1
100
AcDbLine
 10
258.88
 20
267.48
 11
252
 21
265
  0
LINE
  5
2E4
100
AcDbEntity
  8
Signals
  6
ByLayer
 62
  256
370
   -1
100
AcDbLine
 10
252
 20
265
 11
252
 21
235
  0
LINE
  5
2E5
100
AcDbEntity
  8
Signals
  6
ByLayer
 62
  256
370
   -1
100
AcDbLine
 10
252
 20
235
 11
258.88
 21
232.52
  0
LINE
  5
2E6
100
AcDbEntity
  8
Signals
  6
ByLayer
 62
  256
370
   -1
100
AcDbLine
 10
143
 20
180
 11
183
 21
180
  0
LINE
  5
2E7
100
AcDbEntity
  8
Signals
  6
ByLayer
 62
  256
370
   -1
100
AcDbLine
 10
183
 20
180
 11
182.7225
 21
153.62
  0
LINE
  5
2E8
100
AcDbEntity
  8
Signals
  6
ByLayer
 62
  256
370
   -1
100
AcDbLine
 10
182.7225
 20
153.62
 11
182.7225
 21
140.13
  0
LINE
  5
2E9
100
AcDbEntity
  8
Signals
  6
ByLayer
 62
  256
370
   -1
100
AcDbLine
 10
182.7225
 20
140.13
 11
183
 21
133
  0
LINE
  5
2EA
100
AcDbEntity
  8
Signals
  6
ByLayer
 62
  256
370
   -1
100
AcDbLine
 10
249
 20
289
 11
248.73
 21
296.38
  0
LINE
  5
2EB
100
AcDbEntity
  8
Signals
  6
ByLayer
 62
  256
370
   -1
100
AcDbLine
 10
248.73
 20
296.38
 11
248.73
 21
309.87
  0
LINE
  5
2EC
100
AcDbEntity
  8
Signals
  6
ByLayer
 62
  256
370
   -1
100
AcDbLine
 10
248.73
 20
309.87
 11
248
 21
320
  0
LINE
  5
2ED
100
AcDbEntity
  8
Signals
  6
ByLayer
 62
  256
370
   -1
100
AcDbLine
 10
248
 20
320
 11
203
 21
320
  0
LINE
  5
2EE
100
AcDbEntity
  8
Signals
  6
ByLayer
 62
  256
370
   -1
100
AcDbLine
 10
203
 20
320
 11
202.43375
 21
346.38
  0
LINE
  5
2EF
100
AcDbEntity
  8
Signals
  6
ByLayer
 62
  256
370
   -1
100
AcDbLine
 10
202.43375
 20
346.38
 11
202.43375
 21
359.87
  0
LINE
  5
2F0
100
AcDbEntity
  8
Signals
  6
ByLayer
 62
  256
370
   -1
100
AcDbLine
 10
202.43375
 20
359.87
 11
202
 21
370
  0
LINE
  5
2F1
100
AcDbEntity
  8
Signals
  6
ByLayer
 62
  256
370
   -1
100
AcDbLine
 10
298
 20
132
 11
297.56625
 21
140.13
  0
LINE
  5
2F2
100
AcDbEntity
  8
Signals
  6
ByLayer
 62
  256
370
   -1
100
AcDbLine
 10
297.56625
 20
140.13
 11
297.56625
 21
153.62
  0
LINE
  5
2F3
100
AcDbEntity
  8
Signals
  6
ByLayer
 62
  256
370
   -1
100
AcDbLine
 10
297.56625
 20
153.62
 11
298
 21
166
  0
LINE
  5
2F4
100
AcDbEntity
  8
Signals
  6
ByLayer
 62
  256
370
   -1
100
AcDbLine
 10
298
 20
166
 11
252
 21
166
  0
LINE
  5
2F5
100
AcDbEntity
  8
Signals
  6
ByLayer
 62
  256
370
   -1
100
AcDbLine
 10
252
 20
166
 11
251.27
 21
190.13
  0
LINE
  5
2F6
100
AcDbEntity
  8
Signals
  6
ByLayer
 62
  256
370
   -1
100
AcDbLine
 10
251.27
 20
190.13
 11
251.27
 21
203.6200000000001
  0
LINE
  5
2F7
100
AcDbEntity
  8
Signals
  6
ByLayer
 62
  256
370
   -1
100
AcDbLine
 10
251.27
 20
203.6200000000001
 11
251
 21
211
  0
MTEXT
  5
2F8
100
AcDbEntity
  8
Signals
  6
ByLayer
 62
  256
370
   -1
100
AcDbMText
 10
270
 20
170
 30
0
 40
5
 41
13.33333333333364
 71
    5
 72
    1
  1
CLK1
  7
standard
210
0
220
0
230
1
 50
0
 73
    2
 44
1
  0
MTEXT
  5
2F9
100
AcDbEntity
  8
Signals
  6
ByLayer
 62
  256
370
   -1
100
AcDbMText
 10
370
 20
180
 30
0
 40
5
 41
14.44444444444476
 71
    5
 72
    1
  1
CLK2
  7
standard
210
0
220
0
230
1
 50
0
 73
    2
 44
1
  0
MTEXT
  5
2FA
100
AcDbEntity
  8
Signals
  6
ByLayer
 62
  256
370
   -1
100
AcDbMText
 10
308.8888888888893
 20
375
 30
0
 40
5
 41
14.44444444444476
 71
    5
 72
    1
  1
CLK2
  7
standard
210
0
220
0
230
1
 50
0
 73
    2
 44
1
  0
MTEXT
  5
2FB
100
AcDbEntity
  8
Signals
  6
ByLayer
 62
  256
370
   -1
100
AcDbMText
 10
300
 20
320
 30
0
 40
5
 41
19.4444433844337
 71
    5
 72
    1
  1
RESET
  7
standard
210
0
220
0
230
1
 50
0
 73
    2
 44
1
  0
MTEXT
  5
2FC
100
AcDbEntity
  8
Signals
  6
ByLayer
 62
  256
370
   -1
100
AcDbMText
 10
300
 20
180
 30
0
 40
5
 41
19.4444433844337
 71
    5
 72
    1
  1
RESET
  7
standard
210
0
220
0
230
1
 50
0
 73
    2
 44
1
  0
MTEXT
  5
2FD
100
AcDbEntity
  8
Signals
  6
ByLayer
 62
  256
370
   -1
100
AcDbMText
 10
135
 20
323
 30
0
 40
5
 41
15.00000000000031
 71
    5
 72
    1
  1
CLK4
  7
standard
210
0
220
0
230
1
 50
0
 73
    2
 44
1
  0
MTEXT
  5
2FE
100
AcDbEntity
  8
Signals
  6
ByLayer
 62
  256
370
   -1
100
AcDbMText
 10
269.4444444444447
 20
382.5
 30
0
 40
5
 41
14.44444444444507
 71
    5
 72
    1
  1
CLK3
  7
standard
210
0
220
0
230
1
 50
0
 73
    2
 44
1
  0
LINE
  5
2FF
100
AcDbEntity
  8
Signals
  6
ByLayer
 62
  256
370
   -1
100
AcDbLine
 10
279
 20
370
 11
279
 21
377
  0
LINE
  5
300
100
AcDbEntity
  8
Signals
  6
ByLayer
 62
  256
370
   -1
100
AcDbLine
 10
279
 20
377
 11
202
 21
377
  0
LINE
  5
301
100
AcDbEntity
  8
Signals
  6
ByLayer
 62
  256
370
   -1
100
AcDbLine
 10
202
 20
377
 11
202
 21
370
  0
MTEXT
  5
302
100
AcDbEntity
  8
Signals
  6
ByLayer
 62
  256
370
   -1
100
AcDbMText
 10
233
 20
335
 30
0
 40
5
 41
9.444444444444756
 71
    5
 72
    1
  1
!QD
  7
standard
210
0
220
0
230
1
 50
0
 73
    2
 44
1
  0
LINE
  5
303
100
AcDbEntity
  8
Digit
  6
ByLayer
 62
  256
370
   -1
100
AcDbLine
 10
181.25
 20
285.7322330470336
 11
186.25
 21
280.7322330470336
  0
LINE
  5
304
100
AcDbEntity
  8
Digit
  6
ByLayer
 62
  256
370
   -1
100
AcDbLine
 10
176.25
 20
280.7322330470336
 11
181.25
 21
285.7322330470336
  0
LINE
  5
305
100
AcDbEntity
  8
Digit
  6
ByLayer
 62
  256
370
   -1
100
AcDbLine
 10
176.25
 20
256.7677669529664
 11
176.25
 21
280.7322330470336
  0
LINE
  5
306
100
AcDbEntity
  8
Digit
  6
ByLayer
 62
  256
370
   -1
100
AcDbLine
 10
181.25
 20
251.7677669529664
 11
176.25
 21
256.7677669529664
  0
LINE
  5
307
100
AcDbEntity
  8
Digit
  6
ByLayer
 62
  256
370
   -1
100
AcDbLine
 10
181.25
 20
251.7677669529664
 11
186.25
 21
256.7677669529664
  0
LINE
  5
308
100
AcDbEntity
  8
Digit
  6
ByLayer
 62
  256
370
   -1
100
AcDbLine
 10
186.25
 20
280.7322330470336
 11
186.25
 21
256.7677669529664
  0
LINE
  5
309
100
AcDbEntity
  8
Digit
  6
ByLayer
 62
  256
370
   -1
100
AcDbLine
 10
183.0177669529664
 20
250
 11
188.0177669529664
 21
255
  0
LINE
  5
30A
100
AcDbEntity
  8
Digit
  6
ByLayer
 62
  256
370
   -1
100
AcDbLine
 10
188.0177669529664
 20
245
 11
183.0177669529664
 21
250
  0
LINE
  5
30B
100
AcDbEntity
  8
Digit
  6
ByLayer
 62
  256
370
   -1
100
AcDbLine
 10
211.9822330470336
 20
245
 11
188.0177669529664
 21
245
  0
LINE
  5
30C
100
AcDbEntity
  8
Digit
  6
ByLayer
 62
  256
370
   -1
100
AcDbLine
 10
188.0177669529664
 20
255
 11
211.9822330470336
 21
255
  0
LINE
  5
30D
100
AcDbEntity
  8
Digit
  6
ByLayer
 62
  256
370
   -1
100
AcDbLine
 10
216.9822330470336
 20
250
 11
211.9822330470336
 21
245
  0
LINE
  5
30E
100
AcDbEntity
  8
Digit
  6
ByLayer
 62
  256
370
   -1
100
AcDbLine
 10
211.9822330470336
 20
255
 11
216.9822330470336
 21
250
  0
LINE
  5
30F
100
AcDbEntity
  8
Digit
  6
ByLayer
 62
  256
370
   -1
100
AcDbLine
 10
173.75
 20
281.7677669529664
 11
180.3661165235168
 21
288.3838834764832
  0
LINE
  5
310
100
AcDbEntity
  8
Digit
  6
ByLayer
 62
  256
370
   -1
100
AcDbLine
 10
173.75
 20
255.7322330470336
 11
173.75
 21
281.7677669529664
  0
LINE
  5
311
100
AcDbEntity
  8
Digit
  6
ByLayer
 62
  256
370
   -1
100
AcDbLine
 10
183.0177669529664
 20
287.5
 11
188.0177669529664
 21
282.5
  0
LINE
  5
312
100
AcDbEntity
  8
Digit
  6
ByLayer
 62
  256
370
   -1
100
AcDbLine
 10
188.0177669529664
 20
292.5
 11
183.0177669529664
 21
287.5
  0
LINE
  5
313
100
AcDbEntity
  8
Digit
  6
ByLayer
 62
  256
370
   -1
100
AcDbLine
 10
211.9822330470336
 20
292.5
 11
188.0177669529664
 21
292.5
  0
LINE
  5
314
100
AcDbEntity
  8
Digit
  6
ByLayer
 62
  256
370
   -1
100
AcDbLine
 10
216.9822330470336
 20
287.5
 11
211.9822330470336
 21
292.5
  0
LINE
  5
315
100
AcDbEntity
  8
Digit
  6
ByLayer
 62
  256
370
   -1
100
AcDbLine
 10
216.9822330470336
 20
287.5
 11
211.9822330470336
 21
282.5
  0
LINE
  5
316
100
AcDbEntity
  8
Digit
  6
ByLayer
 62
  256
370
   -1
100
AcDbLine
 10
188.0177669529664
 20
282.5
 11
211.9822330470336
 21
282.5
  0
LINE
  5
317
100
AcDbEntity
  8
Digit
  6
ByLayer
 62
  256
370
   -1
100
AcDbLine
 10
218.75
 20
285.7322330470336
 11
213.75
 21
280.7322330470336
  0
LINE
  5
318
100
AcDbEntity
  8
Digit
  6
ByLayer
 62
  256
370
   -1
100
AcDbLine
 10
223.75
 20
280.7322330470336
 11
218.75
 21
285.7322330470336
  0
LINE
  5
319
100
AcDbEntity
  8
Digit
  6
ByLayer
 62
  256
370
   -1
100
AcDbLine
 10
223.75
 20
256.7677669529664
 11
223.75
 21
280.7322330470336
  0
LINE
  5
31A
100
AcDbEntity
  8
Digit
  6
ByLayer
 62
  256
370
   -1
100
AcDbLine
 10
213.75
 20
280.7322330470336
 11
213.75
 21
256.7677669529664
  0
LINE
  5
31B
100
AcDbEntity
  8
Digit
  6
ByLayer
 62
  256
370
   -1
100
AcDbLine
 10
218.75
 20
251.7677669529664
 11
223.75
 21
256.7677669529664
  0
LINE
  5
31C
100
AcDbEntity
  8
Digit
  6
ByLayer
 62
  256
370
   -1
100
AcDbLine
 10
213.75
 20
256.7677669529664
 11
218.75
 21
251.7677669529664
  0
LINE
  5
31D
100
AcDbEntity
  8
Digit
  6
ByLayer
 62
  256
370
   -1
100
AcDbLine
 10
186.9822330470336
 20
295
 11
180.3661165235168
 21
288.3838834764832
  0
LINE
  5
31E
100
AcDbEntity
  8
Digit
  6
ByLayer
 62
  256
370
   -1
100
AcDbLine
 10
213.0177669529664
 20
295
 11
186.9822330470336
 21
295
  0
LINE
  5
31F
100
AcDbEntity
  8
Digit
  6
ByLayer
 62
  256
370
   -1
100
AcDbLine
 10
219.6338834764832
 20
288.3838834764832
 11
213.0177669529664
 21
295
  0
LINE
  5
320
100
AcDbEntity
  8
Digit
  6
ByLayer
 62
  256
370
   -1
100
AcDbLine
 10
226.25
 20
281.7677669529664
 11
219.6338834764832
 21
288.3838834764832
  0
LINE
  5
321
100
AcDbEntity
  8
Digit
  6
ByLayer
 62
  256
370
   -1
100
AcDbLine
 10
226.25
 20
255.7322330470336
 11
226.25
 21
281.7677669529664
  0
LINE
  5
322
100
AcDbEntity
  8
Digit
  6
ByLayer
 62
  256
370
   -1
100
AcDbLine
 10
188.75
 20
280
 11
211.25
 21
280
  0
LINE
  5
323
100
AcDbEntity
  8
Digit
  6
ByLayer
 62
  256
370
   -1
100
AcDbLine
 10
188.75
 20
280
 11
188.75
 21
257.5
  0
LINE
  5
324
100
AcDbEntity
  8
Digit
  6
ByLayer
 62
  256
370
   -1
100
AcDbLine
 10
211.25
 20
280
 11
211.25
 21
257.5
  0
LINE
  5
325
100
AcDbEntity
  8
Digit
  6
ByLayer
 62
  256
370
   -1
100
AcDbLine
 10
188.75
 20
257.5
 11
211.25
 21
257.5
  0
LINE
  5
326
100
AcDbEntity
  8
Digit
  6
ByLayer
 62
  256
370
   -1
100
AcDbLine
 10
181.25
 20
214.2677669529664
 11
186.25
 21
219.2677669529664
  0
LINE
  5
327
100
AcDbEntity
  8
Digit
  6
ByLayer
 62
  256
370
   -1
100
AcDbLine
 10
176.25
 20
219.2677669529664
 11
181.25
 21
214.2677669529664
  0
LINE
  5
328
100
AcDbEntity
  8
Digit
  6
ByLayer
 62
  256
370
   -1
100
AcDbLine
 10
176.25
 20
243.2322330470336
 11
176.25
 21
219.2677669529664
  0
LINE
  5
329
100
AcDbEntity
  8
Digit
  6
ByLayer
 62
  256
370
   -1
100
AcDbLine
 10
181.25
 20
248.2322330470336
 11
176.25
 21
243.2322330470336
  0
LINE
  5
32A
100
AcDbEntity
  8
Digit
  6
ByLayer
 62
  256
370
   -1
100
AcDbLine
 10
181.25
 20
248.2322330470336
 11
186.25
 21
243.2322330470336
  0
LINE
  5
32B
100
AcDbEntity
  8
Digit
  6
ByLayer
 62
  256
370
   -1
100
AcDbLine
 10
186.25
 20
219.2677669529664
 11
186.25
 21
243.2322330470336
  0
LINE
  5
32C
100
AcDbEntity
  8
Digit
  6
ByLayer
 62
  256
370
   -1
100
AcDbLine
 10
173.75
 20
218.2322330470336
 11
180.3661165235168
 21
211.6161165235168
  0
LINE
  5
32D
100
AcDbEntity
  8
Digit
  6
ByLayer
 62
  256
370
   -1
100
AcDbLine
 10
173.75
 20
244.2677669529664
 11
173.75
 21
218.2322330470336
  0
LINE
  5
32E
100
AcDbEntity
  8
Digit
  6
ByLayer
 62
  256
370
   -1
100
AcDbLine
 10
183.0177669529664
 20
212.5
 11
188.0177669529664
 21
217.5
  0
LINE
  5
32F
100
AcDbEntity
  8
Digit
  6
ByLayer
 62
  256
370
   -1
100
AcDbLine
 10
188.0177669529664
 20
207.5
 11
183.0177669529664
 21
212.5
  0
LINE
  5
330
100
AcDbEntity
  8
Digit
  6
ByLayer
 62
  256
370
   -1
100
AcDbLine
 10
211.9822330470336
 20
207.5
 11
188.0177669529664
 21
207.5
  0
LINE
  5
331
100
AcDbEntity
  8
Digit
  6
ByLayer
 62
  256
370
   -1
100
AcDbLine
 10
216.9822330470336
 20
212.5
 11
211.9822330470336
 21
207.5
  0
LINE
  5
332
100
AcDbEntity
  8
Digit
  6
ByLayer
 62
  256
370
   -1
100
AcDbLine
 10
216.9822330470336
 20
212.5
 11
211.9822330470336
 21
217.5
  0
LINE
  5
333
100
AcDbEntity
  8
Digit
  6
ByLayer
 62
  256
370
   -1
100
AcDbLine
 10
188.0177669529664
 20
217.5
 11
211.9822330470336
 21
217.5
  0
LINE
  5
334
100
AcDbEntity
  8
Digit
  6
ByLayer
 62
  256
370
   -1
100
AcDbLine
 10
218.75
 20
214.2677669529664
 11
213.75
 21
219.2677669529664
  0
LINE
  5
335
100
AcDbEntity
  8
Digit
  6
ByLayer
 62
  256
370
   -1
100
AcDbLine
 10
223.75
 20
219.2677669529664
 11
218.75
 21
214.2677669529664
  0
LINE
  5
336
100
AcDbEntity
  8
Digit
  6
ByLayer
 62
  256
370
   -1
100
AcDbLine
 10
223.75
 20
243.2322330470336
 11
223.75
 21
219.2677669529664
  0
LINE
  5
337
100
AcDbEntity
  8
Digit
  6
ByLayer
 62
  256
370
   -1
100
AcDbLine
 10
213.75
 20
219.2677669529664
 11
213.75
 21
243.2322330470336
  0
LINE
  5
338
100
AcDbEntity
  8
Digit
  6
ByLayer
 62
  256
370
   -1
100
AcDbLine
 10
218.75
 20
248.2322330470336
 11
223.75
 21
243.2322330470336
  0
LINE
  5
339
100
AcDbEntity
  8
Digit
  6
ByLayer
 62
  256
370
   -1
100
AcDbLine
 10
213.75
 20
243.2322330470336
 11
218.75
 21
248.2322330470336
  0
LINE
  5
33A
100
AcDbEntity
  8
Digit
  6
ByLayer
 62
  256
370
   -1
100
AcDbLine
 10
186.9822330470336
 20
205
 11
180.3661165235168
 21
211.6161165235168
  0
LINE
  5
33B
100
AcDbEntity
  8
Digit
  6
ByLayer
 62
  256
370
   -1
100
AcDbLine
 10
213.0177669529664
 20
205
 11
186.9822330470336
 21
205
  0
LINE
  5
33C
100
AcDbEntity
  8
Digit
  6
ByLayer
 62
  256
370
   -1
100
AcDbLine
 10
219.6338834764832
 20
211.6161165235168
 11
213.0177669529664
 21
205
  0
LINE
  5
33D
100
AcDbEntity
  8
Digit
  6
ByLayer
 62
  256
370
   -1
100
AcDbLine
 10
226.25
 20
218.2322330470336
 11
219.6338834764832
 21
211.6161165235168
  0
LINE
  5
33E
100
AcDbEntity
  8
Digit
  6
ByLayer
 62
  256
370
   -1
100
AcDbLine
 10
226.25
 20
244.2677669529664
 11
226.25
 21
218.2322330470336
  0
LINE
  5
33F
100
AcDbEntity
  8
Digit
  6
ByLayer
 62
  256
370
   -1
100
AcDbLine
 10
188.75
 20
220
 11
211.25
 21
220
  0
LINE
  5
340
100
AcDbEntity
  8
Digit
  6
ByLayer
 62
  256
370
   -1
100
AcDbLine
 10
188.75
 20
220
 11
188.75
 21
242.5
  0
LINE
  5
341
100
AcDbEntity
  8
Digit
  6
ByLayer
 62
  256
370
   -1
100
AcDbLine
 10
211.25
 20
220
 11
211.25
 21
242.5
  0
LINE
  5
342
100
AcDbEntity
  8
Digit
  6
ByLayer
 62
  256
370
   -1
100
AcDbLine
 10
188.75
 20
242.5
 11
211.25
 21
242.5
  0
LINE
  5
343
100
AcDbEntity
  8
Digit
  6
ByLayer
 62
  256
370
   -1
100
AcDbLine
 10
179.4822330470336
 20
250
 11
173.75
 21
255.7322330470336
  0
LINE
  5
344
100
AcDbEntity
  8
Digit
  6
ByLayer
 62
  256
370
   -1
100
AcDbLine
 10
179.4822330470336
 20
250
 11
173.75
 21
244.2677669529664
  0
LINE
  5
345
100
AcDbEntity
  8
Digit
  6
ByLayer
 62
  256
370
   -1
100
AcDbLine
 10
220.5177669529664
 20
250
 11
226.25
 21
255.7322330470336
  0
LINE
  5
346
100
AcDbEntity
  8
Digit
  6
ByLayer
 62
  256
370
   -1
100
AcDbLine
 10
220.5177669529664
 20
250
 11
226.25
 21
244.2677669529664
  0
ARC
  5
347
100
AcDbEntity
  8
PCBs
  6
ByLayer
 62
  256
370
   -1
100
AcDbCircle
 10
171.25
 20
297.5
 40
2.5
100
AcDbArc
 50
90
 51
180
  0
ARC
  5
348
100
AcDbEntity
  8
PCBs
  6
ByLayer
 62
  256
370
   -1
100
AcDbCircle
 10
228.75
 20
297.5
 40
2.5
100
AcDbArc
 50
0
 51
90
  0
ARC
  5
349
100
AcDbEntity
  8
PCBs
  6
ByLayer
 62
  256
370
   -1
100
AcDbCircle
 10
228.75
 20
202.5
 40
2.5
100
AcDbArc
 50
270
 51
0
  0
ARC
  5
34A
100
AcDbEntity
  8
PCBs
  6
ByLayer
 62
  256
370
   -1
100
AcDbCircle
 10
171.25
 20
202.5
 40
2.5
100
AcDbArc
 50
180
 51
270
  0
LINE
  5
34B
100
AcDbEntity
  8
PCBs
  6
ByLayer
 62
  256
370
   -1
100
AcDbLine
 10
171.2500016858739
 20
200
 11
228.75
 21
200
  0
LINE
  5
34C
100
AcDbEntity
  8
PCBs
  6
ByLayer
 62
  256
370
   -1
100
AcDbLine
 10
168.75
 20
297.5
 11
168.75
 21
202.5000011920929
  0
LINE
  5
34D
100
AcDbEntity
  8
PCBs
  6
ByLayer
 62
  256
370
   -1
100
AcDbLine
 10
231.25
 20
202.5
 11
231.25
 21
297.499999157063
  0
LINE
  5
34E
100
AcDbEntity
  8
PCBs
  6
ByLayer
 62
  256
370
   -1
100
AcDbLine
 10
228.7499988079071
 20
300
 11
171.2500005161914
 21
300
  0
LINE
  5
34F
100
AcDbEntity
  8
Digit
  6
ByLayer
 62
  256
370
   -1
100
AcDbLine
 10
281.25
 20
285.7322330470336
 11
286.25
 21
280.7322330470336
  0
LINE
  5
350
100
AcDbEntity
  8
Digit
  6
ByLayer
 62
  256
370
   -1
100
AcDbLine
 10
276.25
 20
280.7322330470336
 11
281.25
 21
285.7322330470336
  0
LINE
  5
351
100
AcDbEntity
  8
Digit
  6
ByLayer
 62
  256
370
   -1
100
AcDbLine
 10
276.25
 20
256.7677669529664
 11
276.25
 21
280.7322330470336
  0
LINE
  5
352
100
AcDbEntity
  8
Digit
  6
ByLayer
 62
  256
370
   -1
100
AcDbLine
 10
281.25
 20
251.7677669529664
 11
276.25
 21
256.7677669529664
  0
LINE
  5
353
100
AcDbEntity
  8
Digit
  6
ByLayer
 62
  256
370
   -1
100
AcDbLine
 10
281.25
 20
251.7677669529664
 11
286.25
 21
256.7677669529664
  0
LINE
  5
354
100
AcDbEntity
  8
Digit
  6
ByLayer
 62
  256
370
   -1
100
AcDbLine
 10
286.25
 20
280.7322330470336
 11
286.25
 21
256.7677669529664
  0
LINE
  5
355
100
AcDbEntity
  8
Digit
  6
ByLayer
 62
  256
370
   -1
100
AcDbLine
 10
283.0177669529664
 20
250
 11
288.0177669529664
 21
255
  0
LINE
  5
356
100
AcDbEntity
  8
Digit
  6
ByLayer
 62
  256
370
   -1
100
AcDbLine
 10
288.0177669529664
 20
245
 11
283.0177669529664
 21
250
  0
LINE
  5
357
100
AcDbEntity
  8
Digit
  6
ByLayer
 62
  256
370
   -1
100
AcDbLine
 10
311.9822330470336
 20
245
 11
288.0177669529664
 21
245
  0
LINE
  5
358
100
AcDbEntity
  8
Digit
  6
ByLayer
 62
  256
370
   -1
100
AcDbLine
 10
288.0177669529664
 20
255
 11
311.9822330470336
 21
255
  0
LINE
  5
359
100
AcDbEntity
  8
Digit
  6
ByLayer
 62
  256
370
   -1
100
AcDbLine
 10
316.9822330470336
 20
250
 11
311.9822330470336
 21
245
  0
LINE
  5
35A
100
AcDbEntity
  8
Digit
  6
ByLayer
 62
  256
370
   -1
100
AcDbLine
 10
311.9822330470336
 20
255
 11
316.9822330470336
 21
250
  0
LINE
  5
35B
100
AcDbEntity
  8
Digit
  6
ByLayer
 62
  256
370
   -1
100
AcDbLine
 10
273.75
 20
281.7677669529664
 11
280.3661165235168
 21
288.3838834764832
  0
LINE
  5
35C
100
AcDbEntity
  8
Digit
  6
ByLayer
 62
  256
370
   -1
100
AcDbLine
 10
273.75
 20
255.7322330470336
 11
273.75
 21
281.7677669529664
  0
LINE
  5
35D
100
AcDbEntity
  8
Digit
  6
ByLayer
 62
  256
370
   -1
100
AcDbLine
 10
283.0177669529664
 20
287.5
 11
288.0177669529664
 21
282.5
  0
LINE
  5
35E
100
AcDbEntity
  8
Digit
  6
ByLayer
 62
  256
370
   -1
100
AcDbLine
 10
288.0177669529664
 20
292.5
 11
283.0177669529664
 21
287.5
  0
LINE
  5
35F
100
AcDbEntity
  8
Digit
  6
ByLayer
 62
  256
370
   -1
100
AcDbLine
 10
311.9822330470336
 20
292.5
 11
288.0177669529664
 21
292.5
  0
LINE
  5
360
100
AcDbEntity
  8
Digit
  6
ByLayer
 62
  256
370
   -1
100
AcDbLine
 10
316.9822330470336
 20
287.5
 11
311.9822330470336
 21
292.5
  0
LINE
  5
361
100
AcDbEntity
  8
Digit
  6
ByLayer
 62
  256
370
   -1
100
AcDbLine
 10
316.9822330470336
 20
287.5
 11
311.9822330470336
 21
282.5
  0
LINE
  5
362
100
AcDbEntity
  8
Digit
  6
ByLayer
 62
  256
370
   -1
100
AcDbLine
 10
288.0177669529664
 20
282.5
 11
311.9822330470336
 21
282.5
  0
LINE
  5
363
100
AcDbEntity
  8
Digit
  6
ByLayer
 62
  256
370
   -1
100
AcDbLine
 10
318.75
 20
285.7322330470336
 11
313.75
 21
280.7322330470336
  0
LINE
  5
364
100
AcDbEntity
  8
Digit
  6
ByLayer
 62
  256
370
   -1
100
AcDbLine
 10
323.75
 20
280.7322330470336
 11
318.75
 21
285.7322330470336
  0
LINE
  5
365
100
AcDbEntity
  8
Digit
  6
ByLayer
 62
  256
370
   -1
100
AcDbLine
 10
323.75
 20
256.7677669529664
 11
323.75
 21
280.7322330470336
  0
LINE
  5
366
100
AcDbEntity
  8
Digit
  6
ByLayer
 62
  256
370
   -1
100
AcDbLine
 10
313.75
 20
280.7322330470336
 11
313.75
 21
256.7677669529664
  0
LINE
  5
367
100
AcDbEntity
  8
Digit
  6
ByLayer
 62
  256
370
   -1
100
AcDbLine
 10
318.75
 20
251.7677669529664
 11
323.75
 21
256.7677669529664
  0
LINE
  5
368
100
AcDbEntity
  8
Digit
  6
ByLayer
 62
  256
370
   -1
100
AcDbLine
 10
313.75
 20
256.7677669529664
 11
318.75
 21
251.7677669529664
  0
LINE
  5
369
100
AcDbEntity
  8
Digit
  6
ByLayer
 62
  256
370
   -1
100
AcDbLine
 10
286.9822330470336
 20
295
 11
280.3661165235168
 21
288.3838834764832
  0
LINE
  5
36A
100
AcDbEntity
  8
Digit
  6
ByLayer
 62
  256
370
   -1
100
AcDbLine
 10
313.0177669529664
 20
295
 11
286.9822330470336
 21
295
  0
LINE
  5
36B
100
AcDbEntity
  8
Digit
  6
ByLayer
 62
  256
370
   -1
100
AcDbLine
 10
319.6338834764832
 20
288.3838834764832
 11
313.0177669529664
 21
295
  0
LINE
  5
36C
100
AcDbEntity
  8
Digit
  6
ByLayer
 62
  256
370
   -1
100
AcDbLine
 10
326.25
 20
281.7677669529664
 11
319.6338834764832
 21
288.3838834764832
  0
LINE
  5
36D
100
AcDbEntity
  8
Digit
  6
ByLayer
 62
  256
370
   -1
100
AcDbLine
 10
326.25
 20
255.7322330470336
 11
326.25
 21
281.7677669529664
  0
LINE
  5
36E
100
AcDbEntity
  8
Digit
  6
ByLayer
 62
  256
370
   -1
100
AcDbLine
 10
288.75
 20
280
 11
311.25
 21
280
  0
LINE
  5
36F
100
AcDbEntity
  8
Digit
  6
ByLayer
 62
  256
370
   -1
100
AcDbLine
 10
288.75
 20
280
 11
288.75
 21
257.5
  0
LINE
  5
370
100
AcDbEntity
  8
Digit
  6
ByLayer
 62
  256
370
   -1
100
AcDbLine
 10
311.25
 20
280
 11
311.25
 21
257.5
  0
LINE
  5
371
100
AcDbEntity
  8
Digit
  6
ByLayer
 62
  256
370
   -1
100
AcDbLine
 10
288.75
 20
257.5
 11
311.25
 21
257.5
  0
LINE
  5
372
100
AcDbEntity
  8
Digit
  6
ByLayer
 62
  256
370
   -1
100
AcDbLine
 10
281.25
 20
214.2677669529664
 11
286.25
 21
219.2677669529664
  0
LINE
  5
373
100
AcDbEntity
  8
Digit
  6
ByLayer
 62
  256
370
   -1
100
AcDbLine
 10
276.25
 20
219.2677669529664
 11
281.25
 21
214.2677669529664
  0
LINE
  5
374
100
AcDbEntity
  8
Digit
  6
ByLayer
 62
  256
370
   -1
100
AcDbLine
 10
276.25
 20
243.2322330470336
 11
276.25
 21
219.2677669529664
  0
LINE
  5
375
100
AcDbEntity
  8
Digit
  6
ByLayer
 62
  256
370
   -1
100
AcDbLine
 10
281.25
 20
248.2322330470336
 11
276.25
 21
243.2322330470336
  0
LINE
  5
376
100
AcDbEntity
  8
Digit
  6
ByLayer
 62
  256
370
   -1
100
AcDbLine
 10
281.25
 20
248.2322330470336
 11
286.25
 21
243.2322330470336
  0
LINE
  5
377
100
AcDbEntity
  8
Digit
  6
ByLayer
 62
  256
370
   -1
100
AcDbLine
 10
286.25
 20
219.2677669529664
 11
286.25
 21
243.2322330470336
  0
LINE
  5
378
100
AcDbEntity
  8
Digit
  6
ByLayer
 62
  256
370
   -1
100
AcDbLine
 10
273.75
 20
218.2322330470336
 11
280.3661165235168
 21
211.6161165235168
  0
LINE
  5
379
100
AcDbEntity
  8
Digit
  6
ByLayer
 62
  256
370
   -1
100
AcDbLine
 10
273.75
 20
244.2677669529664
 11
273.75
 21
218.2322330470336
  0
LINE
  5
37A
100
AcDbEntity
  8
Digit
  6
ByLayer
 62
  256
370
   -1
100
AcDbLine
 10
283.0177669529664
 20
212.5
 11
288.0177669529664
 21
217.5
  0
LINE
  5
37B
100
AcDbEntity
  8
Digit
  6
ByLayer
 62
  256
370
   -1
100
AcDbLine
 10
288.0177669529664
 20
207.5
 11
283.0177669529664
 21
212.5
  0
LINE
  5
37C
100
AcDbEntity
  8
Digit
  6
ByLayer
 62
  256
370
   -1
100
AcDbLine
 10
311.9822330470336
 20
207.5
 11
288.0177669529664
 21
207.5
  0
LINE
  5
37D
100
AcDbEntity
  8
Digit
  6
ByLayer
 62
  256
370
   -1
100
AcDbLine
 10
316.9822330470336
 20
212.5
 11
311.9822330470336
 21
207.5
  0
LINE
  5
37E
100
AcDbEntity
  8
Digit
  6
ByLayer
 62
  256
370
   -1
100
AcDbLine
 10
316.9822330470336
 20
212.5
 11
311.9822330470336
 21
217.5
  0
LINE
  5
37F
100
AcDbEntity
  8
Digit
  6
ByLayer
 62
  256
370
   -1
100
AcDbLine
 10
288.0177669529664
 20
217.5
 11
311.9822330470336
 21
217.5
  0
LINE
  5
380
100
AcDbEntity
  8
Digit
  6
ByLayer
 62
  256
370
   -1
100
AcDbLine
 10
318.75
 20
214.2677669529664
 11
313.75
 21
219.2677669529664
  0
LINE
  5
381
100
AcDbEntity
  8
Digit
  6
ByLayer
 62
  256
370
   -1
100
AcDbLine
 10
323.75
 20
219.2677669529664
 11
318.75
 21
214.2677669529664
  0
LINE
  5
382
100
AcDbEntity
  8
Digit
  6
ByLayer
 62
  256
370
   -1
100
AcDbLine
 10
323.75
 20
243.2322330470336
 11
323.75
 21
219.2677669529664
  0
LINE
  5
383
100
AcDbEntity
  8
Digit
  6
ByLayer
 62
  256
370
   -1
100
AcDbLine
 10
313.75
 20
219.2677669529664
 11
313.75
 21
243.2322330470336
  0
LINE
  5
384
100
AcDbEntity
  8
Digit
  6
ByLayer
 62
  256
370
   -1
100
AcDbLine
 10
318.75
 20
248.2322330470336
 11
323.75
 21
243.2322330470336
  0
LINE
  5
385
100
AcDbEntity
  8
Digit
  6
ByLayer
 62
  256
370
   -1
100
AcDbLine
 10
313.75
 20
243.2322330470336
 11
318.75
 21
248.2322330470336
  0
LINE
  5
386
100
AcDbEntity
  8
Digit
  6
ByLayer
 62
  256
370
   -1
100
AcDbLine
 10
286.9822330470336
 20
205
 11
280.3661165235168
 21
211.6161165235168
  0
LINE
  5
387
100
AcDbEntity
  8
Digit
  6
ByLayer
 62
  256
370
   -1
100
AcDbLine
 10
313.0177669529664
 20
205
 11
286.9822330470336
 21
205
  0
LINE
  5
388
100
AcDbEntity
  8
Digit
  6
ByLayer
 62
  256
370
   -1
100
AcDbLine
 10
319.6338834764832
 20
211.6161165235168
 11
313.0177669529664
 21
205
  0
LINE
  5
389
100
AcDbEntity
  8
Digit
  6
ByLayer
 62
  256
370
   -1
100
AcDbLine
 10
326.25
 20
218.2322330470336
 11
319.6338834764832
 21
211.6161165235168
  0
LINE
  5
38A
100
AcDbEntity
  8
Digit
  6
ByLayer
 62
  256
370
   -1
100
AcDbLine
 10
326.25
 20
244.2677669529664
 11
326.25
 21
218.2322330470336
  0
LINE
  5
38B
100
AcDbEntity
  8
Digit
  6
ByLayer
 62
  256
370
   -1
100
AcDbLine
 10
288.75
 20
220
 11
311.25
 21
220
  0
LINE
  5
38C
100
AcDbEntity
  8
Digit
  6
ByLayer
 62
  256
370
   -1
100
AcDbLine
 10
288.75
 20
220
 11
288.75
 21
242.5
  0
LINE
  5
38D
100
AcDbEntity
  8
Digit
  6
ByLayer
 62
  256
370
   -1
100
AcDbLine
 10
311.25
 20
220
 11
311.25
 21
242.5
  0
LINE
  5
38E
100
AcDbEntity
  8
Digit
  6
ByLayer
 62
  256
370
   -1
100
AcDbLine
 10
288.75
 20
242.5
 11
311.25
 21
242.5
  0
LINE
  5
38F
100
AcDbEntity
  8
Digit
  6
ByLayer
 62
  256
370
   -1
100
AcDbLine
 10
279.4822330470336
 20
250
 11
273.75
 21
255.7322330470336
  0
LINE
  5
390
100
AcDbEntity
  8
Digit
  6
ByLayer
 62
  256
370
   -1
100
AcDbLine
 10
279.4822330470336
 20
250
 11
273.75
 21
244.2677669529664
  0
LINE
  5
391
100
AcDbEntity
  8
Digit
  6
ByLayer
 62
  256
370
   -1
100
AcDbLine
 10
320.5177669529664
 20
250
 11
326.25
 21
255.7322330470336
  0
LINE
  5
392
100
AcDbEntity
  8
Digit
  6
ByLayer
 62
  256
370
   -1
100
AcDbLine
 10
320.5177669529664
 20
250
 11
326.25
 21
244.2677669529664
  0
ARC
  5
393
100
AcDbEntity
  8
PCBs
  6
ByLayer
 62
  256
370
   -1
100
AcDbCircle
 10
271.25
 20
297.5
 40
2.5
100
AcDbArc
 50
90
 51
180
  0
ARC
  5
394
100
AcDbEntity
  8
PCBs
  6
ByLayer
 62
  256
370
   -1
100
AcDbCircle
 10
328.75
 20
297.5
 40
2.5
100
AcDbArc
 50
0
 51
90
  0
ARC
  5
395
100
AcDbEntity
  8
PCBs
  6
ByLayer
 62
  256
370
   -1
100
AcDbCircle
 10
328.75
 20
202.5
 40
2.5
100
AcDbArc
 50
270
 51
0
  0
ARC
  5
396
100
AcDbEntity
  8
PCBs
  6
ByLayer
 62
  256
370
   -1
100
AcDbCircle
 10
271.25
 20
202.5
 40
2.5
100
AcDbArc
 50
180
 51
270
  0
LINE
  5
397
100
AcDbEntity
  8
PCBs
  6
ByLayer
 62
  256
370
   -1
100
AcDbLine
 10
271.2500016858739
 20
200
 11
328.75
 21
200
  0
LINE
  5
398
100
AcDbEntity
  8
PCBs
  6
ByLayer
 62
  256
370
   -1
100
AcDbLine
 10
268.75
 20
297.5
 11
268.75
 21
202.5000011920929
  0
LINE
  5
399
100
AcDbEntity
  8
PCBs
  6
ByLayer
 62
  256
370
   -1
100
AcDbLine
 10
331.25
 20
202.5
 11
331.25
 21
297.499999157063
  0
LINE
  5
39A
100
AcDbEntity
  8
PCBs
  6
ByLayer
 62
  256
370
   -1
100
AcDbLine
 10
328.7499988079071
 20
300
 11
271.2500005161914
 21
300
  0
LINE
  5
39B
100
AcDbEntity
  8
Digit
  6
ByLayer
 62
  256
370
   -1
100
AcDbLine
 10
112.5
 20
285.7322330470336
 11
117.5
 21
280.7322330470336
  0
LINE
  5
39C
100
AcDbEntity
  8
Digit
  6
ByLayer
 62
  256
370
   -1
100
AcDbLine
 10
107.5
 20
280.7322330470336
 11
112.5
 21
285.7322330470336
  0
LINE
  5
39D
100
AcDbEntity
  8
Digit
  6
ByLayer
 62
  256
370
   -1
100
AcDbLine
 10
107.5
 20
256.7677669529664
 11
107.5
 21
280.7322330470336
  0
LINE
  5
39E
100
AcDbEntity
  8
Digit
  6
ByLayer
 62
  256
370
   -1
100
AcDbLine
 10
112.5
 20
251.7677669529664
 11
107.5
 21
256.7677669529664
  0
LINE
  5
39F
100
AcDbEntity
  8
Digit
  6
ByLayer
 62
  256
370
   -1
100
AcDbLine
 10
112.5
 20
251.7677669529664
 11
117.5
 21
256.7677669529664
  0
LINE
  5
3A0
100
AcDbEntity
  8
Digit
  6
ByLayer
 62
  256
370
   -1
100
AcDbLine
 10
117.5
 20
280.7322330470336
 11
117.5
 21
256.7677669529664
  0
LINE
  5
3A1
100
AcDbEntity
  8
Digit
  6
ByLayer
 62
  256
370
   -1
100
AcDbLine
 10
114.2677669529664
 20
250
 11
119.2677669529664
 21
255
  0
LINE
  5
3A2
100
AcDbEntity
  8
Digit
  6
ByLayer
 62
  256
370
   -1
100
AcDbLine
 10
119.2677669529664
 20
245
 11
114.2677669529664
 21
250
  0
LINE
  5
3A3
100
AcDbEntity
  8
Digit
  6
ByLayer
 62
  256
370
   -1
100
AcDbLine
 10
143.2322330470336
 20
245
 11
119.2677669529664
 21
245
  0
LINE
  5
3A4
100
AcDbEntity
  8
Digit
  6
ByLayer
 62
  256
370
   -1
100
AcDbLine
 10
119.2677669529664
 20
255
 11
143.2322330470336
 21
255
  0
LINE
  5
3A5
100
AcDbEntity
  8
Digit
  6
ByLayer
 62
  256
370
   -1
100
AcDbLine
 10
148.2322330470336
 20
250
 11
143.2322330470336
 21
245
  0
LINE
  5
3A6
100
AcDbEntity
  8
Digit
  6
ByLayer
 62
  256
370
   -1
100
AcDbLine
 10
143.2322330470336
 20
255
 11
148.2322330470336
 21
250
  0
LINE
  5
3A7
100
AcDbEntity
  8
Digit
  6
ByLayer
 62
  256
370
   -1
100
AcDbLine
 10
105
 20
281.7677669529664
 11
111.6161165235168
 21
288.3838834764832
  0
LINE
  5
3A8
100
AcDbEntity
  8
Digit
  6
ByLayer
 62
  256
370
   -1
100
AcDbLine
 10
105
 20
255.7322330470336
 11
105
 21
281.7677669529664
  0
LINE
  5
3A9
100
AcDbEntity
  8
Digit
  6
ByLayer
 62
  256
370
   -1
100
AcDbLine
 10
114.2677669529664
 20
287.5
 11
119.2677669529664
 21
282.5
  0
LINE
  5
3AA
100
AcDbEntity
  8
Digit
  6
ByLayer
 62
  256
370
   -1
100
AcDbLine
 10
119.2677669529664
 20
292.5
 11
114.2677669529664
 21
287.5
  0
LINE
  5
3AB
100
AcDbEntity
  8
Digit
  6
ByLayer
 62
  256
370
   -1
100
AcDbLine
 10
143.2322330470336
 20
292.5
 11
119.2677669529664
 21
292.5
  0
LINE
  5
3AC
100
AcDbEntity
  8
Digit
  6
ByLayer
 62
  256
370
   -1
100
AcDbLine
 10
148.2322330470336
 20
287.5
 11
143.2322330470336
 21
292.5
  0
LINE
  5
3AD
100
AcDbEntity
  8
Digit
  6
ByLayer
 62
  256
370
   -1
100
AcDbLine
 10
148.2322330470336
 20
287.5
 11
143.2322330470336
 21
282.5
  0
LINE
  5
3AE
100
AcDbEntity
  8
Digit
  6
ByLayer
 62
  256
370
   -1
100
AcDbLine
 10
119.2677669529664
 20
282.5
 11
143.2322330470336
 21
282.5
  0
LINE
  5
3AF
100
AcDbEntity
  8
Digit
  6
ByLayer
 62
  256
370
   -1
100
AcDbLine
 10
150
 20
285.7322330470336
 11
145
 21
280.7322330470336
  0
LINE
  5
3B0
100
AcDbEntity
  8
Digit
  6
ByLayer
 62
  256
370
   -1
100
AcDbLine
 10
155
 20
280.7322330470336
 11
150
 21
285.7322330470336
  0
LINE
  5
3B1
100
AcDbEntity
  8
Digit
  6
ByLayer
 62
  256
370
   -1
100
AcDbLine
 10
155
 20
256.7677669529664
 11
155
 21
280.7322330470336
  0
LINE
  5
3B2
100
AcDbEntity
  8
Digit
  6
ByLayer
 62
  256
370
   -1
100
AcDbLine
 10
145
 20
280.7322330470336
 11
145
 21
256.7677669529664
  0
LINE
  5
3B3
100
AcDbEntity
  8
Digit
  6
ByLayer
 62
  256
370
   -1
100
AcDbLine
 10
150
 20
251.7677669529664
 11
155
 21
256.7677669529664
  0
LINE
  5
3B4
100
AcDbEntity
  8
Digit
  6
ByLayer
 62
  256
370
   -1
100
AcDbLine
 10
145
 20
256.7677669529664
 11
150
 21
251.7677669529664
  0
LINE
  5
3B5
100
AcDbEntity
  8
Digit
  6
ByLayer
 62
  256
370
   -1
100
AcDbLine
 10
118.2322330470336
 20
295
 11
111.6161165235168
 21
288.3838834764832
  0
LINE
  5
3B6
100
AcDbEntity
  8
Digit
  6
ByLayer
 62
  256
370
   -1
100
AcDbLine
 10
144.2677669529664
 20
295
 11
118.2322330470336
 21
295
  0
LINE
  5
3B7
100
AcDbEntity
  8
Digit
  6
ByLayer
 62
  256
370
   -1
100
AcDbLine
 10
150.8838834764832
 20
288.3838834764832
 11
144.2677669529664
 21
295
  0
LINE
  5
3B8
100
AcDbEntity
  8
Digit
  6
ByLayer
 62
  256
370
   -1
100
AcDbLine
 10
157.5
 20
281.7677669529664
 11
150.8838834764832
 21
288.3838834764832
  0
LINE
  5
3B9
100
AcDbEntity
  8
Digit
  6
ByLayer
 62
  256
370
   -1
100
AcDbLine
 10
157.5
 20
255.7322330470336
 11
157.5
 21
281.7677669529664
  0
LINE
  5
3BA
100
AcDbEntity
  8
Digit
  6
ByLayer
 62
  256
370
   -1
100
AcDbLine
 10
120
 20
280
 11
142.5
 21
280
  0
LINE
  5
3BB
100
AcDbEntity
  8
Digit
  6
ByLayer
 62
  256
370
   -1
100
AcDbLine
 10
120
 20
280
 11
120
 21
257.5
  0
LINE
  5
3BC
100
AcDbEntity
  8
Digit
  6
ByLayer
 62
  256
370
   -1
100
AcDbLine
 10
142.5
 20
280
 11
142.5
 21
257.5
  0
LINE
  5
3BD
100
AcDbEntity
  8
Digit
  6
ByLayer
 62
  256
370
   -1
100
AcDbLine
 10
120
 20
257.5
 11
142.5
 21
257.5
  0
LINE
  5
3BE
100
AcDbEntity
  8
Digit
  6
ByLayer
 62
  256
370
   -1
100
AcDbLine
 10
112.5
 20
214.2677669529664
 11
117.5
 21
219.2677669529664
  0
LINE
  5
3BF
100
AcDbEntity
  8
Digit
  6
ByLayer
 62
  256
370
   -1
100
AcDbLine
 10
107.5
 20
219.2677669529664
 11
112.5
 21
214.2677669529664
  0
LINE
  5
3C0
100
AcDbEntity
  8
Digit
  6
ByLayer
 62
  256
370
   -1
100
AcDbLine
 10
107.5
 20
243.2322330470336
 11
107.5
 21
219.2677669529664
  0
LINE
  5
3C1
100
AcDbEntity
  8
Digit
  6
ByLayer
 62
  256
370
   -1
100
AcDbLine
 10
112.5
 20
248.2322330470336
 11
107.5
 21
243.2322330470336
  0
LINE
  5
3C2
100
AcDbEntity
  8
Digit
  6
ByLayer
 62
  256
370
   -1
100
AcDbLine
 10
112.5
 20
248.2322330470336
 11
117.5
 21
243.2322330470336
  0
LINE
  5
3C3
100
AcDbEntity
  8
Digit
  6
ByLayer
 62
  256
370
   -1
100
AcDbLine
 10
117.5
 20
219.2677669529664
 11
117.5
 21
243.2322330470336
  0
LINE
  5
3C4
100
AcDbEntity
  8
Digit
  6
ByLayer
 62
  256
370
   -1
100
AcDbLine
 10
105
 20
218.2322330470336
 11
111.6161165235168
 21
211.6161165235168
  0
LINE
  5
3C5
100
AcDbEntity
  8
Digit
  6
ByLayer
 62
  256
370
   -1
100
AcDbLine
 10
105
 20
244.2677669529664
 11
105
 21
218.2322330470336
  0
LINE
  5
3C6
100
AcDbEntity
  8
Digit
  6
ByLayer
 62
  256
370
   -1
100
AcDbLine
 10
114.2677669529664
 20
212.5
 11
119.2677669529664
 21
217.5
  0
LINE
  5
3C7
100
AcDbEntity
  8
Digit
  6
ByLayer
 62
  256
370
   -1
100
AcDbLine
 10
119.2677669529664
 20
207.5
 11
114.2677669529664
 21
212.5
  0
LINE
  5
3C8
100
AcDbEntity
  8
Digit
  6
ByLayer
 62
  256
370
   -1
100
AcDbLine
 10
143.2322330470336
 20
207.5
 11
119.2677669529664
 21
207.5
  0
LINE
  5
3C9
100
AcDbEntity
  8
Digit
  6
ByLayer
 62
  256
370
   -1
100
AcDbLine
 10
148.2322330470336
 20
212.5
 11
143.2322330470336
 21
207.5
  0
LINE
  5
3CA
100
AcDbEntity
  8
Digit
  6
ByLayer
 62
  256
370
   -1
100
AcDbLine
 10
148.2322330470336
 20
212.5
 11
143.2322330470336
 21
217.5
  0
LINE
  5
3CB
100
AcDbEntity
  8
Digit
  6
ByLayer
 62
  256
370
   -1
100
AcDbLine
 10
119.2677669529664
 20
217.5
 11
143.2322330470336
 21
217.5
  0
LINE
  5
3CC
100
AcDbEntity
  8
Digit
  6
ByLayer
 62
  256
370
   -1
100
AcDbLine
 10
150
 20
214.2677669529664
 11
145
 21
219.2677669529664
  0
LINE
  5
3CD
100
AcDbEntity
  8
Digit
  6
ByLayer
 62
  256
370
   -1
100
AcDbLine
 10
155
 20
219.2677669529664
 11
150
 21
214.2677669529664
  0
LINE
  5
3CE
100
AcDbEntity
  8
Digit
  6
ByLayer
 62
  256
370
   -1
100
AcDbLine
 10
155
 20
243.2322330470336
 11
155
 21
219.2677669529664
  0
LINE
  5
3CF
100
AcDbEntity
  8
Digit
  6
ByLayer
 62
  256
370
   -1
100
AcDbLine
 10
145
 20
219.2677669529664
 11
145
 21
243.2322330470336
  0
LINE
  5
3D0
100
AcDbEntity
  8
Digit
  6
ByLayer
 62
  256
370
   -1
100
AcDbLine
 10
150
 20
248.2322330470336
 11
155
 21
243.2322330470336
  0
LINE
  5
3D1
100
AcDbEntity
  8
Digit
  6
ByLayer
 62
  256
370
   -1
100
AcDbLine
 10
145
 20
243.2322330470336
 11
150
 21
248.2322330470336
  0
LINE
  5
3D2
100
AcDbEntity
  8
Digit
  6
ByLayer
 62
  256
370
   -1
100
AcDbLine
 10
118.2322330470336
 20
205
 11
111.6161165235168
 21
211.6161165235168
  0
LINE
  5
3D3
100
AcDbEntity
  8
Digit
  6
ByLayer
 62
  256
370
   -1
100
AcDbLine
 10
144.2677669529664
 20
205
 11
118.2322330470336
 21
205
  0
LINE
  5
3D4
100
AcDbEntity
  8
Digit
  6
ByLayer
 62
  256
370
   -1
100
AcDbLine
 10
150.8838834764832
 20
211.6161165235168
 11
144.2677669529664
 21
205
  0
LINE
  5
3D5
100
AcDbEntity
  8
Digit
  6
ByLayer
 62
  256
370
   -1
100
AcDbLine
 10
157.5
 20
218.2322330470336
 11
150.8838834764832
 21
211.6161165235168
  0
LINE
  5
3D6
100
AcDbEntity
  8
Digit
  6
ByLayer
 62
  256
370
   -1
100
AcDbLine
 10
157.5
 20
244.2677669529664
 11
157.5
 21
218.2322330470336
  0
LINE
  5
3D7
100
AcDbEntity
  8
Digit
  6
ByLayer
 62
  256
370
   -1
100
AcDbLine
 10
120
 20
220
 11
142.5
 21
220
  0
LINE
  5
3D8
100
AcDbEntity
  8
Digit
  6
ByLayer
 62
  256
370
   -1
100
AcDbLine
 10
120
 20
220
 11
120
 21
242.5
  0
LINE
  5
3D9
100
AcDbEntity
  8
Digit
  6
ByLayer
 62
  256
370
   -1
100
AcDbLine
 10
142.5
 20
220
 11
142.5
 21
242.5
  0
LINE
  5
3DA
100
AcDbEntity
  8
Digit
  6
ByLayer
 62
  256
370
   -1
100
AcDbLine
 10
120
 20
242.5
 11
142.5
 21
242.5
  0
LINE
  5
3DB
100
AcDbEntity
  8
Digit
  6
ByLayer
 62
  256
370
   -1
100
AcDbLine
 10
110.7322330470336
 20
250
 11
105
 21
255.7322330470336
  0
LINE
  5
3DC
100
AcDbEntity
  8
Digit
  6
ByLayer
 62
  256
370
   -1
100
AcDbLine
 10
110.7322330470336
 20
250
 11
105
 21
244.2677669529664
  0
LINE
  5
3DD
100
AcDbEntity
  8
Digit
  6
ByLayer
 62
  256
370
   -1
100
AcDbLine
 10
151.7677669529664
 20
250
 11
157.5
 21
255.7322330470336
  0
LINE
  5
3DE
100
AcDbEntity
  8
Digit
  6
ByLayer
 62
  256
370
   -1
100
AcDbLine
 10
151.7677669529664
 20
250
 11
157.5
 21
244.2677669529664
  0
ARC
  5
3DF
100
AcDbEntity
  8
PCBs
  6
ByLayer
 62
  256
370
   -1
100
AcDbCircle
 10
102.5
 20
297.5
 40
2.5
100
AcDbArc
 50
90
 51
180
  0
ARC
  5
3E0
100
AcDbEntity
  8
PCBs
  6
ByLayer
 62
  256
370
   -1
100
AcDbCircle
 10
160
 20
297.5
 40
2.5
100
AcDbArc
 50
0
 51
90
  0
ARC
  5
3E1
100
AcDbEntity
  8
PCBs
  6
ByLayer
 62
  256
370
   -1
100
AcDbCircle
 10
160
 20
202.5
 40
2.5
100
AcDbArc
 50
270
 51
0
  0
ARC
  5
3E2
100
AcDbEntity
  8
PCBs
  6
ByLayer
 62
  256
370
   -1
100
AcDbCircle
 10
102.5
 20
202.5
 40
2.5
100
AcDbArc
 50
180
 51
270
  0
LINE
  5
3E3
100
AcDbEntity
  8
PCBs
  6
ByLayer
 62
  256
370
   -1
100
AcDbLine
 10
102.5000016858739
 20
200
 11
160
 21
200
  0
LINE
  5
3E4
100
AcDbEntity
  8
PCBs
  6
ByLayer
 62
  256
370
   -1
100
AcDbLine
 10
100
 20
297.5
 11
100
 21
202.5000011920929
  0
LINE
  5
3E5
100
AcDbEntity
  8
PCBs
  6
ByLayer
 62
  256
370
   -1
100
AcDbLine
 10
162.5
 20
202.5
 11
162.5
 21
297.499999157063
  0
LINE
  5
3E6
100
AcDbEntity
  8
PCBs
  6
ByLayer
 62
  256
370
   -1
100
AcDbLine
 10
159.9999988079071
 20
300
 11
102.5000005161914
 21
300
  0
LINE
  5
3E7
100
AcDbEntity
  8
Digit
  6
ByLayer
 62
  256
370
   -1
100
AcDbLine
 10
350
 20
285.7322330470336
 11
355
 21
280.7322330470336
  0
LINE
  5
3E8
100
AcDbEntity
  8
Digit
  6
ByLayer
 62
  256
370
   -1
100
AcDbLine
 10
345
 20
280.7322330470336
 11
350
 21
285.7322330470336
  0
LINE
  5
3E9
100
AcDbEntity
  8
Digit
  6
ByLayer
 62
  256
370
   -1
100
AcDbLine
 10
345
 20
256.7677669529664
 11
345
 21
280.7322330470336
  0
LINE
  5
3EA
100
AcDbEntity
  8
Digit
  6
ByLayer
 62
  256
370
   -1
100
AcDbLine
 10
350
 20
251.7677669529664
 11
345
 21
256.7677669529664
  0
LINE
  5
3EB
100
AcDbEntity
  8
Digit
  6
ByLayer
 62
  256
370
   -1
100
AcDbLine
 10
350
 20
251.7677669529664
 11
355
 21
256.7677669529664
  0
LINE
  5
3EC
100
AcDbEntity
  8
Digit
  6
ByLayer
 62
  256
370
   -1
100
AcDbLine
 10
355
 20
280.7322330470336
 11
355
 21
256.7677669529664
  0
LINE
  5
3ED
100
AcDbEntity
  8
Digit
  6
ByLayer
 62
  256
370
   -1
100
AcDbLine
 10
351.7677669529664
 20
250
 11
356.7677669529664
 21
255
  0
LINE
  5
3EE
100
AcDbEntity
  8
Digit
  6
ByLayer
 62
  256
370
   -1
100
AcDbLine
 10
356.7677669529664
 20
245
 11
351.7677669529664
 21
250
  0
LINE
  5
3EF
100
AcDbEntity
  8
Digit
  6
ByLayer
 62
  256
370
   -1
100
AcDbLine
 10
380.7322330470336
 20
245
 11
356.7677669529664
 21
245
  0
LINE
  5
3F0
100
AcDbEntity
  8
Digit
  6
ByLayer
 62
  256
370
   -1
100
AcDbLine
 10
356.7677669529664
 20
255
 11
380.7322330470336
 21
255
  0
LINE
  5
3F1
100
AcDbEntity
  8
Digit
  6
ByLayer
 62
  256
370
   -1
100
AcDbLine
 10
385.7322330470336
 20
250
 11
380.7322330470336
 21
245
  0
LINE
  5
3F2
100
AcDbEntity
  8
Digit
  6
ByLayer
 62
  256
370
   -1
100
AcDbLine
 10
380.7322330470336
 20
255
 11
385.7322330470336
 21
250
  0
LINE
  5
3F3
100
AcDbEntity
  8
Digit
  6
ByLayer
 62
  256
370
   -1
100
AcDbLine
 10
342.5
 20
281.7677669529664
 11
349.1161165235168
 21
288.3838834764832
  0
LINE
  5
3F4
100
AcDbEntity
  8
Digit
  6
ByLayer
 62
  256
370
   -1
100
AcDbLine
 10
342.5
 20
255.7322330470336
 11
342.5
 21
281.7677669529664
  0
LINE
  5
3F5
100
AcDbEntity
  8
Digit
  6
ByLayer
 62
  256
370
   -1
100
AcDbLine
 10
351.7677669529664
 20
287.5
 11
356.7677669529664
 21
282.5
  0
LINE
  5
3F6
100
AcDbEntity
  8
Digit
  6
ByLayer
 62
  256
370
   -1
100
AcDbLine
 10
356.7677669529664
 20
292.5
 11
351.7677669529664
 21
287.5
  0
LINE
  5
3F7
100
AcDbEntity
  8
Digit
  6
ByLayer
 62
  256
370
   -1
100
AcDbLine
 10
380.7322330470336
 20
292.5
 11
356.7677669529664
 21
292.5
  0
LINE
  5
3F8
100
AcDbEntity
  8
Digit
  6
ByLayer
 62
  256
370
   -1
100
AcDbLine
 10
385.7322330470336
 20
287.5
 11
380.7322330470336
 21
292.5
  0
LINE
  5
3F9
100
AcDbEntity
  8
Digit
  6
ByLayer
 62
  256
370
   -1
100
AcDbLine
 10
385.7322330470336
 20
287.5
 11
380.7322330470336
 21
282.5
  0
LINE
  5
3FA
100
AcDbEntity
  8
Digit
  6
ByLayer
 62
  256
370
   -1
100
AcDbLine
 10
356.7677669529664
 20
282.5
 11
380.7322330470336
 21
282.5
  0
LINE
  5
3FB
100
AcDbEntity
  8
Digit
  6
ByLayer
 62
  256
370
   -1
100
AcDbLine
 10
387.5
 20
285.7322330470336
 11
382.5
 21
280.7322330470336
  0
LINE
  5
3FC
100
AcDbEntity
  8
Digit
  6
ByLayer
 62
  256
370
   -1
100
AcDbLine
 10
392.5
 20
280.7322330470336
 11
387.5
 21
285.7322330470336
  0
LINE
  5
3FD
100
AcDbEntity
  8
Digit
  6
ByLayer
 62
  256
370
   -1
100
AcDbLine
 10
392.5
 20
256.7677669529664
 11
392.5
 21
280.7322330470336
  0
LINE
  5
3FE
100
AcDbEntity
  8
Digit
  6
ByLayer
 62
  256
370
   -1
100
AcDbLine
 10
382.5
 20
280.7322330470336
 11
382.5
 21
256.7677669529664
  0
LINE
  5
3FF
100
AcDbEntity
  8
Digit
  6
ByLayer
 62
  256
370
   -1
100
AcDbLine
 10
387.5
 20
251.7677669529664
 11
392.5
 21
256.7677669529664
  0
LINE
  5
400
100
AcDbEntity
  8
Digit
  6
ByLayer
 62
  256
370
   -1
100
AcDbLine
 10
382.5
 20
256.7677669529664
 11
387.5
 21
251.7677669529664
  0
LINE
  5
401
100
AcDbEntity
  8
Digit
  6
ByLayer
 62
  256
370
   -1
100
AcDbLine
 10
355.7322330470336
 20
295
 11
349.1161165235168
 21
288.3838834764832
  0
LINE
  5
402
100
AcDbEntity
  8
Digit
  6
ByLayer
 62
  256
370
   -1
100
AcDbLine
 10
381.7677669529664
 20
295
 11
355.7322330470336
 21
295
  0
LINE
  5
403
100
AcDbEntity
  8
Digit
  6
ByLayer
 62
  256
370
   -1
100
AcDbLine
 10
388.3838834764832
 20
288.3838834764832
 11
381.7677669529664
 21
295
  0
LINE
  5
404
100
AcDbEntity
  8
Digit
  6
ByLayer
 62
  256
370
   -1
100
AcDbLine
 10
395
 20
281.7677669529664
 11
388.3838834764832
 21
288.3838834764832
  0
LINE
  5
405
100
AcDbEntity
  8
Digit
  6
ByLayer
 62
  256
370
   -1
100
AcDbLine
 10
395
 20
255.7322330470336
 11
395
 21
281.7677669529664
  0
LINE
  5
406
100
AcDbEntity
  8
Digit
  6
ByLayer
 62
  256
370
   -1
100
AcDbLine
 10
357.5
 20
280
 11
380
 21
280
  0
LINE
  5
407
100
AcDbEntity
  8
Digit
  6
ByLayer
 62
  256
370
   -1
100
AcDbLine
 10
357.5
 20
280
 11
357.5
 21
257.5
  0
LINE
  5
408
100
AcDbEntity
  8
Digit
  6
ByLayer
 62
  256
370
   -1
100
AcDbLine
 10
380
 20
280
 11
380
 21
257.5
  0
LINE
  5
409
100
AcDbEntity
  8
Digit
  6
ByLayer
 62
  256
370
   -1
100
AcDbLine
 10
357.5
 20
257.5
 11
380
 21
257.5
  0
LINE
  5
40A
100
AcDbEntity
  8
Digit
  6
ByLayer
 62
  256
370
   -1
100
AcDbLine
 10
350
 20
214.2677669529664
 11
355
 21
219.2677669529664
  0
LINE
  5
40B
100
AcDbEntity
  8
Digit
  6
ByLayer
 62
  256
370
   -1
100
AcDbLine
 10
345
 20
219.2677669529664
 11
350
 21
214.2677669529664
  0
LINE
  5
40C
100
AcDbEntity
  8
Digit
  6
ByLayer
 62
  256
370
   -1
100
AcDbLine
 10
345
 20
243.2322330470336
 11
345
 21
219.2677669529664
  0
LINE
  5
40D
100
AcDbEntity
  8
Digit
  6
ByLayer
 62
  256
370
   -1
100
AcDbLine
 10
350
 20
248.2322330470336
 11
345
 21
243.2322330470336
  0
LINE
  5
40E
100
AcDbEntity
  8
Digit
  6
ByLayer
 62
  256
370
   -1
100
AcDbLine
 10
350
 20
248.2322330470336
 11
355
 21
243.2322330470336
  0
LINE
  5
40F
100
AcDbEntity
  8
Digit
  6
ByLayer
 62
  256
370
   -1
100
AcDbLine
 10
355
 20
219.2677669529664
 11
355
 21
243.2322330470336
  0
LINE
  5
410
100
AcDbEntity
  8
Digit
  6
ByLayer
 62
  256
370
   -1
100
AcDbLine
 10
342.5
 20
218.2322330470336
 11
349.1161165235168
 21
211.6161165235168
  0
LINE
  5
411
100
AcDbEntity
  8
Digit
  6
ByLayer
 62
  256
370
   -1
100
AcDbLine
 10
342.5
 20
244.2677669529664
 11
342.5
 21
218.2322330470336
  0
LINE
  5
412
100
AcDbEntity
  8
Digit
  6
ByLayer
 62
  256
370
   -1
100
AcDbLine
 10
351.7677669529664
 20
212.5
 11
356.7677669529664
 21
217.5
  0
LINE
  5
413
100
AcDbEntity
  8
Digit
  6
ByLayer
 62
  256
370
   -1
100
AcDbLine
 10
356.7677669529664
 20
207.5
 11
351.7677669529664
 21
212.5
  0
LINE
  5
414
100
AcDbEntity
  8
Digit
  6
ByLayer
 62
  256
370
   -1
100
AcDbLine
 10
380.7322330470336
 20
207.5
 11
356.7677669529664
 21
207.5
  0
LINE
  5
415
100
AcDbEntity
  8
Digit
  6
ByLayer
 62
  256
370
   -1
100
AcDbLine
 10
385.7322330470336
 20
212.5
 11
380.7322330470336
 21
207.5
  0
LINE
  5
416
100
AcDbEntity
  8
Digit
  6
ByLayer
 62
  256
370
   -1
100
AcDbLine
 10
385.7322330470336
 20
212.5
 11
380.7322330470336
 21
217.5
  0
LINE
  5
417
100
AcDbEntity
  8
Digit
  6
ByLayer
 62
  256
370
   -1
100
AcDbLine
 10
356.7677669529664
 20
217.5
 11
380.7322330470336
 21
217.5
  0
LINE
  5
418
100
AcDbEntity
  8
Digit
  6
ByLayer
 62
  256
370
   -1
100
AcDbLine
 10
387.5
 20
214.2677669529664
 11
382.5
 21
219.2677669529664
  0
LINE
  5
419
100
AcDbEntity
  8
Digit
  6
ByLayer
 62
  256
370
   -1
100
AcDbLine
 10
392.5
 20
219.2677669529664
 11
387.5
 21
214.2677669529664
  0
LINE
  5
41A
100
AcDbEntity
  8
Digit
  6
ByLayer
 62
  256
370
   -1
100
AcDbLine
 10
392.5
 20
243.2322330470336
 11
392.5
 21
219.2677669529664
  0
LINE
  5
41B
100
AcDbEntity
  8
Digit
  6
ByLayer
 62
  256
370
   -1
100
AcDbLine
 10
382.5
 20
219.2677669529664
 11
382.5
 21
243.2322330470336
  0
LINE
  5
41C
100
AcDbEntity
  8
Digit
  6
ByLayer
 62
  256
370
   -1
100
AcDbLine
 10
387.5
 20
248.2322330470336
 11
392.5
 21
243.2322330470336
  0
LINE
  5
41D
100
AcDbEntity
  8
Digit
  6
ByLayer
 62
  256
370
   -1
100
AcDbLine
 10
382.5
 20
243.2322330470336
 11
387.5
 21
248.2322330470336
  0
LINE
  5
41E
100
AcDbEntity
  8
Digit
  6
ByLayer
 62
  256
370
   -1
100
AcDbLine
 10
355.7322330470336
 20
205
 11
349.1161165235168
 21
211.6161165235168
  0
LINE
  5
41F
100
AcDbEntity
  8
Digit
  6
ByLayer
 62
  256
370
   -1
100
AcDbLine
 10
381.7677669529664
 20
205
 11
355.7322330470336
 21
205
  0
LINE
  5
420
100
AcDbEntity
  8
Digit
  6
ByLayer
 62
  256
370
   -1
100
AcDbLine
 10
388.3838834764832
 20
211.6161165235168
 11
381.7677669529664
 21
205
  0
LINE
  5
421
100
AcDbEntity
  8
Digit
  6
ByLayer
 62
  256
370
   -1
100
AcDbLine
 10
395
 20
218.2322330470336
 11
388.3838834764832
 21
211.6161165235168
  0
LINE
  5
422
100
AcDbEntity
  8
Digit
  6
ByLayer
 62
  256
370
   -1
100
AcDbLine
 10
395
 20
244.2677669529664
 11
395
 21
218.2322330470336
  0
LINE
  5
423
100
AcDbEntity
  8
Digit
  6
ByLayer
 62
  256
370
   -1
100
AcDbLine
 10
357.5
 20
220
 11
380
 21
220
  0
LINE
  5
424
100
AcDbEntity
  8
Digit
  6
ByLayer
 62
  256
370
   -1
100
AcDbLine
 10
357.5
 20
220
 11
357.5
 21
242.5
  0
LINE
  5
425
100
AcDbEntity
  8
Digit
  6
ByLayer
 62
  256
370
   -1
100
AcDbLine
 10
380
 20
220
 11
380
 21
242.5
  0
LINE
  5
426
100
AcDbEntity
  8
Digit
  6
ByLayer
 62
  256
370
   -1
100
AcDbLine
 10
357.5
 20
242.5
 11
380
 21
242.5
  0
LINE
  5
427
100
AcDbEntity
  8
Digit
  6
ByLayer
 62
  256
370
   -1
100
AcDbLine
 10
348.2322330470336
 20
250
 11
342.5
 21
255.7322330470336
  0
LINE
  5
428
100
AcDbEntity
  8
Digit
  6
ByLayer
 62
  256
370
   -1
100
AcDbLine
 10
348.2322330470336
 20
250
 11
342.5
 21
244.2677669529664
  0
LINE
  5
429
100
AcDbEntity
  8
Digit
  6
ByLayer
 62
  256
370
   -1
100
AcDbLine
 10
389.2677669529664
 20
250
 11
395
 21
255.7322330470336
  0
LINE
  5
42A
100
AcDbEntity
  8
Digit
  6
ByLayer
 62
  256
370
   -1
100
AcDbLine
 10
389.2677669529664
 20
250
 11
395
 21
244.2677669529664
  0
ARC
  5
42B
100
AcDbEntity
  8
PCBs
  6
ByLayer
 62
  256
370
   -1
100
AcDbCircle
 10
340
 20
297.5
 40
2.5
100
AcDbArc
 50
90
 51
180
  0
ARC
  5
42C
100
AcDbEntity
  8
PCBs
  6
ByLayer
 62
  256
370
   -1
100
AcDbCircle
 10
397.5
 20
297.5
 40
2.5
100
AcDbArc
 50
0
 51
90
  0
ARC
  5
42D
100
AcDbEntity
  8
PCBs
  6
ByLayer
 62
  256
370
   -1
100
AcDbCircle
 10
397.5
 20
202.5
 40
2.5
100
AcDbArc
 50
270
 51
0
  0
ARC
  5
42E
100
AcDbEntity
  8
PCBs
  6
ByLayer
 62
  256
370
   -1
100
AcDbCircle
 10
340
 20
202.5
 40
2.5
100
AcDbArc
 50
180
 51
270
  0
LINE
  5
42F
100
AcDbEntity
  8
PCBs
  6
ByLayer
 62
  256
370
   -1
100
AcDbLine
 10
340.0000016858739
 20
200
 11
397.5
 21
200
  0
LINE
  5
430
100
AcDbEntity
  8
PCBs
  6
ByLayer
 62
  256
370
   -1
100
AcDbLine
 10
337.5
 20
297.5
 11
337.5
 21
202.5000011920929
  0
LINE
  5
431
100
AcDbEntity
  8
PCBs
  6
ByLayer
 62
  256
370
   -1
100
AcDbLine
 10
400
 20
202.5
 11
400
 21
297.499999157063
  0
LINE
  5
432
100
AcDbEntity
  8
PCBs
  6
ByLayer
 62
  256
370
   -1
100
AcDbLine
 10
397.4999988079071
 20
300
 11
340.0000005161914
 21
300
  0
LWPOLYLINE
  5
433
100
AcDbEntity
  8
PCBs
  6
ByLayer
 62
  256
370
   -1
100
AcDbPolyline
 90
    8
 70
    1
 43
0
 10
239.5
 20
300
 10
260.5
 20
300
 42
-0.414213562373095
 10
262.5
 20
298
 10
262.5
 20
202
 42
-0.414213562373095
 10
260.5
 20
200
 10
239.5
 20
200
 42
-0.414213562373095
 10
237.5
 20
202
 10
237.5
 20
298
 42
-0.414213562373095
  0
MTEXT
  5
434
100
AcDbEntity
  8
Module_Names
  6
ByLayer
 62
  256
370
   -1
100
AcDbMText
 10
374
 20
165
 30
0
 40
5
 41
33.75000000000031
 71
    5
 72
    1
  1
Decoder A
  7
standard
210
0
220
0
230
1
 50
0
 73
    2
 44
1
  0
MTEXT
  5
435
100
AcDbEntity
  8
Module_Names
  6
ByLayer
 62
  256
370
   -1
100
AcDbMText
 10
127
 20
338
 30
0
 40
5
 41
33.75000000000031
 71
    5
 72
    1
  1
Decoder A
  7
standard
210
0
220
0
230
1
 50
0
 73
    2
 44
1
  0
MTEXT
  5
436
100
AcDbEntity
  8
Module_Names
  6
ByLayer
 62
  256
370
   -1
100
AcDbMText
 10
378
 20
339
 30
0
 40
5
 41
33.19444444444476
 71
    5
 72
    1
  1
Decoder B
  7
standard
210
0
220
0
230
1
 50
0
 73
    2
 44
1
  0
MTEXT
  5
437
100
AcDbEntity
  8
Module_Names
  6
ByLayer
 62
  256
370
   -1
100
AcDbMText
 10
123
 20
165
 30
0
 40
5
 41
33.19444444444476
 71
    5
 72
    1
  1
Decoder B
  7
standard
210
0
220
0
230
1
 50
0
 73
    2
 44
1
  0
MTEXT
  5
438
100
AcDbEntity
  8
Module_Names
  6
ByLayer
 62
  256
370
   -1
100
AcDbMText
 10
300
 20
250
 30
0
 40
5
 41
13.33333333333388
 71
    5
 72
    1
  1
Digit
  7
standard
210
0
220
0
230
1
 50
0
 73
    2
 44
1
  0
MTEXT
  5
439
100
AcDbEntity
  8
Module_Names
  6
ByLayer
 62
  256
370
   -1
100
AcDbMText
 10
370
 20
250
 30
0
 40
5
 41
13.33333333333388
 71
    5
 72
    1
  1
Digit
  7
standard
210
0
220
0
230
1
 50
0
 73
    2
 44
1
  0
MTEXT
  5
43A
100
AcDbEntity
  8
Module_Names
  6
ByLayer
 62
  256
370
   -1
100
AcDbMText
 10
200
 20
250
 30
0
 40
5
 41
13.33333333333388
 71
    5
 72
    1
  1
Digit
  7
standard
210
0
220
0
230
1
 50
0
 73
    2
 44
1
  0
MTEXT
  5
43B
100
AcDbEntity
  8
Module_Names
  6
ByLayer
 62
  256
370
   -1
100
AcDbMText
 10
130
 20
250
 30
0
 40
5
 41
13.33333333333388
 71
    5
 72
    1
  1
Digit
  7
standard
210
0
220
0
230
1
 50
0
 73
    2
 44
1
  0
MTEXT
  5
43C
100
AcDbEntity
  8
Module_Names
  6
ByLayer
 62
  256
370
   -1
100
AcDbMText
 10
252
 20
250
 30
0
 40
5
 41
13.88889146032519
 71
    5
 72
    1
  1
Dots
  7
standard
210
0
220
0
230
1
 50
0
 73
    2
 44
1
  0
MTEXT
  5
43D
100
AcDbEntity
  8
Module_Names
  6
ByLayer
 62
  256
370
   -1
100
AcDbMText
 10
160
 20
90
 30
0
 40
5
 41
70.69444958731665
 71
    5
 72
    1
  1
Flip Flops Hour Tens
  7
standard
210
0
220
0
230
1
 50
0
 73
    2
 44
1
  0
MTEXT
  5
43E
100
AcDbEntity
  8
Module_Names
  6
ByLayer
 62
  256
370
   -1
100
AcDbMText
 10
330
 20
90
 30
0
 40
5
 41
76.80556069842801
 71
    5
 72
    1
  1
Flip Flops Minute Ones
  7
standard
210
0
220
0
230
1
 50
0
 73
    2
 44
1
  0
MTEXT
  5
43F
100
AcDbEntity
  8
Module_Names
  6
ByLayer
 62
  256
370
   -1
100
AcDbMText
 10
350
 20
410
 30
0
 40
5
 41
76.80556069842801
 71
    5
 72
    1
  1
Flip Flops Minute Tens
  7
standard
210
0
220
0
230
1
 50
0
 73
    2
 44
1
  0
MTEXT
  5
440
100
AcDbEntity
  8
Module_Names
  6
ByLayer
 62
  256
370
   -1
100
AcDbMText
 10
190
 20
410
 30
0
 40
5
 41
70.69444958731665
 71
    5
 72
    1
  1
Flip Flops Hour Ones
  7
standard
210
0
220
0
230
1
 50
0
 73
    2
 44
1
  0
LINE
  5
441
100
AcDbEntity
  8
Module_Names
  6
ByLayer
 62
  256
370
   -1
100
AcDbLine
 10
288
 20
396
 11
288
 21
413
  0
LINE
  5
442
100
AcDbEntity
  8
Module_Names
  6
ByLayer
 62
  256
370
   -1
100
AcDbLine
 10
212
 20
102
 11
212
 21
81
  0
ENDSEC
  0
SECTION
  2
OBJECTS
  0
DICTIONARY
  5
C
330
0
100
AcDbDictionary
281
    1
  3
ACAD_GROUP
350
D
  0
DICTIONARY
  5
D
330
C
100
AcDbDictionary
281
    1
  0
ENDSEC
  0
EOF
