M48
METRIC,TZ
T1C0.400
T2C0.762
T3C0.800
T4C0.850
T5C1.000
T6C1.100
%
G90
G05
T1
X105155Y-120165
X110750Y-124250
X111000Y-116500
X111750Y-122750
X112000Y-133500
X115950Y-104925
X118490Y-136675
X118490Y-139850
X119760Y-118895
X120141Y-105941
X126364Y-137945
X127380Y-130960
X128015Y-134135
X128396Y-129944
T2
X108965Y-137945
X108965Y-140485
T3
X122300Y-104925
X122300Y-115085
X125475Y-104925
X125475Y-115085
T4
X106730Y-107510
X106730Y-109710
X106730Y-111910
X106730Y-115110
X106730Y-122680
X106730Y-125880
X106730Y-128080
X106730Y-130280
X109930Y-107510
X109930Y-109710
X109930Y-111910
X109930Y-115110
X109930Y-122680
X109930Y-125880
X109930Y-128080
X109930Y-130280
X121970Y-122680
X121970Y-125880
X121970Y-128080
X121970Y-130280
X125170Y-122680
X125170Y-125880
X125170Y-128080
X125170Y-130280
T5
X103360Y-140130
X103620Y-112240
X103620Y-114780
X103620Y-117320
X103620Y-119860
X103620Y-122400
X103620Y-124940
X103620Y-127480
X105900Y-140130
X125840Y-140130
X128380Y-140130
X128410Y-112240
X128410Y-114780
X128410Y-117320
X128410Y-119860
X128410Y-122400
X128410Y-124940
X128410Y-127480
T6
X107060Y-103655
X107060Y-134135
X109600Y-103655
X109600Y-134135
X114045Y-107465
X114045Y-115085
X114045Y-122705
X114045Y-130325
X117855Y-107465
X117855Y-115085
X117855Y-122705
X117855Y-130325
X122300Y-134135
X124840Y-134135
T0
M30
