G04 #@! TF.FileFunction,Legend,Bot*
%FSLAX46Y46*%
G04 Gerber Fmt 4.6, Leading zero omitted, Abs format (unit mm)*
G04 Created by KiCad (PCBNEW 4.0.4+e1-6308~48~ubuntu16.04.1-stable) date Mon Jan 22 19:49:42 2018*
%MOMM*%
%LPD*%
G01*
G04 APERTURE LIST*
%ADD10C,0.100000*%
%ADD11C,0.150000*%
%ADD12C,0.010000*%
G04 APERTURE END LIST*
D10*
D11*
X121653571Y-139743571D02*
X121986905Y-139743571D01*
X121986905Y-140267381D02*
X121986905Y-139267381D01*
X121510714Y-139267381D01*
X120986905Y-140267381D02*
X121082143Y-140219762D01*
X121129762Y-140124524D01*
X121129762Y-139267381D01*
X120605952Y-140267381D02*
X120605952Y-139600714D01*
X120605952Y-139267381D02*
X120653571Y-139315000D01*
X120605952Y-139362619D01*
X120558333Y-139315000D01*
X120605952Y-139267381D01*
X120605952Y-139362619D01*
X120129762Y-139600714D02*
X120129762Y-140600714D01*
X120129762Y-139648333D02*
X120034524Y-139600714D01*
X119844047Y-139600714D01*
X119748809Y-139648333D01*
X119701190Y-139695952D01*
X119653571Y-139791190D01*
X119653571Y-140076905D01*
X119701190Y-140172143D01*
X119748809Y-140219762D01*
X119844047Y-140267381D01*
X120034524Y-140267381D01*
X120129762Y-140219762D01*
X118891666Y-139743571D02*
X119225000Y-139743571D01*
X119225000Y-140267381D02*
X119225000Y-139267381D01*
X118748809Y-139267381D01*
X118225000Y-140267381D02*
X118320238Y-140219762D01*
X118367857Y-140124524D01*
X118367857Y-139267381D01*
X117701190Y-140267381D02*
X117796428Y-140219762D01*
X117844047Y-140172143D01*
X117891666Y-140076905D01*
X117891666Y-139791190D01*
X117844047Y-139695952D01*
X117796428Y-139648333D01*
X117701190Y-139600714D01*
X117558332Y-139600714D01*
X117463094Y-139648333D01*
X117415475Y-139695952D01*
X117367856Y-139791190D01*
X117367856Y-140076905D01*
X117415475Y-140172143D01*
X117463094Y-140219762D01*
X117558332Y-140267381D01*
X117701190Y-140267381D01*
X116939285Y-139600714D02*
X116939285Y-140600714D01*
X116939285Y-139648333D02*
X116844047Y-139600714D01*
X116653570Y-139600714D01*
X116558332Y-139648333D01*
X116510713Y-139695952D01*
X116463094Y-139791190D01*
X116463094Y-140076905D01*
X116510713Y-140172143D01*
X116558332Y-140219762D01*
X116653570Y-140267381D01*
X116844047Y-140267381D01*
X116939285Y-140219762D01*
X121986905Y-141917381D02*
X121986905Y-141250714D01*
X121986905Y-141441190D02*
X121939286Y-141345952D01*
X121891667Y-141298333D01*
X121796429Y-141250714D01*
X121701190Y-141250714D01*
X120986904Y-141869762D02*
X121082142Y-141917381D01*
X121272619Y-141917381D01*
X121367857Y-141869762D01*
X121415476Y-141774524D01*
X121415476Y-141393571D01*
X121367857Y-141298333D01*
X121272619Y-141250714D01*
X121082142Y-141250714D01*
X120986904Y-141298333D01*
X120939285Y-141393571D01*
X120939285Y-141488810D01*
X121415476Y-141584048D01*
X120367857Y-141917381D02*
X120463095Y-141869762D01*
X120510714Y-141774524D01*
X120510714Y-140917381D01*
X119558332Y-141917381D02*
X119558332Y-141393571D01*
X119605951Y-141298333D01*
X119701189Y-141250714D01*
X119891666Y-141250714D01*
X119986904Y-141298333D01*
X119558332Y-141869762D02*
X119653570Y-141917381D01*
X119891666Y-141917381D01*
X119986904Y-141869762D01*
X120034523Y-141774524D01*
X120034523Y-141679286D01*
X119986904Y-141584048D01*
X119891666Y-141536429D01*
X119653570Y-141536429D01*
X119558332Y-141488810D01*
X119177380Y-141250714D02*
X118939285Y-141917381D01*
X118701189Y-141250714D02*
X118939285Y-141917381D01*
X119034523Y-142155476D01*
X119082142Y-142203095D01*
X119177380Y-142250714D01*
X117748808Y-141822143D02*
X117796427Y-141869762D01*
X117939284Y-141917381D01*
X118034522Y-141917381D01*
X118177380Y-141869762D01*
X118272618Y-141774524D01*
X118320237Y-141679286D01*
X118367856Y-141488810D01*
X118367856Y-141345952D01*
X118320237Y-141155476D01*
X118272618Y-141060238D01*
X118177380Y-140965000D01*
X118034522Y-140917381D01*
X117939284Y-140917381D01*
X117796427Y-140965000D01*
X117748808Y-141012619D01*
X117177380Y-141917381D02*
X117272618Y-141869762D01*
X117320237Y-141822143D01*
X117367856Y-141726905D01*
X117367856Y-141441190D01*
X117320237Y-141345952D01*
X117272618Y-141298333D01*
X117177380Y-141250714D01*
X117034522Y-141250714D01*
X116939284Y-141298333D01*
X116891665Y-141345952D01*
X116844046Y-141441190D01*
X116844046Y-141726905D01*
X116891665Y-141822143D01*
X116939284Y-141869762D01*
X117034522Y-141917381D01*
X117177380Y-141917381D01*
X115986903Y-141869762D02*
X116082141Y-141917381D01*
X116272618Y-141917381D01*
X116367856Y-141869762D01*
X116415475Y-141822143D01*
X116463094Y-141726905D01*
X116463094Y-141441190D01*
X116415475Y-141345952D01*
X116367856Y-141298333D01*
X116272618Y-141250714D01*
X116082141Y-141250714D01*
X115986903Y-141298333D01*
X115558332Y-141917381D02*
X115558332Y-140917381D01*
X115463094Y-141536429D02*
X115177379Y-141917381D01*
X115177379Y-141250714D02*
X115558332Y-141631667D01*
X114082141Y-141250714D02*
X113844046Y-141917381D01*
X113605950Y-141250714D01*
X112701188Y-141917381D02*
X113272617Y-141917381D01*
X112986903Y-141917381D02*
X112986903Y-140917381D01*
X113082141Y-141060238D01*
X113177379Y-141155476D01*
X113272617Y-141203095D01*
X112272617Y-141822143D02*
X112224998Y-141869762D01*
X112272617Y-141917381D01*
X112320236Y-141869762D01*
X112272617Y-141822143D01*
X112272617Y-141917381D01*
X111605951Y-140917381D02*
X111510712Y-140917381D01*
X111415474Y-140965000D01*
X111367855Y-141012619D01*
X111320236Y-141107857D01*
X111272617Y-141298333D01*
X111272617Y-141536429D01*
X111320236Y-141726905D01*
X111367855Y-141822143D01*
X111415474Y-141869762D01*
X111510712Y-141917381D01*
X111605951Y-141917381D01*
X111701189Y-141869762D01*
X111748808Y-141822143D01*
X111796427Y-141726905D01*
X111844046Y-141536429D01*
X111844046Y-141298333D01*
X111796427Y-141107857D01*
X111748808Y-141012619D01*
X111701189Y-140965000D01*
X111605951Y-140917381D01*
D12*
G36*
X121641767Y-106470991D02*
X121559826Y-106688239D01*
X121441280Y-107023838D01*
X121293592Y-107456315D01*
X121124226Y-107964194D01*
X120969479Y-108437025D01*
X120761952Y-109081907D01*
X120605004Y-109584441D01*
X120494083Y-109962385D01*
X120424633Y-110233497D01*
X120392101Y-110415537D01*
X120391932Y-110526261D01*
X120419146Y-110583038D01*
X120514713Y-110652408D01*
X120724871Y-110794307D01*
X121025809Y-110993369D01*
X121393719Y-111234226D01*
X121804792Y-111501511D01*
X122235216Y-111779858D01*
X122661184Y-112053899D01*
X123058886Y-112308268D01*
X123404511Y-112527596D01*
X123674251Y-112696518D01*
X123844297Y-112799667D01*
X123892215Y-112824614D01*
X123967439Y-112779795D01*
X124164642Y-112655224D01*
X124463966Y-112463646D01*
X124845550Y-112217803D01*
X125289536Y-111930439D01*
X125607260Y-111724121D01*
X126085761Y-111411910D01*
X126518180Y-111127675D01*
X126883777Y-110885218D01*
X127161809Y-110698345D01*
X127331535Y-110580859D01*
X127373608Y-110548592D01*
X127365828Y-110454750D01*
X127320984Y-110265833D01*
X127007682Y-110265833D01*
X126932901Y-110375514D01*
X126710806Y-110563605D01*
X126343377Y-110828608D01*
X125832592Y-111169024D01*
X125716515Y-111244025D01*
X124426333Y-112074050D01*
X124235833Y-111853137D01*
X124106896Y-111684441D01*
X124052969Y-111580438D01*
X123706667Y-111580438D01*
X123653278Y-111702825D01*
X123525741Y-111865673D01*
X123459213Y-111938416D01*
X123400039Y-111986717D01*
X123327803Y-112001609D01*
X123222087Y-111974125D01*
X123062473Y-111895298D01*
X122828545Y-111756161D01*
X122499884Y-111547747D01*
X122056073Y-111261088D01*
X121859006Y-111133667D01*
X121371687Y-110808992D01*
X121020411Y-110552986D01*
X120809805Y-110369253D01*
X120744237Y-110265833D01*
X120766866Y-110140000D01*
X120792727Y-110117667D01*
X120915565Y-110138770D01*
X121154088Y-110193873D01*
X121461102Y-110270666D01*
X121789414Y-110356840D01*
X122091830Y-110440086D01*
X122321157Y-110508093D01*
X122414329Y-110540631D01*
X122586137Y-110637635D01*
X122821948Y-110800834D01*
X123085610Y-111001142D01*
X123340973Y-111209471D01*
X123551886Y-111396735D01*
X123682199Y-111533847D01*
X123706667Y-111580438D01*
X124052969Y-111580438D01*
X124046047Y-111567089D01*
X124045333Y-111560007D01*
X124106835Y-111483403D01*
X124267214Y-111334643D01*
X124490288Y-111143706D01*
X124739871Y-110940571D01*
X124979778Y-110755218D01*
X125173824Y-110617625D01*
X125211434Y-110593896D01*
X125341611Y-110541810D01*
X125588577Y-110462223D01*
X125904789Y-110368490D01*
X126242707Y-110273968D01*
X126554787Y-110192013D01*
X126793488Y-110135983D01*
X126902833Y-110118718D01*
X126991920Y-110187270D01*
X127007682Y-110265833D01*
X127320984Y-110265833D01*
X127311818Y-110227220D01*
X127232050Y-109936575D01*
X126907167Y-109936575D01*
X126090084Y-110132922D01*
X125690603Y-110235735D01*
X125392307Y-110337779D01*
X125133746Y-110468683D01*
X124853471Y-110658079D01*
X124595667Y-110853537D01*
X124309371Y-111073575D01*
X124077072Y-111249173D01*
X123928414Y-111358094D01*
X123890185Y-111382735D01*
X123815657Y-111336549D01*
X123638024Y-111208292D01*
X123387592Y-111020179D01*
X123212852Y-110886167D01*
X122883234Y-110641244D01*
X122610870Y-110472101D01*
X122333347Y-110348728D01*
X121988255Y-110241114D01*
X121731344Y-110173789D01*
X121380974Y-110082905D01*
X121098789Y-110005710D01*
X120920598Y-109952234D01*
X120877032Y-109934455D01*
X120890844Y-109844217D01*
X120950278Y-109626235D01*
X121045118Y-109311440D01*
X121165142Y-108930761D01*
X121300134Y-108515130D01*
X121439873Y-108095476D01*
X121574141Y-107702732D01*
X121692720Y-107367827D01*
X121785389Y-107121692D01*
X121841930Y-106995257D01*
X121851478Y-106985000D01*
X121934676Y-107037063D01*
X122121762Y-107180309D01*
X122388397Y-107395329D01*
X122710240Y-107662709D01*
X122860000Y-107789333D01*
X123198112Y-108073298D01*
X123491477Y-108313277D01*
X123715764Y-108489860D01*
X123846644Y-108583636D01*
X123868178Y-108593667D01*
X123951348Y-108541811D01*
X124138895Y-108399063D01*
X124406560Y-108184655D01*
X124730084Y-107917815D01*
X124888831Y-107784573D01*
X125228421Y-107505675D01*
X125523604Y-107277670D01*
X125750412Y-107117957D01*
X125884874Y-107043937D01*
X125909393Y-107043740D01*
X125954978Y-107142957D01*
X126043117Y-107375783D01*
X126163996Y-107714797D01*
X126307804Y-108132573D01*
X126439136Y-108524287D01*
X126907167Y-109936575D01*
X127232050Y-109936575D01*
X127219978Y-109892591D01*
X127098705Y-109477454D01*
X126956398Y-109008401D01*
X126801456Y-108512021D01*
X126642276Y-108014907D01*
X126487257Y-107543647D01*
X126344797Y-107124834D01*
X126223294Y-106785057D01*
X126131147Y-106550908D01*
X126079717Y-106451858D01*
X125998253Y-106481050D01*
X125812030Y-106604927D01*
X125543721Y-106806663D01*
X125216001Y-107069435D01*
X124968458Y-107276376D01*
X124613364Y-107575902D01*
X124304324Y-107832609D01*
X124063791Y-108028162D01*
X123914220Y-108144227D01*
X123876000Y-108168393D01*
X123800322Y-108116585D01*
X123618187Y-107973313D01*
X123352118Y-107756832D01*
X123024638Y-107485394D01*
X122780306Y-107280375D01*
X122423741Y-106982171D01*
X122112905Y-106726756D01*
X121870439Y-106532372D01*
X121718985Y-106417261D01*
X121679640Y-106393570D01*
X121641767Y-106470991D01*
X121641767Y-106470991D01*
G37*
X121641767Y-106470991D02*
X121559826Y-106688239D01*
X121441280Y-107023838D01*
X121293592Y-107456315D01*
X121124226Y-107964194D01*
X120969479Y-108437025D01*
X120761952Y-109081907D01*
X120605004Y-109584441D01*
X120494083Y-109962385D01*
X120424633Y-110233497D01*
X120392101Y-110415537D01*
X120391932Y-110526261D01*
X120419146Y-110583038D01*
X120514713Y-110652408D01*
X120724871Y-110794307D01*
X121025809Y-110993369D01*
X121393719Y-111234226D01*
X121804792Y-111501511D01*
X122235216Y-111779858D01*
X122661184Y-112053899D01*
X123058886Y-112308268D01*
X123404511Y-112527596D01*
X123674251Y-112696518D01*
X123844297Y-112799667D01*
X123892215Y-112824614D01*
X123967439Y-112779795D01*
X124164642Y-112655224D01*
X124463966Y-112463646D01*
X124845550Y-112217803D01*
X125289536Y-111930439D01*
X125607260Y-111724121D01*
X126085761Y-111411910D01*
X126518180Y-111127675D01*
X126883777Y-110885218D01*
X127161809Y-110698345D01*
X127331535Y-110580859D01*
X127373608Y-110548592D01*
X127365828Y-110454750D01*
X127320984Y-110265833D01*
X127007682Y-110265833D01*
X126932901Y-110375514D01*
X126710806Y-110563605D01*
X126343377Y-110828608D01*
X125832592Y-111169024D01*
X125716515Y-111244025D01*
X124426333Y-112074050D01*
X124235833Y-111853137D01*
X124106896Y-111684441D01*
X124052969Y-111580438D01*
X123706667Y-111580438D01*
X123653278Y-111702825D01*
X123525741Y-111865673D01*
X123459213Y-111938416D01*
X123400039Y-111986717D01*
X123327803Y-112001609D01*
X123222087Y-111974125D01*
X123062473Y-111895298D01*
X122828545Y-111756161D01*
X122499884Y-111547747D01*
X122056073Y-111261088D01*
X121859006Y-111133667D01*
X121371687Y-110808992D01*
X121020411Y-110552986D01*
X120809805Y-110369253D01*
X120744237Y-110265833D01*
X120766866Y-110140000D01*
X120792727Y-110117667D01*
X120915565Y-110138770D01*
X121154088Y-110193873D01*
X121461102Y-110270666D01*
X121789414Y-110356840D01*
X122091830Y-110440086D01*
X122321157Y-110508093D01*
X122414329Y-110540631D01*
X122586137Y-110637635D01*
X122821948Y-110800834D01*
X123085610Y-111001142D01*
X123340973Y-111209471D01*
X123551886Y-111396735D01*
X123682199Y-111533847D01*
X123706667Y-111580438D01*
X124052969Y-111580438D01*
X124046047Y-111567089D01*
X124045333Y-111560007D01*
X124106835Y-111483403D01*
X124267214Y-111334643D01*
X124490288Y-111143706D01*
X124739871Y-110940571D01*
X124979778Y-110755218D01*
X125173824Y-110617625D01*
X125211434Y-110593896D01*
X125341611Y-110541810D01*
X125588577Y-110462223D01*
X125904789Y-110368490D01*
X126242707Y-110273968D01*
X126554787Y-110192013D01*
X126793488Y-110135983D01*
X126902833Y-110118718D01*
X126991920Y-110187270D01*
X127007682Y-110265833D01*
X127320984Y-110265833D01*
X127311818Y-110227220D01*
X127232050Y-109936575D01*
X126907167Y-109936575D01*
X126090084Y-110132922D01*
X125690603Y-110235735D01*
X125392307Y-110337779D01*
X125133746Y-110468683D01*
X124853471Y-110658079D01*
X124595667Y-110853537D01*
X124309371Y-111073575D01*
X124077072Y-111249173D01*
X123928414Y-111358094D01*
X123890185Y-111382735D01*
X123815657Y-111336549D01*
X123638024Y-111208292D01*
X123387592Y-111020179D01*
X123212852Y-110886167D01*
X122883234Y-110641244D01*
X122610870Y-110472101D01*
X122333347Y-110348728D01*
X121988255Y-110241114D01*
X121731344Y-110173789D01*
X121380974Y-110082905D01*
X121098789Y-110005710D01*
X120920598Y-109952234D01*
X120877032Y-109934455D01*
X120890844Y-109844217D01*
X120950278Y-109626235D01*
X121045118Y-109311440D01*
X121165142Y-108930761D01*
X121300134Y-108515130D01*
X121439873Y-108095476D01*
X121574141Y-107702732D01*
X121692720Y-107367827D01*
X121785389Y-107121692D01*
X121841930Y-106995257D01*
X121851478Y-106985000D01*
X121934676Y-107037063D01*
X122121762Y-107180309D01*
X122388397Y-107395329D01*
X122710240Y-107662709D01*
X122860000Y-107789333D01*
X123198112Y-108073298D01*
X123491477Y-108313277D01*
X123715764Y-108489860D01*
X123846644Y-108583636D01*
X123868178Y-108593667D01*
X123951348Y-108541811D01*
X124138895Y-108399063D01*
X124406560Y-108184655D01*
X124730084Y-107917815D01*
X124888831Y-107784573D01*
X125228421Y-107505675D01*
X125523604Y-107277670D01*
X125750412Y-107117957D01*
X125884874Y-107043937D01*
X125909393Y-107043740D01*
X125954978Y-107142957D01*
X126043117Y-107375783D01*
X126163996Y-107714797D01*
X126307804Y-108132573D01*
X126439136Y-108524287D01*
X126907167Y-109936575D01*
X127232050Y-109936575D01*
X127219978Y-109892591D01*
X127098705Y-109477454D01*
X126956398Y-109008401D01*
X126801456Y-108512021D01*
X126642276Y-108014907D01*
X126487257Y-107543647D01*
X126344797Y-107124834D01*
X126223294Y-106785057D01*
X126131147Y-106550908D01*
X126079717Y-106451858D01*
X125998253Y-106481050D01*
X125812030Y-106604927D01*
X125543721Y-106806663D01*
X125216001Y-107069435D01*
X124968458Y-107276376D01*
X124613364Y-107575902D01*
X124304324Y-107832609D01*
X124063791Y-108028162D01*
X123914220Y-108144227D01*
X123876000Y-108168393D01*
X123800322Y-108116585D01*
X123618187Y-107973313D01*
X123352118Y-107756832D01*
X123024638Y-107485394D01*
X122780306Y-107280375D01*
X122423741Y-106982171D01*
X122112905Y-106726756D01*
X121870439Y-106532372D01*
X121718985Y-106417261D01*
X121679640Y-106393570D01*
X121641767Y-106470991D01*
G36*
X125163466Y-108983978D02*
X124964408Y-109111583D01*
X124762170Y-109274156D01*
X124608181Y-109430707D01*
X124553333Y-109533771D01*
X124625708Y-109583881D01*
X124799325Y-109601382D01*
X125008925Y-109584501D01*
X125146000Y-109549873D01*
X125299572Y-109460737D01*
X125462443Y-109331125D01*
X125586356Y-109183915D01*
X125575385Y-109069179D01*
X125557909Y-109045568D01*
X125396901Y-108947079D01*
X125307913Y-108932333D01*
X125163466Y-108983978D01*
X125163466Y-108983978D01*
G37*
X125163466Y-108983978D02*
X124964408Y-109111583D01*
X124762170Y-109274156D01*
X124608181Y-109430707D01*
X124553333Y-109533771D01*
X124625708Y-109583881D01*
X124799325Y-109601382D01*
X125008925Y-109584501D01*
X125146000Y-109549873D01*
X125299572Y-109460737D01*
X125462443Y-109331125D01*
X125586356Y-109183915D01*
X125575385Y-109069179D01*
X125557909Y-109045568D01*
X125396901Y-108947079D01*
X125307913Y-108932333D01*
X125163466Y-108983978D01*
G36*
X122283850Y-109018660D02*
X122193899Y-109121103D01*
X122249162Y-109269739D01*
X122452062Y-109437751D01*
X122667203Y-109537029D01*
X122896489Y-109597181D01*
X123088092Y-109610649D01*
X123190185Y-109569878D01*
X123195622Y-109546167D01*
X123144594Y-109444398D01*
X123022936Y-109275868D01*
X122996069Y-109242468D01*
X122753970Y-109043668D01*
X122515347Y-108988468D01*
X122283850Y-109018660D01*
X122283850Y-109018660D01*
G37*
X122283850Y-109018660D02*
X122193899Y-109121103D01*
X122249162Y-109269739D01*
X122452062Y-109437751D01*
X122667203Y-109537029D01*
X122896489Y-109597181D01*
X123088092Y-109610649D01*
X123190185Y-109569878D01*
X123195622Y-109546167D01*
X123144594Y-109444398D01*
X123022936Y-109275868D01*
X122996069Y-109242468D01*
X122753970Y-109043668D01*
X122515347Y-108988468D01*
X122283850Y-109018660D01*
M02*
