G04 #@! TF.FileFunction,Copper,L1,Top,Signal*
%FSLAX46Y46*%
G04 Gerber Fmt 4.6, Leading zero omitted, Abs format (unit mm)*
G04 Created by KiCad (PCBNEW 4.0.4+e1-6308~48~ubuntu16.04.1-stable) date Mon Jan 22 19:49:42 2018*
%MOMM*%
%LPD*%
G01*
G04 APERTURE LIST*
%ADD10C,0.100000*%
%ADD11R,1.270000X0.970000*%
%ADD12R,0.970000X1.270000*%
%ADD13C,1.600000*%
%ADD14O,1.600000X1.600000*%
%ADD15R,2.200000X2.200000*%
%ADD16O,2.200000X2.200000*%
%ADD17R,1.700000X1.700000*%
%ADD18O,1.700000X1.700000*%
%ADD19R,0.970000X1.500000*%
%ADD20R,1.524000X1.524000*%
%ADD21C,1.524000*%
%ADD22C,1.800000*%
%ADD23C,0.600000*%
%ADD24C,0.240000*%
%ADD25C,0.400000*%
%ADD26C,0.600000*%
%ADD27C,0.254000*%
G04 APERTURE END LIST*
D10*
D11*
X118490000Y-134775000D03*
X118490000Y-133495000D03*
X113410000Y-134775000D03*
X113410000Y-133495000D03*
X115950000Y-134775000D03*
X115950000Y-133495000D03*
D12*
X118114000Y-118895000D03*
X116834000Y-118895000D03*
D13*
X122300000Y-104925000D03*
D14*
X122300000Y-115085000D03*
D13*
X125475000Y-104925000D03*
D14*
X125475000Y-115085000D03*
D12*
X113913000Y-118895000D03*
X115193000Y-118895000D03*
D15*
X107060000Y-103655000D03*
D16*
X109600000Y-103655000D03*
D15*
X124840000Y-134135000D03*
D16*
X122300000Y-134135000D03*
D15*
X107060000Y-134135000D03*
D16*
X109600000Y-134135000D03*
D17*
X103620000Y-127480000D03*
D18*
X103620000Y-124940000D03*
X103620000Y-122400000D03*
X103620000Y-119860000D03*
X103620000Y-117320000D03*
X103620000Y-114780000D03*
X103620000Y-112240000D03*
D17*
X128410000Y-112240000D03*
D18*
X128410000Y-114780000D03*
X128410000Y-117320000D03*
X128410000Y-119860000D03*
X128410000Y-122400000D03*
X128410000Y-124940000D03*
X128410000Y-127480000D03*
D17*
X103360000Y-140130000D03*
D18*
X105900000Y-140130000D03*
D17*
X125840000Y-140130000D03*
D18*
X128380000Y-140130000D03*
D19*
X114995000Y-103020000D03*
X116905000Y-103020000D03*
D20*
X108965000Y-137945000D03*
D21*
X108965000Y-140485000D03*
D15*
X117855000Y-107465000D03*
D16*
X117855000Y-115085000D03*
D15*
X114045000Y-107465000D03*
D16*
X114045000Y-115085000D03*
D15*
X114045000Y-130325000D03*
D16*
X114045000Y-122705000D03*
D15*
X117855000Y-130325000D03*
D16*
X117855000Y-122705000D03*
D22*
X109930000Y-115110000D03*
X109930000Y-111910000D03*
X109930000Y-109710000D03*
X109930000Y-107510000D03*
X106730000Y-107510000D03*
X106730000Y-109710000D03*
X106730000Y-111910000D03*
X106730000Y-115110000D03*
X106730000Y-122680000D03*
X106730000Y-125880000D03*
X106730000Y-128080000D03*
X106730000Y-130280000D03*
X109930000Y-130280000D03*
X109930000Y-128080000D03*
X109930000Y-125880000D03*
X109930000Y-122680000D03*
X121970000Y-122680000D03*
X121970000Y-125880000D03*
X121970000Y-128080000D03*
X121970000Y-130280000D03*
X125170000Y-130280000D03*
X125170000Y-128080000D03*
X125170000Y-125880000D03*
X125170000Y-122680000D03*
D23*
X111000000Y-116500000D03*
X120141000Y-105941000D03*
X111750000Y-122750000D03*
X128396000Y-129944000D03*
X126364000Y-137945000D03*
X119760000Y-118895000D03*
X115950000Y-104925000D03*
X128015000Y-134135000D03*
X110750000Y-124250000D03*
X112000000Y-133500000D03*
X127380000Y-130960000D03*
X118490000Y-136675000D03*
X118490000Y-139850000D03*
X105155000Y-120165000D03*
D24*
X109430000Y-107510000D02*
X114000000Y-107510000D01*
X114000000Y-107510000D02*
X114045000Y-107465000D01*
X117855000Y-107465000D02*
X114045000Y-107465000D01*
X107230000Y-115110000D02*
X107230000Y-115230000D01*
X107230000Y-115230000D02*
X108500000Y-116500000D01*
X111750000Y-116500000D02*
X113165000Y-115085000D01*
X108500000Y-116500000D02*
X111000000Y-116500000D01*
X111000000Y-116500000D02*
X111750000Y-116500000D01*
X113165000Y-115085000D02*
X114045000Y-115085000D01*
X114045000Y-115085000D02*
X114045000Y-115045000D01*
X107230000Y-115110000D02*
X107230000Y-115128000D01*
X116905000Y-103020000D02*
X117220000Y-103020000D01*
X117220000Y-103020000D02*
X120141000Y-105941000D01*
X106730000Y-109710000D02*
X107040000Y-109710000D01*
X107040000Y-109710000D02*
X108250000Y-108500000D01*
X108250000Y-108500000D02*
X108250000Y-106500000D01*
X108250000Y-106500000D02*
X109600000Y-105150000D01*
X109600000Y-105150000D02*
X109600000Y-103655000D01*
D25*
X107230000Y-130280000D02*
X107230000Y-130910000D01*
X107230000Y-130910000D02*
X108450000Y-132130000D01*
X108450000Y-132130000D02*
X112240000Y-132130000D01*
X112240000Y-132130000D02*
X114045000Y-130325000D01*
X117855000Y-130325000D02*
X114045000Y-130325000D01*
D24*
X114000000Y-130280000D02*
X114045000Y-130325000D01*
X111750000Y-122750000D02*
X111750000Y-122680000D01*
X111750000Y-122680000D02*
X111750000Y-122750000D01*
X111750000Y-122750000D02*
X111750000Y-122680000D01*
X109430000Y-122680000D02*
X111750000Y-122680000D01*
X111750000Y-122680000D02*
X114020000Y-122680000D01*
X114020000Y-122680000D02*
X114045000Y-122705000D01*
D26*
X108965000Y-137945000D02*
X104555000Y-137945000D01*
X103360000Y-139140000D02*
X103360000Y-140130000D01*
X104555000Y-137945000D02*
X103360000Y-139140000D01*
X108965000Y-137945000D02*
X120141000Y-137945000D01*
X128269000Y-137056000D02*
X129285000Y-136040000D01*
X121030000Y-137056000D02*
X128269000Y-137056000D01*
X129285000Y-136040000D02*
X129285000Y-128355000D01*
X129285000Y-128355000D02*
X128410000Y-127480000D01*
X120141000Y-137945000D02*
X121030000Y-137056000D01*
D24*
X128650000Y-127720000D02*
X128410000Y-127480000D01*
X103360000Y-140130000D02*
X103360000Y-139740000D01*
X128410000Y-127480000D02*
X128955000Y-127480000D01*
D26*
X128955000Y-127480000D02*
X129920000Y-126515000D01*
X129920000Y-126515000D02*
X129920000Y-109370000D01*
X129920000Y-109370000D02*
X125475000Y-104925000D01*
D24*
X103620000Y-139870000D02*
X103360000Y-140130000D01*
D26*
X122300000Y-104925000D02*
X125475000Y-104925000D01*
D24*
X117855000Y-122705000D02*
X122445000Y-122705000D01*
X122445000Y-122705000D02*
X122470000Y-122680000D01*
X117855000Y-122705000D02*
X117875000Y-122705000D01*
X117880000Y-122680000D02*
X117855000Y-122705000D01*
X128060000Y-130280000D02*
X124670000Y-130280000D01*
X128060000Y-130280000D02*
X128396000Y-129944000D01*
X121665000Y-137945000D02*
X126364000Y-137945000D01*
X106942000Y-139088000D02*
X120522000Y-139088000D01*
X120522000Y-139088000D02*
X121665000Y-137945000D01*
X106942000Y-139088000D02*
X105900000Y-140130000D01*
X114995000Y-103020000D02*
X114995000Y-103970000D01*
X114995000Y-103970000D02*
X115950000Y-104925000D01*
X128410000Y-122400000D02*
X128345000Y-122400000D01*
X128345000Y-122400000D02*
X124840000Y-118895000D01*
X124840000Y-118895000D02*
X119760000Y-118895000D01*
X119760000Y-118895000D02*
X118114000Y-118895000D01*
X103620000Y-122400000D02*
X103180000Y-122400000D01*
X103180000Y-122400000D02*
X101950000Y-123630000D01*
X103955000Y-134135000D02*
X107060000Y-134135000D01*
X101950000Y-132130000D02*
X103955000Y-134135000D01*
X101950000Y-123630000D02*
X101950000Y-132130000D01*
X112648000Y-119276000D02*
X106933000Y-119276000D01*
X106933000Y-119276000D02*
X103809000Y-122400000D01*
X103809000Y-122400000D02*
X103620000Y-122400000D01*
X113029000Y-118895000D02*
X113913000Y-118895000D01*
X112648000Y-119276000D02*
X113029000Y-118895000D01*
D26*
X128015000Y-134135000D02*
X124840000Y-134135000D01*
X119120000Y-133495000D02*
X120395000Y-134770000D01*
X121030000Y-136040000D02*
X124205000Y-136040000D01*
X124205000Y-136040000D02*
X124840000Y-135405000D01*
X124840000Y-134135000D02*
X124840000Y-135405000D01*
X120395000Y-135405000D02*
X121030000Y-136040000D01*
X120395000Y-134770000D02*
X120395000Y-135405000D01*
X118490000Y-133495000D02*
X119120000Y-133495000D01*
X103620000Y-117320000D02*
X112191000Y-117320000D01*
X128105000Y-117625000D02*
X117601000Y-117625000D01*
X116839000Y-116863000D02*
X117601000Y-117625000D01*
X112648000Y-116863000D02*
X116839000Y-116863000D01*
X112191000Y-117320000D02*
X112648000Y-116863000D01*
X103925000Y-117625000D02*
X103620000Y-117320000D01*
X128105000Y-117625000D02*
X128410000Y-117320000D01*
D25*
X124840000Y-120165000D02*
X115950000Y-120165000D01*
X115950000Y-120165000D02*
X115193000Y-119408000D01*
D24*
X115193000Y-118895000D02*
X115193000Y-119408000D01*
D25*
X124840000Y-120165000D02*
X126745000Y-122070000D01*
X126745000Y-122070000D02*
X126745000Y-123275000D01*
X126745000Y-123275000D02*
X128410000Y-124940000D01*
X109930000Y-115110000D02*
X109930000Y-114680000D01*
X109930000Y-114680000D02*
X108750000Y-113500000D01*
X104900000Y-113500000D02*
X103620000Y-114780000D01*
X108750000Y-113500000D02*
X104900000Y-113500000D01*
X109430000Y-115110000D02*
X109430000Y-115070000D01*
X109430000Y-115070000D02*
X111000000Y-113500000D01*
X126500000Y-113500000D02*
X127780000Y-114780000D01*
X111000000Y-113500000D02*
X126500000Y-113500000D01*
X127780000Y-114780000D02*
X128410000Y-114780000D01*
X103620000Y-114780000D02*
X103720000Y-114780000D01*
X113410000Y-133495000D02*
X112005000Y-133495000D01*
X108500000Y-124250000D02*
X107230000Y-122980000D01*
X110750000Y-124250000D02*
X108500000Y-124250000D01*
X112005000Y-133495000D02*
X112000000Y-133500000D01*
X107230000Y-122980000D02*
X107230000Y-122680000D01*
X103620000Y-114780000D02*
X103780000Y-114780000D01*
D24*
X126237000Y-132103000D02*
X117342000Y-132103000D01*
X117342000Y-132103000D02*
X115950000Y-133495000D01*
X127380000Y-130960000D02*
X126237000Y-132103000D01*
D26*
X118490000Y-134775000D02*
X118490000Y-136675000D01*
X118770000Y-140130000D02*
X125840000Y-140130000D01*
X118770000Y-140130000D02*
X118490000Y-139850000D01*
X113410000Y-134775000D02*
X115950000Y-134775000D01*
X115950000Y-134775000D02*
X118490000Y-134775000D01*
D24*
X113405000Y-134765000D02*
X113410000Y-134765000D01*
D25*
X105155000Y-120165000D02*
X107060000Y-118260000D01*
X107060000Y-118260000D02*
X112394000Y-118260000D01*
X112394000Y-118260000D02*
X113029000Y-117625000D01*
X113029000Y-117625000D02*
X115950000Y-117625000D01*
X115950000Y-117625000D02*
X116834000Y-118509000D01*
D24*
X116834000Y-118509000D02*
X116834000Y-118895000D01*
D27*
G36*
X130518338Y-100821046D02*
X130932333Y-101097669D01*
X131208953Y-101511660D01*
X131320000Y-102069931D01*
X131320000Y-141680069D01*
X131208953Y-142238340D01*
X130932333Y-142652331D01*
X130518338Y-142928954D01*
X129960069Y-143040000D01*
X102069931Y-143040000D01*
X101511660Y-142928953D01*
X101097669Y-142652333D01*
X100821046Y-142238338D01*
X100710000Y-141680069D01*
X100710000Y-123630000D01*
X101194999Y-123630000D01*
X101195000Y-123630005D01*
X101195000Y-132129995D01*
X101194999Y-132130000D01*
X101252471Y-132418926D01*
X101416134Y-132663866D01*
X103421132Y-134668863D01*
X103421134Y-134668866D01*
X103666074Y-134832529D01*
X103955000Y-134890000D01*
X105312560Y-134890000D01*
X105312560Y-135235000D01*
X105356838Y-135470317D01*
X105495910Y-135686441D01*
X105708110Y-135831431D01*
X105960000Y-135882440D01*
X108160000Y-135882440D01*
X108395317Y-135838162D01*
X108611441Y-135699090D01*
X108684311Y-135592441D01*
X108902053Y-135737931D01*
X109566009Y-135870000D01*
X109633991Y-135870000D01*
X110297947Y-135737931D01*
X110860821Y-135361830D01*
X111236922Y-134798956D01*
X111359647Y-134181974D01*
X111469673Y-134292192D01*
X111813201Y-134434838D01*
X112127560Y-134435112D01*
X112127560Y-135260000D01*
X112171838Y-135495317D01*
X112310910Y-135711441D01*
X112523110Y-135856431D01*
X112775000Y-135907440D01*
X114045000Y-135907440D01*
X114280317Y-135863162D01*
X114496441Y-135724090D01*
X114506068Y-135710000D01*
X114849983Y-135710000D01*
X114850910Y-135711441D01*
X115063110Y-135856431D01*
X115315000Y-135907440D01*
X116585000Y-135907440D01*
X116820317Y-135863162D01*
X117036441Y-135724090D01*
X117046068Y-135710000D01*
X117389983Y-135710000D01*
X117390910Y-135711441D01*
X117555000Y-135823559D01*
X117555000Y-136674184D01*
X117554838Y-136860167D01*
X117616748Y-137010000D01*
X110341888Y-137010000D01*
X110330162Y-136947683D01*
X110191090Y-136731559D01*
X109978890Y-136586569D01*
X109727000Y-136535560D01*
X108203000Y-136535560D01*
X107967683Y-136579838D01*
X107751559Y-136718910D01*
X107606569Y-136931110D01*
X107590593Y-137010000D01*
X104555000Y-137010000D01*
X104197191Y-137081173D01*
X103893855Y-137283855D01*
X102698855Y-138478855D01*
X102596153Y-138632560D01*
X102510000Y-138632560D01*
X102274683Y-138676838D01*
X102058559Y-138815910D01*
X101913569Y-139028110D01*
X101862560Y-139280000D01*
X101862560Y-140980000D01*
X101906838Y-141215317D01*
X102045910Y-141431441D01*
X102258110Y-141576431D01*
X102510000Y-141627440D01*
X104210000Y-141627440D01*
X104445317Y-141583162D01*
X104661441Y-141444090D01*
X104806431Y-141231890D01*
X104820086Y-141164459D01*
X104849946Y-141209147D01*
X105331715Y-141531054D01*
X105900000Y-141644093D01*
X106468285Y-141531054D01*
X106566823Y-141465213D01*
X108164392Y-141465213D01*
X108233857Y-141707397D01*
X108757302Y-141894144D01*
X109312368Y-141866362D01*
X109696143Y-141707397D01*
X109765608Y-141465213D01*
X108965000Y-140664605D01*
X108164392Y-141465213D01*
X106566823Y-141465213D01*
X106950054Y-141209147D01*
X107271961Y-140727378D01*
X107385000Y-140159093D01*
X107385000Y-140100907D01*
X107333699Y-139843000D01*
X107710800Y-139843000D01*
X107555856Y-140277302D01*
X107583638Y-140832368D01*
X107742603Y-141216143D01*
X107984787Y-141285608D01*
X108785395Y-140485000D01*
X108771253Y-140470858D01*
X108950858Y-140291253D01*
X108965000Y-140305395D01*
X108979143Y-140291253D01*
X109158748Y-140470858D01*
X109144605Y-140485000D01*
X109945213Y-141285608D01*
X110187397Y-141216143D01*
X110374144Y-140692698D01*
X110346362Y-140137632D01*
X110224321Y-139843000D01*
X117555005Y-139843000D01*
X117554838Y-140035167D01*
X117696883Y-140378943D01*
X117959673Y-140642192D01*
X117960065Y-140642355D01*
X118108855Y-140791145D01*
X118412191Y-140993827D01*
X118770000Y-141065000D01*
X124358554Y-141065000D01*
X124386838Y-141215317D01*
X124525910Y-141431441D01*
X124738110Y-141576431D01*
X124990000Y-141627440D01*
X126690000Y-141627440D01*
X126925317Y-141583162D01*
X127141441Y-141444090D01*
X127286431Y-141231890D01*
X127308301Y-141123893D01*
X127613076Y-141401645D01*
X128023110Y-141571476D01*
X128253000Y-141450155D01*
X128253000Y-140257000D01*
X128507000Y-140257000D01*
X128507000Y-141450155D01*
X128736890Y-141571476D01*
X129146924Y-141401645D01*
X129575183Y-141011358D01*
X129821486Y-140486892D01*
X129700819Y-140257000D01*
X128507000Y-140257000D01*
X128253000Y-140257000D01*
X128233000Y-140257000D01*
X128233000Y-140003000D01*
X128253000Y-140003000D01*
X128253000Y-138809845D01*
X128507000Y-138809845D01*
X128507000Y-140003000D01*
X129700819Y-140003000D01*
X129821486Y-139773108D01*
X129575183Y-139248642D01*
X129146924Y-138858355D01*
X128736890Y-138688524D01*
X128507000Y-138809845D01*
X128253000Y-138809845D01*
X128023110Y-138688524D01*
X127613076Y-138858355D01*
X127310063Y-139134501D01*
X127293162Y-139044683D01*
X127154090Y-138828559D01*
X126945272Y-138685880D01*
X127156192Y-138475327D01*
X127298838Y-138131799D01*
X127298961Y-137991000D01*
X128269000Y-137991000D01*
X128626809Y-137919827D01*
X128930145Y-137717145D01*
X129946145Y-136701145D01*
X130148827Y-136397809D01*
X130220000Y-136040000D01*
X130220000Y-128355000D01*
X130148827Y-127997191D01*
X129993125Y-127764165D01*
X130581145Y-127176145D01*
X130783827Y-126872809D01*
X130855000Y-126515000D01*
X130855000Y-109370000D01*
X130783827Y-109012191D01*
X130581145Y-108708855D01*
X126909902Y-105037612D01*
X126910248Y-104640813D01*
X126692243Y-104113200D01*
X126288923Y-103709176D01*
X125761691Y-103490250D01*
X125190813Y-103489752D01*
X124663200Y-103707757D01*
X124380464Y-103990000D01*
X123394258Y-103990000D01*
X123113923Y-103709176D01*
X122586691Y-103490250D01*
X122015813Y-103489752D01*
X121488200Y-103707757D01*
X121084176Y-104111077D01*
X120865250Y-104638309D01*
X120864752Y-105209187D01*
X121082757Y-105736800D01*
X121486077Y-106140824D01*
X122013309Y-106359750D01*
X122584187Y-106360248D01*
X123111800Y-106142243D01*
X123394536Y-105860000D01*
X124380742Y-105860000D01*
X124661077Y-106140824D01*
X125188309Y-106359750D01*
X125587808Y-106360098D01*
X128985000Y-109757290D01*
X128985000Y-110755000D01*
X128695750Y-110755000D01*
X128537000Y-110913750D01*
X128537000Y-112113000D01*
X128557000Y-112113000D01*
X128557000Y-112367000D01*
X128537000Y-112367000D01*
X128537000Y-112387000D01*
X128283000Y-112387000D01*
X128283000Y-112367000D01*
X127083750Y-112367000D01*
X126925000Y-112525750D01*
X126925000Y-112799026D01*
X126819541Y-112728561D01*
X126500000Y-112665000D01*
X111278570Y-112665000D01*
X111464733Y-112216670D01*
X111465265Y-111606009D01*
X111323822Y-111263690D01*
X126925000Y-111263690D01*
X126925000Y-111954250D01*
X127083750Y-112113000D01*
X128283000Y-112113000D01*
X128283000Y-110913750D01*
X128124250Y-110755000D01*
X127433691Y-110755000D01*
X127200302Y-110851673D01*
X127021673Y-111030301D01*
X126925000Y-111263690D01*
X111323822Y-111263690D01*
X111232068Y-111041629D01*
X110800643Y-110609449D01*
X110542763Y-110502368D01*
X109930000Y-109889605D01*
X109317324Y-110502281D01*
X109061629Y-110607932D01*
X108629449Y-111039357D01*
X108395267Y-111603330D01*
X108394735Y-112213991D01*
X108581088Y-112665000D01*
X108078570Y-112665000D01*
X108264733Y-112216670D01*
X108265265Y-111606009D01*
X108032068Y-111041629D01*
X107800818Y-110809974D01*
X108030551Y-110580643D01*
X108264733Y-110016670D01*
X108265137Y-109552594D01*
X108403820Y-109413912D01*
X108383542Y-109469336D01*
X108409161Y-110079460D01*
X108593357Y-110524148D01*
X108849841Y-110610554D01*
X109750395Y-109710000D01*
X110109605Y-109710000D01*
X111010159Y-110610554D01*
X111266643Y-110524148D01*
X111476458Y-109950664D01*
X111450839Y-109340540D01*
X111266643Y-108895852D01*
X111010159Y-108809446D01*
X110109605Y-109710000D01*
X109750395Y-109710000D01*
X109736253Y-109695858D01*
X109915858Y-109516253D01*
X109930000Y-109530395D01*
X110542676Y-108917719D01*
X110798371Y-108812068D01*
X111230551Y-108380643D01*
X111278570Y-108265000D01*
X112297560Y-108265000D01*
X112297560Y-108565000D01*
X112341838Y-108800317D01*
X112480910Y-109016441D01*
X112693110Y-109161431D01*
X112945000Y-109212440D01*
X115145000Y-109212440D01*
X115380317Y-109168162D01*
X115596441Y-109029090D01*
X115741431Y-108816890D01*
X115792440Y-108565000D01*
X115792440Y-108220000D01*
X116107560Y-108220000D01*
X116107560Y-108565000D01*
X116151838Y-108800317D01*
X116290910Y-109016441D01*
X116503110Y-109161431D01*
X116755000Y-109212440D01*
X118955000Y-109212440D01*
X119190317Y-109168162D01*
X119406441Y-109029090D01*
X119551431Y-108816890D01*
X119602440Y-108565000D01*
X119602440Y-106724945D01*
X119610673Y-106733192D01*
X119954201Y-106875838D01*
X120326167Y-106876162D01*
X120669943Y-106734117D01*
X120933192Y-106471327D01*
X121075838Y-106127799D01*
X121076162Y-105755833D01*
X120934117Y-105412057D01*
X120671327Y-105148808D01*
X120327799Y-105006162D01*
X120273846Y-105006115D01*
X118037440Y-102769708D01*
X118037440Y-102270000D01*
X117993162Y-102034683D01*
X117854090Y-101818559D01*
X117641890Y-101673569D01*
X117390000Y-101622560D01*
X116420000Y-101622560D01*
X116184683Y-101666838D01*
X115968559Y-101805910D01*
X115951766Y-101830488D01*
X115944090Y-101818559D01*
X115731890Y-101673569D01*
X115480000Y-101622560D01*
X114510000Y-101622560D01*
X114274683Y-101666838D01*
X114058559Y-101805910D01*
X113913569Y-102018110D01*
X113862560Y-102270000D01*
X113862560Y-103770000D01*
X113906838Y-104005317D01*
X114045910Y-104221441D01*
X114258110Y-104366431D01*
X114386703Y-104392472D01*
X114461134Y-104503866D01*
X115014884Y-105057616D01*
X115014838Y-105110167D01*
X115156883Y-105453943D01*
X115419673Y-105717192D01*
X115763201Y-105859838D01*
X116135167Y-105860162D01*
X116478943Y-105718117D01*
X116742192Y-105455327D01*
X116884838Y-105111799D01*
X116885162Y-104739833D01*
X116751952Y-104417440D01*
X117390000Y-104417440D01*
X117524416Y-104392148D01*
X118849829Y-105717560D01*
X116755000Y-105717560D01*
X116519683Y-105761838D01*
X116303559Y-105900910D01*
X116158569Y-106113110D01*
X116107560Y-106365000D01*
X116107560Y-106710000D01*
X115792440Y-106710000D01*
X115792440Y-106365000D01*
X115748162Y-106129683D01*
X115609090Y-105913559D01*
X115396890Y-105768569D01*
X115145000Y-105717560D01*
X112945000Y-105717560D01*
X112709683Y-105761838D01*
X112493559Y-105900910D01*
X112348569Y-106113110D01*
X112297560Y-106365000D01*
X112297560Y-106755000D01*
X111278912Y-106755000D01*
X111232068Y-106641629D01*
X110800643Y-106209449D01*
X110236670Y-105975267D01*
X109842807Y-105974924D01*
X110133863Y-105683868D01*
X110133866Y-105683866D01*
X110297529Y-105438926D01*
X110338986Y-105230510D01*
X110860821Y-104881830D01*
X111236922Y-104318956D01*
X111368991Y-103655000D01*
X111236922Y-102991044D01*
X110860821Y-102428170D01*
X110297947Y-102052069D01*
X109633991Y-101920000D01*
X109566009Y-101920000D01*
X108902053Y-102052069D01*
X108684498Y-102197435D01*
X108624090Y-102103559D01*
X108411890Y-101958569D01*
X108160000Y-101907560D01*
X105960000Y-101907560D01*
X105724683Y-101951838D01*
X105508559Y-102090910D01*
X105363569Y-102303110D01*
X105312560Y-102555000D01*
X105312560Y-104755000D01*
X105356838Y-104990317D01*
X105495910Y-105206441D01*
X105708110Y-105351431D01*
X105960000Y-105402440D01*
X108160000Y-105402440D01*
X108307602Y-105374667D01*
X107716134Y-105966134D01*
X107563783Y-106194144D01*
X107036670Y-105975267D01*
X106426009Y-105974735D01*
X105861629Y-106207932D01*
X105429449Y-106639357D01*
X105195267Y-107203330D01*
X105194735Y-107813991D01*
X105427932Y-108378371D01*
X105659182Y-108610026D01*
X105429449Y-108839357D01*
X105195267Y-109403330D01*
X105194735Y-110013991D01*
X105427932Y-110578371D01*
X105659182Y-110810026D01*
X105429449Y-111039357D01*
X105195267Y-111603330D01*
X105194735Y-112213991D01*
X105381088Y-112665000D01*
X105033266Y-112665000D01*
X105061476Y-112596890D01*
X104940155Y-112367000D01*
X103747000Y-112367000D01*
X103747000Y-112387000D01*
X103493000Y-112387000D01*
X103493000Y-112367000D01*
X102299845Y-112367000D01*
X102178524Y-112596890D01*
X102348355Y-113006924D01*
X102738642Y-113435183D01*
X102881553Y-113502298D01*
X102540853Y-113729946D01*
X102218946Y-114211715D01*
X102105907Y-114780000D01*
X102218946Y-115348285D01*
X102540853Y-115830054D01*
X102870026Y-116050000D01*
X102540853Y-116269946D01*
X102218946Y-116751715D01*
X102105907Y-117320000D01*
X102218946Y-117888285D01*
X102540853Y-118370054D01*
X102870026Y-118590000D01*
X102540853Y-118809946D01*
X102218946Y-119291715D01*
X102105907Y-119860000D01*
X102218946Y-120428285D01*
X102540853Y-120910054D01*
X102870026Y-121130000D01*
X102540853Y-121349946D01*
X102218946Y-121831715D01*
X102105907Y-122400000D01*
X102106962Y-122405306D01*
X101416134Y-123096134D01*
X101252471Y-123341074D01*
X101194999Y-123630000D01*
X100710000Y-123630000D01*
X100710000Y-111883110D01*
X102178524Y-111883110D01*
X102299845Y-112113000D01*
X103493000Y-112113000D01*
X103493000Y-110919181D01*
X103747000Y-110919181D01*
X103747000Y-112113000D01*
X104940155Y-112113000D01*
X105061476Y-111883110D01*
X104891645Y-111473076D01*
X104501358Y-111044817D01*
X103976892Y-110798514D01*
X103747000Y-110919181D01*
X103493000Y-110919181D01*
X103263108Y-110798514D01*
X102738642Y-111044817D01*
X102348355Y-111473076D01*
X102178524Y-111883110D01*
X100710000Y-111883110D01*
X100710000Y-102069931D01*
X100821046Y-101511662D01*
X101097669Y-101097667D01*
X101511660Y-100821047D01*
X102069931Y-100710000D01*
X129960069Y-100710000D01*
X130518338Y-100821046D01*
X130518338Y-100821046D01*
G37*
X130518338Y-100821046D02*
X130932333Y-101097669D01*
X131208953Y-101511660D01*
X131320000Y-102069931D01*
X131320000Y-141680069D01*
X131208953Y-142238340D01*
X130932333Y-142652331D01*
X130518338Y-142928954D01*
X129960069Y-143040000D01*
X102069931Y-143040000D01*
X101511660Y-142928953D01*
X101097669Y-142652333D01*
X100821046Y-142238338D01*
X100710000Y-141680069D01*
X100710000Y-123630000D01*
X101194999Y-123630000D01*
X101195000Y-123630005D01*
X101195000Y-132129995D01*
X101194999Y-132130000D01*
X101252471Y-132418926D01*
X101416134Y-132663866D01*
X103421132Y-134668863D01*
X103421134Y-134668866D01*
X103666074Y-134832529D01*
X103955000Y-134890000D01*
X105312560Y-134890000D01*
X105312560Y-135235000D01*
X105356838Y-135470317D01*
X105495910Y-135686441D01*
X105708110Y-135831431D01*
X105960000Y-135882440D01*
X108160000Y-135882440D01*
X108395317Y-135838162D01*
X108611441Y-135699090D01*
X108684311Y-135592441D01*
X108902053Y-135737931D01*
X109566009Y-135870000D01*
X109633991Y-135870000D01*
X110297947Y-135737931D01*
X110860821Y-135361830D01*
X111236922Y-134798956D01*
X111359647Y-134181974D01*
X111469673Y-134292192D01*
X111813201Y-134434838D01*
X112127560Y-134435112D01*
X112127560Y-135260000D01*
X112171838Y-135495317D01*
X112310910Y-135711441D01*
X112523110Y-135856431D01*
X112775000Y-135907440D01*
X114045000Y-135907440D01*
X114280317Y-135863162D01*
X114496441Y-135724090D01*
X114506068Y-135710000D01*
X114849983Y-135710000D01*
X114850910Y-135711441D01*
X115063110Y-135856431D01*
X115315000Y-135907440D01*
X116585000Y-135907440D01*
X116820317Y-135863162D01*
X117036441Y-135724090D01*
X117046068Y-135710000D01*
X117389983Y-135710000D01*
X117390910Y-135711441D01*
X117555000Y-135823559D01*
X117555000Y-136674184D01*
X117554838Y-136860167D01*
X117616748Y-137010000D01*
X110341888Y-137010000D01*
X110330162Y-136947683D01*
X110191090Y-136731559D01*
X109978890Y-136586569D01*
X109727000Y-136535560D01*
X108203000Y-136535560D01*
X107967683Y-136579838D01*
X107751559Y-136718910D01*
X107606569Y-136931110D01*
X107590593Y-137010000D01*
X104555000Y-137010000D01*
X104197191Y-137081173D01*
X103893855Y-137283855D01*
X102698855Y-138478855D01*
X102596153Y-138632560D01*
X102510000Y-138632560D01*
X102274683Y-138676838D01*
X102058559Y-138815910D01*
X101913569Y-139028110D01*
X101862560Y-139280000D01*
X101862560Y-140980000D01*
X101906838Y-141215317D01*
X102045910Y-141431441D01*
X102258110Y-141576431D01*
X102510000Y-141627440D01*
X104210000Y-141627440D01*
X104445317Y-141583162D01*
X104661441Y-141444090D01*
X104806431Y-141231890D01*
X104820086Y-141164459D01*
X104849946Y-141209147D01*
X105331715Y-141531054D01*
X105900000Y-141644093D01*
X106468285Y-141531054D01*
X106566823Y-141465213D01*
X108164392Y-141465213D01*
X108233857Y-141707397D01*
X108757302Y-141894144D01*
X109312368Y-141866362D01*
X109696143Y-141707397D01*
X109765608Y-141465213D01*
X108965000Y-140664605D01*
X108164392Y-141465213D01*
X106566823Y-141465213D01*
X106950054Y-141209147D01*
X107271961Y-140727378D01*
X107385000Y-140159093D01*
X107385000Y-140100907D01*
X107333699Y-139843000D01*
X107710800Y-139843000D01*
X107555856Y-140277302D01*
X107583638Y-140832368D01*
X107742603Y-141216143D01*
X107984787Y-141285608D01*
X108785395Y-140485000D01*
X108771253Y-140470858D01*
X108950858Y-140291253D01*
X108965000Y-140305395D01*
X108979143Y-140291253D01*
X109158748Y-140470858D01*
X109144605Y-140485000D01*
X109945213Y-141285608D01*
X110187397Y-141216143D01*
X110374144Y-140692698D01*
X110346362Y-140137632D01*
X110224321Y-139843000D01*
X117555005Y-139843000D01*
X117554838Y-140035167D01*
X117696883Y-140378943D01*
X117959673Y-140642192D01*
X117960065Y-140642355D01*
X118108855Y-140791145D01*
X118412191Y-140993827D01*
X118770000Y-141065000D01*
X124358554Y-141065000D01*
X124386838Y-141215317D01*
X124525910Y-141431441D01*
X124738110Y-141576431D01*
X124990000Y-141627440D01*
X126690000Y-141627440D01*
X126925317Y-141583162D01*
X127141441Y-141444090D01*
X127286431Y-141231890D01*
X127308301Y-141123893D01*
X127613076Y-141401645D01*
X128023110Y-141571476D01*
X128253000Y-141450155D01*
X128253000Y-140257000D01*
X128507000Y-140257000D01*
X128507000Y-141450155D01*
X128736890Y-141571476D01*
X129146924Y-141401645D01*
X129575183Y-141011358D01*
X129821486Y-140486892D01*
X129700819Y-140257000D01*
X128507000Y-140257000D01*
X128253000Y-140257000D01*
X128233000Y-140257000D01*
X128233000Y-140003000D01*
X128253000Y-140003000D01*
X128253000Y-138809845D01*
X128507000Y-138809845D01*
X128507000Y-140003000D01*
X129700819Y-140003000D01*
X129821486Y-139773108D01*
X129575183Y-139248642D01*
X129146924Y-138858355D01*
X128736890Y-138688524D01*
X128507000Y-138809845D01*
X128253000Y-138809845D01*
X128023110Y-138688524D01*
X127613076Y-138858355D01*
X127310063Y-139134501D01*
X127293162Y-139044683D01*
X127154090Y-138828559D01*
X126945272Y-138685880D01*
X127156192Y-138475327D01*
X127298838Y-138131799D01*
X127298961Y-137991000D01*
X128269000Y-137991000D01*
X128626809Y-137919827D01*
X128930145Y-137717145D01*
X129946145Y-136701145D01*
X130148827Y-136397809D01*
X130220000Y-136040000D01*
X130220000Y-128355000D01*
X130148827Y-127997191D01*
X129993125Y-127764165D01*
X130581145Y-127176145D01*
X130783827Y-126872809D01*
X130855000Y-126515000D01*
X130855000Y-109370000D01*
X130783827Y-109012191D01*
X130581145Y-108708855D01*
X126909902Y-105037612D01*
X126910248Y-104640813D01*
X126692243Y-104113200D01*
X126288923Y-103709176D01*
X125761691Y-103490250D01*
X125190813Y-103489752D01*
X124663200Y-103707757D01*
X124380464Y-103990000D01*
X123394258Y-103990000D01*
X123113923Y-103709176D01*
X122586691Y-103490250D01*
X122015813Y-103489752D01*
X121488200Y-103707757D01*
X121084176Y-104111077D01*
X120865250Y-104638309D01*
X120864752Y-105209187D01*
X121082757Y-105736800D01*
X121486077Y-106140824D01*
X122013309Y-106359750D01*
X122584187Y-106360248D01*
X123111800Y-106142243D01*
X123394536Y-105860000D01*
X124380742Y-105860000D01*
X124661077Y-106140824D01*
X125188309Y-106359750D01*
X125587808Y-106360098D01*
X128985000Y-109757290D01*
X128985000Y-110755000D01*
X128695750Y-110755000D01*
X128537000Y-110913750D01*
X128537000Y-112113000D01*
X128557000Y-112113000D01*
X128557000Y-112367000D01*
X128537000Y-112367000D01*
X128537000Y-112387000D01*
X128283000Y-112387000D01*
X128283000Y-112367000D01*
X127083750Y-112367000D01*
X126925000Y-112525750D01*
X126925000Y-112799026D01*
X126819541Y-112728561D01*
X126500000Y-112665000D01*
X111278570Y-112665000D01*
X111464733Y-112216670D01*
X111465265Y-111606009D01*
X111323822Y-111263690D01*
X126925000Y-111263690D01*
X126925000Y-111954250D01*
X127083750Y-112113000D01*
X128283000Y-112113000D01*
X128283000Y-110913750D01*
X128124250Y-110755000D01*
X127433691Y-110755000D01*
X127200302Y-110851673D01*
X127021673Y-111030301D01*
X126925000Y-111263690D01*
X111323822Y-111263690D01*
X111232068Y-111041629D01*
X110800643Y-110609449D01*
X110542763Y-110502368D01*
X109930000Y-109889605D01*
X109317324Y-110502281D01*
X109061629Y-110607932D01*
X108629449Y-111039357D01*
X108395267Y-111603330D01*
X108394735Y-112213991D01*
X108581088Y-112665000D01*
X108078570Y-112665000D01*
X108264733Y-112216670D01*
X108265265Y-111606009D01*
X108032068Y-111041629D01*
X107800818Y-110809974D01*
X108030551Y-110580643D01*
X108264733Y-110016670D01*
X108265137Y-109552594D01*
X108403820Y-109413912D01*
X108383542Y-109469336D01*
X108409161Y-110079460D01*
X108593357Y-110524148D01*
X108849841Y-110610554D01*
X109750395Y-109710000D01*
X110109605Y-109710000D01*
X111010159Y-110610554D01*
X111266643Y-110524148D01*
X111476458Y-109950664D01*
X111450839Y-109340540D01*
X111266643Y-108895852D01*
X111010159Y-108809446D01*
X110109605Y-109710000D01*
X109750395Y-109710000D01*
X109736253Y-109695858D01*
X109915858Y-109516253D01*
X109930000Y-109530395D01*
X110542676Y-108917719D01*
X110798371Y-108812068D01*
X111230551Y-108380643D01*
X111278570Y-108265000D01*
X112297560Y-108265000D01*
X112297560Y-108565000D01*
X112341838Y-108800317D01*
X112480910Y-109016441D01*
X112693110Y-109161431D01*
X112945000Y-109212440D01*
X115145000Y-109212440D01*
X115380317Y-109168162D01*
X115596441Y-109029090D01*
X115741431Y-108816890D01*
X115792440Y-108565000D01*
X115792440Y-108220000D01*
X116107560Y-108220000D01*
X116107560Y-108565000D01*
X116151838Y-108800317D01*
X116290910Y-109016441D01*
X116503110Y-109161431D01*
X116755000Y-109212440D01*
X118955000Y-109212440D01*
X119190317Y-109168162D01*
X119406441Y-109029090D01*
X119551431Y-108816890D01*
X119602440Y-108565000D01*
X119602440Y-106724945D01*
X119610673Y-106733192D01*
X119954201Y-106875838D01*
X120326167Y-106876162D01*
X120669943Y-106734117D01*
X120933192Y-106471327D01*
X121075838Y-106127799D01*
X121076162Y-105755833D01*
X120934117Y-105412057D01*
X120671327Y-105148808D01*
X120327799Y-105006162D01*
X120273846Y-105006115D01*
X118037440Y-102769708D01*
X118037440Y-102270000D01*
X117993162Y-102034683D01*
X117854090Y-101818559D01*
X117641890Y-101673569D01*
X117390000Y-101622560D01*
X116420000Y-101622560D01*
X116184683Y-101666838D01*
X115968559Y-101805910D01*
X115951766Y-101830488D01*
X115944090Y-101818559D01*
X115731890Y-101673569D01*
X115480000Y-101622560D01*
X114510000Y-101622560D01*
X114274683Y-101666838D01*
X114058559Y-101805910D01*
X113913569Y-102018110D01*
X113862560Y-102270000D01*
X113862560Y-103770000D01*
X113906838Y-104005317D01*
X114045910Y-104221441D01*
X114258110Y-104366431D01*
X114386703Y-104392472D01*
X114461134Y-104503866D01*
X115014884Y-105057616D01*
X115014838Y-105110167D01*
X115156883Y-105453943D01*
X115419673Y-105717192D01*
X115763201Y-105859838D01*
X116135167Y-105860162D01*
X116478943Y-105718117D01*
X116742192Y-105455327D01*
X116884838Y-105111799D01*
X116885162Y-104739833D01*
X116751952Y-104417440D01*
X117390000Y-104417440D01*
X117524416Y-104392148D01*
X118849829Y-105717560D01*
X116755000Y-105717560D01*
X116519683Y-105761838D01*
X116303559Y-105900910D01*
X116158569Y-106113110D01*
X116107560Y-106365000D01*
X116107560Y-106710000D01*
X115792440Y-106710000D01*
X115792440Y-106365000D01*
X115748162Y-106129683D01*
X115609090Y-105913559D01*
X115396890Y-105768569D01*
X115145000Y-105717560D01*
X112945000Y-105717560D01*
X112709683Y-105761838D01*
X112493559Y-105900910D01*
X112348569Y-106113110D01*
X112297560Y-106365000D01*
X112297560Y-106755000D01*
X111278912Y-106755000D01*
X111232068Y-106641629D01*
X110800643Y-106209449D01*
X110236670Y-105975267D01*
X109842807Y-105974924D01*
X110133863Y-105683868D01*
X110133866Y-105683866D01*
X110297529Y-105438926D01*
X110338986Y-105230510D01*
X110860821Y-104881830D01*
X111236922Y-104318956D01*
X111368991Y-103655000D01*
X111236922Y-102991044D01*
X110860821Y-102428170D01*
X110297947Y-102052069D01*
X109633991Y-101920000D01*
X109566009Y-101920000D01*
X108902053Y-102052069D01*
X108684498Y-102197435D01*
X108624090Y-102103559D01*
X108411890Y-101958569D01*
X108160000Y-101907560D01*
X105960000Y-101907560D01*
X105724683Y-101951838D01*
X105508559Y-102090910D01*
X105363569Y-102303110D01*
X105312560Y-102555000D01*
X105312560Y-104755000D01*
X105356838Y-104990317D01*
X105495910Y-105206441D01*
X105708110Y-105351431D01*
X105960000Y-105402440D01*
X108160000Y-105402440D01*
X108307602Y-105374667D01*
X107716134Y-105966134D01*
X107563783Y-106194144D01*
X107036670Y-105975267D01*
X106426009Y-105974735D01*
X105861629Y-106207932D01*
X105429449Y-106639357D01*
X105195267Y-107203330D01*
X105194735Y-107813991D01*
X105427932Y-108378371D01*
X105659182Y-108610026D01*
X105429449Y-108839357D01*
X105195267Y-109403330D01*
X105194735Y-110013991D01*
X105427932Y-110578371D01*
X105659182Y-110810026D01*
X105429449Y-111039357D01*
X105195267Y-111603330D01*
X105194735Y-112213991D01*
X105381088Y-112665000D01*
X105033266Y-112665000D01*
X105061476Y-112596890D01*
X104940155Y-112367000D01*
X103747000Y-112367000D01*
X103747000Y-112387000D01*
X103493000Y-112387000D01*
X103493000Y-112367000D01*
X102299845Y-112367000D01*
X102178524Y-112596890D01*
X102348355Y-113006924D01*
X102738642Y-113435183D01*
X102881553Y-113502298D01*
X102540853Y-113729946D01*
X102218946Y-114211715D01*
X102105907Y-114780000D01*
X102218946Y-115348285D01*
X102540853Y-115830054D01*
X102870026Y-116050000D01*
X102540853Y-116269946D01*
X102218946Y-116751715D01*
X102105907Y-117320000D01*
X102218946Y-117888285D01*
X102540853Y-118370054D01*
X102870026Y-118590000D01*
X102540853Y-118809946D01*
X102218946Y-119291715D01*
X102105907Y-119860000D01*
X102218946Y-120428285D01*
X102540853Y-120910054D01*
X102870026Y-121130000D01*
X102540853Y-121349946D01*
X102218946Y-121831715D01*
X102105907Y-122400000D01*
X102106962Y-122405306D01*
X101416134Y-123096134D01*
X101252471Y-123341074D01*
X101194999Y-123630000D01*
X100710000Y-123630000D01*
X100710000Y-111883110D01*
X102178524Y-111883110D01*
X102299845Y-112113000D01*
X103493000Y-112113000D01*
X103493000Y-110919181D01*
X103747000Y-110919181D01*
X103747000Y-112113000D01*
X104940155Y-112113000D01*
X105061476Y-111883110D01*
X104891645Y-111473076D01*
X104501358Y-111044817D01*
X103976892Y-110798514D01*
X103747000Y-110919181D01*
X103493000Y-110919181D01*
X103263108Y-110798514D01*
X102738642Y-111044817D01*
X102348355Y-111473076D01*
X102178524Y-111883110D01*
X100710000Y-111883110D01*
X100710000Y-102069931D01*
X100821046Y-101511662D01*
X101097669Y-101097667D01*
X101511660Y-100821047D01*
X102069931Y-100710000D01*
X129960069Y-100710000D01*
X130518338Y-100821046D01*
G36*
X105195267Y-122373330D02*
X105194735Y-122983991D01*
X105427932Y-123548371D01*
X105859357Y-123980551D01*
X106423330Y-124214733D01*
X107033991Y-124215265D01*
X107211183Y-124142051D01*
X107909566Y-124840434D01*
X108180459Y-125021439D01*
X108500000Y-125085000D01*
X108598039Y-125085000D01*
X108395267Y-125573330D01*
X108394735Y-126183991D01*
X108627932Y-126748371D01*
X108859182Y-126980026D01*
X108629449Y-127209357D01*
X108395267Y-127773330D01*
X108394735Y-128383991D01*
X108627932Y-128948371D01*
X108859182Y-129180026D01*
X108629449Y-129409357D01*
X108395267Y-129973330D01*
X108394735Y-130583991D01*
X108612929Y-131112061D01*
X108212743Y-130711875D01*
X108264733Y-130586670D01*
X108265265Y-129976009D01*
X108032068Y-129411629D01*
X107600643Y-128979449D01*
X107342763Y-128872368D01*
X106730000Y-128259605D01*
X106117324Y-128872281D01*
X105861629Y-128977932D01*
X105429449Y-129409357D01*
X105195267Y-129973330D01*
X105194735Y-130583991D01*
X105427932Y-131148371D01*
X105859357Y-131580551D01*
X106423330Y-131814733D01*
X106954328Y-131815196D01*
X107526692Y-132387560D01*
X105960000Y-132387560D01*
X105724683Y-132431838D01*
X105508559Y-132570910D01*
X105363569Y-132783110D01*
X105312560Y-133035000D01*
X105312560Y-133380000D01*
X104267731Y-133380000D01*
X102705000Y-131817268D01*
X102705000Y-128964277D01*
X102770000Y-128977440D01*
X104470000Y-128977440D01*
X104705317Y-128933162D01*
X104921441Y-128794090D01*
X105066431Y-128581890D01*
X105117440Y-128330000D01*
X105117440Y-127839336D01*
X105183542Y-127839336D01*
X105209161Y-128449460D01*
X105393357Y-128894148D01*
X105649841Y-128980554D01*
X106550395Y-128080000D01*
X106909605Y-128080000D01*
X107810159Y-128980554D01*
X108066643Y-128894148D01*
X108276458Y-128320664D01*
X108250839Y-127710540D01*
X108066643Y-127265852D01*
X107810159Y-127179446D01*
X106909605Y-128080000D01*
X106550395Y-128080000D01*
X105649841Y-127179446D01*
X105393357Y-127265852D01*
X105183542Y-127839336D01*
X105117440Y-127839336D01*
X105117440Y-126630000D01*
X105073162Y-126394683D01*
X104937586Y-126183991D01*
X105194735Y-126183991D01*
X105427932Y-126748371D01*
X105859357Y-127180551D01*
X106117237Y-127287632D01*
X106730000Y-127900395D01*
X107342676Y-127287719D01*
X107598371Y-127182068D01*
X108030551Y-126750643D01*
X108264733Y-126186670D01*
X108265265Y-125576009D01*
X108032068Y-125011629D01*
X107600643Y-124579449D01*
X107036670Y-124345267D01*
X106426009Y-124344735D01*
X105861629Y-124577932D01*
X105429449Y-125009357D01*
X105195267Y-125573330D01*
X105194735Y-126183991D01*
X104937586Y-126183991D01*
X104934090Y-126178559D01*
X104721890Y-126033569D01*
X104654459Y-126019914D01*
X104699147Y-125990054D01*
X105021054Y-125508285D01*
X105134093Y-124940000D01*
X105021054Y-124371715D01*
X104699147Y-123889946D01*
X104369974Y-123670000D01*
X104699147Y-123450054D01*
X105021054Y-122968285D01*
X105134093Y-122400000D01*
X105091394Y-122185338D01*
X105402518Y-121874214D01*
X105195267Y-122373330D01*
X105195267Y-122373330D01*
G37*
X105195267Y-122373330D02*
X105194735Y-122983991D01*
X105427932Y-123548371D01*
X105859357Y-123980551D01*
X106423330Y-124214733D01*
X107033991Y-124215265D01*
X107211183Y-124142051D01*
X107909566Y-124840434D01*
X108180459Y-125021439D01*
X108500000Y-125085000D01*
X108598039Y-125085000D01*
X108395267Y-125573330D01*
X108394735Y-126183991D01*
X108627932Y-126748371D01*
X108859182Y-126980026D01*
X108629449Y-127209357D01*
X108395267Y-127773330D01*
X108394735Y-128383991D01*
X108627932Y-128948371D01*
X108859182Y-129180026D01*
X108629449Y-129409357D01*
X108395267Y-129973330D01*
X108394735Y-130583991D01*
X108612929Y-131112061D01*
X108212743Y-130711875D01*
X108264733Y-130586670D01*
X108265265Y-129976009D01*
X108032068Y-129411629D01*
X107600643Y-128979449D01*
X107342763Y-128872368D01*
X106730000Y-128259605D01*
X106117324Y-128872281D01*
X105861629Y-128977932D01*
X105429449Y-129409357D01*
X105195267Y-129973330D01*
X105194735Y-130583991D01*
X105427932Y-131148371D01*
X105859357Y-131580551D01*
X106423330Y-131814733D01*
X106954328Y-131815196D01*
X107526692Y-132387560D01*
X105960000Y-132387560D01*
X105724683Y-132431838D01*
X105508559Y-132570910D01*
X105363569Y-132783110D01*
X105312560Y-133035000D01*
X105312560Y-133380000D01*
X104267731Y-133380000D01*
X102705000Y-131817268D01*
X102705000Y-128964277D01*
X102770000Y-128977440D01*
X104470000Y-128977440D01*
X104705317Y-128933162D01*
X104921441Y-128794090D01*
X105066431Y-128581890D01*
X105117440Y-128330000D01*
X105117440Y-127839336D01*
X105183542Y-127839336D01*
X105209161Y-128449460D01*
X105393357Y-128894148D01*
X105649841Y-128980554D01*
X106550395Y-128080000D01*
X106909605Y-128080000D01*
X107810159Y-128980554D01*
X108066643Y-128894148D01*
X108276458Y-128320664D01*
X108250839Y-127710540D01*
X108066643Y-127265852D01*
X107810159Y-127179446D01*
X106909605Y-128080000D01*
X106550395Y-128080000D01*
X105649841Y-127179446D01*
X105393357Y-127265852D01*
X105183542Y-127839336D01*
X105117440Y-127839336D01*
X105117440Y-126630000D01*
X105073162Y-126394683D01*
X104937586Y-126183991D01*
X105194735Y-126183991D01*
X105427932Y-126748371D01*
X105859357Y-127180551D01*
X106117237Y-127287632D01*
X106730000Y-127900395D01*
X107342676Y-127287719D01*
X107598371Y-127182068D01*
X108030551Y-126750643D01*
X108264733Y-126186670D01*
X108265265Y-125576009D01*
X108032068Y-125011629D01*
X107600643Y-124579449D01*
X107036670Y-124345267D01*
X106426009Y-124344735D01*
X105861629Y-124577932D01*
X105429449Y-125009357D01*
X105195267Y-125573330D01*
X105194735Y-126183991D01*
X104937586Y-126183991D01*
X104934090Y-126178559D01*
X104721890Y-126033569D01*
X104654459Y-126019914D01*
X104699147Y-125990054D01*
X105021054Y-125508285D01*
X105134093Y-124940000D01*
X105021054Y-124371715D01*
X104699147Y-123889946D01*
X104369974Y-123670000D01*
X104699147Y-123450054D01*
X105021054Y-122968285D01*
X105134093Y-122400000D01*
X105091394Y-122185338D01*
X105402518Y-121874214D01*
X105195267Y-122373330D01*
G36*
X112963910Y-119981441D02*
X113176110Y-120126431D01*
X113428000Y-120177440D01*
X114398000Y-120177440D01*
X114558690Y-120147204D01*
X114708000Y-120177440D01*
X114781572Y-120177440D01*
X115359566Y-120755434D01*
X115630460Y-120936440D01*
X115950000Y-121000000D01*
X117533295Y-121000000D01*
X117191044Y-121068078D01*
X116628170Y-121444179D01*
X116252069Y-122007053D01*
X116120000Y-122671009D01*
X116120000Y-122738991D01*
X116252069Y-123402947D01*
X116628170Y-123965821D01*
X117191044Y-124341922D01*
X117855000Y-124473991D01*
X118518956Y-124341922D01*
X119081830Y-123965821D01*
X119419809Y-123460000D01*
X120631418Y-123460000D01*
X120667932Y-123548371D01*
X121099357Y-123980551D01*
X121663330Y-124214733D01*
X122273991Y-124215265D01*
X122838371Y-123982068D01*
X123270551Y-123550643D01*
X123504733Y-122986670D01*
X123505265Y-122376009D01*
X123272068Y-121811629D01*
X122840643Y-121379449D01*
X122276670Y-121145267D01*
X121666009Y-121144735D01*
X121101629Y-121377932D01*
X120669449Y-121809357D01*
X120611049Y-121950000D01*
X119419809Y-121950000D01*
X119081830Y-121444179D01*
X118518956Y-121068078D01*
X118176705Y-121000000D01*
X124494132Y-121000000D01*
X124705279Y-121211147D01*
X124301629Y-121377932D01*
X123869449Y-121809357D01*
X123635267Y-122373330D01*
X123634735Y-122983991D01*
X123867932Y-123548371D01*
X124299357Y-123980551D01*
X124863330Y-124214733D01*
X125473991Y-124215265D01*
X126038371Y-123982068D01*
X126154887Y-123865755D01*
X126951193Y-124662061D01*
X126895907Y-124940000D01*
X127008946Y-125508285D01*
X127330853Y-125990054D01*
X127660026Y-126210000D01*
X127330853Y-126429946D01*
X127008946Y-126911715D01*
X126895907Y-127480000D01*
X127008946Y-128048285D01*
X127330853Y-128530054D01*
X127812622Y-128851961D01*
X128350000Y-128958852D01*
X128350000Y-129008959D01*
X128210833Y-129008838D01*
X127867057Y-129150883D01*
X127603808Y-129413673D01*
X127557581Y-129525000D01*
X126518912Y-129525000D01*
X126472068Y-129411629D01*
X126040643Y-128979449D01*
X125782763Y-128872368D01*
X125170000Y-128259605D01*
X124557324Y-128872281D01*
X124301629Y-128977932D01*
X123869449Y-129409357D01*
X123635267Y-129973330D01*
X123634735Y-130583991D01*
X123867932Y-131148371D01*
X124067212Y-131348000D01*
X123072849Y-131348000D01*
X123270551Y-131150643D01*
X123504733Y-130586670D01*
X123505265Y-129976009D01*
X123272068Y-129411629D01*
X122840643Y-128979449D01*
X122582763Y-128872368D01*
X121970000Y-128259605D01*
X121357324Y-128872281D01*
X121101629Y-128977932D01*
X120669449Y-129409357D01*
X120435267Y-129973330D01*
X120434735Y-130583991D01*
X120667932Y-131148371D01*
X120867212Y-131348000D01*
X119602440Y-131348000D01*
X119602440Y-129225000D01*
X119558162Y-128989683D01*
X119419090Y-128773559D01*
X119206890Y-128628569D01*
X118955000Y-128577560D01*
X116755000Y-128577560D01*
X116519683Y-128621838D01*
X116303559Y-128760910D01*
X116158569Y-128973110D01*
X116107560Y-129225000D01*
X116107560Y-129490000D01*
X115792440Y-129490000D01*
X115792440Y-129225000D01*
X115748162Y-128989683D01*
X115609090Y-128773559D01*
X115396890Y-128628569D01*
X115145000Y-128577560D01*
X112945000Y-128577560D01*
X112709683Y-128621838D01*
X112493559Y-128760910D01*
X112348569Y-128973110D01*
X112297560Y-129225000D01*
X112297560Y-130891572D01*
X111894132Y-131295000D01*
X111085941Y-131295000D01*
X111230551Y-131150643D01*
X111464733Y-130586670D01*
X111465265Y-129976009D01*
X111232068Y-129411629D01*
X111000818Y-129179974D01*
X111230551Y-128950643D01*
X111464733Y-128386670D01*
X111465209Y-127839336D01*
X120423542Y-127839336D01*
X120449161Y-128449460D01*
X120633357Y-128894148D01*
X120889841Y-128980554D01*
X121790395Y-128080000D01*
X122149605Y-128080000D01*
X123050159Y-128980554D01*
X123306643Y-128894148D01*
X123516458Y-128320664D01*
X123496248Y-127839336D01*
X123623542Y-127839336D01*
X123649161Y-128449460D01*
X123833357Y-128894148D01*
X124089841Y-128980554D01*
X124990395Y-128080000D01*
X125349605Y-128080000D01*
X126250159Y-128980554D01*
X126506643Y-128894148D01*
X126716458Y-128320664D01*
X126690839Y-127710540D01*
X126506643Y-127265852D01*
X126250159Y-127179446D01*
X125349605Y-128080000D01*
X124990395Y-128080000D01*
X124089841Y-127179446D01*
X123833357Y-127265852D01*
X123623542Y-127839336D01*
X123496248Y-127839336D01*
X123490839Y-127710540D01*
X123306643Y-127265852D01*
X123050159Y-127179446D01*
X122149605Y-128080000D01*
X121790395Y-128080000D01*
X120889841Y-127179446D01*
X120633357Y-127265852D01*
X120423542Y-127839336D01*
X111465209Y-127839336D01*
X111465265Y-127776009D01*
X111232068Y-127211629D01*
X111000818Y-126979974D01*
X111230551Y-126750643D01*
X111464733Y-126186670D01*
X111464735Y-126183991D01*
X120434735Y-126183991D01*
X120667932Y-126748371D01*
X121099357Y-127180551D01*
X121357237Y-127287632D01*
X121970000Y-127900395D01*
X122582676Y-127287719D01*
X122838371Y-127182068D01*
X123270551Y-126750643D01*
X123504733Y-126186670D01*
X123504735Y-126183991D01*
X123634735Y-126183991D01*
X123867932Y-126748371D01*
X124299357Y-127180551D01*
X124557237Y-127287632D01*
X125170000Y-127900395D01*
X125782676Y-127287719D01*
X126038371Y-127182068D01*
X126470551Y-126750643D01*
X126704733Y-126186670D01*
X126705265Y-125576009D01*
X126472068Y-125011629D01*
X126040643Y-124579449D01*
X125476670Y-124345267D01*
X124866009Y-124344735D01*
X124301629Y-124577932D01*
X123869449Y-125009357D01*
X123635267Y-125573330D01*
X123634735Y-126183991D01*
X123504735Y-126183991D01*
X123505265Y-125576009D01*
X123272068Y-125011629D01*
X122840643Y-124579449D01*
X122276670Y-124345267D01*
X121666009Y-124344735D01*
X121101629Y-124577932D01*
X120669449Y-125009357D01*
X120435267Y-125573330D01*
X120434735Y-126183991D01*
X111464735Y-126183991D01*
X111465265Y-125576009D01*
X111250017Y-125055069D01*
X111278943Y-125043117D01*
X111542192Y-124780327D01*
X111684838Y-124436799D01*
X111685162Y-124064833D01*
X111543117Y-123721057D01*
X111467144Y-123644952D01*
X111563201Y-123684838D01*
X111935167Y-123685162D01*
X112278943Y-123543117D01*
X112387249Y-123435000D01*
X112463486Y-123435000D01*
X112818170Y-123965821D01*
X113381044Y-124341922D01*
X114045000Y-124473991D01*
X114708956Y-124341922D01*
X115271830Y-123965821D01*
X115647931Y-123402947D01*
X115780000Y-122738991D01*
X115780000Y-122671009D01*
X115647931Y-122007053D01*
X115271830Y-121444179D01*
X114708956Y-121068078D01*
X114045000Y-120936009D01*
X113381044Y-121068078D01*
X112818170Y-121444179D01*
X112496895Y-121925000D01*
X112201317Y-121925000D01*
X111936799Y-121815162D01*
X111564833Y-121814838D01*
X111298220Y-121925000D01*
X111278912Y-121925000D01*
X111232068Y-121811629D01*
X110800643Y-121379449D01*
X110236670Y-121145267D01*
X109626009Y-121144735D01*
X109061629Y-121377932D01*
X108629449Y-121809357D01*
X108395267Y-122373330D01*
X108394753Y-122963885D01*
X108264866Y-122833998D01*
X108265265Y-122376009D01*
X108032068Y-121811629D01*
X107600643Y-121379449D01*
X107036670Y-121145267D01*
X106426009Y-121144735D01*
X105924973Y-121351759D01*
X107245732Y-120031000D01*
X112647995Y-120031000D01*
X112648000Y-120031001D01*
X112936926Y-119973529D01*
X112952236Y-119963299D01*
X112963910Y-119981441D01*
X112963910Y-119981441D01*
G37*
X112963910Y-119981441D02*
X113176110Y-120126431D01*
X113428000Y-120177440D01*
X114398000Y-120177440D01*
X114558690Y-120147204D01*
X114708000Y-120177440D01*
X114781572Y-120177440D01*
X115359566Y-120755434D01*
X115630460Y-120936440D01*
X115950000Y-121000000D01*
X117533295Y-121000000D01*
X117191044Y-121068078D01*
X116628170Y-121444179D01*
X116252069Y-122007053D01*
X116120000Y-122671009D01*
X116120000Y-122738991D01*
X116252069Y-123402947D01*
X116628170Y-123965821D01*
X117191044Y-124341922D01*
X117855000Y-124473991D01*
X118518956Y-124341922D01*
X119081830Y-123965821D01*
X119419809Y-123460000D01*
X120631418Y-123460000D01*
X120667932Y-123548371D01*
X121099357Y-123980551D01*
X121663330Y-124214733D01*
X122273991Y-124215265D01*
X122838371Y-123982068D01*
X123270551Y-123550643D01*
X123504733Y-122986670D01*
X123505265Y-122376009D01*
X123272068Y-121811629D01*
X122840643Y-121379449D01*
X122276670Y-121145267D01*
X121666009Y-121144735D01*
X121101629Y-121377932D01*
X120669449Y-121809357D01*
X120611049Y-121950000D01*
X119419809Y-121950000D01*
X119081830Y-121444179D01*
X118518956Y-121068078D01*
X118176705Y-121000000D01*
X124494132Y-121000000D01*
X124705279Y-121211147D01*
X124301629Y-121377932D01*
X123869449Y-121809357D01*
X123635267Y-122373330D01*
X123634735Y-122983991D01*
X123867932Y-123548371D01*
X124299357Y-123980551D01*
X124863330Y-124214733D01*
X125473991Y-124215265D01*
X126038371Y-123982068D01*
X126154887Y-123865755D01*
X126951193Y-124662061D01*
X126895907Y-124940000D01*
X127008946Y-125508285D01*
X127330853Y-125990054D01*
X127660026Y-126210000D01*
X127330853Y-126429946D01*
X127008946Y-126911715D01*
X126895907Y-127480000D01*
X127008946Y-128048285D01*
X127330853Y-128530054D01*
X127812622Y-128851961D01*
X128350000Y-128958852D01*
X128350000Y-129008959D01*
X128210833Y-129008838D01*
X127867057Y-129150883D01*
X127603808Y-129413673D01*
X127557581Y-129525000D01*
X126518912Y-129525000D01*
X126472068Y-129411629D01*
X126040643Y-128979449D01*
X125782763Y-128872368D01*
X125170000Y-128259605D01*
X124557324Y-128872281D01*
X124301629Y-128977932D01*
X123869449Y-129409357D01*
X123635267Y-129973330D01*
X123634735Y-130583991D01*
X123867932Y-131148371D01*
X124067212Y-131348000D01*
X123072849Y-131348000D01*
X123270551Y-131150643D01*
X123504733Y-130586670D01*
X123505265Y-129976009D01*
X123272068Y-129411629D01*
X122840643Y-128979449D01*
X122582763Y-128872368D01*
X121970000Y-128259605D01*
X121357324Y-128872281D01*
X121101629Y-128977932D01*
X120669449Y-129409357D01*
X120435267Y-129973330D01*
X120434735Y-130583991D01*
X120667932Y-131148371D01*
X120867212Y-131348000D01*
X119602440Y-131348000D01*
X119602440Y-129225000D01*
X119558162Y-128989683D01*
X119419090Y-128773559D01*
X119206890Y-128628569D01*
X118955000Y-128577560D01*
X116755000Y-128577560D01*
X116519683Y-128621838D01*
X116303559Y-128760910D01*
X116158569Y-128973110D01*
X116107560Y-129225000D01*
X116107560Y-129490000D01*
X115792440Y-129490000D01*
X115792440Y-129225000D01*
X115748162Y-128989683D01*
X115609090Y-128773559D01*
X115396890Y-128628569D01*
X115145000Y-128577560D01*
X112945000Y-128577560D01*
X112709683Y-128621838D01*
X112493559Y-128760910D01*
X112348569Y-128973110D01*
X112297560Y-129225000D01*
X112297560Y-130891572D01*
X111894132Y-131295000D01*
X111085941Y-131295000D01*
X111230551Y-131150643D01*
X111464733Y-130586670D01*
X111465265Y-129976009D01*
X111232068Y-129411629D01*
X111000818Y-129179974D01*
X111230551Y-128950643D01*
X111464733Y-128386670D01*
X111465209Y-127839336D01*
X120423542Y-127839336D01*
X120449161Y-128449460D01*
X120633357Y-128894148D01*
X120889841Y-128980554D01*
X121790395Y-128080000D01*
X122149605Y-128080000D01*
X123050159Y-128980554D01*
X123306643Y-128894148D01*
X123516458Y-128320664D01*
X123496248Y-127839336D01*
X123623542Y-127839336D01*
X123649161Y-128449460D01*
X123833357Y-128894148D01*
X124089841Y-128980554D01*
X124990395Y-128080000D01*
X125349605Y-128080000D01*
X126250159Y-128980554D01*
X126506643Y-128894148D01*
X126716458Y-128320664D01*
X126690839Y-127710540D01*
X126506643Y-127265852D01*
X126250159Y-127179446D01*
X125349605Y-128080000D01*
X124990395Y-128080000D01*
X124089841Y-127179446D01*
X123833357Y-127265852D01*
X123623542Y-127839336D01*
X123496248Y-127839336D01*
X123490839Y-127710540D01*
X123306643Y-127265852D01*
X123050159Y-127179446D01*
X122149605Y-128080000D01*
X121790395Y-128080000D01*
X120889841Y-127179446D01*
X120633357Y-127265852D01*
X120423542Y-127839336D01*
X111465209Y-127839336D01*
X111465265Y-127776009D01*
X111232068Y-127211629D01*
X111000818Y-126979974D01*
X111230551Y-126750643D01*
X111464733Y-126186670D01*
X111464735Y-126183991D01*
X120434735Y-126183991D01*
X120667932Y-126748371D01*
X121099357Y-127180551D01*
X121357237Y-127287632D01*
X121970000Y-127900395D01*
X122582676Y-127287719D01*
X122838371Y-127182068D01*
X123270551Y-126750643D01*
X123504733Y-126186670D01*
X123504735Y-126183991D01*
X123634735Y-126183991D01*
X123867932Y-126748371D01*
X124299357Y-127180551D01*
X124557237Y-127287632D01*
X125170000Y-127900395D01*
X125782676Y-127287719D01*
X126038371Y-127182068D01*
X126470551Y-126750643D01*
X126704733Y-126186670D01*
X126705265Y-125576009D01*
X126472068Y-125011629D01*
X126040643Y-124579449D01*
X125476670Y-124345267D01*
X124866009Y-124344735D01*
X124301629Y-124577932D01*
X123869449Y-125009357D01*
X123635267Y-125573330D01*
X123634735Y-126183991D01*
X123504735Y-126183991D01*
X123505265Y-125576009D01*
X123272068Y-125011629D01*
X122840643Y-124579449D01*
X122276670Y-124345267D01*
X121666009Y-124344735D01*
X121101629Y-124577932D01*
X120669449Y-125009357D01*
X120435267Y-125573330D01*
X120434735Y-126183991D01*
X111464735Y-126183991D01*
X111465265Y-125576009D01*
X111250017Y-125055069D01*
X111278943Y-125043117D01*
X111542192Y-124780327D01*
X111684838Y-124436799D01*
X111685162Y-124064833D01*
X111543117Y-123721057D01*
X111467144Y-123644952D01*
X111563201Y-123684838D01*
X111935167Y-123685162D01*
X112278943Y-123543117D01*
X112387249Y-123435000D01*
X112463486Y-123435000D01*
X112818170Y-123965821D01*
X113381044Y-124341922D01*
X114045000Y-124473991D01*
X114708956Y-124341922D01*
X115271830Y-123965821D01*
X115647931Y-123402947D01*
X115780000Y-122738991D01*
X115780000Y-122671009D01*
X115647931Y-122007053D01*
X115271830Y-121444179D01*
X114708956Y-121068078D01*
X114045000Y-120936009D01*
X113381044Y-121068078D01*
X112818170Y-121444179D01*
X112496895Y-121925000D01*
X112201317Y-121925000D01*
X111936799Y-121815162D01*
X111564833Y-121814838D01*
X111298220Y-121925000D01*
X111278912Y-121925000D01*
X111232068Y-121811629D01*
X110800643Y-121379449D01*
X110236670Y-121145267D01*
X109626009Y-121144735D01*
X109061629Y-121377932D01*
X108629449Y-121809357D01*
X108395267Y-122373330D01*
X108394753Y-122963885D01*
X108264866Y-122833998D01*
X108265265Y-122376009D01*
X108032068Y-121811629D01*
X107600643Y-121379449D01*
X107036670Y-121145267D01*
X106426009Y-121144735D01*
X105924973Y-121351759D01*
X107245732Y-120031000D01*
X112647995Y-120031000D01*
X112648000Y-120031001D01*
X112936926Y-119973529D01*
X112952236Y-119963299D01*
X112963910Y-119981441D01*
M02*
