G04 #@! TF.FileFunction,Legend,Top*
%FSLAX46Y46*%
G04 Gerber Fmt 4.6, Leading zero omitted, Abs format (unit mm)*
G04 Created by KiCad (PCBNEW 4.0.4+e1-6308~48~ubuntu16.04.1-stable) date Mon Jan 22 19:58:00 2018*
%MOMM*%
%LPD*%
G01*
G04 APERTURE LIST*
%ADD10C,0.100000*%
%ADD11C,0.150000*%
%ADD12C,0.120000*%
%ADD13C,0.200000*%
%ADD14C,0.030000*%
G04 APERTURE END LIST*
D10*
D11*
X127508096Y-137295000D02*
X127412858Y-137247381D01*
X127270001Y-137247381D01*
X127127143Y-137295000D01*
X127031905Y-137390238D01*
X126984286Y-137485476D01*
X126936667Y-137675952D01*
X126936667Y-137818810D01*
X126984286Y-138009286D01*
X127031905Y-138104524D01*
X127127143Y-138199762D01*
X127270001Y-138247381D01*
X127365239Y-138247381D01*
X127508096Y-138199762D01*
X127555715Y-138152143D01*
X127555715Y-137818810D01*
X127365239Y-137818810D01*
X127984286Y-138247381D02*
X127984286Y-137247381D01*
X128555715Y-138247381D01*
X128555715Y-137247381D01*
X129031905Y-138247381D02*
X129031905Y-137247381D01*
X129270000Y-137247381D01*
X129412858Y-137295000D01*
X129508096Y-137390238D01*
X129555715Y-137485476D01*
X129603334Y-137675952D01*
X129603334Y-137818810D01*
X129555715Y-138009286D01*
X129508096Y-138104524D01*
X129412858Y-138199762D01*
X129270000Y-138247381D01*
X129031905Y-138247381D01*
X125396667Y-137247381D02*
X126063334Y-138247381D01*
X126063334Y-137247381D02*
X125396667Y-138247381D01*
X102885953Y-138247381D02*
X102314524Y-138247381D01*
X102600238Y-138247381D02*
X102600238Y-137247381D01*
X102505000Y-137390238D01*
X102409762Y-137485476D01*
X102314524Y-137533095D01*
X103266905Y-137342619D02*
X103314524Y-137295000D01*
X103409762Y-137247381D01*
X103647858Y-137247381D01*
X103743096Y-137295000D01*
X103790715Y-137342619D01*
X103838334Y-137437857D01*
X103838334Y-137533095D01*
X103790715Y-137675952D01*
X103219286Y-138247381D01*
X103838334Y-138247381D01*
X104124048Y-137247381D02*
X104457381Y-138247381D01*
X104790715Y-137247381D01*
X106425953Y-138342619D02*
X106330715Y-138295000D01*
X106235477Y-138199762D01*
X106092620Y-138056905D01*
X105997381Y-138009286D01*
X105902143Y-138009286D01*
X105949762Y-138247381D02*
X105854524Y-138199762D01*
X105759286Y-138104524D01*
X105711667Y-137914048D01*
X105711667Y-137580714D01*
X105759286Y-137390238D01*
X105854524Y-137295000D01*
X105949762Y-137247381D01*
X106140239Y-137247381D01*
X106235477Y-137295000D01*
X106330715Y-137390238D01*
X106378334Y-137580714D01*
X106378334Y-137914048D01*
X106330715Y-138104524D01*
X106235477Y-138199762D01*
X106140239Y-138247381D01*
X105949762Y-138247381D01*
X119069381Y-131920476D02*
X118593190Y-132253810D01*
X119069381Y-132491905D02*
X118069381Y-132491905D01*
X118069381Y-132110952D01*
X118117000Y-132015714D01*
X118164619Y-131968095D01*
X118259857Y-131920476D01*
X118402714Y-131920476D01*
X118497952Y-131968095D01*
X118545571Y-132015714D01*
X118593190Y-132110952D01*
X118593190Y-132491905D01*
X113767143Y-131920476D02*
X113814762Y-131968095D01*
X113862381Y-132110952D01*
X113862381Y-132206190D01*
X113814762Y-132349048D01*
X113719524Y-132444286D01*
X113624286Y-132491905D01*
X113433810Y-132539524D01*
X113290952Y-132539524D01*
X113100476Y-132491905D01*
X113005238Y-132444286D01*
X112910000Y-132349048D01*
X112862381Y-132206190D01*
X112862381Y-132110952D01*
X112910000Y-131968095D01*
X112957619Y-131920476D01*
X116307143Y-132372809D02*
X116354762Y-132325190D01*
X116402381Y-132372809D01*
X116354762Y-132420428D01*
X116307143Y-132372809D01*
X116402381Y-132372809D01*
X116021429Y-132372809D02*
X115450000Y-132420428D01*
X115402381Y-132372809D01*
X115450000Y-132325190D01*
X116021429Y-132372809D01*
X115402381Y-132372809D01*
X116497619Y-131229952D02*
X116450000Y-131325190D01*
X116354762Y-131420428D01*
X116211905Y-131563285D01*
X116164286Y-131658524D01*
X116164286Y-131753762D01*
X116402381Y-131706143D02*
X116354762Y-131801381D01*
X116259524Y-131896619D01*
X116069048Y-131944238D01*
X115735714Y-131944238D01*
X115545238Y-131896619D01*
X115450000Y-131801381D01*
X115402381Y-131706143D01*
X115402381Y-131515666D01*
X115450000Y-131420428D01*
X115545238Y-131325190D01*
X115735714Y-131277571D01*
X116069048Y-131277571D01*
X116259524Y-131325190D01*
X116354762Y-131420428D01*
X116402381Y-131515666D01*
X116402381Y-131706143D01*
X118783619Y-116863047D02*
X118736000Y-116958285D01*
X118640762Y-117053523D01*
X118497905Y-117196380D01*
X118450286Y-117291619D01*
X118450286Y-117386857D01*
X118688381Y-117339238D02*
X118640762Y-117434476D01*
X118545524Y-117529714D01*
X118355048Y-117577333D01*
X118021714Y-117577333D01*
X117831238Y-117529714D01*
X117736000Y-117434476D01*
X117688381Y-117339238D01*
X117688381Y-117148761D01*
X117736000Y-117053523D01*
X117831238Y-116958285D01*
X118021714Y-116910666D01*
X118355048Y-116910666D01*
X118545524Y-116958285D01*
X118640762Y-117053523D01*
X118688381Y-117148761D01*
X118688381Y-117339238D01*
X117291381Y-117061476D02*
X117291381Y-117537667D01*
X116291381Y-117537667D01*
X115640381Y-117061476D02*
X115640381Y-117537667D01*
X114640381Y-117537667D01*
X114243381Y-117505905D02*
X113243381Y-117505905D01*
X113243381Y-117267810D01*
X113291000Y-117124952D01*
X113386238Y-117029714D01*
X113481476Y-116982095D01*
X113671952Y-116934476D01*
X113814810Y-116934476D01*
X114005286Y-116982095D01*
X114100524Y-117029714D01*
X114195762Y-117124952D01*
X114243381Y-117267810D01*
X114243381Y-117505905D01*
D12*
X119380000Y-135405000D02*
X119380000Y-132865000D01*
X117600000Y-132865000D02*
X117600000Y-135405000D01*
X117600000Y-132865000D02*
X119380000Y-132865000D01*
X119380000Y-135405000D02*
X117600000Y-135405000D01*
X114300000Y-135405000D02*
X114300000Y-132865000D01*
X112520000Y-132865000D02*
X112520000Y-135405000D01*
X112520000Y-132865000D02*
X114300000Y-132865000D01*
X114300000Y-135405000D02*
X112520000Y-135405000D01*
X116840000Y-135405000D02*
X116840000Y-132865000D01*
X115060000Y-132865000D02*
X115060000Y-135405000D01*
X115060000Y-132865000D02*
X116840000Y-132865000D01*
X116840000Y-135405000D02*
X115060000Y-135405000D01*
X118744000Y-118005000D02*
X116204000Y-118005000D01*
X116204000Y-119785000D02*
X118744000Y-119785000D01*
X116204000Y-119785000D02*
X116204000Y-118005000D01*
X118744000Y-118005000D02*
X118744000Y-119785000D01*
X123670000Y-106735000D02*
X120930000Y-106735000D01*
X120930000Y-106735000D02*
X120930000Y-113275000D01*
X120930000Y-113275000D02*
X123670000Y-113275000D01*
X123670000Y-113275000D02*
X123670000Y-106735000D01*
X122300000Y-105965000D02*
X122300000Y-106735000D01*
X122300000Y-114045000D02*
X122300000Y-113275000D01*
X126845000Y-106735000D02*
X124105000Y-106735000D01*
X124105000Y-106735000D02*
X124105000Y-113275000D01*
X124105000Y-113275000D02*
X126845000Y-113275000D01*
X126845000Y-113275000D02*
X126845000Y-106735000D01*
X125475000Y-105965000D02*
X125475000Y-106735000D01*
X125475000Y-114045000D02*
X125475000Y-113275000D01*
X113283000Y-119785000D02*
X115823000Y-119785000D01*
X115823000Y-118005000D02*
X113283000Y-118005000D01*
X115823000Y-118005000D02*
X115823000Y-119785000D01*
X113283000Y-119785000D02*
X113283000Y-118005000D01*
X108311551Y-104822366D02*
G75*
G02X108371153Y-102555000I-1251551J1167366D01*
G01*
X123588449Y-132967634D02*
G75*
G02X123528847Y-135235000I1251551J-1167366D01*
G01*
X108311551Y-135302366D02*
G75*
G02X108371153Y-133035000I-1251551J1167366D01*
G01*
X104950000Y-110910000D02*
X102290000Y-110910000D01*
X104950000Y-126210000D02*
X104950000Y-110910000D01*
X102290000Y-126210000D02*
X102290000Y-110910000D01*
X104950000Y-126210000D02*
X102290000Y-126210000D01*
X104950000Y-127480000D02*
X104950000Y-128810000D01*
X104950000Y-128810000D02*
X103620000Y-128810000D01*
X127080000Y-128810000D02*
X129740000Y-128810000D01*
X127080000Y-113510000D02*
X127080000Y-128810000D01*
X129740000Y-113510000D02*
X129740000Y-128810000D01*
X127080000Y-113510000D02*
X129740000Y-113510000D01*
X127080000Y-112240000D02*
X127080000Y-110910000D01*
X127080000Y-110910000D02*
X128410000Y-110910000D01*
X107230000Y-141460000D02*
X107230000Y-138800000D01*
X104630000Y-141460000D02*
X107230000Y-141460000D01*
X104630000Y-138800000D02*
X107230000Y-138800000D01*
X104630000Y-141460000D02*
X104630000Y-138800000D01*
X103360000Y-141460000D02*
X102030000Y-141460000D01*
X102030000Y-141460000D02*
X102030000Y-140130000D01*
X129710000Y-141460000D02*
X129710000Y-138800000D01*
X127110000Y-141460000D02*
X129710000Y-141460000D01*
X127110000Y-138800000D02*
X129710000Y-138800000D01*
X127110000Y-141460000D02*
X127110000Y-138800000D01*
X125840000Y-141460000D02*
X124510000Y-141460000D01*
X124510000Y-141460000D02*
X124510000Y-140130000D01*
X116950000Y-102010000D02*
X114250000Y-102010000D01*
X114250000Y-102010000D02*
X114250000Y-104030000D01*
X114250000Y-104030000D02*
X116950000Y-104030000D01*
D13*
X108965000Y-140485000D02*
X110235000Y-140485000D01*
X108965000Y-137945000D02*
X110235000Y-137945000D01*
X112965000Y-142365000D02*
G75*
G03X111965000Y-142365000I-500000J0D01*
G01*
X111965000Y-136065000D02*
G75*
G03X112965000Y-136065000I500000J0D01*
G01*
X110465000Y-136065000D02*
X121465000Y-136065000D01*
X121465000Y-136065000D02*
X121465000Y-142365000D01*
X121465000Y-142365000D02*
X110465000Y-142365000D01*
X110465000Y-142365000D02*
X110465000Y-136065000D01*
D12*
X119195000Y-108555000D02*
X119325000Y-108555000D01*
X119325000Y-108555000D02*
X119325000Y-113995000D01*
X119325000Y-113995000D02*
X119195000Y-113995000D01*
X116515000Y-108555000D02*
X116385000Y-108555000D01*
X116385000Y-108555000D02*
X116385000Y-113995000D01*
X116385000Y-113995000D02*
X116515000Y-113995000D01*
X119325000Y-109455000D02*
X116385000Y-109455000D01*
X119325000Y-109575000D02*
X116385000Y-109575000D01*
X119325000Y-109335000D02*
X116385000Y-109335000D01*
X115385000Y-108555000D02*
X115515000Y-108555000D01*
X115515000Y-108555000D02*
X115515000Y-113995000D01*
X115515000Y-113995000D02*
X115385000Y-113995000D01*
X112705000Y-108555000D02*
X112575000Y-108555000D01*
X112575000Y-108555000D02*
X112575000Y-113995000D01*
X112575000Y-113995000D02*
X112705000Y-113995000D01*
X115515000Y-109455000D02*
X112575000Y-109455000D01*
X115515000Y-109575000D02*
X112575000Y-109575000D01*
X115515000Y-109335000D02*
X112575000Y-109335000D01*
X112705000Y-129235000D02*
X112575000Y-129235000D01*
X112575000Y-129235000D02*
X112575000Y-123795000D01*
X112575000Y-123795000D02*
X112705000Y-123795000D01*
X115385000Y-129235000D02*
X115515000Y-129235000D01*
X115515000Y-129235000D02*
X115515000Y-123795000D01*
X115515000Y-123795000D02*
X115385000Y-123795000D01*
X112575000Y-128335000D02*
X115515000Y-128335000D01*
X112575000Y-128215000D02*
X115515000Y-128215000D01*
X112575000Y-128455000D02*
X115515000Y-128455000D01*
X116515000Y-129235000D02*
X116385000Y-129235000D01*
X116385000Y-129235000D02*
X116385000Y-123795000D01*
X116385000Y-123795000D02*
X116515000Y-123795000D01*
X119195000Y-129235000D02*
X119325000Y-129235000D01*
X119325000Y-129235000D02*
X119325000Y-123795000D01*
X119325000Y-123795000D02*
X119195000Y-123795000D01*
X116385000Y-128335000D02*
X119325000Y-128335000D01*
X116385000Y-128215000D02*
X119325000Y-128215000D01*
X116385000Y-128455000D02*
X119325000Y-128455000D01*
D14*
X111180000Y-106010000D02*
X105480000Y-106010000D01*
X105480000Y-106010000D02*
X105480000Y-116610000D01*
X105480000Y-116610000D02*
X111180000Y-116610000D01*
X111180000Y-116610000D02*
X111180000Y-106010000D01*
X105480000Y-131780000D02*
X111180000Y-131780000D01*
X111180000Y-131780000D02*
X111180000Y-121180000D01*
X111180000Y-121180000D02*
X105480000Y-121180000D01*
X105480000Y-121180000D02*
X105480000Y-131780000D01*
X120720000Y-131780000D02*
X126420000Y-131780000D01*
X126420000Y-131780000D02*
X126420000Y-121180000D01*
X126420000Y-121180000D02*
X120720000Y-121180000D01*
X120720000Y-121180000D02*
X120720000Y-131780000D01*
D11*
X122752381Y-110091666D02*
X122276190Y-110425000D01*
X122752381Y-110663095D02*
X121752381Y-110663095D01*
X121752381Y-110282142D01*
X121800000Y-110186904D01*
X121847619Y-110139285D01*
X121942857Y-110091666D01*
X122085714Y-110091666D01*
X122180952Y-110139285D01*
X122228571Y-110186904D01*
X122276190Y-110282142D01*
X122276190Y-110663095D01*
X122752381Y-109139285D02*
X122752381Y-109710714D01*
X122752381Y-109425000D02*
X121752381Y-109425000D01*
X121895238Y-109520238D01*
X121990476Y-109615476D01*
X122038095Y-109710714D01*
X125927381Y-110091666D02*
X125451190Y-110425000D01*
X125927381Y-110663095D02*
X124927381Y-110663095D01*
X124927381Y-110282142D01*
X124975000Y-110186904D01*
X125022619Y-110139285D01*
X125117857Y-110091666D01*
X125260714Y-110091666D01*
X125355952Y-110139285D01*
X125403571Y-110186904D01*
X125451190Y-110282142D01*
X125451190Y-110663095D01*
X125022619Y-109710714D02*
X124975000Y-109663095D01*
X124927381Y-109567857D01*
X124927381Y-109329761D01*
X124975000Y-109234523D01*
X125022619Y-109186904D01*
X125117857Y-109139285D01*
X125213095Y-109139285D01*
X125355952Y-109186904D01*
X125927381Y-109758333D01*
X125927381Y-109139285D01*
X103400905Y-104107381D02*
X103400905Y-103107381D01*
X103639000Y-103107381D01*
X103781858Y-103155000D01*
X103877096Y-103250238D01*
X103924715Y-103345476D01*
X103972334Y-103535952D01*
X103972334Y-103678810D01*
X103924715Y-103869286D01*
X103877096Y-103964524D01*
X103781858Y-104059762D01*
X103639000Y-104107381D01*
X103400905Y-104107381D01*
X104829477Y-103440714D02*
X104829477Y-104107381D01*
X104591381Y-103059762D02*
X104353286Y-103774048D01*
X104972334Y-103774048D01*
X111461905Y-103821667D02*
X111938096Y-103821667D01*
X111366667Y-104107381D02*
X111700000Y-103107381D01*
X112033334Y-104107381D01*
X127022905Y-134587381D02*
X127022905Y-133587381D01*
X127261000Y-133587381D01*
X127403858Y-133635000D01*
X127499096Y-133730238D01*
X127546715Y-133825476D01*
X127594334Y-134015952D01*
X127594334Y-134158810D01*
X127546715Y-134349286D01*
X127499096Y-134444524D01*
X127403858Y-134539762D01*
X127261000Y-134587381D01*
X127022905Y-134587381D01*
X127927667Y-133587381D02*
X128594334Y-133587381D01*
X128165762Y-134587381D01*
X122061905Y-136333667D02*
X122538096Y-136333667D01*
X121966667Y-136619381D02*
X122300000Y-135619381D01*
X122633334Y-136619381D01*
X103527905Y-134587381D02*
X103527905Y-133587381D01*
X103766000Y-133587381D01*
X103908858Y-133635000D01*
X104004096Y-133730238D01*
X104051715Y-133825476D01*
X104099334Y-134015952D01*
X104099334Y-134158810D01*
X104051715Y-134349286D01*
X104004096Y-134444524D01*
X103908858Y-134539762D01*
X103766000Y-134587381D01*
X103527905Y-134587381D01*
X104670762Y-134015952D02*
X104575524Y-133968333D01*
X104527905Y-133920714D01*
X104480286Y-133825476D01*
X104480286Y-133777857D01*
X104527905Y-133682619D01*
X104575524Y-133635000D01*
X104670762Y-133587381D01*
X104861239Y-133587381D01*
X104956477Y-133635000D01*
X105004096Y-133682619D01*
X105051715Y-133777857D01*
X105051715Y-133825476D01*
X105004096Y-133920714D01*
X104956477Y-133968333D01*
X104861239Y-134015952D01*
X104670762Y-134015952D01*
X104575524Y-134063571D01*
X104527905Y-134111190D01*
X104480286Y-134206429D01*
X104480286Y-134396905D01*
X104527905Y-134492143D01*
X104575524Y-134539762D01*
X104670762Y-134587381D01*
X104861239Y-134587381D01*
X104956477Y-134539762D01*
X105004096Y-134492143D01*
X105051715Y-134396905D01*
X105051715Y-134206429D01*
X105004096Y-134111190D01*
X104956477Y-134063571D01*
X104861239Y-134015952D01*
X106821905Y-136460667D02*
X107298096Y-136460667D01*
X106726667Y-136746381D02*
X107060000Y-135746381D01*
X107393334Y-136746381D01*
X117878905Y-103472381D02*
X117878905Y-102472381D01*
X118117000Y-102472381D01*
X118259858Y-102520000D01*
X118355096Y-102615238D01*
X118402715Y-102710476D01*
X118450334Y-102900952D01*
X118450334Y-103043810D01*
X118402715Y-103234286D01*
X118355096Y-103329524D01*
X118259858Y-103424762D01*
X118117000Y-103472381D01*
X117878905Y-103472381D01*
X118783667Y-102472381D02*
X119402715Y-102472381D01*
X119069381Y-102853333D01*
X119212239Y-102853333D01*
X119307477Y-102900952D01*
X119355096Y-102948571D01*
X119402715Y-103043810D01*
X119402715Y-103281905D01*
X119355096Y-103377143D01*
X119307477Y-103424762D01*
X119212239Y-103472381D01*
X118926524Y-103472381D01*
X118831286Y-103424762D01*
X118783667Y-103377143D01*
X111719334Y-138175143D02*
X111671715Y-138222762D01*
X111528858Y-138270381D01*
X111433620Y-138270381D01*
X111290762Y-138222762D01*
X111195524Y-138127524D01*
X111147905Y-138032286D01*
X111100286Y-137841810D01*
X111100286Y-137698952D01*
X111147905Y-137508476D01*
X111195524Y-137413238D01*
X111290762Y-137318000D01*
X111433620Y-137270381D01*
X111528858Y-137270381D01*
X111671715Y-137318000D01*
X111719334Y-137365619D01*
X112671715Y-138270381D02*
X112100286Y-138270381D01*
X112386000Y-138270381D02*
X112386000Y-137270381D01*
X112290762Y-137413238D01*
X112195524Y-137508476D01*
X112100286Y-137556095D01*
X108584048Y-136238429D02*
X109345953Y-136238429D01*
X108965001Y-136619381D02*
X108965001Y-135857476D01*
X118307381Y-112394095D02*
X117307381Y-112394095D01*
X117307381Y-112156000D01*
X117355000Y-112013142D01*
X117450238Y-111917904D01*
X117545476Y-111870285D01*
X117735952Y-111822666D01*
X117878810Y-111822666D01*
X118069286Y-111870285D01*
X118164524Y-111917904D01*
X118259762Y-112013142D01*
X118307381Y-112156000D01*
X118307381Y-112394095D01*
X117402619Y-111441714D02*
X117355000Y-111394095D01*
X117307381Y-111298857D01*
X117307381Y-111060761D01*
X117355000Y-110965523D01*
X117402619Y-110917904D01*
X117497857Y-110870285D01*
X117593095Y-110870285D01*
X117735952Y-110917904D01*
X118307381Y-111489333D01*
X118307381Y-110870285D01*
X118307381Y-105694905D02*
X117307381Y-105694905D01*
X118307381Y-105123476D02*
X117735952Y-105552048D01*
X117307381Y-105123476D02*
X117878810Y-105694905D01*
X114497381Y-112394095D02*
X113497381Y-112394095D01*
X113497381Y-112156000D01*
X113545000Y-112013142D01*
X113640238Y-111917904D01*
X113735476Y-111870285D01*
X113925952Y-111822666D01*
X114068810Y-111822666D01*
X114259286Y-111870285D01*
X114354524Y-111917904D01*
X114449762Y-112013142D01*
X114497381Y-112156000D01*
X114497381Y-112394095D01*
X114497381Y-110870285D02*
X114497381Y-111441714D01*
X114497381Y-111156000D02*
X113497381Y-111156000D01*
X113640238Y-111251238D01*
X113735476Y-111346476D01*
X113783095Y-111441714D01*
X114497381Y-105694905D02*
X113497381Y-105694905D01*
X114497381Y-105123476D02*
X113925952Y-105552048D01*
X113497381Y-105123476D02*
X114068810Y-105694905D01*
X114497381Y-126872095D02*
X113497381Y-126872095D01*
X113497381Y-126634000D01*
X113545000Y-126491142D01*
X113640238Y-126395904D01*
X113735476Y-126348285D01*
X113925952Y-126300666D01*
X114068810Y-126300666D01*
X114259286Y-126348285D01*
X114354524Y-126395904D01*
X114449762Y-126491142D01*
X114497381Y-126634000D01*
X114497381Y-126872095D01*
X113497381Y-125395904D02*
X113497381Y-125872095D01*
X113973571Y-125919714D01*
X113925952Y-125872095D01*
X113878333Y-125776857D01*
X113878333Y-125538761D01*
X113925952Y-125443523D01*
X113973571Y-125395904D01*
X114068810Y-125348285D01*
X114306905Y-125348285D01*
X114402143Y-125395904D01*
X114449762Y-125443523D01*
X114497381Y-125538761D01*
X114497381Y-125776857D01*
X114449762Y-125872095D01*
X114402143Y-125919714D01*
X112397381Y-130586905D02*
X111397381Y-130586905D01*
X112397381Y-130015476D02*
X111825952Y-130444048D01*
X111397381Y-130015476D02*
X111968810Y-130586905D01*
X118307381Y-126872095D02*
X117307381Y-126872095D01*
X117307381Y-126634000D01*
X117355000Y-126491142D01*
X117450238Y-126395904D01*
X117545476Y-126348285D01*
X117735952Y-126300666D01*
X117878810Y-126300666D01*
X118069286Y-126348285D01*
X118164524Y-126395904D01*
X118259762Y-126491142D01*
X118307381Y-126634000D01*
X118307381Y-126872095D01*
X117307381Y-125443523D02*
X117307381Y-125634000D01*
X117355000Y-125729238D01*
X117402619Y-125776857D01*
X117545476Y-125872095D01*
X117735952Y-125919714D01*
X118116905Y-125919714D01*
X118212143Y-125872095D01*
X118259762Y-125824476D01*
X118307381Y-125729238D01*
X118307381Y-125538761D01*
X118259762Y-125443523D01*
X118212143Y-125395904D01*
X118116905Y-125348285D01*
X117878810Y-125348285D01*
X117783571Y-125395904D01*
X117735952Y-125443523D01*
X117688333Y-125538761D01*
X117688333Y-125729238D01*
X117735952Y-125824476D01*
X117783571Y-125872095D01*
X117878810Y-125919714D01*
X120466381Y-130586905D02*
X119466381Y-130586905D01*
X120466381Y-130015476D02*
X119894952Y-130444048D01*
X119466381Y-130015476D02*
X120037810Y-130586905D01*
X112339381Y-116435095D02*
X111339381Y-116435095D01*
X112339381Y-115863666D02*
X111767952Y-116292238D01*
X111339381Y-115863666D02*
X111910810Y-116435095D01*
X112339381Y-114911285D02*
X112339381Y-115482714D01*
X112339381Y-115197000D02*
X111339381Y-115197000D01*
X111482238Y-115292238D01*
X111577476Y-115387476D01*
X111625095Y-115482714D01*
X112339381Y-122785095D02*
X111339381Y-122785095D01*
X112339381Y-122213666D02*
X111767952Y-122642238D01*
X111339381Y-122213666D02*
X111910810Y-122785095D01*
X111339381Y-121880333D02*
X111339381Y-121261285D01*
X111720333Y-121594619D01*
X111720333Y-121451761D01*
X111767952Y-121356523D01*
X111815571Y-121308904D01*
X111910810Y-121261285D01*
X112148905Y-121261285D01*
X112244143Y-121308904D01*
X112291762Y-121356523D01*
X112339381Y-121451761D01*
X112339381Y-121737476D01*
X112291762Y-121832714D01*
X112244143Y-121880333D01*
X120594381Y-122785095D02*
X119594381Y-122785095D01*
X120594381Y-122213666D02*
X120022952Y-122642238D01*
X119594381Y-122213666D02*
X120165810Y-122785095D01*
X119689619Y-121832714D02*
X119642000Y-121785095D01*
X119594381Y-121689857D01*
X119594381Y-121451761D01*
X119642000Y-121356523D01*
X119689619Y-121308904D01*
X119784857Y-121261285D01*
X119880095Y-121261285D01*
X120022952Y-121308904D01*
X120594381Y-121880333D01*
X120594381Y-121261285D01*
M02*
