G04 #@! TF.FileFunction,Copper,L2,Bot,Signal*
%FSLAX46Y46*%
G04 Gerber Fmt 4.6, Leading zero omitted, Abs format (unit mm)*
G04 Created by KiCad (PCBNEW 4.0.4+e1-6308~48~ubuntu16.04.1-stable) date Mon Jan 22 19:58:00 2018*
%MOMM*%
%LPD*%
G01*
G04 APERTURE LIST*
%ADD10C,0.100000*%
%ADD11C,1.600000*%
%ADD12O,1.600000X1.600000*%
%ADD13R,2.200000X2.200000*%
%ADD14O,2.200000X2.200000*%
%ADD15R,1.700000X1.700000*%
%ADD16O,1.700000X1.700000*%
%ADD17R,1.524000X1.524000*%
%ADD18C,1.524000*%
%ADD19C,1.800000*%
%ADD20C,0.600000*%
%ADD21C,0.240000*%
%ADD22C,0.400000*%
%ADD23C,0.600000*%
%ADD24C,0.254000*%
G04 APERTURE END LIST*
D10*
D11*
X122300000Y-104925000D03*
D12*
X122300000Y-115085000D03*
D11*
X125475000Y-104925000D03*
D12*
X125475000Y-115085000D03*
D13*
X107060000Y-103655000D03*
D14*
X109600000Y-103655000D03*
D13*
X124840000Y-134135000D03*
D14*
X122300000Y-134135000D03*
D13*
X107060000Y-134135000D03*
D14*
X109600000Y-134135000D03*
D15*
X103620000Y-127480000D03*
D16*
X103620000Y-124940000D03*
X103620000Y-122400000D03*
X103620000Y-119860000D03*
X103620000Y-117320000D03*
X103620000Y-114780000D03*
X103620000Y-112240000D03*
D15*
X128410000Y-112240000D03*
D16*
X128410000Y-114780000D03*
X128410000Y-117320000D03*
X128410000Y-119860000D03*
X128410000Y-122400000D03*
X128410000Y-124940000D03*
X128410000Y-127480000D03*
D15*
X103360000Y-140130000D03*
D16*
X105900000Y-140130000D03*
D15*
X125840000Y-140130000D03*
D16*
X128380000Y-140130000D03*
D17*
X108965000Y-137945000D03*
D18*
X108965000Y-140485000D03*
D13*
X117855000Y-107465000D03*
D14*
X117855000Y-115085000D03*
D13*
X114045000Y-107465000D03*
D14*
X114045000Y-115085000D03*
D13*
X114045000Y-130325000D03*
D14*
X114045000Y-122705000D03*
D13*
X117855000Y-130325000D03*
D14*
X117855000Y-122705000D03*
D19*
X109930000Y-115110000D03*
X109930000Y-111910000D03*
X109930000Y-109710000D03*
X109930000Y-107510000D03*
X106730000Y-107510000D03*
X106730000Y-109710000D03*
X106730000Y-111910000D03*
X106730000Y-115110000D03*
X106730000Y-122680000D03*
X106730000Y-125880000D03*
X106730000Y-128080000D03*
X106730000Y-130280000D03*
X109930000Y-130280000D03*
X109930000Y-128080000D03*
X109930000Y-125880000D03*
X109930000Y-122680000D03*
X121970000Y-122680000D03*
X121970000Y-125880000D03*
X121970000Y-128080000D03*
X121970000Y-130280000D03*
X125170000Y-130280000D03*
X125170000Y-128080000D03*
X125170000Y-125880000D03*
X125170000Y-122680000D03*
D20*
X111000000Y-116500000D03*
X120141000Y-105941000D03*
X111750000Y-122750000D03*
X128396000Y-129944000D03*
X126364000Y-137945000D03*
X119760000Y-118895000D03*
X115950000Y-104925000D03*
X128015000Y-134135000D03*
X110750000Y-124250000D03*
X112000000Y-133500000D03*
X127380000Y-130960000D03*
X118490000Y-136675000D03*
X118490000Y-139850000D03*
X105155000Y-120165000D03*
D21*
X109930000Y-125880000D02*
X109880000Y-125880000D01*
X109880000Y-125880000D02*
X108250000Y-124250000D01*
X108250000Y-124250000D02*
X108250000Y-121000000D01*
X108250000Y-121000000D02*
X111000000Y-118260000D01*
X111000000Y-118260000D02*
X111000000Y-116500000D01*
X125475000Y-111275000D02*
X125475000Y-115085000D01*
X120141000Y-105941000D02*
X125475000Y-111275000D01*
X106730000Y-111910000D02*
X106730000Y-111980000D01*
X106730000Y-111980000D02*
X108000000Y-113250000D01*
X108000000Y-113250000D02*
X110750000Y-113250000D01*
X110750000Y-113250000D02*
X111750000Y-114250000D01*
X111750000Y-114250000D02*
X111750000Y-122750000D01*
X107230000Y-111910000D02*
X107230000Y-112230000D01*
D22*
X109430000Y-122680000D02*
X109500000Y-122680000D01*
D21*
X109930000Y-128080000D02*
X110330000Y-128080000D01*
X110330000Y-128080000D02*
X111250000Y-129000000D01*
X111250000Y-129000000D02*
X111250000Y-132485000D01*
X111250000Y-132485000D02*
X109600000Y-134135000D01*
X109430000Y-128080000D02*
X110400000Y-128080000D01*
D23*
X103620000Y-127480000D02*
X103620000Y-139870000D01*
D21*
X103620000Y-139870000D02*
X103360000Y-140130000D01*
X107230000Y-128080000D02*
X106765000Y-128080000D01*
X117855000Y-115085000D02*
X117915000Y-115085000D01*
X117915000Y-115085000D02*
X119750000Y-113250000D01*
X124000000Y-121510000D02*
X125170000Y-122680000D01*
X124000000Y-114500000D02*
X124000000Y-121510000D01*
X122750000Y-113250000D02*
X124000000Y-114500000D01*
X119750000Y-113250000D02*
X122750000Y-113250000D01*
X121970000Y-130280000D02*
X121780000Y-130280000D01*
X121780000Y-130280000D02*
X120500000Y-129000000D01*
X120500000Y-129000000D02*
X120500000Y-125000000D01*
X120500000Y-125000000D02*
X121250000Y-124250000D01*
X121250000Y-124250000D02*
X123600000Y-124250000D01*
X123600000Y-124250000D02*
X125170000Y-122680000D01*
X124670000Y-122680000D02*
X124670000Y-122830000D01*
X120000000Y-132250000D02*
X120000000Y-125000000D01*
X121885000Y-134135000D02*
X120000000Y-132250000D01*
X120000000Y-125000000D02*
X117855000Y-122855000D01*
X117855000Y-122855000D02*
X117855000Y-122705000D01*
X122300000Y-134135000D02*
X121885000Y-134135000D01*
X122470000Y-122680000D02*
X122320000Y-122680000D01*
X122445000Y-122705000D02*
X122470000Y-122680000D01*
X122300000Y-115085000D02*
X122300000Y-122510000D01*
X122300000Y-122510000D02*
X122470000Y-122680000D01*
X128410000Y-122400000D02*
X128410000Y-122410000D01*
X128410000Y-122410000D02*
X129750000Y-123750000D01*
X129750000Y-128590000D02*
X128396000Y-129944000D01*
X129750000Y-123750000D02*
X129750000Y-128590000D01*
X125430000Y-130280000D02*
X127380000Y-132230000D01*
X127380000Y-136929000D02*
X127380000Y-132230000D01*
X126364000Y-137945000D02*
X127380000Y-136929000D01*
X119125000Y-118895000D02*
X119760000Y-118895000D01*
X115950000Y-115720000D02*
X119125000Y-118895000D01*
X115950000Y-104925000D02*
X115950000Y-115720000D01*
X128410000Y-122465000D02*
X128410000Y-122400000D01*
X125430000Y-130280000D02*
X124670000Y-130280000D01*
D23*
X128015000Y-134135000D02*
X128142000Y-134135000D01*
X128410000Y-117320000D02*
X129615000Y-117320000D01*
X130555000Y-118260000D02*
X129615000Y-117320000D01*
X130555000Y-131722000D02*
X130555000Y-118260000D01*
X128142000Y-134135000D02*
X130555000Y-131722000D01*
D21*
X107060000Y-103655000D02*
X106845000Y-103655000D01*
X106845000Y-103655000D02*
X105250000Y-105250000D01*
X105250000Y-105250000D02*
X105250000Y-118230000D01*
X105250000Y-118230000D02*
X103620000Y-119860000D01*
D22*
X106730000Y-122680000D02*
X106730000Y-120270000D01*
X109930000Y-117070000D02*
X109930000Y-115110000D01*
X106730000Y-120270000D02*
X109930000Y-117070000D01*
X112000000Y-125500000D02*
X110750000Y-124250000D01*
X112000000Y-133500000D02*
X112000000Y-125500000D01*
X112000000Y-133500000D02*
X112000000Y-133500000D01*
D21*
X125170000Y-125880000D02*
X125170000Y-125830000D01*
X125170000Y-125830000D02*
X127000000Y-124000000D01*
X127000000Y-121270000D02*
X128410000Y-119860000D01*
X127000000Y-124000000D02*
X127000000Y-121270000D01*
X125170000Y-125880000D02*
X125170000Y-125920000D01*
X125170000Y-125920000D02*
X126750000Y-127500000D01*
X126750000Y-127500000D02*
X126750000Y-130330000D01*
X126750000Y-130330000D02*
X127380000Y-130960000D01*
D23*
X118490000Y-136675000D02*
X118490000Y-139850000D01*
D21*
X103620000Y-124940000D02*
X103620000Y-124875000D01*
D22*
X103620000Y-124875000D02*
X105155000Y-123340000D01*
X105155000Y-123340000D02*
X105155000Y-120165000D01*
D24*
G36*
X130518338Y-100821046D02*
X130932333Y-101097669D01*
X131208953Y-101511660D01*
X131320000Y-102069931D01*
X131320000Y-117754285D01*
X131216145Y-117598855D01*
X130276145Y-116658855D01*
X129972809Y-116456173D01*
X129615000Y-116385000D01*
X129566023Y-116385000D01*
X129489147Y-116269946D01*
X129159974Y-116050000D01*
X129489147Y-115830054D01*
X129811054Y-115348285D01*
X129924093Y-114780000D01*
X129811054Y-114211715D01*
X129489147Y-113729946D01*
X129445223Y-113700597D01*
X129619698Y-113628327D01*
X129798327Y-113449699D01*
X129895000Y-113216310D01*
X129895000Y-112525750D01*
X129736250Y-112367000D01*
X128537000Y-112367000D01*
X128537000Y-112387000D01*
X128283000Y-112387000D01*
X128283000Y-112367000D01*
X127083750Y-112367000D01*
X126925000Y-112525750D01*
X126925000Y-113216310D01*
X127021673Y-113449699D01*
X127200302Y-113628327D01*
X127374777Y-113700597D01*
X127330853Y-113729946D01*
X127008946Y-114211715D01*
X126895907Y-114780000D01*
X127008946Y-115348285D01*
X127330853Y-115830054D01*
X127660026Y-116050000D01*
X127330853Y-116269946D01*
X127008946Y-116751715D01*
X126895907Y-117320000D01*
X127008946Y-117888285D01*
X127330853Y-118370054D01*
X127660026Y-118590000D01*
X127330853Y-118809946D01*
X127008946Y-119291715D01*
X126895907Y-119860000D01*
X126969963Y-120232305D01*
X126466134Y-120736134D01*
X126302471Y-120981074D01*
X126244999Y-121270000D01*
X126245000Y-121270005D01*
X126245000Y-121584164D01*
X126040643Y-121379449D01*
X125476670Y-121145267D01*
X124866009Y-121144735D01*
X124755000Y-121190603D01*
X124755000Y-116324722D01*
X124925849Y-116438880D01*
X125475000Y-116548113D01*
X126024151Y-116438880D01*
X126489698Y-116127811D01*
X126800767Y-115662264D01*
X126910000Y-115113113D01*
X126910000Y-115056887D01*
X126800767Y-114507736D01*
X126489698Y-114042189D01*
X126230000Y-113868664D01*
X126230000Y-111275000D01*
X126227751Y-111263690D01*
X126925000Y-111263690D01*
X126925000Y-111954250D01*
X127083750Y-112113000D01*
X128283000Y-112113000D01*
X128283000Y-110913750D01*
X128537000Y-110913750D01*
X128537000Y-112113000D01*
X129736250Y-112113000D01*
X129895000Y-111954250D01*
X129895000Y-111263690D01*
X129798327Y-111030301D01*
X129619698Y-110851673D01*
X129386309Y-110755000D01*
X128695750Y-110755000D01*
X128537000Y-110913750D01*
X128283000Y-110913750D01*
X128124250Y-110755000D01*
X127433691Y-110755000D01*
X127200302Y-110851673D01*
X127021673Y-111030301D01*
X126925000Y-111263690D01*
X126227751Y-111263690D01*
X126172529Y-110986074D01*
X126008866Y-110741134D01*
X121076116Y-105808384D01*
X121076162Y-105755833D01*
X120934117Y-105412057D01*
X120731601Y-105209187D01*
X120864752Y-105209187D01*
X121082757Y-105736800D01*
X121486077Y-106140824D01*
X122013309Y-106359750D01*
X122584187Y-106360248D01*
X123111800Y-106142243D01*
X123515824Y-105738923D01*
X123734750Y-105211691D01*
X123734752Y-105209187D01*
X124039752Y-105209187D01*
X124257757Y-105736800D01*
X124661077Y-106140824D01*
X125188309Y-106359750D01*
X125759187Y-106360248D01*
X126286800Y-106142243D01*
X126690824Y-105738923D01*
X126909750Y-105211691D01*
X126910248Y-104640813D01*
X126692243Y-104113200D01*
X126288923Y-103709176D01*
X125761691Y-103490250D01*
X125190813Y-103489752D01*
X124663200Y-103707757D01*
X124259176Y-104111077D01*
X124040250Y-104638309D01*
X124039752Y-105209187D01*
X123734752Y-105209187D01*
X123735248Y-104640813D01*
X123517243Y-104113200D01*
X123113923Y-103709176D01*
X122586691Y-103490250D01*
X122015813Y-103489752D01*
X121488200Y-103707757D01*
X121084176Y-104111077D01*
X120865250Y-104638309D01*
X120864752Y-105209187D01*
X120731601Y-105209187D01*
X120671327Y-105148808D01*
X120327799Y-105006162D01*
X119955833Y-105005838D01*
X119612057Y-105147883D01*
X119348808Y-105410673D01*
X119206162Y-105754201D01*
X119206150Y-105768419D01*
X118955000Y-105717560D01*
X116755000Y-105717560D01*
X116705000Y-105726968D01*
X116705000Y-105492454D01*
X116742192Y-105455327D01*
X116884838Y-105111799D01*
X116885162Y-104739833D01*
X116743117Y-104396057D01*
X116480327Y-104132808D01*
X116136799Y-103990162D01*
X115764833Y-103989838D01*
X115421057Y-104131883D01*
X115157808Y-104394673D01*
X115015162Y-104738201D01*
X115014838Y-105110167D01*
X115156883Y-105453943D01*
X115195000Y-105492127D01*
X115195000Y-105727685D01*
X115145000Y-105717560D01*
X112945000Y-105717560D01*
X112709683Y-105761838D01*
X112493559Y-105900910D01*
X112348569Y-106113110D01*
X112297560Y-106365000D01*
X112297560Y-108565000D01*
X112341838Y-108800317D01*
X112480910Y-109016441D01*
X112693110Y-109161431D01*
X112945000Y-109212440D01*
X115145000Y-109212440D01*
X115195000Y-109203032D01*
X115195000Y-113772843D01*
X114708956Y-113448078D01*
X114045000Y-113316009D01*
X113381044Y-113448078D01*
X112818170Y-113824179D01*
X112505000Y-114292870D01*
X112505000Y-114250005D01*
X112505001Y-114250000D01*
X112447529Y-113961074D01*
X112356059Y-113824179D01*
X112283866Y-113716134D01*
X112283863Y-113716132D01*
X111283866Y-112716134D01*
X111263099Y-112702258D01*
X111464733Y-112216670D01*
X111465265Y-111606009D01*
X111232068Y-111041629D01*
X110800643Y-110609449D01*
X110542763Y-110502368D01*
X109930000Y-109889605D01*
X109317324Y-110502281D01*
X109061629Y-110607932D01*
X108629449Y-111039357D01*
X108395267Y-111603330D01*
X108394735Y-112213991D01*
X108510846Y-112495000D01*
X108312731Y-112495000D01*
X108197153Y-112379421D01*
X108264733Y-112216670D01*
X108265265Y-111606009D01*
X108032068Y-111041629D01*
X107800818Y-110809974D01*
X108030551Y-110580643D01*
X108264733Y-110016670D01*
X108265209Y-109469336D01*
X108383542Y-109469336D01*
X108409161Y-110079460D01*
X108593357Y-110524148D01*
X108849841Y-110610554D01*
X109750395Y-109710000D01*
X110109605Y-109710000D01*
X111010159Y-110610554D01*
X111266643Y-110524148D01*
X111476458Y-109950664D01*
X111450839Y-109340540D01*
X111266643Y-108895852D01*
X111010159Y-108809446D01*
X110109605Y-109710000D01*
X109750395Y-109710000D01*
X108849841Y-108809446D01*
X108593357Y-108895852D01*
X108383542Y-109469336D01*
X108265209Y-109469336D01*
X108265265Y-109406009D01*
X108032068Y-108841629D01*
X107800818Y-108609974D01*
X108030551Y-108380643D01*
X108264733Y-107816670D01*
X108264735Y-107813991D01*
X108394735Y-107813991D01*
X108627932Y-108378371D01*
X109059357Y-108810551D01*
X109317237Y-108917632D01*
X109930000Y-109530395D01*
X110542676Y-108917719D01*
X110798371Y-108812068D01*
X111230551Y-108380643D01*
X111464733Y-107816670D01*
X111465265Y-107206009D01*
X111232068Y-106641629D01*
X110800643Y-106209449D01*
X110236670Y-105975267D01*
X109626009Y-105974735D01*
X109061629Y-106207932D01*
X108629449Y-106639357D01*
X108395267Y-107203330D01*
X108394735Y-107813991D01*
X108264735Y-107813991D01*
X108265265Y-107206009D01*
X108032068Y-106641629D01*
X107600643Y-106209449D01*
X107036670Y-105975267D01*
X106426009Y-105974735D01*
X106005000Y-106148692D01*
X106005000Y-105562732D01*
X106165292Y-105402440D01*
X108160000Y-105402440D01*
X108395317Y-105358162D01*
X108611441Y-105219090D01*
X108684311Y-105112441D01*
X108902053Y-105257931D01*
X109566009Y-105390000D01*
X109633991Y-105390000D01*
X110297947Y-105257931D01*
X110860821Y-104881830D01*
X111236922Y-104318956D01*
X111368991Y-103655000D01*
X111236922Y-102991044D01*
X110860821Y-102428170D01*
X110297947Y-102052069D01*
X109633991Y-101920000D01*
X109566009Y-101920000D01*
X108902053Y-102052069D01*
X108684498Y-102197435D01*
X108624090Y-102103559D01*
X108411890Y-101958569D01*
X108160000Y-101907560D01*
X105960000Y-101907560D01*
X105724683Y-101951838D01*
X105508559Y-102090910D01*
X105363569Y-102303110D01*
X105312560Y-102555000D01*
X105312560Y-104119708D01*
X104716134Y-104716134D01*
X104552471Y-104961074D01*
X104494999Y-105250000D01*
X104495000Y-105250005D01*
X104495000Y-111041831D01*
X103976892Y-110798514D01*
X103747000Y-110919181D01*
X103747000Y-112113000D01*
X103767000Y-112113000D01*
X103767000Y-112367000D01*
X103747000Y-112367000D01*
X103747000Y-112387000D01*
X103493000Y-112387000D01*
X103493000Y-112367000D01*
X102299845Y-112367000D01*
X102178524Y-112596890D01*
X102348355Y-113006924D01*
X102738642Y-113435183D01*
X102881553Y-113502298D01*
X102540853Y-113729946D01*
X102218946Y-114211715D01*
X102105907Y-114780000D01*
X102218946Y-115348285D01*
X102540853Y-115830054D01*
X102870026Y-116050000D01*
X102540853Y-116269946D01*
X102218946Y-116751715D01*
X102105907Y-117320000D01*
X102218946Y-117888285D01*
X102540853Y-118370054D01*
X102870026Y-118590000D01*
X102540853Y-118809946D01*
X102218946Y-119291715D01*
X102105907Y-119860000D01*
X102218946Y-120428285D01*
X102540853Y-120910054D01*
X102870026Y-121130000D01*
X102540853Y-121349946D01*
X102218946Y-121831715D01*
X102105907Y-122400000D01*
X102218946Y-122968285D01*
X102540853Y-123450054D01*
X102870026Y-123670000D01*
X102540853Y-123889946D01*
X102218946Y-124371715D01*
X102105907Y-124940000D01*
X102218946Y-125508285D01*
X102540853Y-125990054D01*
X102582452Y-126017850D01*
X102534683Y-126026838D01*
X102318559Y-126165910D01*
X102173569Y-126378110D01*
X102122560Y-126630000D01*
X102122560Y-128330000D01*
X102166838Y-128565317D01*
X102305910Y-128781441D01*
X102518110Y-128926431D01*
X102685000Y-128960227D01*
X102685000Y-138632560D01*
X102510000Y-138632560D01*
X102274683Y-138676838D01*
X102058559Y-138815910D01*
X101913569Y-139028110D01*
X101862560Y-139280000D01*
X101862560Y-140980000D01*
X101906838Y-141215317D01*
X102045910Y-141431441D01*
X102258110Y-141576431D01*
X102510000Y-141627440D01*
X104210000Y-141627440D01*
X104445317Y-141583162D01*
X104661441Y-141444090D01*
X104806431Y-141231890D01*
X104820086Y-141164459D01*
X104849946Y-141209147D01*
X105331715Y-141531054D01*
X105900000Y-141644093D01*
X106468285Y-141531054D01*
X106566823Y-141465213D01*
X108164392Y-141465213D01*
X108233857Y-141707397D01*
X108757302Y-141894144D01*
X109312368Y-141866362D01*
X109696143Y-141707397D01*
X109765608Y-141465213D01*
X108965000Y-140664605D01*
X108164392Y-141465213D01*
X106566823Y-141465213D01*
X106950054Y-141209147D01*
X107271961Y-140727378D01*
X107361486Y-140277302D01*
X107555856Y-140277302D01*
X107583638Y-140832368D01*
X107742603Y-141216143D01*
X107984787Y-141285608D01*
X108785395Y-140485000D01*
X109144605Y-140485000D01*
X109945213Y-141285608D01*
X110187397Y-141216143D01*
X110374144Y-140692698D01*
X110346362Y-140137632D01*
X110187397Y-139753857D01*
X109945213Y-139684392D01*
X109144605Y-140485000D01*
X108785395Y-140485000D01*
X107984787Y-139684392D01*
X107742603Y-139753857D01*
X107555856Y-140277302D01*
X107361486Y-140277302D01*
X107385000Y-140159093D01*
X107385000Y-140100907D01*
X107271961Y-139532622D01*
X106950054Y-139050853D01*
X106468285Y-138728946D01*
X105900000Y-138615907D01*
X105331715Y-138728946D01*
X104849946Y-139050853D01*
X104822150Y-139092452D01*
X104813162Y-139044683D01*
X104674090Y-138828559D01*
X104555000Y-138747188D01*
X104555000Y-137183000D01*
X107555560Y-137183000D01*
X107555560Y-138707000D01*
X107599838Y-138942317D01*
X107738910Y-139158441D01*
X107951110Y-139303431D01*
X108203000Y-139354440D01*
X108207516Y-139354440D01*
X108164392Y-139504787D01*
X108965000Y-140305395D01*
X109765608Y-139504787D01*
X109722484Y-139354440D01*
X109727000Y-139354440D01*
X109962317Y-139310162D01*
X110178441Y-139171090D01*
X110323431Y-138958890D01*
X110374440Y-138707000D01*
X110374440Y-137183000D01*
X110330162Y-136947683D01*
X110273847Y-136860167D01*
X117554838Y-136860167D01*
X117555000Y-136860559D01*
X117555000Y-139849184D01*
X117554838Y-140035167D01*
X117696883Y-140378943D01*
X117959673Y-140642192D01*
X118303201Y-140784838D01*
X118675167Y-140785162D01*
X119018943Y-140643117D01*
X119282192Y-140380327D01*
X119424838Y-140036799D01*
X119425162Y-139664833D01*
X119425000Y-139664441D01*
X119425000Y-136675816D01*
X119425162Y-136489833D01*
X119283117Y-136146057D01*
X119020327Y-135882808D01*
X118676799Y-135740162D01*
X118304833Y-135739838D01*
X117961057Y-135881883D01*
X117697808Y-136144673D01*
X117555162Y-136488201D01*
X117554838Y-136860167D01*
X110273847Y-136860167D01*
X110191090Y-136731559D01*
X109978890Y-136586569D01*
X109727000Y-136535560D01*
X108203000Y-136535560D01*
X107967683Y-136579838D01*
X107751559Y-136718910D01*
X107606569Y-136931110D01*
X107555560Y-137183000D01*
X104555000Y-137183000D01*
X104555000Y-130583991D01*
X105194735Y-130583991D01*
X105427932Y-131148371D01*
X105859357Y-131580551D01*
X106423330Y-131814733D01*
X107033991Y-131815265D01*
X107598371Y-131582068D01*
X108030551Y-131150643D01*
X108264733Y-130586670D01*
X108265265Y-129976009D01*
X108032068Y-129411629D01*
X107600643Y-128979449D01*
X107342763Y-128872368D01*
X106730000Y-128259605D01*
X106117324Y-128872281D01*
X105861629Y-128977932D01*
X105429449Y-129409357D01*
X105195267Y-129973330D01*
X105194735Y-130583991D01*
X104555000Y-130583991D01*
X104555000Y-128961446D01*
X104705317Y-128933162D01*
X104921441Y-128794090D01*
X105066431Y-128581890D01*
X105117440Y-128330000D01*
X105117440Y-127839336D01*
X105183542Y-127839336D01*
X105209161Y-128449460D01*
X105393357Y-128894148D01*
X105649841Y-128980554D01*
X106550395Y-128080000D01*
X106909605Y-128080000D01*
X107810159Y-128980554D01*
X108066643Y-128894148D01*
X108276458Y-128320664D01*
X108250839Y-127710540D01*
X108066643Y-127265852D01*
X107810159Y-127179446D01*
X106909605Y-128080000D01*
X106550395Y-128080000D01*
X105649841Y-127179446D01*
X105393357Y-127265852D01*
X105183542Y-127839336D01*
X105117440Y-127839336D01*
X105117440Y-126630000D01*
X105073162Y-126394683D01*
X104934090Y-126178559D01*
X104721890Y-126033569D01*
X104654459Y-126019914D01*
X104699147Y-125990054D01*
X105021054Y-125508285D01*
X105134093Y-124940000D01*
X105068023Y-124607845D01*
X105745434Y-123930434D01*
X105771053Y-123892092D01*
X105859357Y-123980551D01*
X106423330Y-124214733D01*
X107033991Y-124215265D01*
X107495000Y-124024780D01*
X107495000Y-124249995D01*
X107494999Y-124250000D01*
X107552471Y-124538926D01*
X107571447Y-124567326D01*
X107036670Y-124345267D01*
X106426009Y-124344735D01*
X105861629Y-124577932D01*
X105429449Y-125009357D01*
X105195267Y-125573330D01*
X105194735Y-126183991D01*
X105427932Y-126748371D01*
X105859357Y-127180551D01*
X106117237Y-127287632D01*
X106730000Y-127900395D01*
X107342676Y-127287719D01*
X107598371Y-127182068D01*
X108030551Y-126750643D01*
X108264733Y-126186670D01*
X108265265Y-125576009D01*
X108094152Y-125161884D01*
X108427639Y-125495371D01*
X108395267Y-125573330D01*
X108394735Y-126183991D01*
X108627932Y-126748371D01*
X108859182Y-126980026D01*
X108629449Y-127209357D01*
X108395267Y-127773330D01*
X108394735Y-128383991D01*
X108627932Y-128948371D01*
X108859182Y-129180026D01*
X108629449Y-129409357D01*
X108395267Y-129973330D01*
X108394735Y-130583991D01*
X108627932Y-131148371D01*
X109059357Y-131580551D01*
X109623330Y-131814733D01*
X110233991Y-131815265D01*
X110495000Y-131707418D01*
X110495000Y-132172269D01*
X110162201Y-132505067D01*
X109633991Y-132400000D01*
X109566009Y-132400000D01*
X108902053Y-132532069D01*
X108684498Y-132677435D01*
X108624090Y-132583559D01*
X108411890Y-132438569D01*
X108160000Y-132387560D01*
X105960000Y-132387560D01*
X105724683Y-132431838D01*
X105508559Y-132570910D01*
X105363569Y-132783110D01*
X105312560Y-133035000D01*
X105312560Y-135235000D01*
X105356838Y-135470317D01*
X105495910Y-135686441D01*
X105708110Y-135831431D01*
X105960000Y-135882440D01*
X108160000Y-135882440D01*
X108395317Y-135838162D01*
X108611441Y-135699090D01*
X108684311Y-135592441D01*
X108902053Y-135737931D01*
X109566009Y-135870000D01*
X109633991Y-135870000D01*
X110297947Y-135737931D01*
X110860821Y-135361830D01*
X111236922Y-134798956D01*
X111359647Y-134181974D01*
X111469673Y-134292192D01*
X111813201Y-134434838D01*
X112185167Y-134435162D01*
X112528943Y-134293117D01*
X112792192Y-134030327D01*
X112934838Y-133686799D01*
X112935162Y-133314833D01*
X112835000Y-133072422D01*
X112835000Y-132050164D01*
X112945000Y-132072440D01*
X115145000Y-132072440D01*
X115380317Y-132028162D01*
X115596441Y-131889090D01*
X115741431Y-131676890D01*
X115792440Y-131425000D01*
X115792440Y-129225000D01*
X115748162Y-128989683D01*
X115609090Y-128773559D01*
X115396890Y-128628569D01*
X115145000Y-128577560D01*
X112945000Y-128577560D01*
X112835000Y-128598258D01*
X112835000Y-125500000D01*
X112771439Y-125180459D01*
X112590434Y-124909566D01*
X111642535Y-123961667D01*
X111543117Y-123721057D01*
X111467144Y-123644952D01*
X111563201Y-123684838D01*
X111935167Y-123685162D01*
X112278943Y-123543117D01*
X112438306Y-123384031D01*
X112442069Y-123402947D01*
X112818170Y-123965821D01*
X113381044Y-124341922D01*
X114045000Y-124473991D01*
X114708956Y-124341922D01*
X115271830Y-123965821D01*
X115647931Y-123402947D01*
X115780000Y-122738991D01*
X115780000Y-122671009D01*
X115647931Y-122007053D01*
X115271830Y-121444179D01*
X114708956Y-121068078D01*
X114045000Y-120936009D01*
X113381044Y-121068078D01*
X112818170Y-121444179D01*
X112505000Y-121912870D01*
X112505000Y-115877130D01*
X112818170Y-116345821D01*
X113381044Y-116721922D01*
X114045000Y-116853991D01*
X114708956Y-116721922D01*
X115271830Y-116345821D01*
X115374703Y-116191860D01*
X115416134Y-116253866D01*
X118591134Y-119428866D01*
X118836074Y-119592529D01*
X119125000Y-119650000D01*
X119192546Y-119650000D01*
X119229673Y-119687192D01*
X119573201Y-119829838D01*
X119945167Y-119830162D01*
X120288943Y-119688117D01*
X120552192Y-119425327D01*
X120694838Y-119081799D01*
X120695162Y-118709833D01*
X120553117Y-118366057D01*
X120290327Y-118102808D01*
X119946799Y-117960162D01*
X119574833Y-117959838D01*
X119350332Y-118052600D01*
X118102494Y-116804762D01*
X118518956Y-116721922D01*
X119081830Y-116345821D01*
X119457931Y-115782947D01*
X119590000Y-115118991D01*
X119590000Y-115051009D01*
X119494887Y-114572845D01*
X120062732Y-114005000D01*
X121340959Y-114005000D01*
X121285302Y-114042189D01*
X120974233Y-114507736D01*
X120865000Y-115056887D01*
X120865000Y-115113113D01*
X120974233Y-115662264D01*
X121285302Y-116127811D01*
X121545000Y-116301336D01*
X121545000Y-121194735D01*
X121101629Y-121377932D01*
X120669449Y-121809357D01*
X120435267Y-122373330D01*
X120434735Y-122983991D01*
X120667932Y-123548371D01*
X120787680Y-123668329D01*
X120716134Y-123716134D01*
X120716132Y-123716137D01*
X120250000Y-124182268D01*
X119460046Y-123392314D01*
X119590000Y-122738991D01*
X119590000Y-122671009D01*
X119457931Y-122007053D01*
X119081830Y-121444179D01*
X118518956Y-121068078D01*
X117855000Y-120936009D01*
X117191044Y-121068078D01*
X116628170Y-121444179D01*
X116252069Y-122007053D01*
X116120000Y-122671009D01*
X116120000Y-122738991D01*
X116252069Y-123402947D01*
X116628170Y-123965821D01*
X117191044Y-124341922D01*
X117855000Y-124473991D01*
X118314799Y-124382531D01*
X119245000Y-125312732D01*
X119245000Y-128654608D01*
X119206890Y-128628569D01*
X118955000Y-128577560D01*
X116755000Y-128577560D01*
X116519683Y-128621838D01*
X116303559Y-128760910D01*
X116158569Y-128973110D01*
X116107560Y-129225000D01*
X116107560Y-131425000D01*
X116151838Y-131660317D01*
X116290910Y-131876441D01*
X116503110Y-132021431D01*
X116755000Y-132072440D01*
X118955000Y-132072440D01*
X119190317Y-132028162D01*
X119245000Y-131992974D01*
X119245000Y-132249995D01*
X119244999Y-132250000D01*
X119302471Y-132538926D01*
X119466134Y-132783866D01*
X120578503Y-133896234D01*
X120531009Y-134135000D01*
X120663078Y-134798956D01*
X121039179Y-135361830D01*
X121602053Y-135737931D01*
X122266009Y-135870000D01*
X122333991Y-135870000D01*
X122997947Y-135737931D01*
X123215502Y-135592565D01*
X123275910Y-135686441D01*
X123488110Y-135831431D01*
X123740000Y-135882440D01*
X125940000Y-135882440D01*
X126175317Y-135838162D01*
X126391441Y-135699090D01*
X126536431Y-135486890D01*
X126587440Y-135235000D01*
X126587440Y-133035000D01*
X126543162Y-132799683D01*
X126404090Y-132583559D01*
X126191890Y-132438569D01*
X125940000Y-132387560D01*
X123740000Y-132387560D01*
X123504683Y-132431838D01*
X123288559Y-132570910D01*
X123215689Y-132677559D01*
X122997947Y-132532069D01*
X122333991Y-132400000D01*
X122266009Y-132400000D01*
X121602053Y-132532069D01*
X121450839Y-132633107D01*
X120755000Y-131937268D01*
X120755000Y-131235591D01*
X121099357Y-131580551D01*
X121663330Y-131814733D01*
X122273991Y-131815265D01*
X122838371Y-131582068D01*
X123270551Y-131150643D01*
X123504733Y-130586670D01*
X123505265Y-129976009D01*
X123272068Y-129411629D01*
X122840643Y-128979449D01*
X122582763Y-128872368D01*
X121970000Y-128259605D01*
X121955858Y-128273748D01*
X121776253Y-128094143D01*
X121790395Y-128080000D01*
X122149605Y-128080000D01*
X123050159Y-128980554D01*
X123306643Y-128894148D01*
X123516458Y-128320664D01*
X123496248Y-127839336D01*
X123623542Y-127839336D01*
X123649161Y-128449460D01*
X123833357Y-128894148D01*
X124089841Y-128980554D01*
X124990395Y-128080000D01*
X124089841Y-127179446D01*
X123833357Y-127265852D01*
X123623542Y-127839336D01*
X123496248Y-127839336D01*
X123490839Y-127710540D01*
X123306643Y-127265852D01*
X123050159Y-127179446D01*
X122149605Y-128080000D01*
X121790395Y-128080000D01*
X121776253Y-128065858D01*
X121955858Y-127886253D01*
X121970000Y-127900395D01*
X122582676Y-127287719D01*
X122838371Y-127182068D01*
X123270551Y-126750643D01*
X123504733Y-126186670D01*
X123505265Y-125576009D01*
X123272068Y-125011629D01*
X123265451Y-125005000D01*
X123599995Y-125005000D01*
X123600000Y-125005001D01*
X123888926Y-124947529D01*
X124017335Y-124861729D01*
X123869449Y-125009357D01*
X123635267Y-125573330D01*
X123634735Y-126183991D01*
X123867932Y-126748371D01*
X124299357Y-127180551D01*
X124557237Y-127287632D01*
X125170000Y-127900395D01*
X125184143Y-127886253D01*
X125363748Y-128065858D01*
X125349605Y-128080000D01*
X125363748Y-128094143D01*
X125184143Y-128273748D01*
X125170000Y-128259605D01*
X124557324Y-128872281D01*
X124301629Y-128977932D01*
X123869449Y-129409357D01*
X123635267Y-129973330D01*
X123634735Y-130583991D01*
X123867932Y-131148371D01*
X124299357Y-131580551D01*
X124863330Y-131814733D01*
X125473991Y-131815265D01*
X125773697Y-131691429D01*
X126625000Y-132542731D01*
X126625000Y-136616268D01*
X126231384Y-137009884D01*
X126178833Y-137009838D01*
X125835057Y-137151883D01*
X125571808Y-137414673D01*
X125429162Y-137758201D01*
X125428838Y-138130167D01*
X125570883Y-138473943D01*
X125729223Y-138632560D01*
X124990000Y-138632560D01*
X124754683Y-138676838D01*
X124538559Y-138815910D01*
X124393569Y-139028110D01*
X124342560Y-139280000D01*
X124342560Y-140980000D01*
X124386838Y-141215317D01*
X124525910Y-141431441D01*
X124738110Y-141576431D01*
X124990000Y-141627440D01*
X126690000Y-141627440D01*
X126925317Y-141583162D01*
X127141441Y-141444090D01*
X127286431Y-141231890D01*
X127308301Y-141123893D01*
X127613076Y-141401645D01*
X128023110Y-141571476D01*
X128253000Y-141450155D01*
X128253000Y-140257000D01*
X128507000Y-140257000D01*
X128507000Y-141450155D01*
X128736890Y-141571476D01*
X129146924Y-141401645D01*
X129575183Y-141011358D01*
X129821486Y-140486892D01*
X129700819Y-140257000D01*
X128507000Y-140257000D01*
X128253000Y-140257000D01*
X128233000Y-140257000D01*
X128233000Y-140003000D01*
X128253000Y-140003000D01*
X128253000Y-138809845D01*
X128507000Y-138809845D01*
X128507000Y-140003000D01*
X129700819Y-140003000D01*
X129821486Y-139773108D01*
X129575183Y-139248642D01*
X129146924Y-138858355D01*
X128736890Y-138688524D01*
X128507000Y-138809845D01*
X128253000Y-138809845D01*
X128023110Y-138688524D01*
X127613076Y-138858355D01*
X127310063Y-139134501D01*
X127293162Y-139044683D01*
X127154090Y-138828559D01*
X126945272Y-138685880D01*
X127156192Y-138475327D01*
X127298838Y-138131799D01*
X127298885Y-138077847D01*
X127913866Y-137462866D01*
X128077529Y-137217926D01*
X128135001Y-136929000D01*
X128135000Y-136928995D01*
X128135000Y-135070105D01*
X128200167Y-135070162D01*
X128254919Y-135047539D01*
X128499809Y-134998827D01*
X128803145Y-134796145D01*
X131216145Y-132383145D01*
X131320000Y-132227715D01*
X131320000Y-141680069D01*
X131208953Y-142238340D01*
X130932333Y-142652331D01*
X130518338Y-142928954D01*
X129960069Y-143040000D01*
X102069931Y-143040000D01*
X101511660Y-142928953D01*
X101097669Y-142652333D01*
X100821046Y-142238338D01*
X100710000Y-141680069D01*
X100710000Y-111883110D01*
X102178524Y-111883110D01*
X102299845Y-112113000D01*
X103493000Y-112113000D01*
X103493000Y-110919181D01*
X103263108Y-110798514D01*
X102738642Y-111044817D01*
X102348355Y-111473076D01*
X102178524Y-111883110D01*
X100710000Y-111883110D01*
X100710000Y-102069931D01*
X100821046Y-101511662D01*
X101097669Y-101097667D01*
X101511660Y-100821047D01*
X102069931Y-100710000D01*
X129960069Y-100710000D01*
X130518338Y-100821046D01*
X130518338Y-100821046D01*
G37*
X130518338Y-100821046D02*
X130932333Y-101097669D01*
X131208953Y-101511660D01*
X131320000Y-102069931D01*
X131320000Y-117754285D01*
X131216145Y-117598855D01*
X130276145Y-116658855D01*
X129972809Y-116456173D01*
X129615000Y-116385000D01*
X129566023Y-116385000D01*
X129489147Y-116269946D01*
X129159974Y-116050000D01*
X129489147Y-115830054D01*
X129811054Y-115348285D01*
X129924093Y-114780000D01*
X129811054Y-114211715D01*
X129489147Y-113729946D01*
X129445223Y-113700597D01*
X129619698Y-113628327D01*
X129798327Y-113449699D01*
X129895000Y-113216310D01*
X129895000Y-112525750D01*
X129736250Y-112367000D01*
X128537000Y-112367000D01*
X128537000Y-112387000D01*
X128283000Y-112387000D01*
X128283000Y-112367000D01*
X127083750Y-112367000D01*
X126925000Y-112525750D01*
X126925000Y-113216310D01*
X127021673Y-113449699D01*
X127200302Y-113628327D01*
X127374777Y-113700597D01*
X127330853Y-113729946D01*
X127008946Y-114211715D01*
X126895907Y-114780000D01*
X127008946Y-115348285D01*
X127330853Y-115830054D01*
X127660026Y-116050000D01*
X127330853Y-116269946D01*
X127008946Y-116751715D01*
X126895907Y-117320000D01*
X127008946Y-117888285D01*
X127330853Y-118370054D01*
X127660026Y-118590000D01*
X127330853Y-118809946D01*
X127008946Y-119291715D01*
X126895907Y-119860000D01*
X126969963Y-120232305D01*
X126466134Y-120736134D01*
X126302471Y-120981074D01*
X126244999Y-121270000D01*
X126245000Y-121270005D01*
X126245000Y-121584164D01*
X126040643Y-121379449D01*
X125476670Y-121145267D01*
X124866009Y-121144735D01*
X124755000Y-121190603D01*
X124755000Y-116324722D01*
X124925849Y-116438880D01*
X125475000Y-116548113D01*
X126024151Y-116438880D01*
X126489698Y-116127811D01*
X126800767Y-115662264D01*
X126910000Y-115113113D01*
X126910000Y-115056887D01*
X126800767Y-114507736D01*
X126489698Y-114042189D01*
X126230000Y-113868664D01*
X126230000Y-111275000D01*
X126227751Y-111263690D01*
X126925000Y-111263690D01*
X126925000Y-111954250D01*
X127083750Y-112113000D01*
X128283000Y-112113000D01*
X128283000Y-110913750D01*
X128537000Y-110913750D01*
X128537000Y-112113000D01*
X129736250Y-112113000D01*
X129895000Y-111954250D01*
X129895000Y-111263690D01*
X129798327Y-111030301D01*
X129619698Y-110851673D01*
X129386309Y-110755000D01*
X128695750Y-110755000D01*
X128537000Y-110913750D01*
X128283000Y-110913750D01*
X128124250Y-110755000D01*
X127433691Y-110755000D01*
X127200302Y-110851673D01*
X127021673Y-111030301D01*
X126925000Y-111263690D01*
X126227751Y-111263690D01*
X126172529Y-110986074D01*
X126008866Y-110741134D01*
X121076116Y-105808384D01*
X121076162Y-105755833D01*
X120934117Y-105412057D01*
X120731601Y-105209187D01*
X120864752Y-105209187D01*
X121082757Y-105736800D01*
X121486077Y-106140824D01*
X122013309Y-106359750D01*
X122584187Y-106360248D01*
X123111800Y-106142243D01*
X123515824Y-105738923D01*
X123734750Y-105211691D01*
X123734752Y-105209187D01*
X124039752Y-105209187D01*
X124257757Y-105736800D01*
X124661077Y-106140824D01*
X125188309Y-106359750D01*
X125759187Y-106360248D01*
X126286800Y-106142243D01*
X126690824Y-105738923D01*
X126909750Y-105211691D01*
X126910248Y-104640813D01*
X126692243Y-104113200D01*
X126288923Y-103709176D01*
X125761691Y-103490250D01*
X125190813Y-103489752D01*
X124663200Y-103707757D01*
X124259176Y-104111077D01*
X124040250Y-104638309D01*
X124039752Y-105209187D01*
X123734752Y-105209187D01*
X123735248Y-104640813D01*
X123517243Y-104113200D01*
X123113923Y-103709176D01*
X122586691Y-103490250D01*
X122015813Y-103489752D01*
X121488200Y-103707757D01*
X121084176Y-104111077D01*
X120865250Y-104638309D01*
X120864752Y-105209187D01*
X120731601Y-105209187D01*
X120671327Y-105148808D01*
X120327799Y-105006162D01*
X119955833Y-105005838D01*
X119612057Y-105147883D01*
X119348808Y-105410673D01*
X119206162Y-105754201D01*
X119206150Y-105768419D01*
X118955000Y-105717560D01*
X116755000Y-105717560D01*
X116705000Y-105726968D01*
X116705000Y-105492454D01*
X116742192Y-105455327D01*
X116884838Y-105111799D01*
X116885162Y-104739833D01*
X116743117Y-104396057D01*
X116480327Y-104132808D01*
X116136799Y-103990162D01*
X115764833Y-103989838D01*
X115421057Y-104131883D01*
X115157808Y-104394673D01*
X115015162Y-104738201D01*
X115014838Y-105110167D01*
X115156883Y-105453943D01*
X115195000Y-105492127D01*
X115195000Y-105727685D01*
X115145000Y-105717560D01*
X112945000Y-105717560D01*
X112709683Y-105761838D01*
X112493559Y-105900910D01*
X112348569Y-106113110D01*
X112297560Y-106365000D01*
X112297560Y-108565000D01*
X112341838Y-108800317D01*
X112480910Y-109016441D01*
X112693110Y-109161431D01*
X112945000Y-109212440D01*
X115145000Y-109212440D01*
X115195000Y-109203032D01*
X115195000Y-113772843D01*
X114708956Y-113448078D01*
X114045000Y-113316009D01*
X113381044Y-113448078D01*
X112818170Y-113824179D01*
X112505000Y-114292870D01*
X112505000Y-114250005D01*
X112505001Y-114250000D01*
X112447529Y-113961074D01*
X112356059Y-113824179D01*
X112283866Y-113716134D01*
X112283863Y-113716132D01*
X111283866Y-112716134D01*
X111263099Y-112702258D01*
X111464733Y-112216670D01*
X111465265Y-111606009D01*
X111232068Y-111041629D01*
X110800643Y-110609449D01*
X110542763Y-110502368D01*
X109930000Y-109889605D01*
X109317324Y-110502281D01*
X109061629Y-110607932D01*
X108629449Y-111039357D01*
X108395267Y-111603330D01*
X108394735Y-112213991D01*
X108510846Y-112495000D01*
X108312731Y-112495000D01*
X108197153Y-112379421D01*
X108264733Y-112216670D01*
X108265265Y-111606009D01*
X108032068Y-111041629D01*
X107800818Y-110809974D01*
X108030551Y-110580643D01*
X108264733Y-110016670D01*
X108265209Y-109469336D01*
X108383542Y-109469336D01*
X108409161Y-110079460D01*
X108593357Y-110524148D01*
X108849841Y-110610554D01*
X109750395Y-109710000D01*
X110109605Y-109710000D01*
X111010159Y-110610554D01*
X111266643Y-110524148D01*
X111476458Y-109950664D01*
X111450839Y-109340540D01*
X111266643Y-108895852D01*
X111010159Y-108809446D01*
X110109605Y-109710000D01*
X109750395Y-109710000D01*
X108849841Y-108809446D01*
X108593357Y-108895852D01*
X108383542Y-109469336D01*
X108265209Y-109469336D01*
X108265265Y-109406009D01*
X108032068Y-108841629D01*
X107800818Y-108609974D01*
X108030551Y-108380643D01*
X108264733Y-107816670D01*
X108264735Y-107813991D01*
X108394735Y-107813991D01*
X108627932Y-108378371D01*
X109059357Y-108810551D01*
X109317237Y-108917632D01*
X109930000Y-109530395D01*
X110542676Y-108917719D01*
X110798371Y-108812068D01*
X111230551Y-108380643D01*
X111464733Y-107816670D01*
X111465265Y-107206009D01*
X111232068Y-106641629D01*
X110800643Y-106209449D01*
X110236670Y-105975267D01*
X109626009Y-105974735D01*
X109061629Y-106207932D01*
X108629449Y-106639357D01*
X108395267Y-107203330D01*
X108394735Y-107813991D01*
X108264735Y-107813991D01*
X108265265Y-107206009D01*
X108032068Y-106641629D01*
X107600643Y-106209449D01*
X107036670Y-105975267D01*
X106426009Y-105974735D01*
X106005000Y-106148692D01*
X106005000Y-105562732D01*
X106165292Y-105402440D01*
X108160000Y-105402440D01*
X108395317Y-105358162D01*
X108611441Y-105219090D01*
X108684311Y-105112441D01*
X108902053Y-105257931D01*
X109566009Y-105390000D01*
X109633991Y-105390000D01*
X110297947Y-105257931D01*
X110860821Y-104881830D01*
X111236922Y-104318956D01*
X111368991Y-103655000D01*
X111236922Y-102991044D01*
X110860821Y-102428170D01*
X110297947Y-102052069D01*
X109633991Y-101920000D01*
X109566009Y-101920000D01*
X108902053Y-102052069D01*
X108684498Y-102197435D01*
X108624090Y-102103559D01*
X108411890Y-101958569D01*
X108160000Y-101907560D01*
X105960000Y-101907560D01*
X105724683Y-101951838D01*
X105508559Y-102090910D01*
X105363569Y-102303110D01*
X105312560Y-102555000D01*
X105312560Y-104119708D01*
X104716134Y-104716134D01*
X104552471Y-104961074D01*
X104494999Y-105250000D01*
X104495000Y-105250005D01*
X104495000Y-111041831D01*
X103976892Y-110798514D01*
X103747000Y-110919181D01*
X103747000Y-112113000D01*
X103767000Y-112113000D01*
X103767000Y-112367000D01*
X103747000Y-112367000D01*
X103747000Y-112387000D01*
X103493000Y-112387000D01*
X103493000Y-112367000D01*
X102299845Y-112367000D01*
X102178524Y-112596890D01*
X102348355Y-113006924D01*
X102738642Y-113435183D01*
X102881553Y-113502298D01*
X102540853Y-113729946D01*
X102218946Y-114211715D01*
X102105907Y-114780000D01*
X102218946Y-115348285D01*
X102540853Y-115830054D01*
X102870026Y-116050000D01*
X102540853Y-116269946D01*
X102218946Y-116751715D01*
X102105907Y-117320000D01*
X102218946Y-117888285D01*
X102540853Y-118370054D01*
X102870026Y-118590000D01*
X102540853Y-118809946D01*
X102218946Y-119291715D01*
X102105907Y-119860000D01*
X102218946Y-120428285D01*
X102540853Y-120910054D01*
X102870026Y-121130000D01*
X102540853Y-121349946D01*
X102218946Y-121831715D01*
X102105907Y-122400000D01*
X102218946Y-122968285D01*
X102540853Y-123450054D01*
X102870026Y-123670000D01*
X102540853Y-123889946D01*
X102218946Y-124371715D01*
X102105907Y-124940000D01*
X102218946Y-125508285D01*
X102540853Y-125990054D01*
X102582452Y-126017850D01*
X102534683Y-126026838D01*
X102318559Y-126165910D01*
X102173569Y-126378110D01*
X102122560Y-126630000D01*
X102122560Y-128330000D01*
X102166838Y-128565317D01*
X102305910Y-128781441D01*
X102518110Y-128926431D01*
X102685000Y-128960227D01*
X102685000Y-138632560D01*
X102510000Y-138632560D01*
X102274683Y-138676838D01*
X102058559Y-138815910D01*
X101913569Y-139028110D01*
X101862560Y-139280000D01*
X101862560Y-140980000D01*
X101906838Y-141215317D01*
X102045910Y-141431441D01*
X102258110Y-141576431D01*
X102510000Y-141627440D01*
X104210000Y-141627440D01*
X104445317Y-141583162D01*
X104661441Y-141444090D01*
X104806431Y-141231890D01*
X104820086Y-141164459D01*
X104849946Y-141209147D01*
X105331715Y-141531054D01*
X105900000Y-141644093D01*
X106468285Y-141531054D01*
X106566823Y-141465213D01*
X108164392Y-141465213D01*
X108233857Y-141707397D01*
X108757302Y-141894144D01*
X109312368Y-141866362D01*
X109696143Y-141707397D01*
X109765608Y-141465213D01*
X108965000Y-140664605D01*
X108164392Y-141465213D01*
X106566823Y-141465213D01*
X106950054Y-141209147D01*
X107271961Y-140727378D01*
X107361486Y-140277302D01*
X107555856Y-140277302D01*
X107583638Y-140832368D01*
X107742603Y-141216143D01*
X107984787Y-141285608D01*
X108785395Y-140485000D01*
X109144605Y-140485000D01*
X109945213Y-141285608D01*
X110187397Y-141216143D01*
X110374144Y-140692698D01*
X110346362Y-140137632D01*
X110187397Y-139753857D01*
X109945213Y-139684392D01*
X109144605Y-140485000D01*
X108785395Y-140485000D01*
X107984787Y-139684392D01*
X107742603Y-139753857D01*
X107555856Y-140277302D01*
X107361486Y-140277302D01*
X107385000Y-140159093D01*
X107385000Y-140100907D01*
X107271961Y-139532622D01*
X106950054Y-139050853D01*
X106468285Y-138728946D01*
X105900000Y-138615907D01*
X105331715Y-138728946D01*
X104849946Y-139050853D01*
X104822150Y-139092452D01*
X104813162Y-139044683D01*
X104674090Y-138828559D01*
X104555000Y-138747188D01*
X104555000Y-137183000D01*
X107555560Y-137183000D01*
X107555560Y-138707000D01*
X107599838Y-138942317D01*
X107738910Y-139158441D01*
X107951110Y-139303431D01*
X108203000Y-139354440D01*
X108207516Y-139354440D01*
X108164392Y-139504787D01*
X108965000Y-140305395D01*
X109765608Y-139504787D01*
X109722484Y-139354440D01*
X109727000Y-139354440D01*
X109962317Y-139310162D01*
X110178441Y-139171090D01*
X110323431Y-138958890D01*
X110374440Y-138707000D01*
X110374440Y-137183000D01*
X110330162Y-136947683D01*
X110273847Y-136860167D01*
X117554838Y-136860167D01*
X117555000Y-136860559D01*
X117555000Y-139849184D01*
X117554838Y-140035167D01*
X117696883Y-140378943D01*
X117959673Y-140642192D01*
X118303201Y-140784838D01*
X118675167Y-140785162D01*
X119018943Y-140643117D01*
X119282192Y-140380327D01*
X119424838Y-140036799D01*
X119425162Y-139664833D01*
X119425000Y-139664441D01*
X119425000Y-136675816D01*
X119425162Y-136489833D01*
X119283117Y-136146057D01*
X119020327Y-135882808D01*
X118676799Y-135740162D01*
X118304833Y-135739838D01*
X117961057Y-135881883D01*
X117697808Y-136144673D01*
X117555162Y-136488201D01*
X117554838Y-136860167D01*
X110273847Y-136860167D01*
X110191090Y-136731559D01*
X109978890Y-136586569D01*
X109727000Y-136535560D01*
X108203000Y-136535560D01*
X107967683Y-136579838D01*
X107751559Y-136718910D01*
X107606569Y-136931110D01*
X107555560Y-137183000D01*
X104555000Y-137183000D01*
X104555000Y-130583991D01*
X105194735Y-130583991D01*
X105427932Y-131148371D01*
X105859357Y-131580551D01*
X106423330Y-131814733D01*
X107033991Y-131815265D01*
X107598371Y-131582068D01*
X108030551Y-131150643D01*
X108264733Y-130586670D01*
X108265265Y-129976009D01*
X108032068Y-129411629D01*
X107600643Y-128979449D01*
X107342763Y-128872368D01*
X106730000Y-128259605D01*
X106117324Y-128872281D01*
X105861629Y-128977932D01*
X105429449Y-129409357D01*
X105195267Y-129973330D01*
X105194735Y-130583991D01*
X104555000Y-130583991D01*
X104555000Y-128961446D01*
X104705317Y-128933162D01*
X104921441Y-128794090D01*
X105066431Y-128581890D01*
X105117440Y-128330000D01*
X105117440Y-127839336D01*
X105183542Y-127839336D01*
X105209161Y-128449460D01*
X105393357Y-128894148D01*
X105649841Y-128980554D01*
X106550395Y-128080000D01*
X106909605Y-128080000D01*
X107810159Y-128980554D01*
X108066643Y-128894148D01*
X108276458Y-128320664D01*
X108250839Y-127710540D01*
X108066643Y-127265852D01*
X107810159Y-127179446D01*
X106909605Y-128080000D01*
X106550395Y-128080000D01*
X105649841Y-127179446D01*
X105393357Y-127265852D01*
X105183542Y-127839336D01*
X105117440Y-127839336D01*
X105117440Y-126630000D01*
X105073162Y-126394683D01*
X104934090Y-126178559D01*
X104721890Y-126033569D01*
X104654459Y-126019914D01*
X104699147Y-125990054D01*
X105021054Y-125508285D01*
X105134093Y-124940000D01*
X105068023Y-124607845D01*
X105745434Y-123930434D01*
X105771053Y-123892092D01*
X105859357Y-123980551D01*
X106423330Y-124214733D01*
X107033991Y-124215265D01*
X107495000Y-124024780D01*
X107495000Y-124249995D01*
X107494999Y-124250000D01*
X107552471Y-124538926D01*
X107571447Y-124567326D01*
X107036670Y-124345267D01*
X106426009Y-124344735D01*
X105861629Y-124577932D01*
X105429449Y-125009357D01*
X105195267Y-125573330D01*
X105194735Y-126183991D01*
X105427932Y-126748371D01*
X105859357Y-127180551D01*
X106117237Y-127287632D01*
X106730000Y-127900395D01*
X107342676Y-127287719D01*
X107598371Y-127182068D01*
X108030551Y-126750643D01*
X108264733Y-126186670D01*
X108265265Y-125576009D01*
X108094152Y-125161884D01*
X108427639Y-125495371D01*
X108395267Y-125573330D01*
X108394735Y-126183991D01*
X108627932Y-126748371D01*
X108859182Y-126980026D01*
X108629449Y-127209357D01*
X108395267Y-127773330D01*
X108394735Y-128383991D01*
X108627932Y-128948371D01*
X108859182Y-129180026D01*
X108629449Y-129409357D01*
X108395267Y-129973330D01*
X108394735Y-130583991D01*
X108627932Y-131148371D01*
X109059357Y-131580551D01*
X109623330Y-131814733D01*
X110233991Y-131815265D01*
X110495000Y-131707418D01*
X110495000Y-132172269D01*
X110162201Y-132505067D01*
X109633991Y-132400000D01*
X109566009Y-132400000D01*
X108902053Y-132532069D01*
X108684498Y-132677435D01*
X108624090Y-132583559D01*
X108411890Y-132438569D01*
X108160000Y-132387560D01*
X105960000Y-132387560D01*
X105724683Y-132431838D01*
X105508559Y-132570910D01*
X105363569Y-132783110D01*
X105312560Y-133035000D01*
X105312560Y-135235000D01*
X105356838Y-135470317D01*
X105495910Y-135686441D01*
X105708110Y-135831431D01*
X105960000Y-135882440D01*
X108160000Y-135882440D01*
X108395317Y-135838162D01*
X108611441Y-135699090D01*
X108684311Y-135592441D01*
X108902053Y-135737931D01*
X109566009Y-135870000D01*
X109633991Y-135870000D01*
X110297947Y-135737931D01*
X110860821Y-135361830D01*
X111236922Y-134798956D01*
X111359647Y-134181974D01*
X111469673Y-134292192D01*
X111813201Y-134434838D01*
X112185167Y-134435162D01*
X112528943Y-134293117D01*
X112792192Y-134030327D01*
X112934838Y-133686799D01*
X112935162Y-133314833D01*
X112835000Y-133072422D01*
X112835000Y-132050164D01*
X112945000Y-132072440D01*
X115145000Y-132072440D01*
X115380317Y-132028162D01*
X115596441Y-131889090D01*
X115741431Y-131676890D01*
X115792440Y-131425000D01*
X115792440Y-129225000D01*
X115748162Y-128989683D01*
X115609090Y-128773559D01*
X115396890Y-128628569D01*
X115145000Y-128577560D01*
X112945000Y-128577560D01*
X112835000Y-128598258D01*
X112835000Y-125500000D01*
X112771439Y-125180459D01*
X112590434Y-124909566D01*
X111642535Y-123961667D01*
X111543117Y-123721057D01*
X111467144Y-123644952D01*
X111563201Y-123684838D01*
X111935167Y-123685162D01*
X112278943Y-123543117D01*
X112438306Y-123384031D01*
X112442069Y-123402947D01*
X112818170Y-123965821D01*
X113381044Y-124341922D01*
X114045000Y-124473991D01*
X114708956Y-124341922D01*
X115271830Y-123965821D01*
X115647931Y-123402947D01*
X115780000Y-122738991D01*
X115780000Y-122671009D01*
X115647931Y-122007053D01*
X115271830Y-121444179D01*
X114708956Y-121068078D01*
X114045000Y-120936009D01*
X113381044Y-121068078D01*
X112818170Y-121444179D01*
X112505000Y-121912870D01*
X112505000Y-115877130D01*
X112818170Y-116345821D01*
X113381044Y-116721922D01*
X114045000Y-116853991D01*
X114708956Y-116721922D01*
X115271830Y-116345821D01*
X115374703Y-116191860D01*
X115416134Y-116253866D01*
X118591134Y-119428866D01*
X118836074Y-119592529D01*
X119125000Y-119650000D01*
X119192546Y-119650000D01*
X119229673Y-119687192D01*
X119573201Y-119829838D01*
X119945167Y-119830162D01*
X120288943Y-119688117D01*
X120552192Y-119425327D01*
X120694838Y-119081799D01*
X120695162Y-118709833D01*
X120553117Y-118366057D01*
X120290327Y-118102808D01*
X119946799Y-117960162D01*
X119574833Y-117959838D01*
X119350332Y-118052600D01*
X118102494Y-116804762D01*
X118518956Y-116721922D01*
X119081830Y-116345821D01*
X119457931Y-115782947D01*
X119590000Y-115118991D01*
X119590000Y-115051009D01*
X119494887Y-114572845D01*
X120062732Y-114005000D01*
X121340959Y-114005000D01*
X121285302Y-114042189D01*
X120974233Y-114507736D01*
X120865000Y-115056887D01*
X120865000Y-115113113D01*
X120974233Y-115662264D01*
X121285302Y-116127811D01*
X121545000Y-116301336D01*
X121545000Y-121194735D01*
X121101629Y-121377932D01*
X120669449Y-121809357D01*
X120435267Y-122373330D01*
X120434735Y-122983991D01*
X120667932Y-123548371D01*
X120787680Y-123668329D01*
X120716134Y-123716134D01*
X120716132Y-123716137D01*
X120250000Y-124182268D01*
X119460046Y-123392314D01*
X119590000Y-122738991D01*
X119590000Y-122671009D01*
X119457931Y-122007053D01*
X119081830Y-121444179D01*
X118518956Y-121068078D01*
X117855000Y-120936009D01*
X117191044Y-121068078D01*
X116628170Y-121444179D01*
X116252069Y-122007053D01*
X116120000Y-122671009D01*
X116120000Y-122738991D01*
X116252069Y-123402947D01*
X116628170Y-123965821D01*
X117191044Y-124341922D01*
X117855000Y-124473991D01*
X118314799Y-124382531D01*
X119245000Y-125312732D01*
X119245000Y-128654608D01*
X119206890Y-128628569D01*
X118955000Y-128577560D01*
X116755000Y-128577560D01*
X116519683Y-128621838D01*
X116303559Y-128760910D01*
X116158569Y-128973110D01*
X116107560Y-129225000D01*
X116107560Y-131425000D01*
X116151838Y-131660317D01*
X116290910Y-131876441D01*
X116503110Y-132021431D01*
X116755000Y-132072440D01*
X118955000Y-132072440D01*
X119190317Y-132028162D01*
X119245000Y-131992974D01*
X119245000Y-132249995D01*
X119244999Y-132250000D01*
X119302471Y-132538926D01*
X119466134Y-132783866D01*
X120578503Y-133896234D01*
X120531009Y-134135000D01*
X120663078Y-134798956D01*
X121039179Y-135361830D01*
X121602053Y-135737931D01*
X122266009Y-135870000D01*
X122333991Y-135870000D01*
X122997947Y-135737931D01*
X123215502Y-135592565D01*
X123275910Y-135686441D01*
X123488110Y-135831431D01*
X123740000Y-135882440D01*
X125940000Y-135882440D01*
X126175317Y-135838162D01*
X126391441Y-135699090D01*
X126536431Y-135486890D01*
X126587440Y-135235000D01*
X126587440Y-133035000D01*
X126543162Y-132799683D01*
X126404090Y-132583559D01*
X126191890Y-132438569D01*
X125940000Y-132387560D01*
X123740000Y-132387560D01*
X123504683Y-132431838D01*
X123288559Y-132570910D01*
X123215689Y-132677559D01*
X122997947Y-132532069D01*
X122333991Y-132400000D01*
X122266009Y-132400000D01*
X121602053Y-132532069D01*
X121450839Y-132633107D01*
X120755000Y-131937268D01*
X120755000Y-131235591D01*
X121099357Y-131580551D01*
X121663330Y-131814733D01*
X122273991Y-131815265D01*
X122838371Y-131582068D01*
X123270551Y-131150643D01*
X123504733Y-130586670D01*
X123505265Y-129976009D01*
X123272068Y-129411629D01*
X122840643Y-128979449D01*
X122582763Y-128872368D01*
X121970000Y-128259605D01*
X121955858Y-128273748D01*
X121776253Y-128094143D01*
X121790395Y-128080000D01*
X122149605Y-128080000D01*
X123050159Y-128980554D01*
X123306643Y-128894148D01*
X123516458Y-128320664D01*
X123496248Y-127839336D01*
X123623542Y-127839336D01*
X123649161Y-128449460D01*
X123833357Y-128894148D01*
X124089841Y-128980554D01*
X124990395Y-128080000D01*
X124089841Y-127179446D01*
X123833357Y-127265852D01*
X123623542Y-127839336D01*
X123496248Y-127839336D01*
X123490839Y-127710540D01*
X123306643Y-127265852D01*
X123050159Y-127179446D01*
X122149605Y-128080000D01*
X121790395Y-128080000D01*
X121776253Y-128065858D01*
X121955858Y-127886253D01*
X121970000Y-127900395D01*
X122582676Y-127287719D01*
X122838371Y-127182068D01*
X123270551Y-126750643D01*
X123504733Y-126186670D01*
X123505265Y-125576009D01*
X123272068Y-125011629D01*
X123265451Y-125005000D01*
X123599995Y-125005000D01*
X123600000Y-125005001D01*
X123888926Y-124947529D01*
X124017335Y-124861729D01*
X123869449Y-125009357D01*
X123635267Y-125573330D01*
X123634735Y-126183991D01*
X123867932Y-126748371D01*
X124299357Y-127180551D01*
X124557237Y-127287632D01*
X125170000Y-127900395D01*
X125184143Y-127886253D01*
X125363748Y-128065858D01*
X125349605Y-128080000D01*
X125363748Y-128094143D01*
X125184143Y-128273748D01*
X125170000Y-128259605D01*
X124557324Y-128872281D01*
X124301629Y-128977932D01*
X123869449Y-129409357D01*
X123635267Y-129973330D01*
X123634735Y-130583991D01*
X123867932Y-131148371D01*
X124299357Y-131580551D01*
X124863330Y-131814733D01*
X125473991Y-131815265D01*
X125773697Y-131691429D01*
X126625000Y-132542731D01*
X126625000Y-136616268D01*
X126231384Y-137009884D01*
X126178833Y-137009838D01*
X125835057Y-137151883D01*
X125571808Y-137414673D01*
X125429162Y-137758201D01*
X125428838Y-138130167D01*
X125570883Y-138473943D01*
X125729223Y-138632560D01*
X124990000Y-138632560D01*
X124754683Y-138676838D01*
X124538559Y-138815910D01*
X124393569Y-139028110D01*
X124342560Y-139280000D01*
X124342560Y-140980000D01*
X124386838Y-141215317D01*
X124525910Y-141431441D01*
X124738110Y-141576431D01*
X124990000Y-141627440D01*
X126690000Y-141627440D01*
X126925317Y-141583162D01*
X127141441Y-141444090D01*
X127286431Y-141231890D01*
X127308301Y-141123893D01*
X127613076Y-141401645D01*
X128023110Y-141571476D01*
X128253000Y-141450155D01*
X128253000Y-140257000D01*
X128507000Y-140257000D01*
X128507000Y-141450155D01*
X128736890Y-141571476D01*
X129146924Y-141401645D01*
X129575183Y-141011358D01*
X129821486Y-140486892D01*
X129700819Y-140257000D01*
X128507000Y-140257000D01*
X128253000Y-140257000D01*
X128233000Y-140257000D01*
X128233000Y-140003000D01*
X128253000Y-140003000D01*
X128253000Y-138809845D01*
X128507000Y-138809845D01*
X128507000Y-140003000D01*
X129700819Y-140003000D01*
X129821486Y-139773108D01*
X129575183Y-139248642D01*
X129146924Y-138858355D01*
X128736890Y-138688524D01*
X128507000Y-138809845D01*
X128253000Y-138809845D01*
X128023110Y-138688524D01*
X127613076Y-138858355D01*
X127310063Y-139134501D01*
X127293162Y-139044683D01*
X127154090Y-138828559D01*
X126945272Y-138685880D01*
X127156192Y-138475327D01*
X127298838Y-138131799D01*
X127298885Y-138077847D01*
X127913866Y-137462866D01*
X128077529Y-137217926D01*
X128135001Y-136929000D01*
X128135000Y-136928995D01*
X128135000Y-135070105D01*
X128200167Y-135070162D01*
X128254919Y-135047539D01*
X128499809Y-134998827D01*
X128803145Y-134796145D01*
X131216145Y-132383145D01*
X131320000Y-132227715D01*
X131320000Y-141680069D01*
X131208953Y-142238340D01*
X130932333Y-142652331D01*
X130518338Y-142928954D01*
X129960069Y-143040000D01*
X102069931Y-143040000D01*
X101511660Y-142928953D01*
X101097669Y-142652333D01*
X100821046Y-142238338D01*
X100710000Y-141680069D01*
X100710000Y-111883110D01*
X102178524Y-111883110D01*
X102299845Y-112113000D01*
X103493000Y-112113000D01*
X103493000Y-110919181D01*
X103263108Y-110798514D01*
X102738642Y-111044817D01*
X102348355Y-111473076D01*
X102178524Y-111883110D01*
X100710000Y-111883110D01*
X100710000Y-102069931D01*
X100821046Y-101511662D01*
X101097669Y-101097667D01*
X101511660Y-100821047D01*
X102069931Y-100710000D01*
X129960069Y-100710000D01*
X130518338Y-100821046D01*
M02*
