G04 #@! TF.FileFunction,Copper,L1,Top,Signal*
%FSLAX46Y46*%
G04 Gerber Fmt 4.6, Leading zero omitted, Abs format (unit mm)*
G04 Created by KiCad (PCBNEW 4.0.4+e1-6308~48~ubuntu16.04.1-stable) date Mon Jan 22 22:00:05 2018*
%MOMM*%
%LPD*%
G01*
G04 APERTURE LIST*
%ADD10C,0.100000*%
%ADD11C,1.600000*%
%ADD12O,1.600000X1.600000*%
%ADD13R,1.700000X1.700000*%
%ADD14O,1.700000X1.700000*%
%ADD15R,1.270000X0.970000*%
%ADD16R,2.200000X2.200000*%
%ADD17O,2.200000X2.200000*%
%ADD18R,1.524000X1.524000*%
%ADD19C,1.524000*%
%ADD20C,1.800000*%
%ADD21C,0.600000*%
%ADD22C,0.200000*%
%ADD23C,0.600000*%
%ADD24C,0.254000*%
G04 APERTURE END LIST*
D10*
D11*
X216535000Y-115570000D03*
D12*
X216535000Y-125730000D03*
D13*
X119820000Y-140130000D03*
D14*
X122360000Y-140130000D03*
X124900000Y-140130000D03*
X127440000Y-140130000D03*
X129980000Y-140130000D03*
X132520000Y-140130000D03*
X135060000Y-140130000D03*
X137600000Y-140130000D03*
X140140000Y-140130000D03*
X142680000Y-140130000D03*
D13*
X188570000Y-140130000D03*
D14*
X191110000Y-140130000D03*
X193650000Y-140130000D03*
X196190000Y-140130000D03*
X198730000Y-140130000D03*
X201270000Y-140130000D03*
X203810000Y-140130000D03*
X206350000Y-140130000D03*
X208890000Y-140130000D03*
X211430000Y-140130000D03*
D15*
X215900000Y-135260000D03*
X215900000Y-133980000D03*
X212090000Y-110495000D03*
X212090000Y-109215000D03*
X213360000Y-135260000D03*
X213360000Y-133980000D03*
X209550000Y-110495000D03*
X209550000Y-109215000D03*
X219710000Y-135260000D03*
X219710000Y-133980000D03*
X219710000Y-110495000D03*
X219710000Y-109215000D03*
X222250000Y-135260000D03*
X222250000Y-133980000D03*
X222250000Y-110495000D03*
X222250000Y-109215000D03*
X224790000Y-110495000D03*
X224790000Y-109215000D03*
D11*
X227965000Y-115570000D03*
D12*
X227965000Y-125730000D03*
D11*
X212110000Y-125730000D03*
X209610000Y-125730000D03*
X213360000Y-125730000D03*
X208360000Y-125730000D03*
X223540000Y-125730000D03*
X221040000Y-125730000D03*
X224790000Y-125730000D03*
X219790000Y-125730000D03*
D13*
X110250000Y-103620000D03*
D14*
X112790000Y-103620000D03*
D13*
X126280000Y-103620000D03*
D14*
X128820000Y-103620000D03*
D13*
X164560000Y-103620000D03*
D14*
X167100000Y-103620000D03*
D13*
X202840000Y-103620000D03*
D14*
X205380000Y-103620000D03*
D13*
X148530000Y-103620000D03*
D14*
X151070000Y-103620000D03*
D13*
X186810000Y-103620000D03*
D14*
X189350000Y-103620000D03*
D13*
X225090000Y-103620000D03*
D14*
X227630000Y-103620000D03*
D16*
X215900000Y-129540000D03*
D17*
X208280000Y-129540000D03*
D16*
X121920000Y-105410000D03*
D17*
X121920000Y-113030000D03*
D16*
X104140000Y-128270000D03*
D17*
X104140000Y-135890000D03*
D16*
X132588000Y-124460000D03*
D17*
X132588000Y-116840000D03*
D16*
X107696000Y-128270000D03*
D17*
X107696000Y-135890000D03*
D16*
X129032000Y-124460000D03*
D17*
X129032000Y-116840000D03*
D16*
X111252000Y-128270000D03*
D17*
X111252000Y-135890000D03*
D16*
X125476000Y-124460000D03*
D17*
X125476000Y-116840000D03*
D16*
X114808000Y-128270000D03*
D17*
X114808000Y-135890000D03*
D16*
X121920000Y-124460000D03*
D17*
X121920000Y-116840000D03*
D16*
X160655000Y-105410000D03*
D17*
X160655000Y-113030000D03*
D16*
X118364000Y-128270000D03*
D17*
X118364000Y-135890000D03*
D16*
X118364000Y-124460000D03*
D17*
X118364000Y-116840000D03*
D16*
X219710000Y-129540000D03*
D17*
X227330000Y-129540000D03*
D16*
X121920000Y-128270000D03*
D17*
X121920000Y-135890000D03*
D16*
X114808000Y-124460000D03*
D17*
X114808000Y-116840000D03*
D16*
X125476000Y-128270000D03*
D17*
X125476000Y-135890000D03*
D16*
X111252000Y-124460000D03*
D17*
X111252000Y-116840000D03*
D16*
X129032000Y-128270000D03*
D17*
X129032000Y-135890000D03*
D16*
X107696000Y-124460000D03*
D17*
X107696000Y-116840000D03*
D16*
X146812000Y-128270000D03*
D17*
X146812000Y-135890000D03*
D16*
X104140000Y-124460000D03*
D17*
X104140000Y-116840000D03*
D16*
X193675000Y-105410000D03*
D17*
X193675000Y-113030000D03*
D16*
X143256000Y-128270000D03*
D17*
X143256000Y-135890000D03*
D16*
X139700000Y-128270000D03*
D17*
X139700000Y-135890000D03*
D16*
X136144000Y-128270000D03*
D17*
X136144000Y-135890000D03*
D16*
X132588000Y-128270000D03*
D17*
X132588000Y-135890000D03*
D16*
X150368000Y-128270000D03*
D17*
X150368000Y-135890000D03*
D16*
X153924000Y-128270000D03*
D17*
X153924000Y-135890000D03*
D16*
X157480000Y-128270000D03*
D17*
X157480000Y-135890000D03*
D16*
X161036000Y-128270000D03*
D17*
X161036000Y-135890000D03*
D16*
X164592000Y-128270000D03*
D17*
X164592000Y-135890000D03*
D18*
X114935000Y-111760000D03*
D19*
X114935000Y-109220000D03*
D20*
X197460000Y-112090000D03*
X200660000Y-112090000D03*
X202860000Y-112090000D03*
X205060000Y-112090000D03*
X205060000Y-108890000D03*
X202860000Y-108890000D03*
X200660000Y-108890000D03*
X197460000Y-108890000D03*
X223850000Y-121945000D03*
X223850000Y-118745000D03*
X223850000Y-116545000D03*
X223850000Y-114345000D03*
X220650000Y-114345000D03*
X220650000Y-116545000D03*
X220650000Y-118745000D03*
X220650000Y-121945000D03*
X125705000Y-112090000D03*
X128905000Y-112090000D03*
X131105000Y-112090000D03*
X133305000Y-112090000D03*
X133305000Y-108890000D03*
X131105000Y-108890000D03*
X128905000Y-108890000D03*
X125705000Y-108890000D03*
X212420000Y-121945000D03*
X212420000Y-118745000D03*
X212420000Y-116545000D03*
X212420000Y-114345000D03*
X209220000Y-114345000D03*
X209220000Y-116545000D03*
X209220000Y-118745000D03*
X209220000Y-121945000D03*
X164440000Y-112090000D03*
X167640000Y-112090000D03*
X169840000Y-112090000D03*
X172040000Y-112090000D03*
X172040000Y-108890000D03*
X169840000Y-108890000D03*
X167640000Y-108890000D03*
X164440000Y-108890000D03*
D21*
X191008000Y-130175000D03*
X146812000Y-130175000D03*
X119888000Y-130175000D03*
X104140000Y-130175000D03*
X200660000Y-120015000D03*
X123190000Y-120015000D03*
X173355000Y-124460000D03*
X193548000Y-130810000D03*
X153924000Y-130810000D03*
X143256000Y-130810000D03*
X125476000Y-130810000D03*
X131064000Y-130810000D03*
X107950000Y-130810000D03*
X196088000Y-131445000D03*
X157480000Y-131445000D03*
X129286000Y-131445000D03*
X128905000Y-121285000D03*
X114935000Y-121285000D03*
X111760000Y-131445000D03*
X203708000Y-133350000D03*
X137668000Y-133350000D03*
X125095000Y-121920000D03*
X107950000Y-121920000D03*
X121920000Y-133350000D03*
X198628000Y-132080000D03*
X161036000Y-132080000D03*
X139700000Y-132080000D03*
X130556000Y-132080000D03*
X112776000Y-132080000D03*
X114935000Y-132080000D03*
X206248000Y-133985000D03*
X164592000Y-133985000D03*
X138684000Y-133985000D03*
X105664000Y-133985000D03*
X121920000Y-122555000D03*
X104140000Y-122555000D03*
X132715000Y-133985000D03*
X201168000Y-132715000D03*
X136144000Y-132715000D03*
X118745000Y-132715000D03*
X117475000Y-120650000D03*
X206375000Y-120650000D03*
X172085000Y-123190000D03*
X147320000Y-123190000D03*
X217805000Y-135255000D03*
X135255000Y-121920000D03*
X149860000Y-121920000D03*
X216535000Y-101600000D03*
X199136000Y-104775000D03*
X188570000Y-135890000D03*
X188468000Y-127381000D03*
X145161000Y-104775000D03*
X150876000Y-109728000D03*
X213360000Y-110490000D03*
X218440000Y-112776000D03*
X218440000Y-110490000D03*
X220980000Y-110490000D03*
X214503000Y-123952000D03*
X224790000Y-123952000D03*
X217805000Y-121285000D03*
X165735000Y-114935000D03*
X136525000Y-111252000D03*
X136525000Y-116205000D03*
X201930000Y-116205000D03*
X198120000Y-115570000D03*
X169545000Y-115570000D03*
X224155000Y-135255000D03*
X223520000Y-110490000D03*
D22*
X212110000Y-125730000D02*
X213360000Y-125730000D01*
X213360000Y-125730000D02*
X216535000Y-125730000D01*
X208360000Y-125730000D02*
X209610000Y-125730000D01*
X224790000Y-125730000D02*
X227965000Y-125730000D01*
X223540000Y-125730000D02*
X224790000Y-125730000D01*
X221040000Y-125730000D02*
X221040000Y-127060000D01*
X223520000Y-129540000D02*
X227330000Y-129540000D01*
X221040000Y-127060000D02*
X223520000Y-129540000D01*
X219790000Y-125730000D02*
X221040000Y-125730000D01*
X146812000Y-130175000D02*
X191008000Y-130175000D01*
X146812000Y-135890000D02*
X150368000Y-135890000D01*
X131445000Y-130175000D02*
X119888000Y-130175000D01*
X146050000Y-130175000D02*
X131445000Y-130175000D01*
X146812000Y-130175000D02*
X146050000Y-130175000D01*
X104140000Y-130175000D02*
X117475000Y-130175000D01*
X119888000Y-130175000D02*
X117475000Y-130175000D01*
X121920000Y-105410000D02*
X127030000Y-105410000D01*
X127030000Y-105410000D02*
X128820000Y-103620000D01*
X128820000Y-102785000D02*
X128820000Y-103620000D01*
X125705000Y-108890000D02*
X123520000Y-108890000D01*
X123020000Y-109390000D02*
X121920000Y-110490000D01*
X121920000Y-110490000D02*
X121920000Y-113030000D01*
X123520000Y-108890000D02*
X123020000Y-109390000D01*
X104140000Y-128270000D02*
X107696000Y-128270000D01*
X107696000Y-128270000D02*
X111252000Y-128270000D01*
X111252000Y-128270000D02*
X114808000Y-128270000D01*
X114808000Y-128270000D02*
X118364000Y-128270000D01*
X118364000Y-128270000D02*
X121920000Y-128270000D01*
X200660000Y-120015000D02*
X123190000Y-120015000D01*
X121920000Y-124460000D02*
X125476000Y-124460000D01*
X125476000Y-124460000D02*
X129032000Y-124460000D01*
X129032000Y-124460000D02*
X132588000Y-124460000D01*
X173355000Y-124460000D02*
X137795000Y-124460000D01*
X137795000Y-124460000D02*
X133350000Y-124460000D01*
X133350000Y-124460000D02*
X132588000Y-124460000D01*
X153924000Y-130810000D02*
X193548000Y-130810000D01*
X146050000Y-130810000D02*
X143256000Y-130810000D01*
X153924000Y-130810000D02*
X146050000Y-130810000D01*
X143256000Y-130810000D02*
X131445000Y-130810000D01*
X125476000Y-130810000D02*
X117475000Y-130810000D01*
X107950000Y-130810000D02*
X117475000Y-130810000D01*
X131445000Y-130810000D02*
X131064000Y-130810000D01*
X131064000Y-130810000D02*
X125476000Y-130810000D01*
X157480000Y-131445000D02*
X196088000Y-131445000D01*
X131210002Y-131445000D02*
X129286000Y-131445000D01*
X146050000Y-131445000D02*
X131210002Y-131445000D01*
X157480000Y-131445000D02*
X146050000Y-131445000D01*
X114935000Y-121285000D02*
X128905000Y-121285000D01*
X111760000Y-131445000D02*
X117475000Y-131445000D01*
X117475000Y-131445000D02*
X129286000Y-131445000D01*
X137668000Y-133350000D02*
X203708000Y-133350000D01*
X107950000Y-121920000D02*
X125095000Y-121920000D01*
X125095000Y-133350000D02*
X137668000Y-133350000D01*
X121920000Y-133350000D02*
X125095000Y-133350000D01*
X161036000Y-132080000D02*
X198628000Y-132080000D01*
X146050000Y-132080000D02*
X139700000Y-132080000D01*
X161036000Y-132080000D02*
X146050000Y-132080000D01*
X112776000Y-132080000D02*
X114935000Y-132080000D01*
X139700000Y-132080000D02*
X131445000Y-132080000D01*
X114935000Y-132080000D02*
X117475000Y-132080000D01*
X131445000Y-132080000D02*
X130556000Y-132080000D01*
X130556000Y-132080000D02*
X117475000Y-132080000D01*
X164592000Y-133985000D02*
X206248000Y-133985000D01*
X146050000Y-133985000D02*
X138684000Y-133985000D01*
X164592000Y-133985000D02*
X146050000Y-133985000D01*
X106934000Y-133985000D02*
X132715000Y-133985000D01*
X105664000Y-133985000D02*
X106934000Y-133985000D01*
X104140000Y-122555000D02*
X121920000Y-122555000D01*
X132715000Y-133985000D02*
X138684000Y-133985000D01*
X165310000Y-105410000D02*
X167100000Y-103620000D01*
X160655000Y-105410000D02*
X165310000Y-105410000D01*
X167100000Y-102965000D02*
X167100000Y-103620000D01*
X136144000Y-132715000D02*
X201168000Y-132715000D01*
X136144000Y-132715000D02*
X125095000Y-132715000D01*
X118745000Y-132715000D02*
X125095000Y-132715000D01*
X104140000Y-124460000D02*
X107696000Y-124460000D01*
X107696000Y-124460000D02*
X111252000Y-124460000D01*
X111252000Y-124460000D02*
X114808000Y-124460000D01*
X114808000Y-124460000D02*
X118364000Y-124460000D01*
X117475000Y-120650000D02*
X121920000Y-120650000D01*
X121920000Y-120650000D02*
X167640000Y-120650000D01*
X167640000Y-120650000D02*
X196850000Y-120650000D01*
X196850000Y-120650000D02*
X205105000Y-120650000D01*
X205105000Y-120650000D02*
X206375000Y-120650000D01*
X129032000Y-128270000D02*
X125476000Y-128270000D01*
X213360000Y-135260000D02*
X210185000Y-135255000D01*
X207645000Y-132715000D02*
X198120000Y-123190000D01*
X198120000Y-123190000D02*
X172085000Y-123190000D01*
X210185000Y-135255000D02*
X207645000Y-132715000D01*
X132588000Y-128270000D02*
X136144000Y-128270000D01*
X136144000Y-128270000D02*
X139700000Y-128270000D01*
X139700000Y-128270000D02*
X143256000Y-128270000D01*
X143256000Y-128270000D02*
X146812000Y-128270000D01*
X172085000Y-123190000D02*
X147320000Y-123190000D01*
X217805000Y-135255000D02*
X217805000Y-135260000D01*
X217805000Y-135260000D02*
X217805000Y-135255000D01*
X217805000Y-135255000D02*
X217805000Y-135260000D01*
X215900000Y-135260000D02*
X217805000Y-135260000D01*
X217805000Y-135260000D02*
X219710000Y-135260000D01*
X215900000Y-135260000D02*
X215905000Y-135255000D01*
X193675000Y-105410000D02*
X203590000Y-105410000D01*
X203590000Y-105410000D02*
X205380000Y-103620000D01*
X205380000Y-103145000D02*
X205380000Y-103620000D01*
X164592000Y-128270000D02*
X161036000Y-128270000D01*
X150368000Y-128270000D02*
X153924000Y-128270000D01*
X153924000Y-128270000D02*
X157480000Y-128270000D01*
X157480000Y-128270000D02*
X161036000Y-128270000D01*
X135255000Y-121920000D02*
X149860000Y-121920000D01*
D23*
X202840000Y-103620000D02*
X202840000Y-101600000D01*
X202840000Y-101600000D02*
X203200000Y-101600000D01*
X227965000Y-115570000D02*
X227965000Y-107315000D01*
X217170000Y-101600000D02*
X216535000Y-101600000D01*
X216535000Y-101600000D02*
X203200000Y-101600000D01*
X203200000Y-101600000D02*
X202565000Y-101600000D01*
X221615000Y-106045000D02*
X217170000Y-101600000D01*
X226695000Y-106045000D02*
X221615000Y-106045000D01*
X227965000Y-107315000D02*
X226695000Y-106045000D01*
X164560000Y-103620000D02*
X164560000Y-101600000D01*
D22*
X164560000Y-101600000D02*
X164465000Y-101600000D01*
X126280000Y-103620000D02*
X126280000Y-102955000D01*
D23*
X126280000Y-102955000D02*
X127635000Y-101600000D01*
X127635000Y-101600000D02*
X164465000Y-101600000D01*
X164465000Y-101600000D02*
X202565000Y-101600000D01*
D22*
X202565000Y-101600000D02*
X202725000Y-101600000D01*
D23*
X195580000Y-107149998D02*
X195580000Y-107061000D01*
X219710000Y-109215000D02*
X217556000Y-107061000D01*
X163576000Y-106172000D02*
X173482000Y-106172000D01*
X173482000Y-106172000D02*
X174459998Y-107149998D01*
X174459998Y-107149998D02*
X195580000Y-107149998D01*
X163576000Y-106172000D02*
X162687000Y-107061000D01*
X216921000Y-106426000D02*
X217556000Y-107061000D01*
X196215000Y-106426000D02*
X216921000Y-106426000D01*
X195580000Y-107061000D02*
X196215000Y-106426000D01*
X162433000Y-107061000D02*
X162687000Y-107061000D01*
X162687000Y-107061000D02*
X149606000Y-107061000D01*
X148530000Y-105985000D02*
X148530000Y-103620000D01*
X148530000Y-105985000D02*
X149606000Y-107061000D01*
X224790000Y-109215000D02*
X222250000Y-109215000D01*
X222250000Y-109215000D02*
X219710000Y-109215000D01*
X189350000Y-103620000D02*
X190893000Y-103620000D01*
X197104000Y-102743000D02*
X199136000Y-104775000D01*
X191770000Y-102743000D02*
X197104000Y-102743000D01*
X190893000Y-103620000D02*
X191770000Y-102743000D01*
X188570000Y-135890000D02*
X188595000Y-135890000D01*
D22*
X213355000Y-110495000D02*
X213360000Y-110490000D01*
D23*
X213355000Y-110495000D02*
X212090000Y-110495000D01*
X223850000Y-114345000D02*
X223850000Y-113360000D01*
X223350000Y-112860000D02*
X222250000Y-111760000D01*
X222250000Y-111760000D02*
X210185000Y-111760000D01*
X210185000Y-111760000D02*
X209550000Y-111125000D01*
X209550000Y-111125000D02*
X209550000Y-110495000D01*
X223850000Y-113360000D02*
X223350000Y-112860000D01*
X209220000Y-114345000D02*
X209220000Y-113741000D01*
X209220000Y-113741000D02*
X210185000Y-112776000D01*
X210185000Y-112776000D02*
X218440000Y-112776000D01*
X219710000Y-110495000D02*
X218445000Y-110495000D01*
D22*
X218445000Y-110495000D02*
X218440000Y-110490000D01*
D23*
X220985000Y-110495000D02*
X220980000Y-110490000D01*
X220985000Y-110495000D02*
X222250000Y-110495000D01*
X211920000Y-118745000D02*
X218567000Y-118745000D01*
X222504000Y-120396000D02*
X223350000Y-119550000D01*
X220218000Y-120396000D02*
X222504000Y-120396000D01*
X218567000Y-118745000D02*
X220218000Y-120396000D01*
X223350000Y-119550000D02*
X223350000Y-118745000D01*
D22*
X211920000Y-118745000D02*
X212090000Y-118745000D01*
D23*
X214503000Y-123952000D02*
X224790000Y-123952000D01*
X207518000Y-119253000D02*
X207518000Y-118247000D01*
X211836000Y-120396000D02*
X213233000Y-120396000D01*
X214376000Y-121285000D02*
X217805000Y-121285000D01*
X208661000Y-120396000D02*
X211836000Y-120396000D01*
X214122000Y-121285000D02*
X214376000Y-121285000D01*
X213233000Y-120396000D02*
X214122000Y-121285000D01*
X208661000Y-120396000D02*
X207518000Y-119253000D01*
X207518000Y-118247000D02*
X209220000Y-116545000D01*
D22*
X131105000Y-114595000D02*
X131445000Y-114935000D01*
X131445000Y-114935000D02*
X152400000Y-114935000D01*
X165735000Y-114935000D02*
X152400000Y-114935000D01*
X131105000Y-111590000D02*
X131105000Y-114595000D01*
X131105000Y-108890000D02*
X131105000Y-109515000D01*
X131105000Y-109515000D02*
X132080000Y-110490000D01*
X132080000Y-110490000D02*
X135763000Y-110490000D01*
X135763000Y-110490000D02*
X136525000Y-111252000D01*
X171450000Y-116205000D02*
X201930000Y-116205000D01*
X136525000Y-116205000D02*
X171450000Y-116205000D01*
X198120000Y-115570000D02*
X169545000Y-115570000D01*
D23*
X173990000Y-107950000D02*
X196215000Y-107950000D01*
X163068000Y-107950000D02*
X163957000Y-107061000D01*
X163957000Y-107061000D02*
X173101000Y-107061000D01*
X173101000Y-107061000D02*
X173990000Y-107950000D01*
X110250000Y-103620000D02*
X110250000Y-105170000D01*
X110250000Y-105170000D02*
X112395000Y-107315000D01*
X112395000Y-107315000D02*
X146050000Y-107315000D01*
X146050000Y-107315000D02*
X146685000Y-107950000D01*
X209550000Y-108585000D02*
X209550000Y-109215000D01*
X208915000Y-107950000D02*
X209550000Y-108585000D01*
X146685000Y-107950000D02*
X163068000Y-107950000D01*
X208280000Y-107315000D02*
X208915000Y-107950000D01*
X196850000Y-107315000D02*
X208280000Y-107315000D01*
X196215000Y-107950000D02*
X196850000Y-107315000D01*
X209550000Y-109215000D02*
X212090000Y-109215000D01*
X224790000Y-110495000D02*
X223525000Y-110495000D01*
D22*
X223525000Y-110495000D02*
X223520000Y-110490000D01*
D23*
X224155000Y-135255000D02*
X224155000Y-136525000D01*
X144380000Y-138430000D02*
X142680000Y-140130000D01*
X167005000Y-138430000D02*
X144380000Y-138430000D01*
X167640000Y-137795000D02*
X167005000Y-138430000D01*
X222885000Y-137795000D02*
X167640000Y-137795000D01*
X224155000Y-136525000D02*
X222885000Y-137795000D01*
D22*
X224155000Y-135255000D02*
X224150000Y-135260000D01*
D23*
X224150000Y-135260000D02*
X222250000Y-135260000D01*
D22*
X213360000Y-133980000D02*
X215900000Y-133980000D01*
X215900000Y-133980000D02*
X215900000Y-129540000D01*
X213355000Y-133985000D02*
X213360000Y-133980000D01*
X219710000Y-129540000D02*
X219710000Y-133980000D01*
X219710000Y-133980000D02*
X222250000Y-133980000D01*
D24*
G36*
X127277191Y-100736173D02*
X126973855Y-100938855D01*
X125790150Y-102122560D01*
X125430000Y-102122560D01*
X125194683Y-102166838D01*
X124978559Y-102305910D01*
X124833569Y-102518110D01*
X124782560Y-102770000D01*
X124782560Y-104470000D01*
X124821133Y-104675000D01*
X123667440Y-104675000D01*
X123667440Y-104310000D01*
X123623162Y-104074683D01*
X123484090Y-103858559D01*
X123271890Y-103713569D01*
X123020000Y-103662560D01*
X120820000Y-103662560D01*
X120584683Y-103706838D01*
X120368559Y-103845910D01*
X120223569Y-104058110D01*
X120172560Y-104310000D01*
X120172560Y-106380000D01*
X112782290Y-106380000D01*
X111420584Y-105018294D01*
X111551441Y-104934090D01*
X111696431Y-104721890D01*
X111718301Y-104613893D01*
X112023076Y-104891645D01*
X112433110Y-105061476D01*
X112663000Y-104940155D01*
X112663000Y-103747000D01*
X112917000Y-103747000D01*
X112917000Y-104940155D01*
X113146890Y-105061476D01*
X113556924Y-104891645D01*
X113985183Y-104501358D01*
X114231486Y-103976892D01*
X114110819Y-103747000D01*
X112917000Y-103747000D01*
X112663000Y-103747000D01*
X112643000Y-103747000D01*
X112643000Y-103493000D01*
X112663000Y-103493000D01*
X112663000Y-102299845D01*
X112917000Y-102299845D01*
X112917000Y-103493000D01*
X114110819Y-103493000D01*
X114231486Y-103263108D01*
X113985183Y-102738642D01*
X113556924Y-102348355D01*
X113146890Y-102178524D01*
X112917000Y-102299845D01*
X112663000Y-102299845D01*
X112433110Y-102178524D01*
X112023076Y-102348355D01*
X111720063Y-102624501D01*
X111703162Y-102534683D01*
X111564090Y-102318559D01*
X111351890Y-102173569D01*
X111100000Y-102122560D01*
X109400000Y-102122560D01*
X109164683Y-102166838D01*
X108948559Y-102305910D01*
X108803569Y-102518110D01*
X108752560Y-102770000D01*
X108752560Y-104470000D01*
X108796838Y-104705317D01*
X108935910Y-104921441D01*
X109148110Y-105066431D01*
X109315000Y-105100227D01*
X109315000Y-105170000D01*
X109386173Y-105527809D01*
X109588855Y-105831145D01*
X111733855Y-107976145D01*
X112037191Y-108178827D01*
X112395000Y-108250000D01*
X113894156Y-108250000D01*
X113839774Y-108304382D01*
X113954785Y-108419393D01*
X113712603Y-108488857D01*
X113525856Y-109012302D01*
X113553638Y-109567368D01*
X113712603Y-109951143D01*
X113954787Y-110020608D01*
X114755395Y-109220000D01*
X114741253Y-109205858D01*
X114920858Y-109026253D01*
X114935000Y-109040395D01*
X114949143Y-109026253D01*
X115128748Y-109205858D01*
X115114605Y-109220000D01*
X115915213Y-110020608D01*
X116157397Y-109951143D01*
X116344144Y-109427698D01*
X116316362Y-108872632D01*
X116157397Y-108488857D01*
X115915215Y-108419393D01*
X116030226Y-108304382D01*
X115975844Y-108250000D01*
X123180284Y-108250000D01*
X123000277Y-108370276D01*
X122500280Y-108870274D01*
X122500277Y-108870276D01*
X121400278Y-109970276D01*
X121400277Y-109970277D01*
X121240949Y-110208728D01*
X121185000Y-110490000D01*
X121185000Y-111440548D01*
X120693170Y-111769179D01*
X120317069Y-112332053D01*
X120185000Y-112996009D01*
X120185000Y-113063991D01*
X120317069Y-113727947D01*
X120693170Y-114290821D01*
X121256044Y-114666922D01*
X121920000Y-114798991D01*
X122583956Y-114666922D01*
X123146830Y-114290821D01*
X123522931Y-113727947D01*
X123655000Y-113063991D01*
X123655000Y-112996009D01*
X123535252Y-112393991D01*
X124169735Y-112393991D01*
X124402932Y-112958371D01*
X124834357Y-113390551D01*
X125398330Y-113624733D01*
X126008991Y-113625265D01*
X126573371Y-113392068D01*
X126795668Y-113170159D01*
X128004446Y-113170159D01*
X128090852Y-113426643D01*
X128664336Y-113636458D01*
X129274460Y-113610839D01*
X129719148Y-113426643D01*
X129805554Y-113170159D01*
X128905000Y-112269605D01*
X128004446Y-113170159D01*
X126795668Y-113170159D01*
X127005551Y-112960643D01*
X127239733Y-112396670D01*
X127240209Y-111849336D01*
X127358542Y-111849336D01*
X127384161Y-112459460D01*
X127568357Y-112904148D01*
X127824841Y-112990554D01*
X128725395Y-112090000D01*
X127824841Y-111189446D01*
X127568357Y-111275852D01*
X127358542Y-111849336D01*
X127240209Y-111849336D01*
X127240265Y-111786009D01*
X127007068Y-111221629D01*
X126795650Y-111009841D01*
X128004446Y-111009841D01*
X128905000Y-111910395D01*
X129805554Y-111009841D01*
X129719148Y-110753357D01*
X129145664Y-110543542D01*
X128535540Y-110569161D01*
X128090852Y-110753357D01*
X128004446Y-111009841D01*
X126795650Y-111009841D01*
X126575643Y-110789449D01*
X126011670Y-110555267D01*
X125401009Y-110554735D01*
X124836629Y-110787932D01*
X124404449Y-111219357D01*
X124170267Y-111783330D01*
X124169735Y-112393991D01*
X123535252Y-112393991D01*
X123522931Y-112332053D01*
X123146830Y-111769179D01*
X122655000Y-111440548D01*
X122655000Y-110794446D01*
X123539724Y-109909723D01*
X123539726Y-109909720D01*
X123824447Y-109625000D01*
X124347824Y-109625000D01*
X124402932Y-109758371D01*
X124834357Y-110190551D01*
X125398330Y-110424733D01*
X126008991Y-110425265D01*
X126573371Y-110192068D01*
X126795668Y-109970159D01*
X128004446Y-109970159D01*
X128090852Y-110226643D01*
X128664336Y-110436458D01*
X129274460Y-110410839D01*
X129719148Y-110226643D01*
X129805554Y-109970159D01*
X128905000Y-109069605D01*
X128004446Y-109970159D01*
X126795668Y-109970159D01*
X127005551Y-109760643D01*
X127239733Y-109196670D01*
X127240265Y-108586009D01*
X127101429Y-108250000D01*
X127504643Y-108250000D01*
X127358542Y-108649336D01*
X127384161Y-109259460D01*
X127568357Y-109704148D01*
X127824841Y-109790554D01*
X128725395Y-108890000D01*
X128711253Y-108875858D01*
X128890858Y-108696253D01*
X128905000Y-108710395D01*
X128919143Y-108696253D01*
X129098748Y-108875858D01*
X129084605Y-108890000D01*
X129697281Y-109502676D01*
X129802932Y-109758371D01*
X130234357Y-110190551D01*
X130798330Y-110424733D01*
X130975441Y-110424887D01*
X131105554Y-110555000D01*
X130801009Y-110554735D01*
X130236629Y-110787932D01*
X129804449Y-111219357D01*
X129697368Y-111477237D01*
X129084605Y-112090000D01*
X129697281Y-112702676D01*
X129802932Y-112958371D01*
X130234357Y-113390551D01*
X130370000Y-113446875D01*
X130370000Y-114595000D01*
X130425949Y-114876272D01*
X130585277Y-115114723D01*
X130925277Y-115454724D01*
X131163728Y-115614051D01*
X131317439Y-115644626D01*
X130985069Y-116142053D01*
X130853000Y-116806009D01*
X130853000Y-116873991D01*
X130985069Y-117537947D01*
X131361170Y-118100821D01*
X131924044Y-118476922D01*
X132588000Y-118608991D01*
X133251956Y-118476922D01*
X133814830Y-118100821D01*
X134190931Y-117537947D01*
X134323000Y-116873991D01*
X134323000Y-116806009D01*
X134190931Y-116142053D01*
X133875515Y-115670000D01*
X135737489Y-115670000D01*
X135732808Y-115674673D01*
X135590162Y-116018201D01*
X135589838Y-116390167D01*
X135731883Y-116733943D01*
X135994673Y-116997192D01*
X136338201Y-117139838D01*
X136710167Y-117140162D01*
X137053943Y-116998117D01*
X137112162Y-116940000D01*
X201342581Y-116940000D01*
X201399673Y-116997192D01*
X201743201Y-117139838D01*
X202115167Y-117140162D01*
X202458943Y-116998117D01*
X202722192Y-116735327D01*
X202864838Y-116391799D01*
X202865162Y-116019833D01*
X202723117Y-115676057D01*
X202460327Y-115412808D01*
X202116799Y-115270162D01*
X201744833Y-115269838D01*
X201401057Y-115411883D01*
X201342838Y-115470000D01*
X199055088Y-115470000D01*
X199055162Y-115384833D01*
X198913117Y-115041057D01*
X198650327Y-114777808D01*
X198306799Y-114635162D01*
X197934833Y-114634838D01*
X197591057Y-114776883D01*
X197532838Y-114835000D01*
X170132419Y-114835000D01*
X170075327Y-114777808D01*
X169731799Y-114635162D01*
X169359833Y-114634838D01*
X169016057Y-114776883D01*
X168752808Y-115039673D01*
X168610162Y-115383201D01*
X168610086Y-115470000D01*
X166522511Y-115470000D01*
X166527192Y-115465327D01*
X166669838Y-115121799D01*
X166670162Y-114749833D01*
X166528117Y-114406057D01*
X166265327Y-114142808D01*
X165921799Y-114000162D01*
X165549833Y-113999838D01*
X165206057Y-114141883D01*
X165147838Y-114200000D01*
X161942515Y-114200000D01*
X162257931Y-113727947D01*
X162390000Y-113063991D01*
X162390000Y-112996009D01*
X162270252Y-112393991D01*
X162904735Y-112393991D01*
X163137932Y-112958371D01*
X163569357Y-113390551D01*
X164133330Y-113624733D01*
X164743991Y-113625265D01*
X165308371Y-113392068D01*
X165740551Y-112960643D01*
X165974733Y-112396670D01*
X165974735Y-112393991D01*
X166104735Y-112393991D01*
X166337932Y-112958371D01*
X166769357Y-113390551D01*
X167333330Y-113624733D01*
X167943991Y-113625265D01*
X168508371Y-113392068D01*
X168740026Y-113160818D01*
X168969357Y-113390551D01*
X169533330Y-113624733D01*
X170143991Y-113625265D01*
X170708371Y-113392068D01*
X170940026Y-113160818D01*
X171169357Y-113390551D01*
X171733330Y-113624733D01*
X172343991Y-113625265D01*
X172908371Y-113392068D01*
X173305123Y-112996009D01*
X191940000Y-112996009D01*
X191940000Y-113063991D01*
X192072069Y-113727947D01*
X192448170Y-114290821D01*
X193011044Y-114666922D01*
X193675000Y-114798991D01*
X194338956Y-114666922D01*
X194901830Y-114290821D01*
X195277931Y-113727947D01*
X195410000Y-113063991D01*
X195410000Y-112996009D01*
X195290252Y-112393991D01*
X195924735Y-112393991D01*
X196157932Y-112958371D01*
X196589357Y-113390551D01*
X197153330Y-113624733D01*
X197763991Y-113625265D01*
X198328371Y-113392068D01*
X198760551Y-112960643D01*
X198994733Y-112396670D01*
X198994735Y-112393991D01*
X199124735Y-112393991D01*
X199357932Y-112958371D01*
X199789357Y-113390551D01*
X200353330Y-113624733D01*
X200963991Y-113625265D01*
X201528371Y-113392068D01*
X201760026Y-113160818D01*
X201989357Y-113390551D01*
X202553330Y-113624733D01*
X203163991Y-113625265D01*
X203728371Y-113392068D01*
X203950668Y-113170159D01*
X204159446Y-113170159D01*
X204245852Y-113426643D01*
X204819336Y-113636458D01*
X205429460Y-113610839D01*
X205874148Y-113426643D01*
X205960554Y-113170159D01*
X205060000Y-112269605D01*
X204159446Y-113170159D01*
X203950668Y-113170159D01*
X204160551Y-112960643D01*
X204267632Y-112702763D01*
X204880395Y-112090000D01*
X205239605Y-112090000D01*
X206140159Y-112990554D01*
X206396643Y-112904148D01*
X206606458Y-112330664D01*
X206580839Y-111720540D01*
X206396643Y-111275852D01*
X206140159Y-111189446D01*
X205239605Y-112090000D01*
X204880395Y-112090000D01*
X204267719Y-111477324D01*
X204162068Y-111221629D01*
X203950650Y-111009841D01*
X204159446Y-111009841D01*
X205060000Y-111910395D01*
X205960554Y-111009841D01*
X205874148Y-110753357D01*
X205300664Y-110543542D01*
X204690540Y-110569161D01*
X204245852Y-110753357D01*
X204159446Y-111009841D01*
X203950650Y-111009841D01*
X203730643Y-110789449D01*
X203166670Y-110555267D01*
X202556009Y-110554735D01*
X201991629Y-110787932D01*
X201759974Y-111019182D01*
X201530643Y-110789449D01*
X200966670Y-110555267D01*
X200356009Y-110554735D01*
X199791629Y-110787932D01*
X199359449Y-111219357D01*
X199125267Y-111783330D01*
X199124735Y-112393991D01*
X198994735Y-112393991D01*
X198995265Y-111786009D01*
X198762068Y-111221629D01*
X198330643Y-110789449D01*
X197766670Y-110555267D01*
X197156009Y-110554735D01*
X196591629Y-110787932D01*
X196159449Y-111219357D01*
X195925267Y-111783330D01*
X195924735Y-112393991D01*
X195290252Y-112393991D01*
X195277931Y-112332053D01*
X194901830Y-111769179D01*
X194338956Y-111393078D01*
X193675000Y-111261009D01*
X193011044Y-111393078D01*
X192448170Y-111769179D01*
X192072069Y-112332053D01*
X191940000Y-112996009D01*
X173305123Y-112996009D01*
X173340551Y-112960643D01*
X173574733Y-112396670D01*
X173575265Y-111786009D01*
X173342068Y-111221629D01*
X172910643Y-110789449D01*
X172346670Y-110555267D01*
X171736009Y-110554735D01*
X171171629Y-110787932D01*
X170939974Y-111019182D01*
X170710643Y-110789449D01*
X170146670Y-110555267D01*
X169536009Y-110554735D01*
X168971629Y-110787932D01*
X168739974Y-111019182D01*
X168510643Y-110789449D01*
X167946670Y-110555267D01*
X167336009Y-110554735D01*
X166771629Y-110787932D01*
X166339449Y-111219357D01*
X166105267Y-111783330D01*
X166104735Y-112393991D01*
X165974735Y-112393991D01*
X165975265Y-111786009D01*
X165742068Y-111221629D01*
X165310643Y-110789449D01*
X164746670Y-110555267D01*
X164136009Y-110554735D01*
X163571629Y-110787932D01*
X163139449Y-111219357D01*
X162905267Y-111783330D01*
X162904735Y-112393991D01*
X162270252Y-112393991D01*
X162257931Y-112332053D01*
X161881830Y-111769179D01*
X161318956Y-111393078D01*
X160655000Y-111261009D01*
X159991044Y-111393078D01*
X159428170Y-111769179D01*
X159052069Y-112332053D01*
X158920000Y-112996009D01*
X158920000Y-113063991D01*
X159052069Y-113727947D01*
X159367485Y-114200000D01*
X131840000Y-114200000D01*
X131840000Y-113447176D01*
X131973371Y-113392068D01*
X132205026Y-113160818D01*
X132434357Y-113390551D01*
X132998330Y-113624733D01*
X133608991Y-113625265D01*
X134173371Y-113392068D01*
X134605551Y-112960643D01*
X134839733Y-112396670D01*
X134840265Y-111786009D01*
X134608461Y-111225000D01*
X135458554Y-111225000D01*
X135589908Y-111356355D01*
X135589838Y-111437167D01*
X135731883Y-111780943D01*
X135994673Y-112044192D01*
X136338201Y-112186838D01*
X136710167Y-112187162D01*
X137053943Y-112045117D01*
X137317192Y-111782327D01*
X137459838Y-111438799D01*
X137460162Y-111066833D01*
X137318117Y-110723057D01*
X137055327Y-110459808D01*
X136711799Y-110317162D01*
X136629537Y-110317090D01*
X136282723Y-109970277D01*
X136044272Y-109810949D01*
X135763000Y-109755000D01*
X134607894Y-109755000D01*
X134839733Y-109196670D01*
X134840265Y-108586009D01*
X134701429Y-108250000D01*
X145662710Y-108250000D01*
X146023855Y-108611145D01*
X146327191Y-108813827D01*
X146685000Y-108885000D01*
X162905004Y-108885000D01*
X162904735Y-109193991D01*
X163137932Y-109758371D01*
X163569357Y-110190551D01*
X164133330Y-110424733D01*
X164743991Y-110425265D01*
X165308371Y-110192068D01*
X165530668Y-109970159D01*
X166739446Y-109970159D01*
X166825852Y-110226643D01*
X167399336Y-110436458D01*
X168009460Y-110410839D01*
X168454148Y-110226643D01*
X168540554Y-109970159D01*
X167640000Y-109069605D01*
X166739446Y-109970159D01*
X165530668Y-109970159D01*
X165740551Y-109760643D01*
X165974733Y-109196670D01*
X165975265Y-108586009D01*
X165742068Y-108021629D01*
X165716484Y-107996000D01*
X166540386Y-107996000D01*
X166303357Y-108075852D01*
X166093542Y-108649336D01*
X166119161Y-109259460D01*
X166303357Y-109704148D01*
X166559841Y-109790554D01*
X167460395Y-108890000D01*
X167446253Y-108875858D01*
X167625858Y-108696253D01*
X167640000Y-108710395D01*
X167654143Y-108696253D01*
X167833748Y-108875858D01*
X167819605Y-108890000D01*
X168432281Y-109502676D01*
X168537932Y-109758371D01*
X168969357Y-110190551D01*
X169533330Y-110424733D01*
X170143991Y-110425265D01*
X170708371Y-110192068D01*
X170940026Y-109960818D01*
X171169357Y-110190551D01*
X171733330Y-110424733D01*
X172343991Y-110425265D01*
X172908371Y-110192068D01*
X173340551Y-109760643D01*
X173574733Y-109196670D01*
X173575100Y-108775680D01*
X173632191Y-108813827D01*
X173990000Y-108885000D01*
X195925004Y-108885000D01*
X195924735Y-109193991D01*
X196157932Y-109758371D01*
X196589357Y-110190551D01*
X197153330Y-110424733D01*
X197763991Y-110425265D01*
X198328371Y-110192068D01*
X198550668Y-109970159D01*
X199759446Y-109970159D01*
X199845852Y-110226643D01*
X200419336Y-110436458D01*
X201029460Y-110410839D01*
X201474148Y-110226643D01*
X201560554Y-109970159D01*
X200660000Y-109069605D01*
X199759446Y-109970159D01*
X198550668Y-109970159D01*
X198760551Y-109760643D01*
X198994733Y-109196670D01*
X198995265Y-108586009D01*
X198856429Y-108250000D01*
X199259643Y-108250000D01*
X199113542Y-108649336D01*
X199139161Y-109259460D01*
X199323357Y-109704148D01*
X199579841Y-109790554D01*
X200480395Y-108890000D01*
X200466253Y-108875858D01*
X200645858Y-108696253D01*
X200660000Y-108710395D01*
X200674143Y-108696253D01*
X200853748Y-108875858D01*
X200839605Y-108890000D01*
X201452281Y-109502676D01*
X201557932Y-109758371D01*
X201989357Y-110190551D01*
X202553330Y-110424733D01*
X203163991Y-110425265D01*
X203728371Y-110192068D01*
X203960026Y-109960818D01*
X204189357Y-110190551D01*
X204753330Y-110424733D01*
X205363991Y-110425265D01*
X205928371Y-110192068D01*
X206360551Y-109760643D01*
X206594733Y-109196670D01*
X206595265Y-108586009D01*
X206456429Y-108250000D01*
X207892710Y-108250000D01*
X208285268Y-108642558D01*
X208267560Y-108730000D01*
X208267560Y-109700000D01*
X208297796Y-109860690D01*
X208267560Y-110010000D01*
X208267560Y-110980000D01*
X208311838Y-111215317D01*
X208450910Y-111431441D01*
X208663110Y-111576431D01*
X208762127Y-111596482D01*
X208888855Y-111786145D01*
X209370710Y-112268000D01*
X208767691Y-112871019D01*
X208351629Y-113042932D01*
X207919449Y-113474357D01*
X207685267Y-114038330D01*
X207684735Y-114648991D01*
X207917932Y-115213371D01*
X208149182Y-115445026D01*
X207919449Y-115674357D01*
X207685267Y-116238330D01*
X207684814Y-116757896D01*
X206856855Y-117585855D01*
X206654173Y-117889191D01*
X206583000Y-118247000D01*
X206583000Y-119253000D01*
X206654173Y-119610809D01*
X206786144Y-119808319D01*
X206561799Y-119715162D01*
X206189833Y-119714838D01*
X205846057Y-119856883D01*
X205787838Y-119915000D01*
X201595088Y-119915000D01*
X201595162Y-119829833D01*
X201453117Y-119486057D01*
X201190327Y-119222808D01*
X200846799Y-119080162D01*
X200474833Y-119079838D01*
X200131057Y-119221883D01*
X200072838Y-119280000D01*
X123777419Y-119280000D01*
X123720327Y-119222808D01*
X123376799Y-119080162D01*
X123004833Y-119079838D01*
X122661057Y-119221883D01*
X122397808Y-119484673D01*
X122255162Y-119828201D01*
X122255086Y-119915000D01*
X118062419Y-119915000D01*
X118005327Y-119857808D01*
X117661799Y-119715162D01*
X117289833Y-119714838D01*
X116946057Y-119856883D01*
X116682808Y-120119673D01*
X116540162Y-120463201D01*
X116540086Y-120550000D01*
X115522419Y-120550000D01*
X115465327Y-120492808D01*
X115121799Y-120350162D01*
X114749833Y-120349838D01*
X114406057Y-120491883D01*
X114142808Y-120754673D01*
X114000162Y-121098201D01*
X114000086Y-121185000D01*
X108537419Y-121185000D01*
X108480327Y-121127808D01*
X108136799Y-120985162D01*
X107764833Y-120984838D01*
X107421057Y-121126883D01*
X107157808Y-121389673D01*
X107015162Y-121733201D01*
X107015086Y-121820000D01*
X104727419Y-121820000D01*
X104670327Y-121762808D01*
X104326799Y-121620162D01*
X103954833Y-121619838D01*
X103611057Y-121761883D01*
X103347808Y-122024673D01*
X103205162Y-122368201D01*
X103204862Y-122712560D01*
X103040000Y-122712560D01*
X102804683Y-122756838D01*
X102588559Y-122895910D01*
X102443569Y-123108110D01*
X102392560Y-123360000D01*
X102392560Y-125560000D01*
X102436838Y-125795317D01*
X102575910Y-126011441D01*
X102788110Y-126156431D01*
X103040000Y-126207440D01*
X105240000Y-126207440D01*
X105475317Y-126163162D01*
X105691441Y-126024090D01*
X105836431Y-125811890D01*
X105887440Y-125560000D01*
X105887440Y-125195000D01*
X105948560Y-125195000D01*
X105948560Y-125560000D01*
X105992838Y-125795317D01*
X106131910Y-126011441D01*
X106344110Y-126156431D01*
X106596000Y-126207440D01*
X108796000Y-126207440D01*
X109031317Y-126163162D01*
X109247441Y-126024090D01*
X109392431Y-125811890D01*
X109443440Y-125560000D01*
X109443440Y-125195000D01*
X109504560Y-125195000D01*
X109504560Y-125560000D01*
X109548838Y-125795317D01*
X109687910Y-126011441D01*
X109900110Y-126156431D01*
X110152000Y-126207440D01*
X112352000Y-126207440D01*
X112587317Y-126163162D01*
X112803441Y-126024090D01*
X112948431Y-125811890D01*
X112999440Y-125560000D01*
X112999440Y-125195000D01*
X113060560Y-125195000D01*
X113060560Y-125560000D01*
X113104838Y-125795317D01*
X113243910Y-126011441D01*
X113456110Y-126156431D01*
X113708000Y-126207440D01*
X115908000Y-126207440D01*
X116143317Y-126163162D01*
X116359441Y-126024090D01*
X116504431Y-125811890D01*
X116555440Y-125560000D01*
X116555440Y-125195000D01*
X116616560Y-125195000D01*
X116616560Y-125560000D01*
X116660838Y-125795317D01*
X116799910Y-126011441D01*
X117012110Y-126156431D01*
X117264000Y-126207440D01*
X119464000Y-126207440D01*
X119699317Y-126163162D01*
X119915441Y-126024090D01*
X120060431Y-125811890D01*
X120111440Y-125560000D01*
X120111440Y-123360000D01*
X120098269Y-123290000D01*
X120186735Y-123290000D01*
X120172560Y-123360000D01*
X120172560Y-125560000D01*
X120216838Y-125795317D01*
X120355910Y-126011441D01*
X120568110Y-126156431D01*
X120820000Y-126207440D01*
X123020000Y-126207440D01*
X123255317Y-126163162D01*
X123471441Y-126024090D01*
X123616431Y-125811890D01*
X123667440Y-125560000D01*
X123667440Y-125195000D01*
X123728560Y-125195000D01*
X123728560Y-125560000D01*
X123772838Y-125795317D01*
X123911910Y-126011441D01*
X124124110Y-126156431D01*
X124376000Y-126207440D01*
X126576000Y-126207440D01*
X126811317Y-126163162D01*
X127027441Y-126024090D01*
X127172431Y-125811890D01*
X127223440Y-125560000D01*
X127223440Y-125195000D01*
X127284560Y-125195000D01*
X127284560Y-125560000D01*
X127328838Y-125795317D01*
X127467910Y-126011441D01*
X127680110Y-126156431D01*
X127932000Y-126207440D01*
X130132000Y-126207440D01*
X130367317Y-126163162D01*
X130583441Y-126024090D01*
X130728431Y-125811890D01*
X130779440Y-125560000D01*
X130779440Y-125195000D01*
X130840560Y-125195000D01*
X130840560Y-125560000D01*
X130884838Y-125795317D01*
X131023910Y-126011441D01*
X131236110Y-126156431D01*
X131488000Y-126207440D01*
X133688000Y-126207440D01*
X133923317Y-126163162D01*
X134139441Y-126024090D01*
X134284431Y-125811890D01*
X134335440Y-125560000D01*
X134335440Y-125195000D01*
X172767581Y-125195000D01*
X172824673Y-125252192D01*
X173168201Y-125394838D01*
X173540167Y-125395162D01*
X173883943Y-125253117D01*
X174147192Y-124990327D01*
X174289838Y-124646799D01*
X174290162Y-124274833D01*
X174148117Y-123931057D01*
X174142071Y-123925000D01*
X197815554Y-123925000D01*
X207125276Y-133234723D01*
X207125279Y-133234725D01*
X209665276Y-135774723D01*
X209784323Y-135854268D01*
X209902659Y-135933607D01*
X209903236Y-135933723D01*
X209903727Y-135934051D01*
X210043685Y-135961890D01*
X210183843Y-135989999D01*
X212130040Y-135993064D01*
X212260910Y-136196441D01*
X212473110Y-136341431D01*
X212725000Y-136392440D01*
X213995000Y-136392440D01*
X214230317Y-136348162D01*
X214446441Y-136209090D01*
X214591431Y-135996890D01*
X214629543Y-135808686D01*
X214661838Y-135980317D01*
X214800910Y-136196441D01*
X215013110Y-136341431D01*
X215265000Y-136392440D01*
X216535000Y-136392440D01*
X216770317Y-136348162D01*
X216986441Y-136209090D01*
X217131431Y-135996890D01*
X217131814Y-135995000D01*
X217222572Y-135995000D01*
X217274673Y-136047192D01*
X217618201Y-136189838D01*
X217990167Y-136190162D01*
X218333943Y-136048117D01*
X218387153Y-135995000D01*
X218481286Y-135995000D01*
X218610910Y-136196441D01*
X218823110Y-136341431D01*
X219075000Y-136392440D01*
X220345000Y-136392440D01*
X220580317Y-136348162D01*
X220796441Y-136209090D01*
X220941431Y-135996890D01*
X220979543Y-135808686D01*
X221011838Y-135980317D01*
X221150910Y-136196441D01*
X221363110Y-136341431D01*
X221615000Y-136392440D01*
X222885000Y-136392440D01*
X222983875Y-136373835D01*
X222497710Y-136860000D01*
X167640000Y-136860000D01*
X167282191Y-136931173D01*
X166978855Y-137133855D01*
X166617710Y-137495000D01*
X165303731Y-137495000D01*
X165818830Y-137150821D01*
X166194931Y-136587947D01*
X166327000Y-135923991D01*
X166327000Y-135856009D01*
X166194931Y-135192053D01*
X165879515Y-134720000D01*
X205660581Y-134720000D01*
X205717673Y-134777192D01*
X206061201Y-134919838D01*
X206433167Y-134920162D01*
X206776943Y-134778117D01*
X207040192Y-134515327D01*
X207182838Y-134171799D01*
X207183162Y-133799833D01*
X207041117Y-133456057D01*
X206778327Y-133192808D01*
X206434799Y-133050162D01*
X206062833Y-133049838D01*
X205719057Y-133191883D01*
X205660838Y-133250000D01*
X204643088Y-133250000D01*
X204643162Y-133164833D01*
X204501117Y-132821057D01*
X204238327Y-132557808D01*
X203894799Y-132415162D01*
X203522833Y-132414838D01*
X203179057Y-132556883D01*
X203120838Y-132615000D01*
X202103088Y-132615000D01*
X202103162Y-132529833D01*
X201961117Y-132186057D01*
X201698327Y-131922808D01*
X201354799Y-131780162D01*
X200982833Y-131779838D01*
X200639057Y-131921883D01*
X200580838Y-131980000D01*
X199563088Y-131980000D01*
X199563162Y-131894833D01*
X199421117Y-131551057D01*
X199158327Y-131287808D01*
X198814799Y-131145162D01*
X198442833Y-131144838D01*
X198099057Y-131286883D01*
X198040838Y-131345000D01*
X197023088Y-131345000D01*
X197023162Y-131259833D01*
X196881117Y-130916057D01*
X196618327Y-130652808D01*
X196274799Y-130510162D01*
X195902833Y-130509838D01*
X195559057Y-130651883D01*
X195500838Y-130710000D01*
X194483088Y-130710000D01*
X194483162Y-130624833D01*
X194341117Y-130281057D01*
X194078327Y-130017808D01*
X193734799Y-129875162D01*
X193362833Y-129874838D01*
X193019057Y-130016883D01*
X192960838Y-130075000D01*
X191943088Y-130075000D01*
X191943162Y-129989833D01*
X191801117Y-129646057D01*
X191538327Y-129382808D01*
X191194799Y-129240162D01*
X190822833Y-129239838D01*
X190479057Y-129381883D01*
X190420838Y-129440000D01*
X166325265Y-129440000D01*
X166339440Y-129370000D01*
X166339440Y-127170000D01*
X166295162Y-126934683D01*
X166156090Y-126718559D01*
X165943890Y-126573569D01*
X165692000Y-126522560D01*
X163492000Y-126522560D01*
X163256683Y-126566838D01*
X163040559Y-126705910D01*
X162895569Y-126918110D01*
X162844560Y-127170000D01*
X162844560Y-127535000D01*
X162783440Y-127535000D01*
X162783440Y-127170000D01*
X162739162Y-126934683D01*
X162600090Y-126718559D01*
X162387890Y-126573569D01*
X162136000Y-126522560D01*
X159936000Y-126522560D01*
X159700683Y-126566838D01*
X159484559Y-126705910D01*
X159339569Y-126918110D01*
X159288560Y-127170000D01*
X159288560Y-127535000D01*
X159227440Y-127535000D01*
X159227440Y-127170000D01*
X159183162Y-126934683D01*
X159044090Y-126718559D01*
X158831890Y-126573569D01*
X158580000Y-126522560D01*
X156380000Y-126522560D01*
X156144683Y-126566838D01*
X155928559Y-126705910D01*
X155783569Y-126918110D01*
X155732560Y-127170000D01*
X155732560Y-127535000D01*
X155671440Y-127535000D01*
X155671440Y-127170000D01*
X155627162Y-126934683D01*
X155488090Y-126718559D01*
X155275890Y-126573569D01*
X155024000Y-126522560D01*
X152824000Y-126522560D01*
X152588683Y-126566838D01*
X152372559Y-126705910D01*
X152227569Y-126918110D01*
X152176560Y-127170000D01*
X152176560Y-127535000D01*
X152115440Y-127535000D01*
X152115440Y-127170000D01*
X152071162Y-126934683D01*
X151932090Y-126718559D01*
X151719890Y-126573569D01*
X151468000Y-126522560D01*
X149268000Y-126522560D01*
X149032683Y-126566838D01*
X148816559Y-126705910D01*
X148671569Y-126918110D01*
X148620560Y-127170000D01*
X148620560Y-129370000D01*
X148633731Y-129440000D01*
X148545265Y-129440000D01*
X148559440Y-129370000D01*
X148559440Y-127170000D01*
X148515162Y-126934683D01*
X148376090Y-126718559D01*
X148163890Y-126573569D01*
X147912000Y-126522560D01*
X145712000Y-126522560D01*
X145476683Y-126566838D01*
X145260559Y-126705910D01*
X145115569Y-126918110D01*
X145064560Y-127170000D01*
X145064560Y-127535000D01*
X145003440Y-127535000D01*
X145003440Y-127170000D01*
X144959162Y-126934683D01*
X144820090Y-126718559D01*
X144607890Y-126573569D01*
X144356000Y-126522560D01*
X142156000Y-126522560D01*
X141920683Y-126566838D01*
X141704559Y-126705910D01*
X141559569Y-126918110D01*
X141508560Y-127170000D01*
X141508560Y-127535000D01*
X141447440Y-127535000D01*
X141447440Y-127170000D01*
X141403162Y-126934683D01*
X141264090Y-126718559D01*
X141051890Y-126573569D01*
X140800000Y-126522560D01*
X138600000Y-126522560D01*
X138364683Y-126566838D01*
X138148559Y-126705910D01*
X138003569Y-126918110D01*
X137952560Y-127170000D01*
X137952560Y-127535000D01*
X137891440Y-127535000D01*
X137891440Y-127170000D01*
X137847162Y-126934683D01*
X137708090Y-126718559D01*
X137495890Y-126573569D01*
X137244000Y-126522560D01*
X135044000Y-126522560D01*
X134808683Y-126566838D01*
X134592559Y-126705910D01*
X134447569Y-126918110D01*
X134396560Y-127170000D01*
X134396560Y-127535000D01*
X134335440Y-127535000D01*
X134335440Y-127170000D01*
X134291162Y-126934683D01*
X134152090Y-126718559D01*
X133939890Y-126573569D01*
X133688000Y-126522560D01*
X131488000Y-126522560D01*
X131252683Y-126566838D01*
X131036559Y-126705910D01*
X130891569Y-126918110D01*
X130840560Y-127170000D01*
X130840560Y-129370000D01*
X130853731Y-129440000D01*
X130765265Y-129440000D01*
X130779440Y-129370000D01*
X130779440Y-127170000D01*
X130735162Y-126934683D01*
X130596090Y-126718559D01*
X130383890Y-126573569D01*
X130132000Y-126522560D01*
X127932000Y-126522560D01*
X127696683Y-126566838D01*
X127480559Y-126705910D01*
X127335569Y-126918110D01*
X127284560Y-127170000D01*
X127284560Y-127535000D01*
X127223440Y-127535000D01*
X127223440Y-127170000D01*
X127179162Y-126934683D01*
X127040090Y-126718559D01*
X126827890Y-126573569D01*
X126576000Y-126522560D01*
X124376000Y-126522560D01*
X124140683Y-126566838D01*
X123924559Y-126705910D01*
X123779569Y-126918110D01*
X123728560Y-127170000D01*
X123728560Y-129370000D01*
X123741731Y-129440000D01*
X123653265Y-129440000D01*
X123667440Y-129370000D01*
X123667440Y-127170000D01*
X123623162Y-126934683D01*
X123484090Y-126718559D01*
X123271890Y-126573569D01*
X123020000Y-126522560D01*
X120820000Y-126522560D01*
X120584683Y-126566838D01*
X120368559Y-126705910D01*
X120223569Y-126918110D01*
X120172560Y-127170000D01*
X120172560Y-127535000D01*
X120111440Y-127535000D01*
X120111440Y-127170000D01*
X120067162Y-126934683D01*
X119928090Y-126718559D01*
X119715890Y-126573569D01*
X119464000Y-126522560D01*
X117264000Y-126522560D01*
X117028683Y-126566838D01*
X116812559Y-126705910D01*
X116667569Y-126918110D01*
X116616560Y-127170000D01*
X116616560Y-127535000D01*
X116555440Y-127535000D01*
X116555440Y-127170000D01*
X116511162Y-126934683D01*
X116372090Y-126718559D01*
X116159890Y-126573569D01*
X115908000Y-126522560D01*
X113708000Y-126522560D01*
X113472683Y-126566838D01*
X113256559Y-126705910D01*
X113111569Y-126918110D01*
X113060560Y-127170000D01*
X113060560Y-127535000D01*
X112999440Y-127535000D01*
X112999440Y-127170000D01*
X112955162Y-126934683D01*
X112816090Y-126718559D01*
X112603890Y-126573569D01*
X112352000Y-126522560D01*
X110152000Y-126522560D01*
X109916683Y-126566838D01*
X109700559Y-126705910D01*
X109555569Y-126918110D01*
X109504560Y-127170000D01*
X109504560Y-127535000D01*
X109443440Y-127535000D01*
X109443440Y-127170000D01*
X109399162Y-126934683D01*
X109260090Y-126718559D01*
X109047890Y-126573569D01*
X108796000Y-126522560D01*
X106596000Y-126522560D01*
X106360683Y-126566838D01*
X106144559Y-126705910D01*
X105999569Y-126918110D01*
X105948560Y-127170000D01*
X105948560Y-127535000D01*
X105887440Y-127535000D01*
X105887440Y-127170000D01*
X105843162Y-126934683D01*
X105704090Y-126718559D01*
X105491890Y-126573569D01*
X105240000Y-126522560D01*
X103040000Y-126522560D01*
X102804683Y-126566838D01*
X102588559Y-126705910D01*
X102443569Y-126918110D01*
X102392560Y-127170000D01*
X102392560Y-129370000D01*
X102436838Y-129605317D01*
X102575910Y-129821441D01*
X102788110Y-129966431D01*
X103040000Y-130017440D01*
X103205137Y-130017440D01*
X103204838Y-130360167D01*
X103346883Y-130703943D01*
X103609673Y-130967192D01*
X103953201Y-131109838D01*
X104325167Y-131110162D01*
X104668943Y-130968117D01*
X104727162Y-130910000D01*
X107014912Y-130910000D01*
X107014838Y-130995167D01*
X107156883Y-131338943D01*
X107419673Y-131602192D01*
X107763201Y-131744838D01*
X108135167Y-131745162D01*
X108478943Y-131603117D01*
X108537162Y-131545000D01*
X110824912Y-131545000D01*
X110824838Y-131630167D01*
X110966883Y-131973943D01*
X111229673Y-132237192D01*
X111573201Y-132379838D01*
X111888332Y-132380112D01*
X111982883Y-132608943D01*
X112245673Y-132872192D01*
X112589201Y-133014838D01*
X112961167Y-133015162D01*
X113304943Y-132873117D01*
X113363162Y-132815000D01*
X114347581Y-132815000D01*
X114404673Y-132872192D01*
X114748201Y-133014838D01*
X115120167Y-133015162D01*
X115463943Y-132873117D01*
X115522162Y-132815000D01*
X117809912Y-132815000D01*
X117809838Y-132900167D01*
X117951883Y-133243943D01*
X117957929Y-133250000D01*
X106251419Y-133250000D01*
X106194327Y-133192808D01*
X105850799Y-133050162D01*
X105478833Y-133049838D01*
X105135057Y-133191883D01*
X104871808Y-133454673D01*
X104729162Y-133798201D01*
X104728838Y-134170167D01*
X104759437Y-134244223D01*
X104140000Y-134121009D01*
X103476044Y-134253078D01*
X102913170Y-134629179D01*
X102537069Y-135192053D01*
X102405000Y-135856009D01*
X102405000Y-135923991D01*
X102537069Y-136587947D01*
X102913170Y-137150821D01*
X103476044Y-137526922D01*
X104140000Y-137658991D01*
X104803956Y-137526922D01*
X105366830Y-137150821D01*
X105742931Y-136587947D01*
X105875000Y-135923991D01*
X105875000Y-135856009D01*
X105742931Y-135192053D01*
X105561091Y-134919911D01*
X105849167Y-134920162D01*
X106192943Y-134778117D01*
X106251162Y-134720000D01*
X106408485Y-134720000D01*
X106093069Y-135192053D01*
X105961000Y-135856009D01*
X105961000Y-135923991D01*
X106093069Y-136587947D01*
X106469170Y-137150821D01*
X107032044Y-137526922D01*
X107696000Y-137658991D01*
X108359956Y-137526922D01*
X108922830Y-137150821D01*
X109298931Y-136587947D01*
X109431000Y-135923991D01*
X109431000Y-135856009D01*
X109298931Y-135192053D01*
X108983515Y-134720000D01*
X109964485Y-134720000D01*
X109649069Y-135192053D01*
X109517000Y-135856009D01*
X109517000Y-135923991D01*
X109649069Y-136587947D01*
X110025170Y-137150821D01*
X110588044Y-137526922D01*
X111252000Y-137658991D01*
X111915956Y-137526922D01*
X112478830Y-137150821D01*
X112854931Y-136587947D01*
X112987000Y-135923991D01*
X112987000Y-135856009D01*
X112854931Y-135192053D01*
X112539515Y-134720000D01*
X113520485Y-134720000D01*
X113205069Y-135192053D01*
X113073000Y-135856009D01*
X113073000Y-135923991D01*
X113205069Y-136587947D01*
X113581170Y-137150821D01*
X114144044Y-137526922D01*
X114808000Y-137658991D01*
X115471956Y-137526922D01*
X116034830Y-137150821D01*
X116410931Y-136587947D01*
X116543000Y-135923991D01*
X116543000Y-135856009D01*
X116410931Y-135192053D01*
X116095515Y-134720000D01*
X117076485Y-134720000D01*
X116761069Y-135192053D01*
X116629000Y-135856009D01*
X116629000Y-135923991D01*
X116761069Y-136587947D01*
X117137170Y-137150821D01*
X117700044Y-137526922D01*
X118364000Y-137658991D01*
X119027956Y-137526922D01*
X119590830Y-137150821D01*
X119966931Y-136587947D01*
X120099000Y-135923991D01*
X120099000Y-135856009D01*
X119966931Y-135192053D01*
X119651515Y-134720000D01*
X120632485Y-134720000D01*
X120317069Y-135192053D01*
X120185000Y-135856009D01*
X120185000Y-135923991D01*
X120317069Y-136587947D01*
X120693170Y-137150821D01*
X121256044Y-137526922D01*
X121920000Y-137658991D01*
X122583956Y-137526922D01*
X123146830Y-137150821D01*
X123522931Y-136587947D01*
X123655000Y-135923991D01*
X123655000Y-135856009D01*
X123522931Y-135192053D01*
X123207515Y-134720000D01*
X124188485Y-134720000D01*
X123873069Y-135192053D01*
X123741000Y-135856009D01*
X123741000Y-135923991D01*
X123873069Y-136587947D01*
X124249170Y-137150821D01*
X124812044Y-137526922D01*
X125476000Y-137658991D01*
X126139956Y-137526922D01*
X126702830Y-137150821D01*
X127078931Y-136587947D01*
X127211000Y-135923991D01*
X127211000Y-135856009D01*
X127078931Y-135192053D01*
X126763515Y-134720000D01*
X127744485Y-134720000D01*
X127429069Y-135192053D01*
X127297000Y-135856009D01*
X127297000Y-135923991D01*
X127429069Y-136587947D01*
X127805170Y-137150821D01*
X128368044Y-137526922D01*
X129032000Y-137658991D01*
X129695956Y-137526922D01*
X130258830Y-137150821D01*
X130634931Y-136587947D01*
X130767000Y-135923991D01*
X130767000Y-135856009D01*
X130634931Y-135192053D01*
X130319515Y-134720000D01*
X131300485Y-134720000D01*
X130985069Y-135192053D01*
X130853000Y-135856009D01*
X130853000Y-135923991D01*
X130985069Y-136587947D01*
X131361170Y-137150821D01*
X131924044Y-137526922D01*
X132588000Y-137658991D01*
X133251956Y-137526922D01*
X133814830Y-137150821D01*
X134190931Y-136587947D01*
X134323000Y-135923991D01*
X134323000Y-135856009D01*
X134190931Y-135192053D01*
X133875515Y-134720000D01*
X134856485Y-134720000D01*
X134541069Y-135192053D01*
X134409000Y-135856009D01*
X134409000Y-135923991D01*
X134541069Y-136587947D01*
X134917170Y-137150821D01*
X135480044Y-137526922D01*
X136144000Y-137658991D01*
X136807956Y-137526922D01*
X137370830Y-137150821D01*
X137746931Y-136587947D01*
X137879000Y-135923991D01*
X137879000Y-135856009D01*
X137746931Y-135192053D01*
X137431515Y-134720000D01*
X138096581Y-134720000D01*
X138153673Y-134777192D01*
X138326358Y-134848898D01*
X138097069Y-135192053D01*
X137965000Y-135856009D01*
X137965000Y-135923991D01*
X138097069Y-136587947D01*
X138473170Y-137150821D01*
X139036044Y-137526922D01*
X139700000Y-137658991D01*
X140363956Y-137526922D01*
X140926830Y-137150821D01*
X141302931Y-136587947D01*
X141435000Y-135923991D01*
X141435000Y-135856009D01*
X141302931Y-135192053D01*
X140987515Y-134720000D01*
X141968485Y-134720000D01*
X141653069Y-135192053D01*
X141521000Y-135856009D01*
X141521000Y-135923991D01*
X141653069Y-136587947D01*
X142029170Y-137150821D01*
X142592044Y-137526922D01*
X143256000Y-137658991D01*
X143919956Y-137526922D01*
X144482830Y-137150821D01*
X144858931Y-136587947D01*
X144991000Y-135923991D01*
X144991000Y-135856009D01*
X144858931Y-135192053D01*
X144543515Y-134720000D01*
X145524485Y-134720000D01*
X145209069Y-135192053D01*
X145077000Y-135856009D01*
X145077000Y-135923991D01*
X145209069Y-136587947D01*
X145585170Y-137150821D01*
X146100269Y-137495000D01*
X144380000Y-137495000D01*
X144022191Y-137566173D01*
X143718855Y-137768855D01*
X142839981Y-138647729D01*
X142680000Y-138615907D01*
X142111715Y-138728946D01*
X141629946Y-139050853D01*
X141402298Y-139391553D01*
X141335183Y-139248642D01*
X140906924Y-138858355D01*
X140496890Y-138688524D01*
X140267000Y-138809845D01*
X140267000Y-140003000D01*
X140287000Y-140003000D01*
X140287000Y-140257000D01*
X140267000Y-140257000D01*
X140267000Y-141450155D01*
X140496890Y-141571476D01*
X140906924Y-141401645D01*
X141335183Y-141011358D01*
X141402298Y-140868447D01*
X141629946Y-141209147D01*
X142111715Y-141531054D01*
X142680000Y-141644093D01*
X143248285Y-141531054D01*
X143730054Y-141209147D01*
X144051961Y-140727378D01*
X144113947Y-140415750D01*
X187085000Y-140415750D01*
X187085000Y-141106309D01*
X187181673Y-141339698D01*
X187360301Y-141518327D01*
X187593690Y-141615000D01*
X188284250Y-141615000D01*
X188443000Y-141456250D01*
X188443000Y-140257000D01*
X187243750Y-140257000D01*
X187085000Y-140415750D01*
X144113947Y-140415750D01*
X144165000Y-140159093D01*
X144165000Y-140100907D01*
X144142831Y-139989459D01*
X144767290Y-139365000D01*
X167005000Y-139365000D01*
X167362809Y-139293827D01*
X167666145Y-139091145D01*
X168027290Y-138730000D01*
X187388482Y-138730000D01*
X187360301Y-138741673D01*
X187181673Y-138920302D01*
X187085000Y-139153691D01*
X187085000Y-139844250D01*
X187243750Y-140003000D01*
X188443000Y-140003000D01*
X188443000Y-139983000D01*
X188697000Y-139983000D01*
X188697000Y-140003000D01*
X188717000Y-140003000D01*
X188717000Y-140257000D01*
X188697000Y-140257000D01*
X188697000Y-141456250D01*
X188855750Y-141615000D01*
X189546310Y-141615000D01*
X189779699Y-141518327D01*
X189958327Y-141339698D01*
X190030597Y-141165223D01*
X190059946Y-141209147D01*
X190541715Y-141531054D01*
X191110000Y-141644093D01*
X191678285Y-141531054D01*
X192160054Y-141209147D01*
X192380000Y-140879974D01*
X192599946Y-141209147D01*
X193081715Y-141531054D01*
X193650000Y-141644093D01*
X194218285Y-141531054D01*
X194700054Y-141209147D01*
X194920000Y-140879974D01*
X195139946Y-141209147D01*
X195621715Y-141531054D01*
X196190000Y-141644093D01*
X196758285Y-141531054D01*
X197240054Y-141209147D01*
X197460000Y-140879974D01*
X197679946Y-141209147D01*
X198161715Y-141531054D01*
X198730000Y-141644093D01*
X199298285Y-141531054D01*
X199780054Y-141209147D01*
X200000000Y-140879974D01*
X200219946Y-141209147D01*
X200701715Y-141531054D01*
X201270000Y-141644093D01*
X201838285Y-141531054D01*
X202320054Y-141209147D01*
X202540000Y-140879974D01*
X202759946Y-141209147D01*
X203241715Y-141531054D01*
X203810000Y-141644093D01*
X204378285Y-141531054D01*
X204860054Y-141209147D01*
X205080000Y-140879974D01*
X205299946Y-141209147D01*
X205781715Y-141531054D01*
X206350000Y-141644093D01*
X206918285Y-141531054D01*
X207400054Y-141209147D01*
X207627702Y-140868447D01*
X207694817Y-141011358D01*
X208123076Y-141401645D01*
X208533110Y-141571476D01*
X208763000Y-141450155D01*
X208763000Y-140257000D01*
X208743000Y-140257000D01*
X208743000Y-140003000D01*
X208763000Y-140003000D01*
X208763000Y-139983000D01*
X209017000Y-139983000D01*
X209017000Y-140003000D01*
X209037000Y-140003000D01*
X209037000Y-140257000D01*
X209017000Y-140257000D01*
X209017000Y-141450155D01*
X209246890Y-141571476D01*
X209656924Y-141401645D01*
X210085183Y-141011358D01*
X210152298Y-140868447D01*
X210379946Y-141209147D01*
X210861715Y-141531054D01*
X211430000Y-141644093D01*
X211998285Y-141531054D01*
X212480054Y-141209147D01*
X212801961Y-140727378D01*
X212915000Y-140159093D01*
X212915000Y-140100907D01*
X212801961Y-139532622D01*
X212480054Y-139050853D01*
X211999862Y-138730000D01*
X222885000Y-138730000D01*
X223242809Y-138658827D01*
X223546145Y-138456145D01*
X224816145Y-137186145D01*
X225018827Y-136882809D01*
X225090000Y-136525000D01*
X225090000Y-135255816D01*
X225090162Y-135069833D01*
X224948117Y-134726057D01*
X224685327Y-134462808D01*
X224341799Y-134320162D01*
X223969833Y-134319838D01*
X223957340Y-134325000D01*
X223532440Y-134325000D01*
X223532440Y-133495000D01*
X223488162Y-133259683D01*
X223349090Y-133043559D01*
X223136890Y-132898569D01*
X222885000Y-132847560D01*
X221615000Y-132847560D01*
X221379683Y-132891838D01*
X221163559Y-133030910D01*
X221018569Y-133243110D01*
X221018186Y-133245000D01*
X220938714Y-133245000D01*
X220809090Y-133043559D01*
X220596890Y-132898569D01*
X220445000Y-132867811D01*
X220445000Y-131287440D01*
X220810000Y-131287440D01*
X221045317Y-131243162D01*
X221261441Y-131104090D01*
X221406431Y-130891890D01*
X221457440Y-130640000D01*
X221457440Y-128516886D01*
X223000277Y-130059724D01*
X223238728Y-130219051D01*
X223520000Y-130275000D01*
X225740548Y-130275000D01*
X226069179Y-130766830D01*
X226632053Y-131142931D01*
X227296009Y-131275000D01*
X227363991Y-131275000D01*
X228027947Y-131142931D01*
X228590821Y-130766830D01*
X228966922Y-130203956D01*
X229098991Y-129540000D01*
X228966922Y-128876044D01*
X228590821Y-128313170D01*
X228027947Y-127937069D01*
X227363991Y-127805000D01*
X227296009Y-127805000D01*
X226632053Y-127937069D01*
X226069179Y-128313170D01*
X225740548Y-128805000D01*
X223824447Y-128805000D01*
X221909295Y-126889849D01*
X222255824Y-126543923D01*
X222289813Y-126462069D01*
X222322757Y-126541800D01*
X222726077Y-126945824D01*
X223253309Y-127164750D01*
X223824187Y-127165248D01*
X224165188Y-127024350D01*
X224503309Y-127164750D01*
X225074187Y-127165248D01*
X225601800Y-126947243D01*
X226005824Y-126543923D01*
X226038596Y-126465000D01*
X226744629Y-126465000D01*
X226950302Y-126772811D01*
X227415849Y-127083880D01*
X227965000Y-127193113D01*
X228514151Y-127083880D01*
X228979698Y-126772811D01*
X229290767Y-126307264D01*
X229400000Y-125758113D01*
X229400000Y-125701887D01*
X229290767Y-125152736D01*
X228979698Y-124687189D01*
X228514151Y-124376120D01*
X227965000Y-124266887D01*
X227415849Y-124376120D01*
X226950302Y-124687189D01*
X226744629Y-124995000D01*
X226038976Y-124995000D01*
X226007243Y-124918200D01*
X225603923Y-124514176D01*
X225566044Y-124498447D01*
X225582192Y-124482327D01*
X225724838Y-124138799D01*
X225725162Y-123766833D01*
X225583117Y-123423057D01*
X225320327Y-123159808D01*
X224976799Y-123017162D01*
X224948704Y-123017138D01*
X225150551Y-122815643D01*
X225384733Y-122251670D01*
X225385265Y-121641009D01*
X225152068Y-121076629D01*
X224720643Y-120644449D01*
X224156670Y-120410267D01*
X223812323Y-120409967D01*
X223942210Y-120280080D01*
X224153991Y-120280265D01*
X224718371Y-120047068D01*
X225150551Y-119615643D01*
X225384733Y-119051670D01*
X225385265Y-118441009D01*
X225152068Y-117876629D01*
X224920818Y-117644974D01*
X225150551Y-117415643D01*
X225384733Y-116851670D01*
X225385265Y-116241009D01*
X225152068Y-115676629D01*
X224920818Y-115444974D01*
X225150551Y-115215643D01*
X225384733Y-114651670D01*
X225385265Y-114041009D01*
X225152068Y-113476629D01*
X224722628Y-113046438D01*
X224713827Y-113002191D01*
X224511145Y-112698855D01*
X223287727Y-111475437D01*
X223336441Y-111444090D01*
X223349586Y-111424852D01*
X223499778Y-111424983D01*
X223525000Y-111430000D01*
X223689983Y-111430000D01*
X223690910Y-111431441D01*
X223903110Y-111576431D01*
X224155000Y-111627440D01*
X225425000Y-111627440D01*
X225660317Y-111583162D01*
X225876441Y-111444090D01*
X226021431Y-111231890D01*
X226072440Y-110980000D01*
X226072440Y-110010000D01*
X226042204Y-109849310D01*
X226072440Y-109700000D01*
X226072440Y-108730000D01*
X226028162Y-108494683D01*
X225889090Y-108278559D01*
X225676890Y-108133569D01*
X225425000Y-108082560D01*
X224155000Y-108082560D01*
X223919683Y-108126838D01*
X223703559Y-108265910D01*
X223693932Y-108280000D01*
X223350017Y-108280000D01*
X223349090Y-108278559D01*
X223136890Y-108133569D01*
X222885000Y-108082560D01*
X221615000Y-108082560D01*
X221379683Y-108126838D01*
X221163559Y-108265910D01*
X221153932Y-108280000D01*
X220810017Y-108280000D01*
X220809090Y-108278559D01*
X220596890Y-108133569D01*
X220345000Y-108082560D01*
X219899850Y-108082560D01*
X217582145Y-105764855D01*
X217278809Y-105562173D01*
X216921000Y-105491000D01*
X204548446Y-105491000D01*
X204984102Y-105055344D01*
X205380000Y-105134093D01*
X205948285Y-105021054D01*
X206430054Y-104699147D01*
X206751961Y-104217378D01*
X206865000Y-103649093D01*
X206865000Y-103590907D01*
X206751961Y-103022622D01*
X206430054Y-102540853D01*
X206421294Y-102535000D01*
X216534184Y-102535000D01*
X216720167Y-102535162D01*
X216720559Y-102535000D01*
X216782710Y-102535000D01*
X220953855Y-106706145D01*
X221257191Y-106908827D01*
X221615000Y-106980000D01*
X226307710Y-106980000D01*
X227030000Y-107702290D01*
X227030000Y-114475742D01*
X226749176Y-114756077D01*
X226530250Y-115283309D01*
X226529752Y-115854187D01*
X226747757Y-116381800D01*
X227151077Y-116785824D01*
X227678309Y-117004750D01*
X228249187Y-117005248D01*
X228776800Y-116787243D01*
X229180824Y-116383923D01*
X229399750Y-115856691D01*
X229400248Y-115285813D01*
X229182243Y-114758200D01*
X228900000Y-114475464D01*
X228900000Y-107315000D01*
X228828827Y-106957191D01*
X228626145Y-106653855D01*
X227356145Y-105383855D01*
X227052809Y-105181173D01*
X226695000Y-105110000D01*
X225979540Y-105110000D01*
X226175317Y-105073162D01*
X226391441Y-104934090D01*
X226536431Y-104721890D01*
X226558301Y-104613893D01*
X226863076Y-104891645D01*
X227273110Y-105061476D01*
X227503000Y-104940155D01*
X227503000Y-103747000D01*
X227757000Y-103747000D01*
X227757000Y-104940155D01*
X227986890Y-105061476D01*
X228396924Y-104891645D01*
X228825183Y-104501358D01*
X229071486Y-103976892D01*
X228950819Y-103747000D01*
X227757000Y-103747000D01*
X227503000Y-103747000D01*
X227483000Y-103747000D01*
X227483000Y-103493000D01*
X227503000Y-103493000D01*
X227503000Y-102299845D01*
X227757000Y-102299845D01*
X227757000Y-103493000D01*
X228950819Y-103493000D01*
X229071486Y-103263108D01*
X228825183Y-102738642D01*
X228396924Y-102348355D01*
X227986890Y-102178524D01*
X227757000Y-102299845D01*
X227503000Y-102299845D01*
X227273110Y-102178524D01*
X226863076Y-102348355D01*
X226560063Y-102624501D01*
X226543162Y-102534683D01*
X226404090Y-102318559D01*
X226191890Y-102173569D01*
X225940000Y-102122560D01*
X224240000Y-102122560D01*
X224004683Y-102166838D01*
X223788559Y-102305910D01*
X223643569Y-102518110D01*
X223592560Y-102770000D01*
X223592560Y-104470000D01*
X223636838Y-104705317D01*
X223775910Y-104921441D01*
X223988110Y-105066431D01*
X224203260Y-105110000D01*
X222002290Y-105110000D01*
X217831145Y-100938855D01*
X217527809Y-100736173D01*
X217396229Y-100710000D01*
X229180069Y-100710000D01*
X229738338Y-100821046D01*
X230152333Y-101097669D01*
X230428953Y-101511660D01*
X230540000Y-102069931D01*
X230540000Y-141680069D01*
X230428953Y-142238340D01*
X230152333Y-142652331D01*
X229738338Y-142928954D01*
X229180069Y-143040000D01*
X102069931Y-143040000D01*
X101511660Y-142928953D01*
X101097669Y-142652333D01*
X100821046Y-142238338D01*
X100710000Y-141680069D01*
X100710000Y-140415750D01*
X118335000Y-140415750D01*
X118335000Y-141106309D01*
X118431673Y-141339698D01*
X118610301Y-141518327D01*
X118843690Y-141615000D01*
X119534250Y-141615000D01*
X119693000Y-141456250D01*
X119693000Y-140257000D01*
X118493750Y-140257000D01*
X118335000Y-140415750D01*
X100710000Y-140415750D01*
X100710000Y-139153691D01*
X118335000Y-139153691D01*
X118335000Y-139844250D01*
X118493750Y-140003000D01*
X119693000Y-140003000D01*
X119693000Y-138803750D01*
X119947000Y-138803750D01*
X119947000Y-140003000D01*
X119967000Y-140003000D01*
X119967000Y-140257000D01*
X119947000Y-140257000D01*
X119947000Y-141456250D01*
X120105750Y-141615000D01*
X120796310Y-141615000D01*
X121029699Y-141518327D01*
X121208327Y-141339698D01*
X121280597Y-141165223D01*
X121309946Y-141209147D01*
X121791715Y-141531054D01*
X122360000Y-141644093D01*
X122928285Y-141531054D01*
X123410054Y-141209147D01*
X123630000Y-140879974D01*
X123849946Y-141209147D01*
X124331715Y-141531054D01*
X124900000Y-141644093D01*
X125468285Y-141531054D01*
X125950054Y-141209147D01*
X126170000Y-140879974D01*
X126389946Y-141209147D01*
X126871715Y-141531054D01*
X127440000Y-141644093D01*
X128008285Y-141531054D01*
X128490054Y-141209147D01*
X128710000Y-140879974D01*
X128929946Y-141209147D01*
X129411715Y-141531054D01*
X129980000Y-141644093D01*
X130548285Y-141531054D01*
X131030054Y-141209147D01*
X131250000Y-140879974D01*
X131469946Y-141209147D01*
X131951715Y-141531054D01*
X132520000Y-141644093D01*
X133088285Y-141531054D01*
X133570054Y-141209147D01*
X133790000Y-140879974D01*
X134009946Y-141209147D01*
X134491715Y-141531054D01*
X135060000Y-141644093D01*
X135628285Y-141531054D01*
X136110054Y-141209147D01*
X136330000Y-140879974D01*
X136549946Y-141209147D01*
X137031715Y-141531054D01*
X137600000Y-141644093D01*
X138168285Y-141531054D01*
X138650054Y-141209147D01*
X138877702Y-140868447D01*
X138944817Y-141011358D01*
X139373076Y-141401645D01*
X139783110Y-141571476D01*
X140013000Y-141450155D01*
X140013000Y-140257000D01*
X139993000Y-140257000D01*
X139993000Y-140003000D01*
X140013000Y-140003000D01*
X140013000Y-138809845D01*
X139783110Y-138688524D01*
X139373076Y-138858355D01*
X138944817Y-139248642D01*
X138877702Y-139391553D01*
X138650054Y-139050853D01*
X138168285Y-138728946D01*
X137600000Y-138615907D01*
X137031715Y-138728946D01*
X136549946Y-139050853D01*
X136330000Y-139380026D01*
X136110054Y-139050853D01*
X135628285Y-138728946D01*
X135060000Y-138615907D01*
X134491715Y-138728946D01*
X134009946Y-139050853D01*
X133790000Y-139380026D01*
X133570054Y-139050853D01*
X133088285Y-138728946D01*
X132520000Y-138615907D01*
X131951715Y-138728946D01*
X131469946Y-139050853D01*
X131250000Y-139380026D01*
X131030054Y-139050853D01*
X130548285Y-138728946D01*
X129980000Y-138615907D01*
X129411715Y-138728946D01*
X128929946Y-139050853D01*
X128710000Y-139380026D01*
X128490054Y-139050853D01*
X128008285Y-138728946D01*
X127440000Y-138615907D01*
X126871715Y-138728946D01*
X126389946Y-139050853D01*
X126170000Y-139380026D01*
X125950054Y-139050853D01*
X125468285Y-138728946D01*
X124900000Y-138615907D01*
X124331715Y-138728946D01*
X123849946Y-139050853D01*
X123630000Y-139380026D01*
X123410054Y-139050853D01*
X122928285Y-138728946D01*
X122360000Y-138615907D01*
X121791715Y-138728946D01*
X121309946Y-139050853D01*
X121280597Y-139094777D01*
X121208327Y-138920302D01*
X121029699Y-138741673D01*
X120796310Y-138645000D01*
X120105750Y-138645000D01*
X119947000Y-138803750D01*
X119693000Y-138803750D01*
X119534250Y-138645000D01*
X118843690Y-138645000D01*
X118610301Y-138741673D01*
X118431673Y-138920302D01*
X118335000Y-139153691D01*
X100710000Y-139153691D01*
X100710000Y-116806009D01*
X102405000Y-116806009D01*
X102405000Y-116873991D01*
X102537069Y-117537947D01*
X102913170Y-118100821D01*
X103476044Y-118476922D01*
X104140000Y-118608991D01*
X104803956Y-118476922D01*
X105366830Y-118100821D01*
X105742931Y-117537947D01*
X105875000Y-116873991D01*
X105875000Y-116806009D01*
X105961000Y-116806009D01*
X105961000Y-116873991D01*
X106093069Y-117537947D01*
X106469170Y-118100821D01*
X107032044Y-118476922D01*
X107696000Y-118608991D01*
X108359956Y-118476922D01*
X108922830Y-118100821D01*
X109298931Y-117537947D01*
X109431000Y-116873991D01*
X109431000Y-116806009D01*
X109517000Y-116806009D01*
X109517000Y-116873991D01*
X109649069Y-117537947D01*
X110025170Y-118100821D01*
X110588044Y-118476922D01*
X111252000Y-118608991D01*
X111915956Y-118476922D01*
X112478830Y-118100821D01*
X112854931Y-117537947D01*
X112987000Y-116873991D01*
X112987000Y-116806009D01*
X113073000Y-116806009D01*
X113073000Y-116873991D01*
X113205069Y-117537947D01*
X113581170Y-118100821D01*
X114144044Y-118476922D01*
X114808000Y-118608991D01*
X115471956Y-118476922D01*
X116034830Y-118100821D01*
X116410931Y-117537947D01*
X116543000Y-116873991D01*
X116543000Y-116806009D01*
X116629000Y-116806009D01*
X116629000Y-116873991D01*
X116761069Y-117537947D01*
X117137170Y-118100821D01*
X117700044Y-118476922D01*
X118364000Y-118608991D01*
X119027956Y-118476922D01*
X119590830Y-118100821D01*
X119966931Y-117537947D01*
X120099000Y-116873991D01*
X120099000Y-116806009D01*
X120185000Y-116806009D01*
X120185000Y-116873991D01*
X120317069Y-117537947D01*
X120693170Y-118100821D01*
X121256044Y-118476922D01*
X121920000Y-118608991D01*
X122583956Y-118476922D01*
X123146830Y-118100821D01*
X123522931Y-117537947D01*
X123655000Y-116873991D01*
X123655000Y-116806009D01*
X123741000Y-116806009D01*
X123741000Y-116873991D01*
X123873069Y-117537947D01*
X124249170Y-118100821D01*
X124812044Y-118476922D01*
X125476000Y-118608991D01*
X126139956Y-118476922D01*
X126702830Y-118100821D01*
X127078931Y-117537947D01*
X127211000Y-116873991D01*
X127211000Y-116806009D01*
X127297000Y-116806009D01*
X127297000Y-116873991D01*
X127429069Y-117537947D01*
X127805170Y-118100821D01*
X128368044Y-118476922D01*
X129032000Y-118608991D01*
X129695956Y-118476922D01*
X130258830Y-118100821D01*
X130634931Y-117537947D01*
X130767000Y-116873991D01*
X130767000Y-116806009D01*
X130634931Y-116142053D01*
X130258830Y-115579179D01*
X129695956Y-115203078D01*
X129032000Y-115071009D01*
X128368044Y-115203078D01*
X127805170Y-115579179D01*
X127429069Y-116142053D01*
X127297000Y-116806009D01*
X127211000Y-116806009D01*
X127078931Y-116142053D01*
X126702830Y-115579179D01*
X126139956Y-115203078D01*
X125476000Y-115071009D01*
X124812044Y-115203078D01*
X124249170Y-115579179D01*
X123873069Y-116142053D01*
X123741000Y-116806009D01*
X123655000Y-116806009D01*
X123522931Y-116142053D01*
X123146830Y-115579179D01*
X122583956Y-115203078D01*
X121920000Y-115071009D01*
X121256044Y-115203078D01*
X120693170Y-115579179D01*
X120317069Y-116142053D01*
X120185000Y-116806009D01*
X120099000Y-116806009D01*
X119966931Y-116142053D01*
X119590830Y-115579179D01*
X119027956Y-115203078D01*
X118364000Y-115071009D01*
X117700044Y-115203078D01*
X117137170Y-115579179D01*
X116761069Y-116142053D01*
X116629000Y-116806009D01*
X116543000Y-116806009D01*
X116410931Y-116142053D01*
X116034830Y-115579179D01*
X115471956Y-115203078D01*
X114808000Y-115071009D01*
X114144044Y-115203078D01*
X113581170Y-115579179D01*
X113205069Y-116142053D01*
X113073000Y-116806009D01*
X112987000Y-116806009D01*
X112854931Y-116142053D01*
X112478830Y-115579179D01*
X111915956Y-115203078D01*
X111252000Y-115071009D01*
X110588044Y-115203078D01*
X110025170Y-115579179D01*
X109649069Y-116142053D01*
X109517000Y-116806009D01*
X109431000Y-116806009D01*
X109298931Y-116142053D01*
X108922830Y-115579179D01*
X108359956Y-115203078D01*
X107696000Y-115071009D01*
X107032044Y-115203078D01*
X106469170Y-115579179D01*
X106093069Y-116142053D01*
X105961000Y-116806009D01*
X105875000Y-116806009D01*
X105742931Y-116142053D01*
X105366830Y-115579179D01*
X104803956Y-115203078D01*
X104140000Y-115071009D01*
X103476044Y-115203078D01*
X102913170Y-115579179D01*
X102537069Y-116142053D01*
X102405000Y-116806009D01*
X100710000Y-116806009D01*
X100710000Y-110998000D01*
X113525560Y-110998000D01*
X113525560Y-112522000D01*
X113569838Y-112757317D01*
X113708910Y-112973441D01*
X113921110Y-113118431D01*
X114173000Y-113169440D01*
X115697000Y-113169440D01*
X115932317Y-113125162D01*
X116148441Y-112986090D01*
X116293431Y-112773890D01*
X116344440Y-112522000D01*
X116344440Y-110998000D01*
X116300162Y-110762683D01*
X116161090Y-110546559D01*
X115948890Y-110401569D01*
X115697000Y-110350560D01*
X115692484Y-110350560D01*
X115735608Y-110200213D01*
X114935000Y-109399605D01*
X114134392Y-110200213D01*
X114177516Y-110350560D01*
X114173000Y-110350560D01*
X113937683Y-110394838D01*
X113721559Y-110533910D01*
X113576569Y-110746110D01*
X113525560Y-110998000D01*
X100710000Y-110998000D01*
X100710000Y-102069931D01*
X100821046Y-101511662D01*
X101097669Y-101097667D01*
X101511660Y-100821047D01*
X102069931Y-100710000D01*
X127408771Y-100710000D01*
X127277191Y-100736173D01*
X127277191Y-100736173D01*
G37*
X127277191Y-100736173D02*
X126973855Y-100938855D01*
X125790150Y-102122560D01*
X125430000Y-102122560D01*
X125194683Y-102166838D01*
X124978559Y-102305910D01*
X124833569Y-102518110D01*
X124782560Y-102770000D01*
X124782560Y-104470000D01*
X124821133Y-104675000D01*
X123667440Y-104675000D01*
X123667440Y-104310000D01*
X123623162Y-104074683D01*
X123484090Y-103858559D01*
X123271890Y-103713569D01*
X123020000Y-103662560D01*
X120820000Y-103662560D01*
X120584683Y-103706838D01*
X120368559Y-103845910D01*
X120223569Y-104058110D01*
X120172560Y-104310000D01*
X120172560Y-106380000D01*
X112782290Y-106380000D01*
X111420584Y-105018294D01*
X111551441Y-104934090D01*
X111696431Y-104721890D01*
X111718301Y-104613893D01*
X112023076Y-104891645D01*
X112433110Y-105061476D01*
X112663000Y-104940155D01*
X112663000Y-103747000D01*
X112917000Y-103747000D01*
X112917000Y-104940155D01*
X113146890Y-105061476D01*
X113556924Y-104891645D01*
X113985183Y-104501358D01*
X114231486Y-103976892D01*
X114110819Y-103747000D01*
X112917000Y-103747000D01*
X112663000Y-103747000D01*
X112643000Y-103747000D01*
X112643000Y-103493000D01*
X112663000Y-103493000D01*
X112663000Y-102299845D01*
X112917000Y-102299845D01*
X112917000Y-103493000D01*
X114110819Y-103493000D01*
X114231486Y-103263108D01*
X113985183Y-102738642D01*
X113556924Y-102348355D01*
X113146890Y-102178524D01*
X112917000Y-102299845D01*
X112663000Y-102299845D01*
X112433110Y-102178524D01*
X112023076Y-102348355D01*
X111720063Y-102624501D01*
X111703162Y-102534683D01*
X111564090Y-102318559D01*
X111351890Y-102173569D01*
X111100000Y-102122560D01*
X109400000Y-102122560D01*
X109164683Y-102166838D01*
X108948559Y-102305910D01*
X108803569Y-102518110D01*
X108752560Y-102770000D01*
X108752560Y-104470000D01*
X108796838Y-104705317D01*
X108935910Y-104921441D01*
X109148110Y-105066431D01*
X109315000Y-105100227D01*
X109315000Y-105170000D01*
X109386173Y-105527809D01*
X109588855Y-105831145D01*
X111733855Y-107976145D01*
X112037191Y-108178827D01*
X112395000Y-108250000D01*
X113894156Y-108250000D01*
X113839774Y-108304382D01*
X113954785Y-108419393D01*
X113712603Y-108488857D01*
X113525856Y-109012302D01*
X113553638Y-109567368D01*
X113712603Y-109951143D01*
X113954787Y-110020608D01*
X114755395Y-109220000D01*
X114741253Y-109205858D01*
X114920858Y-109026253D01*
X114935000Y-109040395D01*
X114949143Y-109026253D01*
X115128748Y-109205858D01*
X115114605Y-109220000D01*
X115915213Y-110020608D01*
X116157397Y-109951143D01*
X116344144Y-109427698D01*
X116316362Y-108872632D01*
X116157397Y-108488857D01*
X115915215Y-108419393D01*
X116030226Y-108304382D01*
X115975844Y-108250000D01*
X123180284Y-108250000D01*
X123000277Y-108370276D01*
X122500280Y-108870274D01*
X122500277Y-108870276D01*
X121400278Y-109970276D01*
X121400277Y-109970277D01*
X121240949Y-110208728D01*
X121185000Y-110490000D01*
X121185000Y-111440548D01*
X120693170Y-111769179D01*
X120317069Y-112332053D01*
X120185000Y-112996009D01*
X120185000Y-113063991D01*
X120317069Y-113727947D01*
X120693170Y-114290821D01*
X121256044Y-114666922D01*
X121920000Y-114798991D01*
X122583956Y-114666922D01*
X123146830Y-114290821D01*
X123522931Y-113727947D01*
X123655000Y-113063991D01*
X123655000Y-112996009D01*
X123535252Y-112393991D01*
X124169735Y-112393991D01*
X124402932Y-112958371D01*
X124834357Y-113390551D01*
X125398330Y-113624733D01*
X126008991Y-113625265D01*
X126573371Y-113392068D01*
X126795668Y-113170159D01*
X128004446Y-113170159D01*
X128090852Y-113426643D01*
X128664336Y-113636458D01*
X129274460Y-113610839D01*
X129719148Y-113426643D01*
X129805554Y-113170159D01*
X128905000Y-112269605D01*
X128004446Y-113170159D01*
X126795668Y-113170159D01*
X127005551Y-112960643D01*
X127239733Y-112396670D01*
X127240209Y-111849336D01*
X127358542Y-111849336D01*
X127384161Y-112459460D01*
X127568357Y-112904148D01*
X127824841Y-112990554D01*
X128725395Y-112090000D01*
X127824841Y-111189446D01*
X127568357Y-111275852D01*
X127358542Y-111849336D01*
X127240209Y-111849336D01*
X127240265Y-111786009D01*
X127007068Y-111221629D01*
X126795650Y-111009841D01*
X128004446Y-111009841D01*
X128905000Y-111910395D01*
X129805554Y-111009841D01*
X129719148Y-110753357D01*
X129145664Y-110543542D01*
X128535540Y-110569161D01*
X128090852Y-110753357D01*
X128004446Y-111009841D01*
X126795650Y-111009841D01*
X126575643Y-110789449D01*
X126011670Y-110555267D01*
X125401009Y-110554735D01*
X124836629Y-110787932D01*
X124404449Y-111219357D01*
X124170267Y-111783330D01*
X124169735Y-112393991D01*
X123535252Y-112393991D01*
X123522931Y-112332053D01*
X123146830Y-111769179D01*
X122655000Y-111440548D01*
X122655000Y-110794446D01*
X123539724Y-109909723D01*
X123539726Y-109909720D01*
X123824447Y-109625000D01*
X124347824Y-109625000D01*
X124402932Y-109758371D01*
X124834357Y-110190551D01*
X125398330Y-110424733D01*
X126008991Y-110425265D01*
X126573371Y-110192068D01*
X126795668Y-109970159D01*
X128004446Y-109970159D01*
X128090852Y-110226643D01*
X128664336Y-110436458D01*
X129274460Y-110410839D01*
X129719148Y-110226643D01*
X129805554Y-109970159D01*
X128905000Y-109069605D01*
X128004446Y-109970159D01*
X126795668Y-109970159D01*
X127005551Y-109760643D01*
X127239733Y-109196670D01*
X127240265Y-108586009D01*
X127101429Y-108250000D01*
X127504643Y-108250000D01*
X127358542Y-108649336D01*
X127384161Y-109259460D01*
X127568357Y-109704148D01*
X127824841Y-109790554D01*
X128725395Y-108890000D01*
X128711253Y-108875858D01*
X128890858Y-108696253D01*
X128905000Y-108710395D01*
X128919143Y-108696253D01*
X129098748Y-108875858D01*
X129084605Y-108890000D01*
X129697281Y-109502676D01*
X129802932Y-109758371D01*
X130234357Y-110190551D01*
X130798330Y-110424733D01*
X130975441Y-110424887D01*
X131105554Y-110555000D01*
X130801009Y-110554735D01*
X130236629Y-110787932D01*
X129804449Y-111219357D01*
X129697368Y-111477237D01*
X129084605Y-112090000D01*
X129697281Y-112702676D01*
X129802932Y-112958371D01*
X130234357Y-113390551D01*
X130370000Y-113446875D01*
X130370000Y-114595000D01*
X130425949Y-114876272D01*
X130585277Y-115114723D01*
X130925277Y-115454724D01*
X131163728Y-115614051D01*
X131317439Y-115644626D01*
X130985069Y-116142053D01*
X130853000Y-116806009D01*
X130853000Y-116873991D01*
X130985069Y-117537947D01*
X131361170Y-118100821D01*
X131924044Y-118476922D01*
X132588000Y-118608991D01*
X133251956Y-118476922D01*
X133814830Y-118100821D01*
X134190931Y-117537947D01*
X134323000Y-116873991D01*
X134323000Y-116806009D01*
X134190931Y-116142053D01*
X133875515Y-115670000D01*
X135737489Y-115670000D01*
X135732808Y-115674673D01*
X135590162Y-116018201D01*
X135589838Y-116390167D01*
X135731883Y-116733943D01*
X135994673Y-116997192D01*
X136338201Y-117139838D01*
X136710167Y-117140162D01*
X137053943Y-116998117D01*
X137112162Y-116940000D01*
X201342581Y-116940000D01*
X201399673Y-116997192D01*
X201743201Y-117139838D01*
X202115167Y-117140162D01*
X202458943Y-116998117D01*
X202722192Y-116735327D01*
X202864838Y-116391799D01*
X202865162Y-116019833D01*
X202723117Y-115676057D01*
X202460327Y-115412808D01*
X202116799Y-115270162D01*
X201744833Y-115269838D01*
X201401057Y-115411883D01*
X201342838Y-115470000D01*
X199055088Y-115470000D01*
X199055162Y-115384833D01*
X198913117Y-115041057D01*
X198650327Y-114777808D01*
X198306799Y-114635162D01*
X197934833Y-114634838D01*
X197591057Y-114776883D01*
X197532838Y-114835000D01*
X170132419Y-114835000D01*
X170075327Y-114777808D01*
X169731799Y-114635162D01*
X169359833Y-114634838D01*
X169016057Y-114776883D01*
X168752808Y-115039673D01*
X168610162Y-115383201D01*
X168610086Y-115470000D01*
X166522511Y-115470000D01*
X166527192Y-115465327D01*
X166669838Y-115121799D01*
X166670162Y-114749833D01*
X166528117Y-114406057D01*
X166265327Y-114142808D01*
X165921799Y-114000162D01*
X165549833Y-113999838D01*
X165206057Y-114141883D01*
X165147838Y-114200000D01*
X161942515Y-114200000D01*
X162257931Y-113727947D01*
X162390000Y-113063991D01*
X162390000Y-112996009D01*
X162270252Y-112393991D01*
X162904735Y-112393991D01*
X163137932Y-112958371D01*
X163569357Y-113390551D01*
X164133330Y-113624733D01*
X164743991Y-113625265D01*
X165308371Y-113392068D01*
X165740551Y-112960643D01*
X165974733Y-112396670D01*
X165974735Y-112393991D01*
X166104735Y-112393991D01*
X166337932Y-112958371D01*
X166769357Y-113390551D01*
X167333330Y-113624733D01*
X167943991Y-113625265D01*
X168508371Y-113392068D01*
X168740026Y-113160818D01*
X168969357Y-113390551D01*
X169533330Y-113624733D01*
X170143991Y-113625265D01*
X170708371Y-113392068D01*
X170940026Y-113160818D01*
X171169357Y-113390551D01*
X171733330Y-113624733D01*
X172343991Y-113625265D01*
X172908371Y-113392068D01*
X173305123Y-112996009D01*
X191940000Y-112996009D01*
X191940000Y-113063991D01*
X192072069Y-113727947D01*
X192448170Y-114290821D01*
X193011044Y-114666922D01*
X193675000Y-114798991D01*
X194338956Y-114666922D01*
X194901830Y-114290821D01*
X195277931Y-113727947D01*
X195410000Y-113063991D01*
X195410000Y-112996009D01*
X195290252Y-112393991D01*
X195924735Y-112393991D01*
X196157932Y-112958371D01*
X196589357Y-113390551D01*
X197153330Y-113624733D01*
X197763991Y-113625265D01*
X198328371Y-113392068D01*
X198760551Y-112960643D01*
X198994733Y-112396670D01*
X198994735Y-112393991D01*
X199124735Y-112393991D01*
X199357932Y-112958371D01*
X199789357Y-113390551D01*
X200353330Y-113624733D01*
X200963991Y-113625265D01*
X201528371Y-113392068D01*
X201760026Y-113160818D01*
X201989357Y-113390551D01*
X202553330Y-113624733D01*
X203163991Y-113625265D01*
X203728371Y-113392068D01*
X203950668Y-113170159D01*
X204159446Y-113170159D01*
X204245852Y-113426643D01*
X204819336Y-113636458D01*
X205429460Y-113610839D01*
X205874148Y-113426643D01*
X205960554Y-113170159D01*
X205060000Y-112269605D01*
X204159446Y-113170159D01*
X203950668Y-113170159D01*
X204160551Y-112960643D01*
X204267632Y-112702763D01*
X204880395Y-112090000D01*
X205239605Y-112090000D01*
X206140159Y-112990554D01*
X206396643Y-112904148D01*
X206606458Y-112330664D01*
X206580839Y-111720540D01*
X206396643Y-111275852D01*
X206140159Y-111189446D01*
X205239605Y-112090000D01*
X204880395Y-112090000D01*
X204267719Y-111477324D01*
X204162068Y-111221629D01*
X203950650Y-111009841D01*
X204159446Y-111009841D01*
X205060000Y-111910395D01*
X205960554Y-111009841D01*
X205874148Y-110753357D01*
X205300664Y-110543542D01*
X204690540Y-110569161D01*
X204245852Y-110753357D01*
X204159446Y-111009841D01*
X203950650Y-111009841D01*
X203730643Y-110789449D01*
X203166670Y-110555267D01*
X202556009Y-110554735D01*
X201991629Y-110787932D01*
X201759974Y-111019182D01*
X201530643Y-110789449D01*
X200966670Y-110555267D01*
X200356009Y-110554735D01*
X199791629Y-110787932D01*
X199359449Y-111219357D01*
X199125267Y-111783330D01*
X199124735Y-112393991D01*
X198994735Y-112393991D01*
X198995265Y-111786009D01*
X198762068Y-111221629D01*
X198330643Y-110789449D01*
X197766670Y-110555267D01*
X197156009Y-110554735D01*
X196591629Y-110787932D01*
X196159449Y-111219357D01*
X195925267Y-111783330D01*
X195924735Y-112393991D01*
X195290252Y-112393991D01*
X195277931Y-112332053D01*
X194901830Y-111769179D01*
X194338956Y-111393078D01*
X193675000Y-111261009D01*
X193011044Y-111393078D01*
X192448170Y-111769179D01*
X192072069Y-112332053D01*
X191940000Y-112996009D01*
X173305123Y-112996009D01*
X173340551Y-112960643D01*
X173574733Y-112396670D01*
X173575265Y-111786009D01*
X173342068Y-111221629D01*
X172910643Y-110789449D01*
X172346670Y-110555267D01*
X171736009Y-110554735D01*
X171171629Y-110787932D01*
X170939974Y-111019182D01*
X170710643Y-110789449D01*
X170146670Y-110555267D01*
X169536009Y-110554735D01*
X168971629Y-110787932D01*
X168739974Y-111019182D01*
X168510643Y-110789449D01*
X167946670Y-110555267D01*
X167336009Y-110554735D01*
X166771629Y-110787932D01*
X166339449Y-111219357D01*
X166105267Y-111783330D01*
X166104735Y-112393991D01*
X165974735Y-112393991D01*
X165975265Y-111786009D01*
X165742068Y-111221629D01*
X165310643Y-110789449D01*
X164746670Y-110555267D01*
X164136009Y-110554735D01*
X163571629Y-110787932D01*
X163139449Y-111219357D01*
X162905267Y-111783330D01*
X162904735Y-112393991D01*
X162270252Y-112393991D01*
X162257931Y-112332053D01*
X161881830Y-111769179D01*
X161318956Y-111393078D01*
X160655000Y-111261009D01*
X159991044Y-111393078D01*
X159428170Y-111769179D01*
X159052069Y-112332053D01*
X158920000Y-112996009D01*
X158920000Y-113063991D01*
X159052069Y-113727947D01*
X159367485Y-114200000D01*
X131840000Y-114200000D01*
X131840000Y-113447176D01*
X131973371Y-113392068D01*
X132205026Y-113160818D01*
X132434357Y-113390551D01*
X132998330Y-113624733D01*
X133608991Y-113625265D01*
X134173371Y-113392068D01*
X134605551Y-112960643D01*
X134839733Y-112396670D01*
X134840265Y-111786009D01*
X134608461Y-111225000D01*
X135458554Y-111225000D01*
X135589908Y-111356355D01*
X135589838Y-111437167D01*
X135731883Y-111780943D01*
X135994673Y-112044192D01*
X136338201Y-112186838D01*
X136710167Y-112187162D01*
X137053943Y-112045117D01*
X137317192Y-111782327D01*
X137459838Y-111438799D01*
X137460162Y-111066833D01*
X137318117Y-110723057D01*
X137055327Y-110459808D01*
X136711799Y-110317162D01*
X136629537Y-110317090D01*
X136282723Y-109970277D01*
X136044272Y-109810949D01*
X135763000Y-109755000D01*
X134607894Y-109755000D01*
X134839733Y-109196670D01*
X134840265Y-108586009D01*
X134701429Y-108250000D01*
X145662710Y-108250000D01*
X146023855Y-108611145D01*
X146327191Y-108813827D01*
X146685000Y-108885000D01*
X162905004Y-108885000D01*
X162904735Y-109193991D01*
X163137932Y-109758371D01*
X163569357Y-110190551D01*
X164133330Y-110424733D01*
X164743991Y-110425265D01*
X165308371Y-110192068D01*
X165530668Y-109970159D01*
X166739446Y-109970159D01*
X166825852Y-110226643D01*
X167399336Y-110436458D01*
X168009460Y-110410839D01*
X168454148Y-110226643D01*
X168540554Y-109970159D01*
X167640000Y-109069605D01*
X166739446Y-109970159D01*
X165530668Y-109970159D01*
X165740551Y-109760643D01*
X165974733Y-109196670D01*
X165975265Y-108586009D01*
X165742068Y-108021629D01*
X165716484Y-107996000D01*
X166540386Y-107996000D01*
X166303357Y-108075852D01*
X166093542Y-108649336D01*
X166119161Y-109259460D01*
X166303357Y-109704148D01*
X166559841Y-109790554D01*
X167460395Y-108890000D01*
X167446253Y-108875858D01*
X167625858Y-108696253D01*
X167640000Y-108710395D01*
X167654143Y-108696253D01*
X167833748Y-108875858D01*
X167819605Y-108890000D01*
X168432281Y-109502676D01*
X168537932Y-109758371D01*
X168969357Y-110190551D01*
X169533330Y-110424733D01*
X170143991Y-110425265D01*
X170708371Y-110192068D01*
X170940026Y-109960818D01*
X171169357Y-110190551D01*
X171733330Y-110424733D01*
X172343991Y-110425265D01*
X172908371Y-110192068D01*
X173340551Y-109760643D01*
X173574733Y-109196670D01*
X173575100Y-108775680D01*
X173632191Y-108813827D01*
X173990000Y-108885000D01*
X195925004Y-108885000D01*
X195924735Y-109193991D01*
X196157932Y-109758371D01*
X196589357Y-110190551D01*
X197153330Y-110424733D01*
X197763991Y-110425265D01*
X198328371Y-110192068D01*
X198550668Y-109970159D01*
X199759446Y-109970159D01*
X199845852Y-110226643D01*
X200419336Y-110436458D01*
X201029460Y-110410839D01*
X201474148Y-110226643D01*
X201560554Y-109970159D01*
X200660000Y-109069605D01*
X199759446Y-109970159D01*
X198550668Y-109970159D01*
X198760551Y-109760643D01*
X198994733Y-109196670D01*
X198995265Y-108586009D01*
X198856429Y-108250000D01*
X199259643Y-108250000D01*
X199113542Y-108649336D01*
X199139161Y-109259460D01*
X199323357Y-109704148D01*
X199579841Y-109790554D01*
X200480395Y-108890000D01*
X200466253Y-108875858D01*
X200645858Y-108696253D01*
X200660000Y-108710395D01*
X200674143Y-108696253D01*
X200853748Y-108875858D01*
X200839605Y-108890000D01*
X201452281Y-109502676D01*
X201557932Y-109758371D01*
X201989357Y-110190551D01*
X202553330Y-110424733D01*
X203163991Y-110425265D01*
X203728371Y-110192068D01*
X203960026Y-109960818D01*
X204189357Y-110190551D01*
X204753330Y-110424733D01*
X205363991Y-110425265D01*
X205928371Y-110192068D01*
X206360551Y-109760643D01*
X206594733Y-109196670D01*
X206595265Y-108586009D01*
X206456429Y-108250000D01*
X207892710Y-108250000D01*
X208285268Y-108642558D01*
X208267560Y-108730000D01*
X208267560Y-109700000D01*
X208297796Y-109860690D01*
X208267560Y-110010000D01*
X208267560Y-110980000D01*
X208311838Y-111215317D01*
X208450910Y-111431441D01*
X208663110Y-111576431D01*
X208762127Y-111596482D01*
X208888855Y-111786145D01*
X209370710Y-112268000D01*
X208767691Y-112871019D01*
X208351629Y-113042932D01*
X207919449Y-113474357D01*
X207685267Y-114038330D01*
X207684735Y-114648991D01*
X207917932Y-115213371D01*
X208149182Y-115445026D01*
X207919449Y-115674357D01*
X207685267Y-116238330D01*
X207684814Y-116757896D01*
X206856855Y-117585855D01*
X206654173Y-117889191D01*
X206583000Y-118247000D01*
X206583000Y-119253000D01*
X206654173Y-119610809D01*
X206786144Y-119808319D01*
X206561799Y-119715162D01*
X206189833Y-119714838D01*
X205846057Y-119856883D01*
X205787838Y-119915000D01*
X201595088Y-119915000D01*
X201595162Y-119829833D01*
X201453117Y-119486057D01*
X201190327Y-119222808D01*
X200846799Y-119080162D01*
X200474833Y-119079838D01*
X200131057Y-119221883D01*
X200072838Y-119280000D01*
X123777419Y-119280000D01*
X123720327Y-119222808D01*
X123376799Y-119080162D01*
X123004833Y-119079838D01*
X122661057Y-119221883D01*
X122397808Y-119484673D01*
X122255162Y-119828201D01*
X122255086Y-119915000D01*
X118062419Y-119915000D01*
X118005327Y-119857808D01*
X117661799Y-119715162D01*
X117289833Y-119714838D01*
X116946057Y-119856883D01*
X116682808Y-120119673D01*
X116540162Y-120463201D01*
X116540086Y-120550000D01*
X115522419Y-120550000D01*
X115465327Y-120492808D01*
X115121799Y-120350162D01*
X114749833Y-120349838D01*
X114406057Y-120491883D01*
X114142808Y-120754673D01*
X114000162Y-121098201D01*
X114000086Y-121185000D01*
X108537419Y-121185000D01*
X108480327Y-121127808D01*
X108136799Y-120985162D01*
X107764833Y-120984838D01*
X107421057Y-121126883D01*
X107157808Y-121389673D01*
X107015162Y-121733201D01*
X107015086Y-121820000D01*
X104727419Y-121820000D01*
X104670327Y-121762808D01*
X104326799Y-121620162D01*
X103954833Y-121619838D01*
X103611057Y-121761883D01*
X103347808Y-122024673D01*
X103205162Y-122368201D01*
X103204862Y-122712560D01*
X103040000Y-122712560D01*
X102804683Y-122756838D01*
X102588559Y-122895910D01*
X102443569Y-123108110D01*
X102392560Y-123360000D01*
X102392560Y-125560000D01*
X102436838Y-125795317D01*
X102575910Y-126011441D01*
X102788110Y-126156431D01*
X103040000Y-126207440D01*
X105240000Y-126207440D01*
X105475317Y-126163162D01*
X105691441Y-126024090D01*
X105836431Y-125811890D01*
X105887440Y-125560000D01*
X105887440Y-125195000D01*
X105948560Y-125195000D01*
X105948560Y-125560000D01*
X105992838Y-125795317D01*
X106131910Y-126011441D01*
X106344110Y-126156431D01*
X106596000Y-126207440D01*
X108796000Y-126207440D01*
X109031317Y-126163162D01*
X109247441Y-126024090D01*
X109392431Y-125811890D01*
X109443440Y-125560000D01*
X109443440Y-125195000D01*
X109504560Y-125195000D01*
X109504560Y-125560000D01*
X109548838Y-125795317D01*
X109687910Y-126011441D01*
X109900110Y-126156431D01*
X110152000Y-126207440D01*
X112352000Y-126207440D01*
X112587317Y-126163162D01*
X112803441Y-126024090D01*
X112948431Y-125811890D01*
X112999440Y-125560000D01*
X112999440Y-125195000D01*
X113060560Y-125195000D01*
X113060560Y-125560000D01*
X113104838Y-125795317D01*
X113243910Y-126011441D01*
X113456110Y-126156431D01*
X113708000Y-126207440D01*
X115908000Y-126207440D01*
X116143317Y-126163162D01*
X116359441Y-126024090D01*
X116504431Y-125811890D01*
X116555440Y-125560000D01*
X116555440Y-125195000D01*
X116616560Y-125195000D01*
X116616560Y-125560000D01*
X116660838Y-125795317D01*
X116799910Y-126011441D01*
X117012110Y-126156431D01*
X117264000Y-126207440D01*
X119464000Y-126207440D01*
X119699317Y-126163162D01*
X119915441Y-126024090D01*
X120060431Y-125811890D01*
X120111440Y-125560000D01*
X120111440Y-123360000D01*
X120098269Y-123290000D01*
X120186735Y-123290000D01*
X120172560Y-123360000D01*
X120172560Y-125560000D01*
X120216838Y-125795317D01*
X120355910Y-126011441D01*
X120568110Y-126156431D01*
X120820000Y-126207440D01*
X123020000Y-126207440D01*
X123255317Y-126163162D01*
X123471441Y-126024090D01*
X123616431Y-125811890D01*
X123667440Y-125560000D01*
X123667440Y-125195000D01*
X123728560Y-125195000D01*
X123728560Y-125560000D01*
X123772838Y-125795317D01*
X123911910Y-126011441D01*
X124124110Y-126156431D01*
X124376000Y-126207440D01*
X126576000Y-126207440D01*
X126811317Y-126163162D01*
X127027441Y-126024090D01*
X127172431Y-125811890D01*
X127223440Y-125560000D01*
X127223440Y-125195000D01*
X127284560Y-125195000D01*
X127284560Y-125560000D01*
X127328838Y-125795317D01*
X127467910Y-126011441D01*
X127680110Y-126156431D01*
X127932000Y-126207440D01*
X130132000Y-126207440D01*
X130367317Y-126163162D01*
X130583441Y-126024090D01*
X130728431Y-125811890D01*
X130779440Y-125560000D01*
X130779440Y-125195000D01*
X130840560Y-125195000D01*
X130840560Y-125560000D01*
X130884838Y-125795317D01*
X131023910Y-126011441D01*
X131236110Y-126156431D01*
X131488000Y-126207440D01*
X133688000Y-126207440D01*
X133923317Y-126163162D01*
X134139441Y-126024090D01*
X134284431Y-125811890D01*
X134335440Y-125560000D01*
X134335440Y-125195000D01*
X172767581Y-125195000D01*
X172824673Y-125252192D01*
X173168201Y-125394838D01*
X173540167Y-125395162D01*
X173883943Y-125253117D01*
X174147192Y-124990327D01*
X174289838Y-124646799D01*
X174290162Y-124274833D01*
X174148117Y-123931057D01*
X174142071Y-123925000D01*
X197815554Y-123925000D01*
X207125276Y-133234723D01*
X207125279Y-133234725D01*
X209665276Y-135774723D01*
X209784323Y-135854268D01*
X209902659Y-135933607D01*
X209903236Y-135933723D01*
X209903727Y-135934051D01*
X210043685Y-135961890D01*
X210183843Y-135989999D01*
X212130040Y-135993064D01*
X212260910Y-136196441D01*
X212473110Y-136341431D01*
X212725000Y-136392440D01*
X213995000Y-136392440D01*
X214230317Y-136348162D01*
X214446441Y-136209090D01*
X214591431Y-135996890D01*
X214629543Y-135808686D01*
X214661838Y-135980317D01*
X214800910Y-136196441D01*
X215013110Y-136341431D01*
X215265000Y-136392440D01*
X216535000Y-136392440D01*
X216770317Y-136348162D01*
X216986441Y-136209090D01*
X217131431Y-135996890D01*
X217131814Y-135995000D01*
X217222572Y-135995000D01*
X217274673Y-136047192D01*
X217618201Y-136189838D01*
X217990167Y-136190162D01*
X218333943Y-136048117D01*
X218387153Y-135995000D01*
X218481286Y-135995000D01*
X218610910Y-136196441D01*
X218823110Y-136341431D01*
X219075000Y-136392440D01*
X220345000Y-136392440D01*
X220580317Y-136348162D01*
X220796441Y-136209090D01*
X220941431Y-135996890D01*
X220979543Y-135808686D01*
X221011838Y-135980317D01*
X221150910Y-136196441D01*
X221363110Y-136341431D01*
X221615000Y-136392440D01*
X222885000Y-136392440D01*
X222983875Y-136373835D01*
X222497710Y-136860000D01*
X167640000Y-136860000D01*
X167282191Y-136931173D01*
X166978855Y-137133855D01*
X166617710Y-137495000D01*
X165303731Y-137495000D01*
X165818830Y-137150821D01*
X166194931Y-136587947D01*
X166327000Y-135923991D01*
X166327000Y-135856009D01*
X166194931Y-135192053D01*
X165879515Y-134720000D01*
X205660581Y-134720000D01*
X205717673Y-134777192D01*
X206061201Y-134919838D01*
X206433167Y-134920162D01*
X206776943Y-134778117D01*
X207040192Y-134515327D01*
X207182838Y-134171799D01*
X207183162Y-133799833D01*
X207041117Y-133456057D01*
X206778327Y-133192808D01*
X206434799Y-133050162D01*
X206062833Y-133049838D01*
X205719057Y-133191883D01*
X205660838Y-133250000D01*
X204643088Y-133250000D01*
X204643162Y-133164833D01*
X204501117Y-132821057D01*
X204238327Y-132557808D01*
X203894799Y-132415162D01*
X203522833Y-132414838D01*
X203179057Y-132556883D01*
X203120838Y-132615000D01*
X202103088Y-132615000D01*
X202103162Y-132529833D01*
X201961117Y-132186057D01*
X201698327Y-131922808D01*
X201354799Y-131780162D01*
X200982833Y-131779838D01*
X200639057Y-131921883D01*
X200580838Y-131980000D01*
X199563088Y-131980000D01*
X199563162Y-131894833D01*
X199421117Y-131551057D01*
X199158327Y-131287808D01*
X198814799Y-131145162D01*
X198442833Y-131144838D01*
X198099057Y-131286883D01*
X198040838Y-131345000D01*
X197023088Y-131345000D01*
X197023162Y-131259833D01*
X196881117Y-130916057D01*
X196618327Y-130652808D01*
X196274799Y-130510162D01*
X195902833Y-130509838D01*
X195559057Y-130651883D01*
X195500838Y-130710000D01*
X194483088Y-130710000D01*
X194483162Y-130624833D01*
X194341117Y-130281057D01*
X194078327Y-130017808D01*
X193734799Y-129875162D01*
X193362833Y-129874838D01*
X193019057Y-130016883D01*
X192960838Y-130075000D01*
X191943088Y-130075000D01*
X191943162Y-129989833D01*
X191801117Y-129646057D01*
X191538327Y-129382808D01*
X191194799Y-129240162D01*
X190822833Y-129239838D01*
X190479057Y-129381883D01*
X190420838Y-129440000D01*
X166325265Y-129440000D01*
X166339440Y-129370000D01*
X166339440Y-127170000D01*
X166295162Y-126934683D01*
X166156090Y-126718559D01*
X165943890Y-126573569D01*
X165692000Y-126522560D01*
X163492000Y-126522560D01*
X163256683Y-126566838D01*
X163040559Y-126705910D01*
X162895569Y-126918110D01*
X162844560Y-127170000D01*
X162844560Y-127535000D01*
X162783440Y-127535000D01*
X162783440Y-127170000D01*
X162739162Y-126934683D01*
X162600090Y-126718559D01*
X162387890Y-126573569D01*
X162136000Y-126522560D01*
X159936000Y-126522560D01*
X159700683Y-126566838D01*
X159484559Y-126705910D01*
X159339569Y-126918110D01*
X159288560Y-127170000D01*
X159288560Y-127535000D01*
X159227440Y-127535000D01*
X159227440Y-127170000D01*
X159183162Y-126934683D01*
X159044090Y-126718559D01*
X158831890Y-126573569D01*
X158580000Y-126522560D01*
X156380000Y-126522560D01*
X156144683Y-126566838D01*
X155928559Y-126705910D01*
X155783569Y-126918110D01*
X155732560Y-127170000D01*
X155732560Y-127535000D01*
X155671440Y-127535000D01*
X155671440Y-127170000D01*
X155627162Y-126934683D01*
X155488090Y-126718559D01*
X155275890Y-126573569D01*
X155024000Y-126522560D01*
X152824000Y-126522560D01*
X152588683Y-126566838D01*
X152372559Y-126705910D01*
X152227569Y-126918110D01*
X152176560Y-127170000D01*
X152176560Y-127535000D01*
X152115440Y-127535000D01*
X152115440Y-127170000D01*
X152071162Y-126934683D01*
X151932090Y-126718559D01*
X151719890Y-126573569D01*
X151468000Y-126522560D01*
X149268000Y-126522560D01*
X149032683Y-126566838D01*
X148816559Y-126705910D01*
X148671569Y-126918110D01*
X148620560Y-127170000D01*
X148620560Y-129370000D01*
X148633731Y-129440000D01*
X148545265Y-129440000D01*
X148559440Y-129370000D01*
X148559440Y-127170000D01*
X148515162Y-126934683D01*
X148376090Y-126718559D01*
X148163890Y-126573569D01*
X147912000Y-126522560D01*
X145712000Y-126522560D01*
X145476683Y-126566838D01*
X145260559Y-126705910D01*
X145115569Y-126918110D01*
X145064560Y-127170000D01*
X145064560Y-127535000D01*
X145003440Y-127535000D01*
X145003440Y-127170000D01*
X144959162Y-126934683D01*
X144820090Y-126718559D01*
X144607890Y-126573569D01*
X144356000Y-126522560D01*
X142156000Y-126522560D01*
X141920683Y-126566838D01*
X141704559Y-126705910D01*
X141559569Y-126918110D01*
X141508560Y-127170000D01*
X141508560Y-127535000D01*
X141447440Y-127535000D01*
X141447440Y-127170000D01*
X141403162Y-126934683D01*
X141264090Y-126718559D01*
X141051890Y-126573569D01*
X140800000Y-126522560D01*
X138600000Y-126522560D01*
X138364683Y-126566838D01*
X138148559Y-126705910D01*
X138003569Y-126918110D01*
X137952560Y-127170000D01*
X137952560Y-127535000D01*
X137891440Y-127535000D01*
X137891440Y-127170000D01*
X137847162Y-126934683D01*
X137708090Y-126718559D01*
X137495890Y-126573569D01*
X137244000Y-126522560D01*
X135044000Y-126522560D01*
X134808683Y-126566838D01*
X134592559Y-126705910D01*
X134447569Y-126918110D01*
X134396560Y-127170000D01*
X134396560Y-127535000D01*
X134335440Y-127535000D01*
X134335440Y-127170000D01*
X134291162Y-126934683D01*
X134152090Y-126718559D01*
X133939890Y-126573569D01*
X133688000Y-126522560D01*
X131488000Y-126522560D01*
X131252683Y-126566838D01*
X131036559Y-126705910D01*
X130891569Y-126918110D01*
X130840560Y-127170000D01*
X130840560Y-129370000D01*
X130853731Y-129440000D01*
X130765265Y-129440000D01*
X130779440Y-129370000D01*
X130779440Y-127170000D01*
X130735162Y-126934683D01*
X130596090Y-126718559D01*
X130383890Y-126573569D01*
X130132000Y-126522560D01*
X127932000Y-126522560D01*
X127696683Y-126566838D01*
X127480559Y-126705910D01*
X127335569Y-126918110D01*
X127284560Y-127170000D01*
X127284560Y-127535000D01*
X127223440Y-127535000D01*
X127223440Y-127170000D01*
X127179162Y-126934683D01*
X127040090Y-126718559D01*
X126827890Y-126573569D01*
X126576000Y-126522560D01*
X124376000Y-126522560D01*
X124140683Y-126566838D01*
X123924559Y-126705910D01*
X123779569Y-126918110D01*
X123728560Y-127170000D01*
X123728560Y-129370000D01*
X123741731Y-129440000D01*
X123653265Y-129440000D01*
X123667440Y-129370000D01*
X123667440Y-127170000D01*
X123623162Y-126934683D01*
X123484090Y-126718559D01*
X123271890Y-126573569D01*
X123020000Y-126522560D01*
X120820000Y-126522560D01*
X120584683Y-126566838D01*
X120368559Y-126705910D01*
X120223569Y-126918110D01*
X120172560Y-127170000D01*
X120172560Y-127535000D01*
X120111440Y-127535000D01*
X120111440Y-127170000D01*
X120067162Y-126934683D01*
X119928090Y-126718559D01*
X119715890Y-126573569D01*
X119464000Y-126522560D01*
X117264000Y-126522560D01*
X117028683Y-126566838D01*
X116812559Y-126705910D01*
X116667569Y-126918110D01*
X116616560Y-127170000D01*
X116616560Y-127535000D01*
X116555440Y-127535000D01*
X116555440Y-127170000D01*
X116511162Y-126934683D01*
X116372090Y-126718559D01*
X116159890Y-126573569D01*
X115908000Y-126522560D01*
X113708000Y-126522560D01*
X113472683Y-126566838D01*
X113256559Y-126705910D01*
X113111569Y-126918110D01*
X113060560Y-127170000D01*
X113060560Y-127535000D01*
X112999440Y-127535000D01*
X112999440Y-127170000D01*
X112955162Y-126934683D01*
X112816090Y-126718559D01*
X112603890Y-126573569D01*
X112352000Y-126522560D01*
X110152000Y-126522560D01*
X109916683Y-126566838D01*
X109700559Y-126705910D01*
X109555569Y-126918110D01*
X109504560Y-127170000D01*
X109504560Y-127535000D01*
X109443440Y-127535000D01*
X109443440Y-127170000D01*
X109399162Y-126934683D01*
X109260090Y-126718559D01*
X109047890Y-126573569D01*
X108796000Y-126522560D01*
X106596000Y-126522560D01*
X106360683Y-126566838D01*
X106144559Y-126705910D01*
X105999569Y-126918110D01*
X105948560Y-127170000D01*
X105948560Y-127535000D01*
X105887440Y-127535000D01*
X105887440Y-127170000D01*
X105843162Y-126934683D01*
X105704090Y-126718559D01*
X105491890Y-126573569D01*
X105240000Y-126522560D01*
X103040000Y-126522560D01*
X102804683Y-126566838D01*
X102588559Y-126705910D01*
X102443569Y-126918110D01*
X102392560Y-127170000D01*
X102392560Y-129370000D01*
X102436838Y-129605317D01*
X102575910Y-129821441D01*
X102788110Y-129966431D01*
X103040000Y-130017440D01*
X103205137Y-130017440D01*
X103204838Y-130360167D01*
X103346883Y-130703943D01*
X103609673Y-130967192D01*
X103953201Y-131109838D01*
X104325167Y-131110162D01*
X104668943Y-130968117D01*
X104727162Y-130910000D01*
X107014912Y-130910000D01*
X107014838Y-130995167D01*
X107156883Y-131338943D01*
X107419673Y-131602192D01*
X107763201Y-131744838D01*
X108135167Y-131745162D01*
X108478943Y-131603117D01*
X108537162Y-131545000D01*
X110824912Y-131545000D01*
X110824838Y-131630167D01*
X110966883Y-131973943D01*
X111229673Y-132237192D01*
X111573201Y-132379838D01*
X111888332Y-132380112D01*
X111982883Y-132608943D01*
X112245673Y-132872192D01*
X112589201Y-133014838D01*
X112961167Y-133015162D01*
X113304943Y-132873117D01*
X113363162Y-132815000D01*
X114347581Y-132815000D01*
X114404673Y-132872192D01*
X114748201Y-133014838D01*
X115120167Y-133015162D01*
X115463943Y-132873117D01*
X115522162Y-132815000D01*
X117809912Y-132815000D01*
X117809838Y-132900167D01*
X117951883Y-133243943D01*
X117957929Y-133250000D01*
X106251419Y-133250000D01*
X106194327Y-133192808D01*
X105850799Y-133050162D01*
X105478833Y-133049838D01*
X105135057Y-133191883D01*
X104871808Y-133454673D01*
X104729162Y-133798201D01*
X104728838Y-134170167D01*
X104759437Y-134244223D01*
X104140000Y-134121009D01*
X103476044Y-134253078D01*
X102913170Y-134629179D01*
X102537069Y-135192053D01*
X102405000Y-135856009D01*
X102405000Y-135923991D01*
X102537069Y-136587947D01*
X102913170Y-137150821D01*
X103476044Y-137526922D01*
X104140000Y-137658991D01*
X104803956Y-137526922D01*
X105366830Y-137150821D01*
X105742931Y-136587947D01*
X105875000Y-135923991D01*
X105875000Y-135856009D01*
X105742931Y-135192053D01*
X105561091Y-134919911D01*
X105849167Y-134920162D01*
X106192943Y-134778117D01*
X106251162Y-134720000D01*
X106408485Y-134720000D01*
X106093069Y-135192053D01*
X105961000Y-135856009D01*
X105961000Y-135923991D01*
X106093069Y-136587947D01*
X106469170Y-137150821D01*
X107032044Y-137526922D01*
X107696000Y-137658991D01*
X108359956Y-137526922D01*
X108922830Y-137150821D01*
X109298931Y-136587947D01*
X109431000Y-135923991D01*
X109431000Y-135856009D01*
X109298931Y-135192053D01*
X108983515Y-134720000D01*
X109964485Y-134720000D01*
X109649069Y-135192053D01*
X109517000Y-135856009D01*
X109517000Y-135923991D01*
X109649069Y-136587947D01*
X110025170Y-137150821D01*
X110588044Y-137526922D01*
X111252000Y-137658991D01*
X111915956Y-137526922D01*
X112478830Y-137150821D01*
X112854931Y-136587947D01*
X112987000Y-135923991D01*
X112987000Y-135856009D01*
X112854931Y-135192053D01*
X112539515Y-134720000D01*
X113520485Y-134720000D01*
X113205069Y-135192053D01*
X113073000Y-135856009D01*
X113073000Y-135923991D01*
X113205069Y-136587947D01*
X113581170Y-137150821D01*
X114144044Y-137526922D01*
X114808000Y-137658991D01*
X115471956Y-137526922D01*
X116034830Y-137150821D01*
X116410931Y-136587947D01*
X116543000Y-135923991D01*
X116543000Y-135856009D01*
X116410931Y-135192053D01*
X116095515Y-134720000D01*
X117076485Y-134720000D01*
X116761069Y-135192053D01*
X116629000Y-135856009D01*
X116629000Y-135923991D01*
X116761069Y-136587947D01*
X117137170Y-137150821D01*
X117700044Y-137526922D01*
X118364000Y-137658991D01*
X119027956Y-137526922D01*
X119590830Y-137150821D01*
X119966931Y-136587947D01*
X120099000Y-135923991D01*
X120099000Y-135856009D01*
X119966931Y-135192053D01*
X119651515Y-134720000D01*
X120632485Y-134720000D01*
X120317069Y-135192053D01*
X120185000Y-135856009D01*
X120185000Y-135923991D01*
X120317069Y-136587947D01*
X120693170Y-137150821D01*
X121256044Y-137526922D01*
X121920000Y-137658991D01*
X122583956Y-137526922D01*
X123146830Y-137150821D01*
X123522931Y-136587947D01*
X123655000Y-135923991D01*
X123655000Y-135856009D01*
X123522931Y-135192053D01*
X123207515Y-134720000D01*
X124188485Y-134720000D01*
X123873069Y-135192053D01*
X123741000Y-135856009D01*
X123741000Y-135923991D01*
X123873069Y-136587947D01*
X124249170Y-137150821D01*
X124812044Y-137526922D01*
X125476000Y-137658991D01*
X126139956Y-137526922D01*
X126702830Y-137150821D01*
X127078931Y-136587947D01*
X127211000Y-135923991D01*
X127211000Y-135856009D01*
X127078931Y-135192053D01*
X126763515Y-134720000D01*
X127744485Y-134720000D01*
X127429069Y-135192053D01*
X127297000Y-135856009D01*
X127297000Y-135923991D01*
X127429069Y-136587947D01*
X127805170Y-137150821D01*
X128368044Y-137526922D01*
X129032000Y-137658991D01*
X129695956Y-137526922D01*
X130258830Y-137150821D01*
X130634931Y-136587947D01*
X130767000Y-135923991D01*
X130767000Y-135856009D01*
X130634931Y-135192053D01*
X130319515Y-134720000D01*
X131300485Y-134720000D01*
X130985069Y-135192053D01*
X130853000Y-135856009D01*
X130853000Y-135923991D01*
X130985069Y-136587947D01*
X131361170Y-137150821D01*
X131924044Y-137526922D01*
X132588000Y-137658991D01*
X133251956Y-137526922D01*
X133814830Y-137150821D01*
X134190931Y-136587947D01*
X134323000Y-135923991D01*
X134323000Y-135856009D01*
X134190931Y-135192053D01*
X133875515Y-134720000D01*
X134856485Y-134720000D01*
X134541069Y-135192053D01*
X134409000Y-135856009D01*
X134409000Y-135923991D01*
X134541069Y-136587947D01*
X134917170Y-137150821D01*
X135480044Y-137526922D01*
X136144000Y-137658991D01*
X136807956Y-137526922D01*
X137370830Y-137150821D01*
X137746931Y-136587947D01*
X137879000Y-135923991D01*
X137879000Y-135856009D01*
X137746931Y-135192053D01*
X137431515Y-134720000D01*
X138096581Y-134720000D01*
X138153673Y-134777192D01*
X138326358Y-134848898D01*
X138097069Y-135192053D01*
X137965000Y-135856009D01*
X137965000Y-135923991D01*
X138097069Y-136587947D01*
X138473170Y-137150821D01*
X139036044Y-137526922D01*
X139700000Y-137658991D01*
X140363956Y-137526922D01*
X140926830Y-137150821D01*
X141302931Y-136587947D01*
X141435000Y-135923991D01*
X141435000Y-135856009D01*
X141302931Y-135192053D01*
X140987515Y-134720000D01*
X141968485Y-134720000D01*
X141653069Y-135192053D01*
X141521000Y-135856009D01*
X141521000Y-135923991D01*
X141653069Y-136587947D01*
X142029170Y-137150821D01*
X142592044Y-137526922D01*
X143256000Y-137658991D01*
X143919956Y-137526922D01*
X144482830Y-137150821D01*
X144858931Y-136587947D01*
X144991000Y-135923991D01*
X144991000Y-135856009D01*
X144858931Y-135192053D01*
X144543515Y-134720000D01*
X145524485Y-134720000D01*
X145209069Y-135192053D01*
X145077000Y-135856009D01*
X145077000Y-135923991D01*
X145209069Y-136587947D01*
X145585170Y-137150821D01*
X146100269Y-137495000D01*
X144380000Y-137495000D01*
X144022191Y-137566173D01*
X143718855Y-137768855D01*
X142839981Y-138647729D01*
X142680000Y-138615907D01*
X142111715Y-138728946D01*
X141629946Y-139050853D01*
X141402298Y-139391553D01*
X141335183Y-139248642D01*
X140906924Y-138858355D01*
X140496890Y-138688524D01*
X140267000Y-138809845D01*
X140267000Y-140003000D01*
X140287000Y-140003000D01*
X140287000Y-140257000D01*
X140267000Y-140257000D01*
X140267000Y-141450155D01*
X140496890Y-141571476D01*
X140906924Y-141401645D01*
X141335183Y-141011358D01*
X141402298Y-140868447D01*
X141629946Y-141209147D01*
X142111715Y-141531054D01*
X142680000Y-141644093D01*
X143248285Y-141531054D01*
X143730054Y-141209147D01*
X144051961Y-140727378D01*
X144113947Y-140415750D01*
X187085000Y-140415750D01*
X187085000Y-141106309D01*
X187181673Y-141339698D01*
X187360301Y-141518327D01*
X187593690Y-141615000D01*
X188284250Y-141615000D01*
X188443000Y-141456250D01*
X188443000Y-140257000D01*
X187243750Y-140257000D01*
X187085000Y-140415750D01*
X144113947Y-140415750D01*
X144165000Y-140159093D01*
X144165000Y-140100907D01*
X144142831Y-139989459D01*
X144767290Y-139365000D01*
X167005000Y-139365000D01*
X167362809Y-139293827D01*
X167666145Y-139091145D01*
X168027290Y-138730000D01*
X187388482Y-138730000D01*
X187360301Y-138741673D01*
X187181673Y-138920302D01*
X187085000Y-139153691D01*
X187085000Y-139844250D01*
X187243750Y-140003000D01*
X188443000Y-140003000D01*
X188443000Y-139983000D01*
X188697000Y-139983000D01*
X188697000Y-140003000D01*
X188717000Y-140003000D01*
X188717000Y-140257000D01*
X188697000Y-140257000D01*
X188697000Y-141456250D01*
X188855750Y-141615000D01*
X189546310Y-141615000D01*
X189779699Y-141518327D01*
X189958327Y-141339698D01*
X190030597Y-141165223D01*
X190059946Y-141209147D01*
X190541715Y-141531054D01*
X191110000Y-141644093D01*
X191678285Y-141531054D01*
X192160054Y-141209147D01*
X192380000Y-140879974D01*
X192599946Y-141209147D01*
X193081715Y-141531054D01*
X193650000Y-141644093D01*
X194218285Y-141531054D01*
X194700054Y-141209147D01*
X194920000Y-140879974D01*
X195139946Y-141209147D01*
X195621715Y-141531054D01*
X196190000Y-141644093D01*
X196758285Y-141531054D01*
X197240054Y-141209147D01*
X197460000Y-140879974D01*
X197679946Y-141209147D01*
X198161715Y-141531054D01*
X198730000Y-141644093D01*
X199298285Y-141531054D01*
X199780054Y-141209147D01*
X200000000Y-140879974D01*
X200219946Y-141209147D01*
X200701715Y-141531054D01*
X201270000Y-141644093D01*
X201838285Y-141531054D01*
X202320054Y-141209147D01*
X202540000Y-140879974D01*
X202759946Y-141209147D01*
X203241715Y-141531054D01*
X203810000Y-141644093D01*
X204378285Y-141531054D01*
X204860054Y-141209147D01*
X205080000Y-140879974D01*
X205299946Y-141209147D01*
X205781715Y-141531054D01*
X206350000Y-141644093D01*
X206918285Y-141531054D01*
X207400054Y-141209147D01*
X207627702Y-140868447D01*
X207694817Y-141011358D01*
X208123076Y-141401645D01*
X208533110Y-141571476D01*
X208763000Y-141450155D01*
X208763000Y-140257000D01*
X208743000Y-140257000D01*
X208743000Y-140003000D01*
X208763000Y-140003000D01*
X208763000Y-139983000D01*
X209017000Y-139983000D01*
X209017000Y-140003000D01*
X209037000Y-140003000D01*
X209037000Y-140257000D01*
X209017000Y-140257000D01*
X209017000Y-141450155D01*
X209246890Y-141571476D01*
X209656924Y-141401645D01*
X210085183Y-141011358D01*
X210152298Y-140868447D01*
X210379946Y-141209147D01*
X210861715Y-141531054D01*
X211430000Y-141644093D01*
X211998285Y-141531054D01*
X212480054Y-141209147D01*
X212801961Y-140727378D01*
X212915000Y-140159093D01*
X212915000Y-140100907D01*
X212801961Y-139532622D01*
X212480054Y-139050853D01*
X211999862Y-138730000D01*
X222885000Y-138730000D01*
X223242809Y-138658827D01*
X223546145Y-138456145D01*
X224816145Y-137186145D01*
X225018827Y-136882809D01*
X225090000Y-136525000D01*
X225090000Y-135255816D01*
X225090162Y-135069833D01*
X224948117Y-134726057D01*
X224685327Y-134462808D01*
X224341799Y-134320162D01*
X223969833Y-134319838D01*
X223957340Y-134325000D01*
X223532440Y-134325000D01*
X223532440Y-133495000D01*
X223488162Y-133259683D01*
X223349090Y-133043559D01*
X223136890Y-132898569D01*
X222885000Y-132847560D01*
X221615000Y-132847560D01*
X221379683Y-132891838D01*
X221163559Y-133030910D01*
X221018569Y-133243110D01*
X221018186Y-133245000D01*
X220938714Y-133245000D01*
X220809090Y-133043559D01*
X220596890Y-132898569D01*
X220445000Y-132867811D01*
X220445000Y-131287440D01*
X220810000Y-131287440D01*
X221045317Y-131243162D01*
X221261441Y-131104090D01*
X221406431Y-130891890D01*
X221457440Y-130640000D01*
X221457440Y-128516886D01*
X223000277Y-130059724D01*
X223238728Y-130219051D01*
X223520000Y-130275000D01*
X225740548Y-130275000D01*
X226069179Y-130766830D01*
X226632053Y-131142931D01*
X227296009Y-131275000D01*
X227363991Y-131275000D01*
X228027947Y-131142931D01*
X228590821Y-130766830D01*
X228966922Y-130203956D01*
X229098991Y-129540000D01*
X228966922Y-128876044D01*
X228590821Y-128313170D01*
X228027947Y-127937069D01*
X227363991Y-127805000D01*
X227296009Y-127805000D01*
X226632053Y-127937069D01*
X226069179Y-128313170D01*
X225740548Y-128805000D01*
X223824447Y-128805000D01*
X221909295Y-126889849D01*
X222255824Y-126543923D01*
X222289813Y-126462069D01*
X222322757Y-126541800D01*
X222726077Y-126945824D01*
X223253309Y-127164750D01*
X223824187Y-127165248D01*
X224165188Y-127024350D01*
X224503309Y-127164750D01*
X225074187Y-127165248D01*
X225601800Y-126947243D01*
X226005824Y-126543923D01*
X226038596Y-126465000D01*
X226744629Y-126465000D01*
X226950302Y-126772811D01*
X227415849Y-127083880D01*
X227965000Y-127193113D01*
X228514151Y-127083880D01*
X228979698Y-126772811D01*
X229290767Y-126307264D01*
X229400000Y-125758113D01*
X229400000Y-125701887D01*
X229290767Y-125152736D01*
X228979698Y-124687189D01*
X228514151Y-124376120D01*
X227965000Y-124266887D01*
X227415849Y-124376120D01*
X226950302Y-124687189D01*
X226744629Y-124995000D01*
X226038976Y-124995000D01*
X226007243Y-124918200D01*
X225603923Y-124514176D01*
X225566044Y-124498447D01*
X225582192Y-124482327D01*
X225724838Y-124138799D01*
X225725162Y-123766833D01*
X225583117Y-123423057D01*
X225320327Y-123159808D01*
X224976799Y-123017162D01*
X224948704Y-123017138D01*
X225150551Y-122815643D01*
X225384733Y-122251670D01*
X225385265Y-121641009D01*
X225152068Y-121076629D01*
X224720643Y-120644449D01*
X224156670Y-120410267D01*
X223812323Y-120409967D01*
X223942210Y-120280080D01*
X224153991Y-120280265D01*
X224718371Y-120047068D01*
X225150551Y-119615643D01*
X225384733Y-119051670D01*
X225385265Y-118441009D01*
X225152068Y-117876629D01*
X224920818Y-117644974D01*
X225150551Y-117415643D01*
X225384733Y-116851670D01*
X225385265Y-116241009D01*
X225152068Y-115676629D01*
X224920818Y-115444974D01*
X225150551Y-115215643D01*
X225384733Y-114651670D01*
X225385265Y-114041009D01*
X225152068Y-113476629D01*
X224722628Y-113046438D01*
X224713827Y-113002191D01*
X224511145Y-112698855D01*
X223287727Y-111475437D01*
X223336441Y-111444090D01*
X223349586Y-111424852D01*
X223499778Y-111424983D01*
X223525000Y-111430000D01*
X223689983Y-111430000D01*
X223690910Y-111431441D01*
X223903110Y-111576431D01*
X224155000Y-111627440D01*
X225425000Y-111627440D01*
X225660317Y-111583162D01*
X225876441Y-111444090D01*
X226021431Y-111231890D01*
X226072440Y-110980000D01*
X226072440Y-110010000D01*
X226042204Y-109849310D01*
X226072440Y-109700000D01*
X226072440Y-108730000D01*
X226028162Y-108494683D01*
X225889090Y-108278559D01*
X225676890Y-108133569D01*
X225425000Y-108082560D01*
X224155000Y-108082560D01*
X223919683Y-108126838D01*
X223703559Y-108265910D01*
X223693932Y-108280000D01*
X223350017Y-108280000D01*
X223349090Y-108278559D01*
X223136890Y-108133569D01*
X222885000Y-108082560D01*
X221615000Y-108082560D01*
X221379683Y-108126838D01*
X221163559Y-108265910D01*
X221153932Y-108280000D01*
X220810017Y-108280000D01*
X220809090Y-108278559D01*
X220596890Y-108133569D01*
X220345000Y-108082560D01*
X219899850Y-108082560D01*
X217582145Y-105764855D01*
X217278809Y-105562173D01*
X216921000Y-105491000D01*
X204548446Y-105491000D01*
X204984102Y-105055344D01*
X205380000Y-105134093D01*
X205948285Y-105021054D01*
X206430054Y-104699147D01*
X206751961Y-104217378D01*
X206865000Y-103649093D01*
X206865000Y-103590907D01*
X206751961Y-103022622D01*
X206430054Y-102540853D01*
X206421294Y-102535000D01*
X216534184Y-102535000D01*
X216720167Y-102535162D01*
X216720559Y-102535000D01*
X216782710Y-102535000D01*
X220953855Y-106706145D01*
X221257191Y-106908827D01*
X221615000Y-106980000D01*
X226307710Y-106980000D01*
X227030000Y-107702290D01*
X227030000Y-114475742D01*
X226749176Y-114756077D01*
X226530250Y-115283309D01*
X226529752Y-115854187D01*
X226747757Y-116381800D01*
X227151077Y-116785824D01*
X227678309Y-117004750D01*
X228249187Y-117005248D01*
X228776800Y-116787243D01*
X229180824Y-116383923D01*
X229399750Y-115856691D01*
X229400248Y-115285813D01*
X229182243Y-114758200D01*
X228900000Y-114475464D01*
X228900000Y-107315000D01*
X228828827Y-106957191D01*
X228626145Y-106653855D01*
X227356145Y-105383855D01*
X227052809Y-105181173D01*
X226695000Y-105110000D01*
X225979540Y-105110000D01*
X226175317Y-105073162D01*
X226391441Y-104934090D01*
X226536431Y-104721890D01*
X226558301Y-104613893D01*
X226863076Y-104891645D01*
X227273110Y-105061476D01*
X227503000Y-104940155D01*
X227503000Y-103747000D01*
X227757000Y-103747000D01*
X227757000Y-104940155D01*
X227986890Y-105061476D01*
X228396924Y-104891645D01*
X228825183Y-104501358D01*
X229071486Y-103976892D01*
X228950819Y-103747000D01*
X227757000Y-103747000D01*
X227503000Y-103747000D01*
X227483000Y-103747000D01*
X227483000Y-103493000D01*
X227503000Y-103493000D01*
X227503000Y-102299845D01*
X227757000Y-102299845D01*
X227757000Y-103493000D01*
X228950819Y-103493000D01*
X229071486Y-103263108D01*
X228825183Y-102738642D01*
X228396924Y-102348355D01*
X227986890Y-102178524D01*
X227757000Y-102299845D01*
X227503000Y-102299845D01*
X227273110Y-102178524D01*
X226863076Y-102348355D01*
X226560063Y-102624501D01*
X226543162Y-102534683D01*
X226404090Y-102318559D01*
X226191890Y-102173569D01*
X225940000Y-102122560D01*
X224240000Y-102122560D01*
X224004683Y-102166838D01*
X223788559Y-102305910D01*
X223643569Y-102518110D01*
X223592560Y-102770000D01*
X223592560Y-104470000D01*
X223636838Y-104705317D01*
X223775910Y-104921441D01*
X223988110Y-105066431D01*
X224203260Y-105110000D01*
X222002290Y-105110000D01*
X217831145Y-100938855D01*
X217527809Y-100736173D01*
X217396229Y-100710000D01*
X229180069Y-100710000D01*
X229738338Y-100821046D01*
X230152333Y-101097669D01*
X230428953Y-101511660D01*
X230540000Y-102069931D01*
X230540000Y-141680069D01*
X230428953Y-142238340D01*
X230152333Y-142652331D01*
X229738338Y-142928954D01*
X229180069Y-143040000D01*
X102069931Y-143040000D01*
X101511660Y-142928953D01*
X101097669Y-142652333D01*
X100821046Y-142238338D01*
X100710000Y-141680069D01*
X100710000Y-140415750D01*
X118335000Y-140415750D01*
X118335000Y-141106309D01*
X118431673Y-141339698D01*
X118610301Y-141518327D01*
X118843690Y-141615000D01*
X119534250Y-141615000D01*
X119693000Y-141456250D01*
X119693000Y-140257000D01*
X118493750Y-140257000D01*
X118335000Y-140415750D01*
X100710000Y-140415750D01*
X100710000Y-139153691D01*
X118335000Y-139153691D01*
X118335000Y-139844250D01*
X118493750Y-140003000D01*
X119693000Y-140003000D01*
X119693000Y-138803750D01*
X119947000Y-138803750D01*
X119947000Y-140003000D01*
X119967000Y-140003000D01*
X119967000Y-140257000D01*
X119947000Y-140257000D01*
X119947000Y-141456250D01*
X120105750Y-141615000D01*
X120796310Y-141615000D01*
X121029699Y-141518327D01*
X121208327Y-141339698D01*
X121280597Y-141165223D01*
X121309946Y-141209147D01*
X121791715Y-141531054D01*
X122360000Y-141644093D01*
X122928285Y-141531054D01*
X123410054Y-141209147D01*
X123630000Y-140879974D01*
X123849946Y-141209147D01*
X124331715Y-141531054D01*
X124900000Y-141644093D01*
X125468285Y-141531054D01*
X125950054Y-141209147D01*
X126170000Y-140879974D01*
X126389946Y-141209147D01*
X126871715Y-141531054D01*
X127440000Y-141644093D01*
X128008285Y-141531054D01*
X128490054Y-141209147D01*
X128710000Y-140879974D01*
X128929946Y-141209147D01*
X129411715Y-141531054D01*
X129980000Y-141644093D01*
X130548285Y-141531054D01*
X131030054Y-141209147D01*
X131250000Y-140879974D01*
X131469946Y-141209147D01*
X131951715Y-141531054D01*
X132520000Y-141644093D01*
X133088285Y-141531054D01*
X133570054Y-141209147D01*
X133790000Y-140879974D01*
X134009946Y-141209147D01*
X134491715Y-141531054D01*
X135060000Y-141644093D01*
X135628285Y-141531054D01*
X136110054Y-141209147D01*
X136330000Y-140879974D01*
X136549946Y-141209147D01*
X137031715Y-141531054D01*
X137600000Y-141644093D01*
X138168285Y-141531054D01*
X138650054Y-141209147D01*
X138877702Y-140868447D01*
X138944817Y-141011358D01*
X139373076Y-141401645D01*
X139783110Y-141571476D01*
X140013000Y-141450155D01*
X140013000Y-140257000D01*
X139993000Y-140257000D01*
X139993000Y-140003000D01*
X140013000Y-140003000D01*
X140013000Y-138809845D01*
X139783110Y-138688524D01*
X139373076Y-138858355D01*
X138944817Y-139248642D01*
X138877702Y-139391553D01*
X138650054Y-139050853D01*
X138168285Y-138728946D01*
X137600000Y-138615907D01*
X137031715Y-138728946D01*
X136549946Y-139050853D01*
X136330000Y-139380026D01*
X136110054Y-139050853D01*
X135628285Y-138728946D01*
X135060000Y-138615907D01*
X134491715Y-138728946D01*
X134009946Y-139050853D01*
X133790000Y-139380026D01*
X133570054Y-139050853D01*
X133088285Y-138728946D01*
X132520000Y-138615907D01*
X131951715Y-138728946D01*
X131469946Y-139050853D01*
X131250000Y-139380026D01*
X131030054Y-139050853D01*
X130548285Y-138728946D01*
X129980000Y-138615907D01*
X129411715Y-138728946D01*
X128929946Y-139050853D01*
X128710000Y-139380026D01*
X128490054Y-139050853D01*
X128008285Y-138728946D01*
X127440000Y-138615907D01*
X126871715Y-138728946D01*
X126389946Y-139050853D01*
X126170000Y-139380026D01*
X125950054Y-139050853D01*
X125468285Y-138728946D01*
X124900000Y-138615907D01*
X124331715Y-138728946D01*
X123849946Y-139050853D01*
X123630000Y-139380026D01*
X123410054Y-139050853D01*
X122928285Y-138728946D01*
X122360000Y-138615907D01*
X121791715Y-138728946D01*
X121309946Y-139050853D01*
X121280597Y-139094777D01*
X121208327Y-138920302D01*
X121029699Y-138741673D01*
X120796310Y-138645000D01*
X120105750Y-138645000D01*
X119947000Y-138803750D01*
X119693000Y-138803750D01*
X119534250Y-138645000D01*
X118843690Y-138645000D01*
X118610301Y-138741673D01*
X118431673Y-138920302D01*
X118335000Y-139153691D01*
X100710000Y-139153691D01*
X100710000Y-116806009D01*
X102405000Y-116806009D01*
X102405000Y-116873991D01*
X102537069Y-117537947D01*
X102913170Y-118100821D01*
X103476044Y-118476922D01*
X104140000Y-118608991D01*
X104803956Y-118476922D01*
X105366830Y-118100821D01*
X105742931Y-117537947D01*
X105875000Y-116873991D01*
X105875000Y-116806009D01*
X105961000Y-116806009D01*
X105961000Y-116873991D01*
X106093069Y-117537947D01*
X106469170Y-118100821D01*
X107032044Y-118476922D01*
X107696000Y-118608991D01*
X108359956Y-118476922D01*
X108922830Y-118100821D01*
X109298931Y-117537947D01*
X109431000Y-116873991D01*
X109431000Y-116806009D01*
X109517000Y-116806009D01*
X109517000Y-116873991D01*
X109649069Y-117537947D01*
X110025170Y-118100821D01*
X110588044Y-118476922D01*
X111252000Y-118608991D01*
X111915956Y-118476922D01*
X112478830Y-118100821D01*
X112854931Y-117537947D01*
X112987000Y-116873991D01*
X112987000Y-116806009D01*
X113073000Y-116806009D01*
X113073000Y-116873991D01*
X113205069Y-117537947D01*
X113581170Y-118100821D01*
X114144044Y-118476922D01*
X114808000Y-118608991D01*
X115471956Y-118476922D01*
X116034830Y-118100821D01*
X116410931Y-117537947D01*
X116543000Y-116873991D01*
X116543000Y-116806009D01*
X116629000Y-116806009D01*
X116629000Y-116873991D01*
X116761069Y-117537947D01*
X117137170Y-118100821D01*
X117700044Y-118476922D01*
X118364000Y-118608991D01*
X119027956Y-118476922D01*
X119590830Y-118100821D01*
X119966931Y-117537947D01*
X120099000Y-116873991D01*
X120099000Y-116806009D01*
X120185000Y-116806009D01*
X120185000Y-116873991D01*
X120317069Y-117537947D01*
X120693170Y-118100821D01*
X121256044Y-118476922D01*
X121920000Y-118608991D01*
X122583956Y-118476922D01*
X123146830Y-118100821D01*
X123522931Y-117537947D01*
X123655000Y-116873991D01*
X123655000Y-116806009D01*
X123741000Y-116806009D01*
X123741000Y-116873991D01*
X123873069Y-117537947D01*
X124249170Y-118100821D01*
X124812044Y-118476922D01*
X125476000Y-118608991D01*
X126139956Y-118476922D01*
X126702830Y-118100821D01*
X127078931Y-117537947D01*
X127211000Y-116873991D01*
X127211000Y-116806009D01*
X127297000Y-116806009D01*
X127297000Y-116873991D01*
X127429069Y-117537947D01*
X127805170Y-118100821D01*
X128368044Y-118476922D01*
X129032000Y-118608991D01*
X129695956Y-118476922D01*
X130258830Y-118100821D01*
X130634931Y-117537947D01*
X130767000Y-116873991D01*
X130767000Y-116806009D01*
X130634931Y-116142053D01*
X130258830Y-115579179D01*
X129695956Y-115203078D01*
X129032000Y-115071009D01*
X128368044Y-115203078D01*
X127805170Y-115579179D01*
X127429069Y-116142053D01*
X127297000Y-116806009D01*
X127211000Y-116806009D01*
X127078931Y-116142053D01*
X126702830Y-115579179D01*
X126139956Y-115203078D01*
X125476000Y-115071009D01*
X124812044Y-115203078D01*
X124249170Y-115579179D01*
X123873069Y-116142053D01*
X123741000Y-116806009D01*
X123655000Y-116806009D01*
X123522931Y-116142053D01*
X123146830Y-115579179D01*
X122583956Y-115203078D01*
X121920000Y-115071009D01*
X121256044Y-115203078D01*
X120693170Y-115579179D01*
X120317069Y-116142053D01*
X120185000Y-116806009D01*
X120099000Y-116806009D01*
X119966931Y-116142053D01*
X119590830Y-115579179D01*
X119027956Y-115203078D01*
X118364000Y-115071009D01*
X117700044Y-115203078D01*
X117137170Y-115579179D01*
X116761069Y-116142053D01*
X116629000Y-116806009D01*
X116543000Y-116806009D01*
X116410931Y-116142053D01*
X116034830Y-115579179D01*
X115471956Y-115203078D01*
X114808000Y-115071009D01*
X114144044Y-115203078D01*
X113581170Y-115579179D01*
X113205069Y-116142053D01*
X113073000Y-116806009D01*
X112987000Y-116806009D01*
X112854931Y-116142053D01*
X112478830Y-115579179D01*
X111915956Y-115203078D01*
X111252000Y-115071009D01*
X110588044Y-115203078D01*
X110025170Y-115579179D01*
X109649069Y-116142053D01*
X109517000Y-116806009D01*
X109431000Y-116806009D01*
X109298931Y-116142053D01*
X108922830Y-115579179D01*
X108359956Y-115203078D01*
X107696000Y-115071009D01*
X107032044Y-115203078D01*
X106469170Y-115579179D01*
X106093069Y-116142053D01*
X105961000Y-116806009D01*
X105875000Y-116806009D01*
X105742931Y-116142053D01*
X105366830Y-115579179D01*
X104803956Y-115203078D01*
X104140000Y-115071009D01*
X103476044Y-115203078D01*
X102913170Y-115579179D01*
X102537069Y-116142053D01*
X102405000Y-116806009D01*
X100710000Y-116806009D01*
X100710000Y-110998000D01*
X113525560Y-110998000D01*
X113525560Y-112522000D01*
X113569838Y-112757317D01*
X113708910Y-112973441D01*
X113921110Y-113118431D01*
X114173000Y-113169440D01*
X115697000Y-113169440D01*
X115932317Y-113125162D01*
X116148441Y-112986090D01*
X116293431Y-112773890D01*
X116344440Y-112522000D01*
X116344440Y-110998000D01*
X116300162Y-110762683D01*
X116161090Y-110546559D01*
X115948890Y-110401569D01*
X115697000Y-110350560D01*
X115692484Y-110350560D01*
X115735608Y-110200213D01*
X114935000Y-109399605D01*
X114134392Y-110200213D01*
X114177516Y-110350560D01*
X114173000Y-110350560D01*
X113937683Y-110394838D01*
X113721559Y-110533910D01*
X113576569Y-110746110D01*
X113525560Y-110998000D01*
X100710000Y-110998000D01*
X100710000Y-102069931D01*
X100821046Y-101511662D01*
X101097669Y-101097667D01*
X101511660Y-100821047D01*
X102069931Y-100710000D01*
X127408771Y-100710000D01*
X127277191Y-100736173D01*
G36*
X222595798Y-113428088D02*
X222549449Y-113474357D01*
X222315267Y-114038330D01*
X222314735Y-114648991D01*
X222547932Y-115213371D01*
X222779182Y-115445026D01*
X222549449Y-115674357D01*
X222315267Y-116238330D01*
X222314735Y-116848991D01*
X222547932Y-117413371D01*
X222779182Y-117645026D01*
X222549449Y-117874357D01*
X222315267Y-118438330D01*
X222314735Y-119048991D01*
X222377300Y-119200410D01*
X222116710Y-119461000D01*
X222022551Y-119461000D01*
X222196458Y-118985664D01*
X222170839Y-118375540D01*
X221986643Y-117930852D01*
X221730159Y-117844446D01*
X220829605Y-118745000D01*
X220843748Y-118759143D01*
X220664143Y-118938748D01*
X220650000Y-118924605D01*
X220635858Y-118938748D01*
X220456253Y-118759143D01*
X220470395Y-118745000D01*
X219569841Y-117844446D01*
X219313357Y-117930852D01*
X219249549Y-118105259D01*
X219228145Y-118083855D01*
X218924809Y-117881173D01*
X218567000Y-117810000D01*
X213655555Y-117810000D01*
X213490818Y-117644974D01*
X213720551Y-117415643D01*
X213954733Y-116851670D01*
X213955265Y-116241009D01*
X213795434Y-115854187D01*
X215099752Y-115854187D01*
X215317757Y-116381800D01*
X215721077Y-116785824D01*
X216248309Y-117004750D01*
X216819187Y-117005248D01*
X217346800Y-116787243D01*
X217750824Y-116383923D01*
X217969750Y-115856691D01*
X217970248Y-115285813D01*
X217752243Y-114758200D01*
X217643225Y-114648991D01*
X219114735Y-114648991D01*
X219347932Y-115213371D01*
X219579182Y-115445026D01*
X219349449Y-115674357D01*
X219115267Y-116238330D01*
X219114735Y-116848991D01*
X219347932Y-117413371D01*
X219779357Y-117845551D01*
X220037237Y-117952632D01*
X220650000Y-118565395D01*
X221262676Y-117952719D01*
X221518371Y-117847068D01*
X221950551Y-117415643D01*
X222184733Y-116851670D01*
X222185265Y-116241009D01*
X221952068Y-115676629D01*
X221720818Y-115444974D01*
X221950551Y-115215643D01*
X222184733Y-114651670D01*
X222185265Y-114041009D01*
X221952068Y-113476629D01*
X221520643Y-113044449D01*
X220956670Y-112810267D01*
X220346009Y-112809735D01*
X219781629Y-113042932D01*
X219349449Y-113474357D01*
X219115267Y-114038330D01*
X219114735Y-114648991D01*
X217643225Y-114648991D01*
X217348923Y-114354176D01*
X216821691Y-114135250D01*
X216250813Y-114134752D01*
X215723200Y-114352757D01*
X215319176Y-114756077D01*
X215100250Y-115283309D01*
X215099752Y-115854187D01*
X213795434Y-115854187D01*
X213722068Y-115676629D01*
X213490818Y-115444974D01*
X213720551Y-115215643D01*
X213954733Y-114651670D01*
X213955265Y-114041009D01*
X213818908Y-113711000D01*
X218439184Y-113711000D01*
X218625167Y-113711162D01*
X218968943Y-113569117D01*
X219232192Y-113306327D01*
X219374838Y-112962799D01*
X219375071Y-112695000D01*
X221862710Y-112695000D01*
X222595798Y-113428088D01*
X222595798Y-113428088D01*
G37*
X222595798Y-113428088D02*
X222549449Y-113474357D01*
X222315267Y-114038330D01*
X222314735Y-114648991D01*
X222547932Y-115213371D01*
X222779182Y-115445026D01*
X222549449Y-115674357D01*
X222315267Y-116238330D01*
X222314735Y-116848991D01*
X222547932Y-117413371D01*
X222779182Y-117645026D01*
X222549449Y-117874357D01*
X222315267Y-118438330D01*
X222314735Y-119048991D01*
X222377300Y-119200410D01*
X222116710Y-119461000D01*
X222022551Y-119461000D01*
X222196458Y-118985664D01*
X222170839Y-118375540D01*
X221986643Y-117930852D01*
X221730159Y-117844446D01*
X220829605Y-118745000D01*
X220843748Y-118759143D01*
X220664143Y-118938748D01*
X220650000Y-118924605D01*
X220635858Y-118938748D01*
X220456253Y-118759143D01*
X220470395Y-118745000D01*
X219569841Y-117844446D01*
X219313357Y-117930852D01*
X219249549Y-118105259D01*
X219228145Y-118083855D01*
X218924809Y-117881173D01*
X218567000Y-117810000D01*
X213655555Y-117810000D01*
X213490818Y-117644974D01*
X213720551Y-117415643D01*
X213954733Y-116851670D01*
X213955265Y-116241009D01*
X213795434Y-115854187D01*
X215099752Y-115854187D01*
X215317757Y-116381800D01*
X215721077Y-116785824D01*
X216248309Y-117004750D01*
X216819187Y-117005248D01*
X217346800Y-116787243D01*
X217750824Y-116383923D01*
X217969750Y-115856691D01*
X217970248Y-115285813D01*
X217752243Y-114758200D01*
X217643225Y-114648991D01*
X219114735Y-114648991D01*
X219347932Y-115213371D01*
X219579182Y-115445026D01*
X219349449Y-115674357D01*
X219115267Y-116238330D01*
X219114735Y-116848991D01*
X219347932Y-117413371D01*
X219779357Y-117845551D01*
X220037237Y-117952632D01*
X220650000Y-118565395D01*
X221262676Y-117952719D01*
X221518371Y-117847068D01*
X221950551Y-117415643D01*
X222184733Y-116851670D01*
X222185265Y-116241009D01*
X221952068Y-115676629D01*
X221720818Y-115444974D01*
X221950551Y-115215643D01*
X222184733Y-114651670D01*
X222185265Y-114041009D01*
X221952068Y-113476629D01*
X221520643Y-113044449D01*
X220956670Y-112810267D01*
X220346009Y-112809735D01*
X219781629Y-113042932D01*
X219349449Y-113474357D01*
X219115267Y-114038330D01*
X219114735Y-114648991D01*
X217643225Y-114648991D01*
X217348923Y-114354176D01*
X216821691Y-114135250D01*
X216250813Y-114134752D01*
X215723200Y-114352757D01*
X215319176Y-114756077D01*
X215100250Y-115283309D01*
X215099752Y-115854187D01*
X213795434Y-115854187D01*
X213722068Y-115676629D01*
X213490818Y-115444974D01*
X213720551Y-115215643D01*
X213954733Y-114651670D01*
X213955265Y-114041009D01*
X213818908Y-113711000D01*
X218439184Y-113711000D01*
X218625167Y-113711162D01*
X218968943Y-113569117D01*
X219232192Y-113306327D01*
X219374838Y-112962799D01*
X219375071Y-112695000D01*
X221862710Y-112695000D01*
X222595798Y-113428088D01*
G36*
X210885267Y-114038330D02*
X210884735Y-114648991D01*
X211117932Y-115213371D01*
X211349182Y-115445026D01*
X211119449Y-115674357D01*
X210885267Y-116238330D01*
X210884735Y-116848991D01*
X211117932Y-117413371D01*
X211349182Y-117645026D01*
X211119449Y-117874357D01*
X210885267Y-118438330D01*
X210884735Y-119048991D01*
X211054974Y-119461000D01*
X210592551Y-119461000D01*
X210766458Y-118985664D01*
X210740839Y-118375540D01*
X210556643Y-117930852D01*
X210300159Y-117844446D01*
X209399605Y-118745000D01*
X209413748Y-118759143D01*
X209234143Y-118938748D01*
X209220000Y-118924605D01*
X209205858Y-118938748D01*
X209026253Y-118759143D01*
X209040395Y-118745000D01*
X209026253Y-118730858D01*
X209205858Y-118551253D01*
X209220000Y-118565395D01*
X209832676Y-117952719D01*
X210088371Y-117847068D01*
X210520551Y-117415643D01*
X210754733Y-116851670D01*
X210755265Y-116241009D01*
X210522068Y-115676629D01*
X210290818Y-115444974D01*
X210520551Y-115215643D01*
X210754733Y-114651670D01*
X210755265Y-114041009D01*
X210618908Y-113711000D01*
X211021186Y-113711000D01*
X210885267Y-114038330D01*
X210885267Y-114038330D01*
G37*
X210885267Y-114038330D02*
X210884735Y-114648991D01*
X211117932Y-115213371D01*
X211349182Y-115445026D01*
X211119449Y-115674357D01*
X210885267Y-116238330D01*
X210884735Y-116848991D01*
X211117932Y-117413371D01*
X211349182Y-117645026D01*
X211119449Y-117874357D01*
X210885267Y-118438330D01*
X210884735Y-119048991D01*
X211054974Y-119461000D01*
X210592551Y-119461000D01*
X210766458Y-118985664D01*
X210740839Y-118375540D01*
X210556643Y-117930852D01*
X210300159Y-117844446D01*
X209399605Y-118745000D01*
X209413748Y-118759143D01*
X209234143Y-118938748D01*
X209220000Y-118924605D01*
X209205858Y-118938748D01*
X209026253Y-118759143D01*
X209040395Y-118745000D01*
X209026253Y-118730858D01*
X209205858Y-118551253D01*
X209220000Y-118565395D01*
X209832676Y-117952719D01*
X210088371Y-117847068D01*
X210520551Y-117415643D01*
X210754733Y-116851670D01*
X210755265Y-116241009D01*
X210522068Y-115676629D01*
X210290818Y-115444974D01*
X210520551Y-115215643D01*
X210754733Y-114651670D01*
X210755265Y-114041009D01*
X210618908Y-113711000D01*
X211021186Y-113711000D01*
X210885267Y-114038330D01*
G36*
X147032560Y-102770000D02*
X147032560Y-104470000D01*
X147076838Y-104705317D01*
X147215910Y-104921441D01*
X147428110Y-105066431D01*
X147595000Y-105100227D01*
X147595000Y-105985000D01*
X147666173Y-106342809D01*
X147868855Y-106646145D01*
X148237710Y-107015000D01*
X147072290Y-107015000D01*
X146711145Y-106653855D01*
X146407809Y-106451173D01*
X146050000Y-106380000D01*
X123667440Y-106380000D01*
X123667440Y-106145000D01*
X127030000Y-106145000D01*
X127311272Y-106089051D01*
X127549723Y-105929723D01*
X128424102Y-105055344D01*
X128820000Y-105134093D01*
X129388285Y-105021054D01*
X129870054Y-104699147D01*
X130191961Y-104217378D01*
X130305000Y-103649093D01*
X130305000Y-103590907D01*
X130191961Y-103022622D01*
X129870054Y-102540853D01*
X129861294Y-102535000D01*
X147080149Y-102535000D01*
X147032560Y-102770000D01*
X147032560Y-102770000D01*
G37*
X147032560Y-102770000D02*
X147032560Y-104470000D01*
X147076838Y-104705317D01*
X147215910Y-104921441D01*
X147428110Y-105066431D01*
X147595000Y-105100227D01*
X147595000Y-105985000D01*
X147666173Y-106342809D01*
X147868855Y-106646145D01*
X148237710Y-107015000D01*
X147072290Y-107015000D01*
X146711145Y-106653855D01*
X146407809Y-106451173D01*
X146050000Y-106380000D01*
X123667440Y-106380000D01*
X123667440Y-106145000D01*
X127030000Y-106145000D01*
X127311272Y-106089051D01*
X127549723Y-105929723D01*
X128424102Y-105055344D01*
X128820000Y-105134093D01*
X129388285Y-105021054D01*
X129870054Y-104699147D01*
X130191961Y-104217378D01*
X130305000Y-103649093D01*
X130305000Y-103590907D01*
X130191961Y-103022622D01*
X129870054Y-102540853D01*
X129861294Y-102535000D01*
X147080149Y-102535000D01*
X147032560Y-102770000D01*
G36*
X185312560Y-102770000D02*
X185312560Y-104470000D01*
X185356838Y-104705317D01*
X185495910Y-104921441D01*
X185708110Y-105066431D01*
X185960000Y-105117440D01*
X187660000Y-105117440D01*
X187895317Y-105073162D01*
X188111441Y-104934090D01*
X188256431Y-104721890D01*
X188278301Y-104613893D01*
X188583076Y-104891645D01*
X188993110Y-105061476D01*
X189223000Y-104940155D01*
X189223000Y-103747000D01*
X189477000Y-103747000D01*
X189477000Y-104940155D01*
X189706890Y-105061476D01*
X190116924Y-104891645D01*
X190545183Y-104501358D01*
X190791486Y-103976892D01*
X190670819Y-103747000D01*
X189477000Y-103747000D01*
X189223000Y-103747000D01*
X189203000Y-103747000D01*
X189203000Y-103493000D01*
X189223000Y-103493000D01*
X189223000Y-103473000D01*
X189477000Y-103473000D01*
X189477000Y-103493000D01*
X190670819Y-103493000D01*
X190791486Y-103263108D01*
X190545183Y-102738642D01*
X190321728Y-102535000D01*
X201390149Y-102535000D01*
X201342560Y-102770000D01*
X201342560Y-104470000D01*
X201381133Y-104675000D01*
X195422440Y-104675000D01*
X195422440Y-104310000D01*
X195378162Y-104074683D01*
X195239090Y-103858559D01*
X195026890Y-103713569D01*
X194775000Y-103662560D01*
X192575000Y-103662560D01*
X192339683Y-103706838D01*
X192123559Y-103845910D01*
X191978569Y-104058110D01*
X191927560Y-104310000D01*
X191927560Y-106214998D01*
X174847288Y-106214998D01*
X174143145Y-105510855D01*
X173839809Y-105308173D01*
X173482000Y-105237000D01*
X166522446Y-105237000D01*
X166704102Y-105055344D01*
X167100000Y-105134093D01*
X167668285Y-105021054D01*
X168150054Y-104699147D01*
X168471961Y-104217378D01*
X168585000Y-103649093D01*
X168585000Y-103590907D01*
X168471961Y-103022622D01*
X168150054Y-102540853D01*
X168141294Y-102535000D01*
X185360149Y-102535000D01*
X185312560Y-102770000D01*
X185312560Y-102770000D01*
G37*
X185312560Y-102770000D02*
X185312560Y-104470000D01*
X185356838Y-104705317D01*
X185495910Y-104921441D01*
X185708110Y-105066431D01*
X185960000Y-105117440D01*
X187660000Y-105117440D01*
X187895317Y-105073162D01*
X188111441Y-104934090D01*
X188256431Y-104721890D01*
X188278301Y-104613893D01*
X188583076Y-104891645D01*
X188993110Y-105061476D01*
X189223000Y-104940155D01*
X189223000Y-103747000D01*
X189477000Y-103747000D01*
X189477000Y-104940155D01*
X189706890Y-105061476D01*
X190116924Y-104891645D01*
X190545183Y-104501358D01*
X190791486Y-103976892D01*
X190670819Y-103747000D01*
X189477000Y-103747000D01*
X189223000Y-103747000D01*
X189203000Y-103747000D01*
X189203000Y-103493000D01*
X189223000Y-103493000D01*
X189223000Y-103473000D01*
X189477000Y-103473000D01*
X189477000Y-103493000D01*
X190670819Y-103493000D01*
X190791486Y-103263108D01*
X190545183Y-102738642D01*
X190321728Y-102535000D01*
X201390149Y-102535000D01*
X201342560Y-102770000D01*
X201342560Y-104470000D01*
X201381133Y-104675000D01*
X195422440Y-104675000D01*
X195422440Y-104310000D01*
X195378162Y-104074683D01*
X195239090Y-103858559D01*
X195026890Y-103713569D01*
X194775000Y-103662560D01*
X192575000Y-103662560D01*
X192339683Y-103706838D01*
X192123559Y-103845910D01*
X191978569Y-104058110D01*
X191927560Y-104310000D01*
X191927560Y-106214998D01*
X174847288Y-106214998D01*
X174143145Y-105510855D01*
X173839809Y-105308173D01*
X173482000Y-105237000D01*
X166522446Y-105237000D01*
X166704102Y-105055344D01*
X167100000Y-105134093D01*
X167668285Y-105021054D01*
X168150054Y-104699147D01*
X168471961Y-104217378D01*
X168585000Y-103649093D01*
X168585000Y-103590907D01*
X168471961Y-103022622D01*
X168150054Y-102540853D01*
X168141294Y-102535000D01*
X185360149Y-102535000D01*
X185312560Y-102770000D01*
G36*
X163062560Y-102770000D02*
X163062560Y-104470000D01*
X163101133Y-104675000D01*
X162402440Y-104675000D01*
X162402440Y-104310000D01*
X162358162Y-104074683D01*
X162219090Y-103858559D01*
X162006890Y-103713569D01*
X161755000Y-103662560D01*
X159555000Y-103662560D01*
X159319683Y-103706838D01*
X159103559Y-103845910D01*
X158958569Y-104058110D01*
X158907560Y-104310000D01*
X158907560Y-106126000D01*
X149993290Y-106126000D01*
X149465000Y-105597710D01*
X149465000Y-105101446D01*
X149615317Y-105073162D01*
X149831441Y-104934090D01*
X149976431Y-104721890D01*
X149998301Y-104613893D01*
X150303076Y-104891645D01*
X150713110Y-105061476D01*
X150943000Y-104940155D01*
X150943000Y-103747000D01*
X151197000Y-103747000D01*
X151197000Y-104940155D01*
X151426890Y-105061476D01*
X151836924Y-104891645D01*
X152265183Y-104501358D01*
X152511486Y-103976892D01*
X152390819Y-103747000D01*
X151197000Y-103747000D01*
X150943000Y-103747000D01*
X150923000Y-103747000D01*
X150923000Y-103493000D01*
X150943000Y-103493000D01*
X150943000Y-103473000D01*
X151197000Y-103473000D01*
X151197000Y-103493000D01*
X152390819Y-103493000D01*
X152511486Y-103263108D01*
X152265183Y-102738642D01*
X152041728Y-102535000D01*
X163110149Y-102535000D01*
X163062560Y-102770000D01*
X163062560Y-102770000D01*
G37*
X163062560Y-102770000D02*
X163062560Y-104470000D01*
X163101133Y-104675000D01*
X162402440Y-104675000D01*
X162402440Y-104310000D01*
X162358162Y-104074683D01*
X162219090Y-103858559D01*
X162006890Y-103713569D01*
X161755000Y-103662560D01*
X159555000Y-103662560D01*
X159319683Y-103706838D01*
X159103559Y-103845910D01*
X158958569Y-104058110D01*
X158907560Y-104310000D01*
X158907560Y-106126000D01*
X149993290Y-106126000D01*
X149465000Y-105597710D01*
X149465000Y-105101446D01*
X149615317Y-105073162D01*
X149831441Y-104934090D01*
X149976431Y-104721890D01*
X149998301Y-104613893D01*
X150303076Y-104891645D01*
X150713110Y-105061476D01*
X150943000Y-104940155D01*
X150943000Y-103747000D01*
X151197000Y-103747000D01*
X151197000Y-104940155D01*
X151426890Y-105061476D01*
X151836924Y-104891645D01*
X152265183Y-104501358D01*
X152511486Y-103976892D01*
X152390819Y-103747000D01*
X151197000Y-103747000D01*
X150943000Y-103747000D01*
X150923000Y-103747000D01*
X150923000Y-103493000D01*
X150943000Y-103493000D01*
X150943000Y-103473000D01*
X151197000Y-103473000D01*
X151197000Y-103493000D01*
X152390819Y-103493000D01*
X152511486Y-103263108D01*
X152265183Y-102738642D01*
X152041728Y-102535000D01*
X163110149Y-102535000D01*
X163062560Y-102770000D01*
M02*
