G04 #@! TF.FileFunction,Legend,Bot*
%FSLAX46Y46*%
G04 Gerber Fmt 4.6, Leading zero omitted, Abs format (unit mm)*
G04 Created by KiCad (PCBNEW 4.0.4+e1-6308~48~ubuntu16.04.1-stable) date Mon Jan 22 22:00:05 2018*
%MOMM*%
%LPD*%
G01*
G04 APERTURE LIST*
%ADD10C,0.100000*%
%ADD11C,0.150000*%
%ADD12C,0.010000*%
G04 APERTURE END LIST*
D10*
D11*
X227869762Y-138327381D02*
X227298333Y-138327381D01*
X227584048Y-139327381D02*
X227584048Y-138327381D01*
X226584047Y-139279762D02*
X226679285Y-139327381D01*
X226869762Y-139327381D01*
X226965000Y-139279762D01*
X227012619Y-139184524D01*
X227012619Y-138803571D01*
X226965000Y-138708333D01*
X226869762Y-138660714D01*
X226679285Y-138660714D01*
X226584047Y-138708333D01*
X226536428Y-138803571D01*
X226536428Y-138898810D01*
X227012619Y-138994048D01*
X226107857Y-138660714D02*
X226107857Y-139327381D01*
X226107857Y-138755952D02*
X226060238Y-138708333D01*
X225965000Y-138660714D01*
X225822142Y-138660714D01*
X225726904Y-138708333D01*
X225679285Y-138803571D01*
X225679285Y-139327381D01*
X225250714Y-139279762D02*
X225155476Y-139327381D01*
X224965000Y-139327381D01*
X224869761Y-139279762D01*
X224822142Y-139184524D01*
X224822142Y-139136905D01*
X224869761Y-139041667D01*
X224965000Y-138994048D01*
X225107857Y-138994048D01*
X225203095Y-138946429D01*
X225250714Y-138851190D01*
X225250714Y-138803571D01*
X225203095Y-138708333D01*
X225107857Y-138660714D01*
X224965000Y-138660714D01*
X224869761Y-138708333D01*
X224393571Y-139327381D02*
X224393571Y-138327381D01*
X224155476Y-138327381D01*
X224012618Y-138375000D01*
X223917380Y-138470238D01*
X223869761Y-138565476D01*
X223822142Y-138755952D01*
X223822142Y-138898810D01*
X223869761Y-139089286D01*
X223917380Y-139184524D01*
X224012618Y-139279762D01*
X224155476Y-139327381D01*
X224393571Y-139327381D01*
X223012618Y-139279762D02*
X223107856Y-139327381D01*
X223298333Y-139327381D01*
X223393571Y-139279762D01*
X223441190Y-139184524D01*
X223441190Y-138803571D01*
X223393571Y-138708333D01*
X223298333Y-138660714D01*
X223107856Y-138660714D01*
X223012618Y-138708333D01*
X222964999Y-138803571D01*
X222964999Y-138898810D01*
X223441190Y-138994048D01*
X222107856Y-139279762D02*
X222203094Y-139327381D01*
X222393571Y-139327381D01*
X222488809Y-139279762D01*
X222536428Y-139232143D01*
X222584047Y-139136905D01*
X222584047Y-138851190D01*
X222536428Y-138755952D01*
X222488809Y-138708333D01*
X222393571Y-138660714D01*
X222203094Y-138660714D01*
X222107856Y-138708333D01*
X221536428Y-139327381D02*
X221631666Y-139279762D01*
X221679285Y-139232143D01*
X221726904Y-139136905D01*
X221726904Y-138851190D01*
X221679285Y-138755952D01*
X221631666Y-138708333D01*
X221536428Y-138660714D01*
X221393570Y-138660714D01*
X221298332Y-138708333D01*
X221250713Y-138755952D01*
X221203094Y-138851190D01*
X221203094Y-139136905D01*
X221250713Y-139232143D01*
X221298332Y-139279762D01*
X221393570Y-139327381D01*
X221536428Y-139327381D01*
X220345951Y-139327381D02*
X220345951Y-138327381D01*
X220345951Y-139279762D02*
X220441189Y-139327381D01*
X220631666Y-139327381D01*
X220726904Y-139279762D01*
X220774523Y-139232143D01*
X220822142Y-139136905D01*
X220822142Y-138851190D01*
X220774523Y-138755952D01*
X220726904Y-138708333D01*
X220631666Y-138660714D01*
X220441189Y-138660714D01*
X220345951Y-138708333D01*
X219488808Y-139279762D02*
X219584046Y-139327381D01*
X219774523Y-139327381D01*
X219869761Y-139279762D01*
X219917380Y-139184524D01*
X219917380Y-138803571D01*
X219869761Y-138708333D01*
X219774523Y-138660714D01*
X219584046Y-138660714D01*
X219488808Y-138708333D01*
X219441189Y-138803571D01*
X219441189Y-138898810D01*
X219917380Y-138994048D01*
X219012618Y-139327381D02*
X219012618Y-138660714D01*
X219012618Y-138851190D02*
X218964999Y-138755952D01*
X218917380Y-138708333D01*
X218822142Y-138660714D01*
X218726903Y-138660714D01*
X227726905Y-140977381D02*
X227726905Y-140310714D01*
X227726905Y-140501190D02*
X227679286Y-140405952D01*
X227631667Y-140358333D01*
X227536429Y-140310714D01*
X227441190Y-140310714D01*
X226726904Y-140929762D02*
X226822142Y-140977381D01*
X227012619Y-140977381D01*
X227107857Y-140929762D01*
X227155476Y-140834524D01*
X227155476Y-140453571D01*
X227107857Y-140358333D01*
X227012619Y-140310714D01*
X226822142Y-140310714D01*
X226726904Y-140358333D01*
X226679285Y-140453571D01*
X226679285Y-140548810D01*
X227155476Y-140644048D01*
X226107857Y-140977381D02*
X226203095Y-140929762D01*
X226250714Y-140834524D01*
X226250714Y-139977381D01*
X225298332Y-140977381D02*
X225298332Y-140453571D01*
X225345951Y-140358333D01*
X225441189Y-140310714D01*
X225631666Y-140310714D01*
X225726904Y-140358333D01*
X225298332Y-140929762D02*
X225393570Y-140977381D01*
X225631666Y-140977381D01*
X225726904Y-140929762D01*
X225774523Y-140834524D01*
X225774523Y-140739286D01*
X225726904Y-140644048D01*
X225631666Y-140596429D01*
X225393570Y-140596429D01*
X225298332Y-140548810D01*
X224917380Y-140310714D02*
X224679285Y-140977381D01*
X224441189Y-140310714D02*
X224679285Y-140977381D01*
X224774523Y-141215476D01*
X224822142Y-141263095D01*
X224917380Y-141310714D01*
X223488808Y-140882143D02*
X223536427Y-140929762D01*
X223679284Y-140977381D01*
X223774522Y-140977381D01*
X223917380Y-140929762D01*
X224012618Y-140834524D01*
X224060237Y-140739286D01*
X224107856Y-140548810D01*
X224107856Y-140405952D01*
X224060237Y-140215476D01*
X224012618Y-140120238D01*
X223917380Y-140025000D01*
X223774522Y-139977381D01*
X223679284Y-139977381D01*
X223536427Y-140025000D01*
X223488808Y-140072619D01*
X222917380Y-140977381D02*
X223012618Y-140929762D01*
X223060237Y-140834524D01*
X223060237Y-139977381D01*
X222393570Y-140977381D02*
X222488808Y-140929762D01*
X222536427Y-140882143D01*
X222584046Y-140786905D01*
X222584046Y-140501190D01*
X222536427Y-140405952D01*
X222488808Y-140358333D01*
X222393570Y-140310714D01*
X222250712Y-140310714D01*
X222155474Y-140358333D01*
X222107855Y-140405952D01*
X222060236Y-140501190D01*
X222060236Y-140786905D01*
X222107855Y-140882143D01*
X222155474Y-140929762D01*
X222250712Y-140977381D01*
X222393570Y-140977381D01*
X221203093Y-140929762D02*
X221298331Y-140977381D01*
X221488808Y-140977381D01*
X221584046Y-140929762D01*
X221631665Y-140882143D01*
X221679284Y-140786905D01*
X221679284Y-140501190D01*
X221631665Y-140405952D01*
X221584046Y-140358333D01*
X221488808Y-140310714D01*
X221298331Y-140310714D01*
X221203093Y-140358333D01*
X220774522Y-140977381D02*
X220774522Y-139977381D01*
X220679284Y-140596429D02*
X220393569Y-140977381D01*
X220393569Y-140310714D02*
X220774522Y-140691667D01*
X219298331Y-140310714D02*
X219060236Y-140977381D01*
X218822140Y-140310714D01*
X217917378Y-140977381D02*
X218488807Y-140977381D01*
X218203093Y-140977381D02*
X218203093Y-139977381D01*
X218298331Y-140120238D01*
X218393569Y-140215476D01*
X218488807Y-140263095D01*
X217488807Y-140882143D02*
X217441188Y-140929762D01*
X217488807Y-140977381D01*
X217536426Y-140929762D01*
X217488807Y-140882143D01*
X217488807Y-140977381D01*
X216822141Y-139977381D02*
X216726902Y-139977381D01*
X216631664Y-140025000D01*
X216584045Y-140072619D01*
X216536426Y-140167857D01*
X216488807Y-140358333D01*
X216488807Y-140596429D01*
X216536426Y-140786905D01*
X216584045Y-140882143D01*
X216631664Y-140929762D01*
X216726902Y-140977381D01*
X216822141Y-140977381D01*
X216917379Y-140929762D01*
X216964998Y-140882143D01*
X217012617Y-140786905D01*
X217060236Y-140596429D01*
X217060236Y-140358333D01*
X217012617Y-140167857D01*
X216964998Y-140072619D01*
X216917379Y-140025000D01*
X216822141Y-139977381D01*
D12*
G36*
X105461767Y-107435991D02*
X105379826Y-107653239D01*
X105261280Y-107988838D01*
X105113592Y-108421315D01*
X104944226Y-108929194D01*
X104789479Y-109402025D01*
X104581952Y-110046907D01*
X104425004Y-110549441D01*
X104314083Y-110927385D01*
X104244633Y-111198497D01*
X104212101Y-111380537D01*
X104211932Y-111491261D01*
X104239146Y-111548038D01*
X104334713Y-111617408D01*
X104544871Y-111759307D01*
X104845809Y-111958369D01*
X105213719Y-112199226D01*
X105624792Y-112466511D01*
X106055216Y-112744858D01*
X106481184Y-113018899D01*
X106878886Y-113273268D01*
X107224511Y-113492596D01*
X107494251Y-113661518D01*
X107664297Y-113764667D01*
X107712215Y-113789614D01*
X107787439Y-113744795D01*
X107984642Y-113620224D01*
X108283966Y-113428646D01*
X108665550Y-113182803D01*
X109109536Y-112895439D01*
X109427260Y-112689121D01*
X109905761Y-112376910D01*
X110338180Y-112092675D01*
X110703777Y-111850218D01*
X110981809Y-111663345D01*
X111151535Y-111545859D01*
X111193608Y-111513592D01*
X111185828Y-111419750D01*
X111140984Y-111230833D01*
X110827682Y-111230833D01*
X110752901Y-111340514D01*
X110530806Y-111528605D01*
X110163377Y-111793608D01*
X109652592Y-112134024D01*
X109536515Y-112209025D01*
X108246333Y-113039050D01*
X108055833Y-112818137D01*
X107926896Y-112649441D01*
X107872969Y-112545438D01*
X107526667Y-112545438D01*
X107473278Y-112667825D01*
X107345741Y-112830673D01*
X107279213Y-112903416D01*
X107220039Y-112951717D01*
X107147803Y-112966609D01*
X107042087Y-112939125D01*
X106882473Y-112860298D01*
X106648545Y-112721161D01*
X106319884Y-112512747D01*
X105876073Y-112226088D01*
X105679006Y-112098667D01*
X105191687Y-111773992D01*
X104840411Y-111517986D01*
X104629805Y-111334253D01*
X104564237Y-111230833D01*
X104586866Y-111105000D01*
X104612727Y-111082667D01*
X104735565Y-111103770D01*
X104974088Y-111158873D01*
X105281102Y-111235666D01*
X105609414Y-111321840D01*
X105911830Y-111405086D01*
X106141157Y-111473093D01*
X106234329Y-111505631D01*
X106406137Y-111602635D01*
X106641948Y-111765834D01*
X106905610Y-111966142D01*
X107160973Y-112174471D01*
X107371886Y-112361735D01*
X107502199Y-112498847D01*
X107526667Y-112545438D01*
X107872969Y-112545438D01*
X107866047Y-112532089D01*
X107865333Y-112525007D01*
X107926835Y-112448403D01*
X108087214Y-112299643D01*
X108310288Y-112108706D01*
X108559871Y-111905571D01*
X108799778Y-111720218D01*
X108993824Y-111582625D01*
X109031434Y-111558896D01*
X109161611Y-111506810D01*
X109408577Y-111427223D01*
X109724789Y-111333490D01*
X110062707Y-111238968D01*
X110374787Y-111157013D01*
X110613488Y-111100983D01*
X110722833Y-111083718D01*
X110811920Y-111152270D01*
X110827682Y-111230833D01*
X111140984Y-111230833D01*
X111131818Y-111192220D01*
X111052050Y-110901575D01*
X110727167Y-110901575D01*
X109910084Y-111097922D01*
X109510603Y-111200735D01*
X109212307Y-111302779D01*
X108953746Y-111433683D01*
X108673471Y-111623079D01*
X108415667Y-111818537D01*
X108129371Y-112038575D01*
X107897072Y-112214173D01*
X107748414Y-112323094D01*
X107710185Y-112347735D01*
X107635657Y-112301549D01*
X107458024Y-112173292D01*
X107207592Y-111985179D01*
X107032852Y-111851167D01*
X106703234Y-111606244D01*
X106430870Y-111437101D01*
X106153347Y-111313728D01*
X105808255Y-111206114D01*
X105551344Y-111138789D01*
X105200974Y-111047905D01*
X104918789Y-110970710D01*
X104740598Y-110917234D01*
X104697032Y-110899455D01*
X104710844Y-110809217D01*
X104770278Y-110591235D01*
X104865118Y-110276440D01*
X104985142Y-109895761D01*
X105120134Y-109480130D01*
X105259873Y-109060476D01*
X105394141Y-108667732D01*
X105512720Y-108332827D01*
X105605389Y-108086692D01*
X105661930Y-107960257D01*
X105671478Y-107950000D01*
X105754676Y-108002063D01*
X105941762Y-108145309D01*
X106208397Y-108360329D01*
X106530240Y-108627709D01*
X106680000Y-108754333D01*
X107018112Y-109038298D01*
X107311477Y-109278277D01*
X107535764Y-109454860D01*
X107666644Y-109548636D01*
X107688178Y-109558667D01*
X107771348Y-109506811D01*
X107958895Y-109364063D01*
X108226560Y-109149655D01*
X108550084Y-108882815D01*
X108708831Y-108749573D01*
X109048421Y-108470675D01*
X109343604Y-108242670D01*
X109570412Y-108082957D01*
X109704874Y-108008937D01*
X109729393Y-108008740D01*
X109774978Y-108107957D01*
X109863117Y-108340783D01*
X109983996Y-108679797D01*
X110127804Y-109097573D01*
X110259136Y-109489287D01*
X110727167Y-110901575D01*
X111052050Y-110901575D01*
X111039978Y-110857591D01*
X110918705Y-110442454D01*
X110776398Y-109973401D01*
X110621456Y-109477021D01*
X110462276Y-108979907D01*
X110307257Y-108508647D01*
X110164797Y-108089834D01*
X110043294Y-107750057D01*
X109951147Y-107515908D01*
X109899717Y-107416858D01*
X109818253Y-107446050D01*
X109632030Y-107569927D01*
X109363721Y-107771663D01*
X109036001Y-108034435D01*
X108788458Y-108241376D01*
X108433364Y-108540902D01*
X108124324Y-108797609D01*
X107883791Y-108993162D01*
X107734220Y-109109227D01*
X107696000Y-109133393D01*
X107620322Y-109081585D01*
X107438187Y-108938313D01*
X107172118Y-108721832D01*
X106844638Y-108450394D01*
X106600306Y-108245375D01*
X106243741Y-107947171D01*
X105932905Y-107691756D01*
X105690439Y-107497372D01*
X105538985Y-107382261D01*
X105499640Y-107358570D01*
X105461767Y-107435991D01*
X105461767Y-107435991D01*
G37*
X105461767Y-107435991D02*
X105379826Y-107653239D01*
X105261280Y-107988838D01*
X105113592Y-108421315D01*
X104944226Y-108929194D01*
X104789479Y-109402025D01*
X104581952Y-110046907D01*
X104425004Y-110549441D01*
X104314083Y-110927385D01*
X104244633Y-111198497D01*
X104212101Y-111380537D01*
X104211932Y-111491261D01*
X104239146Y-111548038D01*
X104334713Y-111617408D01*
X104544871Y-111759307D01*
X104845809Y-111958369D01*
X105213719Y-112199226D01*
X105624792Y-112466511D01*
X106055216Y-112744858D01*
X106481184Y-113018899D01*
X106878886Y-113273268D01*
X107224511Y-113492596D01*
X107494251Y-113661518D01*
X107664297Y-113764667D01*
X107712215Y-113789614D01*
X107787439Y-113744795D01*
X107984642Y-113620224D01*
X108283966Y-113428646D01*
X108665550Y-113182803D01*
X109109536Y-112895439D01*
X109427260Y-112689121D01*
X109905761Y-112376910D01*
X110338180Y-112092675D01*
X110703777Y-111850218D01*
X110981809Y-111663345D01*
X111151535Y-111545859D01*
X111193608Y-111513592D01*
X111185828Y-111419750D01*
X111140984Y-111230833D01*
X110827682Y-111230833D01*
X110752901Y-111340514D01*
X110530806Y-111528605D01*
X110163377Y-111793608D01*
X109652592Y-112134024D01*
X109536515Y-112209025D01*
X108246333Y-113039050D01*
X108055833Y-112818137D01*
X107926896Y-112649441D01*
X107872969Y-112545438D01*
X107526667Y-112545438D01*
X107473278Y-112667825D01*
X107345741Y-112830673D01*
X107279213Y-112903416D01*
X107220039Y-112951717D01*
X107147803Y-112966609D01*
X107042087Y-112939125D01*
X106882473Y-112860298D01*
X106648545Y-112721161D01*
X106319884Y-112512747D01*
X105876073Y-112226088D01*
X105679006Y-112098667D01*
X105191687Y-111773992D01*
X104840411Y-111517986D01*
X104629805Y-111334253D01*
X104564237Y-111230833D01*
X104586866Y-111105000D01*
X104612727Y-111082667D01*
X104735565Y-111103770D01*
X104974088Y-111158873D01*
X105281102Y-111235666D01*
X105609414Y-111321840D01*
X105911830Y-111405086D01*
X106141157Y-111473093D01*
X106234329Y-111505631D01*
X106406137Y-111602635D01*
X106641948Y-111765834D01*
X106905610Y-111966142D01*
X107160973Y-112174471D01*
X107371886Y-112361735D01*
X107502199Y-112498847D01*
X107526667Y-112545438D01*
X107872969Y-112545438D01*
X107866047Y-112532089D01*
X107865333Y-112525007D01*
X107926835Y-112448403D01*
X108087214Y-112299643D01*
X108310288Y-112108706D01*
X108559871Y-111905571D01*
X108799778Y-111720218D01*
X108993824Y-111582625D01*
X109031434Y-111558896D01*
X109161611Y-111506810D01*
X109408577Y-111427223D01*
X109724789Y-111333490D01*
X110062707Y-111238968D01*
X110374787Y-111157013D01*
X110613488Y-111100983D01*
X110722833Y-111083718D01*
X110811920Y-111152270D01*
X110827682Y-111230833D01*
X111140984Y-111230833D01*
X111131818Y-111192220D01*
X111052050Y-110901575D01*
X110727167Y-110901575D01*
X109910084Y-111097922D01*
X109510603Y-111200735D01*
X109212307Y-111302779D01*
X108953746Y-111433683D01*
X108673471Y-111623079D01*
X108415667Y-111818537D01*
X108129371Y-112038575D01*
X107897072Y-112214173D01*
X107748414Y-112323094D01*
X107710185Y-112347735D01*
X107635657Y-112301549D01*
X107458024Y-112173292D01*
X107207592Y-111985179D01*
X107032852Y-111851167D01*
X106703234Y-111606244D01*
X106430870Y-111437101D01*
X106153347Y-111313728D01*
X105808255Y-111206114D01*
X105551344Y-111138789D01*
X105200974Y-111047905D01*
X104918789Y-110970710D01*
X104740598Y-110917234D01*
X104697032Y-110899455D01*
X104710844Y-110809217D01*
X104770278Y-110591235D01*
X104865118Y-110276440D01*
X104985142Y-109895761D01*
X105120134Y-109480130D01*
X105259873Y-109060476D01*
X105394141Y-108667732D01*
X105512720Y-108332827D01*
X105605389Y-108086692D01*
X105661930Y-107960257D01*
X105671478Y-107950000D01*
X105754676Y-108002063D01*
X105941762Y-108145309D01*
X106208397Y-108360329D01*
X106530240Y-108627709D01*
X106680000Y-108754333D01*
X107018112Y-109038298D01*
X107311477Y-109278277D01*
X107535764Y-109454860D01*
X107666644Y-109548636D01*
X107688178Y-109558667D01*
X107771348Y-109506811D01*
X107958895Y-109364063D01*
X108226560Y-109149655D01*
X108550084Y-108882815D01*
X108708831Y-108749573D01*
X109048421Y-108470675D01*
X109343604Y-108242670D01*
X109570412Y-108082957D01*
X109704874Y-108008937D01*
X109729393Y-108008740D01*
X109774978Y-108107957D01*
X109863117Y-108340783D01*
X109983996Y-108679797D01*
X110127804Y-109097573D01*
X110259136Y-109489287D01*
X110727167Y-110901575D01*
X111052050Y-110901575D01*
X111039978Y-110857591D01*
X110918705Y-110442454D01*
X110776398Y-109973401D01*
X110621456Y-109477021D01*
X110462276Y-108979907D01*
X110307257Y-108508647D01*
X110164797Y-108089834D01*
X110043294Y-107750057D01*
X109951147Y-107515908D01*
X109899717Y-107416858D01*
X109818253Y-107446050D01*
X109632030Y-107569927D01*
X109363721Y-107771663D01*
X109036001Y-108034435D01*
X108788458Y-108241376D01*
X108433364Y-108540902D01*
X108124324Y-108797609D01*
X107883791Y-108993162D01*
X107734220Y-109109227D01*
X107696000Y-109133393D01*
X107620322Y-109081585D01*
X107438187Y-108938313D01*
X107172118Y-108721832D01*
X106844638Y-108450394D01*
X106600306Y-108245375D01*
X106243741Y-107947171D01*
X105932905Y-107691756D01*
X105690439Y-107497372D01*
X105538985Y-107382261D01*
X105499640Y-107358570D01*
X105461767Y-107435991D01*
G36*
X108983466Y-109948978D02*
X108784408Y-110076583D01*
X108582170Y-110239156D01*
X108428181Y-110395707D01*
X108373333Y-110498771D01*
X108445708Y-110548881D01*
X108619325Y-110566382D01*
X108828925Y-110549501D01*
X108966000Y-110514873D01*
X109119572Y-110425737D01*
X109282443Y-110296125D01*
X109406356Y-110148915D01*
X109395385Y-110034179D01*
X109377909Y-110010568D01*
X109216901Y-109912079D01*
X109127913Y-109897333D01*
X108983466Y-109948978D01*
X108983466Y-109948978D01*
G37*
X108983466Y-109948978D02*
X108784408Y-110076583D01*
X108582170Y-110239156D01*
X108428181Y-110395707D01*
X108373333Y-110498771D01*
X108445708Y-110548881D01*
X108619325Y-110566382D01*
X108828925Y-110549501D01*
X108966000Y-110514873D01*
X109119572Y-110425737D01*
X109282443Y-110296125D01*
X109406356Y-110148915D01*
X109395385Y-110034179D01*
X109377909Y-110010568D01*
X109216901Y-109912079D01*
X109127913Y-109897333D01*
X108983466Y-109948978D01*
G36*
X106103850Y-109983660D02*
X106013899Y-110086103D01*
X106069162Y-110234739D01*
X106272062Y-110402751D01*
X106487203Y-110502029D01*
X106716489Y-110562181D01*
X106908092Y-110575649D01*
X107010185Y-110534878D01*
X107015622Y-110511167D01*
X106964594Y-110409398D01*
X106842936Y-110240868D01*
X106816069Y-110207468D01*
X106573970Y-110008668D01*
X106335347Y-109953468D01*
X106103850Y-109983660D01*
X106103850Y-109983660D01*
G37*
X106103850Y-109983660D02*
X106013899Y-110086103D01*
X106069162Y-110234739D01*
X106272062Y-110402751D01*
X106487203Y-110502029D01*
X106716489Y-110562181D01*
X106908092Y-110575649D01*
X107010185Y-110534878D01*
X107015622Y-110511167D01*
X106964594Y-110409398D01*
X106842936Y-110240868D01*
X106816069Y-110207468D01*
X106573970Y-110008668D01*
X106335347Y-109953468D01*
X106103850Y-109983660D01*
M02*
