M48
METRIC,TZ
T1C0.400
T2C0.762
T3C0.800
T4C0.850
T5C1.000
T6C1.100
%
G90
G05
T1
X104140Y-122555
X104140Y-130175
X105664Y-133985
X107950Y-121920
X107950Y-130810
X111760Y-131445
X112776Y-132080
X114935Y-121285
X114935Y-132080
X117475Y-120650
X118745Y-132715
X119888Y-130175
X121920Y-122555
X121920Y-133350
X123190Y-120015
X125095Y-121920
X125476Y-130810
X128905Y-121285
X129286Y-131445
X130556Y-132080
X131064Y-130810
X132715Y-133985
X135255Y-121920
X136144Y-132715
X136525Y-111252
X136525Y-116205
X137668Y-133350
X138684Y-133985
X139700Y-132080
X143256Y-130810
X145161Y-104775
X146812Y-130175
X147320Y-123190
X149860Y-121920
X150876Y-109728
X153924Y-130810
X157480Y-131445
X161036Y-132080
X164592Y-133985
X165735Y-114935
X169545Y-115570
X172085Y-123190
X173355Y-124460
X188468Y-127381
X188570Y-135890
X191008Y-130175
X193548Y-130810
X196088Y-131445
X198120Y-115570
X198628Y-132080
X199136Y-104775
X200660Y-120015
X201168Y-132715
X201930Y-116205
X203708Y-133350
X206248Y-133985
X206375Y-120650
X213360Y-110490
X214503Y-123952
X216535Y-101600
X217805Y-121285
X217805Y-135255
X218440Y-110490
X218440Y-112776
X220980Y-110490
X223520Y-110490
X224155Y-135255
X224790Y-123952
T2
X114935Y-109220
X114935Y-111760
T3
X208360Y-125730
X209610Y-125730
X212110Y-125730
X213360Y-125730
X216535Y-115570
X216535Y-125730
X219790Y-125730
X221040Y-125730
X223540Y-125730
X224790Y-125730
X227965Y-115570
X227965Y-125730
T4
X125705Y-108890
X125705Y-112090
X128905Y-108890
X128905Y-112090
X131105Y-108890
X131105Y-112090
X133305Y-108890
X133305Y-112090
X164440Y-108890
X164440Y-112090
X167640Y-108890
X167640Y-112090
X169840Y-108890
X169840Y-112090
X172040Y-108890
X172040Y-112090
X197460Y-108890
X197460Y-112090
X200660Y-108890
X200660Y-112090
X202860Y-108890
X202860Y-112090
X205060Y-108890
X205060Y-112090
X209220Y-114345
X209220Y-116545
X209220Y-118745
X209220Y-121945
X212420Y-114345
X212420Y-116545
X212420Y-118745
X212420Y-121945
X220650Y-114345
X220650Y-116545
X220650Y-118745
X220650Y-121945
X223850Y-114345
X223850Y-116545
X223850Y-118745
X223850Y-121945
T5
X110250Y-103620
X112790Y-103620
X119820Y-140130
X122360Y-140130
X124900Y-140130
X126280Y-103620
X127440Y-140130
X128820Y-103620
X129980Y-140130
X132520Y-140130
X135060Y-140130
X137600Y-140130
X140140Y-140130
X142680Y-140130
X148530Y-103620
X151070Y-103620
X164560Y-103620
X167100Y-103620
X186810Y-103620
X188570Y-140130
X189350Y-103620
X191110Y-140130
X193650Y-140130
X196190Y-140130
X198730Y-140130
X201270Y-140130
X202840Y-103620
X203810Y-140130
X205380Y-103620
X206350Y-140130
X208890Y-140130
X211430Y-140130
X225090Y-103620
X227630Y-103620
T6
X104140Y-116840
X104140Y-124460
X104140Y-128270
X104140Y-135890
X107696Y-116840
X107696Y-124460
X107696Y-128270
X107696Y-135890
X111252Y-116840
X111252Y-124460
X111252Y-128270
X111252Y-135890
X114808Y-116840
X114808Y-124460
X114808Y-128270
X114808Y-135890
X118364Y-116840
X118364Y-124460
X118364Y-128270
X118364Y-135890
X121920Y-105410
X121920Y-113030
X121920Y-116840
X121920Y-124460
X121920Y-128270
X121920Y-135890
X125476Y-116840
X125476Y-124460
X125476Y-128270
X125476Y-135890
X129032Y-116840
X129032Y-124460
X129032Y-128270
X129032Y-135890
X132588Y-116840
X132588Y-124460
X132588Y-128270
X132588Y-135890
X136144Y-128270
X136144Y-135890
X139700Y-128270
X139700Y-135890
X143256Y-128270
X143256Y-135890
X146812Y-128270
X146812Y-135890
X150368Y-128270
X150368Y-135890
X153924Y-128270
X153924Y-135890
X157480Y-128270
X157480Y-135890
X160655Y-105410
X160655Y-113030
X161036Y-128270
X161036Y-135890
X164592Y-128270
X164592Y-135890
X193675Y-105410
X193675Y-113030
X208280Y-129540
X215900Y-129540
X219710Y-129540
X227330Y-129540
T0
M30
