G04 #@! TF.FileFunction,Legend,Top*
%FSLAX46Y46*%
G04 Gerber Fmt 4.6, Leading zero omitted, Abs format (unit mm)*
G04 Created by KiCad (PCBNEW 4.0.4+e1-6308~48~ubuntu16.04.1-stable) date Mon Jan 22 22:00:05 2018*
%MOMM*%
%LPD*%
G01*
G04 APERTURE LIST*
%ADD10C,0.100000*%
%ADD11C,0.150000*%
%ADD12C,0.120000*%
%ADD13C,0.200000*%
%ADD14C,0.030000*%
G04 APERTURE END LIST*
D10*
D11*
X222702381Y-139374381D02*
X221702381Y-139374381D01*
X221702381Y-138993428D01*
X221750000Y-138898190D01*
X221797619Y-138850571D01*
X221892857Y-138802952D01*
X222035714Y-138802952D01*
X222130952Y-138850571D01*
X222178571Y-138898190D01*
X222226190Y-138993428D01*
X222226190Y-139374381D01*
X222702381Y-138374381D02*
X221702381Y-138374381D01*
X222702381Y-137898191D02*
X221702381Y-137898191D01*
X221702381Y-137517238D01*
X221750000Y-137422000D01*
X221797619Y-137374381D01*
X221892857Y-137326762D01*
X222035714Y-137326762D01*
X222130952Y-137374381D01*
X222178571Y-137422000D01*
X222226190Y-137517238D01*
X222226190Y-137898191D01*
X222178571Y-136898191D02*
X222178571Y-136564857D01*
X222702381Y-136422000D02*
X222702381Y-136898191D01*
X221702381Y-136898191D01*
X221702381Y-136422000D01*
X220257619Y-137279047D02*
X220210000Y-137374285D01*
X220114762Y-137469523D01*
X219971905Y-137612380D01*
X219924286Y-137707619D01*
X219924286Y-137802857D01*
X220162381Y-137755238D02*
X220114762Y-137850476D01*
X220019524Y-137945714D01*
X219829048Y-137993333D01*
X219495714Y-137993333D01*
X219305238Y-137945714D01*
X219210000Y-137850476D01*
X219162381Y-137755238D01*
X219162381Y-137564761D01*
X219210000Y-137469523D01*
X219305238Y-137374285D01*
X219495714Y-137326666D01*
X219829048Y-137326666D01*
X220019524Y-137374285D01*
X220114762Y-137469523D01*
X220162381Y-137564761D01*
X220162381Y-137755238D01*
X220067143Y-136326666D02*
X220114762Y-136374285D01*
X220162381Y-136517142D01*
X220162381Y-136612380D01*
X220114762Y-136755238D01*
X220019524Y-136850476D01*
X219924286Y-136898095D01*
X219733810Y-136945714D01*
X219590952Y-136945714D01*
X219400476Y-136898095D01*
X219305238Y-136850476D01*
X219210000Y-136755238D01*
X219162381Y-136612380D01*
X219162381Y-136517142D01*
X219210000Y-136374285D01*
X219257619Y-136326666D01*
X213812381Y-140287143D02*
X212812381Y-140287143D01*
X213812381Y-139715714D01*
X212812381Y-139715714D01*
X212812381Y-139239524D02*
X213621905Y-139239524D01*
X213717143Y-139191905D01*
X213764762Y-139144286D01*
X213812381Y-139049048D01*
X213812381Y-138858571D01*
X213764762Y-138763333D01*
X213717143Y-138715714D01*
X213621905Y-138668095D01*
X212812381Y-138668095D01*
X213812381Y-138191905D02*
X212812381Y-138191905D01*
X213526667Y-137858571D01*
X212812381Y-137525238D01*
X213812381Y-137525238D01*
X212907619Y-137096667D02*
X212860000Y-137049048D01*
X212812381Y-136953810D01*
X212812381Y-136715714D01*
X212860000Y-136620476D01*
X212907619Y-136572857D01*
X213002857Y-136525238D01*
X213098095Y-136525238D01*
X213240952Y-136572857D01*
X213812381Y-137144286D01*
X213812381Y-136525238D01*
X216447619Y-137279047D02*
X216400000Y-137374285D01*
X216304762Y-137469523D01*
X216161905Y-137612380D01*
X216114286Y-137707619D01*
X216114286Y-137802857D01*
X216352381Y-137755238D02*
X216304762Y-137850476D01*
X216209524Y-137945714D01*
X216019048Y-137993333D01*
X215685714Y-137993333D01*
X215495238Y-137945714D01*
X215400000Y-137850476D01*
X215352381Y-137755238D01*
X215352381Y-137564761D01*
X215400000Y-137469523D01*
X215495238Y-137374285D01*
X215685714Y-137326666D01*
X216019048Y-137326666D01*
X216209524Y-137374285D01*
X216304762Y-137469523D01*
X216352381Y-137564761D01*
X216352381Y-137755238D01*
X216257143Y-136326666D02*
X216304762Y-136374285D01*
X216352381Y-136517142D01*
X216352381Y-136612380D01*
X216304762Y-136755238D01*
X216209524Y-136850476D01*
X216114286Y-136898095D01*
X215923810Y-136945714D01*
X215780952Y-136945714D01*
X215590476Y-136898095D01*
X215495238Y-136850476D01*
X215400000Y-136755238D01*
X215352381Y-136612380D01*
X215352381Y-136517142D01*
X215400000Y-136374285D01*
X215447619Y-136326666D01*
X225242381Y-107513476D02*
X224766190Y-107846810D01*
X225242381Y-108084905D02*
X224242381Y-108084905D01*
X224242381Y-107703952D01*
X224290000Y-107608714D01*
X224337619Y-107561095D01*
X224432857Y-107513476D01*
X224575714Y-107513476D01*
X224670952Y-107561095D01*
X224718571Y-107608714D01*
X224766190Y-107703952D01*
X224766190Y-108084905D01*
X222607143Y-107973619D02*
X222654762Y-107926000D01*
X222702381Y-107973619D01*
X222654762Y-108021238D01*
X222607143Y-107973619D01*
X222702381Y-107973619D01*
X222321429Y-107973619D02*
X221750000Y-108021238D01*
X221702381Y-107973619D01*
X221750000Y-107926000D01*
X222321429Y-107973619D01*
X221702381Y-107973619D01*
X222416667Y-107545048D02*
X222416667Y-107068857D01*
X222702381Y-107640286D02*
X221702381Y-107306953D01*
X222702381Y-106973619D01*
X222702381Y-105830762D02*
X222702381Y-105878381D01*
X222654762Y-105973619D01*
X222511905Y-106116476D01*
X222226190Y-106354571D01*
X222083333Y-106449810D01*
X221940476Y-106497429D01*
X221845238Y-106497429D01*
X221750000Y-106449810D01*
X221702381Y-106354571D01*
X221702381Y-106306952D01*
X221750000Y-106211714D01*
X221845238Y-106164095D01*
X221892857Y-106164095D01*
X221988095Y-106211714D01*
X222035714Y-106259333D01*
X222226190Y-106545048D01*
X222273810Y-106592667D01*
X222369048Y-106640286D01*
X222511905Y-106640286D01*
X222607143Y-106592667D01*
X222654762Y-106545048D01*
X222702381Y-106449810D01*
X222702381Y-106306952D01*
X222654762Y-106211714D01*
X222607143Y-106164095D01*
X222416667Y-106021238D01*
X222273810Y-105973619D01*
X222178571Y-105973619D01*
X222178571Y-105068857D02*
X222226190Y-104926000D01*
X222273810Y-104878381D01*
X222369048Y-104830762D01*
X222511905Y-104830762D01*
X222607143Y-104878381D01*
X222654762Y-104926000D01*
X222702381Y-105021238D01*
X222702381Y-105402191D01*
X221702381Y-105402191D01*
X221702381Y-105068857D01*
X221750000Y-104973619D01*
X221797619Y-104926000D01*
X221892857Y-104878381D01*
X221988095Y-104878381D01*
X222083333Y-104926000D01*
X222130952Y-104973619D01*
X222178571Y-105068857D01*
X222178571Y-105402191D01*
X219876667Y-108021238D02*
X219876667Y-107545047D01*
X220162381Y-108116476D02*
X219162381Y-107783143D01*
X220162381Y-107449809D01*
X220162381Y-106306952D02*
X220162381Y-106354571D01*
X220114762Y-106449809D01*
X219971905Y-106592666D01*
X219686190Y-106830761D01*
X219543333Y-106926000D01*
X219400476Y-106973619D01*
X219305238Y-106973619D01*
X219210000Y-106926000D01*
X219162381Y-106830761D01*
X219162381Y-106783142D01*
X219210000Y-106687904D01*
X219305238Y-106640285D01*
X219352857Y-106640285D01*
X219448095Y-106687904D01*
X219495714Y-106735523D01*
X219686190Y-107021238D01*
X219733810Y-107068857D01*
X219829048Y-107116476D01*
X219971905Y-107116476D01*
X220067143Y-107068857D01*
X220114762Y-107021238D01*
X220162381Y-106926000D01*
X220162381Y-106783142D01*
X220114762Y-106687904D01*
X220067143Y-106640285D01*
X219876667Y-106497428D01*
X219733810Y-106449809D01*
X219638571Y-106449809D01*
X220067143Y-105878381D02*
X220114762Y-105830762D01*
X220162381Y-105878381D01*
X220114762Y-105926000D01*
X220067143Y-105878381D01*
X220162381Y-105878381D01*
X219781429Y-105878381D02*
X219210000Y-105926000D01*
X219162381Y-105878381D01*
X219210000Y-105830762D01*
X219781429Y-105878381D01*
X219162381Y-105878381D01*
X219638571Y-105068857D02*
X219686190Y-104926000D01*
X219733810Y-104878381D01*
X219829048Y-104830762D01*
X219971905Y-104830762D01*
X220067143Y-104878381D01*
X220114762Y-104926000D01*
X220162381Y-105021238D01*
X220162381Y-105402191D01*
X219162381Y-105402191D01*
X219162381Y-105068857D01*
X219210000Y-104973619D01*
X219257619Y-104926000D01*
X219352857Y-104878381D01*
X219448095Y-104878381D01*
X219543333Y-104926000D01*
X219590952Y-104973619D01*
X219638571Y-105068857D01*
X219638571Y-105402191D01*
X209907143Y-107973619D02*
X209954762Y-107926000D01*
X210002381Y-107973619D01*
X209954762Y-108021238D01*
X209907143Y-107973619D01*
X210002381Y-107973619D01*
X209621429Y-107973619D02*
X209050000Y-108021238D01*
X209002381Y-107973619D01*
X209050000Y-107926000D01*
X209621429Y-107973619D01*
X209002381Y-107973619D01*
X209716667Y-107545048D02*
X209716667Y-107068857D01*
X210002381Y-107640286D02*
X209002381Y-107306953D01*
X210002381Y-106973619D01*
X210002381Y-105830762D02*
X210002381Y-105878381D01*
X209954762Y-105973619D01*
X209811905Y-106116476D01*
X209526190Y-106354571D01*
X209383333Y-106449810D01*
X209240476Y-106497429D01*
X209145238Y-106497429D01*
X209050000Y-106449810D01*
X209002381Y-106354571D01*
X209002381Y-106306952D01*
X209050000Y-106211714D01*
X209145238Y-106164095D01*
X209192857Y-106164095D01*
X209288095Y-106211714D01*
X209335714Y-106259333D01*
X209526190Y-106545048D01*
X209573810Y-106592667D01*
X209669048Y-106640286D01*
X209811905Y-106640286D01*
X209907143Y-106592667D01*
X209954762Y-106545048D01*
X210002381Y-106449810D01*
X210002381Y-106306952D01*
X209954762Y-106211714D01*
X209907143Y-106164095D01*
X209716667Y-106021238D01*
X209573810Y-105973619D01*
X209478571Y-105973619D01*
X209478571Y-105068857D02*
X209526190Y-104926000D01*
X209573810Y-104878381D01*
X209669048Y-104830762D01*
X209811905Y-104830762D01*
X209907143Y-104878381D01*
X209954762Y-104926000D01*
X210002381Y-105021238D01*
X210002381Y-105402191D01*
X209002381Y-105402191D01*
X209002381Y-105068857D01*
X209050000Y-104973619D01*
X209097619Y-104926000D01*
X209192857Y-104878381D01*
X209288095Y-104878381D01*
X209383333Y-104926000D01*
X209430952Y-104973619D01*
X209478571Y-105068857D01*
X209478571Y-105402191D01*
X212256667Y-108021238D02*
X212256667Y-107545047D01*
X212542381Y-108116476D02*
X211542381Y-107783143D01*
X212542381Y-107449809D01*
X212542381Y-106306952D02*
X212542381Y-106354571D01*
X212494762Y-106449809D01*
X212351905Y-106592666D01*
X212066190Y-106830761D01*
X211923333Y-106926000D01*
X211780476Y-106973619D01*
X211685238Y-106973619D01*
X211590000Y-106926000D01*
X211542381Y-106830761D01*
X211542381Y-106783142D01*
X211590000Y-106687904D01*
X211685238Y-106640285D01*
X211732857Y-106640285D01*
X211828095Y-106687904D01*
X211875714Y-106735523D01*
X212066190Y-107021238D01*
X212113810Y-107068857D01*
X212209048Y-107116476D01*
X212351905Y-107116476D01*
X212447143Y-107068857D01*
X212494762Y-107021238D01*
X212542381Y-106926000D01*
X212542381Y-106783142D01*
X212494762Y-106687904D01*
X212447143Y-106640285D01*
X212256667Y-106497428D01*
X212113810Y-106449809D01*
X212018571Y-106449809D01*
X212447143Y-105878381D02*
X212494762Y-105830762D01*
X212542381Y-105878381D01*
X212494762Y-105926000D01*
X212447143Y-105878381D01*
X212542381Y-105878381D01*
X212161429Y-105878381D02*
X211590000Y-105926000D01*
X211542381Y-105878381D01*
X211590000Y-105830762D01*
X212161429Y-105878381D01*
X211542381Y-105878381D01*
X212018571Y-105068857D02*
X212066190Y-104926000D01*
X212113810Y-104878381D01*
X212209048Y-104830762D01*
X212351905Y-104830762D01*
X212447143Y-104878381D01*
X212494762Y-104926000D01*
X212542381Y-105021238D01*
X212542381Y-105402191D01*
X211542381Y-105402191D01*
X211542381Y-105068857D01*
X211590000Y-104973619D01*
X211637619Y-104926000D01*
X211732857Y-104878381D01*
X211828095Y-104878381D01*
X211923333Y-104926000D01*
X211970952Y-104973619D01*
X212018571Y-105068857D01*
X212018571Y-105402191D01*
D12*
X217905000Y-117380000D02*
X215165000Y-117380000D01*
X215165000Y-117380000D02*
X215165000Y-123920000D01*
X215165000Y-123920000D02*
X217905000Y-123920000D01*
X217905000Y-123920000D02*
X217905000Y-117380000D01*
X216535000Y-116610000D02*
X216535000Y-117380000D01*
X216535000Y-124690000D02*
X216535000Y-123920000D01*
X144010000Y-141460000D02*
X144010000Y-138800000D01*
X121090000Y-141460000D02*
X144010000Y-141460000D01*
X121090000Y-138800000D02*
X144010000Y-138800000D01*
X121090000Y-141460000D02*
X121090000Y-138800000D01*
X119820000Y-141460000D02*
X118490000Y-141460000D01*
X118490000Y-141460000D02*
X118490000Y-140130000D01*
X212760000Y-141460000D02*
X212760000Y-138800000D01*
X189840000Y-141460000D02*
X212760000Y-141460000D01*
X189840000Y-138800000D02*
X212760000Y-138800000D01*
X189840000Y-141460000D02*
X189840000Y-138800000D01*
X188570000Y-141460000D02*
X187240000Y-141460000D01*
X187240000Y-141460000D02*
X187240000Y-140130000D01*
X216790000Y-135890000D02*
X216790000Y-133350000D01*
X215010000Y-133350000D02*
X215010000Y-135890000D01*
X215010000Y-133350000D02*
X216790000Y-133350000D01*
X216790000Y-135890000D02*
X215010000Y-135890000D01*
X212980000Y-111125000D02*
X212980000Y-108585000D01*
X211200000Y-108585000D02*
X211200000Y-111125000D01*
X211200000Y-108585000D02*
X212980000Y-108585000D01*
X212980000Y-111125000D02*
X211200000Y-111125000D01*
X214250000Y-135890000D02*
X214250000Y-133350000D01*
X212470000Y-133350000D02*
X212470000Y-135890000D01*
X212470000Y-133350000D02*
X214250000Y-133350000D01*
X214250000Y-135890000D02*
X212470000Y-135890000D01*
X210440000Y-111125000D02*
X210440000Y-108585000D01*
X208660000Y-108585000D02*
X208660000Y-111125000D01*
X208660000Y-108585000D02*
X210440000Y-108585000D01*
X210440000Y-111125000D02*
X208660000Y-111125000D01*
X220600000Y-135890000D02*
X220600000Y-133350000D01*
X218820000Y-133350000D02*
X218820000Y-135890000D01*
X218820000Y-133350000D02*
X220600000Y-133350000D01*
X220600000Y-135890000D02*
X218820000Y-135890000D01*
X220600000Y-111125000D02*
X220600000Y-108585000D01*
X218820000Y-108585000D02*
X218820000Y-111125000D01*
X218820000Y-108585000D02*
X220600000Y-108585000D01*
X220600000Y-111125000D02*
X218820000Y-111125000D01*
X223140000Y-135890000D02*
X223140000Y-133350000D01*
X221360000Y-133350000D02*
X221360000Y-135890000D01*
X221360000Y-133350000D02*
X223140000Y-133350000D01*
X223140000Y-135890000D02*
X221360000Y-135890000D01*
X223140000Y-111125000D02*
X223140000Y-108585000D01*
X221360000Y-108585000D02*
X221360000Y-111125000D01*
X221360000Y-108585000D02*
X223140000Y-108585000D01*
X223140000Y-111125000D02*
X221360000Y-111125000D01*
X225680000Y-111125000D02*
X225680000Y-108585000D01*
X223900000Y-108585000D02*
X223900000Y-111125000D01*
X223900000Y-108585000D02*
X225680000Y-108585000D01*
X225680000Y-111125000D02*
X223900000Y-111125000D01*
X229335000Y-117380000D02*
X226595000Y-117380000D01*
X226595000Y-117380000D02*
X226595000Y-123920000D01*
X226595000Y-123920000D02*
X229335000Y-123920000D01*
X229335000Y-123920000D02*
X229335000Y-117380000D01*
X227965000Y-116610000D02*
X227965000Y-117380000D01*
X227965000Y-124690000D02*
X227965000Y-123920000D01*
X214420000Y-127540000D02*
X207300000Y-127540000D01*
X214420000Y-123920000D02*
X207300000Y-123920000D01*
X214420000Y-127540000D02*
X214420000Y-123920000D01*
X207300000Y-127540000D02*
X207300000Y-123920000D01*
X225850000Y-127540000D02*
X218730000Y-127540000D01*
X225850000Y-123920000D02*
X218730000Y-123920000D01*
X225850000Y-127540000D02*
X225850000Y-123920000D01*
X218730000Y-127540000D02*
X218730000Y-123920000D01*
X114120000Y-104950000D02*
X114120000Y-102290000D01*
X111520000Y-104950000D02*
X114120000Y-104950000D01*
X111520000Y-102290000D02*
X114120000Y-102290000D01*
X111520000Y-104950000D02*
X111520000Y-102290000D01*
X110250000Y-104950000D02*
X108920000Y-104950000D01*
X108920000Y-104950000D02*
X108920000Y-103620000D01*
X130150000Y-104950000D02*
X130150000Y-102290000D01*
X127550000Y-104950000D02*
X130150000Y-104950000D01*
X127550000Y-102290000D02*
X130150000Y-102290000D01*
X127550000Y-104950000D02*
X127550000Y-102290000D01*
X126280000Y-104950000D02*
X124950000Y-104950000D01*
X124950000Y-104950000D02*
X124950000Y-103620000D01*
X168430000Y-104950000D02*
X168430000Y-102290000D01*
X165830000Y-104950000D02*
X168430000Y-104950000D01*
X165830000Y-102290000D02*
X168430000Y-102290000D01*
X165830000Y-104950000D02*
X165830000Y-102290000D01*
X164560000Y-104950000D02*
X163230000Y-104950000D01*
X163230000Y-104950000D02*
X163230000Y-103620000D01*
X206710000Y-104950000D02*
X206710000Y-102290000D01*
X204110000Y-104950000D02*
X206710000Y-104950000D01*
X204110000Y-102290000D02*
X206710000Y-102290000D01*
X204110000Y-104950000D02*
X204110000Y-102290000D01*
X202840000Y-104950000D02*
X201510000Y-104950000D01*
X201510000Y-104950000D02*
X201510000Y-103620000D01*
X152400000Y-104950000D02*
X152400000Y-102290000D01*
X149800000Y-104950000D02*
X152400000Y-104950000D01*
X149800000Y-102290000D02*
X152400000Y-102290000D01*
X149800000Y-104950000D02*
X149800000Y-102290000D01*
X148530000Y-104950000D02*
X147200000Y-104950000D01*
X147200000Y-104950000D02*
X147200000Y-103620000D01*
X190680000Y-104950000D02*
X190680000Y-102290000D01*
X188080000Y-104950000D02*
X190680000Y-104950000D01*
X188080000Y-102290000D02*
X190680000Y-102290000D01*
X188080000Y-104950000D02*
X188080000Y-102290000D01*
X186810000Y-104950000D02*
X185480000Y-104950000D01*
X185480000Y-104950000D02*
X185480000Y-103620000D01*
X228960000Y-104950000D02*
X228960000Y-102290000D01*
X226360000Y-104950000D02*
X228960000Y-104950000D01*
X226360000Y-102290000D02*
X228960000Y-102290000D01*
X226360000Y-104950000D02*
X226360000Y-102290000D01*
X225090000Y-104950000D02*
X223760000Y-104950000D01*
X223760000Y-104950000D02*
X223760000Y-103620000D01*
X214810000Y-130880000D02*
X214810000Y-131010000D01*
X214810000Y-131010000D02*
X209370000Y-131010000D01*
X209370000Y-131010000D02*
X209370000Y-130880000D01*
X214810000Y-128200000D02*
X214810000Y-128070000D01*
X214810000Y-128070000D02*
X209370000Y-128070000D01*
X209370000Y-128070000D02*
X209370000Y-128200000D01*
X213910000Y-131010000D02*
X213910000Y-128070000D01*
X213790000Y-131010000D02*
X213790000Y-128070000D01*
X214030000Y-131010000D02*
X214030000Y-128070000D01*
X123260000Y-106500000D02*
X123390000Y-106500000D01*
X123390000Y-106500000D02*
X123390000Y-111940000D01*
X123390000Y-111940000D02*
X123260000Y-111940000D01*
X120580000Y-106500000D02*
X120450000Y-106500000D01*
X120450000Y-106500000D02*
X120450000Y-111940000D01*
X120450000Y-111940000D02*
X120580000Y-111940000D01*
X123390000Y-107400000D02*
X120450000Y-107400000D01*
X123390000Y-107520000D02*
X120450000Y-107520000D01*
X123390000Y-107280000D02*
X120450000Y-107280000D01*
X105480000Y-129360000D02*
X105610000Y-129360000D01*
X105610000Y-129360000D02*
X105610000Y-134800000D01*
X105610000Y-134800000D02*
X105480000Y-134800000D01*
X102800000Y-129360000D02*
X102670000Y-129360000D01*
X102670000Y-129360000D02*
X102670000Y-134800000D01*
X102670000Y-134800000D02*
X102800000Y-134800000D01*
X105610000Y-130260000D02*
X102670000Y-130260000D01*
X105610000Y-130380000D02*
X102670000Y-130380000D01*
X105610000Y-130140000D02*
X102670000Y-130140000D01*
X131248000Y-123370000D02*
X131118000Y-123370000D01*
X131118000Y-123370000D02*
X131118000Y-117930000D01*
X131118000Y-117930000D02*
X131248000Y-117930000D01*
X133928000Y-123370000D02*
X134058000Y-123370000D01*
X134058000Y-123370000D02*
X134058000Y-117930000D01*
X134058000Y-117930000D02*
X133928000Y-117930000D01*
X131118000Y-122470000D02*
X134058000Y-122470000D01*
X131118000Y-122350000D02*
X134058000Y-122350000D01*
X131118000Y-122590000D02*
X134058000Y-122590000D01*
X109036000Y-129360000D02*
X109166000Y-129360000D01*
X109166000Y-129360000D02*
X109166000Y-134800000D01*
X109166000Y-134800000D02*
X109036000Y-134800000D01*
X106356000Y-129360000D02*
X106226000Y-129360000D01*
X106226000Y-129360000D02*
X106226000Y-134800000D01*
X106226000Y-134800000D02*
X106356000Y-134800000D01*
X109166000Y-130260000D02*
X106226000Y-130260000D01*
X109166000Y-130380000D02*
X106226000Y-130380000D01*
X109166000Y-130140000D02*
X106226000Y-130140000D01*
X127692000Y-123370000D02*
X127562000Y-123370000D01*
X127562000Y-123370000D02*
X127562000Y-117930000D01*
X127562000Y-117930000D02*
X127692000Y-117930000D01*
X130372000Y-123370000D02*
X130502000Y-123370000D01*
X130502000Y-123370000D02*
X130502000Y-117930000D01*
X130502000Y-117930000D02*
X130372000Y-117930000D01*
X127562000Y-122470000D02*
X130502000Y-122470000D01*
X127562000Y-122350000D02*
X130502000Y-122350000D01*
X127562000Y-122590000D02*
X130502000Y-122590000D01*
X112592000Y-129360000D02*
X112722000Y-129360000D01*
X112722000Y-129360000D02*
X112722000Y-134800000D01*
X112722000Y-134800000D02*
X112592000Y-134800000D01*
X109912000Y-129360000D02*
X109782000Y-129360000D01*
X109782000Y-129360000D02*
X109782000Y-134800000D01*
X109782000Y-134800000D02*
X109912000Y-134800000D01*
X112722000Y-130260000D02*
X109782000Y-130260000D01*
X112722000Y-130380000D02*
X109782000Y-130380000D01*
X112722000Y-130140000D02*
X109782000Y-130140000D01*
X124136000Y-123370000D02*
X124006000Y-123370000D01*
X124006000Y-123370000D02*
X124006000Y-117930000D01*
X124006000Y-117930000D02*
X124136000Y-117930000D01*
X126816000Y-123370000D02*
X126946000Y-123370000D01*
X126946000Y-123370000D02*
X126946000Y-117930000D01*
X126946000Y-117930000D02*
X126816000Y-117930000D01*
X124006000Y-122470000D02*
X126946000Y-122470000D01*
X124006000Y-122350000D02*
X126946000Y-122350000D01*
X124006000Y-122590000D02*
X126946000Y-122590000D01*
X116148000Y-129360000D02*
X116278000Y-129360000D01*
X116278000Y-129360000D02*
X116278000Y-134800000D01*
X116278000Y-134800000D02*
X116148000Y-134800000D01*
X113468000Y-129360000D02*
X113338000Y-129360000D01*
X113338000Y-129360000D02*
X113338000Y-134800000D01*
X113338000Y-134800000D02*
X113468000Y-134800000D01*
X116278000Y-130260000D02*
X113338000Y-130260000D01*
X116278000Y-130380000D02*
X113338000Y-130380000D01*
X116278000Y-130140000D02*
X113338000Y-130140000D01*
X120580000Y-123370000D02*
X120450000Y-123370000D01*
X120450000Y-123370000D02*
X120450000Y-117930000D01*
X120450000Y-117930000D02*
X120580000Y-117930000D01*
X123260000Y-123370000D02*
X123390000Y-123370000D01*
X123390000Y-123370000D02*
X123390000Y-117930000D01*
X123390000Y-117930000D02*
X123260000Y-117930000D01*
X120450000Y-122470000D02*
X123390000Y-122470000D01*
X120450000Y-122350000D02*
X123390000Y-122350000D01*
X120450000Y-122590000D02*
X123390000Y-122590000D01*
X161995000Y-106500000D02*
X162125000Y-106500000D01*
X162125000Y-106500000D02*
X162125000Y-111940000D01*
X162125000Y-111940000D02*
X161995000Y-111940000D01*
X159315000Y-106500000D02*
X159185000Y-106500000D01*
X159185000Y-106500000D02*
X159185000Y-111940000D01*
X159185000Y-111940000D02*
X159315000Y-111940000D01*
X162125000Y-107400000D02*
X159185000Y-107400000D01*
X162125000Y-107520000D02*
X159185000Y-107520000D01*
X162125000Y-107280000D02*
X159185000Y-107280000D01*
X119704000Y-129360000D02*
X119834000Y-129360000D01*
X119834000Y-129360000D02*
X119834000Y-134800000D01*
X119834000Y-134800000D02*
X119704000Y-134800000D01*
X117024000Y-129360000D02*
X116894000Y-129360000D01*
X116894000Y-129360000D02*
X116894000Y-134800000D01*
X116894000Y-134800000D02*
X117024000Y-134800000D01*
X119834000Y-130260000D02*
X116894000Y-130260000D01*
X119834000Y-130380000D02*
X116894000Y-130380000D01*
X119834000Y-130140000D02*
X116894000Y-130140000D01*
X117024000Y-123370000D02*
X116894000Y-123370000D01*
X116894000Y-123370000D02*
X116894000Y-117930000D01*
X116894000Y-117930000D02*
X117024000Y-117930000D01*
X119704000Y-123370000D02*
X119834000Y-123370000D01*
X119834000Y-123370000D02*
X119834000Y-117930000D01*
X119834000Y-117930000D02*
X119704000Y-117930000D01*
X116894000Y-122470000D02*
X119834000Y-122470000D01*
X116894000Y-122350000D02*
X119834000Y-122350000D01*
X116894000Y-122590000D02*
X119834000Y-122590000D01*
X220800000Y-128200000D02*
X220800000Y-128070000D01*
X220800000Y-128070000D02*
X226240000Y-128070000D01*
X226240000Y-128070000D02*
X226240000Y-128200000D01*
X220800000Y-130880000D02*
X220800000Y-131010000D01*
X220800000Y-131010000D02*
X226240000Y-131010000D01*
X226240000Y-131010000D02*
X226240000Y-130880000D01*
X221700000Y-128070000D02*
X221700000Y-131010000D01*
X221820000Y-128070000D02*
X221820000Y-131010000D01*
X221580000Y-128070000D02*
X221580000Y-131010000D01*
X123260000Y-129360000D02*
X123390000Y-129360000D01*
X123390000Y-129360000D02*
X123390000Y-134800000D01*
X123390000Y-134800000D02*
X123260000Y-134800000D01*
X120580000Y-129360000D02*
X120450000Y-129360000D01*
X120450000Y-129360000D02*
X120450000Y-134800000D01*
X120450000Y-134800000D02*
X120580000Y-134800000D01*
X123390000Y-130260000D02*
X120450000Y-130260000D01*
X123390000Y-130380000D02*
X120450000Y-130380000D01*
X123390000Y-130140000D02*
X120450000Y-130140000D01*
X113468000Y-123370000D02*
X113338000Y-123370000D01*
X113338000Y-123370000D02*
X113338000Y-117930000D01*
X113338000Y-117930000D02*
X113468000Y-117930000D01*
X116148000Y-123370000D02*
X116278000Y-123370000D01*
X116278000Y-123370000D02*
X116278000Y-117930000D01*
X116278000Y-117930000D02*
X116148000Y-117930000D01*
X113338000Y-122470000D02*
X116278000Y-122470000D01*
X113338000Y-122350000D02*
X116278000Y-122350000D01*
X113338000Y-122590000D02*
X116278000Y-122590000D01*
X126816000Y-129360000D02*
X126946000Y-129360000D01*
X126946000Y-129360000D02*
X126946000Y-134800000D01*
X126946000Y-134800000D02*
X126816000Y-134800000D01*
X124136000Y-129360000D02*
X124006000Y-129360000D01*
X124006000Y-129360000D02*
X124006000Y-134800000D01*
X124006000Y-134800000D02*
X124136000Y-134800000D01*
X126946000Y-130260000D02*
X124006000Y-130260000D01*
X126946000Y-130380000D02*
X124006000Y-130380000D01*
X126946000Y-130140000D02*
X124006000Y-130140000D01*
X109912000Y-123370000D02*
X109782000Y-123370000D01*
X109782000Y-123370000D02*
X109782000Y-117930000D01*
X109782000Y-117930000D02*
X109912000Y-117930000D01*
X112592000Y-123370000D02*
X112722000Y-123370000D01*
X112722000Y-123370000D02*
X112722000Y-117930000D01*
X112722000Y-117930000D02*
X112592000Y-117930000D01*
X109782000Y-122470000D02*
X112722000Y-122470000D01*
X109782000Y-122350000D02*
X112722000Y-122350000D01*
X109782000Y-122590000D02*
X112722000Y-122590000D01*
X130372000Y-129360000D02*
X130502000Y-129360000D01*
X130502000Y-129360000D02*
X130502000Y-134800000D01*
X130502000Y-134800000D02*
X130372000Y-134800000D01*
X127692000Y-129360000D02*
X127562000Y-129360000D01*
X127562000Y-129360000D02*
X127562000Y-134800000D01*
X127562000Y-134800000D02*
X127692000Y-134800000D01*
X130502000Y-130260000D02*
X127562000Y-130260000D01*
X130502000Y-130380000D02*
X127562000Y-130380000D01*
X130502000Y-130140000D02*
X127562000Y-130140000D01*
X106356000Y-123370000D02*
X106226000Y-123370000D01*
X106226000Y-123370000D02*
X106226000Y-117930000D01*
X106226000Y-117930000D02*
X106356000Y-117930000D01*
X109036000Y-123370000D02*
X109166000Y-123370000D01*
X109166000Y-123370000D02*
X109166000Y-117930000D01*
X109166000Y-117930000D02*
X109036000Y-117930000D01*
X106226000Y-122470000D02*
X109166000Y-122470000D01*
X106226000Y-122350000D02*
X109166000Y-122350000D01*
X106226000Y-122590000D02*
X109166000Y-122590000D01*
X148152000Y-129360000D02*
X148282000Y-129360000D01*
X148282000Y-129360000D02*
X148282000Y-134800000D01*
X148282000Y-134800000D02*
X148152000Y-134800000D01*
X145472000Y-129360000D02*
X145342000Y-129360000D01*
X145342000Y-129360000D02*
X145342000Y-134800000D01*
X145342000Y-134800000D02*
X145472000Y-134800000D01*
X148282000Y-130260000D02*
X145342000Y-130260000D01*
X148282000Y-130380000D02*
X145342000Y-130380000D01*
X148282000Y-130140000D02*
X145342000Y-130140000D01*
X102800000Y-123370000D02*
X102670000Y-123370000D01*
X102670000Y-123370000D02*
X102670000Y-117930000D01*
X102670000Y-117930000D02*
X102800000Y-117930000D01*
X105480000Y-123370000D02*
X105610000Y-123370000D01*
X105610000Y-123370000D02*
X105610000Y-117930000D01*
X105610000Y-117930000D02*
X105480000Y-117930000D01*
X102670000Y-122470000D02*
X105610000Y-122470000D01*
X102670000Y-122350000D02*
X105610000Y-122350000D01*
X102670000Y-122590000D02*
X105610000Y-122590000D01*
X195015000Y-106500000D02*
X195145000Y-106500000D01*
X195145000Y-106500000D02*
X195145000Y-111940000D01*
X195145000Y-111940000D02*
X195015000Y-111940000D01*
X192335000Y-106500000D02*
X192205000Y-106500000D01*
X192205000Y-106500000D02*
X192205000Y-111940000D01*
X192205000Y-111940000D02*
X192335000Y-111940000D01*
X195145000Y-107400000D02*
X192205000Y-107400000D01*
X195145000Y-107520000D02*
X192205000Y-107520000D01*
X195145000Y-107280000D02*
X192205000Y-107280000D01*
X144596000Y-129360000D02*
X144726000Y-129360000D01*
X144726000Y-129360000D02*
X144726000Y-134800000D01*
X144726000Y-134800000D02*
X144596000Y-134800000D01*
X141916000Y-129360000D02*
X141786000Y-129360000D01*
X141786000Y-129360000D02*
X141786000Y-134800000D01*
X141786000Y-134800000D02*
X141916000Y-134800000D01*
X144726000Y-130260000D02*
X141786000Y-130260000D01*
X144726000Y-130380000D02*
X141786000Y-130380000D01*
X144726000Y-130140000D02*
X141786000Y-130140000D01*
X141040000Y-129360000D02*
X141170000Y-129360000D01*
X141170000Y-129360000D02*
X141170000Y-134800000D01*
X141170000Y-134800000D02*
X141040000Y-134800000D01*
X138360000Y-129360000D02*
X138230000Y-129360000D01*
X138230000Y-129360000D02*
X138230000Y-134800000D01*
X138230000Y-134800000D02*
X138360000Y-134800000D01*
X141170000Y-130260000D02*
X138230000Y-130260000D01*
X141170000Y-130380000D02*
X138230000Y-130380000D01*
X141170000Y-130140000D02*
X138230000Y-130140000D01*
X137484000Y-129360000D02*
X137614000Y-129360000D01*
X137614000Y-129360000D02*
X137614000Y-134800000D01*
X137614000Y-134800000D02*
X137484000Y-134800000D01*
X134804000Y-129360000D02*
X134674000Y-129360000D01*
X134674000Y-129360000D02*
X134674000Y-134800000D01*
X134674000Y-134800000D02*
X134804000Y-134800000D01*
X137614000Y-130260000D02*
X134674000Y-130260000D01*
X137614000Y-130380000D02*
X134674000Y-130380000D01*
X137614000Y-130140000D02*
X134674000Y-130140000D01*
X133928000Y-129360000D02*
X134058000Y-129360000D01*
X134058000Y-129360000D02*
X134058000Y-134800000D01*
X134058000Y-134800000D02*
X133928000Y-134800000D01*
X131248000Y-129360000D02*
X131118000Y-129360000D01*
X131118000Y-129360000D02*
X131118000Y-134800000D01*
X131118000Y-134800000D02*
X131248000Y-134800000D01*
X134058000Y-130260000D02*
X131118000Y-130260000D01*
X134058000Y-130380000D02*
X131118000Y-130380000D01*
X134058000Y-130140000D02*
X131118000Y-130140000D01*
X151708000Y-129360000D02*
X151838000Y-129360000D01*
X151838000Y-129360000D02*
X151838000Y-134800000D01*
X151838000Y-134800000D02*
X151708000Y-134800000D01*
X149028000Y-129360000D02*
X148898000Y-129360000D01*
X148898000Y-129360000D02*
X148898000Y-134800000D01*
X148898000Y-134800000D02*
X149028000Y-134800000D01*
X151838000Y-130260000D02*
X148898000Y-130260000D01*
X151838000Y-130380000D02*
X148898000Y-130380000D01*
X151838000Y-130140000D02*
X148898000Y-130140000D01*
X155264000Y-129360000D02*
X155394000Y-129360000D01*
X155394000Y-129360000D02*
X155394000Y-134800000D01*
X155394000Y-134800000D02*
X155264000Y-134800000D01*
X152584000Y-129360000D02*
X152454000Y-129360000D01*
X152454000Y-129360000D02*
X152454000Y-134800000D01*
X152454000Y-134800000D02*
X152584000Y-134800000D01*
X155394000Y-130260000D02*
X152454000Y-130260000D01*
X155394000Y-130380000D02*
X152454000Y-130380000D01*
X155394000Y-130140000D02*
X152454000Y-130140000D01*
X158820000Y-129360000D02*
X158950000Y-129360000D01*
X158950000Y-129360000D02*
X158950000Y-134800000D01*
X158950000Y-134800000D02*
X158820000Y-134800000D01*
X156140000Y-129360000D02*
X156010000Y-129360000D01*
X156010000Y-129360000D02*
X156010000Y-134800000D01*
X156010000Y-134800000D02*
X156140000Y-134800000D01*
X158950000Y-130260000D02*
X156010000Y-130260000D01*
X158950000Y-130380000D02*
X156010000Y-130380000D01*
X158950000Y-130140000D02*
X156010000Y-130140000D01*
X162376000Y-129360000D02*
X162506000Y-129360000D01*
X162506000Y-129360000D02*
X162506000Y-134800000D01*
X162506000Y-134800000D02*
X162376000Y-134800000D01*
X159696000Y-129360000D02*
X159566000Y-129360000D01*
X159566000Y-129360000D02*
X159566000Y-134800000D01*
X159566000Y-134800000D02*
X159696000Y-134800000D01*
X162506000Y-130260000D02*
X159566000Y-130260000D01*
X162506000Y-130380000D02*
X159566000Y-130380000D01*
X162506000Y-130140000D02*
X159566000Y-130140000D01*
X165932000Y-129360000D02*
X166062000Y-129360000D01*
X166062000Y-129360000D02*
X166062000Y-134800000D01*
X166062000Y-134800000D02*
X165932000Y-134800000D01*
X163252000Y-129360000D02*
X163122000Y-129360000D01*
X163122000Y-129360000D02*
X163122000Y-134800000D01*
X163122000Y-134800000D02*
X163252000Y-134800000D01*
X166062000Y-130260000D02*
X163122000Y-130260000D01*
X166062000Y-130380000D02*
X163122000Y-130380000D01*
X166062000Y-130140000D02*
X163122000Y-130140000D01*
D13*
X114935000Y-109220000D02*
X113665000Y-109220000D01*
X114935000Y-111760000D02*
X113665000Y-111760000D01*
X110935000Y-107340000D02*
G75*
G03X111935000Y-107340000I500000J0D01*
G01*
X111935000Y-113640000D02*
G75*
G03X110935000Y-113640000I-500000J0D01*
G01*
X113435000Y-113640000D02*
X102435000Y-113640000D01*
X102435000Y-113640000D02*
X102435000Y-107340000D01*
X102435000Y-107340000D02*
X113435000Y-107340000D01*
X113435000Y-107340000D02*
X113435000Y-113640000D01*
D14*
X206560000Y-113340000D02*
X206560000Y-107640000D01*
X206560000Y-107640000D02*
X195960000Y-107640000D01*
X195960000Y-107640000D02*
X195960000Y-113340000D01*
X195960000Y-113340000D02*
X206560000Y-113340000D01*
X225100000Y-112845000D02*
X219400000Y-112845000D01*
X219400000Y-112845000D02*
X219400000Y-123445000D01*
X219400000Y-123445000D02*
X225100000Y-123445000D01*
X225100000Y-123445000D02*
X225100000Y-112845000D01*
X134805000Y-113340000D02*
X134805000Y-107640000D01*
X134805000Y-107640000D02*
X124205000Y-107640000D01*
X124205000Y-107640000D02*
X124205000Y-113340000D01*
X124205000Y-113340000D02*
X134805000Y-113340000D01*
X213670000Y-112845000D02*
X207970000Y-112845000D01*
X207970000Y-112845000D02*
X207970000Y-123445000D01*
X207970000Y-123445000D02*
X213670000Y-123445000D01*
X213670000Y-123445000D02*
X213670000Y-112845000D01*
X173540000Y-113340000D02*
X173540000Y-107640000D01*
X173540000Y-107640000D02*
X162940000Y-107640000D01*
X162940000Y-107640000D02*
X162940000Y-113340000D01*
X162940000Y-113340000D02*
X173540000Y-113340000D01*
D11*
X216987381Y-120816666D02*
X216511190Y-121150000D01*
X216987381Y-121388095D02*
X215987381Y-121388095D01*
X215987381Y-121007142D01*
X216035000Y-120911904D01*
X216082619Y-120864285D01*
X216177857Y-120816666D01*
X216320714Y-120816666D01*
X216415952Y-120864285D01*
X216463571Y-120911904D01*
X216511190Y-121007142D01*
X216511190Y-121388095D01*
X216987381Y-119864285D02*
X216987381Y-120435714D01*
X216987381Y-120150000D02*
X215987381Y-120150000D01*
X216130238Y-120245238D01*
X216225476Y-120340476D01*
X216273095Y-120435714D01*
X228417381Y-120816666D02*
X227941190Y-121150000D01*
X228417381Y-121388095D02*
X227417381Y-121388095D01*
X227417381Y-121007142D01*
X227465000Y-120911904D01*
X227512619Y-120864285D01*
X227607857Y-120816666D01*
X227750714Y-120816666D01*
X227845952Y-120864285D01*
X227893571Y-120911904D01*
X227941190Y-121007142D01*
X227941190Y-121388095D01*
X227512619Y-120435714D02*
X227465000Y-120388095D01*
X227417381Y-120292857D01*
X227417381Y-120054761D01*
X227465000Y-119959523D01*
X227512619Y-119911904D01*
X227607857Y-119864285D01*
X227703095Y-119864285D01*
X227845952Y-119911904D01*
X228417381Y-120483333D01*
X228417381Y-119864285D01*
X206986143Y-126912666D02*
X207033762Y-126960285D01*
X207081381Y-127103142D01*
X207081381Y-127198380D01*
X207033762Y-127341238D01*
X206938524Y-127436476D01*
X206843286Y-127484095D01*
X206652810Y-127531714D01*
X206509952Y-127531714D01*
X206319476Y-127484095D01*
X206224238Y-127436476D01*
X206129000Y-127341238D01*
X206081381Y-127198380D01*
X206081381Y-127103142D01*
X206129000Y-126960285D01*
X206176619Y-126912666D01*
X207081381Y-125960285D02*
X207081381Y-126531714D01*
X207081381Y-126246000D02*
X206081381Y-126246000D01*
X206224238Y-126341238D01*
X206319476Y-126436476D01*
X206367095Y-126531714D01*
X218416143Y-126912666D02*
X218463762Y-126960285D01*
X218511381Y-127103142D01*
X218511381Y-127198380D01*
X218463762Y-127341238D01*
X218368524Y-127436476D01*
X218273286Y-127484095D01*
X218082810Y-127531714D01*
X217939952Y-127531714D01*
X217749476Y-127484095D01*
X217654238Y-127436476D01*
X217559000Y-127341238D01*
X217511381Y-127198380D01*
X217511381Y-127103142D01*
X217559000Y-126960285D01*
X217606619Y-126912666D01*
X217606619Y-126531714D02*
X217559000Y-126484095D01*
X217511381Y-126388857D01*
X217511381Y-126150761D01*
X217559000Y-126055523D01*
X217606619Y-126007904D01*
X217701857Y-125960285D01*
X217797095Y-125960285D01*
X217939952Y-126007904D01*
X218511381Y-126579333D01*
X218511381Y-125960285D01*
X210970905Y-129992381D02*
X210970905Y-128992381D01*
X211209000Y-128992381D01*
X211351858Y-129040000D01*
X211447096Y-129135238D01*
X211494715Y-129230476D01*
X211542334Y-129420952D01*
X211542334Y-129563810D01*
X211494715Y-129754286D01*
X211447096Y-129849524D01*
X211351858Y-129944762D01*
X211209000Y-129992381D01*
X210970905Y-129992381D01*
X212494715Y-129992381D02*
X211923286Y-129992381D01*
X212209000Y-129992381D02*
X212209000Y-128992381D01*
X212113762Y-129135238D01*
X212018524Y-129230476D01*
X211923286Y-129278095D01*
X122372381Y-110339095D02*
X121372381Y-110339095D01*
X121372381Y-110101000D01*
X121420000Y-109958142D01*
X121515238Y-109862904D01*
X121610476Y-109815285D01*
X121800952Y-109767666D01*
X121943810Y-109767666D01*
X122134286Y-109815285D01*
X122229524Y-109862904D01*
X122324762Y-109958142D01*
X122372381Y-110101000D01*
X122372381Y-110339095D01*
X121467619Y-109386714D02*
X121420000Y-109339095D01*
X121372381Y-109243857D01*
X121372381Y-109005761D01*
X121420000Y-108910523D01*
X121467619Y-108862904D01*
X121562857Y-108815285D01*
X121658095Y-108815285D01*
X121800952Y-108862904D01*
X122372381Y-109434333D01*
X122372381Y-108815285D01*
X104592381Y-133199095D02*
X103592381Y-133199095D01*
X103592381Y-132961000D01*
X103640000Y-132818142D01*
X103735238Y-132722904D01*
X103830476Y-132675285D01*
X104020952Y-132627666D01*
X104163810Y-132627666D01*
X104354286Y-132675285D01*
X104449524Y-132722904D01*
X104544762Y-132818142D01*
X104592381Y-132961000D01*
X104592381Y-133199095D01*
X103592381Y-132294333D02*
X103592381Y-131675285D01*
X103973333Y-132008619D01*
X103973333Y-131865761D01*
X104020952Y-131770523D01*
X104068571Y-131722904D01*
X104163810Y-131675285D01*
X104401905Y-131675285D01*
X104497143Y-131722904D01*
X104544762Y-131770523D01*
X104592381Y-131865761D01*
X104592381Y-132151476D01*
X104544762Y-132246714D01*
X104497143Y-132294333D01*
X133040381Y-121007095D02*
X132040381Y-121007095D01*
X132040381Y-120769000D01*
X132088000Y-120626142D01*
X132183238Y-120530904D01*
X132278476Y-120483285D01*
X132468952Y-120435666D01*
X132611810Y-120435666D01*
X132802286Y-120483285D01*
X132897524Y-120530904D01*
X132992762Y-120626142D01*
X133040381Y-120769000D01*
X133040381Y-121007095D01*
X132373714Y-119578523D02*
X133040381Y-119578523D01*
X131992762Y-119816619D02*
X132707048Y-120054714D01*
X132707048Y-119435666D01*
X108148381Y-133199095D02*
X107148381Y-133199095D01*
X107148381Y-132961000D01*
X107196000Y-132818142D01*
X107291238Y-132722904D01*
X107386476Y-132675285D01*
X107576952Y-132627666D01*
X107719810Y-132627666D01*
X107910286Y-132675285D01*
X108005524Y-132722904D01*
X108100762Y-132818142D01*
X108148381Y-132961000D01*
X108148381Y-133199095D01*
X107148381Y-131722904D02*
X107148381Y-132199095D01*
X107624571Y-132246714D01*
X107576952Y-132199095D01*
X107529333Y-132103857D01*
X107529333Y-131865761D01*
X107576952Y-131770523D01*
X107624571Y-131722904D01*
X107719810Y-131675285D01*
X107957905Y-131675285D01*
X108053143Y-131722904D01*
X108100762Y-131770523D01*
X108148381Y-131865761D01*
X108148381Y-132103857D01*
X108100762Y-132199095D01*
X108053143Y-132246714D01*
X129484381Y-121007095D02*
X128484381Y-121007095D01*
X128484381Y-120769000D01*
X128532000Y-120626142D01*
X128627238Y-120530904D01*
X128722476Y-120483285D01*
X128912952Y-120435666D01*
X129055810Y-120435666D01*
X129246286Y-120483285D01*
X129341524Y-120530904D01*
X129436762Y-120626142D01*
X129484381Y-120769000D01*
X129484381Y-121007095D01*
X128484381Y-119578523D02*
X128484381Y-119769000D01*
X128532000Y-119864238D01*
X128579619Y-119911857D01*
X128722476Y-120007095D01*
X128912952Y-120054714D01*
X129293905Y-120054714D01*
X129389143Y-120007095D01*
X129436762Y-119959476D01*
X129484381Y-119864238D01*
X129484381Y-119673761D01*
X129436762Y-119578523D01*
X129389143Y-119530904D01*
X129293905Y-119483285D01*
X129055810Y-119483285D01*
X128960571Y-119530904D01*
X128912952Y-119578523D01*
X128865333Y-119673761D01*
X128865333Y-119864238D01*
X128912952Y-119959476D01*
X128960571Y-120007095D01*
X129055810Y-120054714D01*
X111704381Y-133199095D02*
X110704381Y-133199095D01*
X110704381Y-132961000D01*
X110752000Y-132818142D01*
X110847238Y-132722904D01*
X110942476Y-132675285D01*
X111132952Y-132627666D01*
X111275810Y-132627666D01*
X111466286Y-132675285D01*
X111561524Y-132722904D01*
X111656762Y-132818142D01*
X111704381Y-132961000D01*
X111704381Y-133199095D01*
X110704381Y-132294333D02*
X110704381Y-131627666D01*
X111704381Y-132056238D01*
X125928381Y-121007095D02*
X124928381Y-121007095D01*
X124928381Y-120769000D01*
X124976000Y-120626142D01*
X125071238Y-120530904D01*
X125166476Y-120483285D01*
X125356952Y-120435666D01*
X125499810Y-120435666D01*
X125690286Y-120483285D01*
X125785524Y-120530904D01*
X125880762Y-120626142D01*
X125928381Y-120769000D01*
X125928381Y-121007095D01*
X125356952Y-119864238D02*
X125309333Y-119959476D01*
X125261714Y-120007095D01*
X125166476Y-120054714D01*
X125118857Y-120054714D01*
X125023619Y-120007095D01*
X124976000Y-119959476D01*
X124928381Y-119864238D01*
X124928381Y-119673761D01*
X124976000Y-119578523D01*
X125023619Y-119530904D01*
X125118857Y-119483285D01*
X125166476Y-119483285D01*
X125261714Y-119530904D01*
X125309333Y-119578523D01*
X125356952Y-119673761D01*
X125356952Y-119864238D01*
X125404571Y-119959476D01*
X125452190Y-120007095D01*
X125547429Y-120054714D01*
X125737905Y-120054714D01*
X125833143Y-120007095D01*
X125880762Y-119959476D01*
X125928381Y-119864238D01*
X125928381Y-119673761D01*
X125880762Y-119578523D01*
X125833143Y-119530904D01*
X125737905Y-119483285D01*
X125547429Y-119483285D01*
X125452190Y-119530904D01*
X125404571Y-119578523D01*
X125356952Y-119673761D01*
X115260381Y-133199095D02*
X114260381Y-133199095D01*
X114260381Y-132961000D01*
X114308000Y-132818142D01*
X114403238Y-132722904D01*
X114498476Y-132675285D01*
X114688952Y-132627666D01*
X114831810Y-132627666D01*
X115022286Y-132675285D01*
X115117524Y-132722904D01*
X115212762Y-132818142D01*
X115260381Y-132961000D01*
X115260381Y-133199095D01*
X115260381Y-132151476D02*
X115260381Y-131961000D01*
X115212762Y-131865761D01*
X115165143Y-131818142D01*
X115022286Y-131722904D01*
X114831810Y-131675285D01*
X114450857Y-131675285D01*
X114355619Y-131722904D01*
X114308000Y-131770523D01*
X114260381Y-131865761D01*
X114260381Y-132056238D01*
X114308000Y-132151476D01*
X114355619Y-132199095D01*
X114450857Y-132246714D01*
X114688952Y-132246714D01*
X114784190Y-132199095D01*
X114831810Y-132151476D01*
X114879429Y-132056238D01*
X114879429Y-131865761D01*
X114831810Y-131770523D01*
X114784190Y-131722904D01*
X114688952Y-131675285D01*
X122372381Y-121483286D02*
X121372381Y-121483286D01*
X121372381Y-121245191D01*
X121420000Y-121102333D01*
X121515238Y-121007095D01*
X121610476Y-120959476D01*
X121800952Y-120911857D01*
X121943810Y-120911857D01*
X122134286Y-120959476D01*
X122229524Y-121007095D01*
X122324762Y-121102333D01*
X122372381Y-121245191D01*
X122372381Y-121483286D01*
X122372381Y-119959476D02*
X122372381Y-120530905D01*
X122372381Y-120245191D02*
X121372381Y-120245191D01*
X121515238Y-120340429D01*
X121610476Y-120435667D01*
X121658095Y-120530905D01*
X121372381Y-119340429D02*
X121372381Y-119245190D01*
X121420000Y-119149952D01*
X121467619Y-119102333D01*
X121562857Y-119054714D01*
X121753333Y-119007095D01*
X121991429Y-119007095D01*
X122181905Y-119054714D01*
X122277143Y-119102333D01*
X122324762Y-119149952D01*
X122372381Y-119245190D01*
X122372381Y-119340429D01*
X122324762Y-119435667D01*
X122277143Y-119483286D01*
X122181905Y-119530905D01*
X121991429Y-119578524D01*
X121753333Y-119578524D01*
X121562857Y-119530905D01*
X121467619Y-119483286D01*
X121420000Y-119435667D01*
X121372381Y-119340429D01*
X161107381Y-111069286D02*
X160107381Y-111069286D01*
X160107381Y-110831191D01*
X160155000Y-110688333D01*
X160250238Y-110593095D01*
X160345476Y-110545476D01*
X160535952Y-110497857D01*
X160678810Y-110497857D01*
X160869286Y-110545476D01*
X160964524Y-110593095D01*
X161059762Y-110688333D01*
X161107381Y-110831191D01*
X161107381Y-111069286D01*
X161107381Y-109545476D02*
X161107381Y-110116905D01*
X161107381Y-109831191D02*
X160107381Y-109831191D01*
X160250238Y-109926429D01*
X160345476Y-110021667D01*
X160393095Y-110116905D01*
X161107381Y-108593095D02*
X161107381Y-109164524D01*
X161107381Y-108878810D02*
X160107381Y-108878810D01*
X160250238Y-108974048D01*
X160345476Y-109069286D01*
X160393095Y-109164524D01*
X118816381Y-133675286D02*
X117816381Y-133675286D01*
X117816381Y-133437191D01*
X117864000Y-133294333D01*
X117959238Y-133199095D01*
X118054476Y-133151476D01*
X118244952Y-133103857D01*
X118387810Y-133103857D01*
X118578286Y-133151476D01*
X118673524Y-133199095D01*
X118768762Y-133294333D01*
X118816381Y-133437191D01*
X118816381Y-133675286D01*
X118816381Y-132151476D02*
X118816381Y-132722905D01*
X118816381Y-132437191D02*
X117816381Y-132437191D01*
X117959238Y-132532429D01*
X118054476Y-132627667D01*
X118102095Y-132722905D01*
X117911619Y-131770524D02*
X117864000Y-131722905D01*
X117816381Y-131627667D01*
X117816381Y-131389571D01*
X117864000Y-131294333D01*
X117911619Y-131246714D01*
X118006857Y-131199095D01*
X118102095Y-131199095D01*
X118244952Y-131246714D01*
X118816381Y-131818143D01*
X118816381Y-131199095D01*
X118816381Y-121483286D02*
X117816381Y-121483286D01*
X117816381Y-121245191D01*
X117864000Y-121102333D01*
X117959238Y-121007095D01*
X118054476Y-120959476D01*
X118244952Y-120911857D01*
X118387810Y-120911857D01*
X118578286Y-120959476D01*
X118673524Y-121007095D01*
X118768762Y-121102333D01*
X118816381Y-121245191D01*
X118816381Y-121483286D01*
X118816381Y-119959476D02*
X118816381Y-120530905D01*
X118816381Y-120245191D02*
X117816381Y-120245191D01*
X117959238Y-120340429D01*
X118054476Y-120435667D01*
X118102095Y-120530905D01*
X117816381Y-119626143D02*
X117816381Y-119007095D01*
X118197333Y-119340429D01*
X118197333Y-119197571D01*
X118244952Y-119102333D01*
X118292571Y-119054714D01*
X118387810Y-119007095D01*
X118625905Y-119007095D01*
X118721143Y-119054714D01*
X118768762Y-119102333D01*
X118816381Y-119197571D01*
X118816381Y-119483286D01*
X118768762Y-119578524D01*
X118721143Y-119626143D01*
X222686714Y-129992381D02*
X222686714Y-128992381D01*
X222924809Y-128992381D01*
X223067667Y-129040000D01*
X223162905Y-129135238D01*
X223210524Y-129230476D01*
X223258143Y-129420952D01*
X223258143Y-129563810D01*
X223210524Y-129754286D01*
X223162905Y-129849524D01*
X223067667Y-129944762D01*
X222924809Y-129992381D01*
X222686714Y-129992381D01*
X224210524Y-129992381D02*
X223639095Y-129992381D01*
X223924809Y-129992381D02*
X223924809Y-128992381D01*
X223829571Y-129135238D01*
X223734333Y-129230476D01*
X223639095Y-129278095D01*
X225067667Y-129325714D02*
X225067667Y-129992381D01*
X224829571Y-128944762D02*
X224591476Y-129659048D01*
X225210524Y-129659048D01*
X122372381Y-133675286D02*
X121372381Y-133675286D01*
X121372381Y-133437191D01*
X121420000Y-133294333D01*
X121515238Y-133199095D01*
X121610476Y-133151476D01*
X121800952Y-133103857D01*
X121943810Y-133103857D01*
X122134286Y-133151476D01*
X122229524Y-133199095D01*
X122324762Y-133294333D01*
X122372381Y-133437191D01*
X122372381Y-133675286D01*
X122372381Y-132151476D02*
X122372381Y-132722905D01*
X122372381Y-132437191D02*
X121372381Y-132437191D01*
X121515238Y-132532429D01*
X121610476Y-132627667D01*
X121658095Y-132722905D01*
X121372381Y-131246714D02*
X121372381Y-131722905D01*
X121848571Y-131770524D01*
X121800952Y-131722905D01*
X121753333Y-131627667D01*
X121753333Y-131389571D01*
X121800952Y-131294333D01*
X121848571Y-131246714D01*
X121943810Y-131199095D01*
X122181905Y-131199095D01*
X122277143Y-131246714D01*
X122324762Y-131294333D01*
X122372381Y-131389571D01*
X122372381Y-131627667D01*
X122324762Y-131722905D01*
X122277143Y-131770524D01*
X115260381Y-121483286D02*
X114260381Y-121483286D01*
X114260381Y-121245191D01*
X114308000Y-121102333D01*
X114403238Y-121007095D01*
X114498476Y-120959476D01*
X114688952Y-120911857D01*
X114831810Y-120911857D01*
X115022286Y-120959476D01*
X115117524Y-121007095D01*
X115212762Y-121102333D01*
X115260381Y-121245191D01*
X115260381Y-121483286D01*
X115260381Y-119959476D02*
X115260381Y-120530905D01*
X115260381Y-120245191D02*
X114260381Y-120245191D01*
X114403238Y-120340429D01*
X114498476Y-120435667D01*
X114546095Y-120530905D01*
X114260381Y-119102333D02*
X114260381Y-119292810D01*
X114308000Y-119388048D01*
X114355619Y-119435667D01*
X114498476Y-119530905D01*
X114688952Y-119578524D01*
X115069905Y-119578524D01*
X115165143Y-119530905D01*
X115212762Y-119483286D01*
X115260381Y-119388048D01*
X115260381Y-119197571D01*
X115212762Y-119102333D01*
X115165143Y-119054714D01*
X115069905Y-119007095D01*
X114831810Y-119007095D01*
X114736571Y-119054714D01*
X114688952Y-119102333D01*
X114641333Y-119197571D01*
X114641333Y-119388048D01*
X114688952Y-119483286D01*
X114736571Y-119530905D01*
X114831810Y-119578524D01*
X125928381Y-133675286D02*
X124928381Y-133675286D01*
X124928381Y-133437191D01*
X124976000Y-133294333D01*
X125071238Y-133199095D01*
X125166476Y-133151476D01*
X125356952Y-133103857D01*
X125499810Y-133103857D01*
X125690286Y-133151476D01*
X125785524Y-133199095D01*
X125880762Y-133294333D01*
X125928381Y-133437191D01*
X125928381Y-133675286D01*
X125928381Y-132151476D02*
X125928381Y-132722905D01*
X125928381Y-132437191D02*
X124928381Y-132437191D01*
X125071238Y-132532429D01*
X125166476Y-132627667D01*
X125214095Y-132722905D01*
X124928381Y-131818143D02*
X124928381Y-131151476D01*
X125928381Y-131580048D01*
X111704381Y-121483286D02*
X110704381Y-121483286D01*
X110704381Y-121245191D01*
X110752000Y-121102333D01*
X110847238Y-121007095D01*
X110942476Y-120959476D01*
X111132952Y-120911857D01*
X111275810Y-120911857D01*
X111466286Y-120959476D01*
X111561524Y-121007095D01*
X111656762Y-121102333D01*
X111704381Y-121245191D01*
X111704381Y-121483286D01*
X111704381Y-119959476D02*
X111704381Y-120530905D01*
X111704381Y-120245191D02*
X110704381Y-120245191D01*
X110847238Y-120340429D01*
X110942476Y-120435667D01*
X110990095Y-120530905D01*
X111132952Y-119388048D02*
X111085333Y-119483286D01*
X111037714Y-119530905D01*
X110942476Y-119578524D01*
X110894857Y-119578524D01*
X110799619Y-119530905D01*
X110752000Y-119483286D01*
X110704381Y-119388048D01*
X110704381Y-119197571D01*
X110752000Y-119102333D01*
X110799619Y-119054714D01*
X110894857Y-119007095D01*
X110942476Y-119007095D01*
X111037714Y-119054714D01*
X111085333Y-119102333D01*
X111132952Y-119197571D01*
X111132952Y-119388048D01*
X111180571Y-119483286D01*
X111228190Y-119530905D01*
X111323429Y-119578524D01*
X111513905Y-119578524D01*
X111609143Y-119530905D01*
X111656762Y-119483286D01*
X111704381Y-119388048D01*
X111704381Y-119197571D01*
X111656762Y-119102333D01*
X111609143Y-119054714D01*
X111513905Y-119007095D01*
X111323429Y-119007095D01*
X111228190Y-119054714D01*
X111180571Y-119102333D01*
X111132952Y-119197571D01*
X129484381Y-133675286D02*
X128484381Y-133675286D01*
X128484381Y-133437191D01*
X128532000Y-133294333D01*
X128627238Y-133199095D01*
X128722476Y-133151476D01*
X128912952Y-133103857D01*
X129055810Y-133103857D01*
X129246286Y-133151476D01*
X129341524Y-133199095D01*
X129436762Y-133294333D01*
X129484381Y-133437191D01*
X129484381Y-133675286D01*
X129484381Y-132151476D02*
X129484381Y-132722905D01*
X129484381Y-132437191D02*
X128484381Y-132437191D01*
X128627238Y-132532429D01*
X128722476Y-132627667D01*
X128770095Y-132722905D01*
X129484381Y-131675286D02*
X129484381Y-131484810D01*
X129436762Y-131389571D01*
X129389143Y-131341952D01*
X129246286Y-131246714D01*
X129055810Y-131199095D01*
X128674857Y-131199095D01*
X128579619Y-131246714D01*
X128532000Y-131294333D01*
X128484381Y-131389571D01*
X128484381Y-131580048D01*
X128532000Y-131675286D01*
X128579619Y-131722905D01*
X128674857Y-131770524D01*
X128912952Y-131770524D01*
X129008190Y-131722905D01*
X129055810Y-131675286D01*
X129103429Y-131580048D01*
X129103429Y-131389571D01*
X129055810Y-131294333D01*
X129008190Y-131246714D01*
X128912952Y-131199095D01*
X108148381Y-121483286D02*
X107148381Y-121483286D01*
X107148381Y-121245191D01*
X107196000Y-121102333D01*
X107291238Y-121007095D01*
X107386476Y-120959476D01*
X107576952Y-120911857D01*
X107719810Y-120911857D01*
X107910286Y-120959476D01*
X108005524Y-121007095D01*
X108100762Y-121102333D01*
X108148381Y-121245191D01*
X108148381Y-121483286D01*
X107243619Y-120530905D02*
X107196000Y-120483286D01*
X107148381Y-120388048D01*
X107148381Y-120149952D01*
X107196000Y-120054714D01*
X107243619Y-120007095D01*
X107338857Y-119959476D01*
X107434095Y-119959476D01*
X107576952Y-120007095D01*
X108148381Y-120578524D01*
X108148381Y-119959476D01*
X107148381Y-119340429D02*
X107148381Y-119245190D01*
X107196000Y-119149952D01*
X107243619Y-119102333D01*
X107338857Y-119054714D01*
X107529333Y-119007095D01*
X107767429Y-119007095D01*
X107957905Y-119054714D01*
X108053143Y-119102333D01*
X108100762Y-119149952D01*
X108148381Y-119245190D01*
X108148381Y-119340429D01*
X108100762Y-119435667D01*
X108053143Y-119483286D01*
X107957905Y-119530905D01*
X107767429Y-119578524D01*
X107529333Y-119578524D01*
X107338857Y-119530905D01*
X107243619Y-119483286D01*
X107196000Y-119435667D01*
X107148381Y-119340429D01*
X147264381Y-133675286D02*
X146264381Y-133675286D01*
X146264381Y-133437191D01*
X146312000Y-133294333D01*
X146407238Y-133199095D01*
X146502476Y-133151476D01*
X146692952Y-133103857D01*
X146835810Y-133103857D01*
X147026286Y-133151476D01*
X147121524Y-133199095D01*
X147216762Y-133294333D01*
X147264381Y-133437191D01*
X147264381Y-133675286D01*
X146359619Y-132722905D02*
X146312000Y-132675286D01*
X146264381Y-132580048D01*
X146264381Y-132341952D01*
X146312000Y-132246714D01*
X146359619Y-132199095D01*
X146454857Y-132151476D01*
X146550095Y-132151476D01*
X146692952Y-132199095D01*
X147264381Y-132770524D01*
X147264381Y-132151476D01*
X147264381Y-131199095D02*
X147264381Y-131770524D01*
X147264381Y-131484810D02*
X146264381Y-131484810D01*
X146407238Y-131580048D01*
X146502476Y-131675286D01*
X146550095Y-131770524D01*
X104592381Y-121483286D02*
X103592381Y-121483286D01*
X103592381Y-121245191D01*
X103640000Y-121102333D01*
X103735238Y-121007095D01*
X103830476Y-120959476D01*
X104020952Y-120911857D01*
X104163810Y-120911857D01*
X104354286Y-120959476D01*
X104449524Y-121007095D01*
X104544762Y-121102333D01*
X104592381Y-121245191D01*
X104592381Y-121483286D01*
X103687619Y-120530905D02*
X103640000Y-120483286D01*
X103592381Y-120388048D01*
X103592381Y-120149952D01*
X103640000Y-120054714D01*
X103687619Y-120007095D01*
X103782857Y-119959476D01*
X103878095Y-119959476D01*
X104020952Y-120007095D01*
X104592381Y-120578524D01*
X104592381Y-119959476D01*
X103687619Y-119578524D02*
X103640000Y-119530905D01*
X103592381Y-119435667D01*
X103592381Y-119197571D01*
X103640000Y-119102333D01*
X103687619Y-119054714D01*
X103782857Y-119007095D01*
X103878095Y-119007095D01*
X104020952Y-119054714D01*
X104592381Y-119626143D01*
X104592381Y-119007095D01*
X194127381Y-110434286D02*
X193127381Y-110434286D01*
X193127381Y-110196191D01*
X193175000Y-110053333D01*
X193270238Y-109958095D01*
X193365476Y-109910476D01*
X193555952Y-109862857D01*
X193698810Y-109862857D01*
X193889286Y-109910476D01*
X193984524Y-109958095D01*
X194079762Y-110053333D01*
X194127381Y-110196191D01*
X194127381Y-110434286D01*
X193222619Y-109481905D02*
X193175000Y-109434286D01*
X193127381Y-109339048D01*
X193127381Y-109100952D01*
X193175000Y-109005714D01*
X193222619Y-108958095D01*
X193317857Y-108910476D01*
X193413095Y-108910476D01*
X193555952Y-108958095D01*
X194127381Y-109529524D01*
X194127381Y-108910476D01*
X193127381Y-108577143D02*
X193127381Y-107958095D01*
X193508333Y-108291429D01*
X193508333Y-108148571D01*
X193555952Y-108053333D01*
X193603571Y-108005714D01*
X193698810Y-107958095D01*
X193936905Y-107958095D01*
X194032143Y-108005714D01*
X194079762Y-108053333D01*
X194127381Y-108148571D01*
X194127381Y-108434286D01*
X194079762Y-108529524D01*
X194032143Y-108577143D01*
X143708381Y-133675286D02*
X142708381Y-133675286D01*
X142708381Y-133437191D01*
X142756000Y-133294333D01*
X142851238Y-133199095D01*
X142946476Y-133151476D01*
X143136952Y-133103857D01*
X143279810Y-133103857D01*
X143470286Y-133151476D01*
X143565524Y-133199095D01*
X143660762Y-133294333D01*
X143708381Y-133437191D01*
X143708381Y-133675286D01*
X142803619Y-132722905D02*
X142756000Y-132675286D01*
X142708381Y-132580048D01*
X142708381Y-132341952D01*
X142756000Y-132246714D01*
X142803619Y-132199095D01*
X142898857Y-132151476D01*
X142994095Y-132151476D01*
X143136952Y-132199095D01*
X143708381Y-132770524D01*
X143708381Y-132151476D01*
X143041714Y-131294333D02*
X143708381Y-131294333D01*
X142660762Y-131532429D02*
X143375048Y-131770524D01*
X143375048Y-131151476D01*
X140152381Y-133675286D02*
X139152381Y-133675286D01*
X139152381Y-133437191D01*
X139200000Y-133294333D01*
X139295238Y-133199095D01*
X139390476Y-133151476D01*
X139580952Y-133103857D01*
X139723810Y-133103857D01*
X139914286Y-133151476D01*
X140009524Y-133199095D01*
X140104762Y-133294333D01*
X140152381Y-133437191D01*
X140152381Y-133675286D01*
X139247619Y-132722905D02*
X139200000Y-132675286D01*
X139152381Y-132580048D01*
X139152381Y-132341952D01*
X139200000Y-132246714D01*
X139247619Y-132199095D01*
X139342857Y-132151476D01*
X139438095Y-132151476D01*
X139580952Y-132199095D01*
X140152381Y-132770524D01*
X140152381Y-132151476D01*
X139152381Y-131246714D02*
X139152381Y-131722905D01*
X139628571Y-131770524D01*
X139580952Y-131722905D01*
X139533333Y-131627667D01*
X139533333Y-131389571D01*
X139580952Y-131294333D01*
X139628571Y-131246714D01*
X139723810Y-131199095D01*
X139961905Y-131199095D01*
X140057143Y-131246714D01*
X140104762Y-131294333D01*
X140152381Y-131389571D01*
X140152381Y-131627667D01*
X140104762Y-131722905D01*
X140057143Y-131770524D01*
X136596381Y-133675286D02*
X135596381Y-133675286D01*
X135596381Y-133437191D01*
X135644000Y-133294333D01*
X135739238Y-133199095D01*
X135834476Y-133151476D01*
X136024952Y-133103857D01*
X136167810Y-133103857D01*
X136358286Y-133151476D01*
X136453524Y-133199095D01*
X136548762Y-133294333D01*
X136596381Y-133437191D01*
X136596381Y-133675286D01*
X135691619Y-132722905D02*
X135644000Y-132675286D01*
X135596381Y-132580048D01*
X135596381Y-132341952D01*
X135644000Y-132246714D01*
X135691619Y-132199095D01*
X135786857Y-132151476D01*
X135882095Y-132151476D01*
X136024952Y-132199095D01*
X136596381Y-132770524D01*
X136596381Y-132151476D01*
X135596381Y-131294333D02*
X135596381Y-131484810D01*
X135644000Y-131580048D01*
X135691619Y-131627667D01*
X135834476Y-131722905D01*
X136024952Y-131770524D01*
X136405905Y-131770524D01*
X136501143Y-131722905D01*
X136548762Y-131675286D01*
X136596381Y-131580048D01*
X136596381Y-131389571D01*
X136548762Y-131294333D01*
X136501143Y-131246714D01*
X136405905Y-131199095D01*
X136167810Y-131199095D01*
X136072571Y-131246714D01*
X136024952Y-131294333D01*
X135977333Y-131389571D01*
X135977333Y-131580048D01*
X136024952Y-131675286D01*
X136072571Y-131722905D01*
X136167810Y-131770524D01*
X133040381Y-133675286D02*
X132040381Y-133675286D01*
X132040381Y-133437191D01*
X132088000Y-133294333D01*
X132183238Y-133199095D01*
X132278476Y-133151476D01*
X132468952Y-133103857D01*
X132611810Y-133103857D01*
X132802286Y-133151476D01*
X132897524Y-133199095D01*
X132992762Y-133294333D01*
X133040381Y-133437191D01*
X133040381Y-133675286D01*
X132135619Y-132722905D02*
X132088000Y-132675286D01*
X132040381Y-132580048D01*
X132040381Y-132341952D01*
X132088000Y-132246714D01*
X132135619Y-132199095D01*
X132230857Y-132151476D01*
X132326095Y-132151476D01*
X132468952Y-132199095D01*
X133040381Y-132770524D01*
X133040381Y-132151476D01*
X132040381Y-131818143D02*
X132040381Y-131151476D01*
X133040381Y-131580048D01*
X150820381Y-133675286D02*
X149820381Y-133675286D01*
X149820381Y-133437191D01*
X149868000Y-133294333D01*
X149963238Y-133199095D01*
X150058476Y-133151476D01*
X150248952Y-133103857D01*
X150391810Y-133103857D01*
X150582286Y-133151476D01*
X150677524Y-133199095D01*
X150772762Y-133294333D01*
X150820381Y-133437191D01*
X150820381Y-133675286D01*
X149915619Y-132722905D02*
X149868000Y-132675286D01*
X149820381Y-132580048D01*
X149820381Y-132341952D01*
X149868000Y-132246714D01*
X149915619Y-132199095D01*
X150010857Y-132151476D01*
X150106095Y-132151476D01*
X150248952Y-132199095D01*
X150820381Y-132770524D01*
X150820381Y-132151476D01*
X150248952Y-131580048D02*
X150201333Y-131675286D01*
X150153714Y-131722905D01*
X150058476Y-131770524D01*
X150010857Y-131770524D01*
X149915619Y-131722905D01*
X149868000Y-131675286D01*
X149820381Y-131580048D01*
X149820381Y-131389571D01*
X149868000Y-131294333D01*
X149915619Y-131246714D01*
X150010857Y-131199095D01*
X150058476Y-131199095D01*
X150153714Y-131246714D01*
X150201333Y-131294333D01*
X150248952Y-131389571D01*
X150248952Y-131580048D01*
X150296571Y-131675286D01*
X150344190Y-131722905D01*
X150439429Y-131770524D01*
X150629905Y-131770524D01*
X150725143Y-131722905D01*
X150772762Y-131675286D01*
X150820381Y-131580048D01*
X150820381Y-131389571D01*
X150772762Y-131294333D01*
X150725143Y-131246714D01*
X150629905Y-131199095D01*
X150439429Y-131199095D01*
X150344190Y-131246714D01*
X150296571Y-131294333D01*
X150248952Y-131389571D01*
X154376381Y-133675286D02*
X153376381Y-133675286D01*
X153376381Y-133437191D01*
X153424000Y-133294333D01*
X153519238Y-133199095D01*
X153614476Y-133151476D01*
X153804952Y-133103857D01*
X153947810Y-133103857D01*
X154138286Y-133151476D01*
X154233524Y-133199095D01*
X154328762Y-133294333D01*
X154376381Y-133437191D01*
X154376381Y-133675286D01*
X153471619Y-132722905D02*
X153424000Y-132675286D01*
X153376381Y-132580048D01*
X153376381Y-132341952D01*
X153424000Y-132246714D01*
X153471619Y-132199095D01*
X153566857Y-132151476D01*
X153662095Y-132151476D01*
X153804952Y-132199095D01*
X154376381Y-132770524D01*
X154376381Y-132151476D01*
X154376381Y-131675286D02*
X154376381Y-131484810D01*
X154328762Y-131389571D01*
X154281143Y-131341952D01*
X154138286Y-131246714D01*
X153947810Y-131199095D01*
X153566857Y-131199095D01*
X153471619Y-131246714D01*
X153424000Y-131294333D01*
X153376381Y-131389571D01*
X153376381Y-131580048D01*
X153424000Y-131675286D01*
X153471619Y-131722905D01*
X153566857Y-131770524D01*
X153804952Y-131770524D01*
X153900190Y-131722905D01*
X153947810Y-131675286D01*
X153995429Y-131580048D01*
X153995429Y-131389571D01*
X153947810Y-131294333D01*
X153900190Y-131246714D01*
X153804952Y-131199095D01*
X157932381Y-133675286D02*
X156932381Y-133675286D01*
X156932381Y-133437191D01*
X156980000Y-133294333D01*
X157075238Y-133199095D01*
X157170476Y-133151476D01*
X157360952Y-133103857D01*
X157503810Y-133103857D01*
X157694286Y-133151476D01*
X157789524Y-133199095D01*
X157884762Y-133294333D01*
X157932381Y-133437191D01*
X157932381Y-133675286D01*
X156932381Y-132770524D02*
X156932381Y-132151476D01*
X157313333Y-132484810D01*
X157313333Y-132341952D01*
X157360952Y-132246714D01*
X157408571Y-132199095D01*
X157503810Y-132151476D01*
X157741905Y-132151476D01*
X157837143Y-132199095D01*
X157884762Y-132246714D01*
X157932381Y-132341952D01*
X157932381Y-132627667D01*
X157884762Y-132722905D01*
X157837143Y-132770524D01*
X156932381Y-131532429D02*
X156932381Y-131437190D01*
X156980000Y-131341952D01*
X157027619Y-131294333D01*
X157122857Y-131246714D01*
X157313333Y-131199095D01*
X157551429Y-131199095D01*
X157741905Y-131246714D01*
X157837143Y-131294333D01*
X157884762Y-131341952D01*
X157932381Y-131437190D01*
X157932381Y-131532429D01*
X157884762Y-131627667D01*
X157837143Y-131675286D01*
X157741905Y-131722905D01*
X157551429Y-131770524D01*
X157313333Y-131770524D01*
X157122857Y-131722905D01*
X157027619Y-131675286D01*
X156980000Y-131627667D01*
X156932381Y-131532429D01*
X161488381Y-133675286D02*
X160488381Y-133675286D01*
X160488381Y-133437191D01*
X160536000Y-133294333D01*
X160631238Y-133199095D01*
X160726476Y-133151476D01*
X160916952Y-133103857D01*
X161059810Y-133103857D01*
X161250286Y-133151476D01*
X161345524Y-133199095D01*
X161440762Y-133294333D01*
X161488381Y-133437191D01*
X161488381Y-133675286D01*
X160488381Y-132770524D02*
X160488381Y-132151476D01*
X160869333Y-132484810D01*
X160869333Y-132341952D01*
X160916952Y-132246714D01*
X160964571Y-132199095D01*
X161059810Y-132151476D01*
X161297905Y-132151476D01*
X161393143Y-132199095D01*
X161440762Y-132246714D01*
X161488381Y-132341952D01*
X161488381Y-132627667D01*
X161440762Y-132722905D01*
X161393143Y-132770524D01*
X161488381Y-131199095D02*
X161488381Y-131770524D01*
X161488381Y-131484810D02*
X160488381Y-131484810D01*
X160631238Y-131580048D01*
X160726476Y-131675286D01*
X160774095Y-131770524D01*
X165044381Y-133675286D02*
X164044381Y-133675286D01*
X164044381Y-133437191D01*
X164092000Y-133294333D01*
X164187238Y-133199095D01*
X164282476Y-133151476D01*
X164472952Y-133103857D01*
X164615810Y-133103857D01*
X164806286Y-133151476D01*
X164901524Y-133199095D01*
X164996762Y-133294333D01*
X165044381Y-133437191D01*
X165044381Y-133675286D01*
X164044381Y-132770524D02*
X164044381Y-132151476D01*
X164425333Y-132484810D01*
X164425333Y-132341952D01*
X164472952Y-132246714D01*
X164520571Y-132199095D01*
X164615810Y-132151476D01*
X164853905Y-132151476D01*
X164949143Y-132199095D01*
X164996762Y-132246714D01*
X165044381Y-132341952D01*
X165044381Y-132627667D01*
X164996762Y-132722905D01*
X164949143Y-132770524D01*
X164139619Y-131770524D02*
X164092000Y-131722905D01*
X164044381Y-131627667D01*
X164044381Y-131389571D01*
X164092000Y-131294333D01*
X164139619Y-131246714D01*
X164234857Y-131199095D01*
X164330095Y-131199095D01*
X164472952Y-131246714D01*
X165044381Y-131818143D01*
X165044381Y-131199095D01*
X114768334Y-106247143D02*
X114720715Y-106294762D01*
X114577858Y-106342381D01*
X114482620Y-106342381D01*
X114339762Y-106294762D01*
X114244524Y-106199524D01*
X114196905Y-106104286D01*
X114149286Y-105913810D01*
X114149286Y-105770952D01*
X114196905Y-105580476D01*
X114244524Y-105485238D01*
X114339762Y-105390000D01*
X114482620Y-105342381D01*
X114577858Y-105342381D01*
X114720715Y-105390000D01*
X114768334Y-105437619D01*
X115101667Y-105342381D02*
X115720715Y-105342381D01*
X115387381Y-105723333D01*
X115530239Y-105723333D01*
X115625477Y-105770952D01*
X115673096Y-105818571D01*
X115720715Y-105913810D01*
X115720715Y-106151905D01*
X115673096Y-106247143D01*
X115625477Y-106294762D01*
X115530239Y-106342381D01*
X115244524Y-106342381D01*
X115149286Y-106294762D01*
X115101667Y-106247143D01*
X114554048Y-113609429D02*
X115315953Y-113609429D01*
X114935001Y-113990381D02*
X114935001Y-113228476D01*
X197321905Y-114542381D02*
X197321905Y-113542381D01*
X197893334Y-114542381D02*
X197464762Y-113970952D01*
X197893334Y-113542381D02*
X197321905Y-114113810D01*
X198798096Y-113542381D02*
X198321905Y-113542381D01*
X198274286Y-114018571D01*
X198321905Y-113970952D01*
X198417143Y-113923333D01*
X198655239Y-113923333D01*
X198750477Y-113970952D01*
X198798096Y-114018571D01*
X198845715Y-114113810D01*
X198845715Y-114351905D01*
X198798096Y-114447143D01*
X198750477Y-114494762D01*
X198655239Y-114542381D01*
X198417143Y-114542381D01*
X198321905Y-114494762D01*
X198274286Y-114447143D01*
X226302381Y-122083095D02*
X225302381Y-122083095D01*
X226302381Y-121511666D02*
X225730952Y-121940238D01*
X225302381Y-121511666D02*
X225873810Y-122083095D01*
X225635714Y-120654523D02*
X226302381Y-120654523D01*
X225254762Y-120892619D02*
X225969048Y-121130714D01*
X225969048Y-120511666D01*
X125566905Y-114542381D02*
X125566905Y-113542381D01*
X126138334Y-114542381D02*
X125709762Y-113970952D01*
X126138334Y-113542381D02*
X125566905Y-114113810D01*
X126519286Y-113637619D02*
X126566905Y-113590000D01*
X126662143Y-113542381D01*
X126900239Y-113542381D01*
X126995477Y-113590000D01*
X127043096Y-113637619D01*
X127090715Y-113732857D01*
X127090715Y-113828095D01*
X127043096Y-113970952D01*
X126471667Y-114542381D01*
X127090715Y-114542381D01*
X214872381Y-122083095D02*
X213872381Y-122083095D01*
X214872381Y-121511666D02*
X214300952Y-121940238D01*
X213872381Y-121511666D02*
X214443810Y-122083095D01*
X214872381Y-120559285D02*
X214872381Y-121130714D01*
X214872381Y-120845000D02*
X213872381Y-120845000D01*
X214015238Y-120940238D01*
X214110476Y-121035476D01*
X214158095Y-121130714D01*
X164301905Y-114542381D02*
X164301905Y-113542381D01*
X164873334Y-114542381D02*
X164444762Y-113970952D01*
X164873334Y-113542381D02*
X164301905Y-114113810D01*
X165206667Y-113542381D02*
X165825715Y-113542381D01*
X165492381Y-113923333D01*
X165635239Y-113923333D01*
X165730477Y-113970952D01*
X165778096Y-114018571D01*
X165825715Y-114113810D01*
X165825715Y-114351905D01*
X165778096Y-114447143D01*
X165730477Y-114494762D01*
X165635239Y-114542381D01*
X165349524Y-114542381D01*
X165254286Y-114494762D01*
X165206667Y-114447143D01*
M02*
