G04 #@! TF.FileFunction,Soldermask,Top*
%FSLAX46Y46*%
G04 Gerber Fmt 4.6, Leading zero omitted, Abs format (unit mm)*
G04 Created by KiCad (PCBNEW 4.0.4+e1-6308~48~ubuntu16.04.1-stable) date Mon Jan 22 22:00:05 2018*
%MOMM*%
%LPD*%
G01*
G04 APERTURE LIST*
%ADD10C,0.100000*%
%ADD11C,2.000000*%
%ADD12O,2.000000X2.000000*%
%ADD13R,2.100000X2.100000*%
%ADD14O,2.100000X2.100000*%
%ADD15R,1.670000X1.370000*%
%ADD16R,2.600000X2.600000*%
%ADD17O,2.600000X2.600000*%
%ADD18R,1.924000X1.924000*%
%ADD19C,1.924000*%
%ADD20C,2.200000*%
G04 APERTURE END LIST*
D10*
D11*
X216535000Y-115570000D03*
D12*
X216535000Y-125730000D03*
D13*
X119820000Y-140130000D03*
D14*
X122360000Y-140130000D03*
X124900000Y-140130000D03*
X127440000Y-140130000D03*
X129980000Y-140130000D03*
X132520000Y-140130000D03*
X135060000Y-140130000D03*
X137600000Y-140130000D03*
X140140000Y-140130000D03*
X142680000Y-140130000D03*
D13*
X188570000Y-140130000D03*
D14*
X191110000Y-140130000D03*
X193650000Y-140130000D03*
X196190000Y-140130000D03*
X198730000Y-140130000D03*
X201270000Y-140130000D03*
X203810000Y-140130000D03*
X206350000Y-140130000D03*
X208890000Y-140130000D03*
X211430000Y-140130000D03*
D15*
X215900000Y-135260000D03*
X215900000Y-133980000D03*
X212090000Y-110495000D03*
X212090000Y-109215000D03*
X213360000Y-135260000D03*
X213360000Y-133980000D03*
X209550000Y-110495000D03*
X209550000Y-109215000D03*
X219710000Y-135260000D03*
X219710000Y-133980000D03*
X219710000Y-110495000D03*
X219710000Y-109215000D03*
X222250000Y-135260000D03*
X222250000Y-133980000D03*
X222250000Y-110495000D03*
X222250000Y-109215000D03*
X224790000Y-110495000D03*
X224790000Y-109215000D03*
D11*
X227965000Y-115570000D03*
D12*
X227965000Y-125730000D03*
D11*
X212110000Y-125730000D03*
X209610000Y-125730000D03*
X213360000Y-125730000D03*
X208360000Y-125730000D03*
X223540000Y-125730000D03*
X221040000Y-125730000D03*
X224790000Y-125730000D03*
X219790000Y-125730000D03*
D13*
X110250000Y-103620000D03*
D14*
X112790000Y-103620000D03*
D13*
X126280000Y-103620000D03*
D14*
X128820000Y-103620000D03*
D13*
X164560000Y-103620000D03*
D14*
X167100000Y-103620000D03*
D13*
X202840000Y-103620000D03*
D14*
X205380000Y-103620000D03*
D13*
X148530000Y-103620000D03*
D14*
X151070000Y-103620000D03*
D13*
X186810000Y-103620000D03*
D14*
X189350000Y-103620000D03*
D13*
X225090000Y-103620000D03*
D14*
X227630000Y-103620000D03*
D16*
X215900000Y-129540000D03*
D17*
X208280000Y-129540000D03*
D16*
X121920000Y-105410000D03*
D17*
X121920000Y-113030000D03*
D16*
X104140000Y-128270000D03*
D17*
X104140000Y-135890000D03*
D16*
X132588000Y-124460000D03*
D17*
X132588000Y-116840000D03*
D16*
X107696000Y-128270000D03*
D17*
X107696000Y-135890000D03*
D16*
X129032000Y-124460000D03*
D17*
X129032000Y-116840000D03*
D16*
X111252000Y-128270000D03*
D17*
X111252000Y-135890000D03*
D16*
X125476000Y-124460000D03*
D17*
X125476000Y-116840000D03*
D16*
X114808000Y-128270000D03*
D17*
X114808000Y-135890000D03*
D16*
X121920000Y-124460000D03*
D17*
X121920000Y-116840000D03*
D16*
X160655000Y-105410000D03*
D17*
X160655000Y-113030000D03*
D16*
X118364000Y-128270000D03*
D17*
X118364000Y-135890000D03*
D16*
X118364000Y-124460000D03*
D17*
X118364000Y-116840000D03*
D16*
X219710000Y-129540000D03*
D17*
X227330000Y-129540000D03*
D16*
X121920000Y-128270000D03*
D17*
X121920000Y-135890000D03*
D16*
X114808000Y-124460000D03*
D17*
X114808000Y-116840000D03*
D16*
X125476000Y-128270000D03*
D17*
X125476000Y-135890000D03*
D16*
X111252000Y-124460000D03*
D17*
X111252000Y-116840000D03*
D16*
X129032000Y-128270000D03*
D17*
X129032000Y-135890000D03*
D16*
X107696000Y-124460000D03*
D17*
X107696000Y-116840000D03*
D16*
X146812000Y-128270000D03*
D17*
X146812000Y-135890000D03*
D16*
X104140000Y-124460000D03*
D17*
X104140000Y-116840000D03*
D16*
X193675000Y-105410000D03*
D17*
X193675000Y-113030000D03*
D16*
X143256000Y-128270000D03*
D17*
X143256000Y-135890000D03*
D16*
X139700000Y-128270000D03*
D17*
X139700000Y-135890000D03*
D16*
X136144000Y-128270000D03*
D17*
X136144000Y-135890000D03*
D16*
X132588000Y-128270000D03*
D17*
X132588000Y-135890000D03*
D16*
X150368000Y-128270000D03*
D17*
X150368000Y-135890000D03*
D16*
X153924000Y-128270000D03*
D17*
X153924000Y-135890000D03*
D16*
X157480000Y-128270000D03*
D17*
X157480000Y-135890000D03*
D16*
X161036000Y-128270000D03*
D17*
X161036000Y-135890000D03*
D16*
X164592000Y-128270000D03*
D17*
X164592000Y-135890000D03*
D18*
X114935000Y-111760000D03*
D19*
X114935000Y-109220000D03*
D20*
X197460000Y-112090000D03*
X200660000Y-112090000D03*
X202860000Y-112090000D03*
X205060000Y-112090000D03*
X205060000Y-108890000D03*
X202860000Y-108890000D03*
X200660000Y-108890000D03*
X197460000Y-108890000D03*
X223850000Y-121945000D03*
X223850000Y-118745000D03*
X223850000Y-116545000D03*
X223850000Y-114345000D03*
X220650000Y-114345000D03*
X220650000Y-116545000D03*
X220650000Y-118745000D03*
X220650000Y-121945000D03*
X125705000Y-112090000D03*
X128905000Y-112090000D03*
X131105000Y-112090000D03*
X133305000Y-112090000D03*
X133305000Y-108890000D03*
X131105000Y-108890000D03*
X128905000Y-108890000D03*
X125705000Y-108890000D03*
X212420000Y-121945000D03*
X212420000Y-118745000D03*
X212420000Y-116545000D03*
X212420000Y-114345000D03*
X209220000Y-114345000D03*
X209220000Y-116545000D03*
X209220000Y-118745000D03*
X209220000Y-121945000D03*
X164440000Y-112090000D03*
X167640000Y-112090000D03*
X169840000Y-112090000D03*
X172040000Y-112090000D03*
X172040000Y-108890000D03*
X169840000Y-108890000D03*
X167640000Y-108890000D03*
X164440000Y-108890000D03*
M02*
