G04 #@! TF.FileFunction,Legend,Top*
%FSLAX46Y46*%
G04 Gerber Fmt 4.6, Leading zero omitted, Abs format (unit mm)*
G04 Created by KiCad (PCBNEW 4.0.4+e1-6308~48~ubuntu16.04.1-stable) date Mon Jan 22 21:19:12 2018*
%MOMM*%
%LPD*%
G01*
G04 APERTURE LIST*
%ADD10C,0.100000*%
%ADD11C,0.150000*%
%ADD12C,0.120000*%
%ADD13C,0.200000*%
%ADD14C,0.030000*%
G04 APERTURE END LIST*
D10*
D11*
X247372263Y-108611359D02*
X247419882Y-108563740D01*
X247467501Y-108611359D01*
X247419882Y-108658978D01*
X247372263Y-108611359D01*
X247467501Y-108611359D01*
X247086549Y-108611359D02*
X246515120Y-108658978D01*
X246467501Y-108611359D01*
X246515120Y-108563740D01*
X247086549Y-108611359D01*
X246467501Y-108611359D01*
X247181787Y-108182788D02*
X247181787Y-107706597D01*
X247467501Y-108278026D02*
X246467501Y-107944693D01*
X247467501Y-107611359D01*
X247467501Y-106468502D02*
X247467501Y-106516121D01*
X247419882Y-106611359D01*
X247277025Y-106754216D01*
X246991310Y-106992311D01*
X246848453Y-107087550D01*
X246705596Y-107135169D01*
X246610358Y-107135169D01*
X246515120Y-107087550D01*
X246467501Y-106992311D01*
X246467501Y-106944692D01*
X246515120Y-106849454D01*
X246610358Y-106801835D01*
X246657977Y-106801835D01*
X246753215Y-106849454D01*
X246800834Y-106897073D01*
X246991310Y-107182788D01*
X247038930Y-107230407D01*
X247134168Y-107278026D01*
X247277025Y-107278026D01*
X247372263Y-107230407D01*
X247419882Y-107182788D01*
X247467501Y-107087550D01*
X247467501Y-106944692D01*
X247419882Y-106849454D01*
X247372263Y-106801835D01*
X247181787Y-106658978D01*
X247038930Y-106611359D01*
X246943691Y-106611359D01*
X246943691Y-105706597D02*
X246991310Y-105563740D01*
X247038930Y-105516121D01*
X247134168Y-105468502D01*
X247277025Y-105468502D01*
X247372263Y-105516121D01*
X247419882Y-105563740D01*
X247467501Y-105658978D01*
X247467501Y-106039931D01*
X246467501Y-106039931D01*
X246467501Y-105706597D01*
X246515120Y-105611359D01*
X246562739Y-105563740D01*
X246657977Y-105516121D01*
X246753215Y-105516121D01*
X246848453Y-105563740D01*
X246896072Y-105611359D01*
X246943691Y-105706597D01*
X246943691Y-106039931D01*
X244641787Y-108658978D02*
X244641787Y-108182787D01*
X244927501Y-108754216D02*
X243927501Y-108420883D01*
X244927501Y-108087549D01*
X244927501Y-106944692D02*
X244927501Y-106992311D01*
X244879882Y-107087549D01*
X244737025Y-107230406D01*
X244451310Y-107468501D01*
X244308453Y-107563740D01*
X244165596Y-107611359D01*
X244070358Y-107611359D01*
X243975120Y-107563740D01*
X243927501Y-107468501D01*
X243927501Y-107420882D01*
X243975120Y-107325644D01*
X244070358Y-107278025D01*
X244117977Y-107278025D01*
X244213215Y-107325644D01*
X244260834Y-107373263D01*
X244451310Y-107658978D01*
X244498930Y-107706597D01*
X244594168Y-107754216D01*
X244737025Y-107754216D01*
X244832263Y-107706597D01*
X244879882Y-107658978D01*
X244927501Y-107563740D01*
X244927501Y-107420882D01*
X244879882Y-107325644D01*
X244832263Y-107278025D01*
X244641787Y-107135168D01*
X244498930Y-107087549D01*
X244403691Y-107087549D01*
X244832263Y-106516121D02*
X244879882Y-106468502D01*
X244927501Y-106516121D01*
X244879882Y-106563740D01*
X244832263Y-106516121D01*
X244927501Y-106516121D01*
X244546549Y-106516121D02*
X243975120Y-106563740D01*
X243927501Y-106516121D01*
X243975120Y-106468502D01*
X244546549Y-106516121D01*
X243927501Y-106516121D01*
X244403691Y-105706597D02*
X244451310Y-105563740D01*
X244498930Y-105516121D01*
X244594168Y-105468502D01*
X244737025Y-105468502D01*
X244832263Y-105516121D01*
X244879882Y-105563740D01*
X244927501Y-105658978D01*
X244927501Y-106039931D01*
X243927501Y-106039931D01*
X243927501Y-105706597D01*
X243975120Y-105611359D01*
X244022739Y-105563740D01*
X244117977Y-105516121D01*
X244213215Y-105516121D01*
X244308453Y-105563740D01*
X244356072Y-105611359D01*
X244403691Y-105706597D01*
X244403691Y-106039931D01*
X220702143Y-137929809D02*
X220749762Y-137882190D01*
X220797381Y-137929809D01*
X220749762Y-137977428D01*
X220702143Y-137929809D01*
X220797381Y-137929809D01*
X220416429Y-137929809D02*
X219845000Y-137977428D01*
X219797381Y-137929809D01*
X219845000Y-137882190D01*
X220416429Y-137929809D01*
X219797381Y-137929809D01*
X220892619Y-136786952D02*
X220845000Y-136882190D01*
X220749762Y-136977428D01*
X220606905Y-137120285D01*
X220559286Y-137215524D01*
X220559286Y-137310762D01*
X220797381Y-137263143D02*
X220749762Y-137358381D01*
X220654524Y-137453619D01*
X220464048Y-137501238D01*
X220130714Y-137501238D01*
X219940238Y-137453619D01*
X219845000Y-137358381D01*
X219797381Y-137263143D01*
X219797381Y-137072666D01*
X219845000Y-136977428D01*
X219940238Y-136882190D01*
X220130714Y-136834571D01*
X220464048Y-136834571D01*
X220654524Y-136882190D01*
X220749762Y-136977428D01*
X220797381Y-137072666D01*
X220797381Y-137263143D01*
X220797381Y-136406000D02*
X219797381Y-136406000D01*
X219797381Y-136167905D01*
X219845000Y-136025047D01*
X219940238Y-135929809D01*
X220035476Y-135882190D01*
X220225952Y-135834571D01*
X220368810Y-135834571D01*
X220559286Y-135882190D01*
X220654524Y-135929809D01*
X220749762Y-136025047D01*
X220797381Y-136167905D01*
X220797381Y-136406000D01*
X218384381Y-137358476D02*
X217908190Y-137691810D01*
X218384381Y-137929905D02*
X217384381Y-137929905D01*
X217384381Y-137548952D01*
X217432000Y-137453714D01*
X217479619Y-137406095D01*
X217574857Y-137358476D01*
X217717714Y-137358476D01*
X217812952Y-137406095D01*
X217860571Y-137453714D01*
X217908190Y-137548952D01*
X217908190Y-137929905D01*
D12*
X245365000Y-111760000D02*
X245365000Y-109220000D01*
X243585000Y-109220000D02*
X243585000Y-111760000D01*
X243585000Y-109220000D02*
X245365000Y-109220000D01*
X245365000Y-111760000D02*
X243585000Y-111760000D01*
X247905000Y-111760000D02*
X247905000Y-109220000D01*
X246125000Y-109220000D02*
X246125000Y-111760000D01*
X246125000Y-109220000D02*
X247905000Y-109220000D01*
X247905000Y-111760000D02*
X246125000Y-111760000D01*
X216915000Y-138430000D02*
X216915000Y-140970000D01*
X218695000Y-140970000D02*
X218695000Y-138430000D01*
X218695000Y-140970000D02*
X216915000Y-140970000D01*
X216915000Y-138430000D02*
X218695000Y-138430000D01*
X219455000Y-138430000D02*
X219455000Y-140970000D01*
X221235000Y-140970000D02*
X221235000Y-138430000D01*
X221235000Y-140970000D02*
X219455000Y-140970000D01*
X219455000Y-138430000D02*
X221235000Y-138430000D01*
X247115000Y-117380000D02*
X244375000Y-117380000D01*
X244375000Y-117380000D02*
X244375000Y-123920000D01*
X244375000Y-123920000D02*
X247115000Y-123920000D01*
X247115000Y-123920000D02*
X247115000Y-117380000D01*
X245745000Y-116610000D02*
X245745000Y-117380000D01*
X245745000Y-124690000D02*
X245745000Y-123920000D01*
X258545000Y-117380000D02*
X255805000Y-117380000D01*
X255805000Y-117380000D02*
X255805000Y-123920000D01*
X255805000Y-123920000D02*
X258545000Y-123920000D01*
X258545000Y-123920000D02*
X258545000Y-117380000D01*
X257175000Y-116610000D02*
X257175000Y-117380000D01*
X257175000Y-124690000D02*
X257175000Y-123920000D01*
X243630000Y-127540000D02*
X236510000Y-127540000D01*
X243630000Y-123920000D02*
X236510000Y-123920000D01*
X243630000Y-127540000D02*
X243630000Y-123920000D01*
X236510000Y-127540000D02*
X236510000Y-123920000D01*
X255060000Y-127540000D02*
X247940000Y-127540000D01*
X255060000Y-123920000D02*
X247940000Y-123920000D01*
X255060000Y-127540000D02*
X255060000Y-123920000D01*
X247940000Y-127540000D02*
X247940000Y-123920000D01*
X244020000Y-130880000D02*
X244020000Y-131010000D01*
X244020000Y-131010000D02*
X238580000Y-131010000D01*
X238580000Y-131010000D02*
X238580000Y-130880000D01*
X244020000Y-128200000D02*
X244020000Y-128070000D01*
X244020000Y-128070000D02*
X238580000Y-128070000D01*
X238580000Y-128070000D02*
X238580000Y-128200000D01*
X243120000Y-131010000D02*
X243120000Y-128070000D01*
X243000000Y-131010000D02*
X243000000Y-128070000D01*
X243240000Y-131010000D02*
X243240000Y-128070000D01*
X250010000Y-128200000D02*
X250010000Y-128070000D01*
X250010000Y-128070000D02*
X255450000Y-128070000D01*
X255450000Y-128070000D02*
X255450000Y-128200000D01*
X250010000Y-130880000D02*
X250010000Y-131010000D01*
X250010000Y-131010000D02*
X255450000Y-131010000D01*
X255450000Y-131010000D02*
X255450000Y-130880000D01*
X250910000Y-128070000D02*
X250910000Y-131010000D01*
X251030000Y-128070000D02*
X251030000Y-131010000D01*
X250790000Y-128070000D02*
X250790000Y-131010000D01*
X111830000Y-106500000D02*
X111960000Y-106500000D01*
X111960000Y-106500000D02*
X111960000Y-111940000D01*
X111960000Y-111940000D02*
X111830000Y-111940000D01*
X109150000Y-106500000D02*
X109020000Y-106500000D01*
X109020000Y-106500000D02*
X109020000Y-111940000D01*
X109020000Y-111940000D02*
X109150000Y-111940000D01*
X111960000Y-107400000D02*
X109020000Y-107400000D01*
X111960000Y-107520000D02*
X109020000Y-107520000D01*
X111960000Y-107280000D02*
X109020000Y-107280000D01*
X188030000Y-106500000D02*
X188160000Y-106500000D01*
X188160000Y-106500000D02*
X188160000Y-111940000D01*
X188160000Y-111940000D02*
X188030000Y-111940000D01*
X185350000Y-106500000D02*
X185220000Y-106500000D01*
X185220000Y-106500000D02*
X185220000Y-111940000D01*
X185220000Y-111940000D02*
X185350000Y-111940000D01*
X188160000Y-107400000D02*
X185220000Y-107400000D01*
X188160000Y-107520000D02*
X185220000Y-107520000D01*
X188160000Y-107280000D02*
X185220000Y-107280000D01*
X212795000Y-106500000D02*
X212925000Y-106500000D01*
X212925000Y-106500000D02*
X212925000Y-111940000D01*
X212925000Y-111940000D02*
X212795000Y-111940000D01*
X210115000Y-106500000D02*
X209985000Y-106500000D01*
X209985000Y-106500000D02*
X209985000Y-111940000D01*
X209985000Y-111940000D02*
X210115000Y-111940000D01*
X212925000Y-107400000D02*
X209985000Y-107400000D01*
X212925000Y-107520000D02*
X209985000Y-107520000D01*
X212925000Y-107280000D02*
X209985000Y-107280000D01*
X105480000Y-129360000D02*
X105610000Y-129360000D01*
X105610000Y-129360000D02*
X105610000Y-134800000D01*
X105610000Y-134800000D02*
X105480000Y-134800000D01*
X102800000Y-129360000D02*
X102670000Y-129360000D01*
X102670000Y-129360000D02*
X102670000Y-134800000D01*
X102670000Y-134800000D02*
X102800000Y-134800000D01*
X105610000Y-130260000D02*
X102670000Y-130260000D01*
X105610000Y-130380000D02*
X102670000Y-130380000D01*
X105610000Y-130140000D02*
X102670000Y-130140000D01*
X102800000Y-123370000D02*
X102670000Y-123370000D01*
X102670000Y-123370000D02*
X102670000Y-117930000D01*
X102670000Y-117930000D02*
X102800000Y-117930000D01*
X105480000Y-123370000D02*
X105610000Y-123370000D01*
X105610000Y-123370000D02*
X105610000Y-117930000D01*
X105610000Y-117930000D02*
X105480000Y-117930000D01*
X102670000Y-122470000D02*
X105610000Y-122470000D01*
X102670000Y-122350000D02*
X105610000Y-122350000D01*
X102670000Y-122590000D02*
X105610000Y-122590000D01*
X109036000Y-129360000D02*
X109166000Y-129360000D01*
X109166000Y-129360000D02*
X109166000Y-134800000D01*
X109166000Y-134800000D02*
X109036000Y-134800000D01*
X106356000Y-129360000D02*
X106226000Y-129360000D01*
X106226000Y-129360000D02*
X106226000Y-134800000D01*
X106226000Y-134800000D02*
X106356000Y-134800000D01*
X109166000Y-130260000D02*
X106226000Y-130260000D01*
X109166000Y-130380000D02*
X106226000Y-130380000D01*
X109166000Y-130140000D02*
X106226000Y-130140000D01*
X106356000Y-123370000D02*
X106226000Y-123370000D01*
X106226000Y-123370000D02*
X106226000Y-117930000D01*
X106226000Y-117930000D02*
X106356000Y-117930000D01*
X109036000Y-123370000D02*
X109166000Y-123370000D01*
X109166000Y-123370000D02*
X109166000Y-117930000D01*
X109166000Y-117930000D02*
X109036000Y-117930000D01*
X106226000Y-122470000D02*
X109166000Y-122470000D01*
X106226000Y-122350000D02*
X109166000Y-122350000D01*
X106226000Y-122590000D02*
X109166000Y-122590000D01*
X112592000Y-129360000D02*
X112722000Y-129360000D01*
X112722000Y-129360000D02*
X112722000Y-134800000D01*
X112722000Y-134800000D02*
X112592000Y-134800000D01*
X109912000Y-129360000D02*
X109782000Y-129360000D01*
X109782000Y-129360000D02*
X109782000Y-134800000D01*
X109782000Y-134800000D02*
X109912000Y-134800000D01*
X112722000Y-130260000D02*
X109782000Y-130260000D01*
X112722000Y-130380000D02*
X109782000Y-130380000D01*
X112722000Y-130140000D02*
X109782000Y-130140000D01*
X109912000Y-123370000D02*
X109782000Y-123370000D01*
X109782000Y-123370000D02*
X109782000Y-117930000D01*
X109782000Y-117930000D02*
X109912000Y-117930000D01*
X112592000Y-123370000D02*
X112722000Y-123370000D01*
X112722000Y-123370000D02*
X112722000Y-117930000D01*
X112722000Y-117930000D02*
X112592000Y-117930000D01*
X109782000Y-122470000D02*
X112722000Y-122470000D01*
X109782000Y-122350000D02*
X112722000Y-122350000D01*
X109782000Y-122590000D02*
X112722000Y-122590000D01*
X136595000Y-106500000D02*
X136725000Y-106500000D01*
X136725000Y-106500000D02*
X136725000Y-111940000D01*
X136725000Y-111940000D02*
X136595000Y-111940000D01*
X133915000Y-106500000D02*
X133785000Y-106500000D01*
X133785000Y-106500000D02*
X133785000Y-111940000D01*
X133785000Y-111940000D02*
X133915000Y-111940000D01*
X136725000Y-107400000D02*
X133785000Y-107400000D01*
X136725000Y-107520000D02*
X133785000Y-107520000D01*
X136725000Y-107280000D02*
X133785000Y-107280000D01*
X116148000Y-129360000D02*
X116278000Y-129360000D01*
X116278000Y-129360000D02*
X116278000Y-134800000D01*
X116278000Y-134800000D02*
X116148000Y-134800000D01*
X113468000Y-129360000D02*
X113338000Y-129360000D01*
X113338000Y-129360000D02*
X113338000Y-134800000D01*
X113338000Y-134800000D02*
X113468000Y-134800000D01*
X116278000Y-130260000D02*
X113338000Y-130260000D01*
X116278000Y-130380000D02*
X113338000Y-130380000D01*
X116278000Y-130140000D02*
X113338000Y-130140000D01*
X113468000Y-123370000D02*
X113338000Y-123370000D01*
X113338000Y-123370000D02*
X113338000Y-117930000D01*
X113338000Y-117930000D02*
X113468000Y-117930000D01*
X116148000Y-123370000D02*
X116278000Y-123370000D01*
X116278000Y-123370000D02*
X116278000Y-117930000D01*
X116278000Y-117930000D02*
X116148000Y-117930000D01*
X113338000Y-122470000D02*
X116278000Y-122470000D01*
X113338000Y-122350000D02*
X116278000Y-122350000D01*
X113338000Y-122590000D02*
X116278000Y-122590000D01*
X119704000Y-129360000D02*
X119834000Y-129360000D01*
X119834000Y-129360000D02*
X119834000Y-134800000D01*
X119834000Y-134800000D02*
X119704000Y-134800000D01*
X117024000Y-129360000D02*
X116894000Y-129360000D01*
X116894000Y-129360000D02*
X116894000Y-134800000D01*
X116894000Y-134800000D02*
X117024000Y-134800000D01*
X119834000Y-130260000D02*
X116894000Y-130260000D01*
X119834000Y-130380000D02*
X116894000Y-130380000D01*
X119834000Y-130140000D02*
X116894000Y-130140000D01*
X117024000Y-123370000D02*
X116894000Y-123370000D01*
X116894000Y-123370000D02*
X116894000Y-117930000D01*
X116894000Y-117930000D02*
X117024000Y-117930000D01*
X119704000Y-123370000D02*
X119834000Y-123370000D01*
X119834000Y-123370000D02*
X119834000Y-117930000D01*
X119834000Y-117930000D02*
X119704000Y-117930000D01*
X116894000Y-122470000D02*
X119834000Y-122470000D01*
X116894000Y-122350000D02*
X119834000Y-122350000D01*
X116894000Y-122590000D02*
X119834000Y-122590000D01*
X123260000Y-129360000D02*
X123390000Y-129360000D01*
X123390000Y-129360000D02*
X123390000Y-134800000D01*
X123390000Y-134800000D02*
X123260000Y-134800000D01*
X120580000Y-129360000D02*
X120450000Y-129360000D01*
X120450000Y-129360000D02*
X120450000Y-134800000D01*
X120450000Y-134800000D02*
X120580000Y-134800000D01*
X123390000Y-130260000D02*
X120450000Y-130260000D01*
X123390000Y-130380000D02*
X120450000Y-130380000D01*
X123390000Y-130140000D02*
X120450000Y-130140000D01*
X120580000Y-123370000D02*
X120450000Y-123370000D01*
X120450000Y-123370000D02*
X120450000Y-117930000D01*
X120450000Y-117930000D02*
X120580000Y-117930000D01*
X123260000Y-123370000D02*
X123390000Y-123370000D01*
X123390000Y-123370000D02*
X123390000Y-117930000D01*
X123390000Y-117930000D02*
X123260000Y-117930000D01*
X120450000Y-122470000D02*
X123390000Y-122470000D01*
X120450000Y-122350000D02*
X123390000Y-122350000D01*
X120450000Y-122590000D02*
X123390000Y-122590000D01*
X126816000Y-129360000D02*
X126946000Y-129360000D01*
X126946000Y-129360000D02*
X126946000Y-134800000D01*
X126946000Y-134800000D02*
X126816000Y-134800000D01*
X124136000Y-129360000D02*
X124006000Y-129360000D01*
X124006000Y-129360000D02*
X124006000Y-134800000D01*
X124006000Y-134800000D02*
X124136000Y-134800000D01*
X126946000Y-130260000D02*
X124006000Y-130260000D01*
X126946000Y-130380000D02*
X124006000Y-130380000D01*
X126946000Y-130140000D02*
X124006000Y-130140000D01*
X124136000Y-123370000D02*
X124006000Y-123370000D01*
X124006000Y-123370000D02*
X124006000Y-117930000D01*
X124006000Y-117930000D02*
X124136000Y-117930000D01*
X126816000Y-123370000D02*
X126946000Y-123370000D01*
X126946000Y-123370000D02*
X126946000Y-117930000D01*
X126946000Y-117930000D02*
X126816000Y-117930000D01*
X124006000Y-122470000D02*
X126946000Y-122470000D01*
X124006000Y-122350000D02*
X126946000Y-122350000D01*
X124006000Y-122590000D02*
X126946000Y-122590000D01*
X130372000Y-129360000D02*
X130502000Y-129360000D01*
X130502000Y-129360000D02*
X130502000Y-134800000D01*
X130502000Y-134800000D02*
X130372000Y-134800000D01*
X127692000Y-129360000D02*
X127562000Y-129360000D01*
X127562000Y-129360000D02*
X127562000Y-134800000D01*
X127562000Y-134800000D02*
X127692000Y-134800000D01*
X130502000Y-130260000D02*
X127562000Y-130260000D01*
X130502000Y-130380000D02*
X127562000Y-130380000D01*
X130502000Y-130140000D02*
X127562000Y-130140000D01*
X127692000Y-123370000D02*
X127562000Y-123370000D01*
X127562000Y-123370000D02*
X127562000Y-117930000D01*
X127562000Y-117930000D02*
X127692000Y-117930000D01*
X130372000Y-123370000D02*
X130502000Y-123370000D01*
X130502000Y-123370000D02*
X130502000Y-117930000D01*
X130502000Y-117930000D02*
X130372000Y-117930000D01*
X127562000Y-122470000D02*
X130502000Y-122470000D01*
X127562000Y-122350000D02*
X130502000Y-122350000D01*
X127562000Y-122590000D02*
X130502000Y-122590000D01*
X161360000Y-106500000D02*
X161490000Y-106500000D01*
X161490000Y-106500000D02*
X161490000Y-111940000D01*
X161490000Y-111940000D02*
X161360000Y-111940000D01*
X158680000Y-106500000D02*
X158550000Y-106500000D01*
X158550000Y-106500000D02*
X158550000Y-111940000D01*
X158550000Y-111940000D02*
X158680000Y-111940000D01*
X161490000Y-107400000D02*
X158550000Y-107400000D01*
X161490000Y-107520000D02*
X158550000Y-107520000D01*
X161490000Y-107280000D02*
X158550000Y-107280000D01*
X133928000Y-129360000D02*
X134058000Y-129360000D01*
X134058000Y-129360000D02*
X134058000Y-134800000D01*
X134058000Y-134800000D02*
X133928000Y-134800000D01*
X131248000Y-129360000D02*
X131118000Y-129360000D01*
X131118000Y-129360000D02*
X131118000Y-134800000D01*
X131118000Y-134800000D02*
X131248000Y-134800000D01*
X134058000Y-130260000D02*
X131118000Y-130260000D01*
X134058000Y-130380000D02*
X131118000Y-130380000D01*
X134058000Y-130140000D02*
X131118000Y-130140000D01*
X131248000Y-123370000D02*
X131118000Y-123370000D01*
X131118000Y-123370000D02*
X131118000Y-117930000D01*
X131118000Y-117930000D02*
X131248000Y-117930000D01*
X133928000Y-123370000D02*
X134058000Y-123370000D01*
X134058000Y-123370000D02*
X134058000Y-117930000D01*
X134058000Y-117930000D02*
X133928000Y-117930000D01*
X131118000Y-122470000D02*
X134058000Y-122470000D01*
X131118000Y-122350000D02*
X134058000Y-122350000D01*
X131118000Y-122590000D02*
X134058000Y-122590000D01*
X137484000Y-129360000D02*
X137614000Y-129360000D01*
X137614000Y-129360000D02*
X137614000Y-134800000D01*
X137614000Y-134800000D02*
X137484000Y-134800000D01*
X134804000Y-129360000D02*
X134674000Y-129360000D01*
X134674000Y-129360000D02*
X134674000Y-134800000D01*
X134674000Y-134800000D02*
X134804000Y-134800000D01*
X137614000Y-130260000D02*
X134674000Y-130260000D01*
X137614000Y-130380000D02*
X134674000Y-130380000D01*
X137614000Y-130140000D02*
X134674000Y-130140000D01*
X134804000Y-123370000D02*
X134674000Y-123370000D01*
X134674000Y-123370000D02*
X134674000Y-117930000D01*
X134674000Y-117930000D02*
X134804000Y-117930000D01*
X137484000Y-123370000D02*
X137614000Y-123370000D01*
X137614000Y-123370000D02*
X137614000Y-117930000D01*
X137614000Y-117930000D02*
X137484000Y-117930000D01*
X134674000Y-122470000D02*
X137614000Y-122470000D01*
X134674000Y-122350000D02*
X137614000Y-122350000D01*
X134674000Y-122590000D02*
X137614000Y-122590000D01*
X141040000Y-129360000D02*
X141170000Y-129360000D01*
X141170000Y-129360000D02*
X141170000Y-134800000D01*
X141170000Y-134800000D02*
X141040000Y-134800000D01*
X138360000Y-129360000D02*
X138230000Y-129360000D01*
X138230000Y-129360000D02*
X138230000Y-134800000D01*
X138230000Y-134800000D02*
X138360000Y-134800000D01*
X141170000Y-130260000D02*
X138230000Y-130260000D01*
X141170000Y-130380000D02*
X138230000Y-130380000D01*
X141170000Y-130140000D02*
X138230000Y-130140000D01*
X138360000Y-123370000D02*
X138230000Y-123370000D01*
X138230000Y-123370000D02*
X138230000Y-117930000D01*
X138230000Y-117930000D02*
X138360000Y-117930000D01*
X141040000Y-123370000D02*
X141170000Y-123370000D01*
X141170000Y-123370000D02*
X141170000Y-117930000D01*
X141170000Y-117930000D02*
X141040000Y-117930000D01*
X138230000Y-122470000D02*
X141170000Y-122470000D01*
X138230000Y-122350000D02*
X141170000Y-122350000D01*
X138230000Y-122590000D02*
X141170000Y-122590000D01*
X144596000Y-129360000D02*
X144726000Y-129360000D01*
X144726000Y-129360000D02*
X144726000Y-134800000D01*
X144726000Y-134800000D02*
X144596000Y-134800000D01*
X141916000Y-129360000D02*
X141786000Y-129360000D01*
X141786000Y-129360000D02*
X141786000Y-134800000D01*
X141786000Y-134800000D02*
X141916000Y-134800000D01*
X144726000Y-130260000D02*
X141786000Y-130260000D01*
X144726000Y-130380000D02*
X141786000Y-130380000D01*
X144726000Y-130140000D02*
X141786000Y-130140000D01*
X141916000Y-123370000D02*
X141786000Y-123370000D01*
X141786000Y-123370000D02*
X141786000Y-117930000D01*
X141786000Y-117930000D02*
X141916000Y-117930000D01*
X144596000Y-123370000D02*
X144726000Y-123370000D01*
X144726000Y-123370000D02*
X144726000Y-117930000D01*
X144726000Y-117930000D02*
X144596000Y-117930000D01*
X141786000Y-122470000D02*
X144726000Y-122470000D01*
X141786000Y-122350000D02*
X144726000Y-122350000D01*
X141786000Y-122590000D02*
X144726000Y-122590000D01*
X148152000Y-129360000D02*
X148282000Y-129360000D01*
X148282000Y-129360000D02*
X148282000Y-134800000D01*
X148282000Y-134800000D02*
X148152000Y-134800000D01*
X145472000Y-129360000D02*
X145342000Y-129360000D01*
X145342000Y-129360000D02*
X145342000Y-134800000D01*
X145342000Y-134800000D02*
X145472000Y-134800000D01*
X148282000Y-130260000D02*
X145342000Y-130260000D01*
X148282000Y-130380000D02*
X145342000Y-130380000D01*
X148282000Y-130140000D02*
X145342000Y-130140000D01*
X145472000Y-123370000D02*
X145342000Y-123370000D01*
X145342000Y-123370000D02*
X145342000Y-117930000D01*
X145342000Y-117930000D02*
X145472000Y-117930000D01*
X148152000Y-123370000D02*
X148282000Y-123370000D01*
X148282000Y-123370000D02*
X148282000Y-117930000D01*
X148282000Y-117930000D02*
X148152000Y-117930000D01*
X145342000Y-122470000D02*
X148282000Y-122470000D01*
X145342000Y-122350000D02*
X148282000Y-122350000D01*
X145342000Y-122590000D02*
X148282000Y-122590000D01*
X151708000Y-129360000D02*
X151838000Y-129360000D01*
X151838000Y-129360000D02*
X151838000Y-134800000D01*
X151838000Y-134800000D02*
X151708000Y-134800000D01*
X149028000Y-129360000D02*
X148898000Y-129360000D01*
X148898000Y-129360000D02*
X148898000Y-134800000D01*
X148898000Y-134800000D02*
X149028000Y-134800000D01*
X151838000Y-130260000D02*
X148898000Y-130260000D01*
X151838000Y-130380000D02*
X148898000Y-130380000D01*
X151838000Y-130140000D02*
X148898000Y-130140000D01*
X149028000Y-123370000D02*
X148898000Y-123370000D01*
X148898000Y-123370000D02*
X148898000Y-117930000D01*
X148898000Y-117930000D02*
X149028000Y-117930000D01*
X151708000Y-123370000D02*
X151838000Y-123370000D01*
X151838000Y-123370000D02*
X151838000Y-117930000D01*
X151838000Y-117930000D02*
X151708000Y-117930000D01*
X148898000Y-122470000D02*
X151838000Y-122470000D01*
X148898000Y-122350000D02*
X151838000Y-122350000D01*
X148898000Y-122590000D02*
X151838000Y-122590000D01*
X155264000Y-129360000D02*
X155394000Y-129360000D01*
X155394000Y-129360000D02*
X155394000Y-134800000D01*
X155394000Y-134800000D02*
X155264000Y-134800000D01*
X152584000Y-129360000D02*
X152454000Y-129360000D01*
X152454000Y-129360000D02*
X152454000Y-134800000D01*
X152454000Y-134800000D02*
X152584000Y-134800000D01*
X155394000Y-130260000D02*
X152454000Y-130260000D01*
X155394000Y-130380000D02*
X152454000Y-130380000D01*
X155394000Y-130140000D02*
X152454000Y-130140000D01*
X152584000Y-123370000D02*
X152454000Y-123370000D01*
X152454000Y-123370000D02*
X152454000Y-117930000D01*
X152454000Y-117930000D02*
X152584000Y-117930000D01*
X155264000Y-123370000D02*
X155394000Y-123370000D01*
X155394000Y-123370000D02*
X155394000Y-117930000D01*
X155394000Y-117930000D02*
X155264000Y-117930000D01*
X152454000Y-122470000D02*
X155394000Y-122470000D01*
X152454000Y-122350000D02*
X155394000Y-122350000D01*
X152454000Y-122590000D02*
X155394000Y-122590000D01*
X158820000Y-129360000D02*
X158950000Y-129360000D01*
X158950000Y-129360000D02*
X158950000Y-134800000D01*
X158950000Y-134800000D02*
X158820000Y-134800000D01*
X156140000Y-129360000D02*
X156010000Y-129360000D01*
X156010000Y-129360000D02*
X156010000Y-134800000D01*
X156010000Y-134800000D02*
X156140000Y-134800000D01*
X158950000Y-130260000D02*
X156010000Y-130260000D01*
X158950000Y-130380000D02*
X156010000Y-130380000D01*
X158950000Y-130140000D02*
X156010000Y-130140000D01*
X156140000Y-123370000D02*
X156010000Y-123370000D01*
X156010000Y-123370000D02*
X156010000Y-117930000D01*
X156010000Y-117930000D02*
X156140000Y-117930000D01*
X158820000Y-123370000D02*
X158950000Y-123370000D01*
X158950000Y-123370000D02*
X158950000Y-117930000D01*
X158950000Y-117930000D02*
X158820000Y-117930000D01*
X156010000Y-122470000D02*
X158950000Y-122470000D01*
X156010000Y-122350000D02*
X158950000Y-122350000D01*
X156010000Y-122590000D02*
X158950000Y-122590000D01*
X162376000Y-129360000D02*
X162506000Y-129360000D01*
X162506000Y-129360000D02*
X162506000Y-134800000D01*
X162506000Y-134800000D02*
X162376000Y-134800000D01*
X159696000Y-129360000D02*
X159566000Y-129360000D01*
X159566000Y-129360000D02*
X159566000Y-134800000D01*
X159566000Y-134800000D02*
X159696000Y-134800000D01*
X162506000Y-130260000D02*
X159566000Y-130260000D01*
X162506000Y-130380000D02*
X159566000Y-130380000D01*
X162506000Y-130140000D02*
X159566000Y-130140000D01*
X159696000Y-123370000D02*
X159566000Y-123370000D01*
X159566000Y-123370000D02*
X159566000Y-117930000D01*
X159566000Y-117930000D02*
X159696000Y-117930000D01*
X162376000Y-123370000D02*
X162506000Y-123370000D01*
X162506000Y-123370000D02*
X162506000Y-117930000D01*
X162506000Y-117930000D02*
X162376000Y-117930000D01*
X159566000Y-122470000D02*
X162506000Y-122470000D01*
X159566000Y-122350000D02*
X162506000Y-122350000D01*
X159566000Y-122590000D02*
X162506000Y-122590000D01*
X165932000Y-129360000D02*
X166062000Y-129360000D01*
X166062000Y-129360000D02*
X166062000Y-134800000D01*
X166062000Y-134800000D02*
X165932000Y-134800000D01*
X163252000Y-129360000D02*
X163122000Y-129360000D01*
X163122000Y-129360000D02*
X163122000Y-134800000D01*
X163122000Y-134800000D02*
X163252000Y-134800000D01*
X166062000Y-130260000D02*
X163122000Y-130260000D01*
X166062000Y-130380000D02*
X163122000Y-130380000D01*
X166062000Y-130140000D02*
X163122000Y-130140000D01*
X163252000Y-123370000D02*
X163122000Y-123370000D01*
X163122000Y-123370000D02*
X163122000Y-117930000D01*
X163122000Y-117930000D02*
X163252000Y-117930000D01*
X165932000Y-123370000D02*
X166062000Y-123370000D01*
X166062000Y-123370000D02*
X166062000Y-117930000D01*
X166062000Y-117930000D02*
X165932000Y-117930000D01*
X163122000Y-122470000D02*
X166062000Y-122470000D01*
X163122000Y-122350000D02*
X166062000Y-122350000D01*
X163122000Y-122590000D02*
X166062000Y-122590000D01*
X169488000Y-129360000D02*
X169618000Y-129360000D01*
X169618000Y-129360000D02*
X169618000Y-134800000D01*
X169618000Y-134800000D02*
X169488000Y-134800000D01*
X166808000Y-129360000D02*
X166678000Y-129360000D01*
X166678000Y-129360000D02*
X166678000Y-134800000D01*
X166678000Y-134800000D02*
X166808000Y-134800000D01*
X169618000Y-130260000D02*
X166678000Y-130260000D01*
X169618000Y-130380000D02*
X166678000Y-130380000D01*
X169618000Y-130140000D02*
X166678000Y-130140000D01*
X166808000Y-123370000D02*
X166678000Y-123370000D01*
X166678000Y-123370000D02*
X166678000Y-117930000D01*
X166678000Y-117930000D02*
X166808000Y-117930000D01*
X169488000Y-123370000D02*
X169618000Y-123370000D01*
X169618000Y-123370000D02*
X169618000Y-117930000D01*
X169618000Y-117930000D02*
X169488000Y-117930000D01*
X166678000Y-122470000D02*
X169618000Y-122470000D01*
X166678000Y-122350000D02*
X169618000Y-122350000D01*
X166678000Y-122590000D02*
X169618000Y-122590000D01*
X173044000Y-129360000D02*
X173174000Y-129360000D01*
X173174000Y-129360000D02*
X173174000Y-134800000D01*
X173174000Y-134800000D02*
X173044000Y-134800000D01*
X170364000Y-129360000D02*
X170234000Y-129360000D01*
X170234000Y-129360000D02*
X170234000Y-134800000D01*
X170234000Y-134800000D02*
X170364000Y-134800000D01*
X173174000Y-130260000D02*
X170234000Y-130260000D01*
X173174000Y-130380000D02*
X170234000Y-130380000D01*
X173174000Y-130140000D02*
X170234000Y-130140000D01*
X170364000Y-123370000D02*
X170234000Y-123370000D01*
X170234000Y-123370000D02*
X170234000Y-117930000D01*
X170234000Y-117930000D02*
X170364000Y-117930000D01*
X173044000Y-123370000D02*
X173174000Y-123370000D01*
X173174000Y-123370000D02*
X173174000Y-117930000D01*
X173174000Y-117930000D02*
X173044000Y-117930000D01*
X170234000Y-122470000D02*
X173174000Y-122470000D01*
X170234000Y-122350000D02*
X173174000Y-122350000D01*
X170234000Y-122590000D02*
X173174000Y-122590000D01*
X176600000Y-129360000D02*
X176730000Y-129360000D01*
X176730000Y-129360000D02*
X176730000Y-134800000D01*
X176730000Y-134800000D02*
X176600000Y-134800000D01*
X173920000Y-129360000D02*
X173790000Y-129360000D01*
X173790000Y-129360000D02*
X173790000Y-134800000D01*
X173790000Y-134800000D02*
X173920000Y-134800000D01*
X176730000Y-130260000D02*
X173790000Y-130260000D01*
X176730000Y-130380000D02*
X173790000Y-130380000D01*
X176730000Y-130140000D02*
X173790000Y-130140000D01*
X173920000Y-123370000D02*
X173790000Y-123370000D01*
X173790000Y-123370000D02*
X173790000Y-117930000D01*
X173790000Y-117930000D02*
X173920000Y-117930000D01*
X176600000Y-123370000D02*
X176730000Y-123370000D01*
X176730000Y-123370000D02*
X176730000Y-117930000D01*
X176730000Y-117930000D02*
X176600000Y-117930000D01*
X173790000Y-122470000D02*
X176730000Y-122470000D01*
X173790000Y-122350000D02*
X176730000Y-122350000D01*
X173790000Y-122590000D02*
X176730000Y-122590000D01*
X180156000Y-129360000D02*
X180286000Y-129360000D01*
X180286000Y-129360000D02*
X180286000Y-134800000D01*
X180286000Y-134800000D02*
X180156000Y-134800000D01*
X177476000Y-129360000D02*
X177346000Y-129360000D01*
X177346000Y-129360000D02*
X177346000Y-134800000D01*
X177346000Y-134800000D02*
X177476000Y-134800000D01*
X180286000Y-130260000D02*
X177346000Y-130260000D01*
X180286000Y-130380000D02*
X177346000Y-130380000D01*
X180286000Y-130140000D02*
X177346000Y-130140000D01*
X177476000Y-123370000D02*
X177346000Y-123370000D01*
X177346000Y-123370000D02*
X177346000Y-117930000D01*
X177346000Y-117930000D02*
X177476000Y-117930000D01*
X180156000Y-123370000D02*
X180286000Y-123370000D01*
X180286000Y-123370000D02*
X180286000Y-117930000D01*
X180286000Y-117930000D02*
X180156000Y-117930000D01*
X177346000Y-122470000D02*
X180286000Y-122470000D01*
X177346000Y-122350000D02*
X180286000Y-122350000D01*
X177346000Y-122590000D02*
X180286000Y-122590000D01*
X183712000Y-129360000D02*
X183842000Y-129360000D01*
X183842000Y-129360000D02*
X183842000Y-134800000D01*
X183842000Y-134800000D02*
X183712000Y-134800000D01*
X181032000Y-129360000D02*
X180902000Y-129360000D01*
X180902000Y-129360000D02*
X180902000Y-134800000D01*
X180902000Y-134800000D02*
X181032000Y-134800000D01*
X183842000Y-130260000D02*
X180902000Y-130260000D01*
X183842000Y-130380000D02*
X180902000Y-130380000D01*
X183842000Y-130140000D02*
X180902000Y-130140000D01*
X187268000Y-129360000D02*
X187398000Y-129360000D01*
X187398000Y-129360000D02*
X187398000Y-134800000D01*
X187398000Y-134800000D02*
X187268000Y-134800000D01*
X184588000Y-129360000D02*
X184458000Y-129360000D01*
X184458000Y-129360000D02*
X184458000Y-134800000D01*
X184458000Y-134800000D02*
X184588000Y-134800000D01*
X187398000Y-130260000D02*
X184458000Y-130260000D01*
X187398000Y-130380000D02*
X184458000Y-130380000D01*
X187398000Y-130140000D02*
X184458000Y-130140000D01*
X190824000Y-129360000D02*
X190954000Y-129360000D01*
X190954000Y-129360000D02*
X190954000Y-134800000D01*
X190954000Y-134800000D02*
X190824000Y-134800000D01*
X188144000Y-129360000D02*
X188014000Y-129360000D01*
X188014000Y-129360000D02*
X188014000Y-134800000D01*
X188014000Y-134800000D02*
X188144000Y-134800000D01*
X190954000Y-130260000D02*
X188014000Y-130260000D01*
X190954000Y-130380000D02*
X188014000Y-130380000D01*
X190954000Y-130140000D02*
X188014000Y-130140000D01*
X194380000Y-129360000D02*
X194510000Y-129360000D01*
X194510000Y-129360000D02*
X194510000Y-134800000D01*
X194510000Y-134800000D02*
X194380000Y-134800000D01*
X191700000Y-129360000D02*
X191570000Y-129360000D01*
X191570000Y-129360000D02*
X191570000Y-134800000D01*
X191570000Y-134800000D02*
X191700000Y-134800000D01*
X194510000Y-130260000D02*
X191570000Y-130260000D01*
X194510000Y-130380000D02*
X191570000Y-130380000D01*
X194510000Y-130140000D02*
X191570000Y-130140000D01*
X197936000Y-129360000D02*
X198066000Y-129360000D01*
X198066000Y-129360000D02*
X198066000Y-134800000D01*
X198066000Y-134800000D02*
X197936000Y-134800000D01*
X195256000Y-129360000D02*
X195126000Y-129360000D01*
X195126000Y-129360000D02*
X195126000Y-134800000D01*
X195126000Y-134800000D02*
X195256000Y-134800000D01*
X198066000Y-130260000D02*
X195126000Y-130260000D01*
X198066000Y-130380000D02*
X195126000Y-130380000D01*
X198066000Y-130140000D02*
X195126000Y-130140000D01*
X107490000Y-104950000D02*
X107490000Y-102290000D01*
X104890000Y-104950000D02*
X107490000Y-104950000D01*
X104890000Y-102290000D02*
X107490000Y-102290000D01*
X104890000Y-104950000D02*
X104890000Y-102290000D01*
X103620000Y-104950000D02*
X102290000Y-104950000D01*
X102290000Y-104950000D02*
X102290000Y-103620000D01*
X145770000Y-104950000D02*
X145770000Y-102290000D01*
X143170000Y-104950000D02*
X145770000Y-104950000D01*
X143170000Y-102290000D02*
X145770000Y-102290000D01*
X143170000Y-104950000D02*
X143170000Y-102290000D01*
X141900000Y-104950000D02*
X140570000Y-104950000D01*
X140570000Y-104950000D02*
X140570000Y-103620000D01*
X184050000Y-104950000D02*
X184050000Y-102290000D01*
X181450000Y-104950000D02*
X184050000Y-104950000D01*
X181450000Y-102290000D02*
X184050000Y-102290000D01*
X181450000Y-104950000D02*
X181450000Y-102290000D01*
X180180000Y-104950000D02*
X178850000Y-104950000D01*
X178850000Y-104950000D02*
X178850000Y-103620000D01*
X222330000Y-104950000D02*
X222330000Y-102290000D01*
X219730000Y-104950000D02*
X222330000Y-104950000D01*
X219730000Y-102290000D02*
X222330000Y-102290000D01*
X219730000Y-104950000D02*
X219730000Y-102290000D01*
X218460000Y-104950000D02*
X217130000Y-104950000D01*
X217130000Y-104950000D02*
X217130000Y-103620000D01*
X129740000Y-104950000D02*
X129740000Y-102290000D01*
X127140000Y-104950000D02*
X129740000Y-104950000D01*
X127140000Y-102290000D02*
X129740000Y-102290000D01*
X127140000Y-104950000D02*
X127140000Y-102290000D01*
X125870000Y-104950000D02*
X124540000Y-104950000D01*
X124540000Y-104950000D02*
X124540000Y-103620000D01*
X168020000Y-104950000D02*
X168020000Y-102290000D01*
X165420000Y-104950000D02*
X168020000Y-104950000D01*
X165420000Y-102290000D02*
X168020000Y-102290000D01*
X165420000Y-104950000D02*
X165420000Y-102290000D01*
X164150000Y-104950000D02*
X162820000Y-104950000D01*
X162820000Y-104950000D02*
X162820000Y-103620000D01*
X206300000Y-104950000D02*
X206300000Y-102290000D01*
X203700000Y-104950000D02*
X206300000Y-104950000D01*
X203700000Y-102290000D02*
X206300000Y-102290000D01*
X203700000Y-104950000D02*
X203700000Y-102290000D01*
X202430000Y-104950000D02*
X201100000Y-104950000D01*
X201100000Y-104950000D02*
X201100000Y-103620000D01*
X212760000Y-141460000D02*
X212760000Y-138800000D01*
X189840000Y-141460000D02*
X212760000Y-141460000D01*
X189840000Y-138800000D02*
X212760000Y-138800000D01*
X189840000Y-141460000D02*
X189840000Y-138800000D01*
X188570000Y-141460000D02*
X187240000Y-141460000D01*
X187240000Y-141460000D02*
X187240000Y-140130000D01*
X144010000Y-141460000D02*
X144010000Y-138800000D01*
X121090000Y-141460000D02*
X144010000Y-141460000D01*
X121090000Y-138800000D02*
X144010000Y-138800000D01*
X121090000Y-141460000D02*
X121090000Y-138800000D01*
X119820000Y-141460000D02*
X118490000Y-141460000D01*
X118490000Y-141460000D02*
X118490000Y-140130000D01*
X260610000Y-104950000D02*
X260610000Y-102290000D01*
X258010000Y-104950000D02*
X260610000Y-104950000D01*
X258010000Y-102290000D02*
X260610000Y-102290000D01*
X258010000Y-104950000D02*
X258010000Y-102290000D01*
X256740000Y-104950000D02*
X255410000Y-104950000D01*
X255410000Y-104950000D02*
X255410000Y-103620000D01*
X252600000Y-141460000D02*
X252600000Y-138800000D01*
X250000000Y-141460000D02*
X252600000Y-141460000D01*
X250000000Y-138800000D02*
X252600000Y-138800000D01*
X250000000Y-141460000D02*
X250000000Y-138800000D01*
X248730000Y-141460000D02*
X247400000Y-141460000D01*
X247400000Y-141460000D02*
X247400000Y-140130000D01*
X244580000Y-105089000D02*
X244580000Y-102429000D01*
X241980000Y-105089000D02*
X244580000Y-105089000D01*
X241980000Y-102429000D02*
X244580000Y-102429000D01*
X241980000Y-105089000D02*
X241980000Y-102429000D01*
X240710000Y-105089000D02*
X239380000Y-105089000D01*
X239380000Y-105089000D02*
X239380000Y-103759000D01*
D13*
X225552000Y-110744000D02*
X226822000Y-110744000D01*
X225552000Y-108204000D02*
X226822000Y-108204000D01*
X229552000Y-112624000D02*
G75*
G03X228552000Y-112624000I-500000J0D01*
G01*
X228552000Y-106324000D02*
G75*
G03X229552000Y-106324000I500000J0D01*
G01*
X227052000Y-106324000D02*
X238052000Y-106324000D01*
X238052000Y-106324000D02*
X238052000Y-112624000D01*
X238052000Y-112624000D02*
X227052000Y-112624000D01*
X227052000Y-112624000D02*
X227052000Y-106324000D01*
D14*
X172905000Y-113340000D02*
X172905000Y-107640000D01*
X172905000Y-107640000D02*
X162305000Y-107640000D01*
X162305000Y-107640000D02*
X162305000Y-113340000D01*
X162305000Y-113340000D02*
X172905000Y-113340000D01*
X123375000Y-113340000D02*
X123375000Y-107640000D01*
X123375000Y-107640000D02*
X112775000Y-107640000D01*
X112775000Y-107640000D02*
X112775000Y-113340000D01*
X112775000Y-113340000D02*
X123375000Y-113340000D01*
X224340000Y-113340000D02*
X224340000Y-107640000D01*
X224340000Y-107640000D02*
X213740000Y-107640000D01*
X213740000Y-107640000D02*
X213740000Y-113340000D01*
X213740000Y-113340000D02*
X224340000Y-113340000D01*
X199575000Y-113340000D02*
X199575000Y-107640000D01*
X199575000Y-107640000D02*
X188975000Y-107640000D01*
X188975000Y-107640000D02*
X188975000Y-113340000D01*
X188975000Y-113340000D02*
X199575000Y-113340000D01*
X148140000Y-113340000D02*
X148140000Y-107640000D01*
X148140000Y-107640000D02*
X137540000Y-107640000D01*
X137540000Y-107640000D02*
X137540000Y-113340000D01*
X137540000Y-113340000D02*
X148140000Y-113340000D01*
X254310000Y-112845000D02*
X248610000Y-112845000D01*
X248610000Y-112845000D02*
X248610000Y-123445000D01*
X248610000Y-123445000D02*
X254310000Y-123445000D01*
X254310000Y-123445000D02*
X254310000Y-112845000D01*
X242880000Y-112845000D02*
X237180000Y-112845000D01*
X237180000Y-112845000D02*
X237180000Y-123445000D01*
X237180000Y-123445000D02*
X242880000Y-123445000D01*
X242880000Y-123445000D02*
X242880000Y-112845000D01*
D11*
X246197501Y-120819406D02*
X245721310Y-121152740D01*
X246197501Y-121390835D02*
X245197501Y-121390835D01*
X245197501Y-121009882D01*
X245245120Y-120914644D01*
X245292739Y-120867025D01*
X245387977Y-120819406D01*
X245530834Y-120819406D01*
X245626072Y-120867025D01*
X245673691Y-120914644D01*
X245721310Y-121009882D01*
X245721310Y-121390835D01*
X246197501Y-119867025D02*
X246197501Y-120438454D01*
X246197501Y-120152740D02*
X245197501Y-120152740D01*
X245340358Y-120247978D01*
X245435596Y-120343216D01*
X245483215Y-120438454D01*
X257627501Y-120819406D02*
X257151310Y-121152740D01*
X257627501Y-121390835D02*
X256627501Y-121390835D01*
X256627501Y-121009882D01*
X256675120Y-120914644D01*
X256722739Y-120867025D01*
X256817977Y-120819406D01*
X256960834Y-120819406D01*
X257056072Y-120867025D01*
X257103691Y-120914644D01*
X257151310Y-121009882D01*
X257151310Y-121390835D01*
X256722739Y-120438454D02*
X256675120Y-120390835D01*
X256627501Y-120295597D01*
X256627501Y-120057501D01*
X256675120Y-119962263D01*
X256722739Y-119914644D01*
X256817977Y-119867025D01*
X256913215Y-119867025D01*
X257056072Y-119914644D01*
X257627501Y-120486073D01*
X257627501Y-119867025D01*
X235942263Y-127042406D02*
X235989882Y-127090025D01*
X236037501Y-127232882D01*
X236037501Y-127328120D01*
X235989882Y-127470978D01*
X235894644Y-127566216D01*
X235799406Y-127613835D01*
X235608930Y-127661454D01*
X235466072Y-127661454D01*
X235275596Y-127613835D01*
X235180358Y-127566216D01*
X235085120Y-127470978D01*
X235037501Y-127328120D01*
X235037501Y-127232882D01*
X235085120Y-127090025D01*
X235132739Y-127042406D01*
X236037501Y-126090025D02*
X236037501Y-126661454D01*
X236037501Y-126375740D02*
X235037501Y-126375740D01*
X235180358Y-126470978D01*
X235275596Y-126566216D01*
X235323215Y-126661454D01*
X247372263Y-127042406D02*
X247419882Y-127090025D01*
X247467501Y-127232882D01*
X247467501Y-127328120D01*
X247419882Y-127470978D01*
X247324644Y-127566216D01*
X247229406Y-127613835D01*
X247038930Y-127661454D01*
X246896072Y-127661454D01*
X246705596Y-127613835D01*
X246610358Y-127566216D01*
X246515120Y-127470978D01*
X246467501Y-127328120D01*
X246467501Y-127232882D01*
X246515120Y-127090025D01*
X246562739Y-127042406D01*
X246562739Y-126661454D02*
X246515120Y-126613835D01*
X246467501Y-126518597D01*
X246467501Y-126280501D01*
X246515120Y-126185263D01*
X246562739Y-126137644D01*
X246657977Y-126090025D01*
X246753215Y-126090025D01*
X246896072Y-126137644D01*
X247467501Y-126709073D01*
X247467501Y-126090025D01*
X240308025Y-129995121D02*
X240308025Y-128995121D01*
X240546120Y-128995121D01*
X240688978Y-129042740D01*
X240784216Y-129137978D01*
X240831835Y-129233216D01*
X240879454Y-129423692D01*
X240879454Y-129566550D01*
X240831835Y-129757026D01*
X240784216Y-129852264D01*
X240688978Y-129947502D01*
X240546120Y-129995121D01*
X240308025Y-129995121D01*
X241831835Y-129995121D02*
X241260406Y-129995121D01*
X241546120Y-129995121D02*
X241546120Y-128995121D01*
X241450882Y-129137978D01*
X241355644Y-129233216D01*
X241260406Y-129280835D01*
X251896834Y-129995121D02*
X251896834Y-128995121D01*
X252134929Y-128995121D01*
X252277787Y-129042740D01*
X252373025Y-129137978D01*
X252420644Y-129233216D01*
X252468263Y-129423692D01*
X252468263Y-129566550D01*
X252420644Y-129757026D01*
X252373025Y-129852264D01*
X252277787Y-129947502D01*
X252134929Y-129995121D01*
X251896834Y-129995121D01*
X253420644Y-129995121D02*
X252849215Y-129995121D01*
X253134929Y-129995121D02*
X253134929Y-128995121D01*
X253039691Y-129137978D01*
X252944453Y-129233216D01*
X252849215Y-129280835D01*
X254277787Y-129328454D02*
X254277787Y-129995121D01*
X254039691Y-128947502D02*
X253801596Y-129661788D01*
X254420644Y-129661788D01*
X110942501Y-110341835D02*
X109942501Y-110341835D01*
X109942501Y-110103740D01*
X109990120Y-109960882D01*
X110085358Y-109865644D01*
X110180596Y-109818025D01*
X110371072Y-109770406D01*
X110513930Y-109770406D01*
X110704406Y-109818025D01*
X110799644Y-109865644D01*
X110894882Y-109960882D01*
X110942501Y-110103740D01*
X110942501Y-110341835D01*
X110037739Y-109389454D02*
X109990120Y-109341835D01*
X109942501Y-109246597D01*
X109942501Y-109008501D01*
X109990120Y-108913263D01*
X110037739Y-108865644D01*
X110132977Y-108818025D01*
X110228215Y-108818025D01*
X110371072Y-108865644D01*
X110942501Y-109437073D01*
X110942501Y-108818025D01*
X187142501Y-110341835D02*
X186142501Y-110341835D01*
X186142501Y-110103740D01*
X186190120Y-109960882D01*
X186285358Y-109865644D01*
X186380596Y-109818025D01*
X186571072Y-109770406D01*
X186713930Y-109770406D01*
X186904406Y-109818025D01*
X186999644Y-109865644D01*
X187094882Y-109960882D01*
X187142501Y-110103740D01*
X187142501Y-110341835D01*
X186142501Y-109437073D02*
X186142501Y-108818025D01*
X186523453Y-109151359D01*
X186523453Y-109008501D01*
X186571072Y-108913263D01*
X186618691Y-108865644D01*
X186713930Y-108818025D01*
X186952025Y-108818025D01*
X187047263Y-108865644D01*
X187094882Y-108913263D01*
X187142501Y-109008501D01*
X187142501Y-109294216D01*
X187094882Y-109389454D01*
X187047263Y-109437073D01*
X211907501Y-110341835D02*
X210907501Y-110341835D01*
X210907501Y-110103740D01*
X210955120Y-109960882D01*
X211050358Y-109865644D01*
X211145596Y-109818025D01*
X211336072Y-109770406D01*
X211478930Y-109770406D01*
X211669406Y-109818025D01*
X211764644Y-109865644D01*
X211859882Y-109960882D01*
X211907501Y-110103740D01*
X211907501Y-110341835D01*
X211240834Y-108913263D02*
X211907501Y-108913263D01*
X210859882Y-109151359D02*
X211574168Y-109389454D01*
X211574168Y-108770406D01*
X104592501Y-133201835D02*
X103592501Y-133201835D01*
X103592501Y-132963740D01*
X103640120Y-132820882D01*
X103735358Y-132725644D01*
X103830596Y-132678025D01*
X104021072Y-132630406D01*
X104163930Y-132630406D01*
X104354406Y-132678025D01*
X104449644Y-132725644D01*
X104544882Y-132820882D01*
X104592501Y-132963740D01*
X104592501Y-133201835D01*
X103592501Y-131725644D02*
X103592501Y-132201835D01*
X104068691Y-132249454D01*
X104021072Y-132201835D01*
X103973453Y-132106597D01*
X103973453Y-131868501D01*
X104021072Y-131773263D01*
X104068691Y-131725644D01*
X104163930Y-131678025D01*
X104402025Y-131678025D01*
X104497263Y-131725644D01*
X104544882Y-131773263D01*
X104592501Y-131868501D01*
X104592501Y-132106597D01*
X104544882Y-132201835D01*
X104497263Y-132249454D01*
X104592501Y-121009835D02*
X103592501Y-121009835D01*
X103592501Y-120771740D01*
X103640120Y-120628882D01*
X103735358Y-120533644D01*
X103830596Y-120486025D01*
X104021072Y-120438406D01*
X104163930Y-120438406D01*
X104354406Y-120486025D01*
X104449644Y-120533644D01*
X104544882Y-120628882D01*
X104592501Y-120771740D01*
X104592501Y-121009835D01*
X103592501Y-119581263D02*
X103592501Y-119771740D01*
X103640120Y-119866978D01*
X103687739Y-119914597D01*
X103830596Y-120009835D01*
X104021072Y-120057454D01*
X104402025Y-120057454D01*
X104497263Y-120009835D01*
X104544882Y-119962216D01*
X104592501Y-119866978D01*
X104592501Y-119676501D01*
X104544882Y-119581263D01*
X104497263Y-119533644D01*
X104402025Y-119486025D01*
X104163930Y-119486025D01*
X104068691Y-119533644D01*
X104021072Y-119581263D01*
X103973453Y-119676501D01*
X103973453Y-119866978D01*
X104021072Y-119962216D01*
X104068691Y-120009835D01*
X104163930Y-120057454D01*
X108148501Y-133201835D02*
X107148501Y-133201835D01*
X107148501Y-132963740D01*
X107196120Y-132820882D01*
X107291358Y-132725644D01*
X107386596Y-132678025D01*
X107577072Y-132630406D01*
X107719930Y-132630406D01*
X107910406Y-132678025D01*
X108005644Y-132725644D01*
X108100882Y-132820882D01*
X108148501Y-132963740D01*
X108148501Y-133201835D01*
X107148501Y-132297073D02*
X107148501Y-131630406D01*
X108148501Y-132058978D01*
X108148501Y-121009835D02*
X107148501Y-121009835D01*
X107148501Y-120771740D01*
X107196120Y-120628882D01*
X107291358Y-120533644D01*
X107386596Y-120486025D01*
X107577072Y-120438406D01*
X107719930Y-120438406D01*
X107910406Y-120486025D01*
X108005644Y-120533644D01*
X108100882Y-120628882D01*
X108148501Y-120771740D01*
X108148501Y-121009835D01*
X107577072Y-119866978D02*
X107529453Y-119962216D01*
X107481834Y-120009835D01*
X107386596Y-120057454D01*
X107338977Y-120057454D01*
X107243739Y-120009835D01*
X107196120Y-119962216D01*
X107148501Y-119866978D01*
X107148501Y-119676501D01*
X107196120Y-119581263D01*
X107243739Y-119533644D01*
X107338977Y-119486025D01*
X107386596Y-119486025D01*
X107481834Y-119533644D01*
X107529453Y-119581263D01*
X107577072Y-119676501D01*
X107577072Y-119866978D01*
X107624691Y-119962216D01*
X107672310Y-120009835D01*
X107767549Y-120057454D01*
X107958025Y-120057454D01*
X108053263Y-120009835D01*
X108100882Y-119962216D01*
X108148501Y-119866978D01*
X108148501Y-119676501D01*
X108100882Y-119581263D01*
X108053263Y-119533644D01*
X107958025Y-119486025D01*
X107767549Y-119486025D01*
X107672310Y-119533644D01*
X107624691Y-119581263D01*
X107577072Y-119676501D01*
X111704501Y-133201835D02*
X110704501Y-133201835D01*
X110704501Y-132963740D01*
X110752120Y-132820882D01*
X110847358Y-132725644D01*
X110942596Y-132678025D01*
X111133072Y-132630406D01*
X111275930Y-132630406D01*
X111466406Y-132678025D01*
X111561644Y-132725644D01*
X111656882Y-132820882D01*
X111704501Y-132963740D01*
X111704501Y-133201835D01*
X111704501Y-132154216D02*
X111704501Y-131963740D01*
X111656882Y-131868501D01*
X111609263Y-131820882D01*
X111466406Y-131725644D01*
X111275930Y-131678025D01*
X110894977Y-131678025D01*
X110799739Y-131725644D01*
X110752120Y-131773263D01*
X110704501Y-131868501D01*
X110704501Y-132058978D01*
X110752120Y-132154216D01*
X110799739Y-132201835D01*
X110894977Y-132249454D01*
X111133072Y-132249454D01*
X111228310Y-132201835D01*
X111275930Y-132154216D01*
X111323549Y-132058978D01*
X111323549Y-131868501D01*
X111275930Y-131773263D01*
X111228310Y-131725644D01*
X111133072Y-131678025D01*
X111704501Y-121486026D02*
X110704501Y-121486026D01*
X110704501Y-121247931D01*
X110752120Y-121105073D01*
X110847358Y-121009835D01*
X110942596Y-120962216D01*
X111133072Y-120914597D01*
X111275930Y-120914597D01*
X111466406Y-120962216D01*
X111561644Y-121009835D01*
X111656882Y-121105073D01*
X111704501Y-121247931D01*
X111704501Y-121486026D01*
X111704501Y-119962216D02*
X111704501Y-120533645D01*
X111704501Y-120247931D02*
X110704501Y-120247931D01*
X110847358Y-120343169D01*
X110942596Y-120438407D01*
X110990215Y-120533645D01*
X110704501Y-119343169D02*
X110704501Y-119247930D01*
X110752120Y-119152692D01*
X110799739Y-119105073D01*
X110894977Y-119057454D01*
X111085453Y-119009835D01*
X111323549Y-119009835D01*
X111514025Y-119057454D01*
X111609263Y-119105073D01*
X111656882Y-119152692D01*
X111704501Y-119247930D01*
X111704501Y-119343169D01*
X111656882Y-119438407D01*
X111609263Y-119486026D01*
X111514025Y-119533645D01*
X111323549Y-119581264D01*
X111085453Y-119581264D01*
X110894977Y-119533645D01*
X110799739Y-119486026D01*
X110752120Y-119438407D01*
X110704501Y-119343169D01*
X135707501Y-110818026D02*
X134707501Y-110818026D01*
X134707501Y-110579931D01*
X134755120Y-110437073D01*
X134850358Y-110341835D01*
X134945596Y-110294216D01*
X135136072Y-110246597D01*
X135278930Y-110246597D01*
X135469406Y-110294216D01*
X135564644Y-110341835D01*
X135659882Y-110437073D01*
X135707501Y-110579931D01*
X135707501Y-110818026D01*
X135707501Y-109294216D02*
X135707501Y-109865645D01*
X135707501Y-109579931D02*
X134707501Y-109579931D01*
X134850358Y-109675169D01*
X134945596Y-109770407D01*
X134993215Y-109865645D01*
X135707501Y-108341835D02*
X135707501Y-108913264D01*
X135707501Y-108627550D02*
X134707501Y-108627550D01*
X134850358Y-108722788D01*
X134945596Y-108818026D01*
X134993215Y-108913264D01*
X115260501Y-133678026D02*
X114260501Y-133678026D01*
X114260501Y-133439931D01*
X114308120Y-133297073D01*
X114403358Y-133201835D01*
X114498596Y-133154216D01*
X114689072Y-133106597D01*
X114831930Y-133106597D01*
X115022406Y-133154216D01*
X115117644Y-133201835D01*
X115212882Y-133297073D01*
X115260501Y-133439931D01*
X115260501Y-133678026D01*
X115260501Y-132154216D02*
X115260501Y-132725645D01*
X115260501Y-132439931D02*
X114260501Y-132439931D01*
X114403358Y-132535169D01*
X114498596Y-132630407D01*
X114546215Y-132725645D01*
X114355739Y-131773264D02*
X114308120Y-131725645D01*
X114260501Y-131630407D01*
X114260501Y-131392311D01*
X114308120Y-131297073D01*
X114355739Y-131249454D01*
X114450977Y-131201835D01*
X114546215Y-131201835D01*
X114689072Y-131249454D01*
X115260501Y-131820883D01*
X115260501Y-131201835D01*
X115260501Y-121486026D02*
X114260501Y-121486026D01*
X114260501Y-121247931D01*
X114308120Y-121105073D01*
X114403358Y-121009835D01*
X114498596Y-120962216D01*
X114689072Y-120914597D01*
X114831930Y-120914597D01*
X115022406Y-120962216D01*
X115117644Y-121009835D01*
X115212882Y-121105073D01*
X115260501Y-121247931D01*
X115260501Y-121486026D01*
X115260501Y-119962216D02*
X115260501Y-120533645D01*
X115260501Y-120247931D02*
X114260501Y-120247931D01*
X114403358Y-120343169D01*
X114498596Y-120438407D01*
X114546215Y-120533645D01*
X114260501Y-119628883D02*
X114260501Y-119009835D01*
X114641453Y-119343169D01*
X114641453Y-119200311D01*
X114689072Y-119105073D01*
X114736691Y-119057454D01*
X114831930Y-119009835D01*
X115070025Y-119009835D01*
X115165263Y-119057454D01*
X115212882Y-119105073D01*
X115260501Y-119200311D01*
X115260501Y-119486026D01*
X115212882Y-119581264D01*
X115165263Y-119628883D01*
X118816501Y-133678026D02*
X117816501Y-133678026D01*
X117816501Y-133439931D01*
X117864120Y-133297073D01*
X117959358Y-133201835D01*
X118054596Y-133154216D01*
X118245072Y-133106597D01*
X118387930Y-133106597D01*
X118578406Y-133154216D01*
X118673644Y-133201835D01*
X118768882Y-133297073D01*
X118816501Y-133439931D01*
X118816501Y-133678026D01*
X118816501Y-132154216D02*
X118816501Y-132725645D01*
X118816501Y-132439931D02*
X117816501Y-132439931D01*
X117959358Y-132535169D01*
X118054596Y-132630407D01*
X118102215Y-132725645D01*
X117816501Y-131249454D02*
X117816501Y-131725645D01*
X118292691Y-131773264D01*
X118245072Y-131725645D01*
X118197453Y-131630407D01*
X118197453Y-131392311D01*
X118245072Y-131297073D01*
X118292691Y-131249454D01*
X118387930Y-131201835D01*
X118626025Y-131201835D01*
X118721263Y-131249454D01*
X118768882Y-131297073D01*
X118816501Y-131392311D01*
X118816501Y-131630407D01*
X118768882Y-131725645D01*
X118721263Y-131773264D01*
X118816501Y-121486026D02*
X117816501Y-121486026D01*
X117816501Y-121247931D01*
X117864120Y-121105073D01*
X117959358Y-121009835D01*
X118054596Y-120962216D01*
X118245072Y-120914597D01*
X118387930Y-120914597D01*
X118578406Y-120962216D01*
X118673644Y-121009835D01*
X118768882Y-121105073D01*
X118816501Y-121247931D01*
X118816501Y-121486026D01*
X118816501Y-119962216D02*
X118816501Y-120533645D01*
X118816501Y-120247931D02*
X117816501Y-120247931D01*
X117959358Y-120343169D01*
X118054596Y-120438407D01*
X118102215Y-120533645D01*
X117816501Y-119105073D02*
X117816501Y-119295550D01*
X117864120Y-119390788D01*
X117911739Y-119438407D01*
X118054596Y-119533645D01*
X118245072Y-119581264D01*
X118626025Y-119581264D01*
X118721263Y-119533645D01*
X118768882Y-119486026D01*
X118816501Y-119390788D01*
X118816501Y-119200311D01*
X118768882Y-119105073D01*
X118721263Y-119057454D01*
X118626025Y-119009835D01*
X118387930Y-119009835D01*
X118292691Y-119057454D01*
X118245072Y-119105073D01*
X118197453Y-119200311D01*
X118197453Y-119390788D01*
X118245072Y-119486026D01*
X118292691Y-119533645D01*
X118387930Y-119581264D01*
X122372501Y-133678026D02*
X121372501Y-133678026D01*
X121372501Y-133439931D01*
X121420120Y-133297073D01*
X121515358Y-133201835D01*
X121610596Y-133154216D01*
X121801072Y-133106597D01*
X121943930Y-133106597D01*
X122134406Y-133154216D01*
X122229644Y-133201835D01*
X122324882Y-133297073D01*
X122372501Y-133439931D01*
X122372501Y-133678026D01*
X122372501Y-132154216D02*
X122372501Y-132725645D01*
X122372501Y-132439931D02*
X121372501Y-132439931D01*
X121515358Y-132535169D01*
X121610596Y-132630407D01*
X121658215Y-132725645D01*
X121372501Y-131820883D02*
X121372501Y-131154216D01*
X122372501Y-131582788D01*
X122372501Y-121486026D02*
X121372501Y-121486026D01*
X121372501Y-121247931D01*
X121420120Y-121105073D01*
X121515358Y-121009835D01*
X121610596Y-120962216D01*
X121801072Y-120914597D01*
X121943930Y-120914597D01*
X122134406Y-120962216D01*
X122229644Y-121009835D01*
X122324882Y-121105073D01*
X122372501Y-121247931D01*
X122372501Y-121486026D01*
X122372501Y-119962216D02*
X122372501Y-120533645D01*
X122372501Y-120247931D02*
X121372501Y-120247931D01*
X121515358Y-120343169D01*
X121610596Y-120438407D01*
X121658215Y-120533645D01*
X121801072Y-119390788D02*
X121753453Y-119486026D01*
X121705834Y-119533645D01*
X121610596Y-119581264D01*
X121562977Y-119581264D01*
X121467739Y-119533645D01*
X121420120Y-119486026D01*
X121372501Y-119390788D01*
X121372501Y-119200311D01*
X121420120Y-119105073D01*
X121467739Y-119057454D01*
X121562977Y-119009835D01*
X121610596Y-119009835D01*
X121705834Y-119057454D01*
X121753453Y-119105073D01*
X121801072Y-119200311D01*
X121801072Y-119390788D01*
X121848691Y-119486026D01*
X121896310Y-119533645D01*
X121991549Y-119581264D01*
X122182025Y-119581264D01*
X122277263Y-119533645D01*
X122324882Y-119486026D01*
X122372501Y-119390788D01*
X122372501Y-119200311D01*
X122324882Y-119105073D01*
X122277263Y-119057454D01*
X122182025Y-119009835D01*
X121991549Y-119009835D01*
X121896310Y-119057454D01*
X121848691Y-119105073D01*
X121801072Y-119200311D01*
X125928501Y-133678026D02*
X124928501Y-133678026D01*
X124928501Y-133439931D01*
X124976120Y-133297073D01*
X125071358Y-133201835D01*
X125166596Y-133154216D01*
X125357072Y-133106597D01*
X125499930Y-133106597D01*
X125690406Y-133154216D01*
X125785644Y-133201835D01*
X125880882Y-133297073D01*
X125928501Y-133439931D01*
X125928501Y-133678026D01*
X125928501Y-132154216D02*
X125928501Y-132725645D01*
X125928501Y-132439931D02*
X124928501Y-132439931D01*
X125071358Y-132535169D01*
X125166596Y-132630407D01*
X125214215Y-132725645D01*
X125928501Y-131678026D02*
X125928501Y-131487550D01*
X125880882Y-131392311D01*
X125833263Y-131344692D01*
X125690406Y-131249454D01*
X125499930Y-131201835D01*
X125118977Y-131201835D01*
X125023739Y-131249454D01*
X124976120Y-131297073D01*
X124928501Y-131392311D01*
X124928501Y-131582788D01*
X124976120Y-131678026D01*
X125023739Y-131725645D01*
X125118977Y-131773264D01*
X125357072Y-131773264D01*
X125452310Y-131725645D01*
X125499930Y-131678026D01*
X125547549Y-131582788D01*
X125547549Y-131392311D01*
X125499930Y-131297073D01*
X125452310Y-131249454D01*
X125357072Y-131201835D01*
X125928501Y-121486026D02*
X124928501Y-121486026D01*
X124928501Y-121247931D01*
X124976120Y-121105073D01*
X125071358Y-121009835D01*
X125166596Y-120962216D01*
X125357072Y-120914597D01*
X125499930Y-120914597D01*
X125690406Y-120962216D01*
X125785644Y-121009835D01*
X125880882Y-121105073D01*
X125928501Y-121247931D01*
X125928501Y-121486026D01*
X125023739Y-120533645D02*
X124976120Y-120486026D01*
X124928501Y-120390788D01*
X124928501Y-120152692D01*
X124976120Y-120057454D01*
X125023739Y-120009835D01*
X125118977Y-119962216D01*
X125214215Y-119962216D01*
X125357072Y-120009835D01*
X125928501Y-120581264D01*
X125928501Y-119962216D01*
X124928501Y-119343169D02*
X124928501Y-119247930D01*
X124976120Y-119152692D01*
X125023739Y-119105073D01*
X125118977Y-119057454D01*
X125309453Y-119009835D01*
X125547549Y-119009835D01*
X125738025Y-119057454D01*
X125833263Y-119105073D01*
X125880882Y-119152692D01*
X125928501Y-119247930D01*
X125928501Y-119343169D01*
X125880882Y-119438407D01*
X125833263Y-119486026D01*
X125738025Y-119533645D01*
X125547549Y-119581264D01*
X125309453Y-119581264D01*
X125118977Y-119533645D01*
X125023739Y-119486026D01*
X124976120Y-119438407D01*
X124928501Y-119343169D01*
X129484501Y-133678026D02*
X128484501Y-133678026D01*
X128484501Y-133439931D01*
X128532120Y-133297073D01*
X128627358Y-133201835D01*
X128722596Y-133154216D01*
X128913072Y-133106597D01*
X129055930Y-133106597D01*
X129246406Y-133154216D01*
X129341644Y-133201835D01*
X129436882Y-133297073D01*
X129484501Y-133439931D01*
X129484501Y-133678026D01*
X128579739Y-132725645D02*
X128532120Y-132678026D01*
X128484501Y-132582788D01*
X128484501Y-132344692D01*
X128532120Y-132249454D01*
X128579739Y-132201835D01*
X128674977Y-132154216D01*
X128770215Y-132154216D01*
X128913072Y-132201835D01*
X129484501Y-132773264D01*
X129484501Y-132154216D01*
X129484501Y-131201835D02*
X129484501Y-131773264D01*
X129484501Y-131487550D02*
X128484501Y-131487550D01*
X128627358Y-131582788D01*
X128722596Y-131678026D01*
X128770215Y-131773264D01*
X129484501Y-121486026D02*
X128484501Y-121486026D01*
X128484501Y-121247931D01*
X128532120Y-121105073D01*
X128627358Y-121009835D01*
X128722596Y-120962216D01*
X128913072Y-120914597D01*
X129055930Y-120914597D01*
X129246406Y-120962216D01*
X129341644Y-121009835D01*
X129436882Y-121105073D01*
X129484501Y-121247931D01*
X129484501Y-121486026D01*
X128579739Y-120533645D02*
X128532120Y-120486026D01*
X128484501Y-120390788D01*
X128484501Y-120152692D01*
X128532120Y-120057454D01*
X128579739Y-120009835D01*
X128674977Y-119962216D01*
X128770215Y-119962216D01*
X128913072Y-120009835D01*
X129484501Y-120581264D01*
X129484501Y-119962216D01*
X128579739Y-119581264D02*
X128532120Y-119533645D01*
X128484501Y-119438407D01*
X128484501Y-119200311D01*
X128532120Y-119105073D01*
X128579739Y-119057454D01*
X128674977Y-119009835D01*
X128770215Y-119009835D01*
X128913072Y-119057454D01*
X129484501Y-119628883D01*
X129484501Y-119009835D01*
X160472501Y-110818026D02*
X159472501Y-110818026D01*
X159472501Y-110579931D01*
X159520120Y-110437073D01*
X159615358Y-110341835D01*
X159710596Y-110294216D01*
X159901072Y-110246597D01*
X160043930Y-110246597D01*
X160234406Y-110294216D01*
X160329644Y-110341835D01*
X160424882Y-110437073D01*
X160472501Y-110579931D01*
X160472501Y-110818026D01*
X159567739Y-109865645D02*
X159520120Y-109818026D01*
X159472501Y-109722788D01*
X159472501Y-109484692D01*
X159520120Y-109389454D01*
X159567739Y-109341835D01*
X159662977Y-109294216D01*
X159758215Y-109294216D01*
X159901072Y-109341835D01*
X160472501Y-109913264D01*
X160472501Y-109294216D01*
X159472501Y-108960883D02*
X159472501Y-108341835D01*
X159853453Y-108675169D01*
X159853453Y-108532311D01*
X159901072Y-108437073D01*
X159948691Y-108389454D01*
X160043930Y-108341835D01*
X160282025Y-108341835D01*
X160377263Y-108389454D01*
X160424882Y-108437073D01*
X160472501Y-108532311D01*
X160472501Y-108818026D01*
X160424882Y-108913264D01*
X160377263Y-108960883D01*
X133040501Y-133678026D02*
X132040501Y-133678026D01*
X132040501Y-133439931D01*
X132088120Y-133297073D01*
X132183358Y-133201835D01*
X132278596Y-133154216D01*
X132469072Y-133106597D01*
X132611930Y-133106597D01*
X132802406Y-133154216D01*
X132897644Y-133201835D01*
X132992882Y-133297073D01*
X133040501Y-133439931D01*
X133040501Y-133678026D01*
X132135739Y-132725645D02*
X132088120Y-132678026D01*
X132040501Y-132582788D01*
X132040501Y-132344692D01*
X132088120Y-132249454D01*
X132135739Y-132201835D01*
X132230977Y-132154216D01*
X132326215Y-132154216D01*
X132469072Y-132201835D01*
X133040501Y-132773264D01*
X133040501Y-132154216D01*
X132373834Y-131297073D02*
X133040501Y-131297073D01*
X131992882Y-131535169D02*
X132707168Y-131773264D01*
X132707168Y-131154216D01*
X133040501Y-121486026D02*
X132040501Y-121486026D01*
X132040501Y-121247931D01*
X132088120Y-121105073D01*
X132183358Y-121009835D01*
X132278596Y-120962216D01*
X132469072Y-120914597D01*
X132611930Y-120914597D01*
X132802406Y-120962216D01*
X132897644Y-121009835D01*
X132992882Y-121105073D01*
X133040501Y-121247931D01*
X133040501Y-121486026D01*
X132135739Y-120533645D02*
X132088120Y-120486026D01*
X132040501Y-120390788D01*
X132040501Y-120152692D01*
X132088120Y-120057454D01*
X132135739Y-120009835D01*
X132230977Y-119962216D01*
X132326215Y-119962216D01*
X132469072Y-120009835D01*
X133040501Y-120581264D01*
X133040501Y-119962216D01*
X132040501Y-119057454D02*
X132040501Y-119533645D01*
X132516691Y-119581264D01*
X132469072Y-119533645D01*
X132421453Y-119438407D01*
X132421453Y-119200311D01*
X132469072Y-119105073D01*
X132516691Y-119057454D01*
X132611930Y-119009835D01*
X132850025Y-119009835D01*
X132945263Y-119057454D01*
X132992882Y-119105073D01*
X133040501Y-119200311D01*
X133040501Y-119438407D01*
X132992882Y-119533645D01*
X132945263Y-119581264D01*
X136596501Y-133678026D02*
X135596501Y-133678026D01*
X135596501Y-133439931D01*
X135644120Y-133297073D01*
X135739358Y-133201835D01*
X135834596Y-133154216D01*
X136025072Y-133106597D01*
X136167930Y-133106597D01*
X136358406Y-133154216D01*
X136453644Y-133201835D01*
X136548882Y-133297073D01*
X136596501Y-133439931D01*
X136596501Y-133678026D01*
X135691739Y-132725645D02*
X135644120Y-132678026D01*
X135596501Y-132582788D01*
X135596501Y-132344692D01*
X135644120Y-132249454D01*
X135691739Y-132201835D01*
X135786977Y-132154216D01*
X135882215Y-132154216D01*
X136025072Y-132201835D01*
X136596501Y-132773264D01*
X136596501Y-132154216D01*
X135596501Y-131297073D02*
X135596501Y-131487550D01*
X135644120Y-131582788D01*
X135691739Y-131630407D01*
X135834596Y-131725645D01*
X136025072Y-131773264D01*
X136406025Y-131773264D01*
X136501263Y-131725645D01*
X136548882Y-131678026D01*
X136596501Y-131582788D01*
X136596501Y-131392311D01*
X136548882Y-131297073D01*
X136501263Y-131249454D01*
X136406025Y-131201835D01*
X136167930Y-131201835D01*
X136072691Y-131249454D01*
X136025072Y-131297073D01*
X135977453Y-131392311D01*
X135977453Y-131582788D01*
X136025072Y-131678026D01*
X136072691Y-131725645D01*
X136167930Y-131773264D01*
X136596501Y-121486026D02*
X135596501Y-121486026D01*
X135596501Y-121247931D01*
X135644120Y-121105073D01*
X135739358Y-121009835D01*
X135834596Y-120962216D01*
X136025072Y-120914597D01*
X136167930Y-120914597D01*
X136358406Y-120962216D01*
X136453644Y-121009835D01*
X136548882Y-121105073D01*
X136596501Y-121247931D01*
X136596501Y-121486026D01*
X135691739Y-120533645D02*
X135644120Y-120486026D01*
X135596501Y-120390788D01*
X135596501Y-120152692D01*
X135644120Y-120057454D01*
X135691739Y-120009835D01*
X135786977Y-119962216D01*
X135882215Y-119962216D01*
X136025072Y-120009835D01*
X136596501Y-120581264D01*
X136596501Y-119962216D01*
X135596501Y-119628883D02*
X135596501Y-118962216D01*
X136596501Y-119390788D01*
X140152501Y-133678026D02*
X139152501Y-133678026D01*
X139152501Y-133439931D01*
X139200120Y-133297073D01*
X139295358Y-133201835D01*
X139390596Y-133154216D01*
X139581072Y-133106597D01*
X139723930Y-133106597D01*
X139914406Y-133154216D01*
X140009644Y-133201835D01*
X140104882Y-133297073D01*
X140152501Y-133439931D01*
X140152501Y-133678026D01*
X139247739Y-132725645D02*
X139200120Y-132678026D01*
X139152501Y-132582788D01*
X139152501Y-132344692D01*
X139200120Y-132249454D01*
X139247739Y-132201835D01*
X139342977Y-132154216D01*
X139438215Y-132154216D01*
X139581072Y-132201835D01*
X140152501Y-132773264D01*
X140152501Y-132154216D01*
X139581072Y-131582788D02*
X139533453Y-131678026D01*
X139485834Y-131725645D01*
X139390596Y-131773264D01*
X139342977Y-131773264D01*
X139247739Y-131725645D01*
X139200120Y-131678026D01*
X139152501Y-131582788D01*
X139152501Y-131392311D01*
X139200120Y-131297073D01*
X139247739Y-131249454D01*
X139342977Y-131201835D01*
X139390596Y-131201835D01*
X139485834Y-131249454D01*
X139533453Y-131297073D01*
X139581072Y-131392311D01*
X139581072Y-131582788D01*
X139628691Y-131678026D01*
X139676310Y-131725645D01*
X139771549Y-131773264D01*
X139962025Y-131773264D01*
X140057263Y-131725645D01*
X140104882Y-131678026D01*
X140152501Y-131582788D01*
X140152501Y-131392311D01*
X140104882Y-131297073D01*
X140057263Y-131249454D01*
X139962025Y-131201835D01*
X139771549Y-131201835D01*
X139676310Y-131249454D01*
X139628691Y-131297073D01*
X139581072Y-131392311D01*
X140152501Y-121486026D02*
X139152501Y-121486026D01*
X139152501Y-121247931D01*
X139200120Y-121105073D01*
X139295358Y-121009835D01*
X139390596Y-120962216D01*
X139581072Y-120914597D01*
X139723930Y-120914597D01*
X139914406Y-120962216D01*
X140009644Y-121009835D01*
X140104882Y-121105073D01*
X140152501Y-121247931D01*
X140152501Y-121486026D01*
X139247739Y-120533645D02*
X139200120Y-120486026D01*
X139152501Y-120390788D01*
X139152501Y-120152692D01*
X139200120Y-120057454D01*
X139247739Y-120009835D01*
X139342977Y-119962216D01*
X139438215Y-119962216D01*
X139581072Y-120009835D01*
X140152501Y-120581264D01*
X140152501Y-119962216D01*
X140152501Y-119486026D02*
X140152501Y-119295550D01*
X140104882Y-119200311D01*
X140057263Y-119152692D01*
X139914406Y-119057454D01*
X139723930Y-119009835D01*
X139342977Y-119009835D01*
X139247739Y-119057454D01*
X139200120Y-119105073D01*
X139152501Y-119200311D01*
X139152501Y-119390788D01*
X139200120Y-119486026D01*
X139247739Y-119533645D01*
X139342977Y-119581264D01*
X139581072Y-119581264D01*
X139676310Y-119533645D01*
X139723930Y-119486026D01*
X139771549Y-119390788D01*
X139771549Y-119200311D01*
X139723930Y-119105073D01*
X139676310Y-119057454D01*
X139581072Y-119009835D01*
X143708501Y-133678026D02*
X142708501Y-133678026D01*
X142708501Y-133439931D01*
X142756120Y-133297073D01*
X142851358Y-133201835D01*
X142946596Y-133154216D01*
X143137072Y-133106597D01*
X143279930Y-133106597D01*
X143470406Y-133154216D01*
X143565644Y-133201835D01*
X143660882Y-133297073D01*
X143708501Y-133439931D01*
X143708501Y-133678026D01*
X142708501Y-132773264D02*
X142708501Y-132154216D01*
X143089453Y-132487550D01*
X143089453Y-132344692D01*
X143137072Y-132249454D01*
X143184691Y-132201835D01*
X143279930Y-132154216D01*
X143518025Y-132154216D01*
X143613263Y-132201835D01*
X143660882Y-132249454D01*
X143708501Y-132344692D01*
X143708501Y-132630407D01*
X143660882Y-132725645D01*
X143613263Y-132773264D01*
X142708501Y-131535169D02*
X142708501Y-131439930D01*
X142756120Y-131344692D01*
X142803739Y-131297073D01*
X142898977Y-131249454D01*
X143089453Y-131201835D01*
X143327549Y-131201835D01*
X143518025Y-131249454D01*
X143613263Y-131297073D01*
X143660882Y-131344692D01*
X143708501Y-131439930D01*
X143708501Y-131535169D01*
X143660882Y-131630407D01*
X143613263Y-131678026D01*
X143518025Y-131725645D01*
X143327549Y-131773264D01*
X143089453Y-131773264D01*
X142898977Y-131725645D01*
X142803739Y-131678026D01*
X142756120Y-131630407D01*
X142708501Y-131535169D01*
X143708501Y-121486026D02*
X142708501Y-121486026D01*
X142708501Y-121247931D01*
X142756120Y-121105073D01*
X142851358Y-121009835D01*
X142946596Y-120962216D01*
X143137072Y-120914597D01*
X143279930Y-120914597D01*
X143470406Y-120962216D01*
X143565644Y-121009835D01*
X143660882Y-121105073D01*
X143708501Y-121247931D01*
X143708501Y-121486026D01*
X142708501Y-120581264D02*
X142708501Y-119962216D01*
X143089453Y-120295550D01*
X143089453Y-120152692D01*
X143137072Y-120057454D01*
X143184691Y-120009835D01*
X143279930Y-119962216D01*
X143518025Y-119962216D01*
X143613263Y-120009835D01*
X143660882Y-120057454D01*
X143708501Y-120152692D01*
X143708501Y-120438407D01*
X143660882Y-120533645D01*
X143613263Y-120581264D01*
X143708501Y-119009835D02*
X143708501Y-119581264D01*
X143708501Y-119295550D02*
X142708501Y-119295550D01*
X142851358Y-119390788D01*
X142946596Y-119486026D01*
X142994215Y-119581264D01*
X147264501Y-133678026D02*
X146264501Y-133678026D01*
X146264501Y-133439931D01*
X146312120Y-133297073D01*
X146407358Y-133201835D01*
X146502596Y-133154216D01*
X146693072Y-133106597D01*
X146835930Y-133106597D01*
X147026406Y-133154216D01*
X147121644Y-133201835D01*
X147216882Y-133297073D01*
X147264501Y-133439931D01*
X147264501Y-133678026D01*
X146264501Y-132773264D02*
X146264501Y-132154216D01*
X146645453Y-132487550D01*
X146645453Y-132344692D01*
X146693072Y-132249454D01*
X146740691Y-132201835D01*
X146835930Y-132154216D01*
X147074025Y-132154216D01*
X147169263Y-132201835D01*
X147216882Y-132249454D01*
X147264501Y-132344692D01*
X147264501Y-132630407D01*
X147216882Y-132725645D01*
X147169263Y-132773264D01*
X146359739Y-131773264D02*
X146312120Y-131725645D01*
X146264501Y-131630407D01*
X146264501Y-131392311D01*
X146312120Y-131297073D01*
X146359739Y-131249454D01*
X146454977Y-131201835D01*
X146550215Y-131201835D01*
X146693072Y-131249454D01*
X147264501Y-131820883D01*
X147264501Y-131201835D01*
X147264501Y-121486026D02*
X146264501Y-121486026D01*
X146264501Y-121247931D01*
X146312120Y-121105073D01*
X146407358Y-121009835D01*
X146502596Y-120962216D01*
X146693072Y-120914597D01*
X146835930Y-120914597D01*
X147026406Y-120962216D01*
X147121644Y-121009835D01*
X147216882Y-121105073D01*
X147264501Y-121247931D01*
X147264501Y-121486026D01*
X146264501Y-120581264D02*
X146264501Y-119962216D01*
X146645453Y-120295550D01*
X146645453Y-120152692D01*
X146693072Y-120057454D01*
X146740691Y-120009835D01*
X146835930Y-119962216D01*
X147074025Y-119962216D01*
X147169263Y-120009835D01*
X147216882Y-120057454D01*
X147264501Y-120152692D01*
X147264501Y-120438407D01*
X147216882Y-120533645D01*
X147169263Y-120581264D01*
X146264501Y-119628883D02*
X146264501Y-119009835D01*
X146645453Y-119343169D01*
X146645453Y-119200311D01*
X146693072Y-119105073D01*
X146740691Y-119057454D01*
X146835930Y-119009835D01*
X147074025Y-119009835D01*
X147169263Y-119057454D01*
X147216882Y-119105073D01*
X147264501Y-119200311D01*
X147264501Y-119486026D01*
X147216882Y-119581264D01*
X147169263Y-119628883D01*
X150820501Y-133678026D02*
X149820501Y-133678026D01*
X149820501Y-133439931D01*
X149868120Y-133297073D01*
X149963358Y-133201835D01*
X150058596Y-133154216D01*
X150249072Y-133106597D01*
X150391930Y-133106597D01*
X150582406Y-133154216D01*
X150677644Y-133201835D01*
X150772882Y-133297073D01*
X150820501Y-133439931D01*
X150820501Y-133678026D01*
X149820501Y-132773264D02*
X149820501Y-132154216D01*
X150201453Y-132487550D01*
X150201453Y-132344692D01*
X150249072Y-132249454D01*
X150296691Y-132201835D01*
X150391930Y-132154216D01*
X150630025Y-132154216D01*
X150725263Y-132201835D01*
X150772882Y-132249454D01*
X150820501Y-132344692D01*
X150820501Y-132630407D01*
X150772882Y-132725645D01*
X150725263Y-132773264D01*
X150153834Y-131297073D02*
X150820501Y-131297073D01*
X149772882Y-131535169D02*
X150487168Y-131773264D01*
X150487168Y-131154216D01*
X150820501Y-121486026D02*
X149820501Y-121486026D01*
X149820501Y-121247931D01*
X149868120Y-121105073D01*
X149963358Y-121009835D01*
X150058596Y-120962216D01*
X150249072Y-120914597D01*
X150391930Y-120914597D01*
X150582406Y-120962216D01*
X150677644Y-121009835D01*
X150772882Y-121105073D01*
X150820501Y-121247931D01*
X150820501Y-121486026D01*
X149820501Y-120581264D02*
X149820501Y-119962216D01*
X150201453Y-120295550D01*
X150201453Y-120152692D01*
X150249072Y-120057454D01*
X150296691Y-120009835D01*
X150391930Y-119962216D01*
X150630025Y-119962216D01*
X150725263Y-120009835D01*
X150772882Y-120057454D01*
X150820501Y-120152692D01*
X150820501Y-120438407D01*
X150772882Y-120533645D01*
X150725263Y-120581264D01*
X149820501Y-119057454D02*
X149820501Y-119533645D01*
X150296691Y-119581264D01*
X150249072Y-119533645D01*
X150201453Y-119438407D01*
X150201453Y-119200311D01*
X150249072Y-119105073D01*
X150296691Y-119057454D01*
X150391930Y-119009835D01*
X150630025Y-119009835D01*
X150725263Y-119057454D01*
X150772882Y-119105073D01*
X150820501Y-119200311D01*
X150820501Y-119438407D01*
X150772882Y-119533645D01*
X150725263Y-119581264D01*
X154376501Y-133678026D02*
X153376501Y-133678026D01*
X153376501Y-133439931D01*
X153424120Y-133297073D01*
X153519358Y-133201835D01*
X153614596Y-133154216D01*
X153805072Y-133106597D01*
X153947930Y-133106597D01*
X154138406Y-133154216D01*
X154233644Y-133201835D01*
X154328882Y-133297073D01*
X154376501Y-133439931D01*
X154376501Y-133678026D01*
X153376501Y-132773264D02*
X153376501Y-132154216D01*
X153757453Y-132487550D01*
X153757453Y-132344692D01*
X153805072Y-132249454D01*
X153852691Y-132201835D01*
X153947930Y-132154216D01*
X154186025Y-132154216D01*
X154281263Y-132201835D01*
X154328882Y-132249454D01*
X154376501Y-132344692D01*
X154376501Y-132630407D01*
X154328882Y-132725645D01*
X154281263Y-132773264D01*
X153376501Y-131297073D02*
X153376501Y-131487550D01*
X153424120Y-131582788D01*
X153471739Y-131630407D01*
X153614596Y-131725645D01*
X153805072Y-131773264D01*
X154186025Y-131773264D01*
X154281263Y-131725645D01*
X154328882Y-131678026D01*
X154376501Y-131582788D01*
X154376501Y-131392311D01*
X154328882Y-131297073D01*
X154281263Y-131249454D01*
X154186025Y-131201835D01*
X153947930Y-131201835D01*
X153852691Y-131249454D01*
X153805072Y-131297073D01*
X153757453Y-131392311D01*
X153757453Y-131582788D01*
X153805072Y-131678026D01*
X153852691Y-131725645D01*
X153947930Y-131773264D01*
X154376501Y-121486026D02*
X153376501Y-121486026D01*
X153376501Y-121247931D01*
X153424120Y-121105073D01*
X153519358Y-121009835D01*
X153614596Y-120962216D01*
X153805072Y-120914597D01*
X153947930Y-120914597D01*
X154138406Y-120962216D01*
X154233644Y-121009835D01*
X154328882Y-121105073D01*
X154376501Y-121247931D01*
X154376501Y-121486026D01*
X153376501Y-120581264D02*
X153376501Y-119962216D01*
X153757453Y-120295550D01*
X153757453Y-120152692D01*
X153805072Y-120057454D01*
X153852691Y-120009835D01*
X153947930Y-119962216D01*
X154186025Y-119962216D01*
X154281263Y-120009835D01*
X154328882Y-120057454D01*
X154376501Y-120152692D01*
X154376501Y-120438407D01*
X154328882Y-120533645D01*
X154281263Y-120581264D01*
X153376501Y-119628883D02*
X153376501Y-118962216D01*
X154376501Y-119390788D01*
X157932501Y-133678026D02*
X156932501Y-133678026D01*
X156932501Y-133439931D01*
X156980120Y-133297073D01*
X157075358Y-133201835D01*
X157170596Y-133154216D01*
X157361072Y-133106597D01*
X157503930Y-133106597D01*
X157694406Y-133154216D01*
X157789644Y-133201835D01*
X157884882Y-133297073D01*
X157932501Y-133439931D01*
X157932501Y-133678026D01*
X156932501Y-132773264D02*
X156932501Y-132154216D01*
X157313453Y-132487550D01*
X157313453Y-132344692D01*
X157361072Y-132249454D01*
X157408691Y-132201835D01*
X157503930Y-132154216D01*
X157742025Y-132154216D01*
X157837263Y-132201835D01*
X157884882Y-132249454D01*
X157932501Y-132344692D01*
X157932501Y-132630407D01*
X157884882Y-132725645D01*
X157837263Y-132773264D01*
X157361072Y-131582788D02*
X157313453Y-131678026D01*
X157265834Y-131725645D01*
X157170596Y-131773264D01*
X157122977Y-131773264D01*
X157027739Y-131725645D01*
X156980120Y-131678026D01*
X156932501Y-131582788D01*
X156932501Y-131392311D01*
X156980120Y-131297073D01*
X157027739Y-131249454D01*
X157122977Y-131201835D01*
X157170596Y-131201835D01*
X157265834Y-131249454D01*
X157313453Y-131297073D01*
X157361072Y-131392311D01*
X157361072Y-131582788D01*
X157408691Y-131678026D01*
X157456310Y-131725645D01*
X157551549Y-131773264D01*
X157742025Y-131773264D01*
X157837263Y-131725645D01*
X157884882Y-131678026D01*
X157932501Y-131582788D01*
X157932501Y-131392311D01*
X157884882Y-131297073D01*
X157837263Y-131249454D01*
X157742025Y-131201835D01*
X157551549Y-131201835D01*
X157456310Y-131249454D01*
X157408691Y-131297073D01*
X157361072Y-131392311D01*
X157932501Y-121486026D02*
X156932501Y-121486026D01*
X156932501Y-121247931D01*
X156980120Y-121105073D01*
X157075358Y-121009835D01*
X157170596Y-120962216D01*
X157361072Y-120914597D01*
X157503930Y-120914597D01*
X157694406Y-120962216D01*
X157789644Y-121009835D01*
X157884882Y-121105073D01*
X157932501Y-121247931D01*
X157932501Y-121486026D01*
X156932501Y-120581264D02*
X156932501Y-119962216D01*
X157313453Y-120295550D01*
X157313453Y-120152692D01*
X157361072Y-120057454D01*
X157408691Y-120009835D01*
X157503930Y-119962216D01*
X157742025Y-119962216D01*
X157837263Y-120009835D01*
X157884882Y-120057454D01*
X157932501Y-120152692D01*
X157932501Y-120438407D01*
X157884882Y-120533645D01*
X157837263Y-120581264D01*
X157932501Y-119486026D02*
X157932501Y-119295550D01*
X157884882Y-119200311D01*
X157837263Y-119152692D01*
X157694406Y-119057454D01*
X157503930Y-119009835D01*
X157122977Y-119009835D01*
X157027739Y-119057454D01*
X156980120Y-119105073D01*
X156932501Y-119200311D01*
X156932501Y-119390788D01*
X156980120Y-119486026D01*
X157027739Y-119533645D01*
X157122977Y-119581264D01*
X157361072Y-119581264D01*
X157456310Y-119533645D01*
X157503930Y-119486026D01*
X157551549Y-119390788D01*
X157551549Y-119200311D01*
X157503930Y-119105073D01*
X157456310Y-119057454D01*
X157361072Y-119009835D01*
X161488501Y-133678026D02*
X160488501Y-133678026D01*
X160488501Y-133439931D01*
X160536120Y-133297073D01*
X160631358Y-133201835D01*
X160726596Y-133154216D01*
X160917072Y-133106597D01*
X161059930Y-133106597D01*
X161250406Y-133154216D01*
X161345644Y-133201835D01*
X161440882Y-133297073D01*
X161488501Y-133439931D01*
X161488501Y-133678026D01*
X160821834Y-132249454D02*
X161488501Y-132249454D01*
X160440882Y-132487550D02*
X161155168Y-132725645D01*
X161155168Y-132106597D01*
X160488501Y-131535169D02*
X160488501Y-131439930D01*
X160536120Y-131344692D01*
X160583739Y-131297073D01*
X160678977Y-131249454D01*
X160869453Y-131201835D01*
X161107549Y-131201835D01*
X161298025Y-131249454D01*
X161393263Y-131297073D01*
X161440882Y-131344692D01*
X161488501Y-131439930D01*
X161488501Y-131535169D01*
X161440882Y-131630407D01*
X161393263Y-131678026D01*
X161298025Y-131725645D01*
X161107549Y-131773264D01*
X160869453Y-131773264D01*
X160678977Y-131725645D01*
X160583739Y-131678026D01*
X160536120Y-131630407D01*
X160488501Y-131535169D01*
X161488501Y-121486026D02*
X160488501Y-121486026D01*
X160488501Y-121247931D01*
X160536120Y-121105073D01*
X160631358Y-121009835D01*
X160726596Y-120962216D01*
X160917072Y-120914597D01*
X161059930Y-120914597D01*
X161250406Y-120962216D01*
X161345644Y-121009835D01*
X161440882Y-121105073D01*
X161488501Y-121247931D01*
X161488501Y-121486026D01*
X160821834Y-120057454D02*
X161488501Y-120057454D01*
X160440882Y-120295550D02*
X161155168Y-120533645D01*
X161155168Y-119914597D01*
X161488501Y-119009835D02*
X161488501Y-119581264D01*
X161488501Y-119295550D02*
X160488501Y-119295550D01*
X160631358Y-119390788D01*
X160726596Y-119486026D01*
X160774215Y-119581264D01*
X165044501Y-133678026D02*
X164044501Y-133678026D01*
X164044501Y-133439931D01*
X164092120Y-133297073D01*
X164187358Y-133201835D01*
X164282596Y-133154216D01*
X164473072Y-133106597D01*
X164615930Y-133106597D01*
X164806406Y-133154216D01*
X164901644Y-133201835D01*
X164996882Y-133297073D01*
X165044501Y-133439931D01*
X165044501Y-133678026D01*
X164377834Y-132249454D02*
X165044501Y-132249454D01*
X163996882Y-132487550D02*
X164711168Y-132725645D01*
X164711168Y-132106597D01*
X164139739Y-131773264D02*
X164092120Y-131725645D01*
X164044501Y-131630407D01*
X164044501Y-131392311D01*
X164092120Y-131297073D01*
X164139739Y-131249454D01*
X164234977Y-131201835D01*
X164330215Y-131201835D01*
X164473072Y-131249454D01*
X165044501Y-131820883D01*
X165044501Y-131201835D01*
X165044501Y-121486026D02*
X164044501Y-121486026D01*
X164044501Y-121247931D01*
X164092120Y-121105073D01*
X164187358Y-121009835D01*
X164282596Y-120962216D01*
X164473072Y-120914597D01*
X164615930Y-120914597D01*
X164806406Y-120962216D01*
X164901644Y-121009835D01*
X164996882Y-121105073D01*
X165044501Y-121247931D01*
X165044501Y-121486026D01*
X164377834Y-120057454D02*
X165044501Y-120057454D01*
X163996882Y-120295550D02*
X164711168Y-120533645D01*
X164711168Y-119914597D01*
X164044501Y-119628883D02*
X164044501Y-119009835D01*
X164425453Y-119343169D01*
X164425453Y-119200311D01*
X164473072Y-119105073D01*
X164520691Y-119057454D01*
X164615930Y-119009835D01*
X164854025Y-119009835D01*
X164949263Y-119057454D01*
X164996882Y-119105073D01*
X165044501Y-119200311D01*
X165044501Y-119486026D01*
X164996882Y-119581264D01*
X164949263Y-119628883D01*
X168600501Y-133678026D02*
X167600501Y-133678026D01*
X167600501Y-133439931D01*
X167648120Y-133297073D01*
X167743358Y-133201835D01*
X167838596Y-133154216D01*
X168029072Y-133106597D01*
X168171930Y-133106597D01*
X168362406Y-133154216D01*
X168457644Y-133201835D01*
X168552882Y-133297073D01*
X168600501Y-133439931D01*
X168600501Y-133678026D01*
X167933834Y-132249454D02*
X168600501Y-132249454D01*
X167552882Y-132487550D02*
X168267168Y-132725645D01*
X168267168Y-132106597D01*
X167933834Y-131297073D02*
X168600501Y-131297073D01*
X167552882Y-131535169D02*
X168267168Y-131773264D01*
X168267168Y-131154216D01*
X168600501Y-121486026D02*
X167600501Y-121486026D01*
X167600501Y-121247931D01*
X167648120Y-121105073D01*
X167743358Y-121009835D01*
X167838596Y-120962216D01*
X168029072Y-120914597D01*
X168171930Y-120914597D01*
X168362406Y-120962216D01*
X168457644Y-121009835D01*
X168552882Y-121105073D01*
X168600501Y-121247931D01*
X168600501Y-121486026D01*
X167933834Y-120057454D02*
X168600501Y-120057454D01*
X167552882Y-120295550D02*
X168267168Y-120533645D01*
X168267168Y-119914597D01*
X167600501Y-119057454D02*
X167600501Y-119533645D01*
X168076691Y-119581264D01*
X168029072Y-119533645D01*
X167981453Y-119438407D01*
X167981453Y-119200311D01*
X168029072Y-119105073D01*
X168076691Y-119057454D01*
X168171930Y-119009835D01*
X168410025Y-119009835D01*
X168505263Y-119057454D01*
X168552882Y-119105073D01*
X168600501Y-119200311D01*
X168600501Y-119438407D01*
X168552882Y-119533645D01*
X168505263Y-119581264D01*
X172156501Y-133678026D02*
X171156501Y-133678026D01*
X171156501Y-133439931D01*
X171204120Y-133297073D01*
X171299358Y-133201835D01*
X171394596Y-133154216D01*
X171585072Y-133106597D01*
X171727930Y-133106597D01*
X171918406Y-133154216D01*
X172013644Y-133201835D01*
X172108882Y-133297073D01*
X172156501Y-133439931D01*
X172156501Y-133678026D01*
X171489834Y-132249454D02*
X172156501Y-132249454D01*
X171108882Y-132487550D02*
X171823168Y-132725645D01*
X171823168Y-132106597D01*
X171156501Y-131297073D02*
X171156501Y-131487550D01*
X171204120Y-131582788D01*
X171251739Y-131630407D01*
X171394596Y-131725645D01*
X171585072Y-131773264D01*
X171966025Y-131773264D01*
X172061263Y-131725645D01*
X172108882Y-131678026D01*
X172156501Y-131582788D01*
X172156501Y-131392311D01*
X172108882Y-131297073D01*
X172061263Y-131249454D01*
X171966025Y-131201835D01*
X171727930Y-131201835D01*
X171632691Y-131249454D01*
X171585072Y-131297073D01*
X171537453Y-131392311D01*
X171537453Y-131582788D01*
X171585072Y-131678026D01*
X171632691Y-131725645D01*
X171727930Y-131773264D01*
X172156501Y-121486026D02*
X171156501Y-121486026D01*
X171156501Y-121247931D01*
X171204120Y-121105073D01*
X171299358Y-121009835D01*
X171394596Y-120962216D01*
X171585072Y-120914597D01*
X171727930Y-120914597D01*
X171918406Y-120962216D01*
X172013644Y-121009835D01*
X172108882Y-121105073D01*
X172156501Y-121247931D01*
X172156501Y-121486026D01*
X171489834Y-120057454D02*
X172156501Y-120057454D01*
X171108882Y-120295550D02*
X171823168Y-120533645D01*
X171823168Y-119914597D01*
X171156501Y-119628883D02*
X171156501Y-118962216D01*
X172156501Y-119390788D01*
X175712501Y-133678026D02*
X174712501Y-133678026D01*
X174712501Y-133439931D01*
X174760120Y-133297073D01*
X174855358Y-133201835D01*
X174950596Y-133154216D01*
X175141072Y-133106597D01*
X175283930Y-133106597D01*
X175474406Y-133154216D01*
X175569644Y-133201835D01*
X175664882Y-133297073D01*
X175712501Y-133439931D01*
X175712501Y-133678026D01*
X175045834Y-132249454D02*
X175712501Y-132249454D01*
X174664882Y-132487550D02*
X175379168Y-132725645D01*
X175379168Y-132106597D01*
X175141072Y-131582788D02*
X175093453Y-131678026D01*
X175045834Y-131725645D01*
X174950596Y-131773264D01*
X174902977Y-131773264D01*
X174807739Y-131725645D01*
X174760120Y-131678026D01*
X174712501Y-131582788D01*
X174712501Y-131392311D01*
X174760120Y-131297073D01*
X174807739Y-131249454D01*
X174902977Y-131201835D01*
X174950596Y-131201835D01*
X175045834Y-131249454D01*
X175093453Y-131297073D01*
X175141072Y-131392311D01*
X175141072Y-131582788D01*
X175188691Y-131678026D01*
X175236310Y-131725645D01*
X175331549Y-131773264D01*
X175522025Y-131773264D01*
X175617263Y-131725645D01*
X175664882Y-131678026D01*
X175712501Y-131582788D01*
X175712501Y-131392311D01*
X175664882Y-131297073D01*
X175617263Y-131249454D01*
X175522025Y-131201835D01*
X175331549Y-131201835D01*
X175236310Y-131249454D01*
X175188691Y-131297073D01*
X175141072Y-131392311D01*
X175712501Y-121486026D02*
X174712501Y-121486026D01*
X174712501Y-121247931D01*
X174760120Y-121105073D01*
X174855358Y-121009835D01*
X174950596Y-120962216D01*
X175141072Y-120914597D01*
X175283930Y-120914597D01*
X175474406Y-120962216D01*
X175569644Y-121009835D01*
X175664882Y-121105073D01*
X175712501Y-121247931D01*
X175712501Y-121486026D01*
X175045834Y-120057454D02*
X175712501Y-120057454D01*
X174664882Y-120295550D02*
X175379168Y-120533645D01*
X175379168Y-119914597D01*
X175712501Y-119486026D02*
X175712501Y-119295550D01*
X175664882Y-119200311D01*
X175617263Y-119152692D01*
X175474406Y-119057454D01*
X175283930Y-119009835D01*
X174902977Y-119009835D01*
X174807739Y-119057454D01*
X174760120Y-119105073D01*
X174712501Y-119200311D01*
X174712501Y-119390788D01*
X174760120Y-119486026D01*
X174807739Y-119533645D01*
X174902977Y-119581264D01*
X175141072Y-119581264D01*
X175236310Y-119533645D01*
X175283930Y-119486026D01*
X175331549Y-119390788D01*
X175331549Y-119200311D01*
X175283930Y-119105073D01*
X175236310Y-119057454D01*
X175141072Y-119009835D01*
X179268501Y-133678026D02*
X178268501Y-133678026D01*
X178268501Y-133439931D01*
X178316120Y-133297073D01*
X178411358Y-133201835D01*
X178506596Y-133154216D01*
X178697072Y-133106597D01*
X178839930Y-133106597D01*
X179030406Y-133154216D01*
X179125644Y-133201835D01*
X179220882Y-133297073D01*
X179268501Y-133439931D01*
X179268501Y-133678026D01*
X178268501Y-132201835D02*
X178268501Y-132678026D01*
X178744691Y-132725645D01*
X178697072Y-132678026D01*
X178649453Y-132582788D01*
X178649453Y-132344692D01*
X178697072Y-132249454D01*
X178744691Y-132201835D01*
X178839930Y-132154216D01*
X179078025Y-132154216D01*
X179173263Y-132201835D01*
X179220882Y-132249454D01*
X179268501Y-132344692D01*
X179268501Y-132582788D01*
X179220882Y-132678026D01*
X179173263Y-132725645D01*
X178268501Y-131535169D02*
X178268501Y-131439930D01*
X178316120Y-131344692D01*
X178363739Y-131297073D01*
X178458977Y-131249454D01*
X178649453Y-131201835D01*
X178887549Y-131201835D01*
X179078025Y-131249454D01*
X179173263Y-131297073D01*
X179220882Y-131344692D01*
X179268501Y-131439930D01*
X179268501Y-131535169D01*
X179220882Y-131630407D01*
X179173263Y-131678026D01*
X179078025Y-131725645D01*
X178887549Y-131773264D01*
X178649453Y-131773264D01*
X178458977Y-131725645D01*
X178363739Y-131678026D01*
X178316120Y-131630407D01*
X178268501Y-131535169D01*
X179268501Y-121486026D02*
X178268501Y-121486026D01*
X178268501Y-121247931D01*
X178316120Y-121105073D01*
X178411358Y-121009835D01*
X178506596Y-120962216D01*
X178697072Y-120914597D01*
X178839930Y-120914597D01*
X179030406Y-120962216D01*
X179125644Y-121009835D01*
X179220882Y-121105073D01*
X179268501Y-121247931D01*
X179268501Y-121486026D01*
X178268501Y-120009835D02*
X178268501Y-120486026D01*
X178744691Y-120533645D01*
X178697072Y-120486026D01*
X178649453Y-120390788D01*
X178649453Y-120152692D01*
X178697072Y-120057454D01*
X178744691Y-120009835D01*
X178839930Y-119962216D01*
X179078025Y-119962216D01*
X179173263Y-120009835D01*
X179220882Y-120057454D01*
X179268501Y-120152692D01*
X179268501Y-120390788D01*
X179220882Y-120486026D01*
X179173263Y-120533645D01*
X179268501Y-119009835D02*
X179268501Y-119581264D01*
X179268501Y-119295550D02*
X178268501Y-119295550D01*
X178411358Y-119390788D01*
X178506596Y-119486026D01*
X178554215Y-119581264D01*
X182824501Y-133678026D02*
X181824501Y-133678026D01*
X181824501Y-133439931D01*
X181872120Y-133297073D01*
X181967358Y-133201835D01*
X182062596Y-133154216D01*
X182253072Y-133106597D01*
X182395930Y-133106597D01*
X182586406Y-133154216D01*
X182681644Y-133201835D01*
X182776882Y-133297073D01*
X182824501Y-133439931D01*
X182824501Y-133678026D01*
X181824501Y-132201835D02*
X181824501Y-132678026D01*
X182300691Y-132725645D01*
X182253072Y-132678026D01*
X182205453Y-132582788D01*
X182205453Y-132344692D01*
X182253072Y-132249454D01*
X182300691Y-132201835D01*
X182395930Y-132154216D01*
X182634025Y-132154216D01*
X182729263Y-132201835D01*
X182776882Y-132249454D01*
X182824501Y-132344692D01*
X182824501Y-132582788D01*
X182776882Y-132678026D01*
X182729263Y-132725645D01*
X181919739Y-131773264D02*
X181872120Y-131725645D01*
X181824501Y-131630407D01*
X181824501Y-131392311D01*
X181872120Y-131297073D01*
X181919739Y-131249454D01*
X182014977Y-131201835D01*
X182110215Y-131201835D01*
X182253072Y-131249454D01*
X182824501Y-131820883D01*
X182824501Y-131201835D01*
X186380501Y-133678026D02*
X185380501Y-133678026D01*
X185380501Y-133439931D01*
X185428120Y-133297073D01*
X185523358Y-133201835D01*
X185618596Y-133154216D01*
X185809072Y-133106597D01*
X185951930Y-133106597D01*
X186142406Y-133154216D01*
X186237644Y-133201835D01*
X186332882Y-133297073D01*
X186380501Y-133439931D01*
X186380501Y-133678026D01*
X185380501Y-132201835D02*
X185380501Y-132678026D01*
X185856691Y-132725645D01*
X185809072Y-132678026D01*
X185761453Y-132582788D01*
X185761453Y-132344692D01*
X185809072Y-132249454D01*
X185856691Y-132201835D01*
X185951930Y-132154216D01*
X186190025Y-132154216D01*
X186285263Y-132201835D01*
X186332882Y-132249454D01*
X186380501Y-132344692D01*
X186380501Y-132582788D01*
X186332882Y-132678026D01*
X186285263Y-132725645D01*
X185380501Y-131820883D02*
X185380501Y-131201835D01*
X185761453Y-131535169D01*
X185761453Y-131392311D01*
X185809072Y-131297073D01*
X185856691Y-131249454D01*
X185951930Y-131201835D01*
X186190025Y-131201835D01*
X186285263Y-131249454D01*
X186332882Y-131297073D01*
X186380501Y-131392311D01*
X186380501Y-131678026D01*
X186332882Y-131773264D01*
X186285263Y-131820883D01*
X189936501Y-133678026D02*
X188936501Y-133678026D01*
X188936501Y-133439931D01*
X188984120Y-133297073D01*
X189079358Y-133201835D01*
X189174596Y-133154216D01*
X189365072Y-133106597D01*
X189507930Y-133106597D01*
X189698406Y-133154216D01*
X189793644Y-133201835D01*
X189888882Y-133297073D01*
X189936501Y-133439931D01*
X189936501Y-133678026D01*
X188936501Y-132201835D02*
X188936501Y-132678026D01*
X189412691Y-132725645D01*
X189365072Y-132678026D01*
X189317453Y-132582788D01*
X189317453Y-132344692D01*
X189365072Y-132249454D01*
X189412691Y-132201835D01*
X189507930Y-132154216D01*
X189746025Y-132154216D01*
X189841263Y-132201835D01*
X189888882Y-132249454D01*
X189936501Y-132344692D01*
X189936501Y-132582788D01*
X189888882Y-132678026D01*
X189841263Y-132725645D01*
X189269834Y-131297073D02*
X189936501Y-131297073D01*
X188888882Y-131535169D02*
X189603168Y-131773264D01*
X189603168Y-131154216D01*
X193492501Y-133678026D02*
X192492501Y-133678026D01*
X192492501Y-133439931D01*
X192540120Y-133297073D01*
X192635358Y-133201835D01*
X192730596Y-133154216D01*
X192921072Y-133106597D01*
X193063930Y-133106597D01*
X193254406Y-133154216D01*
X193349644Y-133201835D01*
X193444882Y-133297073D01*
X193492501Y-133439931D01*
X193492501Y-133678026D01*
X192492501Y-132201835D02*
X192492501Y-132678026D01*
X192968691Y-132725645D01*
X192921072Y-132678026D01*
X192873453Y-132582788D01*
X192873453Y-132344692D01*
X192921072Y-132249454D01*
X192968691Y-132201835D01*
X193063930Y-132154216D01*
X193302025Y-132154216D01*
X193397263Y-132201835D01*
X193444882Y-132249454D01*
X193492501Y-132344692D01*
X193492501Y-132582788D01*
X193444882Y-132678026D01*
X193397263Y-132725645D01*
X192492501Y-131249454D02*
X192492501Y-131725645D01*
X192968691Y-131773264D01*
X192921072Y-131725645D01*
X192873453Y-131630407D01*
X192873453Y-131392311D01*
X192921072Y-131297073D01*
X192968691Y-131249454D01*
X193063930Y-131201835D01*
X193302025Y-131201835D01*
X193397263Y-131249454D01*
X193444882Y-131297073D01*
X193492501Y-131392311D01*
X193492501Y-131630407D01*
X193444882Y-131725645D01*
X193397263Y-131773264D01*
X197048501Y-133678026D02*
X196048501Y-133678026D01*
X196048501Y-133439931D01*
X196096120Y-133297073D01*
X196191358Y-133201835D01*
X196286596Y-133154216D01*
X196477072Y-133106597D01*
X196619930Y-133106597D01*
X196810406Y-133154216D01*
X196905644Y-133201835D01*
X197000882Y-133297073D01*
X197048501Y-133439931D01*
X197048501Y-133678026D01*
X196048501Y-132201835D02*
X196048501Y-132678026D01*
X196524691Y-132725645D01*
X196477072Y-132678026D01*
X196429453Y-132582788D01*
X196429453Y-132344692D01*
X196477072Y-132249454D01*
X196524691Y-132201835D01*
X196619930Y-132154216D01*
X196858025Y-132154216D01*
X196953263Y-132201835D01*
X197000882Y-132249454D01*
X197048501Y-132344692D01*
X197048501Y-132582788D01*
X197000882Y-132678026D01*
X196953263Y-132725645D01*
X196048501Y-131297073D02*
X196048501Y-131487550D01*
X196096120Y-131582788D01*
X196143739Y-131630407D01*
X196286596Y-131725645D01*
X196477072Y-131773264D01*
X196858025Y-131773264D01*
X196953263Y-131725645D01*
X197000882Y-131678026D01*
X197048501Y-131582788D01*
X197048501Y-131392311D01*
X197000882Y-131297073D01*
X196953263Y-131249454D01*
X196858025Y-131201835D01*
X196619930Y-131201835D01*
X196524691Y-131249454D01*
X196477072Y-131297073D01*
X196429453Y-131392311D01*
X196429453Y-131582788D01*
X196477072Y-131678026D01*
X196524691Y-131725645D01*
X196619930Y-131773264D01*
X225385334Y-114431143D02*
X225337715Y-114478762D01*
X225194858Y-114526381D01*
X225099620Y-114526381D01*
X224956762Y-114478762D01*
X224861524Y-114383524D01*
X224813905Y-114288286D01*
X224766286Y-114097810D01*
X224766286Y-113954952D01*
X224813905Y-113764476D01*
X224861524Y-113669238D01*
X224956762Y-113574000D01*
X225099620Y-113526381D01*
X225194858Y-113526381D01*
X225337715Y-113574000D01*
X225385334Y-113621619D01*
X225718667Y-113526381D02*
X226337715Y-113526381D01*
X226004381Y-113907333D01*
X226147239Y-113907333D01*
X226242477Y-113954952D01*
X226290096Y-114002571D01*
X226337715Y-114097810D01*
X226337715Y-114335905D01*
X226290096Y-114431143D01*
X226242477Y-114478762D01*
X226147239Y-114526381D01*
X225861524Y-114526381D01*
X225766286Y-114478762D01*
X225718667Y-114431143D01*
X225171048Y-106497429D02*
X225932953Y-106497429D01*
X225552001Y-106878381D02*
X225552001Y-106116476D01*
X163666905Y-114542381D02*
X163666905Y-113542381D01*
X164238334Y-114542381D02*
X163809762Y-113970952D01*
X164238334Y-113542381D02*
X163666905Y-114113810D01*
X165143096Y-113542381D02*
X164666905Y-113542381D01*
X164619286Y-114018571D01*
X164666905Y-113970952D01*
X164762143Y-113923333D01*
X165000239Y-113923333D01*
X165095477Y-113970952D01*
X165143096Y-114018571D01*
X165190715Y-114113810D01*
X165190715Y-114351905D01*
X165143096Y-114447143D01*
X165095477Y-114494762D01*
X165000239Y-114542381D01*
X164762143Y-114542381D01*
X164666905Y-114494762D01*
X164619286Y-114447143D01*
X114136905Y-114542381D02*
X114136905Y-113542381D01*
X114708334Y-114542381D02*
X114279762Y-113970952D01*
X114708334Y-113542381D02*
X114136905Y-114113810D01*
X115089286Y-113637619D02*
X115136905Y-113590000D01*
X115232143Y-113542381D01*
X115470239Y-113542381D01*
X115565477Y-113590000D01*
X115613096Y-113637619D01*
X115660715Y-113732857D01*
X115660715Y-113828095D01*
X115613096Y-113970952D01*
X115041667Y-114542381D01*
X115660715Y-114542381D01*
X215101905Y-114542381D02*
X215101905Y-113542381D01*
X215673334Y-114542381D02*
X215244762Y-113970952D01*
X215673334Y-113542381D02*
X215101905Y-114113810D01*
X216006667Y-113542381D02*
X216673334Y-113542381D01*
X216244762Y-114542381D01*
X190336905Y-114542381D02*
X190336905Y-113542381D01*
X190908334Y-114542381D02*
X190479762Y-113970952D01*
X190908334Y-113542381D02*
X190336905Y-114113810D01*
X191765477Y-113542381D02*
X191575000Y-113542381D01*
X191479762Y-113590000D01*
X191432143Y-113637619D01*
X191336905Y-113780476D01*
X191289286Y-113970952D01*
X191289286Y-114351905D01*
X191336905Y-114447143D01*
X191384524Y-114494762D01*
X191479762Y-114542381D01*
X191670239Y-114542381D01*
X191765477Y-114494762D01*
X191813096Y-114447143D01*
X191860715Y-114351905D01*
X191860715Y-114113810D01*
X191813096Y-114018571D01*
X191765477Y-113970952D01*
X191670239Y-113923333D01*
X191479762Y-113923333D01*
X191384524Y-113970952D01*
X191336905Y-114018571D01*
X191289286Y-114113810D01*
X138901905Y-114542381D02*
X138901905Y-113542381D01*
X139473334Y-114542381D02*
X139044762Y-113970952D01*
X139473334Y-113542381D02*
X138901905Y-114113810D01*
X139806667Y-113542381D02*
X140425715Y-113542381D01*
X140092381Y-113923333D01*
X140235239Y-113923333D01*
X140330477Y-113970952D01*
X140378096Y-114018571D01*
X140425715Y-114113810D01*
X140425715Y-114351905D01*
X140378096Y-114447143D01*
X140330477Y-114494762D01*
X140235239Y-114542381D01*
X139949524Y-114542381D01*
X139854286Y-114494762D01*
X139806667Y-114447143D01*
X255512381Y-122083095D02*
X254512381Y-122083095D01*
X255512381Y-121511666D02*
X254940952Y-121940238D01*
X254512381Y-121511666D02*
X255083810Y-122083095D01*
X254845714Y-120654523D02*
X255512381Y-120654523D01*
X254464762Y-120892619D02*
X255179048Y-121130714D01*
X255179048Y-120511666D01*
X244082381Y-122083095D02*
X243082381Y-122083095D01*
X244082381Y-121511666D02*
X243510952Y-121940238D01*
X243082381Y-121511666D02*
X243653810Y-122083095D01*
X244082381Y-120559285D02*
X244082381Y-121130714D01*
X244082381Y-120845000D02*
X243082381Y-120845000D01*
X243225238Y-120940238D01*
X243320476Y-121035476D01*
X243368095Y-121130714D01*
M02*
