G04 #@! TF.FileFunction,Copper,L1,Top,Signal*
%FSLAX46Y46*%
G04 Gerber Fmt 4.6, Leading zero omitted, Abs format (unit mm)*
G04 Created by KiCad (PCBNEW 4.0.4+e1-6308~48~ubuntu16.04.1-stable) date Mon Jan 22 21:19:12 2018*
%MOMM*%
%LPD*%
G01*
G04 APERTURE LIST*
%ADD10C,0.100000*%
%ADD11R,1.270000X0.970000*%
%ADD12C,1.600000*%
%ADD13O,1.600000X1.600000*%
%ADD14R,2.200000X2.200000*%
%ADD15O,2.200000X2.200000*%
%ADD16R,1.700000X1.700000*%
%ADD17O,1.700000X1.700000*%
%ADD18R,1.524000X1.524000*%
%ADD19C,1.524000*%
%ADD20C,1.800000*%
%ADD21C,0.600000*%
%ADD22C,0.200000*%
%ADD23C,0.600000*%
%ADD24C,0.254000*%
G04 APERTURE END LIST*
D10*
D11*
X244475000Y-111130000D03*
X244475000Y-109850000D03*
X247015000Y-111130000D03*
X247015000Y-109850000D03*
X217805000Y-139060000D03*
X217805000Y-140340000D03*
X220345000Y-139060000D03*
X220345000Y-140340000D03*
D12*
X245745000Y-115570000D03*
D13*
X245745000Y-125730000D03*
D12*
X257175000Y-115570000D03*
D13*
X257175000Y-125730000D03*
D12*
X241320000Y-125730000D03*
X238820000Y-125730000D03*
X242570000Y-125730000D03*
X237570000Y-125730000D03*
X252750000Y-125730000D03*
X250250000Y-125730000D03*
X254000000Y-125730000D03*
X249000000Y-125730000D03*
D14*
X245110000Y-129540000D03*
D15*
X237490000Y-129540000D03*
D14*
X248920000Y-129540000D03*
D15*
X256540000Y-129540000D03*
D14*
X110490000Y-105410000D03*
D15*
X110490000Y-113030000D03*
D14*
X186690000Y-105410000D03*
D15*
X186690000Y-113030000D03*
D14*
X211455000Y-105410000D03*
D15*
X211455000Y-113030000D03*
D14*
X104140000Y-128270000D03*
D15*
X104140000Y-135890000D03*
D14*
X104140000Y-124460000D03*
D15*
X104140000Y-116840000D03*
D14*
X107696000Y-128270000D03*
D15*
X107696000Y-135890000D03*
D14*
X107696000Y-124460000D03*
D15*
X107696000Y-116840000D03*
D14*
X111252000Y-128270000D03*
D15*
X111252000Y-135890000D03*
D14*
X111252000Y-124460000D03*
D15*
X111252000Y-116840000D03*
D14*
X135255000Y-105410000D03*
D15*
X135255000Y-113030000D03*
D14*
X114808000Y-128270000D03*
D15*
X114808000Y-135890000D03*
D14*
X114808000Y-124460000D03*
D15*
X114808000Y-116840000D03*
D14*
X118364000Y-128270000D03*
D15*
X118364000Y-135890000D03*
D14*
X118364000Y-124460000D03*
D15*
X118364000Y-116840000D03*
D14*
X121920000Y-128270000D03*
D15*
X121920000Y-135890000D03*
D14*
X121920000Y-124460000D03*
D15*
X121920000Y-116840000D03*
D14*
X125476000Y-128270000D03*
D15*
X125476000Y-135890000D03*
D14*
X125476000Y-124460000D03*
D15*
X125476000Y-116840000D03*
D14*
X129032000Y-128270000D03*
D15*
X129032000Y-135890000D03*
D14*
X129032000Y-124460000D03*
D15*
X129032000Y-116840000D03*
D14*
X160020000Y-105410000D03*
D15*
X160020000Y-113030000D03*
D14*
X132588000Y-128270000D03*
D15*
X132588000Y-135890000D03*
D14*
X132588000Y-124460000D03*
D15*
X132588000Y-116840000D03*
D14*
X136144000Y-128270000D03*
D15*
X136144000Y-135890000D03*
D14*
X136144000Y-124460000D03*
D15*
X136144000Y-116840000D03*
D14*
X139700000Y-128270000D03*
D15*
X139700000Y-135890000D03*
D14*
X139700000Y-124460000D03*
D15*
X139700000Y-116840000D03*
D14*
X143256000Y-128270000D03*
D15*
X143256000Y-135890000D03*
D14*
X143256000Y-124460000D03*
D15*
X143256000Y-116840000D03*
D14*
X146812000Y-128270000D03*
D15*
X146812000Y-135890000D03*
D14*
X146812000Y-124460000D03*
D15*
X146812000Y-116840000D03*
D14*
X150368000Y-128270000D03*
D15*
X150368000Y-135890000D03*
D14*
X150368000Y-124460000D03*
D15*
X150368000Y-116840000D03*
D14*
X153924000Y-128270000D03*
D15*
X153924000Y-135890000D03*
D14*
X153924000Y-124460000D03*
D15*
X153924000Y-116840000D03*
D14*
X157480000Y-128270000D03*
D15*
X157480000Y-135890000D03*
D14*
X157480000Y-124460000D03*
D15*
X157480000Y-116840000D03*
D14*
X161036000Y-128270000D03*
D15*
X161036000Y-135890000D03*
D14*
X161036000Y-124460000D03*
D15*
X161036000Y-116840000D03*
D14*
X164592000Y-128270000D03*
D15*
X164592000Y-135890000D03*
D14*
X164592000Y-124460000D03*
D15*
X164592000Y-116840000D03*
D14*
X168148000Y-128270000D03*
D15*
X168148000Y-135890000D03*
D14*
X168148000Y-124460000D03*
D15*
X168148000Y-116840000D03*
D14*
X171704000Y-128270000D03*
D15*
X171704000Y-135890000D03*
D14*
X171704000Y-124460000D03*
D15*
X171704000Y-116840000D03*
D14*
X175260000Y-128270000D03*
D15*
X175260000Y-135890000D03*
D14*
X175260000Y-124460000D03*
D15*
X175260000Y-116840000D03*
D14*
X178816000Y-128270000D03*
D15*
X178816000Y-135890000D03*
D14*
X178816000Y-124460000D03*
D15*
X178816000Y-116840000D03*
D14*
X182372000Y-128270000D03*
D15*
X182372000Y-135890000D03*
D14*
X185928000Y-128270000D03*
D15*
X185928000Y-135890000D03*
D14*
X189484000Y-128270000D03*
D15*
X189484000Y-135890000D03*
D14*
X193040000Y-128270000D03*
D15*
X193040000Y-135890000D03*
D14*
X196596000Y-128270000D03*
D15*
X196596000Y-135890000D03*
D16*
X103620000Y-103620000D03*
D17*
X106160000Y-103620000D03*
D16*
X141900000Y-103620000D03*
D17*
X144440000Y-103620000D03*
D16*
X180180000Y-103620000D03*
D17*
X182720000Y-103620000D03*
D16*
X218460000Y-103620000D03*
D17*
X221000000Y-103620000D03*
D16*
X125870000Y-103620000D03*
D17*
X128410000Y-103620000D03*
D16*
X164150000Y-103620000D03*
D17*
X166690000Y-103620000D03*
D16*
X202430000Y-103620000D03*
D17*
X204970000Y-103620000D03*
D16*
X188570000Y-140130000D03*
D17*
X191110000Y-140130000D03*
X193650000Y-140130000D03*
X196190000Y-140130000D03*
X198730000Y-140130000D03*
X201270000Y-140130000D03*
X203810000Y-140130000D03*
X206350000Y-140130000D03*
X208890000Y-140130000D03*
X211430000Y-140130000D03*
D16*
X119820000Y-140130000D03*
D17*
X122360000Y-140130000D03*
X124900000Y-140130000D03*
X127440000Y-140130000D03*
X129980000Y-140130000D03*
X132520000Y-140130000D03*
X135060000Y-140130000D03*
X137600000Y-140130000D03*
X140140000Y-140130000D03*
X142680000Y-140130000D03*
D16*
X256740000Y-103620000D03*
D17*
X259280000Y-103620000D03*
D16*
X248730000Y-140130000D03*
D17*
X251270000Y-140130000D03*
D16*
X240710000Y-103759000D03*
D17*
X243250000Y-103759000D03*
D18*
X225552000Y-108204000D03*
D19*
X225552000Y-110744000D03*
D20*
X163805000Y-112090000D03*
X167005000Y-112090000D03*
X169205000Y-112090000D03*
X171405000Y-112090000D03*
X171405000Y-108890000D03*
X169205000Y-108890000D03*
X167005000Y-108890000D03*
X163805000Y-108890000D03*
X114275000Y-112090000D03*
X117475000Y-112090000D03*
X119675000Y-112090000D03*
X121875000Y-112090000D03*
X121875000Y-108890000D03*
X119675000Y-108890000D03*
X117475000Y-108890000D03*
X114275000Y-108890000D03*
X215240000Y-112090000D03*
X218440000Y-112090000D03*
X220640000Y-112090000D03*
X222840000Y-112090000D03*
X222840000Y-108890000D03*
X220640000Y-108890000D03*
X218440000Y-108890000D03*
X215240000Y-108890000D03*
X190475000Y-112090000D03*
X193675000Y-112090000D03*
X195875000Y-112090000D03*
X198075000Y-112090000D03*
X198075000Y-108890000D03*
X195875000Y-108890000D03*
X193675000Y-108890000D03*
X190475000Y-108890000D03*
X139040000Y-112090000D03*
X142240000Y-112090000D03*
X144440000Y-112090000D03*
X146640000Y-112090000D03*
X146640000Y-108890000D03*
X144440000Y-108890000D03*
X142240000Y-108890000D03*
X139040000Y-108890000D03*
X253060000Y-121945000D03*
X253060000Y-118745000D03*
X253060000Y-116545000D03*
X253060000Y-114345000D03*
X249860000Y-114345000D03*
X249860000Y-116545000D03*
X249860000Y-118745000D03*
X249860000Y-121945000D03*
X241630000Y-121945000D03*
X241630000Y-118745000D03*
X241630000Y-116545000D03*
X241630000Y-114345000D03*
X238430000Y-114345000D03*
X238430000Y-116545000D03*
X238430000Y-118745000D03*
X238430000Y-121945000D03*
D21*
X190500000Y-130175000D03*
X135001000Y-130175000D03*
X182372000Y-130175000D03*
X150368000Y-130175000D03*
X123444000Y-130175000D03*
X132588000Y-130175000D03*
X125476000Y-118745000D03*
X136144000Y-118745000D03*
X161036000Y-118745000D03*
X104140000Y-118745000D03*
X104140000Y-130175000D03*
X218440000Y-126619000D03*
X180340000Y-120650000D03*
X196215000Y-120650000D03*
X193040000Y-130810000D03*
X168148000Y-130810000D03*
X153924000Y-130810000D03*
X125476000Y-130810000D03*
X136144000Y-130810000D03*
X129032000Y-119380000D03*
X139700000Y-119380000D03*
X164592000Y-119380000D03*
X107696000Y-130810000D03*
X195072000Y-131445000D03*
X143256000Y-120015000D03*
X133731000Y-131445000D03*
X185928000Y-131445000D03*
X171704000Y-131445000D03*
X157480000Y-131445000D03*
X129032000Y-131445000D03*
X132588000Y-120015000D03*
X168148000Y-120015000D03*
X107696000Y-120015000D03*
X111252000Y-131445000D03*
X203835000Y-133350000D03*
X155448000Y-133350000D03*
X193040000Y-133350000D03*
X175260000Y-133350000D03*
X134620000Y-133350000D03*
X121920000Y-133350000D03*
X198755000Y-132080000D03*
X170180000Y-132080000D03*
X189484000Y-132080000D03*
X161036000Y-132080000D03*
X130556000Y-132080000D03*
X139700000Y-132080000D03*
X111252000Y-120650000D03*
X146812000Y-120650000D03*
X171704000Y-120650000D03*
X114808000Y-132080000D03*
X196596000Y-133985000D03*
X206375000Y-133985000D03*
X156591000Y-133985000D03*
X122809000Y-133985000D03*
X178816000Y-133985000D03*
X164592000Y-133985000D03*
X137668000Y-133985000D03*
X146812000Y-133985000D03*
X201270000Y-132740000D03*
X151511000Y-132715000D03*
X131318000Y-132715000D03*
X143256000Y-132715000D03*
X118745000Y-132715000D03*
X124587000Y-122555000D03*
X182245000Y-122555000D03*
X162052000Y-101981000D03*
X192024000Y-101981000D03*
X185293000Y-119761000D03*
X215519000Y-119761000D03*
X216789000Y-139065000D03*
X250952000Y-111130000D03*
X247650000Y-120269000D03*
X213741000Y-113030000D03*
X213741000Y-106934000D03*
X210058000Y-134874000D03*
X234696000Y-109855000D03*
X231648000Y-136144000D03*
X248412000Y-105918000D03*
X121920000Y-121285000D03*
X149225000Y-121285000D03*
X169545000Y-121920000D03*
X132715000Y-121920000D03*
X200152000Y-125603000D03*
X222758000Y-124460000D03*
X234442000Y-137541000D03*
D22*
X190500000Y-130175000D02*
X182372000Y-130175000D01*
X104140000Y-118745000D02*
X125476000Y-118745000D01*
X125476000Y-118745000D02*
X136144000Y-118745000D01*
X136144000Y-118745000D02*
X161036000Y-118745000D01*
X104775000Y-130175000D02*
X123444000Y-130175000D01*
X123444000Y-130175000D02*
X132588000Y-130175000D01*
X132588000Y-130175000D02*
X135001000Y-130175000D01*
X135001000Y-130175000D02*
X150368000Y-130175000D01*
X150368000Y-130175000D02*
X182372000Y-130175000D01*
X104140000Y-130175000D02*
X104775000Y-130175000D01*
X106160000Y-103620000D02*
X108700000Y-103620000D01*
X108700000Y-103620000D02*
X110490000Y-105410000D01*
X114275000Y-108890000D02*
X113110000Y-108890000D01*
X110490000Y-111510000D02*
X110490000Y-113030000D01*
X113110000Y-108890000D02*
X110490000Y-111510000D01*
X121920000Y-126619000D02*
X121920000Y-128270000D01*
X212725000Y-126619000D02*
X218440000Y-126619000D01*
X121920000Y-126619000D02*
X212725000Y-126619000D01*
X104140000Y-128270000D02*
X107696000Y-128270000D01*
X107696000Y-128270000D02*
X111252000Y-128270000D01*
X111252000Y-128270000D02*
X114808000Y-128270000D01*
X114808000Y-128270000D02*
X118364000Y-128270000D01*
X118364000Y-128270000D02*
X121920000Y-128270000D01*
X180340000Y-120650000D02*
X196215000Y-120650000D01*
X168148000Y-128270000D02*
X171704000Y-128270000D01*
X171704000Y-128270000D02*
X175260000Y-128270000D01*
X175260000Y-128270000D02*
X178816000Y-128270000D01*
X129032000Y-119380000D02*
X139700000Y-119380000D01*
X139700000Y-119380000D02*
X164592000Y-119380000D01*
X107696000Y-130810000D02*
X125476000Y-130810000D01*
X125476000Y-130810000D02*
X136144000Y-130810000D01*
X136144000Y-130810000D02*
X153924000Y-130810000D01*
X153924000Y-130810000D02*
X168148000Y-130810000D01*
X168148000Y-130810000D02*
X193040000Y-130810000D01*
X194945000Y-131445000D02*
X185928000Y-131445000D01*
X195072000Y-131445000D02*
X194945000Y-131445000D01*
X107696000Y-120015000D02*
X132588000Y-120015000D01*
X132588000Y-120015000D02*
X143256000Y-120015000D01*
X143256000Y-120015000D02*
X168148000Y-120015000D01*
X111252000Y-131445000D02*
X129032000Y-131445000D01*
X129032000Y-131445000D02*
X133731000Y-131445000D01*
X133731000Y-131445000D02*
X157480000Y-131445000D01*
X157480000Y-131445000D02*
X171704000Y-131445000D01*
X171704000Y-131445000D02*
X185928000Y-131445000D01*
X203835000Y-133350000D02*
X193040000Y-133350000D01*
X121920000Y-133350000D02*
X134620000Y-133350000D01*
X134620000Y-133350000D02*
X155448000Y-133350000D01*
X155448000Y-133350000D02*
X175260000Y-133350000D01*
X175260000Y-133350000D02*
X193040000Y-133350000D01*
X198755000Y-132080000D02*
X197485000Y-132080000D01*
X197485000Y-132080000D02*
X197485000Y-132207000D01*
X111252000Y-120650000D02*
X112395000Y-120650000D01*
X112395000Y-120650000D02*
X146812000Y-120650000D01*
X146812000Y-120650000D02*
X171704000Y-120650000D01*
X114808000Y-132080000D02*
X130556000Y-132080000D01*
X130556000Y-132080000D02*
X139700000Y-132080000D01*
X139700000Y-132080000D02*
X161036000Y-132080000D01*
X161036000Y-132080000D02*
X170180000Y-132080000D01*
X170180000Y-132080000D02*
X189484000Y-132080000D01*
X189484000Y-132080000D02*
X197485000Y-132080000D01*
X206375000Y-133985000D02*
X196596000Y-133985000D01*
X196596000Y-133985000D02*
X178816000Y-133985000D01*
X122809000Y-133985000D02*
X137668000Y-133985000D01*
X137668000Y-133985000D02*
X146812000Y-133985000D01*
X146812000Y-133985000D02*
X156591000Y-133985000D01*
X156591000Y-133985000D02*
X164592000Y-133985000D01*
X164592000Y-133985000D02*
X178816000Y-133985000D01*
X144440000Y-103620000D02*
X144440000Y-103972000D01*
X144440000Y-103972000D02*
X143002000Y-105410000D01*
X143002000Y-105410000D02*
X135255000Y-105410000D01*
X139040000Y-108890000D02*
X137871000Y-108890000D01*
X135255000Y-111506000D02*
X135255000Y-113030000D01*
X137871000Y-108890000D02*
X135255000Y-111506000D01*
X201270000Y-132740000D02*
X201295000Y-132715000D01*
X118745000Y-132715000D02*
X131318000Y-132715000D01*
X131318000Y-132715000D02*
X143256000Y-132715000D01*
X143256000Y-132715000D02*
X151511000Y-132715000D01*
X151511000Y-132715000D02*
X201295000Y-132715000D01*
X133350000Y-122555000D02*
X124587000Y-122555000D01*
X124587000Y-122555000D02*
X123063000Y-122555000D01*
X182245000Y-122555000D02*
X133350000Y-122555000D01*
X196596000Y-128270000D02*
X193040000Y-128270000D01*
X193040000Y-128270000D02*
X189484000Y-128270000D01*
X189484000Y-128270000D02*
X185928000Y-128270000D01*
X185928000Y-128270000D02*
X182372000Y-128270000D01*
X129032000Y-128270000D02*
X125476000Y-128270000D01*
X132588000Y-128270000D02*
X136144000Y-128270000D01*
X136144000Y-128270000D02*
X139700000Y-128270000D01*
X139700000Y-128270000D02*
X143256000Y-128270000D01*
X143256000Y-128270000D02*
X146812000Y-128270000D01*
X181356000Y-105410000D02*
X160020000Y-105410000D01*
X182720000Y-103620000D02*
X182720000Y-104046000D01*
X182720000Y-104046000D02*
X181356000Y-105410000D01*
X163805000Y-108890000D02*
X162763000Y-108890000D01*
X160020000Y-111633000D02*
X160020000Y-113030000D01*
X162763000Y-108890000D02*
X160020000Y-111633000D01*
X164592000Y-128270000D02*
X161036000Y-128270000D01*
X150368000Y-128270000D02*
X153924000Y-128270000D01*
X153924000Y-128270000D02*
X157480000Y-128270000D01*
X157480000Y-128270000D02*
X161036000Y-128270000D01*
D23*
X247904000Y-112141000D02*
X255651000Y-112141000D01*
X245745000Y-114300000D02*
X247904000Y-112141000D01*
X245745000Y-115570000D02*
X245745000Y-114300000D01*
X257175000Y-113665000D02*
X257175000Y-115570000D01*
X255651000Y-112141000D02*
X257175000Y-113665000D01*
X141900000Y-103620000D02*
X141900000Y-102575000D01*
X141900000Y-102575000D02*
X142494000Y-101981000D01*
X180180000Y-103620000D02*
X180180000Y-102522000D01*
X180180000Y-102522000D02*
X180721000Y-101981000D01*
X218460000Y-103620000D02*
X218460000Y-101981000D01*
X218460000Y-101981000D02*
X218567000Y-101981000D01*
X256740000Y-103620000D02*
X256740000Y-103578000D01*
X256740000Y-103578000D02*
X255143000Y-101981000D01*
X103620000Y-103620000D02*
X103620000Y-102755000D01*
X104394000Y-101981000D02*
X142494000Y-101981000D01*
X142494000Y-101981000D02*
X162052000Y-101981000D01*
X162052000Y-101981000D02*
X180721000Y-101981000D01*
X180721000Y-101981000D02*
X192024000Y-101981000D01*
X192024000Y-101981000D02*
X218567000Y-101981000D01*
X218567000Y-101981000D02*
X255143000Y-101981000D01*
X103620000Y-102755000D02*
X104394000Y-101981000D01*
X185293000Y-119761000D02*
X186182000Y-119761000D01*
X186182000Y-119761000D02*
X215519000Y-119761000D01*
D22*
X216789000Y-139065000D02*
X216794000Y-139060000D01*
D23*
X216794000Y-139060000D02*
X217805000Y-139060000D01*
X241630000Y-114345000D02*
X241630000Y-113975000D01*
X241630000Y-113975000D02*
X244475000Y-111130000D01*
D22*
X244475000Y-111130000D02*
X244345000Y-111130000D01*
D23*
X247015000Y-111130000D02*
X250952000Y-111130000D01*
D22*
X250952000Y-111130000D02*
X250957000Y-111130000D01*
D23*
X241130000Y-118745000D02*
X247523000Y-118745000D01*
X251036000Y-120269000D02*
X252560000Y-118745000D01*
X249047000Y-120269000D02*
X251036000Y-120269000D01*
X247523000Y-118745000D02*
X249047000Y-120269000D01*
X241130000Y-118745000D02*
X241130000Y-118829000D01*
D22*
X241130000Y-118745000D02*
X241300000Y-118745000D01*
X241130000Y-118745000D02*
X241173000Y-118745000D01*
D23*
X242179000Y-117094000D02*
X246380000Y-117094000D01*
X253911002Y-112941002D02*
X254635000Y-113665000D01*
X254635000Y-113665000D02*
X254635000Y-114970000D01*
X254635000Y-114970000D02*
X253060000Y-116545000D01*
X247479735Y-115994265D02*
X246380000Y-117094000D01*
X247479735Y-114470265D02*
X247479735Y-115994265D01*
X249008998Y-112941002D02*
X247479735Y-114470265D01*
X253149002Y-112941002D02*
X249008998Y-112941002D01*
X253149002Y-112941002D02*
X253911002Y-112941002D01*
X242179000Y-117094000D02*
X241630000Y-116545000D01*
X252560000Y-116545000D02*
X253025000Y-116545000D01*
X247650000Y-120269000D02*
X237490000Y-120269000D01*
X236728000Y-117348000D02*
X237531000Y-116545000D01*
X236728000Y-119507000D02*
X236728000Y-117348000D01*
X237490000Y-120269000D02*
X236728000Y-119507000D01*
X237531000Y-116545000D02*
X238430000Y-116545000D01*
D22*
X137287000Y-107950000D02*
X137795000Y-107442000D01*
X131707000Y-113530000D02*
X137287000Y-107950000D01*
X121030000Y-113530000D02*
X131707000Y-113530000D01*
X119675000Y-112175000D02*
X121030000Y-113530000D01*
X142992000Y-107442000D02*
X144440000Y-108890000D01*
X137795000Y-107442000D02*
X142992000Y-107442000D01*
X119675000Y-112090000D02*
X119675000Y-112175000D01*
X119675000Y-111590000D02*
X119675000Y-112182000D01*
X220640000Y-112090000D02*
X220640000Y-112227000D01*
X220640000Y-112227000D02*
X219329000Y-113538000D01*
X219329000Y-113538000D02*
X214249000Y-113538000D01*
X214249000Y-113538000D02*
X213741000Y-113030000D01*
X121666000Y-106934000D02*
X121250000Y-107315000D01*
X121666000Y-106934000D02*
X213741000Y-106934000D01*
X121250000Y-107315000D02*
X119675000Y-108890000D01*
X220640000Y-112608000D02*
X220640000Y-111590000D01*
X144440000Y-112090000D02*
X144440000Y-112182000D01*
X144440000Y-112182000D02*
X145669000Y-113411000D01*
X145669000Y-113411000D02*
X147828000Y-113411000D01*
X147828000Y-113411000D02*
X148336000Y-112903000D01*
X169205000Y-108890000D02*
X169205000Y-108880000D01*
X169205000Y-108880000D02*
X167767000Y-107442000D01*
X167767000Y-107442000D02*
X153797000Y-107442000D01*
X153797000Y-107442000D02*
X148336000Y-112903000D01*
D23*
X251270000Y-138367000D02*
X251270000Y-140130000D01*
X247777000Y-134874000D02*
X251270000Y-138367000D01*
X239776000Y-134874000D02*
X247777000Y-134874000D01*
X210058000Y-134874000D02*
X239776000Y-134874000D01*
D22*
X212979000Y-138049000D02*
X213106000Y-138049000D01*
D23*
X213106000Y-138049000D02*
X215011000Y-136144000D01*
X215011000Y-136144000D02*
X231648000Y-136144000D01*
X142680000Y-140130000D02*
X183974000Y-140130000D01*
X186055000Y-138049000D02*
X212979000Y-138049000D01*
X183974000Y-140130000D02*
X186055000Y-138049000D01*
X234696000Y-109855000D02*
X244470000Y-109855000D01*
X247015000Y-109850000D02*
X244475000Y-109850000D01*
D22*
X244475000Y-109850000D02*
X244470000Y-109855000D01*
X247015000Y-109474000D02*
X247015000Y-109850000D01*
D23*
X220345000Y-140340000D02*
X217805000Y-140340000D01*
X211430000Y-140130000D02*
X217595000Y-140130000D01*
D22*
X217595000Y-140130000D02*
X217805000Y-140340000D01*
X211455000Y-105410000D02*
X216223312Y-105410000D01*
X216223312Y-105410000D02*
X216985312Y-106172000D01*
X216985312Y-106172000D02*
X220599000Y-106172000D01*
X220599000Y-106172000D02*
X220853000Y-105918000D01*
X220853000Y-105918000D02*
X248412000Y-105918000D01*
X248412000Y-105918000D02*
X250952000Y-105918000D01*
X250952000Y-105918000D02*
X257810000Y-105918000D01*
X257810000Y-105918000D02*
X259280000Y-104448000D01*
X245110000Y-129540000D02*
X248920000Y-129540000D01*
X259280000Y-104448000D02*
X259280000Y-103620000D01*
X209296000Y-103759000D02*
X209169000Y-103759000D01*
X186690000Y-105410000D02*
X207518000Y-105410000D01*
X220345000Y-105664000D02*
X217297000Y-105664000D01*
X217297000Y-105664000D02*
X215392000Y-103759000D01*
X215392000Y-103759000D02*
X209296000Y-103759000D01*
X221000000Y-105009000D02*
X221000000Y-103620000D01*
X221000000Y-105009000D02*
X220345000Y-105664000D01*
X209169000Y-103759000D02*
X207518000Y-105410000D01*
X190475000Y-108890000D02*
X189306000Y-108890000D01*
X186690000Y-111506000D02*
X186690000Y-113030000D01*
X189306000Y-108890000D02*
X186690000Y-111506000D01*
X215240000Y-108890000D02*
X214071000Y-108890000D01*
X211455000Y-111506000D02*
X211455000Y-113030000D01*
X214071000Y-108890000D02*
X211455000Y-111506000D01*
X121920000Y-121285000D02*
X149225000Y-121285000D01*
X104140000Y-124460000D02*
X107696000Y-124460000D01*
X107696000Y-124460000D02*
X111252000Y-124460000D01*
X111252000Y-124460000D02*
X114808000Y-124460000D01*
X114808000Y-124460000D02*
X118364000Y-124460000D01*
X118364000Y-124460000D02*
X121920000Y-124460000D01*
X132715000Y-121920000D02*
X169545000Y-121920000D01*
X132588000Y-122047000D02*
X132715000Y-121920000D01*
X125476000Y-124460000D02*
X129032000Y-124460000D01*
X129032000Y-124460000D02*
X132588000Y-124460000D01*
X159131000Y-126111000D02*
X199644000Y-126111000D01*
X199644000Y-126111000D02*
X200152000Y-125603000D01*
X159131000Y-126111000D02*
X157480000Y-124460000D01*
X136144000Y-124460000D02*
X139700000Y-124460000D01*
X139700000Y-124460000D02*
X143256000Y-124460000D01*
X143256000Y-124460000D02*
X146812000Y-124460000D01*
X146812000Y-124460000D02*
X150368000Y-124460000D01*
X150368000Y-124460000D02*
X153924000Y-124460000D01*
X153924000Y-124460000D02*
X157480000Y-124460000D01*
X178816000Y-124460000D02*
X222758000Y-124460000D01*
X161036000Y-124460000D02*
X164592000Y-124460000D01*
X164592000Y-124460000D02*
X168148000Y-124460000D01*
X168148000Y-124460000D02*
X171704000Y-124460000D01*
X171704000Y-124460000D02*
X175260000Y-124460000D01*
X175260000Y-124460000D02*
X178816000Y-124460000D01*
D23*
X232923000Y-139060000D02*
X234442000Y-137541000D01*
X232923000Y-139060000D02*
X220345000Y-139060000D01*
D22*
X178943000Y-107569000D02*
X179070000Y-107442000D01*
X178435000Y-108077000D02*
X173736000Y-112776000D01*
X173101000Y-113411000D02*
X173736000Y-112776000D01*
X169672000Y-113411000D02*
X173101000Y-113411000D01*
X169205000Y-112944000D02*
X169672000Y-113411000D01*
X178943000Y-107569000D02*
X178435000Y-108077000D01*
X194691000Y-107569000D02*
X195875000Y-108753000D01*
X194564000Y-107442000D02*
X194691000Y-107569000D01*
X179070000Y-107442000D02*
X194564000Y-107442000D01*
X195875000Y-108890000D02*
X195875000Y-108753000D01*
X169205000Y-112090000D02*
X169205000Y-112944000D01*
X195875000Y-109390000D02*
X195875000Y-108880000D01*
X169205000Y-112436000D02*
X169205000Y-111590000D01*
X220640000Y-108753000D02*
X219456000Y-107569000D01*
X220640000Y-108890000D02*
X220640000Y-108753000D01*
X219456000Y-107569000D02*
X206756000Y-107569000D01*
X206756000Y-107569000D02*
X206248000Y-108077000D01*
X195875000Y-112090000D02*
X195875000Y-113198000D01*
X206248000Y-108077000D02*
X201549000Y-112776000D01*
X200660000Y-113665000D02*
X201549000Y-112776000D01*
X196342000Y-113665000D02*
X200660000Y-113665000D01*
X195875000Y-113198000D02*
X196342000Y-113665000D01*
X220640000Y-109390000D02*
X220640000Y-108880000D01*
X220640000Y-109390000D02*
X220640000Y-108753000D01*
D24*
G36*
X260988338Y-100821046D02*
X261402333Y-101097669D01*
X261678953Y-101511660D01*
X261790000Y-102069931D01*
X261790000Y-141680069D01*
X261678953Y-142238340D01*
X261402333Y-142652331D01*
X260988338Y-142928954D01*
X260430069Y-143040000D01*
X102070051Y-143040000D01*
X101511780Y-142928953D01*
X101097789Y-142652333D01*
X100821166Y-142238338D01*
X100710000Y-141679466D01*
X100710000Y-140415750D01*
X118335000Y-140415750D01*
X118335000Y-141106309D01*
X118431673Y-141339698D01*
X118610301Y-141518327D01*
X118843690Y-141615000D01*
X119534250Y-141615000D01*
X119693000Y-141456250D01*
X119693000Y-140257000D01*
X118493750Y-140257000D01*
X118335000Y-140415750D01*
X100710000Y-140415750D01*
X100710000Y-139153691D01*
X118335000Y-139153691D01*
X118335000Y-139844250D01*
X118493750Y-140003000D01*
X119693000Y-140003000D01*
X119693000Y-138803750D01*
X119947000Y-138803750D01*
X119947000Y-140003000D01*
X119967000Y-140003000D01*
X119967000Y-140257000D01*
X119947000Y-140257000D01*
X119947000Y-141456250D01*
X120105750Y-141615000D01*
X120796310Y-141615000D01*
X121029699Y-141518327D01*
X121208327Y-141339698D01*
X121280597Y-141165223D01*
X121309946Y-141209147D01*
X121791715Y-141531054D01*
X122360000Y-141644093D01*
X122928285Y-141531054D01*
X123410054Y-141209147D01*
X123630000Y-140879974D01*
X123849946Y-141209147D01*
X124331715Y-141531054D01*
X124900000Y-141644093D01*
X125468285Y-141531054D01*
X125950054Y-141209147D01*
X126170000Y-140879974D01*
X126389946Y-141209147D01*
X126871715Y-141531054D01*
X127440000Y-141644093D01*
X128008285Y-141531054D01*
X128490054Y-141209147D01*
X128710000Y-140879974D01*
X128929946Y-141209147D01*
X129411715Y-141531054D01*
X129980000Y-141644093D01*
X130548285Y-141531054D01*
X131030054Y-141209147D01*
X131250000Y-140879974D01*
X131469946Y-141209147D01*
X131951715Y-141531054D01*
X132520000Y-141644093D01*
X133088285Y-141531054D01*
X133570054Y-141209147D01*
X133790000Y-140879974D01*
X134009946Y-141209147D01*
X134491715Y-141531054D01*
X135060000Y-141644093D01*
X135628285Y-141531054D01*
X136110054Y-141209147D01*
X136330000Y-140879974D01*
X136549946Y-141209147D01*
X137031715Y-141531054D01*
X137600000Y-141644093D01*
X138168285Y-141531054D01*
X138650054Y-141209147D01*
X138877702Y-140868447D01*
X138944817Y-141011358D01*
X139373076Y-141401645D01*
X139783110Y-141571476D01*
X140013000Y-141450155D01*
X140013000Y-140257000D01*
X139993000Y-140257000D01*
X139993000Y-140003000D01*
X140013000Y-140003000D01*
X140013000Y-138809845D01*
X139783110Y-138688524D01*
X139373076Y-138858355D01*
X138944817Y-139248642D01*
X138877702Y-139391553D01*
X138650054Y-139050853D01*
X138168285Y-138728946D01*
X137600000Y-138615907D01*
X137031715Y-138728946D01*
X136549946Y-139050853D01*
X136330000Y-139380026D01*
X136110054Y-139050853D01*
X135628285Y-138728946D01*
X135060000Y-138615907D01*
X134491715Y-138728946D01*
X134009946Y-139050853D01*
X133790000Y-139380026D01*
X133570054Y-139050853D01*
X133088285Y-138728946D01*
X132520000Y-138615907D01*
X131951715Y-138728946D01*
X131469946Y-139050853D01*
X131250000Y-139380026D01*
X131030054Y-139050853D01*
X130548285Y-138728946D01*
X129980000Y-138615907D01*
X129411715Y-138728946D01*
X128929946Y-139050853D01*
X128710000Y-139380026D01*
X128490054Y-139050853D01*
X128008285Y-138728946D01*
X127440000Y-138615907D01*
X126871715Y-138728946D01*
X126389946Y-139050853D01*
X126170000Y-139380026D01*
X125950054Y-139050853D01*
X125468285Y-138728946D01*
X124900000Y-138615907D01*
X124331715Y-138728946D01*
X123849946Y-139050853D01*
X123630000Y-139380026D01*
X123410054Y-139050853D01*
X122928285Y-138728946D01*
X122360000Y-138615907D01*
X121791715Y-138728946D01*
X121309946Y-139050853D01*
X121280597Y-139094777D01*
X121208327Y-138920302D01*
X121029699Y-138741673D01*
X120796310Y-138645000D01*
X120105750Y-138645000D01*
X119947000Y-138803750D01*
X119693000Y-138803750D01*
X119534250Y-138645000D01*
X118843690Y-138645000D01*
X118610301Y-138741673D01*
X118431673Y-138920302D01*
X118335000Y-139153691D01*
X100710000Y-139153691D01*
X100710000Y-135856009D01*
X102405000Y-135856009D01*
X102405000Y-135923991D01*
X102537069Y-136587947D01*
X102913170Y-137150821D01*
X103476044Y-137526922D01*
X104140000Y-137658991D01*
X104803956Y-137526922D01*
X105366830Y-137150821D01*
X105742931Y-136587947D01*
X105875000Y-135923991D01*
X105875000Y-135856009D01*
X105961000Y-135856009D01*
X105961000Y-135923991D01*
X106093069Y-136587947D01*
X106469170Y-137150821D01*
X107032044Y-137526922D01*
X107696000Y-137658991D01*
X108359956Y-137526922D01*
X108922830Y-137150821D01*
X109298931Y-136587947D01*
X109431000Y-135923991D01*
X109431000Y-135856009D01*
X109517000Y-135856009D01*
X109517000Y-135923991D01*
X109649069Y-136587947D01*
X110025170Y-137150821D01*
X110588044Y-137526922D01*
X111252000Y-137658991D01*
X111915956Y-137526922D01*
X112478830Y-137150821D01*
X112854931Y-136587947D01*
X112987000Y-135923991D01*
X112987000Y-135856009D01*
X113073000Y-135856009D01*
X113073000Y-135923991D01*
X113205069Y-136587947D01*
X113581170Y-137150821D01*
X114144044Y-137526922D01*
X114808000Y-137658991D01*
X115471956Y-137526922D01*
X116034830Y-137150821D01*
X116410931Y-136587947D01*
X116543000Y-135923991D01*
X116543000Y-135856009D01*
X116629000Y-135856009D01*
X116629000Y-135923991D01*
X116761069Y-136587947D01*
X117137170Y-137150821D01*
X117700044Y-137526922D01*
X118364000Y-137658991D01*
X119027956Y-137526922D01*
X119590830Y-137150821D01*
X119966931Y-136587947D01*
X120099000Y-135923991D01*
X120099000Y-135856009D01*
X119966931Y-135192053D01*
X119590830Y-134629179D01*
X119027956Y-134253078D01*
X118364000Y-134121009D01*
X117700044Y-134253078D01*
X117137170Y-134629179D01*
X116761069Y-135192053D01*
X116629000Y-135856009D01*
X116543000Y-135856009D01*
X116410931Y-135192053D01*
X116034830Y-134629179D01*
X115471956Y-134253078D01*
X114808000Y-134121009D01*
X114144044Y-134253078D01*
X113581170Y-134629179D01*
X113205069Y-135192053D01*
X113073000Y-135856009D01*
X112987000Y-135856009D01*
X112854931Y-135192053D01*
X112478830Y-134629179D01*
X111915956Y-134253078D01*
X111252000Y-134121009D01*
X110588044Y-134253078D01*
X110025170Y-134629179D01*
X109649069Y-135192053D01*
X109517000Y-135856009D01*
X109431000Y-135856009D01*
X109298931Y-135192053D01*
X108922830Y-134629179D01*
X108359956Y-134253078D01*
X107696000Y-134121009D01*
X107032044Y-134253078D01*
X106469170Y-134629179D01*
X106093069Y-135192053D01*
X105961000Y-135856009D01*
X105875000Y-135856009D01*
X105742931Y-135192053D01*
X105366830Y-134629179D01*
X104803956Y-134253078D01*
X104140000Y-134121009D01*
X103476044Y-134253078D01*
X102913170Y-134629179D01*
X102537069Y-135192053D01*
X102405000Y-135856009D01*
X100710000Y-135856009D01*
X100710000Y-123360000D01*
X102392560Y-123360000D01*
X102392560Y-125560000D01*
X102436838Y-125795317D01*
X102575910Y-126011441D01*
X102788110Y-126156431D01*
X103040000Y-126207440D01*
X105240000Y-126207440D01*
X105475317Y-126163162D01*
X105691441Y-126024090D01*
X105836431Y-125811890D01*
X105887440Y-125560000D01*
X105887440Y-125195000D01*
X105948560Y-125195000D01*
X105948560Y-125560000D01*
X105992838Y-125795317D01*
X106131910Y-126011441D01*
X106344110Y-126156431D01*
X106596000Y-126207440D01*
X108796000Y-126207440D01*
X109031317Y-126163162D01*
X109247441Y-126024090D01*
X109392431Y-125811890D01*
X109443440Y-125560000D01*
X109443440Y-125195000D01*
X109504560Y-125195000D01*
X109504560Y-125560000D01*
X109548838Y-125795317D01*
X109687910Y-126011441D01*
X109900110Y-126156431D01*
X110152000Y-126207440D01*
X112352000Y-126207440D01*
X112587317Y-126163162D01*
X112803441Y-126024090D01*
X112948431Y-125811890D01*
X112999440Y-125560000D01*
X112999440Y-125195000D01*
X113060560Y-125195000D01*
X113060560Y-125560000D01*
X113104838Y-125795317D01*
X113243910Y-126011441D01*
X113456110Y-126156431D01*
X113708000Y-126207440D01*
X115908000Y-126207440D01*
X116143317Y-126163162D01*
X116359441Y-126024090D01*
X116504431Y-125811890D01*
X116555440Y-125560000D01*
X116555440Y-125195000D01*
X116616560Y-125195000D01*
X116616560Y-125560000D01*
X116660838Y-125795317D01*
X116799910Y-126011441D01*
X117012110Y-126156431D01*
X117264000Y-126207440D01*
X119464000Y-126207440D01*
X119699317Y-126163162D01*
X119915441Y-126024090D01*
X120060431Y-125811890D01*
X120111440Y-125560000D01*
X120111440Y-125195000D01*
X120172560Y-125195000D01*
X120172560Y-125560000D01*
X120216838Y-125795317D01*
X120355910Y-126011441D01*
X120568110Y-126156431D01*
X120820000Y-126207440D01*
X121328005Y-126207440D01*
X121240949Y-126337728D01*
X121204183Y-126522560D01*
X120820000Y-126522560D01*
X120584683Y-126566838D01*
X120368559Y-126705910D01*
X120223569Y-126918110D01*
X120172560Y-127170000D01*
X120172560Y-127535000D01*
X120111440Y-127535000D01*
X120111440Y-127170000D01*
X120067162Y-126934683D01*
X119928090Y-126718559D01*
X119715890Y-126573569D01*
X119464000Y-126522560D01*
X117264000Y-126522560D01*
X117028683Y-126566838D01*
X116812559Y-126705910D01*
X116667569Y-126918110D01*
X116616560Y-127170000D01*
X116616560Y-127535000D01*
X116555440Y-127535000D01*
X116555440Y-127170000D01*
X116511162Y-126934683D01*
X116372090Y-126718559D01*
X116159890Y-126573569D01*
X115908000Y-126522560D01*
X113708000Y-126522560D01*
X113472683Y-126566838D01*
X113256559Y-126705910D01*
X113111569Y-126918110D01*
X113060560Y-127170000D01*
X113060560Y-127535000D01*
X112999440Y-127535000D01*
X112999440Y-127170000D01*
X112955162Y-126934683D01*
X112816090Y-126718559D01*
X112603890Y-126573569D01*
X112352000Y-126522560D01*
X110152000Y-126522560D01*
X109916683Y-126566838D01*
X109700559Y-126705910D01*
X109555569Y-126918110D01*
X109504560Y-127170000D01*
X109504560Y-127535000D01*
X109443440Y-127535000D01*
X109443440Y-127170000D01*
X109399162Y-126934683D01*
X109260090Y-126718559D01*
X109047890Y-126573569D01*
X108796000Y-126522560D01*
X106596000Y-126522560D01*
X106360683Y-126566838D01*
X106144559Y-126705910D01*
X105999569Y-126918110D01*
X105948560Y-127170000D01*
X105948560Y-127535000D01*
X105887440Y-127535000D01*
X105887440Y-127170000D01*
X105843162Y-126934683D01*
X105704090Y-126718559D01*
X105491890Y-126573569D01*
X105240000Y-126522560D01*
X103040000Y-126522560D01*
X102804683Y-126566838D01*
X102588559Y-126705910D01*
X102443569Y-126918110D01*
X102392560Y-127170000D01*
X102392560Y-129370000D01*
X102436838Y-129605317D01*
X102575910Y-129821441D01*
X102788110Y-129966431D01*
X103040000Y-130017440D01*
X103205137Y-130017440D01*
X103204838Y-130360167D01*
X103346883Y-130703943D01*
X103609673Y-130967192D01*
X103953201Y-131109838D01*
X104325167Y-131110162D01*
X104668943Y-130968117D01*
X104727162Y-130910000D01*
X106760912Y-130910000D01*
X106760838Y-130995167D01*
X106902883Y-131338943D01*
X107165673Y-131602192D01*
X107509201Y-131744838D01*
X107881167Y-131745162D01*
X108224943Y-131603117D01*
X108283162Y-131545000D01*
X110316912Y-131545000D01*
X110316838Y-131630167D01*
X110458883Y-131973943D01*
X110721673Y-132237192D01*
X111065201Y-132379838D01*
X111437167Y-132380162D01*
X111780943Y-132238117D01*
X111839162Y-132180000D01*
X113872912Y-132180000D01*
X113872838Y-132265167D01*
X114014883Y-132608943D01*
X114277673Y-132872192D01*
X114621201Y-133014838D01*
X114993167Y-133015162D01*
X115336943Y-132873117D01*
X115395162Y-132815000D01*
X117809912Y-132815000D01*
X117809838Y-132900167D01*
X117951883Y-133243943D01*
X118214673Y-133507192D01*
X118558201Y-133649838D01*
X118930167Y-133650162D01*
X119273943Y-133508117D01*
X119332162Y-133450000D01*
X120984912Y-133450000D01*
X120984838Y-133535167D01*
X121126883Y-133878943D01*
X121389673Y-134142192D01*
X121526945Y-134199193D01*
X121256044Y-134253078D01*
X120693170Y-134629179D01*
X120317069Y-135192053D01*
X120185000Y-135856009D01*
X120185000Y-135923991D01*
X120317069Y-136587947D01*
X120693170Y-137150821D01*
X121256044Y-137526922D01*
X121920000Y-137658991D01*
X122583956Y-137526922D01*
X123146830Y-137150821D01*
X123522931Y-136587947D01*
X123655000Y-135923991D01*
X123655000Y-135856009D01*
X123522931Y-135192053D01*
X123266164Y-134807775D01*
X123337943Y-134778117D01*
X123396162Y-134720000D01*
X124188485Y-134720000D01*
X123873069Y-135192053D01*
X123741000Y-135856009D01*
X123741000Y-135923991D01*
X123873069Y-136587947D01*
X124249170Y-137150821D01*
X124812044Y-137526922D01*
X125476000Y-137658991D01*
X126139956Y-137526922D01*
X126702830Y-137150821D01*
X127078931Y-136587947D01*
X127211000Y-135923991D01*
X127211000Y-135856009D01*
X127078931Y-135192053D01*
X126763515Y-134720000D01*
X127744485Y-134720000D01*
X127429069Y-135192053D01*
X127297000Y-135856009D01*
X127297000Y-135923991D01*
X127429069Y-136587947D01*
X127805170Y-137150821D01*
X128368044Y-137526922D01*
X129032000Y-137658991D01*
X129695956Y-137526922D01*
X130258830Y-137150821D01*
X130634931Y-136587947D01*
X130767000Y-135923991D01*
X130767000Y-135856009D01*
X130634931Y-135192053D01*
X130319515Y-134720000D01*
X131300485Y-134720000D01*
X130985069Y-135192053D01*
X130853000Y-135856009D01*
X130853000Y-135923991D01*
X130985069Y-136587947D01*
X131361170Y-137150821D01*
X131924044Y-137526922D01*
X132588000Y-137658991D01*
X133251956Y-137526922D01*
X133814830Y-137150821D01*
X134190931Y-136587947D01*
X134323000Y-135923991D01*
X134323000Y-135856009D01*
X134190931Y-135192053D01*
X133875515Y-134720000D01*
X134856485Y-134720000D01*
X134541069Y-135192053D01*
X134409000Y-135856009D01*
X134409000Y-135923991D01*
X134541069Y-136587947D01*
X134917170Y-137150821D01*
X135480044Y-137526922D01*
X136144000Y-137658991D01*
X136807956Y-137526922D01*
X137370830Y-137150821D01*
X137746931Y-136587947D01*
X137879000Y-135923991D01*
X137879000Y-135856009D01*
X137746931Y-135192053D01*
X137565091Y-134919911D01*
X137853167Y-134920162D01*
X138196943Y-134778117D01*
X138255162Y-134720000D01*
X138412485Y-134720000D01*
X138097069Y-135192053D01*
X137965000Y-135856009D01*
X137965000Y-135923991D01*
X138097069Y-136587947D01*
X138473170Y-137150821D01*
X139036044Y-137526922D01*
X139700000Y-137658991D01*
X140363956Y-137526922D01*
X140926830Y-137150821D01*
X141302931Y-136587947D01*
X141435000Y-135923991D01*
X141435000Y-135856009D01*
X141302931Y-135192053D01*
X140987515Y-134720000D01*
X141968485Y-134720000D01*
X141653069Y-135192053D01*
X141521000Y-135856009D01*
X141521000Y-135923991D01*
X141653069Y-136587947D01*
X142029170Y-137150821D01*
X142592044Y-137526922D01*
X143256000Y-137658991D01*
X143919956Y-137526922D01*
X144482830Y-137150821D01*
X144858931Y-136587947D01*
X144991000Y-135923991D01*
X144991000Y-135856009D01*
X144858931Y-135192053D01*
X144543515Y-134720000D01*
X145524485Y-134720000D01*
X145209069Y-135192053D01*
X145077000Y-135856009D01*
X145077000Y-135923991D01*
X145209069Y-136587947D01*
X145585170Y-137150821D01*
X146148044Y-137526922D01*
X146812000Y-137658991D01*
X147475956Y-137526922D01*
X148038830Y-137150821D01*
X148414931Y-136587947D01*
X148547000Y-135923991D01*
X148547000Y-135856009D01*
X148414931Y-135192053D01*
X148099515Y-134720000D01*
X149080485Y-134720000D01*
X148765069Y-135192053D01*
X148633000Y-135856009D01*
X148633000Y-135923991D01*
X148765069Y-136587947D01*
X149141170Y-137150821D01*
X149704044Y-137526922D01*
X150368000Y-137658991D01*
X151031956Y-137526922D01*
X151594830Y-137150821D01*
X151970931Y-136587947D01*
X152103000Y-135923991D01*
X152103000Y-135856009D01*
X151970931Y-135192053D01*
X151655515Y-134720000D01*
X152636485Y-134720000D01*
X152321069Y-135192053D01*
X152189000Y-135856009D01*
X152189000Y-135923991D01*
X152321069Y-136587947D01*
X152697170Y-137150821D01*
X153260044Y-137526922D01*
X153924000Y-137658991D01*
X154587956Y-137526922D01*
X155150830Y-137150821D01*
X155526931Y-136587947D01*
X155659000Y-135923991D01*
X155659000Y-135856009D01*
X155526931Y-135192053D01*
X155211515Y-134720000D01*
X156003581Y-134720000D01*
X156060673Y-134777192D01*
X156133942Y-134807616D01*
X155877069Y-135192053D01*
X155745000Y-135856009D01*
X155745000Y-135923991D01*
X155877069Y-136587947D01*
X156253170Y-137150821D01*
X156816044Y-137526922D01*
X157480000Y-137658991D01*
X158143956Y-137526922D01*
X158706830Y-137150821D01*
X159082931Y-136587947D01*
X159215000Y-135923991D01*
X159215000Y-135856009D01*
X159082931Y-135192053D01*
X158767515Y-134720000D01*
X159748485Y-134720000D01*
X159433069Y-135192053D01*
X159301000Y-135856009D01*
X159301000Y-135923991D01*
X159433069Y-136587947D01*
X159809170Y-137150821D01*
X160372044Y-137526922D01*
X161036000Y-137658991D01*
X161699956Y-137526922D01*
X162262830Y-137150821D01*
X162638931Y-136587947D01*
X162771000Y-135923991D01*
X162771000Y-135856009D01*
X162638931Y-135192053D01*
X162323515Y-134720000D01*
X163304485Y-134720000D01*
X162989069Y-135192053D01*
X162857000Y-135856009D01*
X162857000Y-135923991D01*
X162989069Y-136587947D01*
X163365170Y-137150821D01*
X163928044Y-137526922D01*
X164592000Y-137658991D01*
X165255956Y-137526922D01*
X165818830Y-137150821D01*
X166194931Y-136587947D01*
X166327000Y-135923991D01*
X166327000Y-135856009D01*
X166194931Y-135192053D01*
X165879515Y-134720000D01*
X166860485Y-134720000D01*
X166545069Y-135192053D01*
X166413000Y-135856009D01*
X166413000Y-135923991D01*
X166545069Y-136587947D01*
X166921170Y-137150821D01*
X167484044Y-137526922D01*
X168148000Y-137658991D01*
X168811956Y-137526922D01*
X169374830Y-137150821D01*
X169750931Y-136587947D01*
X169883000Y-135923991D01*
X169883000Y-135856009D01*
X169750931Y-135192053D01*
X169435515Y-134720000D01*
X170416485Y-134720000D01*
X170101069Y-135192053D01*
X169969000Y-135856009D01*
X169969000Y-135923991D01*
X170101069Y-136587947D01*
X170477170Y-137150821D01*
X171040044Y-137526922D01*
X171704000Y-137658991D01*
X172367956Y-137526922D01*
X172930830Y-137150821D01*
X173306931Y-136587947D01*
X173439000Y-135923991D01*
X173439000Y-135856009D01*
X173306931Y-135192053D01*
X172991515Y-134720000D01*
X173972485Y-134720000D01*
X173657069Y-135192053D01*
X173525000Y-135856009D01*
X173525000Y-135923991D01*
X173657069Y-136587947D01*
X174033170Y-137150821D01*
X174596044Y-137526922D01*
X175260000Y-137658991D01*
X175923956Y-137526922D01*
X176486830Y-137150821D01*
X176862931Y-136587947D01*
X176995000Y-135923991D01*
X176995000Y-135856009D01*
X176862931Y-135192053D01*
X176547515Y-134720000D01*
X177528485Y-134720000D01*
X177213069Y-135192053D01*
X177081000Y-135856009D01*
X177081000Y-135923991D01*
X177213069Y-136587947D01*
X177589170Y-137150821D01*
X178152044Y-137526922D01*
X178816000Y-137658991D01*
X179479956Y-137526922D01*
X180042830Y-137150821D01*
X180418931Y-136587947D01*
X180551000Y-135923991D01*
X180551000Y-135856009D01*
X180418931Y-135192053D01*
X180103515Y-134720000D01*
X181084485Y-134720000D01*
X180769069Y-135192053D01*
X180637000Y-135856009D01*
X180637000Y-135923991D01*
X180769069Y-136587947D01*
X181145170Y-137150821D01*
X181708044Y-137526922D01*
X182372000Y-137658991D01*
X183035956Y-137526922D01*
X183598830Y-137150821D01*
X183974931Y-136587947D01*
X184107000Y-135923991D01*
X184107000Y-135856009D01*
X183974931Y-135192053D01*
X183659515Y-134720000D01*
X184640485Y-134720000D01*
X184325069Y-135192053D01*
X184193000Y-135856009D01*
X184193000Y-135923991D01*
X184325069Y-136587947D01*
X184701170Y-137150821D01*
X185258495Y-137523215D01*
X183586710Y-139195000D01*
X143826370Y-139195000D01*
X143730054Y-139050853D01*
X143248285Y-138728946D01*
X142680000Y-138615907D01*
X142111715Y-138728946D01*
X141629946Y-139050853D01*
X141402298Y-139391553D01*
X141335183Y-139248642D01*
X140906924Y-138858355D01*
X140496890Y-138688524D01*
X140267000Y-138809845D01*
X140267000Y-140003000D01*
X140287000Y-140003000D01*
X140287000Y-140257000D01*
X140267000Y-140257000D01*
X140267000Y-141450155D01*
X140496890Y-141571476D01*
X140906924Y-141401645D01*
X141335183Y-141011358D01*
X141402298Y-140868447D01*
X141629946Y-141209147D01*
X142111715Y-141531054D01*
X142680000Y-141644093D01*
X143248285Y-141531054D01*
X143730054Y-141209147D01*
X143826370Y-141065000D01*
X183974000Y-141065000D01*
X184331809Y-140993827D01*
X184635145Y-140791145D01*
X185010540Y-140415750D01*
X187085000Y-140415750D01*
X187085000Y-141106309D01*
X187181673Y-141339698D01*
X187360301Y-141518327D01*
X187593690Y-141615000D01*
X188284250Y-141615000D01*
X188443000Y-141456250D01*
X188443000Y-140257000D01*
X187243750Y-140257000D01*
X187085000Y-140415750D01*
X185010540Y-140415750D01*
X186442290Y-138984000D01*
X187155288Y-138984000D01*
X187085000Y-139153691D01*
X187085000Y-139844250D01*
X187243750Y-140003000D01*
X188443000Y-140003000D01*
X188443000Y-139983000D01*
X188697000Y-139983000D01*
X188697000Y-140003000D01*
X188717000Y-140003000D01*
X188717000Y-140257000D01*
X188697000Y-140257000D01*
X188697000Y-141456250D01*
X188855750Y-141615000D01*
X189546310Y-141615000D01*
X189779699Y-141518327D01*
X189958327Y-141339698D01*
X190030597Y-141165223D01*
X190059946Y-141209147D01*
X190541715Y-141531054D01*
X191110000Y-141644093D01*
X191678285Y-141531054D01*
X192160054Y-141209147D01*
X192380000Y-140879974D01*
X192599946Y-141209147D01*
X193081715Y-141531054D01*
X193650000Y-141644093D01*
X194218285Y-141531054D01*
X194700054Y-141209147D01*
X194920000Y-140879974D01*
X195139946Y-141209147D01*
X195621715Y-141531054D01*
X196190000Y-141644093D01*
X196758285Y-141531054D01*
X197240054Y-141209147D01*
X197460000Y-140879974D01*
X197679946Y-141209147D01*
X198161715Y-141531054D01*
X198730000Y-141644093D01*
X199298285Y-141531054D01*
X199780054Y-141209147D01*
X200000000Y-140879974D01*
X200219946Y-141209147D01*
X200701715Y-141531054D01*
X201270000Y-141644093D01*
X201838285Y-141531054D01*
X202320054Y-141209147D01*
X202540000Y-140879974D01*
X202759946Y-141209147D01*
X203241715Y-141531054D01*
X203810000Y-141644093D01*
X204378285Y-141531054D01*
X204860054Y-141209147D01*
X205080000Y-140879974D01*
X205299946Y-141209147D01*
X205781715Y-141531054D01*
X206350000Y-141644093D01*
X206918285Y-141531054D01*
X207400054Y-141209147D01*
X207627702Y-140868447D01*
X207694817Y-141011358D01*
X208123076Y-141401645D01*
X208533110Y-141571476D01*
X208763000Y-141450155D01*
X208763000Y-140257000D01*
X208743000Y-140257000D01*
X208743000Y-140003000D01*
X208763000Y-140003000D01*
X208763000Y-139983000D01*
X209017000Y-139983000D01*
X209017000Y-140003000D01*
X209037000Y-140003000D01*
X209037000Y-140257000D01*
X209017000Y-140257000D01*
X209017000Y-141450155D01*
X209246890Y-141571476D01*
X209656924Y-141401645D01*
X210085183Y-141011358D01*
X210152298Y-140868447D01*
X210379946Y-141209147D01*
X210861715Y-141531054D01*
X211430000Y-141644093D01*
X211998285Y-141531054D01*
X212480054Y-141209147D01*
X212576370Y-141065000D01*
X216569851Y-141065000D01*
X216705910Y-141276441D01*
X216918110Y-141421431D01*
X217170000Y-141472440D01*
X218440000Y-141472440D01*
X218675317Y-141428162D01*
X218891441Y-141289090D01*
X218901068Y-141275000D01*
X219244983Y-141275000D01*
X219245910Y-141276441D01*
X219458110Y-141421431D01*
X219710000Y-141472440D01*
X220980000Y-141472440D01*
X221215317Y-141428162D01*
X221431441Y-141289090D01*
X221576431Y-141076890D01*
X221627440Y-140825000D01*
X221627440Y-139995000D01*
X232923000Y-139995000D01*
X233280809Y-139923827D01*
X233584145Y-139721145D01*
X235102854Y-138202436D01*
X235234192Y-138071327D01*
X235376838Y-137727799D01*
X235377162Y-137355833D01*
X235235117Y-137012057D01*
X234972327Y-136748808D01*
X234628799Y-136606162D01*
X234256833Y-136605838D01*
X233913057Y-136747883D01*
X233649808Y-137010673D01*
X233649645Y-137011065D01*
X232535710Y-138125000D01*
X221445017Y-138125000D01*
X221444090Y-138123559D01*
X221231890Y-137978569D01*
X220980000Y-137927560D01*
X219710000Y-137927560D01*
X219474683Y-137971838D01*
X219258559Y-138110910D01*
X219113569Y-138323110D01*
X219075457Y-138511314D01*
X219043162Y-138339683D01*
X218904090Y-138123559D01*
X218691890Y-137978569D01*
X218440000Y-137927560D01*
X217170000Y-137927560D01*
X216934683Y-137971838D01*
X216718559Y-138110910D01*
X216705566Y-138129927D01*
X216603833Y-138129838D01*
X216449879Y-138193450D01*
X216436191Y-138196173D01*
X216424688Y-138203859D01*
X216260057Y-138271883D01*
X216132880Y-138398838D01*
X216132855Y-138398855D01*
X216132839Y-138398880D01*
X215996808Y-138534673D01*
X215854162Y-138878201D01*
X215853886Y-139195000D01*
X212576370Y-139195000D01*
X212480054Y-139050853D01*
X212380001Y-138984000D01*
X212979000Y-138984000D01*
X213042500Y-138971369D01*
X213106000Y-138984000D01*
X213463809Y-138912827D01*
X213767145Y-138710145D01*
X215398290Y-137079000D01*
X231647184Y-137079000D01*
X231833167Y-137079162D01*
X232176943Y-136937117D01*
X232440192Y-136674327D01*
X232582838Y-136330799D01*
X232583162Y-135958833D01*
X232521252Y-135809000D01*
X247389710Y-135809000D01*
X250335000Y-138754290D01*
X250335000Y-138973977D01*
X250219946Y-139050853D01*
X250192150Y-139092452D01*
X250183162Y-139044683D01*
X250044090Y-138828559D01*
X249831890Y-138683569D01*
X249580000Y-138632560D01*
X247880000Y-138632560D01*
X247644683Y-138676838D01*
X247428559Y-138815910D01*
X247283569Y-139028110D01*
X247232560Y-139280000D01*
X247232560Y-140980000D01*
X247276838Y-141215317D01*
X247415910Y-141431441D01*
X247628110Y-141576431D01*
X247880000Y-141627440D01*
X249580000Y-141627440D01*
X249815317Y-141583162D01*
X250031441Y-141444090D01*
X250176431Y-141231890D01*
X250190086Y-141164459D01*
X250219946Y-141209147D01*
X250701715Y-141531054D01*
X251270000Y-141644093D01*
X251838285Y-141531054D01*
X252320054Y-141209147D01*
X252641961Y-140727378D01*
X252755000Y-140159093D01*
X252755000Y-140100907D01*
X252641961Y-139532622D01*
X252320054Y-139050853D01*
X252205000Y-138973977D01*
X252205000Y-138367000D01*
X252133827Y-138009191D01*
X251931145Y-137705855D01*
X248438145Y-134212855D01*
X248134809Y-134010173D01*
X247777000Y-133939000D01*
X210058816Y-133939000D01*
X209872833Y-133938838D01*
X209529057Y-134080883D01*
X209265808Y-134343673D01*
X209123162Y-134687201D01*
X209122838Y-135059167D01*
X209264883Y-135402943D01*
X209527673Y-135666192D01*
X209871201Y-135808838D01*
X210243167Y-135809162D01*
X210243559Y-135809000D01*
X214023710Y-135809000D01*
X212718710Y-137114000D01*
X197847433Y-137114000D01*
X198198931Y-136587947D01*
X198331000Y-135923991D01*
X198331000Y-135856009D01*
X198198931Y-135192053D01*
X197883515Y-134720000D01*
X205787581Y-134720000D01*
X205844673Y-134777192D01*
X206188201Y-134919838D01*
X206560167Y-134920162D01*
X206903943Y-134778117D01*
X207167192Y-134515327D01*
X207309838Y-134171799D01*
X207310162Y-133799833D01*
X207168117Y-133456057D01*
X206905327Y-133192808D01*
X206561799Y-133050162D01*
X206189833Y-133049838D01*
X205846057Y-133191883D01*
X205787838Y-133250000D01*
X204770088Y-133250000D01*
X204770162Y-133164833D01*
X204628117Y-132821057D01*
X204365327Y-132557808D01*
X204021799Y-132415162D01*
X203649833Y-132414838D01*
X203306057Y-132556883D01*
X203247838Y-132615000D01*
X202205110Y-132615000D01*
X202205162Y-132554833D01*
X202063117Y-132211057D01*
X201800327Y-131947808D01*
X201456799Y-131805162D01*
X201084833Y-131804838D01*
X200741057Y-131946883D01*
X200707882Y-131980000D01*
X199690088Y-131980000D01*
X199690162Y-131894833D01*
X199548117Y-131551057D01*
X199285327Y-131287808D01*
X198941799Y-131145162D01*
X198569833Y-131144838D01*
X198226057Y-131286883D01*
X198167838Y-131345000D01*
X196007088Y-131345000D01*
X196007162Y-131259833D01*
X195865117Y-130916057D01*
X195602327Y-130652808D01*
X195258799Y-130510162D01*
X194886833Y-130509838D01*
X194543057Y-130651883D01*
X194484838Y-130710000D01*
X193975088Y-130710000D01*
X193975162Y-130624833D01*
X193833117Y-130281057D01*
X193570327Y-130017808D01*
X193569441Y-130017440D01*
X194140000Y-130017440D01*
X194375317Y-129973162D01*
X194591441Y-129834090D01*
X194736431Y-129621890D01*
X194787440Y-129370000D01*
X194787440Y-129005000D01*
X194848560Y-129005000D01*
X194848560Y-129370000D01*
X194892838Y-129605317D01*
X195031910Y-129821441D01*
X195244110Y-129966431D01*
X195496000Y-130017440D01*
X197696000Y-130017440D01*
X197931317Y-129973162D01*
X198147441Y-129834090D01*
X198292431Y-129621890D01*
X198309014Y-129540000D01*
X235721009Y-129540000D01*
X235853078Y-130203956D01*
X236229179Y-130766830D01*
X236792053Y-131142931D01*
X237456009Y-131275000D01*
X237523991Y-131275000D01*
X238187947Y-131142931D01*
X238750821Y-130766830D01*
X239126922Y-130203956D01*
X239258991Y-129540000D01*
X239126922Y-128876044D01*
X238835567Y-128440000D01*
X243362560Y-128440000D01*
X243362560Y-130640000D01*
X243406838Y-130875317D01*
X243545910Y-131091441D01*
X243758110Y-131236431D01*
X244010000Y-131287440D01*
X246210000Y-131287440D01*
X246445317Y-131243162D01*
X246661441Y-131104090D01*
X246806431Y-130891890D01*
X246857440Y-130640000D01*
X246857440Y-130275000D01*
X247172560Y-130275000D01*
X247172560Y-130640000D01*
X247216838Y-130875317D01*
X247355910Y-131091441D01*
X247568110Y-131236431D01*
X247820000Y-131287440D01*
X250020000Y-131287440D01*
X250255317Y-131243162D01*
X250471441Y-131104090D01*
X250616431Y-130891890D01*
X250667440Y-130640000D01*
X250667440Y-129540000D01*
X254771009Y-129540000D01*
X254903078Y-130203956D01*
X255279179Y-130766830D01*
X255842053Y-131142931D01*
X256506009Y-131275000D01*
X256573991Y-131275000D01*
X257237947Y-131142931D01*
X257800821Y-130766830D01*
X258176922Y-130203956D01*
X258308991Y-129540000D01*
X258176922Y-128876044D01*
X257800821Y-128313170D01*
X257237947Y-127937069D01*
X256573991Y-127805000D01*
X256506009Y-127805000D01*
X255842053Y-127937069D01*
X255279179Y-128313170D01*
X254903078Y-128876044D01*
X254771009Y-129540000D01*
X250667440Y-129540000D01*
X250667440Y-128440000D01*
X250623162Y-128204683D01*
X250484090Y-127988559D01*
X250271890Y-127843569D01*
X250020000Y-127792560D01*
X247820000Y-127792560D01*
X247584683Y-127836838D01*
X247368559Y-127975910D01*
X247223569Y-128188110D01*
X247172560Y-128440000D01*
X247172560Y-128805000D01*
X246857440Y-128805000D01*
X246857440Y-128440000D01*
X246813162Y-128204683D01*
X246674090Y-127988559D01*
X246461890Y-127843569D01*
X246210000Y-127792560D01*
X244010000Y-127792560D01*
X243774683Y-127836838D01*
X243558559Y-127975910D01*
X243413569Y-128188110D01*
X243362560Y-128440000D01*
X238835567Y-128440000D01*
X238750821Y-128313170D01*
X238187947Y-127937069D01*
X237523991Y-127805000D01*
X237456009Y-127805000D01*
X236792053Y-127937069D01*
X236229179Y-128313170D01*
X235853078Y-128876044D01*
X235721009Y-129540000D01*
X198309014Y-129540000D01*
X198343440Y-129370000D01*
X198343440Y-127354000D01*
X217852581Y-127354000D01*
X217909673Y-127411192D01*
X218253201Y-127553838D01*
X218625167Y-127554162D01*
X218968943Y-127412117D01*
X219232192Y-127149327D01*
X219374838Y-126805799D01*
X219375162Y-126433833D01*
X219233117Y-126090057D01*
X219157380Y-126014187D01*
X236134752Y-126014187D01*
X236352757Y-126541800D01*
X236756077Y-126945824D01*
X237283309Y-127164750D01*
X237854187Y-127165248D01*
X238195188Y-127024350D01*
X238533309Y-127164750D01*
X239104187Y-127165248D01*
X239631800Y-126947243D01*
X240035824Y-126543923D01*
X240069813Y-126462069D01*
X240102757Y-126541800D01*
X240506077Y-126945824D01*
X241033309Y-127164750D01*
X241604187Y-127165248D01*
X241945188Y-127024350D01*
X242283309Y-127164750D01*
X242854187Y-127165248D01*
X243381800Y-126947243D01*
X243785824Y-126543923D01*
X244004750Y-126016691D01*
X244005024Y-125701887D01*
X244310000Y-125701887D01*
X244310000Y-125758113D01*
X244419233Y-126307264D01*
X244730302Y-126772811D01*
X245195849Y-127083880D01*
X245745000Y-127193113D01*
X246294151Y-127083880D01*
X246759698Y-126772811D01*
X247070767Y-126307264D01*
X247129063Y-126014187D01*
X247564752Y-126014187D01*
X247782757Y-126541800D01*
X248186077Y-126945824D01*
X248713309Y-127164750D01*
X249284187Y-127165248D01*
X249625188Y-127024350D01*
X249963309Y-127164750D01*
X250534187Y-127165248D01*
X251061800Y-126947243D01*
X251465824Y-126543923D01*
X251499813Y-126462069D01*
X251532757Y-126541800D01*
X251936077Y-126945824D01*
X252463309Y-127164750D01*
X253034187Y-127165248D01*
X253375188Y-127024350D01*
X253713309Y-127164750D01*
X254284187Y-127165248D01*
X254811800Y-126947243D01*
X255215824Y-126543923D01*
X255434750Y-126016691D01*
X255435024Y-125701887D01*
X255740000Y-125701887D01*
X255740000Y-125758113D01*
X255849233Y-126307264D01*
X256160302Y-126772811D01*
X256625849Y-127083880D01*
X257175000Y-127193113D01*
X257724151Y-127083880D01*
X258189698Y-126772811D01*
X258500767Y-126307264D01*
X258610000Y-125758113D01*
X258610000Y-125701887D01*
X258500767Y-125152736D01*
X258189698Y-124687189D01*
X257724151Y-124376120D01*
X257175000Y-124266887D01*
X256625849Y-124376120D01*
X256160302Y-124687189D01*
X255849233Y-125152736D01*
X255740000Y-125701887D01*
X255435024Y-125701887D01*
X255435248Y-125445813D01*
X255217243Y-124918200D01*
X254813923Y-124514176D01*
X254286691Y-124295250D01*
X253715813Y-124294752D01*
X253374812Y-124435650D01*
X253036691Y-124295250D01*
X252465813Y-124294752D01*
X251938200Y-124512757D01*
X251534176Y-124916077D01*
X251500187Y-124997931D01*
X251467243Y-124918200D01*
X251063923Y-124514176D01*
X250536691Y-124295250D01*
X249965813Y-124294752D01*
X249624812Y-124435650D01*
X249286691Y-124295250D01*
X248715813Y-124294752D01*
X248188200Y-124512757D01*
X247784176Y-124916077D01*
X247565250Y-125443309D01*
X247564752Y-126014187D01*
X247129063Y-126014187D01*
X247180000Y-125758113D01*
X247180000Y-125701887D01*
X247070767Y-125152736D01*
X246759698Y-124687189D01*
X246294151Y-124376120D01*
X245745000Y-124266887D01*
X245195849Y-124376120D01*
X244730302Y-124687189D01*
X244419233Y-125152736D01*
X244310000Y-125701887D01*
X244005024Y-125701887D01*
X244005248Y-125445813D01*
X243787243Y-124918200D01*
X243383923Y-124514176D01*
X242856691Y-124295250D01*
X242285813Y-124294752D01*
X241944812Y-124435650D01*
X241606691Y-124295250D01*
X241035813Y-124294752D01*
X240508200Y-124512757D01*
X240104176Y-124916077D01*
X240070187Y-124997931D01*
X240037243Y-124918200D01*
X239633923Y-124514176D01*
X239106691Y-124295250D01*
X238535813Y-124294752D01*
X238194812Y-124435650D01*
X237856691Y-124295250D01*
X237285813Y-124294752D01*
X236758200Y-124512757D01*
X236354176Y-124916077D01*
X236135250Y-125443309D01*
X236134752Y-126014187D01*
X219157380Y-126014187D01*
X218970327Y-125826808D01*
X218626799Y-125684162D01*
X218254833Y-125683838D01*
X217911057Y-125825883D01*
X217852838Y-125884000D01*
X201047722Y-125884000D01*
X201086838Y-125789799D01*
X201087162Y-125417833D01*
X200995090Y-125195000D01*
X222170581Y-125195000D01*
X222227673Y-125252192D01*
X222571201Y-125394838D01*
X222943167Y-125395162D01*
X223286943Y-125253117D01*
X223550192Y-124990327D01*
X223692838Y-124646799D01*
X223693162Y-124274833D01*
X223551117Y-123931057D01*
X223288327Y-123667808D01*
X222944799Y-123525162D01*
X222572833Y-123524838D01*
X222229057Y-123666883D01*
X222170838Y-123725000D01*
X180563440Y-123725000D01*
X180563440Y-123360000D01*
X180550269Y-123290000D01*
X181657581Y-123290000D01*
X181714673Y-123347192D01*
X182058201Y-123489838D01*
X182430167Y-123490162D01*
X182773943Y-123348117D01*
X183037192Y-123085327D01*
X183179838Y-122741799D01*
X183180162Y-122369833D01*
X183038117Y-122026057D01*
X182775327Y-121762808D01*
X182431799Y-121620162D01*
X182059833Y-121619838D01*
X181716057Y-121761883D01*
X181657838Y-121820000D01*
X170480088Y-121820000D01*
X170480162Y-121734833D01*
X170338117Y-121391057D01*
X170332071Y-121385000D01*
X171116581Y-121385000D01*
X171173673Y-121442192D01*
X171517201Y-121584838D01*
X171889167Y-121585162D01*
X172232943Y-121443117D01*
X172496192Y-121180327D01*
X172638838Y-120836799D01*
X172638839Y-120835167D01*
X179404838Y-120835167D01*
X179546883Y-121178943D01*
X179809673Y-121442192D01*
X180153201Y-121584838D01*
X180525167Y-121585162D01*
X180868943Y-121443117D01*
X180927162Y-121385000D01*
X195627581Y-121385000D01*
X195684673Y-121442192D01*
X196028201Y-121584838D01*
X196400167Y-121585162D01*
X196743943Y-121443117D01*
X197007192Y-121180327D01*
X197149838Y-120836799D01*
X197149961Y-120696000D01*
X215518184Y-120696000D01*
X215704167Y-120696162D01*
X216047943Y-120554117D01*
X216311192Y-120291327D01*
X216453838Y-119947799D01*
X216454162Y-119575833D01*
X216312117Y-119232057D01*
X216049327Y-118968808D01*
X215705799Y-118826162D01*
X215333833Y-118825838D01*
X215333441Y-118826000D01*
X185293816Y-118826000D01*
X185107833Y-118825838D01*
X184764057Y-118967883D01*
X184500808Y-119230673D01*
X184358162Y-119574201D01*
X184357865Y-119915000D01*
X180927419Y-119915000D01*
X180870327Y-119857808D01*
X180526799Y-119715162D01*
X180154833Y-119714838D01*
X179811057Y-119856883D01*
X179547808Y-120119673D01*
X179405162Y-120463201D01*
X179404838Y-120835167D01*
X172638839Y-120835167D01*
X172639162Y-120464833D01*
X172497117Y-120121057D01*
X172234327Y-119857808D01*
X171890799Y-119715162D01*
X171518833Y-119714838D01*
X171175057Y-119856883D01*
X171116838Y-119915000D01*
X169083088Y-119915000D01*
X169083162Y-119829833D01*
X168941117Y-119486057D01*
X168678327Y-119222808D01*
X168334799Y-119080162D01*
X167962833Y-119079838D01*
X167619057Y-119221883D01*
X167560838Y-119280000D01*
X165527088Y-119280000D01*
X165527162Y-119194833D01*
X165385117Y-118851057D01*
X165122327Y-118587808D01*
X164985055Y-118530807D01*
X165255956Y-118476922D01*
X165818830Y-118100821D01*
X166194931Y-117537947D01*
X166327000Y-116873991D01*
X166327000Y-116806009D01*
X166413000Y-116806009D01*
X166413000Y-116873991D01*
X166545069Y-117537947D01*
X166921170Y-118100821D01*
X167484044Y-118476922D01*
X168148000Y-118608991D01*
X168811956Y-118476922D01*
X169374830Y-118100821D01*
X169750931Y-117537947D01*
X169883000Y-116873991D01*
X169883000Y-116806009D01*
X169969000Y-116806009D01*
X169969000Y-116873991D01*
X170101069Y-117537947D01*
X170477170Y-118100821D01*
X171040044Y-118476922D01*
X171704000Y-118608991D01*
X172367956Y-118476922D01*
X172930830Y-118100821D01*
X173306931Y-117537947D01*
X173439000Y-116873991D01*
X173439000Y-116806009D01*
X173525000Y-116806009D01*
X173525000Y-116873991D01*
X173657069Y-117537947D01*
X174033170Y-118100821D01*
X174596044Y-118476922D01*
X175260000Y-118608991D01*
X175923956Y-118476922D01*
X176486830Y-118100821D01*
X176862931Y-117537947D01*
X176995000Y-116873991D01*
X176995000Y-116806009D01*
X177081000Y-116806009D01*
X177081000Y-116873991D01*
X177213069Y-117537947D01*
X177589170Y-118100821D01*
X178152044Y-118476922D01*
X178816000Y-118608991D01*
X179479956Y-118476922D01*
X180042830Y-118100821D01*
X180418931Y-117537947D01*
X180551000Y-116873991D01*
X180551000Y-116806009D01*
X180418931Y-116142053D01*
X180042830Y-115579179D01*
X179479956Y-115203078D01*
X178816000Y-115071009D01*
X178152044Y-115203078D01*
X177589170Y-115579179D01*
X177213069Y-116142053D01*
X177081000Y-116806009D01*
X176995000Y-116806009D01*
X176862931Y-116142053D01*
X176486830Y-115579179D01*
X175923956Y-115203078D01*
X175260000Y-115071009D01*
X174596044Y-115203078D01*
X174033170Y-115579179D01*
X173657069Y-116142053D01*
X173525000Y-116806009D01*
X173439000Y-116806009D01*
X173306931Y-116142053D01*
X172930830Y-115579179D01*
X172367956Y-115203078D01*
X171704000Y-115071009D01*
X171040044Y-115203078D01*
X170477170Y-115579179D01*
X170101069Y-116142053D01*
X169969000Y-116806009D01*
X169883000Y-116806009D01*
X169750931Y-116142053D01*
X169374830Y-115579179D01*
X168811956Y-115203078D01*
X168148000Y-115071009D01*
X167484044Y-115203078D01*
X166921170Y-115579179D01*
X166545069Y-116142053D01*
X166413000Y-116806009D01*
X166327000Y-116806009D01*
X166194931Y-116142053D01*
X165818830Y-115579179D01*
X165255956Y-115203078D01*
X164592000Y-115071009D01*
X163928044Y-115203078D01*
X163365170Y-115579179D01*
X162989069Y-116142053D01*
X162857000Y-116806009D01*
X162857000Y-116873991D01*
X162989069Y-117537947D01*
X163365170Y-118100821D01*
X163928044Y-118476922D01*
X164198827Y-118530784D01*
X164063057Y-118586883D01*
X164004838Y-118645000D01*
X161971088Y-118645000D01*
X161971162Y-118559833D01*
X161885639Y-118352852D01*
X162262830Y-118100821D01*
X162638931Y-117537947D01*
X162771000Y-116873991D01*
X162771000Y-116806009D01*
X162638931Y-116142053D01*
X162262830Y-115579179D01*
X161699956Y-115203078D01*
X161036000Y-115071009D01*
X160372044Y-115203078D01*
X159809170Y-115579179D01*
X159433069Y-116142053D01*
X159301000Y-116806009D01*
X159301000Y-116873991D01*
X159433069Y-117537947D01*
X159748485Y-118010000D01*
X158767515Y-118010000D01*
X159082931Y-117537947D01*
X159215000Y-116873991D01*
X159215000Y-116806009D01*
X159082931Y-116142053D01*
X158706830Y-115579179D01*
X158143956Y-115203078D01*
X157480000Y-115071009D01*
X156816044Y-115203078D01*
X156253170Y-115579179D01*
X155877069Y-116142053D01*
X155745000Y-116806009D01*
X155745000Y-116873991D01*
X155877069Y-117537947D01*
X156192485Y-118010000D01*
X155211515Y-118010000D01*
X155526931Y-117537947D01*
X155659000Y-116873991D01*
X155659000Y-116806009D01*
X155526931Y-116142053D01*
X155150830Y-115579179D01*
X154587956Y-115203078D01*
X153924000Y-115071009D01*
X153260044Y-115203078D01*
X152697170Y-115579179D01*
X152321069Y-116142053D01*
X152189000Y-116806009D01*
X152189000Y-116873991D01*
X152321069Y-117537947D01*
X152636485Y-118010000D01*
X151655515Y-118010000D01*
X151970931Y-117537947D01*
X152103000Y-116873991D01*
X152103000Y-116806009D01*
X151970931Y-116142053D01*
X151594830Y-115579179D01*
X151031956Y-115203078D01*
X150368000Y-115071009D01*
X149704044Y-115203078D01*
X149141170Y-115579179D01*
X148765069Y-116142053D01*
X148633000Y-116806009D01*
X148633000Y-116873991D01*
X148765069Y-117537947D01*
X149080485Y-118010000D01*
X148099515Y-118010000D01*
X148414931Y-117537947D01*
X148547000Y-116873991D01*
X148547000Y-116806009D01*
X148414931Y-116142053D01*
X148038830Y-115579179D01*
X147475956Y-115203078D01*
X146812000Y-115071009D01*
X146148044Y-115203078D01*
X145585170Y-115579179D01*
X145209069Y-116142053D01*
X145077000Y-116806009D01*
X145077000Y-116873991D01*
X145209069Y-117537947D01*
X145524485Y-118010000D01*
X144543515Y-118010000D01*
X144858931Y-117537947D01*
X144991000Y-116873991D01*
X144991000Y-116806009D01*
X144858931Y-116142053D01*
X144482830Y-115579179D01*
X143919956Y-115203078D01*
X143256000Y-115071009D01*
X142592044Y-115203078D01*
X142029170Y-115579179D01*
X141653069Y-116142053D01*
X141521000Y-116806009D01*
X141521000Y-116873991D01*
X141653069Y-117537947D01*
X141968485Y-118010000D01*
X140987515Y-118010000D01*
X141302931Y-117537947D01*
X141435000Y-116873991D01*
X141435000Y-116806009D01*
X141302931Y-116142053D01*
X140926830Y-115579179D01*
X140363956Y-115203078D01*
X139700000Y-115071009D01*
X139036044Y-115203078D01*
X138473170Y-115579179D01*
X138097069Y-116142053D01*
X137965000Y-116806009D01*
X137965000Y-116873991D01*
X138097069Y-117537947D01*
X138412485Y-118010000D01*
X137431515Y-118010000D01*
X137746931Y-117537947D01*
X137879000Y-116873991D01*
X137879000Y-116806009D01*
X137746931Y-116142053D01*
X137370830Y-115579179D01*
X136807956Y-115203078D01*
X136144000Y-115071009D01*
X135480044Y-115203078D01*
X134917170Y-115579179D01*
X134541069Y-116142053D01*
X134409000Y-116806009D01*
X134409000Y-116873991D01*
X134541069Y-117537947D01*
X134856485Y-118010000D01*
X133875515Y-118010000D01*
X134190931Y-117537947D01*
X134323000Y-116873991D01*
X134323000Y-116806009D01*
X134190931Y-116142053D01*
X133814830Y-115579179D01*
X133251956Y-115203078D01*
X132588000Y-115071009D01*
X131924044Y-115203078D01*
X131361170Y-115579179D01*
X130985069Y-116142053D01*
X130853000Y-116806009D01*
X130853000Y-116873991D01*
X130985069Y-117537947D01*
X131300485Y-118010000D01*
X130319515Y-118010000D01*
X130634931Y-117537947D01*
X130767000Y-116873991D01*
X130767000Y-116806009D01*
X130634931Y-116142053D01*
X130258830Y-115579179D01*
X129695956Y-115203078D01*
X129032000Y-115071009D01*
X128368044Y-115203078D01*
X127805170Y-115579179D01*
X127429069Y-116142053D01*
X127297000Y-116806009D01*
X127297000Y-116873991D01*
X127429069Y-117537947D01*
X127744485Y-118010000D01*
X126763515Y-118010000D01*
X127078931Y-117537947D01*
X127211000Y-116873991D01*
X127211000Y-116806009D01*
X127078931Y-116142053D01*
X126702830Y-115579179D01*
X126139956Y-115203078D01*
X125476000Y-115071009D01*
X124812044Y-115203078D01*
X124249170Y-115579179D01*
X123873069Y-116142053D01*
X123741000Y-116806009D01*
X123741000Y-116873991D01*
X123873069Y-117537947D01*
X124188485Y-118010000D01*
X123207515Y-118010000D01*
X123522931Y-117537947D01*
X123655000Y-116873991D01*
X123655000Y-116806009D01*
X123522931Y-116142053D01*
X123146830Y-115579179D01*
X122583956Y-115203078D01*
X121920000Y-115071009D01*
X121256044Y-115203078D01*
X120693170Y-115579179D01*
X120317069Y-116142053D01*
X120185000Y-116806009D01*
X120185000Y-116873991D01*
X120317069Y-117537947D01*
X120632485Y-118010000D01*
X119651515Y-118010000D01*
X119966931Y-117537947D01*
X120099000Y-116873991D01*
X120099000Y-116806009D01*
X119966931Y-116142053D01*
X119590830Y-115579179D01*
X119027956Y-115203078D01*
X118364000Y-115071009D01*
X117700044Y-115203078D01*
X117137170Y-115579179D01*
X116761069Y-116142053D01*
X116629000Y-116806009D01*
X116629000Y-116873991D01*
X116761069Y-117537947D01*
X117076485Y-118010000D01*
X116095515Y-118010000D01*
X116410931Y-117537947D01*
X116543000Y-116873991D01*
X116543000Y-116806009D01*
X116410931Y-116142053D01*
X116034830Y-115579179D01*
X115471956Y-115203078D01*
X114808000Y-115071009D01*
X114144044Y-115203078D01*
X113581170Y-115579179D01*
X113205069Y-116142053D01*
X113073000Y-116806009D01*
X113073000Y-116873991D01*
X113205069Y-117537947D01*
X113520485Y-118010000D01*
X112539515Y-118010000D01*
X112854931Y-117537947D01*
X112987000Y-116873991D01*
X112987000Y-116806009D01*
X112854931Y-116142053D01*
X112478830Y-115579179D01*
X111915956Y-115203078D01*
X111252000Y-115071009D01*
X110588044Y-115203078D01*
X110025170Y-115579179D01*
X109649069Y-116142053D01*
X109517000Y-116806009D01*
X109517000Y-116873991D01*
X109649069Y-117537947D01*
X109964485Y-118010000D01*
X108983515Y-118010000D01*
X109298931Y-117537947D01*
X109431000Y-116873991D01*
X109431000Y-116806009D01*
X109298931Y-116142053D01*
X108922830Y-115579179D01*
X108359956Y-115203078D01*
X107696000Y-115071009D01*
X107032044Y-115203078D01*
X106469170Y-115579179D01*
X106093069Y-116142053D01*
X105961000Y-116806009D01*
X105961000Y-116873991D01*
X106093069Y-117537947D01*
X106408485Y-118010000D01*
X105427515Y-118010000D01*
X105742931Y-117537947D01*
X105875000Y-116873991D01*
X105875000Y-116806009D01*
X105742931Y-116142053D01*
X105366830Y-115579179D01*
X104803956Y-115203078D01*
X104140000Y-115071009D01*
X103476044Y-115203078D01*
X102913170Y-115579179D01*
X102537069Y-116142053D01*
X102405000Y-116806009D01*
X102405000Y-116873991D01*
X102537069Y-117537947D01*
X102913170Y-118100821D01*
X103290416Y-118352889D01*
X103205162Y-118558201D01*
X103204838Y-118930167D01*
X103346883Y-119273943D01*
X103609673Y-119537192D01*
X103953201Y-119679838D01*
X104325167Y-119680162D01*
X104668943Y-119538117D01*
X104727162Y-119480000D01*
X106908489Y-119480000D01*
X106903808Y-119484673D01*
X106761162Y-119828201D01*
X106760838Y-120200167D01*
X106902883Y-120543943D01*
X107165673Y-120807192D01*
X107509201Y-120949838D01*
X107881167Y-120950162D01*
X108224943Y-120808117D01*
X108283162Y-120750000D01*
X110316912Y-120750000D01*
X110316838Y-120835167D01*
X110458883Y-121178943D01*
X110721673Y-121442192D01*
X111065201Y-121584838D01*
X111437167Y-121585162D01*
X111780943Y-121443117D01*
X111839162Y-121385000D01*
X120984912Y-121385000D01*
X120984838Y-121470167D01*
X121126883Y-121813943D01*
X121389673Y-122077192D01*
X121733201Y-122219838D01*
X122105167Y-122220162D01*
X122448943Y-122078117D01*
X122507162Y-122020000D01*
X122566141Y-122020000D01*
X122543277Y-122035277D01*
X122383949Y-122273728D01*
X122328000Y-122555000D01*
X122359341Y-122712560D01*
X120820000Y-122712560D01*
X120584683Y-122756838D01*
X120368559Y-122895910D01*
X120223569Y-123108110D01*
X120172560Y-123360000D01*
X120172560Y-123725000D01*
X120111440Y-123725000D01*
X120111440Y-123360000D01*
X120067162Y-123124683D01*
X119928090Y-122908559D01*
X119715890Y-122763569D01*
X119464000Y-122712560D01*
X117264000Y-122712560D01*
X117028683Y-122756838D01*
X116812559Y-122895910D01*
X116667569Y-123108110D01*
X116616560Y-123360000D01*
X116616560Y-123725000D01*
X116555440Y-123725000D01*
X116555440Y-123360000D01*
X116511162Y-123124683D01*
X116372090Y-122908559D01*
X116159890Y-122763569D01*
X115908000Y-122712560D01*
X113708000Y-122712560D01*
X113472683Y-122756838D01*
X113256559Y-122895910D01*
X113111569Y-123108110D01*
X113060560Y-123360000D01*
X113060560Y-123725000D01*
X112999440Y-123725000D01*
X112999440Y-123360000D01*
X112955162Y-123124683D01*
X112816090Y-122908559D01*
X112603890Y-122763569D01*
X112352000Y-122712560D01*
X110152000Y-122712560D01*
X109916683Y-122756838D01*
X109700559Y-122895910D01*
X109555569Y-123108110D01*
X109504560Y-123360000D01*
X109504560Y-123725000D01*
X109443440Y-123725000D01*
X109443440Y-123360000D01*
X109399162Y-123124683D01*
X109260090Y-122908559D01*
X109047890Y-122763569D01*
X108796000Y-122712560D01*
X106596000Y-122712560D01*
X106360683Y-122756838D01*
X106144559Y-122895910D01*
X105999569Y-123108110D01*
X105948560Y-123360000D01*
X105948560Y-123725000D01*
X105887440Y-123725000D01*
X105887440Y-123360000D01*
X105843162Y-123124683D01*
X105704090Y-122908559D01*
X105491890Y-122763569D01*
X105240000Y-122712560D01*
X103040000Y-122712560D01*
X102804683Y-122756838D01*
X102588559Y-122895910D01*
X102443569Y-123108110D01*
X102392560Y-123360000D01*
X100710000Y-123360000D01*
X100710000Y-112996009D01*
X108755000Y-112996009D01*
X108755000Y-113063991D01*
X108887069Y-113727947D01*
X109263170Y-114290821D01*
X109826044Y-114666922D01*
X110490000Y-114798991D01*
X111153956Y-114666922D01*
X111716830Y-114290821D01*
X112092931Y-113727947D01*
X112225000Y-113063991D01*
X112225000Y-112996009D01*
X112105252Y-112393991D01*
X112739735Y-112393991D01*
X112972932Y-112958371D01*
X113404357Y-113390551D01*
X113968330Y-113624733D01*
X114578991Y-113625265D01*
X115143371Y-113392068D01*
X115365668Y-113170159D01*
X116574446Y-113170159D01*
X116660852Y-113426643D01*
X117234336Y-113636458D01*
X117844460Y-113610839D01*
X118289148Y-113426643D01*
X118375554Y-113170159D01*
X117475000Y-112269605D01*
X116574446Y-113170159D01*
X115365668Y-113170159D01*
X115575551Y-112960643D01*
X115809733Y-112396670D01*
X115810209Y-111849336D01*
X115928542Y-111849336D01*
X115954161Y-112459460D01*
X116138357Y-112904148D01*
X116394841Y-112990554D01*
X117295395Y-112090000D01*
X116394841Y-111189446D01*
X116138357Y-111275852D01*
X115928542Y-111849336D01*
X115810209Y-111849336D01*
X115810265Y-111786009D01*
X115577068Y-111221629D01*
X115365650Y-111009841D01*
X116574446Y-111009841D01*
X117475000Y-111910395D01*
X118375554Y-111009841D01*
X118289148Y-110753357D01*
X117715664Y-110543542D01*
X117105540Y-110569161D01*
X116660852Y-110753357D01*
X116574446Y-111009841D01*
X115365650Y-111009841D01*
X115145643Y-110789449D01*
X114581670Y-110555267D01*
X113971009Y-110554735D01*
X113406629Y-110787932D01*
X112974449Y-111219357D01*
X112740267Y-111783330D01*
X112739735Y-112393991D01*
X112105252Y-112393991D01*
X112092931Y-112332053D01*
X111716830Y-111769179D01*
X111449135Y-111590311D01*
X113126869Y-109912578D01*
X113404357Y-110190551D01*
X113968330Y-110424733D01*
X114578991Y-110425265D01*
X115143371Y-110192068D01*
X115365668Y-109970159D01*
X116574446Y-109970159D01*
X116660852Y-110226643D01*
X117234336Y-110436458D01*
X117844460Y-110410839D01*
X118289148Y-110226643D01*
X118375554Y-109970159D01*
X117475000Y-109069605D01*
X116574446Y-109970159D01*
X115365668Y-109970159D01*
X115575551Y-109760643D01*
X115809733Y-109196670D01*
X115810209Y-108649336D01*
X115928542Y-108649336D01*
X115954161Y-109259460D01*
X116138357Y-109704148D01*
X116394841Y-109790554D01*
X117295395Y-108890000D01*
X116394841Y-107989446D01*
X116138357Y-108075852D01*
X115928542Y-108649336D01*
X115810209Y-108649336D01*
X115810265Y-108586009D01*
X115577068Y-108021629D01*
X115365650Y-107809841D01*
X116574446Y-107809841D01*
X117475000Y-108710395D01*
X118375554Y-107809841D01*
X118289148Y-107553357D01*
X117715664Y-107343542D01*
X117105540Y-107369161D01*
X116660852Y-107553357D01*
X116574446Y-107809841D01*
X115365650Y-107809841D01*
X115145643Y-107589449D01*
X114581670Y-107355267D01*
X113971009Y-107354735D01*
X113406629Y-107587932D01*
X112974449Y-108019357D01*
X112900850Y-108196603D01*
X112828728Y-108210949D01*
X112590277Y-108370276D01*
X109970277Y-110990277D01*
X109810949Y-111228728D01*
X109770933Y-111429902D01*
X109263170Y-111769179D01*
X108887069Y-112332053D01*
X108755000Y-112996009D01*
X100710000Y-112996009D01*
X100710000Y-102770000D01*
X102122560Y-102770000D01*
X102122560Y-104470000D01*
X102166838Y-104705317D01*
X102305910Y-104921441D01*
X102518110Y-105066431D01*
X102770000Y-105117440D01*
X104470000Y-105117440D01*
X104705317Y-105073162D01*
X104921441Y-104934090D01*
X105066431Y-104721890D01*
X105080086Y-104654459D01*
X105109946Y-104699147D01*
X105591715Y-105021054D01*
X106160000Y-105134093D01*
X106728285Y-105021054D01*
X107210054Y-104699147D01*
X107440005Y-104355000D01*
X108395554Y-104355000D01*
X108742560Y-104702006D01*
X108742560Y-106510000D01*
X108786838Y-106745317D01*
X108925910Y-106961441D01*
X109138110Y-107106431D01*
X109390000Y-107157440D01*
X111590000Y-107157440D01*
X111825317Y-107113162D01*
X112041441Y-106974090D01*
X112186431Y-106761890D01*
X112237440Y-106510000D01*
X112237440Y-104310000D01*
X112193162Y-104074683D01*
X112054090Y-103858559D01*
X111841890Y-103713569D01*
X111590000Y-103662560D01*
X109782006Y-103662560D01*
X109219723Y-103100277D01*
X108981272Y-102940949D01*
X108855846Y-102916000D01*
X124372560Y-102916000D01*
X124372560Y-104470000D01*
X124416838Y-104705317D01*
X124555910Y-104921441D01*
X124768110Y-105066431D01*
X125020000Y-105117440D01*
X126720000Y-105117440D01*
X126955317Y-105073162D01*
X127171441Y-104934090D01*
X127316431Y-104721890D01*
X127338301Y-104613893D01*
X127643076Y-104891645D01*
X128053110Y-105061476D01*
X128283000Y-104940155D01*
X128283000Y-103747000D01*
X128537000Y-103747000D01*
X128537000Y-104940155D01*
X128766890Y-105061476D01*
X129176924Y-104891645D01*
X129605183Y-104501358D01*
X129851486Y-103976892D01*
X129730819Y-103747000D01*
X128537000Y-103747000D01*
X128283000Y-103747000D01*
X128263000Y-103747000D01*
X128263000Y-103493000D01*
X128283000Y-103493000D01*
X128283000Y-103473000D01*
X128537000Y-103473000D01*
X128537000Y-103493000D01*
X129730819Y-103493000D01*
X129851486Y-103263108D01*
X129688475Y-102916000D01*
X140402560Y-102916000D01*
X140402560Y-104470000D01*
X140441133Y-104675000D01*
X137002440Y-104675000D01*
X137002440Y-104310000D01*
X136958162Y-104074683D01*
X136819090Y-103858559D01*
X136606890Y-103713569D01*
X136355000Y-103662560D01*
X134155000Y-103662560D01*
X133919683Y-103706838D01*
X133703559Y-103845910D01*
X133558569Y-104058110D01*
X133507560Y-104310000D01*
X133507560Y-106199000D01*
X121666000Y-106199000D01*
X121540865Y-106223891D01*
X121414790Y-106243263D01*
X121400789Y-106251754D01*
X121384728Y-106254949D01*
X121278661Y-106325821D01*
X121169578Y-106391976D01*
X120753578Y-106772975D01*
X120743891Y-106786180D01*
X120730276Y-106795277D01*
X120114946Y-107410608D01*
X119981670Y-107355267D01*
X119371009Y-107354735D01*
X118806629Y-107587932D01*
X118374449Y-108019357D01*
X118267368Y-108277237D01*
X117654605Y-108890000D01*
X118267281Y-109502676D01*
X118372932Y-109758371D01*
X118804357Y-110190551D01*
X119368330Y-110424733D01*
X119978991Y-110425265D01*
X120543371Y-110192068D01*
X120775026Y-109960818D01*
X121004357Y-110190551D01*
X121568330Y-110424733D01*
X122178991Y-110425265D01*
X122743371Y-110192068D01*
X123175551Y-109760643D01*
X123409733Y-109196670D01*
X123410265Y-108586009D01*
X123177068Y-108021629D01*
X122825055Y-107669000D01*
X136528553Y-107669000D01*
X131402554Y-112795000D01*
X123244332Y-112795000D01*
X123409733Y-112396670D01*
X123410265Y-111786009D01*
X123177068Y-111221629D01*
X122745643Y-110789449D01*
X122181670Y-110555267D01*
X121571009Y-110554735D01*
X121006629Y-110787932D01*
X120774974Y-111019182D01*
X120545643Y-110789449D01*
X119981670Y-110555267D01*
X119371009Y-110554735D01*
X118806629Y-110787932D01*
X118374449Y-111219357D01*
X118267368Y-111477237D01*
X117654605Y-112090000D01*
X118267281Y-112702676D01*
X118372932Y-112958371D01*
X118804357Y-113390551D01*
X119368330Y-113624733D01*
X119978991Y-113625265D01*
X120054584Y-113594031D01*
X120510276Y-114049723D01*
X120712320Y-114184724D01*
X120748728Y-114209051D01*
X121030000Y-114265000D01*
X131707000Y-114265000D01*
X131988272Y-114209051D01*
X132226723Y-114049723D01*
X133579484Y-112696962D01*
X133520000Y-112996009D01*
X133520000Y-113063991D01*
X133652069Y-113727947D01*
X134028170Y-114290821D01*
X134591044Y-114666922D01*
X135255000Y-114798991D01*
X135918956Y-114666922D01*
X136481830Y-114290821D01*
X136857931Y-113727947D01*
X136990000Y-113063991D01*
X136990000Y-112996009D01*
X136870252Y-112393991D01*
X137504735Y-112393991D01*
X137737932Y-112958371D01*
X138169357Y-113390551D01*
X138733330Y-113624733D01*
X139343991Y-113625265D01*
X139908371Y-113392068D01*
X140130668Y-113170159D01*
X141339446Y-113170159D01*
X141425852Y-113426643D01*
X141999336Y-113636458D01*
X142609460Y-113610839D01*
X143054148Y-113426643D01*
X143140554Y-113170159D01*
X142240000Y-112269605D01*
X141339446Y-113170159D01*
X140130668Y-113170159D01*
X140340551Y-112960643D01*
X140574733Y-112396670D01*
X140575209Y-111849336D01*
X140693542Y-111849336D01*
X140719161Y-112459460D01*
X140903357Y-112904148D01*
X141159841Y-112990554D01*
X142060395Y-112090000D01*
X141159841Y-111189446D01*
X140903357Y-111275852D01*
X140693542Y-111849336D01*
X140575209Y-111849336D01*
X140575265Y-111786009D01*
X140342068Y-111221629D01*
X140130650Y-111009841D01*
X141339446Y-111009841D01*
X142240000Y-111910395D01*
X143140554Y-111009841D01*
X143054148Y-110753357D01*
X142480664Y-110543542D01*
X141870540Y-110569161D01*
X141425852Y-110753357D01*
X141339446Y-111009841D01*
X140130650Y-111009841D01*
X139910643Y-110789449D01*
X139346670Y-110555267D01*
X138736009Y-110554735D01*
X138171629Y-110787932D01*
X137739449Y-111219357D01*
X137505267Y-111783330D01*
X137504735Y-112393991D01*
X136870252Y-112393991D01*
X136857931Y-112332053D01*
X136481830Y-111769179D01*
X136211738Y-111588709D01*
X137889871Y-109910576D01*
X138169357Y-110190551D01*
X138733330Y-110424733D01*
X139343991Y-110425265D01*
X139908371Y-110192068D01*
X140130668Y-109970159D01*
X141339446Y-109970159D01*
X141425852Y-110226643D01*
X141999336Y-110436458D01*
X142609460Y-110410839D01*
X143054148Y-110226643D01*
X143140554Y-109970159D01*
X142240000Y-109069605D01*
X141339446Y-109970159D01*
X140130668Y-109970159D01*
X140340551Y-109760643D01*
X140574733Y-109196670D01*
X140575265Y-108586009D01*
X140406266Y-108177000D01*
X140866351Y-108177000D01*
X140693542Y-108649336D01*
X140719161Y-109259460D01*
X140903357Y-109704148D01*
X141159841Y-109790554D01*
X142060395Y-108890000D01*
X142046253Y-108875858D01*
X142225858Y-108696253D01*
X142240000Y-108710395D01*
X142254143Y-108696253D01*
X142433748Y-108875858D01*
X142419605Y-108890000D01*
X143032281Y-109502676D01*
X143137932Y-109758371D01*
X143569357Y-110190551D01*
X144133330Y-110424733D01*
X144743991Y-110425265D01*
X145308371Y-110192068D01*
X145540026Y-109960818D01*
X145769357Y-110190551D01*
X146333330Y-110424733D01*
X146943991Y-110425265D01*
X147508371Y-110192068D01*
X147940551Y-109760643D01*
X148174733Y-109196670D01*
X148175265Y-108586009D01*
X147942068Y-108021629D01*
X147590055Y-107669000D01*
X152530553Y-107669000D01*
X148175057Y-112024497D01*
X148175265Y-111786009D01*
X147942068Y-111221629D01*
X147510643Y-110789449D01*
X146946670Y-110555267D01*
X146336009Y-110554735D01*
X145771629Y-110787932D01*
X145539974Y-111019182D01*
X145310643Y-110789449D01*
X144746670Y-110555267D01*
X144136009Y-110554735D01*
X143571629Y-110787932D01*
X143139449Y-111219357D01*
X143032368Y-111477237D01*
X142419605Y-112090000D01*
X143032281Y-112702676D01*
X143137932Y-112958371D01*
X143569357Y-113390551D01*
X144133330Y-113624733D01*
X144743991Y-113625265D01*
X144814631Y-113596077D01*
X145149276Y-113930723D01*
X145387727Y-114090051D01*
X145434394Y-114099333D01*
X145669000Y-114146000D01*
X147828000Y-114146000D01*
X148109272Y-114090051D01*
X148347723Y-113930723D01*
X148855723Y-113422724D01*
X148855725Y-113422721D01*
X154101447Y-108177000D01*
X162438990Y-108177000D01*
X162403069Y-108263507D01*
X162243277Y-108370276D01*
X159500277Y-111113277D01*
X159340949Y-111351728D01*
X159329149Y-111411048D01*
X158793170Y-111769179D01*
X158417069Y-112332053D01*
X158285000Y-112996009D01*
X158285000Y-113063991D01*
X158417069Y-113727947D01*
X158793170Y-114290821D01*
X159356044Y-114666922D01*
X160020000Y-114798991D01*
X160683956Y-114666922D01*
X161246830Y-114290821D01*
X161622931Y-113727947D01*
X161755000Y-113063991D01*
X161755000Y-112996009D01*
X161635252Y-112393991D01*
X162269735Y-112393991D01*
X162502932Y-112958371D01*
X162934357Y-113390551D01*
X163498330Y-113624733D01*
X164108991Y-113625265D01*
X164673371Y-113392068D01*
X164895668Y-113170159D01*
X166104446Y-113170159D01*
X166190852Y-113426643D01*
X166764336Y-113636458D01*
X167374460Y-113610839D01*
X167819148Y-113426643D01*
X167905554Y-113170159D01*
X167005000Y-112269605D01*
X166104446Y-113170159D01*
X164895668Y-113170159D01*
X165105551Y-112960643D01*
X165339733Y-112396670D01*
X165340209Y-111849336D01*
X165458542Y-111849336D01*
X165484161Y-112459460D01*
X165668357Y-112904148D01*
X165924841Y-112990554D01*
X166825395Y-112090000D01*
X165924841Y-111189446D01*
X165668357Y-111275852D01*
X165458542Y-111849336D01*
X165340209Y-111849336D01*
X165340265Y-111786009D01*
X165107068Y-111221629D01*
X164895650Y-111009841D01*
X166104446Y-111009841D01*
X167005000Y-111910395D01*
X167905554Y-111009841D01*
X167819148Y-110753357D01*
X167245664Y-110543542D01*
X166635540Y-110569161D01*
X166190852Y-110753357D01*
X166104446Y-111009841D01*
X164895650Y-111009841D01*
X164675643Y-110789449D01*
X164111670Y-110555267D01*
X163501009Y-110554735D01*
X162936629Y-110787932D01*
X162504449Y-111219357D01*
X162270267Y-111783330D01*
X162269735Y-112393991D01*
X161635252Y-112393991D01*
X161622931Y-112332053D01*
X161246830Y-111769179D01*
X161052868Y-111639578D01*
X162718315Y-109974131D01*
X162934357Y-110190551D01*
X163498330Y-110424733D01*
X164108991Y-110425265D01*
X164673371Y-110192068D01*
X164895668Y-109970159D01*
X166104446Y-109970159D01*
X166190852Y-110226643D01*
X166764336Y-110436458D01*
X167374460Y-110410839D01*
X167819148Y-110226643D01*
X167905554Y-109970159D01*
X167005000Y-109069605D01*
X166104446Y-109970159D01*
X164895668Y-109970159D01*
X165105551Y-109760643D01*
X165339733Y-109196670D01*
X165340265Y-108586009D01*
X165171266Y-108177000D01*
X165631351Y-108177000D01*
X165458542Y-108649336D01*
X165484161Y-109259460D01*
X165668357Y-109704148D01*
X165924841Y-109790554D01*
X166825395Y-108890000D01*
X166811253Y-108875858D01*
X166990858Y-108696253D01*
X167005000Y-108710395D01*
X167019143Y-108696253D01*
X167198748Y-108875858D01*
X167184605Y-108890000D01*
X167797281Y-109502676D01*
X167902932Y-109758371D01*
X168334357Y-110190551D01*
X168898330Y-110424733D01*
X169508991Y-110425265D01*
X170073371Y-110192068D01*
X170305026Y-109960818D01*
X170534357Y-110190551D01*
X171098330Y-110424733D01*
X171708991Y-110425265D01*
X172273371Y-110192068D01*
X172705551Y-109760643D01*
X172939733Y-109196670D01*
X172940265Y-108586009D01*
X172707068Y-108021629D01*
X172355055Y-107669000D01*
X177803553Y-107669000D01*
X173216280Y-112256274D01*
X173216277Y-112256276D01*
X172843054Y-112629500D01*
X172939733Y-112396670D01*
X172940265Y-111786009D01*
X172707068Y-111221629D01*
X172275643Y-110789449D01*
X171711670Y-110555267D01*
X171101009Y-110554735D01*
X170536629Y-110787932D01*
X170304974Y-111019182D01*
X170075643Y-110789449D01*
X169511670Y-110555267D01*
X168901009Y-110554735D01*
X168336629Y-110787932D01*
X167904449Y-111219357D01*
X167797368Y-111477237D01*
X167184605Y-112090000D01*
X167797281Y-112702676D01*
X167902932Y-112958371D01*
X168334357Y-113390551D01*
X168809331Y-113587777D01*
X169152277Y-113930724D01*
X169390728Y-114090051D01*
X169672000Y-114146000D01*
X173101000Y-114146000D01*
X173382272Y-114090051D01*
X173620723Y-113930723D01*
X174255724Y-113295723D01*
X174255726Y-113295720D01*
X178954724Y-108596723D01*
X178954726Y-108596720D01*
X179374447Y-108177000D01*
X189108990Y-108177000D01*
X189101210Y-108195736D01*
X189024728Y-108210949D01*
X188786277Y-108370276D01*
X186170277Y-110986277D01*
X186010949Y-111224728D01*
X185970015Y-111430515D01*
X185463170Y-111769179D01*
X185087069Y-112332053D01*
X184955000Y-112996009D01*
X184955000Y-113063991D01*
X185087069Y-113727947D01*
X185463170Y-114290821D01*
X186026044Y-114666922D01*
X186690000Y-114798991D01*
X187353956Y-114666922D01*
X187916830Y-114290821D01*
X188292931Y-113727947D01*
X188425000Y-113063991D01*
X188425000Y-112996009D01*
X188305252Y-112393991D01*
X188939735Y-112393991D01*
X189172932Y-112958371D01*
X189604357Y-113390551D01*
X190168330Y-113624733D01*
X190778991Y-113625265D01*
X191343371Y-113392068D01*
X191565668Y-113170159D01*
X192774446Y-113170159D01*
X192860852Y-113426643D01*
X193434336Y-113636458D01*
X194044460Y-113610839D01*
X194489148Y-113426643D01*
X194575554Y-113170159D01*
X193675000Y-112269605D01*
X192774446Y-113170159D01*
X191565668Y-113170159D01*
X191775551Y-112960643D01*
X192009733Y-112396670D01*
X192010209Y-111849336D01*
X192128542Y-111849336D01*
X192154161Y-112459460D01*
X192338357Y-112904148D01*
X192594841Y-112990554D01*
X193495395Y-112090000D01*
X192594841Y-111189446D01*
X192338357Y-111275852D01*
X192128542Y-111849336D01*
X192010209Y-111849336D01*
X192010265Y-111786009D01*
X191777068Y-111221629D01*
X191565650Y-111009841D01*
X192774446Y-111009841D01*
X193675000Y-111910395D01*
X194575554Y-111009841D01*
X194489148Y-110753357D01*
X193915664Y-110543542D01*
X193305540Y-110569161D01*
X192860852Y-110753357D01*
X192774446Y-111009841D01*
X191565650Y-111009841D01*
X191345643Y-110789449D01*
X190781670Y-110555267D01*
X190171009Y-110554735D01*
X189606629Y-110787932D01*
X189174449Y-111219357D01*
X188940267Y-111783330D01*
X188939735Y-112393991D01*
X188305252Y-112393991D01*
X188292931Y-112332053D01*
X187916830Y-111769179D01*
X187646738Y-111588709D01*
X189324871Y-109910576D01*
X189604357Y-110190551D01*
X190168330Y-110424733D01*
X190778991Y-110425265D01*
X191343371Y-110192068D01*
X191565668Y-109970159D01*
X192774446Y-109970159D01*
X192860852Y-110226643D01*
X193434336Y-110436458D01*
X194044460Y-110410839D01*
X194489148Y-110226643D01*
X194575554Y-109970159D01*
X193675000Y-109069605D01*
X192774446Y-109970159D01*
X191565668Y-109970159D01*
X191775551Y-109760643D01*
X192009733Y-109196670D01*
X192010265Y-108586009D01*
X191841266Y-108177000D01*
X192301351Y-108177000D01*
X192128542Y-108649336D01*
X192154161Y-109259460D01*
X192338357Y-109704148D01*
X192594841Y-109790554D01*
X193495395Y-108890000D01*
X193481253Y-108875858D01*
X193660858Y-108696253D01*
X193675000Y-108710395D01*
X193689143Y-108696253D01*
X193868748Y-108875858D01*
X193854605Y-108890000D01*
X194467281Y-109502676D01*
X194572932Y-109758371D01*
X195004357Y-110190551D01*
X195568330Y-110424733D01*
X196178991Y-110425265D01*
X196743371Y-110192068D01*
X196975026Y-109960818D01*
X197204357Y-110190551D01*
X197768330Y-110424733D01*
X198378991Y-110425265D01*
X198943371Y-110192068D01*
X199375551Y-109760643D01*
X199609733Y-109196670D01*
X199610265Y-108586009D01*
X199377068Y-108021629D01*
X199025055Y-107669000D01*
X205616553Y-107669000D01*
X201029280Y-112256274D01*
X201029277Y-112256276D01*
X200355554Y-112930000D01*
X199388275Y-112930000D01*
X199609733Y-112396670D01*
X199610265Y-111786009D01*
X199377068Y-111221629D01*
X198945643Y-110789449D01*
X198381670Y-110555267D01*
X197771009Y-110554735D01*
X197206629Y-110787932D01*
X196974974Y-111019182D01*
X196745643Y-110789449D01*
X196181670Y-110555267D01*
X195571009Y-110554735D01*
X195006629Y-110787932D01*
X194574449Y-111219357D01*
X194467368Y-111477237D01*
X193854605Y-112090000D01*
X194467281Y-112702676D01*
X194572932Y-112958371D01*
X195004357Y-113390551D01*
X195193962Y-113469282D01*
X195195949Y-113479272D01*
X195355277Y-113717723D01*
X195822277Y-114184724D01*
X196033930Y-114326145D01*
X196060728Y-114344051D01*
X196342000Y-114400000D01*
X200660000Y-114400000D01*
X200941272Y-114344051D01*
X201179723Y-114184723D01*
X202068724Y-113295723D01*
X202068726Y-113295720D01*
X206767724Y-108596723D01*
X206767726Y-108596720D01*
X207060447Y-108304000D01*
X213650467Y-108304000D01*
X213551277Y-108370276D01*
X210935277Y-110986277D01*
X210775949Y-111224728D01*
X210735015Y-111430515D01*
X210228170Y-111769179D01*
X209852069Y-112332053D01*
X209720000Y-112996009D01*
X209720000Y-113063991D01*
X209852069Y-113727947D01*
X210228170Y-114290821D01*
X210791044Y-114666922D01*
X211455000Y-114798991D01*
X212118956Y-114666922D01*
X212681830Y-114290821D01*
X213057931Y-113727947D01*
X213067678Y-113678947D01*
X213210673Y-113822192D01*
X213554201Y-113964838D01*
X213636463Y-113964910D01*
X213729276Y-114057723D01*
X213967727Y-114217051D01*
X214014394Y-114226333D01*
X214249000Y-114273000D01*
X219329000Y-114273000D01*
X219610272Y-114217051D01*
X219848723Y-114057723D01*
X220296858Y-113609588D01*
X220333330Y-113624733D01*
X220943991Y-113625265D01*
X221508371Y-113392068D01*
X221730668Y-113170159D01*
X221939446Y-113170159D01*
X222025852Y-113426643D01*
X222599336Y-113636458D01*
X223209460Y-113610839D01*
X223654148Y-113426643D01*
X223740554Y-113170159D01*
X222840000Y-112269605D01*
X221939446Y-113170159D01*
X221730668Y-113170159D01*
X221940551Y-112960643D01*
X222047632Y-112702763D01*
X222660395Y-112090000D01*
X223019605Y-112090000D01*
X223920159Y-112990554D01*
X224176643Y-112904148D01*
X224386458Y-112330664D01*
X224360994Y-111724213D01*
X224751392Y-111724213D01*
X224820857Y-111966397D01*
X225344302Y-112153144D01*
X225899368Y-112125362D01*
X226283143Y-111966397D01*
X226352608Y-111724213D01*
X225552000Y-110923605D01*
X224751392Y-111724213D01*
X224360994Y-111724213D01*
X224360839Y-111720540D01*
X224176643Y-111275852D01*
X223920159Y-111189446D01*
X223019605Y-112090000D01*
X222660395Y-112090000D01*
X222047719Y-111477324D01*
X221942068Y-111221629D01*
X221730650Y-111009841D01*
X221939446Y-111009841D01*
X222840000Y-111910395D01*
X223740554Y-111009841D01*
X223654148Y-110753357D01*
X223080664Y-110543542D01*
X222470540Y-110569161D01*
X222025852Y-110753357D01*
X221939446Y-111009841D01*
X221730650Y-111009841D01*
X221510643Y-110789449D01*
X220946670Y-110555267D01*
X220336009Y-110554735D01*
X219771629Y-110787932D01*
X219539974Y-111019182D01*
X219310643Y-110789449D01*
X218746670Y-110555267D01*
X218136009Y-110554735D01*
X217571629Y-110787932D01*
X217139449Y-111219357D01*
X216905267Y-111783330D01*
X216904735Y-112393991D01*
X217073734Y-112803000D01*
X216606010Y-112803000D01*
X216774733Y-112396670D01*
X216775265Y-111786009D01*
X216542068Y-111221629D01*
X216110643Y-110789449D01*
X215546670Y-110555267D01*
X214936009Y-110554735D01*
X214371629Y-110787932D01*
X213939449Y-111219357D01*
X213705267Y-111783330D01*
X213704996Y-112094968D01*
X213555833Y-112094838D01*
X213212057Y-112236883D01*
X213067671Y-112381018D01*
X213057931Y-112332053D01*
X212681830Y-111769179D01*
X212411738Y-111588709D01*
X213464145Y-110536302D01*
X224142856Y-110536302D01*
X224170638Y-111091368D01*
X224329603Y-111475143D01*
X224571787Y-111544608D01*
X225372395Y-110744000D01*
X225731605Y-110744000D01*
X226532213Y-111544608D01*
X226774397Y-111475143D01*
X226961144Y-110951698D01*
X226933362Y-110396632D01*
X226785710Y-110040167D01*
X233760838Y-110040167D01*
X233902883Y-110383943D01*
X234165673Y-110647192D01*
X234509201Y-110789838D01*
X234881167Y-110790162D01*
X234881559Y-110790000D01*
X243192560Y-110790000D01*
X243192560Y-111090150D01*
X241472847Y-112809863D01*
X241326009Y-112809735D01*
X240761629Y-113042932D01*
X240329449Y-113474357D01*
X240095267Y-114038330D01*
X240094735Y-114648991D01*
X240327932Y-115213371D01*
X240559182Y-115445026D01*
X240329449Y-115674357D01*
X240095267Y-116238330D01*
X240094735Y-116848991D01*
X240327932Y-117413371D01*
X240559182Y-117645026D01*
X240329449Y-117874357D01*
X240095267Y-118438330D01*
X240094735Y-119048991D01*
X240212498Y-119334000D01*
X239849016Y-119334000D01*
X239976458Y-118985664D01*
X239950839Y-118375540D01*
X239766643Y-117930852D01*
X239510159Y-117844446D01*
X238609605Y-118745000D01*
X238623748Y-118759143D01*
X238444143Y-118938748D01*
X238430000Y-118924605D01*
X238415858Y-118938748D01*
X238236253Y-118759143D01*
X238250395Y-118745000D01*
X238236253Y-118730858D01*
X238415858Y-118551253D01*
X238430000Y-118565395D01*
X239042676Y-117952719D01*
X239298371Y-117847068D01*
X239730551Y-117415643D01*
X239964733Y-116851670D01*
X239965265Y-116241009D01*
X239732068Y-115676629D01*
X239500818Y-115444974D01*
X239730551Y-115215643D01*
X239964733Y-114651670D01*
X239965265Y-114041009D01*
X239732068Y-113476629D01*
X239300643Y-113044449D01*
X238736670Y-112810267D01*
X238126009Y-112809735D01*
X237561629Y-113042932D01*
X237129449Y-113474357D01*
X236895267Y-114038330D01*
X236894735Y-114648991D01*
X237127932Y-115213371D01*
X237359182Y-115445026D01*
X237129449Y-115674357D01*
X237108736Y-115724241D01*
X236869855Y-115883855D01*
X236869853Y-115883858D01*
X236066855Y-116686855D01*
X235864173Y-116990191D01*
X235793000Y-117348000D01*
X235793000Y-119507000D01*
X235864173Y-119864809D01*
X236066855Y-120168145D01*
X236828855Y-120930145D01*
X237111039Y-121118694D01*
X236895267Y-121638330D01*
X236894735Y-122248991D01*
X237127932Y-122813371D01*
X237559357Y-123245551D01*
X238123330Y-123479733D01*
X238733991Y-123480265D01*
X239298371Y-123247068D01*
X239730551Y-122815643D01*
X239964733Y-122251670D01*
X239965265Y-121641009D01*
X239784697Y-121204000D01*
X240275617Y-121204000D01*
X240095267Y-121638330D01*
X240094735Y-122248991D01*
X240327932Y-122813371D01*
X240759357Y-123245551D01*
X241323330Y-123479733D01*
X241933991Y-123480265D01*
X242498371Y-123247068D01*
X242930551Y-122815643D01*
X243164733Y-122251670D01*
X243165265Y-121641009D01*
X242984697Y-121204000D01*
X247649184Y-121204000D01*
X247835167Y-121204162D01*
X248178943Y-121062117D01*
X248348533Y-120892823D01*
X248385855Y-120930145D01*
X248576384Y-121057452D01*
X248559449Y-121074357D01*
X248325267Y-121638330D01*
X248324735Y-122248991D01*
X248557932Y-122813371D01*
X248989357Y-123245551D01*
X249553330Y-123479733D01*
X250163991Y-123480265D01*
X250728371Y-123247068D01*
X251160551Y-122815643D01*
X251394733Y-122251670D01*
X251394735Y-122248991D01*
X251524735Y-122248991D01*
X251757932Y-122813371D01*
X252189357Y-123245551D01*
X252753330Y-123479733D01*
X253363991Y-123480265D01*
X253928371Y-123247068D01*
X254360551Y-122815643D01*
X254594733Y-122251670D01*
X254595265Y-121641009D01*
X254362068Y-121076629D01*
X253930643Y-120644449D01*
X253366670Y-120410267D01*
X252756009Y-120409735D01*
X252191629Y-120642932D01*
X251759449Y-121074357D01*
X251525267Y-121638330D01*
X251524735Y-122248991D01*
X251394735Y-122248991D01*
X251395265Y-121641009D01*
X251201125Y-121171154D01*
X251393809Y-121132827D01*
X251697145Y-120930145D01*
X252466612Y-120160678D01*
X252753330Y-120279733D01*
X253363991Y-120280265D01*
X253928371Y-120047068D01*
X254360551Y-119615643D01*
X254594733Y-119051670D01*
X254595265Y-118441009D01*
X254362068Y-117876629D01*
X254130818Y-117644974D01*
X254360551Y-117415643D01*
X254594733Y-116851670D01*
X254595186Y-116332104D01*
X255296145Y-115631145D01*
X255498827Y-115327809D01*
X255570000Y-114970000D01*
X255570000Y-113665000D01*
X255499802Y-113312092D01*
X256240000Y-114052290D01*
X256240000Y-114475742D01*
X255959176Y-114756077D01*
X255740250Y-115283309D01*
X255739752Y-115854187D01*
X255957757Y-116381800D01*
X256361077Y-116785824D01*
X256888309Y-117004750D01*
X257459187Y-117005248D01*
X257986800Y-116787243D01*
X258390824Y-116383923D01*
X258609750Y-115856691D01*
X258610248Y-115285813D01*
X258392243Y-114758200D01*
X258110000Y-114475464D01*
X258110000Y-113665000D01*
X258038827Y-113307191D01*
X257836145Y-113003855D01*
X256312145Y-111479855D01*
X256008809Y-111277173D01*
X255651000Y-111206000D01*
X251886935Y-111206000D01*
X251887162Y-110944833D01*
X251745117Y-110601057D01*
X251482327Y-110337808D01*
X251138799Y-110195162D01*
X250766833Y-110194838D01*
X250766441Y-110195000D01*
X248297440Y-110195000D01*
X248297440Y-109365000D01*
X248253162Y-109129683D01*
X248114090Y-108913559D01*
X247901890Y-108768569D01*
X247650000Y-108717560D01*
X246380000Y-108717560D01*
X246144683Y-108761838D01*
X245928559Y-108900910D01*
X245918932Y-108915000D01*
X245575017Y-108915000D01*
X245574090Y-108913559D01*
X245361890Y-108768569D01*
X245110000Y-108717560D01*
X243840000Y-108717560D01*
X243604683Y-108761838D01*
X243388559Y-108900910D01*
X243375515Y-108920000D01*
X234696816Y-108920000D01*
X234510833Y-108919838D01*
X234167057Y-109061883D01*
X233903808Y-109324673D01*
X233761162Y-109668201D01*
X233760838Y-110040167D01*
X226785710Y-110040167D01*
X226774397Y-110012857D01*
X226532213Y-109943392D01*
X225731605Y-110744000D01*
X225372395Y-110744000D01*
X224571787Y-109943392D01*
X224329603Y-110012857D01*
X224142856Y-110536302D01*
X213464145Y-110536302D01*
X214089871Y-109910576D01*
X214369357Y-110190551D01*
X214933330Y-110424733D01*
X215543991Y-110425265D01*
X216108371Y-110192068D01*
X216330668Y-109970159D01*
X217539446Y-109970159D01*
X217625852Y-110226643D01*
X218199336Y-110436458D01*
X218809460Y-110410839D01*
X219254148Y-110226643D01*
X219340554Y-109970159D01*
X218440000Y-109069605D01*
X217539446Y-109970159D01*
X216330668Y-109970159D01*
X216540551Y-109760643D01*
X216774733Y-109196670D01*
X216775265Y-108586009D01*
X216658741Y-108304000D01*
X217019887Y-108304000D01*
X216893542Y-108649336D01*
X216919161Y-109259460D01*
X217103357Y-109704148D01*
X217359841Y-109790554D01*
X218260395Y-108890000D01*
X218246253Y-108875858D01*
X218425858Y-108696253D01*
X218440000Y-108710395D01*
X218454143Y-108696253D01*
X218633748Y-108875858D01*
X218619605Y-108890000D01*
X219232281Y-109502676D01*
X219337932Y-109758371D01*
X219769357Y-110190551D01*
X220333330Y-110424733D01*
X220943991Y-110425265D01*
X221508371Y-110192068D01*
X221740026Y-109960818D01*
X221969357Y-110190551D01*
X222533330Y-110424733D01*
X223143991Y-110425265D01*
X223708371Y-110192068D01*
X224140551Y-109760643D01*
X224299867Y-109376968D01*
X224325910Y-109417441D01*
X224538110Y-109562431D01*
X224790000Y-109613440D01*
X224794516Y-109613440D01*
X224751392Y-109763787D01*
X225552000Y-110564395D01*
X226352608Y-109763787D01*
X226309484Y-109613440D01*
X226314000Y-109613440D01*
X226549317Y-109569162D01*
X226765441Y-109430090D01*
X226910431Y-109217890D01*
X226961440Y-108966000D01*
X226961440Y-107442000D01*
X226917162Y-107206683D01*
X226778090Y-106990559D01*
X226565890Y-106845569D01*
X226314000Y-106794560D01*
X224790000Y-106794560D01*
X224554683Y-106838838D01*
X224338559Y-106977910D01*
X224193569Y-107190110D01*
X224142560Y-107442000D01*
X224142560Y-108022820D01*
X224142068Y-108021629D01*
X223710643Y-107589449D01*
X223146670Y-107355267D01*
X222536009Y-107354735D01*
X221971629Y-107587932D01*
X221739974Y-107819182D01*
X221510643Y-107589449D01*
X220946670Y-107355267D01*
X220336009Y-107354735D01*
X220297212Y-107370766D01*
X219975723Y-107049277D01*
X219762791Y-106907000D01*
X220599000Y-106907000D01*
X220880272Y-106851051D01*
X221118723Y-106691723D01*
X221157446Y-106653000D01*
X247824581Y-106653000D01*
X247881673Y-106710192D01*
X248225201Y-106852838D01*
X248597167Y-106853162D01*
X248940943Y-106711117D01*
X248999162Y-106653000D01*
X257810000Y-106653000D01*
X258091272Y-106597051D01*
X258329723Y-106437723D01*
X259721093Y-105046354D01*
X259848285Y-105021054D01*
X260330054Y-104699147D01*
X260651961Y-104217378D01*
X260765000Y-103649093D01*
X260765000Y-103590907D01*
X260651961Y-103022622D01*
X260330054Y-102540853D01*
X259848285Y-102218946D01*
X259280000Y-102105907D01*
X258711715Y-102218946D01*
X258229946Y-102540853D01*
X258202150Y-102582452D01*
X258193162Y-102534683D01*
X258054090Y-102318559D01*
X257841890Y-102173569D01*
X257590000Y-102122560D01*
X256606850Y-102122560D01*
X255804145Y-101319855D01*
X255500809Y-101117173D01*
X255143000Y-101046000D01*
X192024816Y-101046000D01*
X191838833Y-101045838D01*
X191838441Y-101046000D01*
X180721005Y-101046000D01*
X180721000Y-101045999D01*
X180720995Y-101046000D01*
X162052816Y-101046000D01*
X161866833Y-101045838D01*
X161866441Y-101046000D01*
X104394000Y-101046000D01*
X104036191Y-101117173D01*
X103732855Y-101319855D01*
X102958855Y-102093855D01*
X102939675Y-102122560D01*
X102770000Y-102122560D01*
X102534683Y-102166838D01*
X102318559Y-102305910D01*
X102173569Y-102518110D01*
X102122560Y-102770000D01*
X100710000Y-102770000D01*
X100710000Y-102073274D01*
X100821166Y-101514402D01*
X101097789Y-101100407D01*
X101511780Y-100823787D01*
X102083826Y-100710000D01*
X260430069Y-100710000D01*
X260988338Y-100821046D01*
X260988338Y-100821046D01*
G37*
X260988338Y-100821046D02*
X261402333Y-101097669D01*
X261678953Y-101511660D01*
X261790000Y-102069931D01*
X261790000Y-141680069D01*
X261678953Y-142238340D01*
X261402333Y-142652331D01*
X260988338Y-142928954D01*
X260430069Y-143040000D01*
X102070051Y-143040000D01*
X101511780Y-142928953D01*
X101097789Y-142652333D01*
X100821166Y-142238338D01*
X100710000Y-141679466D01*
X100710000Y-140415750D01*
X118335000Y-140415750D01*
X118335000Y-141106309D01*
X118431673Y-141339698D01*
X118610301Y-141518327D01*
X118843690Y-141615000D01*
X119534250Y-141615000D01*
X119693000Y-141456250D01*
X119693000Y-140257000D01*
X118493750Y-140257000D01*
X118335000Y-140415750D01*
X100710000Y-140415750D01*
X100710000Y-139153691D01*
X118335000Y-139153691D01*
X118335000Y-139844250D01*
X118493750Y-140003000D01*
X119693000Y-140003000D01*
X119693000Y-138803750D01*
X119947000Y-138803750D01*
X119947000Y-140003000D01*
X119967000Y-140003000D01*
X119967000Y-140257000D01*
X119947000Y-140257000D01*
X119947000Y-141456250D01*
X120105750Y-141615000D01*
X120796310Y-141615000D01*
X121029699Y-141518327D01*
X121208327Y-141339698D01*
X121280597Y-141165223D01*
X121309946Y-141209147D01*
X121791715Y-141531054D01*
X122360000Y-141644093D01*
X122928285Y-141531054D01*
X123410054Y-141209147D01*
X123630000Y-140879974D01*
X123849946Y-141209147D01*
X124331715Y-141531054D01*
X124900000Y-141644093D01*
X125468285Y-141531054D01*
X125950054Y-141209147D01*
X126170000Y-140879974D01*
X126389946Y-141209147D01*
X126871715Y-141531054D01*
X127440000Y-141644093D01*
X128008285Y-141531054D01*
X128490054Y-141209147D01*
X128710000Y-140879974D01*
X128929946Y-141209147D01*
X129411715Y-141531054D01*
X129980000Y-141644093D01*
X130548285Y-141531054D01*
X131030054Y-141209147D01*
X131250000Y-140879974D01*
X131469946Y-141209147D01*
X131951715Y-141531054D01*
X132520000Y-141644093D01*
X133088285Y-141531054D01*
X133570054Y-141209147D01*
X133790000Y-140879974D01*
X134009946Y-141209147D01*
X134491715Y-141531054D01*
X135060000Y-141644093D01*
X135628285Y-141531054D01*
X136110054Y-141209147D01*
X136330000Y-140879974D01*
X136549946Y-141209147D01*
X137031715Y-141531054D01*
X137600000Y-141644093D01*
X138168285Y-141531054D01*
X138650054Y-141209147D01*
X138877702Y-140868447D01*
X138944817Y-141011358D01*
X139373076Y-141401645D01*
X139783110Y-141571476D01*
X140013000Y-141450155D01*
X140013000Y-140257000D01*
X139993000Y-140257000D01*
X139993000Y-140003000D01*
X140013000Y-140003000D01*
X140013000Y-138809845D01*
X139783110Y-138688524D01*
X139373076Y-138858355D01*
X138944817Y-139248642D01*
X138877702Y-139391553D01*
X138650054Y-139050853D01*
X138168285Y-138728946D01*
X137600000Y-138615907D01*
X137031715Y-138728946D01*
X136549946Y-139050853D01*
X136330000Y-139380026D01*
X136110054Y-139050853D01*
X135628285Y-138728946D01*
X135060000Y-138615907D01*
X134491715Y-138728946D01*
X134009946Y-139050853D01*
X133790000Y-139380026D01*
X133570054Y-139050853D01*
X133088285Y-138728946D01*
X132520000Y-138615907D01*
X131951715Y-138728946D01*
X131469946Y-139050853D01*
X131250000Y-139380026D01*
X131030054Y-139050853D01*
X130548285Y-138728946D01*
X129980000Y-138615907D01*
X129411715Y-138728946D01*
X128929946Y-139050853D01*
X128710000Y-139380026D01*
X128490054Y-139050853D01*
X128008285Y-138728946D01*
X127440000Y-138615907D01*
X126871715Y-138728946D01*
X126389946Y-139050853D01*
X126170000Y-139380026D01*
X125950054Y-139050853D01*
X125468285Y-138728946D01*
X124900000Y-138615907D01*
X124331715Y-138728946D01*
X123849946Y-139050853D01*
X123630000Y-139380026D01*
X123410054Y-139050853D01*
X122928285Y-138728946D01*
X122360000Y-138615907D01*
X121791715Y-138728946D01*
X121309946Y-139050853D01*
X121280597Y-139094777D01*
X121208327Y-138920302D01*
X121029699Y-138741673D01*
X120796310Y-138645000D01*
X120105750Y-138645000D01*
X119947000Y-138803750D01*
X119693000Y-138803750D01*
X119534250Y-138645000D01*
X118843690Y-138645000D01*
X118610301Y-138741673D01*
X118431673Y-138920302D01*
X118335000Y-139153691D01*
X100710000Y-139153691D01*
X100710000Y-135856009D01*
X102405000Y-135856009D01*
X102405000Y-135923991D01*
X102537069Y-136587947D01*
X102913170Y-137150821D01*
X103476044Y-137526922D01*
X104140000Y-137658991D01*
X104803956Y-137526922D01*
X105366830Y-137150821D01*
X105742931Y-136587947D01*
X105875000Y-135923991D01*
X105875000Y-135856009D01*
X105961000Y-135856009D01*
X105961000Y-135923991D01*
X106093069Y-136587947D01*
X106469170Y-137150821D01*
X107032044Y-137526922D01*
X107696000Y-137658991D01*
X108359956Y-137526922D01*
X108922830Y-137150821D01*
X109298931Y-136587947D01*
X109431000Y-135923991D01*
X109431000Y-135856009D01*
X109517000Y-135856009D01*
X109517000Y-135923991D01*
X109649069Y-136587947D01*
X110025170Y-137150821D01*
X110588044Y-137526922D01*
X111252000Y-137658991D01*
X111915956Y-137526922D01*
X112478830Y-137150821D01*
X112854931Y-136587947D01*
X112987000Y-135923991D01*
X112987000Y-135856009D01*
X113073000Y-135856009D01*
X113073000Y-135923991D01*
X113205069Y-136587947D01*
X113581170Y-137150821D01*
X114144044Y-137526922D01*
X114808000Y-137658991D01*
X115471956Y-137526922D01*
X116034830Y-137150821D01*
X116410931Y-136587947D01*
X116543000Y-135923991D01*
X116543000Y-135856009D01*
X116629000Y-135856009D01*
X116629000Y-135923991D01*
X116761069Y-136587947D01*
X117137170Y-137150821D01*
X117700044Y-137526922D01*
X118364000Y-137658991D01*
X119027956Y-137526922D01*
X119590830Y-137150821D01*
X119966931Y-136587947D01*
X120099000Y-135923991D01*
X120099000Y-135856009D01*
X119966931Y-135192053D01*
X119590830Y-134629179D01*
X119027956Y-134253078D01*
X118364000Y-134121009D01*
X117700044Y-134253078D01*
X117137170Y-134629179D01*
X116761069Y-135192053D01*
X116629000Y-135856009D01*
X116543000Y-135856009D01*
X116410931Y-135192053D01*
X116034830Y-134629179D01*
X115471956Y-134253078D01*
X114808000Y-134121009D01*
X114144044Y-134253078D01*
X113581170Y-134629179D01*
X113205069Y-135192053D01*
X113073000Y-135856009D01*
X112987000Y-135856009D01*
X112854931Y-135192053D01*
X112478830Y-134629179D01*
X111915956Y-134253078D01*
X111252000Y-134121009D01*
X110588044Y-134253078D01*
X110025170Y-134629179D01*
X109649069Y-135192053D01*
X109517000Y-135856009D01*
X109431000Y-135856009D01*
X109298931Y-135192053D01*
X108922830Y-134629179D01*
X108359956Y-134253078D01*
X107696000Y-134121009D01*
X107032044Y-134253078D01*
X106469170Y-134629179D01*
X106093069Y-135192053D01*
X105961000Y-135856009D01*
X105875000Y-135856009D01*
X105742931Y-135192053D01*
X105366830Y-134629179D01*
X104803956Y-134253078D01*
X104140000Y-134121009D01*
X103476044Y-134253078D01*
X102913170Y-134629179D01*
X102537069Y-135192053D01*
X102405000Y-135856009D01*
X100710000Y-135856009D01*
X100710000Y-123360000D01*
X102392560Y-123360000D01*
X102392560Y-125560000D01*
X102436838Y-125795317D01*
X102575910Y-126011441D01*
X102788110Y-126156431D01*
X103040000Y-126207440D01*
X105240000Y-126207440D01*
X105475317Y-126163162D01*
X105691441Y-126024090D01*
X105836431Y-125811890D01*
X105887440Y-125560000D01*
X105887440Y-125195000D01*
X105948560Y-125195000D01*
X105948560Y-125560000D01*
X105992838Y-125795317D01*
X106131910Y-126011441D01*
X106344110Y-126156431D01*
X106596000Y-126207440D01*
X108796000Y-126207440D01*
X109031317Y-126163162D01*
X109247441Y-126024090D01*
X109392431Y-125811890D01*
X109443440Y-125560000D01*
X109443440Y-125195000D01*
X109504560Y-125195000D01*
X109504560Y-125560000D01*
X109548838Y-125795317D01*
X109687910Y-126011441D01*
X109900110Y-126156431D01*
X110152000Y-126207440D01*
X112352000Y-126207440D01*
X112587317Y-126163162D01*
X112803441Y-126024090D01*
X112948431Y-125811890D01*
X112999440Y-125560000D01*
X112999440Y-125195000D01*
X113060560Y-125195000D01*
X113060560Y-125560000D01*
X113104838Y-125795317D01*
X113243910Y-126011441D01*
X113456110Y-126156431D01*
X113708000Y-126207440D01*
X115908000Y-126207440D01*
X116143317Y-126163162D01*
X116359441Y-126024090D01*
X116504431Y-125811890D01*
X116555440Y-125560000D01*
X116555440Y-125195000D01*
X116616560Y-125195000D01*
X116616560Y-125560000D01*
X116660838Y-125795317D01*
X116799910Y-126011441D01*
X117012110Y-126156431D01*
X117264000Y-126207440D01*
X119464000Y-126207440D01*
X119699317Y-126163162D01*
X119915441Y-126024090D01*
X120060431Y-125811890D01*
X120111440Y-125560000D01*
X120111440Y-125195000D01*
X120172560Y-125195000D01*
X120172560Y-125560000D01*
X120216838Y-125795317D01*
X120355910Y-126011441D01*
X120568110Y-126156431D01*
X120820000Y-126207440D01*
X121328005Y-126207440D01*
X121240949Y-126337728D01*
X121204183Y-126522560D01*
X120820000Y-126522560D01*
X120584683Y-126566838D01*
X120368559Y-126705910D01*
X120223569Y-126918110D01*
X120172560Y-127170000D01*
X120172560Y-127535000D01*
X120111440Y-127535000D01*
X120111440Y-127170000D01*
X120067162Y-126934683D01*
X119928090Y-126718559D01*
X119715890Y-126573569D01*
X119464000Y-126522560D01*
X117264000Y-126522560D01*
X117028683Y-126566838D01*
X116812559Y-126705910D01*
X116667569Y-126918110D01*
X116616560Y-127170000D01*
X116616560Y-127535000D01*
X116555440Y-127535000D01*
X116555440Y-127170000D01*
X116511162Y-126934683D01*
X116372090Y-126718559D01*
X116159890Y-126573569D01*
X115908000Y-126522560D01*
X113708000Y-126522560D01*
X113472683Y-126566838D01*
X113256559Y-126705910D01*
X113111569Y-126918110D01*
X113060560Y-127170000D01*
X113060560Y-127535000D01*
X112999440Y-127535000D01*
X112999440Y-127170000D01*
X112955162Y-126934683D01*
X112816090Y-126718559D01*
X112603890Y-126573569D01*
X112352000Y-126522560D01*
X110152000Y-126522560D01*
X109916683Y-126566838D01*
X109700559Y-126705910D01*
X109555569Y-126918110D01*
X109504560Y-127170000D01*
X109504560Y-127535000D01*
X109443440Y-127535000D01*
X109443440Y-127170000D01*
X109399162Y-126934683D01*
X109260090Y-126718559D01*
X109047890Y-126573569D01*
X108796000Y-126522560D01*
X106596000Y-126522560D01*
X106360683Y-126566838D01*
X106144559Y-126705910D01*
X105999569Y-126918110D01*
X105948560Y-127170000D01*
X105948560Y-127535000D01*
X105887440Y-127535000D01*
X105887440Y-127170000D01*
X105843162Y-126934683D01*
X105704090Y-126718559D01*
X105491890Y-126573569D01*
X105240000Y-126522560D01*
X103040000Y-126522560D01*
X102804683Y-126566838D01*
X102588559Y-126705910D01*
X102443569Y-126918110D01*
X102392560Y-127170000D01*
X102392560Y-129370000D01*
X102436838Y-129605317D01*
X102575910Y-129821441D01*
X102788110Y-129966431D01*
X103040000Y-130017440D01*
X103205137Y-130017440D01*
X103204838Y-130360167D01*
X103346883Y-130703943D01*
X103609673Y-130967192D01*
X103953201Y-131109838D01*
X104325167Y-131110162D01*
X104668943Y-130968117D01*
X104727162Y-130910000D01*
X106760912Y-130910000D01*
X106760838Y-130995167D01*
X106902883Y-131338943D01*
X107165673Y-131602192D01*
X107509201Y-131744838D01*
X107881167Y-131745162D01*
X108224943Y-131603117D01*
X108283162Y-131545000D01*
X110316912Y-131545000D01*
X110316838Y-131630167D01*
X110458883Y-131973943D01*
X110721673Y-132237192D01*
X111065201Y-132379838D01*
X111437167Y-132380162D01*
X111780943Y-132238117D01*
X111839162Y-132180000D01*
X113872912Y-132180000D01*
X113872838Y-132265167D01*
X114014883Y-132608943D01*
X114277673Y-132872192D01*
X114621201Y-133014838D01*
X114993167Y-133015162D01*
X115336943Y-132873117D01*
X115395162Y-132815000D01*
X117809912Y-132815000D01*
X117809838Y-132900167D01*
X117951883Y-133243943D01*
X118214673Y-133507192D01*
X118558201Y-133649838D01*
X118930167Y-133650162D01*
X119273943Y-133508117D01*
X119332162Y-133450000D01*
X120984912Y-133450000D01*
X120984838Y-133535167D01*
X121126883Y-133878943D01*
X121389673Y-134142192D01*
X121526945Y-134199193D01*
X121256044Y-134253078D01*
X120693170Y-134629179D01*
X120317069Y-135192053D01*
X120185000Y-135856009D01*
X120185000Y-135923991D01*
X120317069Y-136587947D01*
X120693170Y-137150821D01*
X121256044Y-137526922D01*
X121920000Y-137658991D01*
X122583956Y-137526922D01*
X123146830Y-137150821D01*
X123522931Y-136587947D01*
X123655000Y-135923991D01*
X123655000Y-135856009D01*
X123522931Y-135192053D01*
X123266164Y-134807775D01*
X123337943Y-134778117D01*
X123396162Y-134720000D01*
X124188485Y-134720000D01*
X123873069Y-135192053D01*
X123741000Y-135856009D01*
X123741000Y-135923991D01*
X123873069Y-136587947D01*
X124249170Y-137150821D01*
X124812044Y-137526922D01*
X125476000Y-137658991D01*
X126139956Y-137526922D01*
X126702830Y-137150821D01*
X127078931Y-136587947D01*
X127211000Y-135923991D01*
X127211000Y-135856009D01*
X127078931Y-135192053D01*
X126763515Y-134720000D01*
X127744485Y-134720000D01*
X127429069Y-135192053D01*
X127297000Y-135856009D01*
X127297000Y-135923991D01*
X127429069Y-136587947D01*
X127805170Y-137150821D01*
X128368044Y-137526922D01*
X129032000Y-137658991D01*
X129695956Y-137526922D01*
X130258830Y-137150821D01*
X130634931Y-136587947D01*
X130767000Y-135923991D01*
X130767000Y-135856009D01*
X130634931Y-135192053D01*
X130319515Y-134720000D01*
X131300485Y-134720000D01*
X130985069Y-135192053D01*
X130853000Y-135856009D01*
X130853000Y-135923991D01*
X130985069Y-136587947D01*
X131361170Y-137150821D01*
X131924044Y-137526922D01*
X132588000Y-137658991D01*
X133251956Y-137526922D01*
X133814830Y-137150821D01*
X134190931Y-136587947D01*
X134323000Y-135923991D01*
X134323000Y-135856009D01*
X134190931Y-135192053D01*
X133875515Y-134720000D01*
X134856485Y-134720000D01*
X134541069Y-135192053D01*
X134409000Y-135856009D01*
X134409000Y-135923991D01*
X134541069Y-136587947D01*
X134917170Y-137150821D01*
X135480044Y-137526922D01*
X136144000Y-137658991D01*
X136807956Y-137526922D01*
X137370830Y-137150821D01*
X137746931Y-136587947D01*
X137879000Y-135923991D01*
X137879000Y-135856009D01*
X137746931Y-135192053D01*
X137565091Y-134919911D01*
X137853167Y-134920162D01*
X138196943Y-134778117D01*
X138255162Y-134720000D01*
X138412485Y-134720000D01*
X138097069Y-135192053D01*
X137965000Y-135856009D01*
X137965000Y-135923991D01*
X138097069Y-136587947D01*
X138473170Y-137150821D01*
X139036044Y-137526922D01*
X139700000Y-137658991D01*
X140363956Y-137526922D01*
X140926830Y-137150821D01*
X141302931Y-136587947D01*
X141435000Y-135923991D01*
X141435000Y-135856009D01*
X141302931Y-135192053D01*
X140987515Y-134720000D01*
X141968485Y-134720000D01*
X141653069Y-135192053D01*
X141521000Y-135856009D01*
X141521000Y-135923991D01*
X141653069Y-136587947D01*
X142029170Y-137150821D01*
X142592044Y-137526922D01*
X143256000Y-137658991D01*
X143919956Y-137526922D01*
X144482830Y-137150821D01*
X144858931Y-136587947D01*
X144991000Y-135923991D01*
X144991000Y-135856009D01*
X144858931Y-135192053D01*
X144543515Y-134720000D01*
X145524485Y-134720000D01*
X145209069Y-135192053D01*
X145077000Y-135856009D01*
X145077000Y-135923991D01*
X145209069Y-136587947D01*
X145585170Y-137150821D01*
X146148044Y-137526922D01*
X146812000Y-137658991D01*
X147475956Y-137526922D01*
X148038830Y-137150821D01*
X148414931Y-136587947D01*
X148547000Y-135923991D01*
X148547000Y-135856009D01*
X148414931Y-135192053D01*
X148099515Y-134720000D01*
X149080485Y-134720000D01*
X148765069Y-135192053D01*
X148633000Y-135856009D01*
X148633000Y-135923991D01*
X148765069Y-136587947D01*
X149141170Y-137150821D01*
X149704044Y-137526922D01*
X150368000Y-137658991D01*
X151031956Y-137526922D01*
X151594830Y-137150821D01*
X151970931Y-136587947D01*
X152103000Y-135923991D01*
X152103000Y-135856009D01*
X151970931Y-135192053D01*
X151655515Y-134720000D01*
X152636485Y-134720000D01*
X152321069Y-135192053D01*
X152189000Y-135856009D01*
X152189000Y-135923991D01*
X152321069Y-136587947D01*
X152697170Y-137150821D01*
X153260044Y-137526922D01*
X153924000Y-137658991D01*
X154587956Y-137526922D01*
X155150830Y-137150821D01*
X155526931Y-136587947D01*
X155659000Y-135923991D01*
X155659000Y-135856009D01*
X155526931Y-135192053D01*
X155211515Y-134720000D01*
X156003581Y-134720000D01*
X156060673Y-134777192D01*
X156133942Y-134807616D01*
X155877069Y-135192053D01*
X155745000Y-135856009D01*
X155745000Y-135923991D01*
X155877069Y-136587947D01*
X156253170Y-137150821D01*
X156816044Y-137526922D01*
X157480000Y-137658991D01*
X158143956Y-137526922D01*
X158706830Y-137150821D01*
X159082931Y-136587947D01*
X159215000Y-135923991D01*
X159215000Y-135856009D01*
X159082931Y-135192053D01*
X158767515Y-134720000D01*
X159748485Y-134720000D01*
X159433069Y-135192053D01*
X159301000Y-135856009D01*
X159301000Y-135923991D01*
X159433069Y-136587947D01*
X159809170Y-137150821D01*
X160372044Y-137526922D01*
X161036000Y-137658991D01*
X161699956Y-137526922D01*
X162262830Y-137150821D01*
X162638931Y-136587947D01*
X162771000Y-135923991D01*
X162771000Y-135856009D01*
X162638931Y-135192053D01*
X162323515Y-134720000D01*
X163304485Y-134720000D01*
X162989069Y-135192053D01*
X162857000Y-135856009D01*
X162857000Y-135923991D01*
X162989069Y-136587947D01*
X163365170Y-137150821D01*
X163928044Y-137526922D01*
X164592000Y-137658991D01*
X165255956Y-137526922D01*
X165818830Y-137150821D01*
X166194931Y-136587947D01*
X166327000Y-135923991D01*
X166327000Y-135856009D01*
X166194931Y-135192053D01*
X165879515Y-134720000D01*
X166860485Y-134720000D01*
X166545069Y-135192053D01*
X166413000Y-135856009D01*
X166413000Y-135923991D01*
X166545069Y-136587947D01*
X166921170Y-137150821D01*
X167484044Y-137526922D01*
X168148000Y-137658991D01*
X168811956Y-137526922D01*
X169374830Y-137150821D01*
X169750931Y-136587947D01*
X169883000Y-135923991D01*
X169883000Y-135856009D01*
X169750931Y-135192053D01*
X169435515Y-134720000D01*
X170416485Y-134720000D01*
X170101069Y-135192053D01*
X169969000Y-135856009D01*
X169969000Y-135923991D01*
X170101069Y-136587947D01*
X170477170Y-137150821D01*
X171040044Y-137526922D01*
X171704000Y-137658991D01*
X172367956Y-137526922D01*
X172930830Y-137150821D01*
X173306931Y-136587947D01*
X173439000Y-135923991D01*
X173439000Y-135856009D01*
X173306931Y-135192053D01*
X172991515Y-134720000D01*
X173972485Y-134720000D01*
X173657069Y-135192053D01*
X173525000Y-135856009D01*
X173525000Y-135923991D01*
X173657069Y-136587947D01*
X174033170Y-137150821D01*
X174596044Y-137526922D01*
X175260000Y-137658991D01*
X175923956Y-137526922D01*
X176486830Y-137150821D01*
X176862931Y-136587947D01*
X176995000Y-135923991D01*
X176995000Y-135856009D01*
X176862931Y-135192053D01*
X176547515Y-134720000D01*
X177528485Y-134720000D01*
X177213069Y-135192053D01*
X177081000Y-135856009D01*
X177081000Y-135923991D01*
X177213069Y-136587947D01*
X177589170Y-137150821D01*
X178152044Y-137526922D01*
X178816000Y-137658991D01*
X179479956Y-137526922D01*
X180042830Y-137150821D01*
X180418931Y-136587947D01*
X180551000Y-135923991D01*
X180551000Y-135856009D01*
X180418931Y-135192053D01*
X180103515Y-134720000D01*
X181084485Y-134720000D01*
X180769069Y-135192053D01*
X180637000Y-135856009D01*
X180637000Y-135923991D01*
X180769069Y-136587947D01*
X181145170Y-137150821D01*
X181708044Y-137526922D01*
X182372000Y-137658991D01*
X183035956Y-137526922D01*
X183598830Y-137150821D01*
X183974931Y-136587947D01*
X184107000Y-135923991D01*
X184107000Y-135856009D01*
X183974931Y-135192053D01*
X183659515Y-134720000D01*
X184640485Y-134720000D01*
X184325069Y-135192053D01*
X184193000Y-135856009D01*
X184193000Y-135923991D01*
X184325069Y-136587947D01*
X184701170Y-137150821D01*
X185258495Y-137523215D01*
X183586710Y-139195000D01*
X143826370Y-139195000D01*
X143730054Y-139050853D01*
X143248285Y-138728946D01*
X142680000Y-138615907D01*
X142111715Y-138728946D01*
X141629946Y-139050853D01*
X141402298Y-139391553D01*
X141335183Y-139248642D01*
X140906924Y-138858355D01*
X140496890Y-138688524D01*
X140267000Y-138809845D01*
X140267000Y-140003000D01*
X140287000Y-140003000D01*
X140287000Y-140257000D01*
X140267000Y-140257000D01*
X140267000Y-141450155D01*
X140496890Y-141571476D01*
X140906924Y-141401645D01*
X141335183Y-141011358D01*
X141402298Y-140868447D01*
X141629946Y-141209147D01*
X142111715Y-141531054D01*
X142680000Y-141644093D01*
X143248285Y-141531054D01*
X143730054Y-141209147D01*
X143826370Y-141065000D01*
X183974000Y-141065000D01*
X184331809Y-140993827D01*
X184635145Y-140791145D01*
X185010540Y-140415750D01*
X187085000Y-140415750D01*
X187085000Y-141106309D01*
X187181673Y-141339698D01*
X187360301Y-141518327D01*
X187593690Y-141615000D01*
X188284250Y-141615000D01*
X188443000Y-141456250D01*
X188443000Y-140257000D01*
X187243750Y-140257000D01*
X187085000Y-140415750D01*
X185010540Y-140415750D01*
X186442290Y-138984000D01*
X187155288Y-138984000D01*
X187085000Y-139153691D01*
X187085000Y-139844250D01*
X187243750Y-140003000D01*
X188443000Y-140003000D01*
X188443000Y-139983000D01*
X188697000Y-139983000D01*
X188697000Y-140003000D01*
X188717000Y-140003000D01*
X188717000Y-140257000D01*
X188697000Y-140257000D01*
X188697000Y-141456250D01*
X188855750Y-141615000D01*
X189546310Y-141615000D01*
X189779699Y-141518327D01*
X189958327Y-141339698D01*
X190030597Y-141165223D01*
X190059946Y-141209147D01*
X190541715Y-141531054D01*
X191110000Y-141644093D01*
X191678285Y-141531054D01*
X192160054Y-141209147D01*
X192380000Y-140879974D01*
X192599946Y-141209147D01*
X193081715Y-141531054D01*
X193650000Y-141644093D01*
X194218285Y-141531054D01*
X194700054Y-141209147D01*
X194920000Y-140879974D01*
X195139946Y-141209147D01*
X195621715Y-141531054D01*
X196190000Y-141644093D01*
X196758285Y-141531054D01*
X197240054Y-141209147D01*
X197460000Y-140879974D01*
X197679946Y-141209147D01*
X198161715Y-141531054D01*
X198730000Y-141644093D01*
X199298285Y-141531054D01*
X199780054Y-141209147D01*
X200000000Y-140879974D01*
X200219946Y-141209147D01*
X200701715Y-141531054D01*
X201270000Y-141644093D01*
X201838285Y-141531054D01*
X202320054Y-141209147D01*
X202540000Y-140879974D01*
X202759946Y-141209147D01*
X203241715Y-141531054D01*
X203810000Y-141644093D01*
X204378285Y-141531054D01*
X204860054Y-141209147D01*
X205080000Y-140879974D01*
X205299946Y-141209147D01*
X205781715Y-141531054D01*
X206350000Y-141644093D01*
X206918285Y-141531054D01*
X207400054Y-141209147D01*
X207627702Y-140868447D01*
X207694817Y-141011358D01*
X208123076Y-141401645D01*
X208533110Y-141571476D01*
X208763000Y-141450155D01*
X208763000Y-140257000D01*
X208743000Y-140257000D01*
X208743000Y-140003000D01*
X208763000Y-140003000D01*
X208763000Y-139983000D01*
X209017000Y-139983000D01*
X209017000Y-140003000D01*
X209037000Y-140003000D01*
X209037000Y-140257000D01*
X209017000Y-140257000D01*
X209017000Y-141450155D01*
X209246890Y-141571476D01*
X209656924Y-141401645D01*
X210085183Y-141011358D01*
X210152298Y-140868447D01*
X210379946Y-141209147D01*
X210861715Y-141531054D01*
X211430000Y-141644093D01*
X211998285Y-141531054D01*
X212480054Y-141209147D01*
X212576370Y-141065000D01*
X216569851Y-141065000D01*
X216705910Y-141276441D01*
X216918110Y-141421431D01*
X217170000Y-141472440D01*
X218440000Y-141472440D01*
X218675317Y-141428162D01*
X218891441Y-141289090D01*
X218901068Y-141275000D01*
X219244983Y-141275000D01*
X219245910Y-141276441D01*
X219458110Y-141421431D01*
X219710000Y-141472440D01*
X220980000Y-141472440D01*
X221215317Y-141428162D01*
X221431441Y-141289090D01*
X221576431Y-141076890D01*
X221627440Y-140825000D01*
X221627440Y-139995000D01*
X232923000Y-139995000D01*
X233280809Y-139923827D01*
X233584145Y-139721145D01*
X235102854Y-138202436D01*
X235234192Y-138071327D01*
X235376838Y-137727799D01*
X235377162Y-137355833D01*
X235235117Y-137012057D01*
X234972327Y-136748808D01*
X234628799Y-136606162D01*
X234256833Y-136605838D01*
X233913057Y-136747883D01*
X233649808Y-137010673D01*
X233649645Y-137011065D01*
X232535710Y-138125000D01*
X221445017Y-138125000D01*
X221444090Y-138123559D01*
X221231890Y-137978569D01*
X220980000Y-137927560D01*
X219710000Y-137927560D01*
X219474683Y-137971838D01*
X219258559Y-138110910D01*
X219113569Y-138323110D01*
X219075457Y-138511314D01*
X219043162Y-138339683D01*
X218904090Y-138123559D01*
X218691890Y-137978569D01*
X218440000Y-137927560D01*
X217170000Y-137927560D01*
X216934683Y-137971838D01*
X216718559Y-138110910D01*
X216705566Y-138129927D01*
X216603833Y-138129838D01*
X216449879Y-138193450D01*
X216436191Y-138196173D01*
X216424688Y-138203859D01*
X216260057Y-138271883D01*
X216132880Y-138398838D01*
X216132855Y-138398855D01*
X216132839Y-138398880D01*
X215996808Y-138534673D01*
X215854162Y-138878201D01*
X215853886Y-139195000D01*
X212576370Y-139195000D01*
X212480054Y-139050853D01*
X212380001Y-138984000D01*
X212979000Y-138984000D01*
X213042500Y-138971369D01*
X213106000Y-138984000D01*
X213463809Y-138912827D01*
X213767145Y-138710145D01*
X215398290Y-137079000D01*
X231647184Y-137079000D01*
X231833167Y-137079162D01*
X232176943Y-136937117D01*
X232440192Y-136674327D01*
X232582838Y-136330799D01*
X232583162Y-135958833D01*
X232521252Y-135809000D01*
X247389710Y-135809000D01*
X250335000Y-138754290D01*
X250335000Y-138973977D01*
X250219946Y-139050853D01*
X250192150Y-139092452D01*
X250183162Y-139044683D01*
X250044090Y-138828559D01*
X249831890Y-138683569D01*
X249580000Y-138632560D01*
X247880000Y-138632560D01*
X247644683Y-138676838D01*
X247428559Y-138815910D01*
X247283569Y-139028110D01*
X247232560Y-139280000D01*
X247232560Y-140980000D01*
X247276838Y-141215317D01*
X247415910Y-141431441D01*
X247628110Y-141576431D01*
X247880000Y-141627440D01*
X249580000Y-141627440D01*
X249815317Y-141583162D01*
X250031441Y-141444090D01*
X250176431Y-141231890D01*
X250190086Y-141164459D01*
X250219946Y-141209147D01*
X250701715Y-141531054D01*
X251270000Y-141644093D01*
X251838285Y-141531054D01*
X252320054Y-141209147D01*
X252641961Y-140727378D01*
X252755000Y-140159093D01*
X252755000Y-140100907D01*
X252641961Y-139532622D01*
X252320054Y-139050853D01*
X252205000Y-138973977D01*
X252205000Y-138367000D01*
X252133827Y-138009191D01*
X251931145Y-137705855D01*
X248438145Y-134212855D01*
X248134809Y-134010173D01*
X247777000Y-133939000D01*
X210058816Y-133939000D01*
X209872833Y-133938838D01*
X209529057Y-134080883D01*
X209265808Y-134343673D01*
X209123162Y-134687201D01*
X209122838Y-135059167D01*
X209264883Y-135402943D01*
X209527673Y-135666192D01*
X209871201Y-135808838D01*
X210243167Y-135809162D01*
X210243559Y-135809000D01*
X214023710Y-135809000D01*
X212718710Y-137114000D01*
X197847433Y-137114000D01*
X198198931Y-136587947D01*
X198331000Y-135923991D01*
X198331000Y-135856009D01*
X198198931Y-135192053D01*
X197883515Y-134720000D01*
X205787581Y-134720000D01*
X205844673Y-134777192D01*
X206188201Y-134919838D01*
X206560167Y-134920162D01*
X206903943Y-134778117D01*
X207167192Y-134515327D01*
X207309838Y-134171799D01*
X207310162Y-133799833D01*
X207168117Y-133456057D01*
X206905327Y-133192808D01*
X206561799Y-133050162D01*
X206189833Y-133049838D01*
X205846057Y-133191883D01*
X205787838Y-133250000D01*
X204770088Y-133250000D01*
X204770162Y-133164833D01*
X204628117Y-132821057D01*
X204365327Y-132557808D01*
X204021799Y-132415162D01*
X203649833Y-132414838D01*
X203306057Y-132556883D01*
X203247838Y-132615000D01*
X202205110Y-132615000D01*
X202205162Y-132554833D01*
X202063117Y-132211057D01*
X201800327Y-131947808D01*
X201456799Y-131805162D01*
X201084833Y-131804838D01*
X200741057Y-131946883D01*
X200707882Y-131980000D01*
X199690088Y-131980000D01*
X199690162Y-131894833D01*
X199548117Y-131551057D01*
X199285327Y-131287808D01*
X198941799Y-131145162D01*
X198569833Y-131144838D01*
X198226057Y-131286883D01*
X198167838Y-131345000D01*
X196007088Y-131345000D01*
X196007162Y-131259833D01*
X195865117Y-130916057D01*
X195602327Y-130652808D01*
X195258799Y-130510162D01*
X194886833Y-130509838D01*
X194543057Y-130651883D01*
X194484838Y-130710000D01*
X193975088Y-130710000D01*
X193975162Y-130624833D01*
X193833117Y-130281057D01*
X193570327Y-130017808D01*
X193569441Y-130017440D01*
X194140000Y-130017440D01*
X194375317Y-129973162D01*
X194591441Y-129834090D01*
X194736431Y-129621890D01*
X194787440Y-129370000D01*
X194787440Y-129005000D01*
X194848560Y-129005000D01*
X194848560Y-129370000D01*
X194892838Y-129605317D01*
X195031910Y-129821441D01*
X195244110Y-129966431D01*
X195496000Y-130017440D01*
X197696000Y-130017440D01*
X197931317Y-129973162D01*
X198147441Y-129834090D01*
X198292431Y-129621890D01*
X198309014Y-129540000D01*
X235721009Y-129540000D01*
X235853078Y-130203956D01*
X236229179Y-130766830D01*
X236792053Y-131142931D01*
X237456009Y-131275000D01*
X237523991Y-131275000D01*
X238187947Y-131142931D01*
X238750821Y-130766830D01*
X239126922Y-130203956D01*
X239258991Y-129540000D01*
X239126922Y-128876044D01*
X238835567Y-128440000D01*
X243362560Y-128440000D01*
X243362560Y-130640000D01*
X243406838Y-130875317D01*
X243545910Y-131091441D01*
X243758110Y-131236431D01*
X244010000Y-131287440D01*
X246210000Y-131287440D01*
X246445317Y-131243162D01*
X246661441Y-131104090D01*
X246806431Y-130891890D01*
X246857440Y-130640000D01*
X246857440Y-130275000D01*
X247172560Y-130275000D01*
X247172560Y-130640000D01*
X247216838Y-130875317D01*
X247355910Y-131091441D01*
X247568110Y-131236431D01*
X247820000Y-131287440D01*
X250020000Y-131287440D01*
X250255317Y-131243162D01*
X250471441Y-131104090D01*
X250616431Y-130891890D01*
X250667440Y-130640000D01*
X250667440Y-129540000D01*
X254771009Y-129540000D01*
X254903078Y-130203956D01*
X255279179Y-130766830D01*
X255842053Y-131142931D01*
X256506009Y-131275000D01*
X256573991Y-131275000D01*
X257237947Y-131142931D01*
X257800821Y-130766830D01*
X258176922Y-130203956D01*
X258308991Y-129540000D01*
X258176922Y-128876044D01*
X257800821Y-128313170D01*
X257237947Y-127937069D01*
X256573991Y-127805000D01*
X256506009Y-127805000D01*
X255842053Y-127937069D01*
X255279179Y-128313170D01*
X254903078Y-128876044D01*
X254771009Y-129540000D01*
X250667440Y-129540000D01*
X250667440Y-128440000D01*
X250623162Y-128204683D01*
X250484090Y-127988559D01*
X250271890Y-127843569D01*
X250020000Y-127792560D01*
X247820000Y-127792560D01*
X247584683Y-127836838D01*
X247368559Y-127975910D01*
X247223569Y-128188110D01*
X247172560Y-128440000D01*
X247172560Y-128805000D01*
X246857440Y-128805000D01*
X246857440Y-128440000D01*
X246813162Y-128204683D01*
X246674090Y-127988559D01*
X246461890Y-127843569D01*
X246210000Y-127792560D01*
X244010000Y-127792560D01*
X243774683Y-127836838D01*
X243558559Y-127975910D01*
X243413569Y-128188110D01*
X243362560Y-128440000D01*
X238835567Y-128440000D01*
X238750821Y-128313170D01*
X238187947Y-127937069D01*
X237523991Y-127805000D01*
X237456009Y-127805000D01*
X236792053Y-127937069D01*
X236229179Y-128313170D01*
X235853078Y-128876044D01*
X235721009Y-129540000D01*
X198309014Y-129540000D01*
X198343440Y-129370000D01*
X198343440Y-127354000D01*
X217852581Y-127354000D01*
X217909673Y-127411192D01*
X218253201Y-127553838D01*
X218625167Y-127554162D01*
X218968943Y-127412117D01*
X219232192Y-127149327D01*
X219374838Y-126805799D01*
X219375162Y-126433833D01*
X219233117Y-126090057D01*
X219157380Y-126014187D01*
X236134752Y-126014187D01*
X236352757Y-126541800D01*
X236756077Y-126945824D01*
X237283309Y-127164750D01*
X237854187Y-127165248D01*
X238195188Y-127024350D01*
X238533309Y-127164750D01*
X239104187Y-127165248D01*
X239631800Y-126947243D01*
X240035824Y-126543923D01*
X240069813Y-126462069D01*
X240102757Y-126541800D01*
X240506077Y-126945824D01*
X241033309Y-127164750D01*
X241604187Y-127165248D01*
X241945188Y-127024350D01*
X242283309Y-127164750D01*
X242854187Y-127165248D01*
X243381800Y-126947243D01*
X243785824Y-126543923D01*
X244004750Y-126016691D01*
X244005024Y-125701887D01*
X244310000Y-125701887D01*
X244310000Y-125758113D01*
X244419233Y-126307264D01*
X244730302Y-126772811D01*
X245195849Y-127083880D01*
X245745000Y-127193113D01*
X246294151Y-127083880D01*
X246759698Y-126772811D01*
X247070767Y-126307264D01*
X247129063Y-126014187D01*
X247564752Y-126014187D01*
X247782757Y-126541800D01*
X248186077Y-126945824D01*
X248713309Y-127164750D01*
X249284187Y-127165248D01*
X249625188Y-127024350D01*
X249963309Y-127164750D01*
X250534187Y-127165248D01*
X251061800Y-126947243D01*
X251465824Y-126543923D01*
X251499813Y-126462069D01*
X251532757Y-126541800D01*
X251936077Y-126945824D01*
X252463309Y-127164750D01*
X253034187Y-127165248D01*
X253375188Y-127024350D01*
X253713309Y-127164750D01*
X254284187Y-127165248D01*
X254811800Y-126947243D01*
X255215824Y-126543923D01*
X255434750Y-126016691D01*
X255435024Y-125701887D01*
X255740000Y-125701887D01*
X255740000Y-125758113D01*
X255849233Y-126307264D01*
X256160302Y-126772811D01*
X256625849Y-127083880D01*
X257175000Y-127193113D01*
X257724151Y-127083880D01*
X258189698Y-126772811D01*
X258500767Y-126307264D01*
X258610000Y-125758113D01*
X258610000Y-125701887D01*
X258500767Y-125152736D01*
X258189698Y-124687189D01*
X257724151Y-124376120D01*
X257175000Y-124266887D01*
X256625849Y-124376120D01*
X256160302Y-124687189D01*
X255849233Y-125152736D01*
X255740000Y-125701887D01*
X255435024Y-125701887D01*
X255435248Y-125445813D01*
X255217243Y-124918200D01*
X254813923Y-124514176D01*
X254286691Y-124295250D01*
X253715813Y-124294752D01*
X253374812Y-124435650D01*
X253036691Y-124295250D01*
X252465813Y-124294752D01*
X251938200Y-124512757D01*
X251534176Y-124916077D01*
X251500187Y-124997931D01*
X251467243Y-124918200D01*
X251063923Y-124514176D01*
X250536691Y-124295250D01*
X249965813Y-124294752D01*
X249624812Y-124435650D01*
X249286691Y-124295250D01*
X248715813Y-124294752D01*
X248188200Y-124512757D01*
X247784176Y-124916077D01*
X247565250Y-125443309D01*
X247564752Y-126014187D01*
X247129063Y-126014187D01*
X247180000Y-125758113D01*
X247180000Y-125701887D01*
X247070767Y-125152736D01*
X246759698Y-124687189D01*
X246294151Y-124376120D01*
X245745000Y-124266887D01*
X245195849Y-124376120D01*
X244730302Y-124687189D01*
X244419233Y-125152736D01*
X244310000Y-125701887D01*
X244005024Y-125701887D01*
X244005248Y-125445813D01*
X243787243Y-124918200D01*
X243383923Y-124514176D01*
X242856691Y-124295250D01*
X242285813Y-124294752D01*
X241944812Y-124435650D01*
X241606691Y-124295250D01*
X241035813Y-124294752D01*
X240508200Y-124512757D01*
X240104176Y-124916077D01*
X240070187Y-124997931D01*
X240037243Y-124918200D01*
X239633923Y-124514176D01*
X239106691Y-124295250D01*
X238535813Y-124294752D01*
X238194812Y-124435650D01*
X237856691Y-124295250D01*
X237285813Y-124294752D01*
X236758200Y-124512757D01*
X236354176Y-124916077D01*
X236135250Y-125443309D01*
X236134752Y-126014187D01*
X219157380Y-126014187D01*
X218970327Y-125826808D01*
X218626799Y-125684162D01*
X218254833Y-125683838D01*
X217911057Y-125825883D01*
X217852838Y-125884000D01*
X201047722Y-125884000D01*
X201086838Y-125789799D01*
X201087162Y-125417833D01*
X200995090Y-125195000D01*
X222170581Y-125195000D01*
X222227673Y-125252192D01*
X222571201Y-125394838D01*
X222943167Y-125395162D01*
X223286943Y-125253117D01*
X223550192Y-124990327D01*
X223692838Y-124646799D01*
X223693162Y-124274833D01*
X223551117Y-123931057D01*
X223288327Y-123667808D01*
X222944799Y-123525162D01*
X222572833Y-123524838D01*
X222229057Y-123666883D01*
X222170838Y-123725000D01*
X180563440Y-123725000D01*
X180563440Y-123360000D01*
X180550269Y-123290000D01*
X181657581Y-123290000D01*
X181714673Y-123347192D01*
X182058201Y-123489838D01*
X182430167Y-123490162D01*
X182773943Y-123348117D01*
X183037192Y-123085327D01*
X183179838Y-122741799D01*
X183180162Y-122369833D01*
X183038117Y-122026057D01*
X182775327Y-121762808D01*
X182431799Y-121620162D01*
X182059833Y-121619838D01*
X181716057Y-121761883D01*
X181657838Y-121820000D01*
X170480088Y-121820000D01*
X170480162Y-121734833D01*
X170338117Y-121391057D01*
X170332071Y-121385000D01*
X171116581Y-121385000D01*
X171173673Y-121442192D01*
X171517201Y-121584838D01*
X171889167Y-121585162D01*
X172232943Y-121443117D01*
X172496192Y-121180327D01*
X172638838Y-120836799D01*
X172638839Y-120835167D01*
X179404838Y-120835167D01*
X179546883Y-121178943D01*
X179809673Y-121442192D01*
X180153201Y-121584838D01*
X180525167Y-121585162D01*
X180868943Y-121443117D01*
X180927162Y-121385000D01*
X195627581Y-121385000D01*
X195684673Y-121442192D01*
X196028201Y-121584838D01*
X196400167Y-121585162D01*
X196743943Y-121443117D01*
X197007192Y-121180327D01*
X197149838Y-120836799D01*
X197149961Y-120696000D01*
X215518184Y-120696000D01*
X215704167Y-120696162D01*
X216047943Y-120554117D01*
X216311192Y-120291327D01*
X216453838Y-119947799D01*
X216454162Y-119575833D01*
X216312117Y-119232057D01*
X216049327Y-118968808D01*
X215705799Y-118826162D01*
X215333833Y-118825838D01*
X215333441Y-118826000D01*
X185293816Y-118826000D01*
X185107833Y-118825838D01*
X184764057Y-118967883D01*
X184500808Y-119230673D01*
X184358162Y-119574201D01*
X184357865Y-119915000D01*
X180927419Y-119915000D01*
X180870327Y-119857808D01*
X180526799Y-119715162D01*
X180154833Y-119714838D01*
X179811057Y-119856883D01*
X179547808Y-120119673D01*
X179405162Y-120463201D01*
X179404838Y-120835167D01*
X172638839Y-120835167D01*
X172639162Y-120464833D01*
X172497117Y-120121057D01*
X172234327Y-119857808D01*
X171890799Y-119715162D01*
X171518833Y-119714838D01*
X171175057Y-119856883D01*
X171116838Y-119915000D01*
X169083088Y-119915000D01*
X169083162Y-119829833D01*
X168941117Y-119486057D01*
X168678327Y-119222808D01*
X168334799Y-119080162D01*
X167962833Y-119079838D01*
X167619057Y-119221883D01*
X167560838Y-119280000D01*
X165527088Y-119280000D01*
X165527162Y-119194833D01*
X165385117Y-118851057D01*
X165122327Y-118587808D01*
X164985055Y-118530807D01*
X165255956Y-118476922D01*
X165818830Y-118100821D01*
X166194931Y-117537947D01*
X166327000Y-116873991D01*
X166327000Y-116806009D01*
X166413000Y-116806009D01*
X166413000Y-116873991D01*
X166545069Y-117537947D01*
X166921170Y-118100821D01*
X167484044Y-118476922D01*
X168148000Y-118608991D01*
X168811956Y-118476922D01*
X169374830Y-118100821D01*
X169750931Y-117537947D01*
X169883000Y-116873991D01*
X169883000Y-116806009D01*
X169969000Y-116806009D01*
X169969000Y-116873991D01*
X170101069Y-117537947D01*
X170477170Y-118100821D01*
X171040044Y-118476922D01*
X171704000Y-118608991D01*
X172367956Y-118476922D01*
X172930830Y-118100821D01*
X173306931Y-117537947D01*
X173439000Y-116873991D01*
X173439000Y-116806009D01*
X173525000Y-116806009D01*
X173525000Y-116873991D01*
X173657069Y-117537947D01*
X174033170Y-118100821D01*
X174596044Y-118476922D01*
X175260000Y-118608991D01*
X175923956Y-118476922D01*
X176486830Y-118100821D01*
X176862931Y-117537947D01*
X176995000Y-116873991D01*
X176995000Y-116806009D01*
X177081000Y-116806009D01*
X177081000Y-116873991D01*
X177213069Y-117537947D01*
X177589170Y-118100821D01*
X178152044Y-118476922D01*
X178816000Y-118608991D01*
X179479956Y-118476922D01*
X180042830Y-118100821D01*
X180418931Y-117537947D01*
X180551000Y-116873991D01*
X180551000Y-116806009D01*
X180418931Y-116142053D01*
X180042830Y-115579179D01*
X179479956Y-115203078D01*
X178816000Y-115071009D01*
X178152044Y-115203078D01*
X177589170Y-115579179D01*
X177213069Y-116142053D01*
X177081000Y-116806009D01*
X176995000Y-116806009D01*
X176862931Y-116142053D01*
X176486830Y-115579179D01*
X175923956Y-115203078D01*
X175260000Y-115071009D01*
X174596044Y-115203078D01*
X174033170Y-115579179D01*
X173657069Y-116142053D01*
X173525000Y-116806009D01*
X173439000Y-116806009D01*
X173306931Y-116142053D01*
X172930830Y-115579179D01*
X172367956Y-115203078D01*
X171704000Y-115071009D01*
X171040044Y-115203078D01*
X170477170Y-115579179D01*
X170101069Y-116142053D01*
X169969000Y-116806009D01*
X169883000Y-116806009D01*
X169750931Y-116142053D01*
X169374830Y-115579179D01*
X168811956Y-115203078D01*
X168148000Y-115071009D01*
X167484044Y-115203078D01*
X166921170Y-115579179D01*
X166545069Y-116142053D01*
X166413000Y-116806009D01*
X166327000Y-116806009D01*
X166194931Y-116142053D01*
X165818830Y-115579179D01*
X165255956Y-115203078D01*
X164592000Y-115071009D01*
X163928044Y-115203078D01*
X163365170Y-115579179D01*
X162989069Y-116142053D01*
X162857000Y-116806009D01*
X162857000Y-116873991D01*
X162989069Y-117537947D01*
X163365170Y-118100821D01*
X163928044Y-118476922D01*
X164198827Y-118530784D01*
X164063057Y-118586883D01*
X164004838Y-118645000D01*
X161971088Y-118645000D01*
X161971162Y-118559833D01*
X161885639Y-118352852D01*
X162262830Y-118100821D01*
X162638931Y-117537947D01*
X162771000Y-116873991D01*
X162771000Y-116806009D01*
X162638931Y-116142053D01*
X162262830Y-115579179D01*
X161699956Y-115203078D01*
X161036000Y-115071009D01*
X160372044Y-115203078D01*
X159809170Y-115579179D01*
X159433069Y-116142053D01*
X159301000Y-116806009D01*
X159301000Y-116873991D01*
X159433069Y-117537947D01*
X159748485Y-118010000D01*
X158767515Y-118010000D01*
X159082931Y-117537947D01*
X159215000Y-116873991D01*
X159215000Y-116806009D01*
X159082931Y-116142053D01*
X158706830Y-115579179D01*
X158143956Y-115203078D01*
X157480000Y-115071009D01*
X156816044Y-115203078D01*
X156253170Y-115579179D01*
X155877069Y-116142053D01*
X155745000Y-116806009D01*
X155745000Y-116873991D01*
X155877069Y-117537947D01*
X156192485Y-118010000D01*
X155211515Y-118010000D01*
X155526931Y-117537947D01*
X155659000Y-116873991D01*
X155659000Y-116806009D01*
X155526931Y-116142053D01*
X155150830Y-115579179D01*
X154587956Y-115203078D01*
X153924000Y-115071009D01*
X153260044Y-115203078D01*
X152697170Y-115579179D01*
X152321069Y-116142053D01*
X152189000Y-116806009D01*
X152189000Y-116873991D01*
X152321069Y-117537947D01*
X152636485Y-118010000D01*
X151655515Y-118010000D01*
X151970931Y-117537947D01*
X152103000Y-116873991D01*
X152103000Y-116806009D01*
X151970931Y-116142053D01*
X151594830Y-115579179D01*
X151031956Y-115203078D01*
X150368000Y-115071009D01*
X149704044Y-115203078D01*
X149141170Y-115579179D01*
X148765069Y-116142053D01*
X148633000Y-116806009D01*
X148633000Y-116873991D01*
X148765069Y-117537947D01*
X149080485Y-118010000D01*
X148099515Y-118010000D01*
X148414931Y-117537947D01*
X148547000Y-116873991D01*
X148547000Y-116806009D01*
X148414931Y-116142053D01*
X148038830Y-115579179D01*
X147475956Y-115203078D01*
X146812000Y-115071009D01*
X146148044Y-115203078D01*
X145585170Y-115579179D01*
X145209069Y-116142053D01*
X145077000Y-116806009D01*
X145077000Y-116873991D01*
X145209069Y-117537947D01*
X145524485Y-118010000D01*
X144543515Y-118010000D01*
X144858931Y-117537947D01*
X144991000Y-116873991D01*
X144991000Y-116806009D01*
X144858931Y-116142053D01*
X144482830Y-115579179D01*
X143919956Y-115203078D01*
X143256000Y-115071009D01*
X142592044Y-115203078D01*
X142029170Y-115579179D01*
X141653069Y-116142053D01*
X141521000Y-116806009D01*
X141521000Y-116873991D01*
X141653069Y-117537947D01*
X141968485Y-118010000D01*
X140987515Y-118010000D01*
X141302931Y-117537947D01*
X141435000Y-116873991D01*
X141435000Y-116806009D01*
X141302931Y-116142053D01*
X140926830Y-115579179D01*
X140363956Y-115203078D01*
X139700000Y-115071009D01*
X139036044Y-115203078D01*
X138473170Y-115579179D01*
X138097069Y-116142053D01*
X137965000Y-116806009D01*
X137965000Y-116873991D01*
X138097069Y-117537947D01*
X138412485Y-118010000D01*
X137431515Y-118010000D01*
X137746931Y-117537947D01*
X137879000Y-116873991D01*
X137879000Y-116806009D01*
X137746931Y-116142053D01*
X137370830Y-115579179D01*
X136807956Y-115203078D01*
X136144000Y-115071009D01*
X135480044Y-115203078D01*
X134917170Y-115579179D01*
X134541069Y-116142053D01*
X134409000Y-116806009D01*
X134409000Y-116873991D01*
X134541069Y-117537947D01*
X134856485Y-118010000D01*
X133875515Y-118010000D01*
X134190931Y-117537947D01*
X134323000Y-116873991D01*
X134323000Y-116806009D01*
X134190931Y-116142053D01*
X133814830Y-115579179D01*
X133251956Y-115203078D01*
X132588000Y-115071009D01*
X131924044Y-115203078D01*
X131361170Y-115579179D01*
X130985069Y-116142053D01*
X130853000Y-116806009D01*
X130853000Y-116873991D01*
X130985069Y-117537947D01*
X131300485Y-118010000D01*
X130319515Y-118010000D01*
X130634931Y-117537947D01*
X130767000Y-116873991D01*
X130767000Y-116806009D01*
X130634931Y-116142053D01*
X130258830Y-115579179D01*
X129695956Y-115203078D01*
X129032000Y-115071009D01*
X128368044Y-115203078D01*
X127805170Y-115579179D01*
X127429069Y-116142053D01*
X127297000Y-116806009D01*
X127297000Y-116873991D01*
X127429069Y-117537947D01*
X127744485Y-118010000D01*
X126763515Y-118010000D01*
X127078931Y-117537947D01*
X127211000Y-116873991D01*
X127211000Y-116806009D01*
X127078931Y-116142053D01*
X126702830Y-115579179D01*
X126139956Y-115203078D01*
X125476000Y-115071009D01*
X124812044Y-115203078D01*
X124249170Y-115579179D01*
X123873069Y-116142053D01*
X123741000Y-116806009D01*
X123741000Y-116873991D01*
X123873069Y-117537947D01*
X124188485Y-118010000D01*
X123207515Y-118010000D01*
X123522931Y-117537947D01*
X123655000Y-116873991D01*
X123655000Y-116806009D01*
X123522931Y-116142053D01*
X123146830Y-115579179D01*
X122583956Y-115203078D01*
X121920000Y-115071009D01*
X121256044Y-115203078D01*
X120693170Y-115579179D01*
X120317069Y-116142053D01*
X120185000Y-116806009D01*
X120185000Y-116873991D01*
X120317069Y-117537947D01*
X120632485Y-118010000D01*
X119651515Y-118010000D01*
X119966931Y-117537947D01*
X120099000Y-116873991D01*
X120099000Y-116806009D01*
X119966931Y-116142053D01*
X119590830Y-115579179D01*
X119027956Y-115203078D01*
X118364000Y-115071009D01*
X117700044Y-115203078D01*
X117137170Y-115579179D01*
X116761069Y-116142053D01*
X116629000Y-116806009D01*
X116629000Y-116873991D01*
X116761069Y-117537947D01*
X117076485Y-118010000D01*
X116095515Y-118010000D01*
X116410931Y-117537947D01*
X116543000Y-116873991D01*
X116543000Y-116806009D01*
X116410931Y-116142053D01*
X116034830Y-115579179D01*
X115471956Y-115203078D01*
X114808000Y-115071009D01*
X114144044Y-115203078D01*
X113581170Y-115579179D01*
X113205069Y-116142053D01*
X113073000Y-116806009D01*
X113073000Y-116873991D01*
X113205069Y-117537947D01*
X113520485Y-118010000D01*
X112539515Y-118010000D01*
X112854931Y-117537947D01*
X112987000Y-116873991D01*
X112987000Y-116806009D01*
X112854931Y-116142053D01*
X112478830Y-115579179D01*
X111915956Y-115203078D01*
X111252000Y-115071009D01*
X110588044Y-115203078D01*
X110025170Y-115579179D01*
X109649069Y-116142053D01*
X109517000Y-116806009D01*
X109517000Y-116873991D01*
X109649069Y-117537947D01*
X109964485Y-118010000D01*
X108983515Y-118010000D01*
X109298931Y-117537947D01*
X109431000Y-116873991D01*
X109431000Y-116806009D01*
X109298931Y-116142053D01*
X108922830Y-115579179D01*
X108359956Y-115203078D01*
X107696000Y-115071009D01*
X107032044Y-115203078D01*
X106469170Y-115579179D01*
X106093069Y-116142053D01*
X105961000Y-116806009D01*
X105961000Y-116873991D01*
X106093069Y-117537947D01*
X106408485Y-118010000D01*
X105427515Y-118010000D01*
X105742931Y-117537947D01*
X105875000Y-116873991D01*
X105875000Y-116806009D01*
X105742931Y-116142053D01*
X105366830Y-115579179D01*
X104803956Y-115203078D01*
X104140000Y-115071009D01*
X103476044Y-115203078D01*
X102913170Y-115579179D01*
X102537069Y-116142053D01*
X102405000Y-116806009D01*
X102405000Y-116873991D01*
X102537069Y-117537947D01*
X102913170Y-118100821D01*
X103290416Y-118352889D01*
X103205162Y-118558201D01*
X103204838Y-118930167D01*
X103346883Y-119273943D01*
X103609673Y-119537192D01*
X103953201Y-119679838D01*
X104325167Y-119680162D01*
X104668943Y-119538117D01*
X104727162Y-119480000D01*
X106908489Y-119480000D01*
X106903808Y-119484673D01*
X106761162Y-119828201D01*
X106760838Y-120200167D01*
X106902883Y-120543943D01*
X107165673Y-120807192D01*
X107509201Y-120949838D01*
X107881167Y-120950162D01*
X108224943Y-120808117D01*
X108283162Y-120750000D01*
X110316912Y-120750000D01*
X110316838Y-120835167D01*
X110458883Y-121178943D01*
X110721673Y-121442192D01*
X111065201Y-121584838D01*
X111437167Y-121585162D01*
X111780943Y-121443117D01*
X111839162Y-121385000D01*
X120984912Y-121385000D01*
X120984838Y-121470167D01*
X121126883Y-121813943D01*
X121389673Y-122077192D01*
X121733201Y-122219838D01*
X122105167Y-122220162D01*
X122448943Y-122078117D01*
X122507162Y-122020000D01*
X122566141Y-122020000D01*
X122543277Y-122035277D01*
X122383949Y-122273728D01*
X122328000Y-122555000D01*
X122359341Y-122712560D01*
X120820000Y-122712560D01*
X120584683Y-122756838D01*
X120368559Y-122895910D01*
X120223569Y-123108110D01*
X120172560Y-123360000D01*
X120172560Y-123725000D01*
X120111440Y-123725000D01*
X120111440Y-123360000D01*
X120067162Y-123124683D01*
X119928090Y-122908559D01*
X119715890Y-122763569D01*
X119464000Y-122712560D01*
X117264000Y-122712560D01*
X117028683Y-122756838D01*
X116812559Y-122895910D01*
X116667569Y-123108110D01*
X116616560Y-123360000D01*
X116616560Y-123725000D01*
X116555440Y-123725000D01*
X116555440Y-123360000D01*
X116511162Y-123124683D01*
X116372090Y-122908559D01*
X116159890Y-122763569D01*
X115908000Y-122712560D01*
X113708000Y-122712560D01*
X113472683Y-122756838D01*
X113256559Y-122895910D01*
X113111569Y-123108110D01*
X113060560Y-123360000D01*
X113060560Y-123725000D01*
X112999440Y-123725000D01*
X112999440Y-123360000D01*
X112955162Y-123124683D01*
X112816090Y-122908559D01*
X112603890Y-122763569D01*
X112352000Y-122712560D01*
X110152000Y-122712560D01*
X109916683Y-122756838D01*
X109700559Y-122895910D01*
X109555569Y-123108110D01*
X109504560Y-123360000D01*
X109504560Y-123725000D01*
X109443440Y-123725000D01*
X109443440Y-123360000D01*
X109399162Y-123124683D01*
X109260090Y-122908559D01*
X109047890Y-122763569D01*
X108796000Y-122712560D01*
X106596000Y-122712560D01*
X106360683Y-122756838D01*
X106144559Y-122895910D01*
X105999569Y-123108110D01*
X105948560Y-123360000D01*
X105948560Y-123725000D01*
X105887440Y-123725000D01*
X105887440Y-123360000D01*
X105843162Y-123124683D01*
X105704090Y-122908559D01*
X105491890Y-122763569D01*
X105240000Y-122712560D01*
X103040000Y-122712560D01*
X102804683Y-122756838D01*
X102588559Y-122895910D01*
X102443569Y-123108110D01*
X102392560Y-123360000D01*
X100710000Y-123360000D01*
X100710000Y-112996009D01*
X108755000Y-112996009D01*
X108755000Y-113063991D01*
X108887069Y-113727947D01*
X109263170Y-114290821D01*
X109826044Y-114666922D01*
X110490000Y-114798991D01*
X111153956Y-114666922D01*
X111716830Y-114290821D01*
X112092931Y-113727947D01*
X112225000Y-113063991D01*
X112225000Y-112996009D01*
X112105252Y-112393991D01*
X112739735Y-112393991D01*
X112972932Y-112958371D01*
X113404357Y-113390551D01*
X113968330Y-113624733D01*
X114578991Y-113625265D01*
X115143371Y-113392068D01*
X115365668Y-113170159D01*
X116574446Y-113170159D01*
X116660852Y-113426643D01*
X117234336Y-113636458D01*
X117844460Y-113610839D01*
X118289148Y-113426643D01*
X118375554Y-113170159D01*
X117475000Y-112269605D01*
X116574446Y-113170159D01*
X115365668Y-113170159D01*
X115575551Y-112960643D01*
X115809733Y-112396670D01*
X115810209Y-111849336D01*
X115928542Y-111849336D01*
X115954161Y-112459460D01*
X116138357Y-112904148D01*
X116394841Y-112990554D01*
X117295395Y-112090000D01*
X116394841Y-111189446D01*
X116138357Y-111275852D01*
X115928542Y-111849336D01*
X115810209Y-111849336D01*
X115810265Y-111786009D01*
X115577068Y-111221629D01*
X115365650Y-111009841D01*
X116574446Y-111009841D01*
X117475000Y-111910395D01*
X118375554Y-111009841D01*
X118289148Y-110753357D01*
X117715664Y-110543542D01*
X117105540Y-110569161D01*
X116660852Y-110753357D01*
X116574446Y-111009841D01*
X115365650Y-111009841D01*
X115145643Y-110789449D01*
X114581670Y-110555267D01*
X113971009Y-110554735D01*
X113406629Y-110787932D01*
X112974449Y-111219357D01*
X112740267Y-111783330D01*
X112739735Y-112393991D01*
X112105252Y-112393991D01*
X112092931Y-112332053D01*
X111716830Y-111769179D01*
X111449135Y-111590311D01*
X113126869Y-109912578D01*
X113404357Y-110190551D01*
X113968330Y-110424733D01*
X114578991Y-110425265D01*
X115143371Y-110192068D01*
X115365668Y-109970159D01*
X116574446Y-109970159D01*
X116660852Y-110226643D01*
X117234336Y-110436458D01*
X117844460Y-110410839D01*
X118289148Y-110226643D01*
X118375554Y-109970159D01*
X117475000Y-109069605D01*
X116574446Y-109970159D01*
X115365668Y-109970159D01*
X115575551Y-109760643D01*
X115809733Y-109196670D01*
X115810209Y-108649336D01*
X115928542Y-108649336D01*
X115954161Y-109259460D01*
X116138357Y-109704148D01*
X116394841Y-109790554D01*
X117295395Y-108890000D01*
X116394841Y-107989446D01*
X116138357Y-108075852D01*
X115928542Y-108649336D01*
X115810209Y-108649336D01*
X115810265Y-108586009D01*
X115577068Y-108021629D01*
X115365650Y-107809841D01*
X116574446Y-107809841D01*
X117475000Y-108710395D01*
X118375554Y-107809841D01*
X118289148Y-107553357D01*
X117715664Y-107343542D01*
X117105540Y-107369161D01*
X116660852Y-107553357D01*
X116574446Y-107809841D01*
X115365650Y-107809841D01*
X115145643Y-107589449D01*
X114581670Y-107355267D01*
X113971009Y-107354735D01*
X113406629Y-107587932D01*
X112974449Y-108019357D01*
X112900850Y-108196603D01*
X112828728Y-108210949D01*
X112590277Y-108370276D01*
X109970277Y-110990277D01*
X109810949Y-111228728D01*
X109770933Y-111429902D01*
X109263170Y-111769179D01*
X108887069Y-112332053D01*
X108755000Y-112996009D01*
X100710000Y-112996009D01*
X100710000Y-102770000D01*
X102122560Y-102770000D01*
X102122560Y-104470000D01*
X102166838Y-104705317D01*
X102305910Y-104921441D01*
X102518110Y-105066431D01*
X102770000Y-105117440D01*
X104470000Y-105117440D01*
X104705317Y-105073162D01*
X104921441Y-104934090D01*
X105066431Y-104721890D01*
X105080086Y-104654459D01*
X105109946Y-104699147D01*
X105591715Y-105021054D01*
X106160000Y-105134093D01*
X106728285Y-105021054D01*
X107210054Y-104699147D01*
X107440005Y-104355000D01*
X108395554Y-104355000D01*
X108742560Y-104702006D01*
X108742560Y-106510000D01*
X108786838Y-106745317D01*
X108925910Y-106961441D01*
X109138110Y-107106431D01*
X109390000Y-107157440D01*
X111590000Y-107157440D01*
X111825317Y-107113162D01*
X112041441Y-106974090D01*
X112186431Y-106761890D01*
X112237440Y-106510000D01*
X112237440Y-104310000D01*
X112193162Y-104074683D01*
X112054090Y-103858559D01*
X111841890Y-103713569D01*
X111590000Y-103662560D01*
X109782006Y-103662560D01*
X109219723Y-103100277D01*
X108981272Y-102940949D01*
X108855846Y-102916000D01*
X124372560Y-102916000D01*
X124372560Y-104470000D01*
X124416838Y-104705317D01*
X124555910Y-104921441D01*
X124768110Y-105066431D01*
X125020000Y-105117440D01*
X126720000Y-105117440D01*
X126955317Y-105073162D01*
X127171441Y-104934090D01*
X127316431Y-104721890D01*
X127338301Y-104613893D01*
X127643076Y-104891645D01*
X128053110Y-105061476D01*
X128283000Y-104940155D01*
X128283000Y-103747000D01*
X128537000Y-103747000D01*
X128537000Y-104940155D01*
X128766890Y-105061476D01*
X129176924Y-104891645D01*
X129605183Y-104501358D01*
X129851486Y-103976892D01*
X129730819Y-103747000D01*
X128537000Y-103747000D01*
X128283000Y-103747000D01*
X128263000Y-103747000D01*
X128263000Y-103493000D01*
X128283000Y-103493000D01*
X128283000Y-103473000D01*
X128537000Y-103473000D01*
X128537000Y-103493000D01*
X129730819Y-103493000D01*
X129851486Y-103263108D01*
X129688475Y-102916000D01*
X140402560Y-102916000D01*
X140402560Y-104470000D01*
X140441133Y-104675000D01*
X137002440Y-104675000D01*
X137002440Y-104310000D01*
X136958162Y-104074683D01*
X136819090Y-103858559D01*
X136606890Y-103713569D01*
X136355000Y-103662560D01*
X134155000Y-103662560D01*
X133919683Y-103706838D01*
X133703559Y-103845910D01*
X133558569Y-104058110D01*
X133507560Y-104310000D01*
X133507560Y-106199000D01*
X121666000Y-106199000D01*
X121540865Y-106223891D01*
X121414790Y-106243263D01*
X121400789Y-106251754D01*
X121384728Y-106254949D01*
X121278661Y-106325821D01*
X121169578Y-106391976D01*
X120753578Y-106772975D01*
X120743891Y-106786180D01*
X120730276Y-106795277D01*
X120114946Y-107410608D01*
X119981670Y-107355267D01*
X119371009Y-107354735D01*
X118806629Y-107587932D01*
X118374449Y-108019357D01*
X118267368Y-108277237D01*
X117654605Y-108890000D01*
X118267281Y-109502676D01*
X118372932Y-109758371D01*
X118804357Y-110190551D01*
X119368330Y-110424733D01*
X119978991Y-110425265D01*
X120543371Y-110192068D01*
X120775026Y-109960818D01*
X121004357Y-110190551D01*
X121568330Y-110424733D01*
X122178991Y-110425265D01*
X122743371Y-110192068D01*
X123175551Y-109760643D01*
X123409733Y-109196670D01*
X123410265Y-108586009D01*
X123177068Y-108021629D01*
X122825055Y-107669000D01*
X136528553Y-107669000D01*
X131402554Y-112795000D01*
X123244332Y-112795000D01*
X123409733Y-112396670D01*
X123410265Y-111786009D01*
X123177068Y-111221629D01*
X122745643Y-110789449D01*
X122181670Y-110555267D01*
X121571009Y-110554735D01*
X121006629Y-110787932D01*
X120774974Y-111019182D01*
X120545643Y-110789449D01*
X119981670Y-110555267D01*
X119371009Y-110554735D01*
X118806629Y-110787932D01*
X118374449Y-111219357D01*
X118267368Y-111477237D01*
X117654605Y-112090000D01*
X118267281Y-112702676D01*
X118372932Y-112958371D01*
X118804357Y-113390551D01*
X119368330Y-113624733D01*
X119978991Y-113625265D01*
X120054584Y-113594031D01*
X120510276Y-114049723D01*
X120712320Y-114184724D01*
X120748728Y-114209051D01*
X121030000Y-114265000D01*
X131707000Y-114265000D01*
X131988272Y-114209051D01*
X132226723Y-114049723D01*
X133579484Y-112696962D01*
X133520000Y-112996009D01*
X133520000Y-113063991D01*
X133652069Y-113727947D01*
X134028170Y-114290821D01*
X134591044Y-114666922D01*
X135255000Y-114798991D01*
X135918956Y-114666922D01*
X136481830Y-114290821D01*
X136857931Y-113727947D01*
X136990000Y-113063991D01*
X136990000Y-112996009D01*
X136870252Y-112393991D01*
X137504735Y-112393991D01*
X137737932Y-112958371D01*
X138169357Y-113390551D01*
X138733330Y-113624733D01*
X139343991Y-113625265D01*
X139908371Y-113392068D01*
X140130668Y-113170159D01*
X141339446Y-113170159D01*
X141425852Y-113426643D01*
X141999336Y-113636458D01*
X142609460Y-113610839D01*
X143054148Y-113426643D01*
X143140554Y-113170159D01*
X142240000Y-112269605D01*
X141339446Y-113170159D01*
X140130668Y-113170159D01*
X140340551Y-112960643D01*
X140574733Y-112396670D01*
X140575209Y-111849336D01*
X140693542Y-111849336D01*
X140719161Y-112459460D01*
X140903357Y-112904148D01*
X141159841Y-112990554D01*
X142060395Y-112090000D01*
X141159841Y-111189446D01*
X140903357Y-111275852D01*
X140693542Y-111849336D01*
X140575209Y-111849336D01*
X140575265Y-111786009D01*
X140342068Y-111221629D01*
X140130650Y-111009841D01*
X141339446Y-111009841D01*
X142240000Y-111910395D01*
X143140554Y-111009841D01*
X143054148Y-110753357D01*
X142480664Y-110543542D01*
X141870540Y-110569161D01*
X141425852Y-110753357D01*
X141339446Y-111009841D01*
X140130650Y-111009841D01*
X139910643Y-110789449D01*
X139346670Y-110555267D01*
X138736009Y-110554735D01*
X138171629Y-110787932D01*
X137739449Y-111219357D01*
X137505267Y-111783330D01*
X137504735Y-112393991D01*
X136870252Y-112393991D01*
X136857931Y-112332053D01*
X136481830Y-111769179D01*
X136211738Y-111588709D01*
X137889871Y-109910576D01*
X138169357Y-110190551D01*
X138733330Y-110424733D01*
X139343991Y-110425265D01*
X139908371Y-110192068D01*
X140130668Y-109970159D01*
X141339446Y-109970159D01*
X141425852Y-110226643D01*
X141999336Y-110436458D01*
X142609460Y-110410839D01*
X143054148Y-110226643D01*
X143140554Y-109970159D01*
X142240000Y-109069605D01*
X141339446Y-109970159D01*
X140130668Y-109970159D01*
X140340551Y-109760643D01*
X140574733Y-109196670D01*
X140575265Y-108586009D01*
X140406266Y-108177000D01*
X140866351Y-108177000D01*
X140693542Y-108649336D01*
X140719161Y-109259460D01*
X140903357Y-109704148D01*
X141159841Y-109790554D01*
X142060395Y-108890000D01*
X142046253Y-108875858D01*
X142225858Y-108696253D01*
X142240000Y-108710395D01*
X142254143Y-108696253D01*
X142433748Y-108875858D01*
X142419605Y-108890000D01*
X143032281Y-109502676D01*
X143137932Y-109758371D01*
X143569357Y-110190551D01*
X144133330Y-110424733D01*
X144743991Y-110425265D01*
X145308371Y-110192068D01*
X145540026Y-109960818D01*
X145769357Y-110190551D01*
X146333330Y-110424733D01*
X146943991Y-110425265D01*
X147508371Y-110192068D01*
X147940551Y-109760643D01*
X148174733Y-109196670D01*
X148175265Y-108586009D01*
X147942068Y-108021629D01*
X147590055Y-107669000D01*
X152530553Y-107669000D01*
X148175057Y-112024497D01*
X148175265Y-111786009D01*
X147942068Y-111221629D01*
X147510643Y-110789449D01*
X146946670Y-110555267D01*
X146336009Y-110554735D01*
X145771629Y-110787932D01*
X145539974Y-111019182D01*
X145310643Y-110789449D01*
X144746670Y-110555267D01*
X144136009Y-110554735D01*
X143571629Y-110787932D01*
X143139449Y-111219357D01*
X143032368Y-111477237D01*
X142419605Y-112090000D01*
X143032281Y-112702676D01*
X143137932Y-112958371D01*
X143569357Y-113390551D01*
X144133330Y-113624733D01*
X144743991Y-113625265D01*
X144814631Y-113596077D01*
X145149276Y-113930723D01*
X145387727Y-114090051D01*
X145434394Y-114099333D01*
X145669000Y-114146000D01*
X147828000Y-114146000D01*
X148109272Y-114090051D01*
X148347723Y-113930723D01*
X148855723Y-113422724D01*
X148855725Y-113422721D01*
X154101447Y-108177000D01*
X162438990Y-108177000D01*
X162403069Y-108263507D01*
X162243277Y-108370276D01*
X159500277Y-111113277D01*
X159340949Y-111351728D01*
X159329149Y-111411048D01*
X158793170Y-111769179D01*
X158417069Y-112332053D01*
X158285000Y-112996009D01*
X158285000Y-113063991D01*
X158417069Y-113727947D01*
X158793170Y-114290821D01*
X159356044Y-114666922D01*
X160020000Y-114798991D01*
X160683956Y-114666922D01*
X161246830Y-114290821D01*
X161622931Y-113727947D01*
X161755000Y-113063991D01*
X161755000Y-112996009D01*
X161635252Y-112393991D01*
X162269735Y-112393991D01*
X162502932Y-112958371D01*
X162934357Y-113390551D01*
X163498330Y-113624733D01*
X164108991Y-113625265D01*
X164673371Y-113392068D01*
X164895668Y-113170159D01*
X166104446Y-113170159D01*
X166190852Y-113426643D01*
X166764336Y-113636458D01*
X167374460Y-113610839D01*
X167819148Y-113426643D01*
X167905554Y-113170159D01*
X167005000Y-112269605D01*
X166104446Y-113170159D01*
X164895668Y-113170159D01*
X165105551Y-112960643D01*
X165339733Y-112396670D01*
X165340209Y-111849336D01*
X165458542Y-111849336D01*
X165484161Y-112459460D01*
X165668357Y-112904148D01*
X165924841Y-112990554D01*
X166825395Y-112090000D01*
X165924841Y-111189446D01*
X165668357Y-111275852D01*
X165458542Y-111849336D01*
X165340209Y-111849336D01*
X165340265Y-111786009D01*
X165107068Y-111221629D01*
X164895650Y-111009841D01*
X166104446Y-111009841D01*
X167005000Y-111910395D01*
X167905554Y-111009841D01*
X167819148Y-110753357D01*
X167245664Y-110543542D01*
X166635540Y-110569161D01*
X166190852Y-110753357D01*
X166104446Y-111009841D01*
X164895650Y-111009841D01*
X164675643Y-110789449D01*
X164111670Y-110555267D01*
X163501009Y-110554735D01*
X162936629Y-110787932D01*
X162504449Y-111219357D01*
X162270267Y-111783330D01*
X162269735Y-112393991D01*
X161635252Y-112393991D01*
X161622931Y-112332053D01*
X161246830Y-111769179D01*
X161052868Y-111639578D01*
X162718315Y-109974131D01*
X162934357Y-110190551D01*
X163498330Y-110424733D01*
X164108991Y-110425265D01*
X164673371Y-110192068D01*
X164895668Y-109970159D01*
X166104446Y-109970159D01*
X166190852Y-110226643D01*
X166764336Y-110436458D01*
X167374460Y-110410839D01*
X167819148Y-110226643D01*
X167905554Y-109970159D01*
X167005000Y-109069605D01*
X166104446Y-109970159D01*
X164895668Y-109970159D01*
X165105551Y-109760643D01*
X165339733Y-109196670D01*
X165340265Y-108586009D01*
X165171266Y-108177000D01*
X165631351Y-108177000D01*
X165458542Y-108649336D01*
X165484161Y-109259460D01*
X165668357Y-109704148D01*
X165924841Y-109790554D01*
X166825395Y-108890000D01*
X166811253Y-108875858D01*
X166990858Y-108696253D01*
X167005000Y-108710395D01*
X167019143Y-108696253D01*
X167198748Y-108875858D01*
X167184605Y-108890000D01*
X167797281Y-109502676D01*
X167902932Y-109758371D01*
X168334357Y-110190551D01*
X168898330Y-110424733D01*
X169508991Y-110425265D01*
X170073371Y-110192068D01*
X170305026Y-109960818D01*
X170534357Y-110190551D01*
X171098330Y-110424733D01*
X171708991Y-110425265D01*
X172273371Y-110192068D01*
X172705551Y-109760643D01*
X172939733Y-109196670D01*
X172940265Y-108586009D01*
X172707068Y-108021629D01*
X172355055Y-107669000D01*
X177803553Y-107669000D01*
X173216280Y-112256274D01*
X173216277Y-112256276D01*
X172843054Y-112629500D01*
X172939733Y-112396670D01*
X172940265Y-111786009D01*
X172707068Y-111221629D01*
X172275643Y-110789449D01*
X171711670Y-110555267D01*
X171101009Y-110554735D01*
X170536629Y-110787932D01*
X170304974Y-111019182D01*
X170075643Y-110789449D01*
X169511670Y-110555267D01*
X168901009Y-110554735D01*
X168336629Y-110787932D01*
X167904449Y-111219357D01*
X167797368Y-111477237D01*
X167184605Y-112090000D01*
X167797281Y-112702676D01*
X167902932Y-112958371D01*
X168334357Y-113390551D01*
X168809331Y-113587777D01*
X169152277Y-113930724D01*
X169390728Y-114090051D01*
X169672000Y-114146000D01*
X173101000Y-114146000D01*
X173382272Y-114090051D01*
X173620723Y-113930723D01*
X174255724Y-113295723D01*
X174255726Y-113295720D01*
X178954724Y-108596723D01*
X178954726Y-108596720D01*
X179374447Y-108177000D01*
X189108990Y-108177000D01*
X189101210Y-108195736D01*
X189024728Y-108210949D01*
X188786277Y-108370276D01*
X186170277Y-110986277D01*
X186010949Y-111224728D01*
X185970015Y-111430515D01*
X185463170Y-111769179D01*
X185087069Y-112332053D01*
X184955000Y-112996009D01*
X184955000Y-113063991D01*
X185087069Y-113727947D01*
X185463170Y-114290821D01*
X186026044Y-114666922D01*
X186690000Y-114798991D01*
X187353956Y-114666922D01*
X187916830Y-114290821D01*
X188292931Y-113727947D01*
X188425000Y-113063991D01*
X188425000Y-112996009D01*
X188305252Y-112393991D01*
X188939735Y-112393991D01*
X189172932Y-112958371D01*
X189604357Y-113390551D01*
X190168330Y-113624733D01*
X190778991Y-113625265D01*
X191343371Y-113392068D01*
X191565668Y-113170159D01*
X192774446Y-113170159D01*
X192860852Y-113426643D01*
X193434336Y-113636458D01*
X194044460Y-113610839D01*
X194489148Y-113426643D01*
X194575554Y-113170159D01*
X193675000Y-112269605D01*
X192774446Y-113170159D01*
X191565668Y-113170159D01*
X191775551Y-112960643D01*
X192009733Y-112396670D01*
X192010209Y-111849336D01*
X192128542Y-111849336D01*
X192154161Y-112459460D01*
X192338357Y-112904148D01*
X192594841Y-112990554D01*
X193495395Y-112090000D01*
X192594841Y-111189446D01*
X192338357Y-111275852D01*
X192128542Y-111849336D01*
X192010209Y-111849336D01*
X192010265Y-111786009D01*
X191777068Y-111221629D01*
X191565650Y-111009841D01*
X192774446Y-111009841D01*
X193675000Y-111910395D01*
X194575554Y-111009841D01*
X194489148Y-110753357D01*
X193915664Y-110543542D01*
X193305540Y-110569161D01*
X192860852Y-110753357D01*
X192774446Y-111009841D01*
X191565650Y-111009841D01*
X191345643Y-110789449D01*
X190781670Y-110555267D01*
X190171009Y-110554735D01*
X189606629Y-110787932D01*
X189174449Y-111219357D01*
X188940267Y-111783330D01*
X188939735Y-112393991D01*
X188305252Y-112393991D01*
X188292931Y-112332053D01*
X187916830Y-111769179D01*
X187646738Y-111588709D01*
X189324871Y-109910576D01*
X189604357Y-110190551D01*
X190168330Y-110424733D01*
X190778991Y-110425265D01*
X191343371Y-110192068D01*
X191565668Y-109970159D01*
X192774446Y-109970159D01*
X192860852Y-110226643D01*
X193434336Y-110436458D01*
X194044460Y-110410839D01*
X194489148Y-110226643D01*
X194575554Y-109970159D01*
X193675000Y-109069605D01*
X192774446Y-109970159D01*
X191565668Y-109970159D01*
X191775551Y-109760643D01*
X192009733Y-109196670D01*
X192010265Y-108586009D01*
X191841266Y-108177000D01*
X192301351Y-108177000D01*
X192128542Y-108649336D01*
X192154161Y-109259460D01*
X192338357Y-109704148D01*
X192594841Y-109790554D01*
X193495395Y-108890000D01*
X193481253Y-108875858D01*
X193660858Y-108696253D01*
X193675000Y-108710395D01*
X193689143Y-108696253D01*
X193868748Y-108875858D01*
X193854605Y-108890000D01*
X194467281Y-109502676D01*
X194572932Y-109758371D01*
X195004357Y-110190551D01*
X195568330Y-110424733D01*
X196178991Y-110425265D01*
X196743371Y-110192068D01*
X196975026Y-109960818D01*
X197204357Y-110190551D01*
X197768330Y-110424733D01*
X198378991Y-110425265D01*
X198943371Y-110192068D01*
X199375551Y-109760643D01*
X199609733Y-109196670D01*
X199610265Y-108586009D01*
X199377068Y-108021629D01*
X199025055Y-107669000D01*
X205616553Y-107669000D01*
X201029280Y-112256274D01*
X201029277Y-112256276D01*
X200355554Y-112930000D01*
X199388275Y-112930000D01*
X199609733Y-112396670D01*
X199610265Y-111786009D01*
X199377068Y-111221629D01*
X198945643Y-110789449D01*
X198381670Y-110555267D01*
X197771009Y-110554735D01*
X197206629Y-110787932D01*
X196974974Y-111019182D01*
X196745643Y-110789449D01*
X196181670Y-110555267D01*
X195571009Y-110554735D01*
X195006629Y-110787932D01*
X194574449Y-111219357D01*
X194467368Y-111477237D01*
X193854605Y-112090000D01*
X194467281Y-112702676D01*
X194572932Y-112958371D01*
X195004357Y-113390551D01*
X195193962Y-113469282D01*
X195195949Y-113479272D01*
X195355277Y-113717723D01*
X195822277Y-114184724D01*
X196033930Y-114326145D01*
X196060728Y-114344051D01*
X196342000Y-114400000D01*
X200660000Y-114400000D01*
X200941272Y-114344051D01*
X201179723Y-114184723D01*
X202068724Y-113295723D01*
X202068726Y-113295720D01*
X206767724Y-108596723D01*
X206767726Y-108596720D01*
X207060447Y-108304000D01*
X213650467Y-108304000D01*
X213551277Y-108370276D01*
X210935277Y-110986277D01*
X210775949Y-111224728D01*
X210735015Y-111430515D01*
X210228170Y-111769179D01*
X209852069Y-112332053D01*
X209720000Y-112996009D01*
X209720000Y-113063991D01*
X209852069Y-113727947D01*
X210228170Y-114290821D01*
X210791044Y-114666922D01*
X211455000Y-114798991D01*
X212118956Y-114666922D01*
X212681830Y-114290821D01*
X213057931Y-113727947D01*
X213067678Y-113678947D01*
X213210673Y-113822192D01*
X213554201Y-113964838D01*
X213636463Y-113964910D01*
X213729276Y-114057723D01*
X213967727Y-114217051D01*
X214014394Y-114226333D01*
X214249000Y-114273000D01*
X219329000Y-114273000D01*
X219610272Y-114217051D01*
X219848723Y-114057723D01*
X220296858Y-113609588D01*
X220333330Y-113624733D01*
X220943991Y-113625265D01*
X221508371Y-113392068D01*
X221730668Y-113170159D01*
X221939446Y-113170159D01*
X222025852Y-113426643D01*
X222599336Y-113636458D01*
X223209460Y-113610839D01*
X223654148Y-113426643D01*
X223740554Y-113170159D01*
X222840000Y-112269605D01*
X221939446Y-113170159D01*
X221730668Y-113170159D01*
X221940551Y-112960643D01*
X222047632Y-112702763D01*
X222660395Y-112090000D01*
X223019605Y-112090000D01*
X223920159Y-112990554D01*
X224176643Y-112904148D01*
X224386458Y-112330664D01*
X224360994Y-111724213D01*
X224751392Y-111724213D01*
X224820857Y-111966397D01*
X225344302Y-112153144D01*
X225899368Y-112125362D01*
X226283143Y-111966397D01*
X226352608Y-111724213D01*
X225552000Y-110923605D01*
X224751392Y-111724213D01*
X224360994Y-111724213D01*
X224360839Y-111720540D01*
X224176643Y-111275852D01*
X223920159Y-111189446D01*
X223019605Y-112090000D01*
X222660395Y-112090000D01*
X222047719Y-111477324D01*
X221942068Y-111221629D01*
X221730650Y-111009841D01*
X221939446Y-111009841D01*
X222840000Y-111910395D01*
X223740554Y-111009841D01*
X223654148Y-110753357D01*
X223080664Y-110543542D01*
X222470540Y-110569161D01*
X222025852Y-110753357D01*
X221939446Y-111009841D01*
X221730650Y-111009841D01*
X221510643Y-110789449D01*
X220946670Y-110555267D01*
X220336009Y-110554735D01*
X219771629Y-110787932D01*
X219539974Y-111019182D01*
X219310643Y-110789449D01*
X218746670Y-110555267D01*
X218136009Y-110554735D01*
X217571629Y-110787932D01*
X217139449Y-111219357D01*
X216905267Y-111783330D01*
X216904735Y-112393991D01*
X217073734Y-112803000D01*
X216606010Y-112803000D01*
X216774733Y-112396670D01*
X216775265Y-111786009D01*
X216542068Y-111221629D01*
X216110643Y-110789449D01*
X215546670Y-110555267D01*
X214936009Y-110554735D01*
X214371629Y-110787932D01*
X213939449Y-111219357D01*
X213705267Y-111783330D01*
X213704996Y-112094968D01*
X213555833Y-112094838D01*
X213212057Y-112236883D01*
X213067671Y-112381018D01*
X213057931Y-112332053D01*
X212681830Y-111769179D01*
X212411738Y-111588709D01*
X213464145Y-110536302D01*
X224142856Y-110536302D01*
X224170638Y-111091368D01*
X224329603Y-111475143D01*
X224571787Y-111544608D01*
X225372395Y-110744000D01*
X225731605Y-110744000D01*
X226532213Y-111544608D01*
X226774397Y-111475143D01*
X226961144Y-110951698D01*
X226933362Y-110396632D01*
X226785710Y-110040167D01*
X233760838Y-110040167D01*
X233902883Y-110383943D01*
X234165673Y-110647192D01*
X234509201Y-110789838D01*
X234881167Y-110790162D01*
X234881559Y-110790000D01*
X243192560Y-110790000D01*
X243192560Y-111090150D01*
X241472847Y-112809863D01*
X241326009Y-112809735D01*
X240761629Y-113042932D01*
X240329449Y-113474357D01*
X240095267Y-114038330D01*
X240094735Y-114648991D01*
X240327932Y-115213371D01*
X240559182Y-115445026D01*
X240329449Y-115674357D01*
X240095267Y-116238330D01*
X240094735Y-116848991D01*
X240327932Y-117413371D01*
X240559182Y-117645026D01*
X240329449Y-117874357D01*
X240095267Y-118438330D01*
X240094735Y-119048991D01*
X240212498Y-119334000D01*
X239849016Y-119334000D01*
X239976458Y-118985664D01*
X239950839Y-118375540D01*
X239766643Y-117930852D01*
X239510159Y-117844446D01*
X238609605Y-118745000D01*
X238623748Y-118759143D01*
X238444143Y-118938748D01*
X238430000Y-118924605D01*
X238415858Y-118938748D01*
X238236253Y-118759143D01*
X238250395Y-118745000D01*
X238236253Y-118730858D01*
X238415858Y-118551253D01*
X238430000Y-118565395D01*
X239042676Y-117952719D01*
X239298371Y-117847068D01*
X239730551Y-117415643D01*
X239964733Y-116851670D01*
X239965265Y-116241009D01*
X239732068Y-115676629D01*
X239500818Y-115444974D01*
X239730551Y-115215643D01*
X239964733Y-114651670D01*
X239965265Y-114041009D01*
X239732068Y-113476629D01*
X239300643Y-113044449D01*
X238736670Y-112810267D01*
X238126009Y-112809735D01*
X237561629Y-113042932D01*
X237129449Y-113474357D01*
X236895267Y-114038330D01*
X236894735Y-114648991D01*
X237127932Y-115213371D01*
X237359182Y-115445026D01*
X237129449Y-115674357D01*
X237108736Y-115724241D01*
X236869855Y-115883855D01*
X236869853Y-115883858D01*
X236066855Y-116686855D01*
X235864173Y-116990191D01*
X235793000Y-117348000D01*
X235793000Y-119507000D01*
X235864173Y-119864809D01*
X236066855Y-120168145D01*
X236828855Y-120930145D01*
X237111039Y-121118694D01*
X236895267Y-121638330D01*
X236894735Y-122248991D01*
X237127932Y-122813371D01*
X237559357Y-123245551D01*
X238123330Y-123479733D01*
X238733991Y-123480265D01*
X239298371Y-123247068D01*
X239730551Y-122815643D01*
X239964733Y-122251670D01*
X239965265Y-121641009D01*
X239784697Y-121204000D01*
X240275617Y-121204000D01*
X240095267Y-121638330D01*
X240094735Y-122248991D01*
X240327932Y-122813371D01*
X240759357Y-123245551D01*
X241323330Y-123479733D01*
X241933991Y-123480265D01*
X242498371Y-123247068D01*
X242930551Y-122815643D01*
X243164733Y-122251670D01*
X243165265Y-121641009D01*
X242984697Y-121204000D01*
X247649184Y-121204000D01*
X247835167Y-121204162D01*
X248178943Y-121062117D01*
X248348533Y-120892823D01*
X248385855Y-120930145D01*
X248576384Y-121057452D01*
X248559449Y-121074357D01*
X248325267Y-121638330D01*
X248324735Y-122248991D01*
X248557932Y-122813371D01*
X248989357Y-123245551D01*
X249553330Y-123479733D01*
X250163991Y-123480265D01*
X250728371Y-123247068D01*
X251160551Y-122815643D01*
X251394733Y-122251670D01*
X251394735Y-122248991D01*
X251524735Y-122248991D01*
X251757932Y-122813371D01*
X252189357Y-123245551D01*
X252753330Y-123479733D01*
X253363991Y-123480265D01*
X253928371Y-123247068D01*
X254360551Y-122815643D01*
X254594733Y-122251670D01*
X254595265Y-121641009D01*
X254362068Y-121076629D01*
X253930643Y-120644449D01*
X253366670Y-120410267D01*
X252756009Y-120409735D01*
X252191629Y-120642932D01*
X251759449Y-121074357D01*
X251525267Y-121638330D01*
X251524735Y-122248991D01*
X251394735Y-122248991D01*
X251395265Y-121641009D01*
X251201125Y-121171154D01*
X251393809Y-121132827D01*
X251697145Y-120930145D01*
X252466612Y-120160678D01*
X252753330Y-120279733D01*
X253363991Y-120280265D01*
X253928371Y-120047068D01*
X254360551Y-119615643D01*
X254594733Y-119051670D01*
X254595265Y-118441009D01*
X254362068Y-117876629D01*
X254130818Y-117644974D01*
X254360551Y-117415643D01*
X254594733Y-116851670D01*
X254595186Y-116332104D01*
X255296145Y-115631145D01*
X255498827Y-115327809D01*
X255570000Y-114970000D01*
X255570000Y-113665000D01*
X255499802Y-113312092D01*
X256240000Y-114052290D01*
X256240000Y-114475742D01*
X255959176Y-114756077D01*
X255740250Y-115283309D01*
X255739752Y-115854187D01*
X255957757Y-116381800D01*
X256361077Y-116785824D01*
X256888309Y-117004750D01*
X257459187Y-117005248D01*
X257986800Y-116787243D01*
X258390824Y-116383923D01*
X258609750Y-115856691D01*
X258610248Y-115285813D01*
X258392243Y-114758200D01*
X258110000Y-114475464D01*
X258110000Y-113665000D01*
X258038827Y-113307191D01*
X257836145Y-113003855D01*
X256312145Y-111479855D01*
X256008809Y-111277173D01*
X255651000Y-111206000D01*
X251886935Y-111206000D01*
X251887162Y-110944833D01*
X251745117Y-110601057D01*
X251482327Y-110337808D01*
X251138799Y-110195162D01*
X250766833Y-110194838D01*
X250766441Y-110195000D01*
X248297440Y-110195000D01*
X248297440Y-109365000D01*
X248253162Y-109129683D01*
X248114090Y-108913559D01*
X247901890Y-108768569D01*
X247650000Y-108717560D01*
X246380000Y-108717560D01*
X246144683Y-108761838D01*
X245928559Y-108900910D01*
X245918932Y-108915000D01*
X245575017Y-108915000D01*
X245574090Y-108913559D01*
X245361890Y-108768569D01*
X245110000Y-108717560D01*
X243840000Y-108717560D01*
X243604683Y-108761838D01*
X243388559Y-108900910D01*
X243375515Y-108920000D01*
X234696816Y-108920000D01*
X234510833Y-108919838D01*
X234167057Y-109061883D01*
X233903808Y-109324673D01*
X233761162Y-109668201D01*
X233760838Y-110040167D01*
X226785710Y-110040167D01*
X226774397Y-110012857D01*
X226532213Y-109943392D01*
X225731605Y-110744000D01*
X225372395Y-110744000D01*
X224571787Y-109943392D01*
X224329603Y-110012857D01*
X224142856Y-110536302D01*
X213464145Y-110536302D01*
X214089871Y-109910576D01*
X214369357Y-110190551D01*
X214933330Y-110424733D01*
X215543991Y-110425265D01*
X216108371Y-110192068D01*
X216330668Y-109970159D01*
X217539446Y-109970159D01*
X217625852Y-110226643D01*
X218199336Y-110436458D01*
X218809460Y-110410839D01*
X219254148Y-110226643D01*
X219340554Y-109970159D01*
X218440000Y-109069605D01*
X217539446Y-109970159D01*
X216330668Y-109970159D01*
X216540551Y-109760643D01*
X216774733Y-109196670D01*
X216775265Y-108586009D01*
X216658741Y-108304000D01*
X217019887Y-108304000D01*
X216893542Y-108649336D01*
X216919161Y-109259460D01*
X217103357Y-109704148D01*
X217359841Y-109790554D01*
X218260395Y-108890000D01*
X218246253Y-108875858D01*
X218425858Y-108696253D01*
X218440000Y-108710395D01*
X218454143Y-108696253D01*
X218633748Y-108875858D01*
X218619605Y-108890000D01*
X219232281Y-109502676D01*
X219337932Y-109758371D01*
X219769357Y-110190551D01*
X220333330Y-110424733D01*
X220943991Y-110425265D01*
X221508371Y-110192068D01*
X221740026Y-109960818D01*
X221969357Y-110190551D01*
X222533330Y-110424733D01*
X223143991Y-110425265D01*
X223708371Y-110192068D01*
X224140551Y-109760643D01*
X224299867Y-109376968D01*
X224325910Y-109417441D01*
X224538110Y-109562431D01*
X224790000Y-109613440D01*
X224794516Y-109613440D01*
X224751392Y-109763787D01*
X225552000Y-110564395D01*
X226352608Y-109763787D01*
X226309484Y-109613440D01*
X226314000Y-109613440D01*
X226549317Y-109569162D01*
X226765441Y-109430090D01*
X226910431Y-109217890D01*
X226961440Y-108966000D01*
X226961440Y-107442000D01*
X226917162Y-107206683D01*
X226778090Y-106990559D01*
X226565890Y-106845569D01*
X226314000Y-106794560D01*
X224790000Y-106794560D01*
X224554683Y-106838838D01*
X224338559Y-106977910D01*
X224193569Y-107190110D01*
X224142560Y-107442000D01*
X224142560Y-108022820D01*
X224142068Y-108021629D01*
X223710643Y-107589449D01*
X223146670Y-107355267D01*
X222536009Y-107354735D01*
X221971629Y-107587932D01*
X221739974Y-107819182D01*
X221510643Y-107589449D01*
X220946670Y-107355267D01*
X220336009Y-107354735D01*
X220297212Y-107370766D01*
X219975723Y-107049277D01*
X219762791Y-106907000D01*
X220599000Y-106907000D01*
X220880272Y-106851051D01*
X221118723Y-106691723D01*
X221157446Y-106653000D01*
X247824581Y-106653000D01*
X247881673Y-106710192D01*
X248225201Y-106852838D01*
X248597167Y-106853162D01*
X248940943Y-106711117D01*
X248999162Y-106653000D01*
X257810000Y-106653000D01*
X258091272Y-106597051D01*
X258329723Y-106437723D01*
X259721093Y-105046354D01*
X259848285Y-105021054D01*
X260330054Y-104699147D01*
X260651961Y-104217378D01*
X260765000Y-103649093D01*
X260765000Y-103590907D01*
X260651961Y-103022622D01*
X260330054Y-102540853D01*
X259848285Y-102218946D01*
X259280000Y-102105907D01*
X258711715Y-102218946D01*
X258229946Y-102540853D01*
X258202150Y-102582452D01*
X258193162Y-102534683D01*
X258054090Y-102318559D01*
X257841890Y-102173569D01*
X257590000Y-102122560D01*
X256606850Y-102122560D01*
X255804145Y-101319855D01*
X255500809Y-101117173D01*
X255143000Y-101046000D01*
X192024816Y-101046000D01*
X191838833Y-101045838D01*
X191838441Y-101046000D01*
X180721005Y-101046000D01*
X180721000Y-101045999D01*
X180720995Y-101046000D01*
X162052816Y-101046000D01*
X161866833Y-101045838D01*
X161866441Y-101046000D01*
X104394000Y-101046000D01*
X104036191Y-101117173D01*
X103732855Y-101319855D01*
X102958855Y-102093855D01*
X102939675Y-102122560D01*
X102770000Y-102122560D01*
X102534683Y-102166838D01*
X102318559Y-102305910D01*
X102173569Y-102518110D01*
X102122560Y-102770000D01*
X100710000Y-102770000D01*
X100710000Y-102073274D01*
X100821166Y-101514402D01*
X101097789Y-101100407D01*
X101511780Y-100823787D01*
X102083826Y-100710000D01*
X260430069Y-100710000D01*
X260988338Y-100821046D01*
G36*
X251525267Y-114038330D02*
X251524735Y-114648991D01*
X251757932Y-115213371D01*
X251989182Y-115445026D01*
X251759449Y-115674357D01*
X251525267Y-116238330D01*
X251524735Y-116848991D01*
X251757932Y-117413371D01*
X251989182Y-117645026D01*
X251759449Y-117874357D01*
X251525267Y-118438330D01*
X251525250Y-118457460D01*
X251389960Y-118592750D01*
X251380839Y-118375540D01*
X251196643Y-117930852D01*
X250940159Y-117844446D01*
X250039605Y-118745000D01*
X250053748Y-118759143D01*
X249874143Y-118938748D01*
X249860000Y-118924605D01*
X249845858Y-118938748D01*
X249666253Y-118759143D01*
X249680395Y-118745000D01*
X248779841Y-117844446D01*
X248523357Y-117930852D01*
X248391512Y-118291222D01*
X248184145Y-118083855D01*
X247880809Y-117881173D01*
X247523000Y-117810000D01*
X246959048Y-117810000D01*
X247041145Y-117755145D01*
X248140880Y-116655410D01*
X248325144Y-116379639D01*
X248324735Y-116848991D01*
X248557932Y-117413371D01*
X248989357Y-117845551D01*
X249247237Y-117952632D01*
X249860000Y-118565395D01*
X250472676Y-117952719D01*
X250728371Y-117847068D01*
X251160551Y-117415643D01*
X251394733Y-116851670D01*
X251395265Y-116241009D01*
X251162068Y-115676629D01*
X250930818Y-115444974D01*
X251160551Y-115215643D01*
X251394733Y-114651670D01*
X251395265Y-114041009D01*
X251327086Y-113876002D01*
X251592671Y-113876002D01*
X251525267Y-114038330D01*
X251525267Y-114038330D01*
G37*
X251525267Y-114038330D02*
X251524735Y-114648991D01*
X251757932Y-115213371D01*
X251989182Y-115445026D01*
X251759449Y-115674357D01*
X251525267Y-116238330D01*
X251524735Y-116848991D01*
X251757932Y-117413371D01*
X251989182Y-117645026D01*
X251759449Y-117874357D01*
X251525267Y-118438330D01*
X251525250Y-118457460D01*
X251389960Y-118592750D01*
X251380839Y-118375540D01*
X251196643Y-117930852D01*
X250940159Y-117844446D01*
X250039605Y-118745000D01*
X250053748Y-118759143D01*
X249874143Y-118938748D01*
X249860000Y-118924605D01*
X249845858Y-118938748D01*
X249666253Y-118759143D01*
X249680395Y-118745000D01*
X248779841Y-117844446D01*
X248523357Y-117930852D01*
X248391512Y-118291222D01*
X248184145Y-118083855D01*
X247880809Y-117881173D01*
X247523000Y-117810000D01*
X246959048Y-117810000D01*
X247041145Y-117755145D01*
X248140880Y-116655410D01*
X248325144Y-116379639D01*
X248324735Y-116848991D01*
X248557932Y-117413371D01*
X248989357Y-117845551D01*
X249247237Y-117952632D01*
X249860000Y-118565395D01*
X250472676Y-117952719D01*
X250728371Y-117847068D01*
X251160551Y-117415643D01*
X251394733Y-116851670D01*
X251395265Y-116241009D01*
X251162068Y-115676629D01*
X250930818Y-115444974D01*
X251160551Y-115215643D01*
X251394733Y-114651670D01*
X251395265Y-114041009D01*
X251327086Y-113876002D01*
X251592671Y-113876002D01*
X251525267Y-114038330D01*
G36*
X255242560Y-103402850D02*
X255242560Y-104470000D01*
X255286838Y-104705317D01*
X255425910Y-104921441D01*
X255638110Y-105066431D01*
X255890000Y-105117440D01*
X257571114Y-105117440D01*
X257505554Y-105183000D01*
X248999419Y-105183000D01*
X248942327Y-105125808D01*
X248598799Y-104983162D01*
X248226833Y-104982838D01*
X247883057Y-105124883D01*
X247824838Y-105183000D01*
X243649083Y-105183000D01*
X244016924Y-105030645D01*
X244445183Y-104640358D01*
X244691486Y-104115892D01*
X244570819Y-103886000D01*
X243377000Y-103886000D01*
X243377000Y-103906000D01*
X243123000Y-103906000D01*
X243123000Y-103886000D01*
X243103000Y-103886000D01*
X243103000Y-103632000D01*
X243123000Y-103632000D01*
X243123000Y-103612000D01*
X243377000Y-103612000D01*
X243377000Y-103632000D01*
X244570819Y-103632000D01*
X244691486Y-103402108D01*
X244463197Y-102916000D01*
X254755710Y-102916000D01*
X255242560Y-103402850D01*
X255242560Y-103402850D01*
G37*
X255242560Y-103402850D02*
X255242560Y-104470000D01*
X255286838Y-104705317D01*
X255425910Y-104921441D01*
X255638110Y-105066431D01*
X255890000Y-105117440D01*
X257571114Y-105117440D01*
X257505554Y-105183000D01*
X248999419Y-105183000D01*
X248942327Y-105125808D01*
X248598799Y-104983162D01*
X248226833Y-104982838D01*
X247883057Y-105124883D01*
X247824838Y-105183000D01*
X243649083Y-105183000D01*
X244016924Y-105030645D01*
X244445183Y-104640358D01*
X244691486Y-104115892D01*
X244570819Y-103886000D01*
X243377000Y-103886000D01*
X243377000Y-103906000D01*
X243123000Y-103906000D01*
X243123000Y-103886000D01*
X243103000Y-103886000D01*
X243103000Y-103632000D01*
X243123000Y-103632000D01*
X243123000Y-103612000D01*
X243377000Y-103612000D01*
X243377000Y-103632000D01*
X244570819Y-103632000D01*
X244691486Y-103402108D01*
X244463197Y-102916000D01*
X254755710Y-102916000D01*
X255242560Y-103402850D01*
G36*
X178682560Y-104470000D02*
X178721133Y-104675000D01*
X167694647Y-104675000D01*
X167885183Y-104501358D01*
X168131486Y-103976892D01*
X168010819Y-103747000D01*
X166817000Y-103747000D01*
X166817000Y-103767000D01*
X166563000Y-103767000D01*
X166563000Y-103747000D01*
X166543000Y-103747000D01*
X166543000Y-103493000D01*
X166563000Y-103493000D01*
X166563000Y-103473000D01*
X166817000Y-103473000D01*
X166817000Y-103493000D01*
X168010819Y-103493000D01*
X168131486Y-103263108D01*
X167968475Y-102916000D01*
X178682560Y-102916000D01*
X178682560Y-104470000D01*
X178682560Y-104470000D01*
G37*
X178682560Y-104470000D02*
X178721133Y-104675000D01*
X167694647Y-104675000D01*
X167885183Y-104501358D01*
X168131486Y-103976892D01*
X168010819Y-103747000D01*
X166817000Y-103747000D01*
X166817000Y-103767000D01*
X166563000Y-103767000D01*
X166563000Y-103747000D01*
X166543000Y-103747000D01*
X166543000Y-103493000D01*
X166563000Y-103493000D01*
X166563000Y-103473000D01*
X166817000Y-103473000D01*
X166817000Y-103493000D01*
X168010819Y-103493000D01*
X168131486Y-103263108D01*
X167968475Y-102916000D01*
X178682560Y-102916000D01*
X178682560Y-104470000D01*
G36*
X216962560Y-104290113D02*
X215911723Y-103239277D01*
X215673272Y-103079949D01*
X215392000Y-103024000D01*
X209169000Y-103024000D01*
X208887728Y-103079949D01*
X208649277Y-103239276D01*
X207213554Y-104675000D01*
X205974647Y-104675000D01*
X206165183Y-104501358D01*
X206411486Y-103976892D01*
X206290819Y-103747000D01*
X205097000Y-103747000D01*
X205097000Y-103767000D01*
X204843000Y-103767000D01*
X204843000Y-103747000D01*
X204823000Y-103747000D01*
X204823000Y-103493000D01*
X204843000Y-103493000D01*
X204843000Y-103473000D01*
X205097000Y-103473000D01*
X205097000Y-103493000D01*
X206290819Y-103493000D01*
X206411486Y-103263108D01*
X206248475Y-102916000D01*
X216962560Y-102916000D01*
X216962560Y-104290113D01*
X216962560Y-104290113D01*
G37*
X216962560Y-104290113D02*
X215911723Y-103239277D01*
X215673272Y-103079949D01*
X215392000Y-103024000D01*
X209169000Y-103024000D01*
X208887728Y-103079949D01*
X208649277Y-103239276D01*
X207213554Y-104675000D01*
X205974647Y-104675000D01*
X206165183Y-104501358D01*
X206411486Y-103976892D01*
X206290819Y-103747000D01*
X205097000Y-103747000D01*
X205097000Y-103767000D01*
X204843000Y-103767000D01*
X204843000Y-103747000D01*
X204823000Y-103747000D01*
X204823000Y-103493000D01*
X204843000Y-103493000D01*
X204843000Y-103473000D01*
X205097000Y-103473000D01*
X205097000Y-103493000D01*
X206290819Y-103493000D01*
X206411486Y-103263108D01*
X206248475Y-102916000D01*
X216962560Y-102916000D01*
X216962560Y-104290113D01*
M02*
