M48
METRIC,TZ
T1C0.400
T2C0.762
T3C0.800
T4C0.850
T5C1.000
T6C1.100
%
G90
G05
T1
X104140Y-118745
X104140Y-130175
X107696Y-120015
X107696Y-130810
X111252Y-120650
X111252Y-131445
X114808Y-132080
X118745Y-132715
X121920Y-121285
X121920Y-133350
X122809Y-133985
X123444Y-130175
X124587Y-122555
X125476Y-118745
X125476Y-130810
X129032Y-119380
X129032Y-131445
X130556Y-132080
X131318Y-132715
X132588Y-120015
X132588Y-130175
X132715Y-121920
X133731Y-131445
X134620Y-133350
X135001Y-130175
X136144Y-118745
X136144Y-130810
X137668Y-133985
X139700Y-119380
X139700Y-132080
X143256Y-120015
X143256Y-132715
X146812Y-120650
X146812Y-133985
X149225Y-121285
X150368Y-130175
X151511Y-132715
X153924Y-130810
X155448Y-133350
X156591Y-133985
X157480Y-131445
X161036Y-118745
X161036Y-132080
X162052Y-101981
X164592Y-119380
X164592Y-133985
X168148Y-120015
X168148Y-130810
X169545Y-121920
X170180Y-132080
X171704Y-120650
X171704Y-131445
X175260Y-133350
X178816Y-133985
X180340Y-120650
X182245Y-122555
X182372Y-130175
X185293Y-119761
X185928Y-131445
X189484Y-132080
X190500Y-130175
X192024Y-101981
X193040Y-130810
X193040Y-133350
X195072Y-131445
X196215Y-120650
X196596Y-133985
X198755Y-132080
X200152Y-125603
X201270Y-132740
X203835Y-133350
X206375Y-133985
X210058Y-134874
X213741Y-106934
X213741Y-113030
X215519Y-119761
X216789Y-139065
X218440Y-126619
X222758Y-124460
X231648Y-136144
X234442Y-137541
X234696Y-109855
X247650Y-120269
X248412Y-105918
X250952Y-111130
T2
X225552Y-108204
X225552Y-110744
T3
X237570Y-125730
X238820Y-125730
X241320Y-125730
X242570Y-125730
X245745Y-115570
X245745Y-125730
X249000Y-125730
X250250Y-125730
X252750Y-125730
X254000Y-125730
X257175Y-115570
X257175Y-125730
T4
X114275Y-108890
X114275Y-112090
X117475Y-108890
X117475Y-112090
X119675Y-108890
X119675Y-112090
X121875Y-108890
X121875Y-112090
X139040Y-108890
X139040Y-112090
X142240Y-108890
X142240Y-112090
X144440Y-108890
X144440Y-112090
X146640Y-108890
X146640Y-112090
X163805Y-108890
X163805Y-112090
X167005Y-108890
X167005Y-112090
X169205Y-108890
X169205Y-112090
X171405Y-108890
X171405Y-112090
X190475Y-108890
X190475Y-112090
X193675Y-108890
X193675Y-112090
X195875Y-108890
X195875Y-112090
X198075Y-108890
X198075Y-112090
X215240Y-108890
X215240Y-112090
X218440Y-108890
X218440Y-112090
X220640Y-108890
X220640Y-112090
X222840Y-108890
X222840Y-112090
X238430Y-114345
X238430Y-116545
X238430Y-118745
X238430Y-121945
X241630Y-114345
X241630Y-116545
X241630Y-118745
X241630Y-121945
X249860Y-114345
X249860Y-116545
X249860Y-118745
X249860Y-121945
X253060Y-114345
X253060Y-116545
X253060Y-118745
X253060Y-121945
T5
X103620Y-103620
X106160Y-103620
X119820Y-140130
X122360Y-140130
X124900Y-140130
X125870Y-103620
X127440Y-140130
X128410Y-103620
X129980Y-140130
X132520Y-140130
X135060Y-140130
X137600Y-140130
X140140Y-140130
X141900Y-103620
X142680Y-140130
X144440Y-103620
X164150Y-103620
X166690Y-103620
X180180Y-103620
X182720Y-103620
X188570Y-140130
X191110Y-140130
X193650Y-140130
X196190Y-140130
X198730Y-140130
X201270Y-140130
X202430Y-103620
X203810Y-140130
X204970Y-103620
X206350Y-140130
X208890Y-140130
X211430Y-140130
X218460Y-103620
X221000Y-103620
X240710Y-103759
X243250Y-103759
X248730Y-140130
X251270Y-140130
X256740Y-103620
X259280Y-103620
T6
X104140Y-116840
X104140Y-124460
X104140Y-128270
X104140Y-135890
X107696Y-116840
X107696Y-124460
X107696Y-128270
X107696Y-135890
X110490Y-105410
X110490Y-113030
X111252Y-116840
X111252Y-124460
X111252Y-128270
X111252Y-135890
X114808Y-116840
X114808Y-124460
X114808Y-128270
X114808Y-135890
X118364Y-116840
X118364Y-124460
X118364Y-128270
X118364Y-135890
X121920Y-116840
X121920Y-124460
X121920Y-128270
X121920Y-135890
X125476Y-116840
X125476Y-124460
X125476Y-128270
X125476Y-135890
X129032Y-116840
X129032Y-124460
X129032Y-128270
X129032Y-135890
X132588Y-116840
X132588Y-124460
X132588Y-128270
X132588Y-135890
X135255Y-105410
X135255Y-113030
X136144Y-116840
X136144Y-124460
X136144Y-128270
X136144Y-135890
X139700Y-116840
X139700Y-124460
X139700Y-128270
X139700Y-135890
X143256Y-116840
X143256Y-124460
X143256Y-128270
X143256Y-135890
X146812Y-116840
X146812Y-124460
X146812Y-128270
X146812Y-135890
X150368Y-116840
X150368Y-124460
X150368Y-128270
X150368Y-135890
X153924Y-116840
X153924Y-124460
X153924Y-128270
X153924Y-135890
X157480Y-116840
X157480Y-124460
X157480Y-128270
X157480Y-135890
X160020Y-105410
X160020Y-113030
X161036Y-116840
X161036Y-124460
X161036Y-128270
X161036Y-135890
X164592Y-116840
X164592Y-124460
X164592Y-128270
X164592Y-135890
X168148Y-116840
X168148Y-124460
X168148Y-128270
X168148Y-135890
X171704Y-116840
X171704Y-124460
X171704Y-128270
X171704Y-135890
X175260Y-116840
X175260Y-124460
X175260Y-128270
X175260Y-135890
X178816Y-116840
X178816Y-124460
X178816Y-128270
X178816Y-135890
X182372Y-128270
X182372Y-135890
X185928Y-128270
X185928Y-135890
X186690Y-105410
X186690Y-113030
X189484Y-128270
X189484Y-135890
X193040Y-128270
X193040Y-135890
X196596Y-128270
X196596Y-135890
X211455Y-105410
X211455Y-113030
X237490Y-129540
X245110Y-129540
X248920Y-129540
X256540Y-129540
T0
M30
