G04 #@! TF.FileFunction,Soldermask,Top*
%FSLAX46Y46*%
G04 Gerber Fmt 4.6, Leading zero omitted, Abs format (unit mm)*
G04 Created by KiCad (PCBNEW 4.0.4+e1-6308~48~ubuntu16.04.1-stable) date Mon Jan 22 21:19:12 2018*
%MOMM*%
%LPD*%
G01*
G04 APERTURE LIST*
%ADD10C,0.100000*%
%ADD11R,1.670000X1.370000*%
%ADD12C,2.000000*%
%ADD13O,2.000000X2.000000*%
%ADD14R,2.600000X2.600000*%
%ADD15O,2.600000X2.600000*%
%ADD16R,2.100000X2.100000*%
%ADD17O,2.100000X2.100000*%
%ADD18R,1.924000X1.924000*%
%ADD19C,1.924000*%
%ADD20C,2.200000*%
G04 APERTURE END LIST*
D10*
D11*
X244475000Y-111130000D03*
X244475000Y-109850000D03*
X247015000Y-111130000D03*
X247015000Y-109850000D03*
X217805000Y-139060000D03*
X217805000Y-140340000D03*
X220345000Y-139060000D03*
X220345000Y-140340000D03*
D12*
X245745000Y-115570000D03*
D13*
X245745000Y-125730000D03*
D12*
X257175000Y-115570000D03*
D13*
X257175000Y-125730000D03*
D12*
X241320000Y-125730000D03*
X238820000Y-125730000D03*
X242570000Y-125730000D03*
X237570000Y-125730000D03*
X252750000Y-125730000D03*
X250250000Y-125730000D03*
X254000000Y-125730000D03*
X249000000Y-125730000D03*
D14*
X245110000Y-129540000D03*
D15*
X237490000Y-129540000D03*
D14*
X248920000Y-129540000D03*
D15*
X256540000Y-129540000D03*
D14*
X110490000Y-105410000D03*
D15*
X110490000Y-113030000D03*
D14*
X186690000Y-105410000D03*
D15*
X186690000Y-113030000D03*
D14*
X211455000Y-105410000D03*
D15*
X211455000Y-113030000D03*
D14*
X104140000Y-128270000D03*
D15*
X104140000Y-135890000D03*
D14*
X104140000Y-124460000D03*
D15*
X104140000Y-116840000D03*
D14*
X107696000Y-128270000D03*
D15*
X107696000Y-135890000D03*
D14*
X107696000Y-124460000D03*
D15*
X107696000Y-116840000D03*
D14*
X111252000Y-128270000D03*
D15*
X111252000Y-135890000D03*
D14*
X111252000Y-124460000D03*
D15*
X111252000Y-116840000D03*
D14*
X135255000Y-105410000D03*
D15*
X135255000Y-113030000D03*
D14*
X114808000Y-128270000D03*
D15*
X114808000Y-135890000D03*
D14*
X114808000Y-124460000D03*
D15*
X114808000Y-116840000D03*
D14*
X118364000Y-128270000D03*
D15*
X118364000Y-135890000D03*
D14*
X118364000Y-124460000D03*
D15*
X118364000Y-116840000D03*
D14*
X121920000Y-128270000D03*
D15*
X121920000Y-135890000D03*
D14*
X121920000Y-124460000D03*
D15*
X121920000Y-116840000D03*
D14*
X125476000Y-128270000D03*
D15*
X125476000Y-135890000D03*
D14*
X125476000Y-124460000D03*
D15*
X125476000Y-116840000D03*
D14*
X129032000Y-128270000D03*
D15*
X129032000Y-135890000D03*
D14*
X129032000Y-124460000D03*
D15*
X129032000Y-116840000D03*
D14*
X160020000Y-105410000D03*
D15*
X160020000Y-113030000D03*
D14*
X132588000Y-128270000D03*
D15*
X132588000Y-135890000D03*
D14*
X132588000Y-124460000D03*
D15*
X132588000Y-116840000D03*
D14*
X136144000Y-128270000D03*
D15*
X136144000Y-135890000D03*
D14*
X136144000Y-124460000D03*
D15*
X136144000Y-116840000D03*
D14*
X139700000Y-128270000D03*
D15*
X139700000Y-135890000D03*
D14*
X139700000Y-124460000D03*
D15*
X139700000Y-116840000D03*
D14*
X143256000Y-128270000D03*
D15*
X143256000Y-135890000D03*
D14*
X143256000Y-124460000D03*
D15*
X143256000Y-116840000D03*
D14*
X146812000Y-128270000D03*
D15*
X146812000Y-135890000D03*
D14*
X146812000Y-124460000D03*
D15*
X146812000Y-116840000D03*
D14*
X150368000Y-128270000D03*
D15*
X150368000Y-135890000D03*
D14*
X150368000Y-124460000D03*
D15*
X150368000Y-116840000D03*
D14*
X153924000Y-128270000D03*
D15*
X153924000Y-135890000D03*
D14*
X153924000Y-124460000D03*
D15*
X153924000Y-116840000D03*
D14*
X157480000Y-128270000D03*
D15*
X157480000Y-135890000D03*
D14*
X157480000Y-124460000D03*
D15*
X157480000Y-116840000D03*
D14*
X161036000Y-128270000D03*
D15*
X161036000Y-135890000D03*
D14*
X161036000Y-124460000D03*
D15*
X161036000Y-116840000D03*
D14*
X164592000Y-128270000D03*
D15*
X164592000Y-135890000D03*
D14*
X164592000Y-124460000D03*
D15*
X164592000Y-116840000D03*
D14*
X168148000Y-128270000D03*
D15*
X168148000Y-135890000D03*
D14*
X168148000Y-124460000D03*
D15*
X168148000Y-116840000D03*
D14*
X171704000Y-128270000D03*
D15*
X171704000Y-135890000D03*
D14*
X171704000Y-124460000D03*
D15*
X171704000Y-116840000D03*
D14*
X175260000Y-128270000D03*
D15*
X175260000Y-135890000D03*
D14*
X175260000Y-124460000D03*
D15*
X175260000Y-116840000D03*
D14*
X178816000Y-128270000D03*
D15*
X178816000Y-135890000D03*
D14*
X178816000Y-124460000D03*
D15*
X178816000Y-116840000D03*
D14*
X182372000Y-128270000D03*
D15*
X182372000Y-135890000D03*
D14*
X185928000Y-128270000D03*
D15*
X185928000Y-135890000D03*
D14*
X189484000Y-128270000D03*
D15*
X189484000Y-135890000D03*
D14*
X193040000Y-128270000D03*
D15*
X193040000Y-135890000D03*
D14*
X196596000Y-128270000D03*
D15*
X196596000Y-135890000D03*
D16*
X103620000Y-103620000D03*
D17*
X106160000Y-103620000D03*
D16*
X141900000Y-103620000D03*
D17*
X144440000Y-103620000D03*
D16*
X180180000Y-103620000D03*
D17*
X182720000Y-103620000D03*
D16*
X218460000Y-103620000D03*
D17*
X221000000Y-103620000D03*
D16*
X125870000Y-103620000D03*
D17*
X128410000Y-103620000D03*
D16*
X164150000Y-103620000D03*
D17*
X166690000Y-103620000D03*
D16*
X202430000Y-103620000D03*
D17*
X204970000Y-103620000D03*
D16*
X188570000Y-140130000D03*
D17*
X191110000Y-140130000D03*
X193650000Y-140130000D03*
X196190000Y-140130000D03*
X198730000Y-140130000D03*
X201270000Y-140130000D03*
X203810000Y-140130000D03*
X206350000Y-140130000D03*
X208890000Y-140130000D03*
X211430000Y-140130000D03*
D16*
X119820000Y-140130000D03*
D17*
X122360000Y-140130000D03*
X124900000Y-140130000D03*
X127440000Y-140130000D03*
X129980000Y-140130000D03*
X132520000Y-140130000D03*
X135060000Y-140130000D03*
X137600000Y-140130000D03*
X140140000Y-140130000D03*
X142680000Y-140130000D03*
D16*
X256740000Y-103620000D03*
D17*
X259280000Y-103620000D03*
D16*
X248730000Y-140130000D03*
D17*
X251270000Y-140130000D03*
D16*
X240710000Y-103759000D03*
D17*
X243250000Y-103759000D03*
D18*
X225552000Y-108204000D03*
D19*
X225552000Y-110744000D03*
D20*
X163805000Y-112090000D03*
X167005000Y-112090000D03*
X169205000Y-112090000D03*
X171405000Y-112090000D03*
X171405000Y-108890000D03*
X169205000Y-108890000D03*
X167005000Y-108890000D03*
X163805000Y-108890000D03*
X114275000Y-112090000D03*
X117475000Y-112090000D03*
X119675000Y-112090000D03*
X121875000Y-112090000D03*
X121875000Y-108890000D03*
X119675000Y-108890000D03*
X117475000Y-108890000D03*
X114275000Y-108890000D03*
X215240000Y-112090000D03*
X218440000Y-112090000D03*
X220640000Y-112090000D03*
X222840000Y-112090000D03*
X222840000Y-108890000D03*
X220640000Y-108890000D03*
X218440000Y-108890000D03*
X215240000Y-108890000D03*
X190475000Y-112090000D03*
X193675000Y-112090000D03*
X195875000Y-112090000D03*
X198075000Y-112090000D03*
X198075000Y-108890000D03*
X195875000Y-108890000D03*
X193675000Y-108890000D03*
X190475000Y-108890000D03*
X139040000Y-112090000D03*
X142240000Y-112090000D03*
X144440000Y-112090000D03*
X146640000Y-112090000D03*
X146640000Y-108890000D03*
X144440000Y-108890000D03*
X142240000Y-108890000D03*
X139040000Y-108890000D03*
X253060000Y-121945000D03*
X253060000Y-118745000D03*
X253060000Y-116545000D03*
X253060000Y-114345000D03*
X249860000Y-114345000D03*
X249860000Y-116545000D03*
X249860000Y-118745000D03*
X249860000Y-121945000D03*
X241630000Y-121945000D03*
X241630000Y-118745000D03*
X241630000Y-116545000D03*
X241630000Y-114345000D03*
X238430000Y-114345000D03*
X238430000Y-116545000D03*
X238430000Y-118745000D03*
X238430000Y-121945000D03*
M02*
