M48
METRIC,TZ
T1C0.400
T2C0.800
T3C0.850
T4C1.000
T5C1.100
%
G90
G05
T1
X101750Y-122500
X105500Y-72500
X106000Y-88500
X106000Y-109000
X107500Y-113250
X108750Y-85000
X109000Y-88500
X109000Y-108750
X109500Y-84250
X110500Y-73000
X110500Y-122500
X111000Y-114750
X111000Y-115750
X112000Y-93250
X113000Y-93250
X113500Y-84750
X113500Y-105750
X113500Y-116000
X114750Y-105750
X116750Y-117500
X117500Y-82500
X117750Y-80750
X117750Y-107000
X119000Y-124500
T2
X102500Y-52500
X102500Y-62660
X102500Y-65000
X102500Y-75160
X102500Y-124840
X102500Y-135000
X102500Y-137590
X102500Y-147750
X106000Y-126500
X106000Y-130750
X107250Y-126500
X107250Y-130750
X107340Y-122500
X107500Y-77500
X109750Y-126500
X109750Y-130750
X111000Y-126500
X111000Y-130750
X117500Y-122500
X117660Y-77500
X122500Y-52500
X122500Y-62660
X122500Y-65090
X122500Y-75250
X122500Y-124500
X122500Y-134660
X122500Y-137340
X122500Y-147500
T3
X107400Y-57800
X107400Y-61000
X107400Y-63200
X107400Y-65400
X107400Y-134600
X107400Y-136800
X107400Y-139000
X107400Y-142200
X110600Y-57800
X110600Y-61000
X110600Y-63200
X110600Y-65400
X110600Y-134600
X110600Y-136800
X110600Y-139000
X110600Y-142200
X114400Y-57800
X114400Y-61000
X114400Y-63200
X114400Y-65400
X114400Y-134600
X114400Y-136800
X114400Y-139000
X114400Y-142200
X117600Y-57800
X117600Y-61000
X117600Y-63200
X117600Y-65400
X117600Y-134600
X117600Y-136800
X117600Y-139000
X117600Y-142200
T4
X103620Y-79980
X103620Y-82520
X103620Y-85060
X103620Y-114940
X103620Y-117480
X103620Y-120020
X111230Y-53620
X111230Y-146380
X113770Y-53620
X113770Y-146380
X121380Y-79980
X121380Y-82520
X121380Y-85060
X121380Y-114940
X121380Y-117480
X121380Y-120020
T5
X103500Y-97750
X103500Y-102250
X110000Y-97750
X110000Y-102250
X114500Y-97750
X114500Y-102250
X121000Y-97750
X121000Y-102250
T0
M30
