G04 #@! TF.FileFunction,Legend,Bot*
%FSLAX46Y46*%
G04 Gerber Fmt 4.6, Leading zero omitted, Abs format (unit mm)*
G04 Created by KiCad (PCBNEW 4.0.4+e1-6308~48~ubuntu16.04.1-stable) date Sun Jan 28 16:20:55 2018*
%MOMM*%
%LPD*%
G01*
G04 APERTURE LIST*
%ADD10C,0.100000*%
%ADD11C,0.150000*%
%ADD12C,0.300000*%
%ADD13C,0.120000*%
%ADD14C,0.010000*%
G04 APERTURE END LIST*
D10*
D11*
X115761905Y-71877381D02*
X115761905Y-70877381D01*
X115523810Y-70877381D01*
X115380952Y-70925000D01*
X115285714Y-71020238D01*
X115238095Y-71115476D01*
X115190476Y-71305952D01*
X115190476Y-71448810D01*
X115238095Y-71639286D01*
X115285714Y-71734524D01*
X115380952Y-71829762D01*
X115523810Y-71877381D01*
X115761905Y-71877381D01*
X114619048Y-71877381D02*
X114714286Y-71829762D01*
X114761905Y-71782143D01*
X114809524Y-71686905D01*
X114809524Y-71401190D01*
X114761905Y-71305952D01*
X114714286Y-71258333D01*
X114619048Y-71210714D01*
X114476190Y-71210714D01*
X114380952Y-71258333D01*
X114333333Y-71305952D01*
X114285714Y-71401190D01*
X114285714Y-71686905D01*
X114333333Y-71782143D01*
X114380952Y-71829762D01*
X114476190Y-71877381D01*
X114619048Y-71877381D01*
X114000000Y-71210714D02*
X113619048Y-71210714D01*
X113857143Y-70877381D02*
X113857143Y-71734524D01*
X113809524Y-71829762D01*
X113714286Y-71877381D01*
X113619048Y-71877381D01*
X113333333Y-71829762D02*
X113238095Y-71877381D01*
X113047619Y-71877381D01*
X112952380Y-71829762D01*
X112904761Y-71734524D01*
X112904761Y-71686905D01*
X112952380Y-71591667D01*
X113047619Y-71544048D01*
X113190476Y-71544048D01*
X113285714Y-71496429D01*
X113333333Y-71401190D01*
X113333333Y-71353571D01*
X113285714Y-71258333D01*
X113190476Y-71210714D01*
X113047619Y-71210714D01*
X112952380Y-71258333D01*
X115190476Y-73527381D02*
X115523810Y-73051190D01*
X115761905Y-73527381D02*
X115761905Y-72527381D01*
X115380952Y-72527381D01*
X115285714Y-72575000D01*
X115238095Y-72622619D01*
X115190476Y-72717857D01*
X115190476Y-72860714D01*
X115238095Y-72955952D01*
X115285714Y-73003571D01*
X115380952Y-73051190D01*
X115761905Y-73051190D01*
X114380952Y-73479762D02*
X114476190Y-73527381D01*
X114666667Y-73527381D01*
X114761905Y-73479762D01*
X114809524Y-73384524D01*
X114809524Y-73003571D01*
X114761905Y-72908333D01*
X114666667Y-72860714D01*
X114476190Y-72860714D01*
X114380952Y-72908333D01*
X114333333Y-73003571D01*
X114333333Y-73098810D01*
X114809524Y-73194048D01*
X113761905Y-73527381D02*
X113857143Y-73479762D01*
X113904762Y-73384524D01*
X113904762Y-72527381D01*
X112952380Y-73527381D02*
X112952380Y-73003571D01*
X112999999Y-72908333D01*
X113095237Y-72860714D01*
X113285714Y-72860714D01*
X113380952Y-72908333D01*
X112952380Y-73479762D02*
X113047618Y-73527381D01*
X113285714Y-73527381D01*
X113380952Y-73479762D01*
X113428571Y-73384524D01*
X113428571Y-73289286D01*
X113380952Y-73194048D01*
X113285714Y-73146429D01*
X113047618Y-73146429D01*
X112952380Y-73098810D01*
X112571428Y-72860714D02*
X112333333Y-73527381D01*
X112095237Y-72860714D02*
X112333333Y-73527381D01*
X112428571Y-73765476D01*
X112476190Y-73813095D01*
X112571428Y-73860714D01*
X111142856Y-73432143D02*
X111190475Y-73479762D01*
X111333332Y-73527381D01*
X111428570Y-73527381D01*
X111571428Y-73479762D01*
X111666666Y-73384524D01*
X111714285Y-73289286D01*
X111761904Y-73098810D01*
X111761904Y-72955952D01*
X111714285Y-72765476D01*
X111666666Y-72670238D01*
X111571428Y-72575000D01*
X111428570Y-72527381D01*
X111333332Y-72527381D01*
X111190475Y-72575000D01*
X111142856Y-72622619D01*
X110571428Y-73527381D02*
X110666666Y-73479762D01*
X110714285Y-73384524D01*
X110714285Y-72527381D01*
X110047618Y-73527381D02*
X110142856Y-73479762D01*
X110190475Y-73432143D01*
X110238094Y-73336905D01*
X110238094Y-73051190D01*
X110190475Y-72955952D01*
X110142856Y-72908333D01*
X110047618Y-72860714D01*
X109904760Y-72860714D01*
X109809522Y-72908333D01*
X109761903Y-72955952D01*
X109714284Y-73051190D01*
X109714284Y-73336905D01*
X109761903Y-73432143D01*
X109809522Y-73479762D01*
X109904760Y-73527381D01*
X110047618Y-73527381D01*
X108857141Y-73479762D02*
X108952379Y-73527381D01*
X109142856Y-73527381D01*
X109238094Y-73479762D01*
X109285713Y-73432143D01*
X109333332Y-73336905D01*
X109333332Y-73051190D01*
X109285713Y-72955952D01*
X109238094Y-72908333D01*
X109142856Y-72860714D01*
X108952379Y-72860714D01*
X108857141Y-72908333D01*
X108428570Y-73527381D02*
X108428570Y-72527381D01*
X108333332Y-73146429D02*
X108047617Y-73527381D01*
X108047617Y-72860714D02*
X108428570Y-73241667D01*
X106952379Y-72860714D02*
X106714284Y-73527381D01*
X106476188Y-72860714D01*
X105571426Y-73527381D02*
X106142855Y-73527381D01*
X105857141Y-73527381D02*
X105857141Y-72527381D01*
X105952379Y-72670238D01*
X106047617Y-72765476D01*
X106142855Y-72813095D01*
X105142855Y-73432143D02*
X105095236Y-73479762D01*
X105142855Y-73527381D01*
X105190474Y-73479762D01*
X105142855Y-73432143D01*
X105142855Y-73527381D01*
X104476189Y-72527381D02*
X104380950Y-72527381D01*
X104285712Y-72575000D01*
X104238093Y-72622619D01*
X104190474Y-72717857D01*
X104142855Y-72908333D01*
X104142855Y-73146429D01*
X104190474Y-73336905D01*
X104238093Y-73432143D01*
X104285712Y-73479762D01*
X104380950Y-73527381D01*
X104476189Y-73527381D01*
X104571427Y-73479762D01*
X104619046Y-73432143D01*
X104666665Y-73336905D01*
X104714284Y-73146429D01*
X104714284Y-72908333D01*
X104666665Y-72717857D01*
X104619046Y-72622619D01*
X104571427Y-72575000D01*
X104476189Y-72527381D01*
D12*
X123178571Y-93678571D02*
X123678571Y-92964286D01*
X124035714Y-93678571D02*
X124035714Y-92178571D01*
X123464286Y-92178571D01*
X123321428Y-92250000D01*
X123250000Y-92321429D01*
X123178571Y-92464286D01*
X123178571Y-92678571D01*
X123250000Y-92821429D01*
X123321428Y-92892857D01*
X123464286Y-92964286D01*
X124035714Y-92964286D01*
X122535714Y-92892857D02*
X122035714Y-92892857D01*
X121821428Y-93678571D02*
X122535714Y-93678571D01*
X122535714Y-92178571D01*
X121821428Y-92178571D01*
X121250000Y-93607143D02*
X121035714Y-93678571D01*
X120678571Y-93678571D01*
X120535714Y-93607143D01*
X120464285Y-93535714D01*
X120392857Y-93392857D01*
X120392857Y-93250000D01*
X120464285Y-93107143D01*
X120535714Y-93035714D01*
X120678571Y-92964286D01*
X120964285Y-92892857D01*
X121107143Y-92821429D01*
X121178571Y-92750000D01*
X121250000Y-92607143D01*
X121250000Y-92464286D01*
X121178571Y-92321429D01*
X121107143Y-92250000D01*
X120964285Y-92178571D01*
X120607143Y-92178571D01*
X120392857Y-92250000D01*
X119750000Y-92892857D02*
X119250000Y-92892857D01*
X119035714Y-93678571D02*
X119750000Y-93678571D01*
X119750000Y-92178571D01*
X119035714Y-92178571D01*
X118607143Y-92178571D02*
X117750000Y-92178571D01*
X118178571Y-93678571D02*
X118178571Y-92178571D01*
X106464285Y-93678571D02*
X106464285Y-92178571D01*
X106107142Y-92178571D01*
X105892857Y-92250000D01*
X105749999Y-92392857D01*
X105678571Y-92535714D01*
X105607142Y-92821429D01*
X105607142Y-93035714D01*
X105678571Y-93321429D01*
X105749999Y-93464286D01*
X105892857Y-93607143D01*
X106107142Y-93678571D01*
X106464285Y-93678571D01*
X104678571Y-92178571D02*
X104392857Y-92178571D01*
X104249999Y-92250000D01*
X104107142Y-92392857D01*
X104035714Y-92678571D01*
X104035714Y-93178571D01*
X104107142Y-93464286D01*
X104249999Y-93607143D01*
X104392857Y-93678571D01*
X104678571Y-93678571D01*
X104821428Y-93607143D01*
X104964285Y-93464286D01*
X105035714Y-93178571D01*
X105035714Y-92678571D01*
X104964285Y-92392857D01*
X104821428Y-92250000D01*
X104678571Y-92178571D01*
X103607142Y-92178571D02*
X102749999Y-92178571D01*
X103178570Y-93678571D02*
X103178570Y-92178571D01*
X101464285Y-93678571D02*
X102321428Y-93678571D01*
X101892856Y-93678571D02*
X101892856Y-92178571D01*
X102035713Y-92392857D01*
X102178571Y-92535714D01*
X102321428Y-92607143D01*
X122678571Y-107250000D02*
X121964285Y-107250000D01*
X122821428Y-107678571D02*
X122321428Y-106178571D01*
X121821428Y-107678571D01*
X121321428Y-107678571D02*
X121321428Y-106178571D01*
X120964285Y-106178571D01*
X120750000Y-106250000D01*
X120607142Y-106392857D01*
X120535714Y-106535714D01*
X120464285Y-106821429D01*
X120464285Y-107035714D01*
X120535714Y-107321429D01*
X120607142Y-107464286D01*
X120750000Y-107607143D01*
X120964285Y-107678571D01*
X121321428Y-107678571D01*
X119392857Y-106178571D02*
X119392857Y-107250000D01*
X119464285Y-107464286D01*
X119607142Y-107607143D01*
X119821428Y-107678571D01*
X119964285Y-107678571D01*
X106464285Y-107678571D02*
X106464285Y-106178571D01*
X106107142Y-106178571D01*
X105892857Y-106250000D01*
X105749999Y-106392857D01*
X105678571Y-106535714D01*
X105607142Y-106821429D01*
X105607142Y-107035714D01*
X105678571Y-107321429D01*
X105749999Y-107464286D01*
X105892857Y-107607143D01*
X106107142Y-107678571D01*
X106464285Y-107678571D01*
X104678571Y-106178571D02*
X104392857Y-106178571D01*
X104249999Y-106250000D01*
X104107142Y-106392857D01*
X104035714Y-106678571D01*
X104035714Y-107178571D01*
X104107142Y-107464286D01*
X104249999Y-107607143D01*
X104392857Y-107678571D01*
X104678571Y-107678571D01*
X104821428Y-107607143D01*
X104964285Y-107464286D01*
X105035714Y-107178571D01*
X105035714Y-106678571D01*
X104964285Y-106392857D01*
X104821428Y-106250000D01*
X104678571Y-106178571D01*
X103607142Y-106178571D02*
X102749999Y-106178571D01*
X103178570Y-107678571D02*
X103178570Y-106178571D01*
X102321428Y-106321429D02*
X102249999Y-106250000D01*
X102107142Y-106178571D01*
X101749999Y-106178571D01*
X101607142Y-106250000D01*
X101535713Y-106321429D01*
X101464285Y-106464286D01*
X101464285Y-106607143D01*
X101535713Y-106821429D01*
X102392856Y-107678571D01*
X101464285Y-107678571D01*
X114107142Y-120035714D02*
X114178571Y-120107143D01*
X114392857Y-120178571D01*
X114535714Y-120178571D01*
X114749999Y-120107143D01*
X114892857Y-119964286D01*
X114964285Y-119821429D01*
X115035714Y-119535714D01*
X115035714Y-119321429D01*
X114964285Y-119035714D01*
X114892857Y-118892857D01*
X114749999Y-118750000D01*
X114535714Y-118678571D01*
X114392857Y-118678571D01*
X114178571Y-118750000D01*
X114107142Y-118821429D01*
X112749999Y-120178571D02*
X113464285Y-120178571D01*
X113464285Y-118678571D01*
X112249999Y-120178571D02*
X112249999Y-118678571D01*
X111392856Y-120178571D02*
X112035713Y-119321429D01*
X111392856Y-118678571D02*
X112249999Y-119535714D01*
X110821428Y-118821429D02*
X110749999Y-118750000D01*
X110607142Y-118678571D01*
X110249999Y-118678571D01*
X110107142Y-118750000D01*
X110035713Y-118821429D01*
X109964285Y-118964286D01*
X109964285Y-119107143D01*
X110035713Y-119321429D01*
X110892856Y-120178571D01*
X109964285Y-120178571D01*
X114107142Y-81035714D02*
X114178571Y-81107143D01*
X114392857Y-81178571D01*
X114535714Y-81178571D01*
X114749999Y-81107143D01*
X114892857Y-80964286D01*
X114964285Y-80821429D01*
X115035714Y-80535714D01*
X115035714Y-80321429D01*
X114964285Y-80035714D01*
X114892857Y-79892857D01*
X114749999Y-79750000D01*
X114535714Y-79678571D01*
X114392857Y-79678571D01*
X114178571Y-79750000D01*
X114107142Y-79821429D01*
X112749999Y-81178571D02*
X113464285Y-81178571D01*
X113464285Y-79678571D01*
X112249999Y-81178571D02*
X112249999Y-79678571D01*
X111392856Y-81178571D02*
X112035713Y-80321429D01*
X111392856Y-79678571D02*
X112249999Y-80535714D01*
X109964285Y-81178571D02*
X110821428Y-81178571D01*
X110392856Y-81178571D02*
X110392856Y-79678571D01*
X110535713Y-79892857D01*
X110678571Y-80035714D01*
X110821428Y-80107143D01*
D13*
X116010000Y-84000000D02*
X116010000Y-86700000D01*
X116010000Y-86700000D02*
X113990000Y-86700000D01*
X113990000Y-86700000D02*
X113990000Y-84000000D01*
X113990000Y-116000000D02*
X113990000Y-113300000D01*
X113990000Y-113300000D02*
X116010000Y-113300000D01*
X116010000Y-113300000D02*
X116010000Y-116000000D01*
X116010000Y-89000000D02*
X116010000Y-91700000D01*
X116010000Y-91700000D02*
X113990000Y-91700000D01*
X113990000Y-91700000D02*
X113990000Y-89000000D01*
X113990000Y-111000000D02*
X113990000Y-108300000D01*
X113990000Y-108300000D02*
X116010000Y-108300000D01*
X116010000Y-108300000D02*
X116010000Y-111000000D01*
X108080000Y-54260000D02*
X107150000Y-54260000D01*
X104920000Y-54260000D02*
X105850000Y-54260000D01*
X104920000Y-54260000D02*
X104920000Y-52100000D01*
X108080000Y-54260000D02*
X108080000Y-52800000D01*
X104920000Y-145740000D02*
X105850000Y-145740000D01*
X108080000Y-145740000D02*
X107150000Y-145740000D01*
X108080000Y-145740000D02*
X108080000Y-147900000D01*
X104920000Y-145740000D02*
X104920000Y-147200000D01*
X120080000Y-54260000D02*
X119150000Y-54260000D01*
X116920000Y-54260000D02*
X117850000Y-54260000D01*
X116920000Y-54260000D02*
X116920000Y-52100000D01*
X120080000Y-54260000D02*
X120080000Y-52800000D01*
X116920000Y-145740000D02*
X117850000Y-145740000D01*
X120080000Y-145740000D02*
X119150000Y-145740000D01*
X120080000Y-145740000D02*
X120080000Y-147900000D01*
X116920000Y-145740000D02*
X116920000Y-147200000D01*
X109240000Y-91580000D02*
X109240000Y-90650000D01*
X109240000Y-88420000D02*
X109240000Y-89350000D01*
X109240000Y-88420000D02*
X111400000Y-88420000D01*
X109240000Y-91580000D02*
X110700000Y-91580000D01*
X109240000Y-111580000D02*
X109240000Y-110650000D01*
X109240000Y-108420000D02*
X109240000Y-109350000D01*
X109240000Y-108420000D02*
X111400000Y-108420000D01*
X109240000Y-111580000D02*
X110700000Y-111580000D01*
X102300000Y-91700000D02*
X105700000Y-91700000D01*
X105700000Y-91700000D02*
X105700000Y-88300000D01*
X105700000Y-88300000D02*
X102300000Y-88300000D01*
X102300000Y-88300000D02*
X102300000Y-91700000D01*
X102300000Y-111700000D02*
X105700000Y-111700000D01*
X105700000Y-111700000D02*
X105700000Y-108300000D01*
X105700000Y-108300000D02*
X102300000Y-108300000D01*
X102300000Y-108300000D02*
X102300000Y-111700000D01*
X110800000Y-79200000D02*
X114200000Y-79200000D01*
X114200000Y-79200000D02*
X114200000Y-75800000D01*
X114200000Y-75800000D02*
X110800000Y-75800000D01*
X110800000Y-75800000D02*
X110800000Y-79200000D01*
X110800000Y-124200000D02*
X114200000Y-124200000D01*
X114200000Y-124200000D02*
X114200000Y-120800000D01*
X114200000Y-120800000D02*
X110800000Y-120800000D01*
X110800000Y-120800000D02*
X110800000Y-124200000D01*
X119300000Y-91700000D02*
X122700000Y-91700000D01*
X122700000Y-91700000D02*
X122700000Y-88300000D01*
X122700000Y-88300000D02*
X119300000Y-88300000D01*
X119300000Y-88300000D02*
X119300000Y-91700000D01*
X119300000Y-111700000D02*
X122700000Y-111700000D01*
X122700000Y-111700000D02*
X122700000Y-108300000D01*
X122700000Y-108300000D02*
X119300000Y-108300000D01*
X119300000Y-108300000D02*
X119300000Y-111700000D01*
X112840000Y-126840000D02*
X114100000Y-126840000D01*
X119660000Y-126840000D02*
X118400000Y-126840000D01*
X112840000Y-130600000D02*
X112840000Y-126840000D01*
X119660000Y-132850000D02*
X119660000Y-126840000D01*
D14*
G36*
X117781767Y-68135991D02*
X117699826Y-68353239D01*
X117581280Y-68688838D01*
X117433592Y-69121315D01*
X117264226Y-69629194D01*
X117109479Y-70102025D01*
X116901952Y-70746907D01*
X116745004Y-71249441D01*
X116634083Y-71627385D01*
X116564633Y-71898497D01*
X116532101Y-72080537D01*
X116531932Y-72191261D01*
X116559146Y-72248038D01*
X116654713Y-72317408D01*
X116864871Y-72459307D01*
X117165809Y-72658369D01*
X117533719Y-72899226D01*
X117944792Y-73166511D01*
X118375216Y-73444858D01*
X118801184Y-73718899D01*
X119198886Y-73973268D01*
X119544511Y-74192596D01*
X119814251Y-74361518D01*
X119984297Y-74464667D01*
X120032215Y-74489614D01*
X120107439Y-74444795D01*
X120304642Y-74320224D01*
X120603966Y-74128646D01*
X120985550Y-73882803D01*
X121429536Y-73595439D01*
X121747260Y-73389121D01*
X122225761Y-73076910D01*
X122658180Y-72792675D01*
X123023777Y-72550218D01*
X123301809Y-72363345D01*
X123471535Y-72245859D01*
X123513608Y-72213592D01*
X123505828Y-72119750D01*
X123460984Y-71930833D01*
X123147682Y-71930833D01*
X123072901Y-72040514D01*
X122850806Y-72228605D01*
X122483377Y-72493608D01*
X121972592Y-72834024D01*
X121856515Y-72909025D01*
X120566333Y-73739050D01*
X120375833Y-73518137D01*
X120246896Y-73349441D01*
X120192969Y-73245438D01*
X119846667Y-73245438D01*
X119793278Y-73367825D01*
X119665741Y-73530673D01*
X119599213Y-73603416D01*
X119540039Y-73651717D01*
X119467803Y-73666609D01*
X119362087Y-73639125D01*
X119202473Y-73560298D01*
X118968545Y-73421161D01*
X118639884Y-73212747D01*
X118196073Y-72926088D01*
X117999006Y-72798667D01*
X117511687Y-72473992D01*
X117160411Y-72217986D01*
X116949805Y-72034253D01*
X116884237Y-71930833D01*
X116906866Y-71805000D01*
X116932727Y-71782667D01*
X117055565Y-71803770D01*
X117294088Y-71858873D01*
X117601102Y-71935666D01*
X117929414Y-72021840D01*
X118231830Y-72105086D01*
X118461157Y-72173093D01*
X118554329Y-72205631D01*
X118726137Y-72302635D01*
X118961948Y-72465834D01*
X119225610Y-72666142D01*
X119480973Y-72874471D01*
X119691886Y-73061735D01*
X119822199Y-73198847D01*
X119846667Y-73245438D01*
X120192969Y-73245438D01*
X120186047Y-73232089D01*
X120185333Y-73225007D01*
X120246835Y-73148403D01*
X120407214Y-72999643D01*
X120630288Y-72808706D01*
X120879871Y-72605571D01*
X121119778Y-72420218D01*
X121313824Y-72282625D01*
X121351434Y-72258896D01*
X121481611Y-72206810D01*
X121728577Y-72127223D01*
X122044789Y-72033490D01*
X122382707Y-71938968D01*
X122694787Y-71857013D01*
X122933488Y-71800983D01*
X123042833Y-71783718D01*
X123131920Y-71852270D01*
X123147682Y-71930833D01*
X123460984Y-71930833D01*
X123451818Y-71892220D01*
X123372050Y-71601575D01*
X123047167Y-71601575D01*
X122230084Y-71797922D01*
X121830603Y-71900735D01*
X121532307Y-72002779D01*
X121273746Y-72133683D01*
X120993471Y-72323079D01*
X120735667Y-72518537D01*
X120449371Y-72738575D01*
X120217072Y-72914173D01*
X120068414Y-73023094D01*
X120030185Y-73047735D01*
X119955657Y-73001549D01*
X119778024Y-72873292D01*
X119527592Y-72685179D01*
X119352852Y-72551167D01*
X119023234Y-72306244D01*
X118750870Y-72137101D01*
X118473347Y-72013728D01*
X118128255Y-71906114D01*
X117871344Y-71838789D01*
X117520974Y-71747905D01*
X117238789Y-71670710D01*
X117060598Y-71617234D01*
X117017032Y-71599455D01*
X117030844Y-71509217D01*
X117090278Y-71291235D01*
X117185118Y-70976440D01*
X117305142Y-70595761D01*
X117440134Y-70180130D01*
X117579873Y-69760476D01*
X117714141Y-69367732D01*
X117832720Y-69032827D01*
X117925389Y-68786692D01*
X117981930Y-68660257D01*
X117991478Y-68650000D01*
X118074676Y-68702063D01*
X118261762Y-68845309D01*
X118528397Y-69060329D01*
X118850240Y-69327709D01*
X119000000Y-69454333D01*
X119338112Y-69738298D01*
X119631477Y-69978277D01*
X119855764Y-70154860D01*
X119986644Y-70248636D01*
X120008178Y-70258667D01*
X120091348Y-70206811D01*
X120278895Y-70064063D01*
X120546560Y-69849655D01*
X120870084Y-69582815D01*
X121028831Y-69449573D01*
X121368421Y-69170675D01*
X121663604Y-68942670D01*
X121890412Y-68782957D01*
X122024874Y-68708937D01*
X122049393Y-68708740D01*
X122094978Y-68807957D01*
X122183117Y-69040783D01*
X122303996Y-69379797D01*
X122447804Y-69797573D01*
X122579136Y-70189287D01*
X123047167Y-71601575D01*
X123372050Y-71601575D01*
X123359978Y-71557591D01*
X123238705Y-71142454D01*
X123096398Y-70673401D01*
X122941456Y-70177021D01*
X122782276Y-69679907D01*
X122627257Y-69208647D01*
X122484797Y-68789834D01*
X122363294Y-68450057D01*
X122271147Y-68215908D01*
X122219717Y-68116858D01*
X122138253Y-68146050D01*
X121952030Y-68269927D01*
X121683721Y-68471663D01*
X121356001Y-68734435D01*
X121108458Y-68941376D01*
X120753364Y-69240902D01*
X120444324Y-69497609D01*
X120203791Y-69693162D01*
X120054220Y-69809227D01*
X120016000Y-69833393D01*
X119940322Y-69781585D01*
X119758187Y-69638313D01*
X119492118Y-69421832D01*
X119164638Y-69150394D01*
X118920306Y-68945375D01*
X118563741Y-68647171D01*
X118252905Y-68391756D01*
X118010439Y-68197372D01*
X117858985Y-68082261D01*
X117819640Y-68058570D01*
X117781767Y-68135991D01*
X117781767Y-68135991D01*
G37*
X117781767Y-68135991D02*
X117699826Y-68353239D01*
X117581280Y-68688838D01*
X117433592Y-69121315D01*
X117264226Y-69629194D01*
X117109479Y-70102025D01*
X116901952Y-70746907D01*
X116745004Y-71249441D01*
X116634083Y-71627385D01*
X116564633Y-71898497D01*
X116532101Y-72080537D01*
X116531932Y-72191261D01*
X116559146Y-72248038D01*
X116654713Y-72317408D01*
X116864871Y-72459307D01*
X117165809Y-72658369D01*
X117533719Y-72899226D01*
X117944792Y-73166511D01*
X118375216Y-73444858D01*
X118801184Y-73718899D01*
X119198886Y-73973268D01*
X119544511Y-74192596D01*
X119814251Y-74361518D01*
X119984297Y-74464667D01*
X120032215Y-74489614D01*
X120107439Y-74444795D01*
X120304642Y-74320224D01*
X120603966Y-74128646D01*
X120985550Y-73882803D01*
X121429536Y-73595439D01*
X121747260Y-73389121D01*
X122225761Y-73076910D01*
X122658180Y-72792675D01*
X123023777Y-72550218D01*
X123301809Y-72363345D01*
X123471535Y-72245859D01*
X123513608Y-72213592D01*
X123505828Y-72119750D01*
X123460984Y-71930833D01*
X123147682Y-71930833D01*
X123072901Y-72040514D01*
X122850806Y-72228605D01*
X122483377Y-72493608D01*
X121972592Y-72834024D01*
X121856515Y-72909025D01*
X120566333Y-73739050D01*
X120375833Y-73518137D01*
X120246896Y-73349441D01*
X120192969Y-73245438D01*
X119846667Y-73245438D01*
X119793278Y-73367825D01*
X119665741Y-73530673D01*
X119599213Y-73603416D01*
X119540039Y-73651717D01*
X119467803Y-73666609D01*
X119362087Y-73639125D01*
X119202473Y-73560298D01*
X118968545Y-73421161D01*
X118639884Y-73212747D01*
X118196073Y-72926088D01*
X117999006Y-72798667D01*
X117511687Y-72473992D01*
X117160411Y-72217986D01*
X116949805Y-72034253D01*
X116884237Y-71930833D01*
X116906866Y-71805000D01*
X116932727Y-71782667D01*
X117055565Y-71803770D01*
X117294088Y-71858873D01*
X117601102Y-71935666D01*
X117929414Y-72021840D01*
X118231830Y-72105086D01*
X118461157Y-72173093D01*
X118554329Y-72205631D01*
X118726137Y-72302635D01*
X118961948Y-72465834D01*
X119225610Y-72666142D01*
X119480973Y-72874471D01*
X119691886Y-73061735D01*
X119822199Y-73198847D01*
X119846667Y-73245438D01*
X120192969Y-73245438D01*
X120186047Y-73232089D01*
X120185333Y-73225007D01*
X120246835Y-73148403D01*
X120407214Y-72999643D01*
X120630288Y-72808706D01*
X120879871Y-72605571D01*
X121119778Y-72420218D01*
X121313824Y-72282625D01*
X121351434Y-72258896D01*
X121481611Y-72206810D01*
X121728577Y-72127223D01*
X122044789Y-72033490D01*
X122382707Y-71938968D01*
X122694787Y-71857013D01*
X122933488Y-71800983D01*
X123042833Y-71783718D01*
X123131920Y-71852270D01*
X123147682Y-71930833D01*
X123460984Y-71930833D01*
X123451818Y-71892220D01*
X123372050Y-71601575D01*
X123047167Y-71601575D01*
X122230084Y-71797922D01*
X121830603Y-71900735D01*
X121532307Y-72002779D01*
X121273746Y-72133683D01*
X120993471Y-72323079D01*
X120735667Y-72518537D01*
X120449371Y-72738575D01*
X120217072Y-72914173D01*
X120068414Y-73023094D01*
X120030185Y-73047735D01*
X119955657Y-73001549D01*
X119778024Y-72873292D01*
X119527592Y-72685179D01*
X119352852Y-72551167D01*
X119023234Y-72306244D01*
X118750870Y-72137101D01*
X118473347Y-72013728D01*
X118128255Y-71906114D01*
X117871344Y-71838789D01*
X117520974Y-71747905D01*
X117238789Y-71670710D01*
X117060598Y-71617234D01*
X117017032Y-71599455D01*
X117030844Y-71509217D01*
X117090278Y-71291235D01*
X117185118Y-70976440D01*
X117305142Y-70595761D01*
X117440134Y-70180130D01*
X117579873Y-69760476D01*
X117714141Y-69367732D01*
X117832720Y-69032827D01*
X117925389Y-68786692D01*
X117981930Y-68660257D01*
X117991478Y-68650000D01*
X118074676Y-68702063D01*
X118261762Y-68845309D01*
X118528397Y-69060329D01*
X118850240Y-69327709D01*
X119000000Y-69454333D01*
X119338112Y-69738298D01*
X119631477Y-69978277D01*
X119855764Y-70154860D01*
X119986644Y-70248636D01*
X120008178Y-70258667D01*
X120091348Y-70206811D01*
X120278895Y-70064063D01*
X120546560Y-69849655D01*
X120870084Y-69582815D01*
X121028831Y-69449573D01*
X121368421Y-69170675D01*
X121663604Y-68942670D01*
X121890412Y-68782957D01*
X122024874Y-68708937D01*
X122049393Y-68708740D01*
X122094978Y-68807957D01*
X122183117Y-69040783D01*
X122303996Y-69379797D01*
X122447804Y-69797573D01*
X122579136Y-70189287D01*
X123047167Y-71601575D01*
X123372050Y-71601575D01*
X123359978Y-71557591D01*
X123238705Y-71142454D01*
X123096398Y-70673401D01*
X122941456Y-70177021D01*
X122782276Y-69679907D01*
X122627257Y-69208647D01*
X122484797Y-68789834D01*
X122363294Y-68450057D01*
X122271147Y-68215908D01*
X122219717Y-68116858D01*
X122138253Y-68146050D01*
X121952030Y-68269927D01*
X121683721Y-68471663D01*
X121356001Y-68734435D01*
X121108458Y-68941376D01*
X120753364Y-69240902D01*
X120444324Y-69497609D01*
X120203791Y-69693162D01*
X120054220Y-69809227D01*
X120016000Y-69833393D01*
X119940322Y-69781585D01*
X119758187Y-69638313D01*
X119492118Y-69421832D01*
X119164638Y-69150394D01*
X118920306Y-68945375D01*
X118563741Y-68647171D01*
X118252905Y-68391756D01*
X118010439Y-68197372D01*
X117858985Y-68082261D01*
X117819640Y-68058570D01*
X117781767Y-68135991D01*
G36*
X121303466Y-70648978D02*
X121104408Y-70776583D01*
X120902170Y-70939156D01*
X120748181Y-71095707D01*
X120693333Y-71198771D01*
X120765708Y-71248881D01*
X120939325Y-71266382D01*
X121148925Y-71249501D01*
X121286000Y-71214873D01*
X121439572Y-71125737D01*
X121602443Y-70996125D01*
X121726356Y-70848915D01*
X121715385Y-70734179D01*
X121697909Y-70710568D01*
X121536901Y-70612079D01*
X121447913Y-70597333D01*
X121303466Y-70648978D01*
X121303466Y-70648978D01*
G37*
X121303466Y-70648978D02*
X121104408Y-70776583D01*
X120902170Y-70939156D01*
X120748181Y-71095707D01*
X120693333Y-71198771D01*
X120765708Y-71248881D01*
X120939325Y-71266382D01*
X121148925Y-71249501D01*
X121286000Y-71214873D01*
X121439572Y-71125737D01*
X121602443Y-70996125D01*
X121726356Y-70848915D01*
X121715385Y-70734179D01*
X121697909Y-70710568D01*
X121536901Y-70612079D01*
X121447913Y-70597333D01*
X121303466Y-70648978D01*
G36*
X118423850Y-70683660D02*
X118333899Y-70786103D01*
X118389162Y-70934739D01*
X118592062Y-71102751D01*
X118807203Y-71202029D01*
X119036489Y-71262181D01*
X119228092Y-71275649D01*
X119330185Y-71234878D01*
X119335622Y-71211167D01*
X119284594Y-71109398D01*
X119162936Y-70940868D01*
X119136069Y-70907468D01*
X118893970Y-70708668D01*
X118655347Y-70653468D01*
X118423850Y-70683660D01*
X118423850Y-70683660D01*
G37*
X118423850Y-70683660D02*
X118333899Y-70786103D01*
X118389162Y-70934739D01*
X118592062Y-71102751D01*
X118807203Y-71202029D01*
X119036489Y-71262181D01*
X119228092Y-71275649D01*
X119330185Y-71234878D01*
X119335622Y-71211167D01*
X119284594Y-71109398D01*
X119162936Y-70940868D01*
X119136069Y-70907468D01*
X118893970Y-70708668D01*
X118655347Y-70653468D01*
X118423850Y-70683660D01*
D11*
X117302381Y-84261905D02*
X116302381Y-84261905D01*
X116302381Y-84500000D01*
X116350000Y-84642858D01*
X116445238Y-84738096D01*
X116540476Y-84785715D01*
X116730952Y-84833334D01*
X116873810Y-84833334D01*
X117064286Y-84785715D01*
X117159524Y-84738096D01*
X117254762Y-84642858D01*
X117302381Y-84500000D01*
X117302381Y-84261905D01*
X116302381Y-85166667D02*
X116302381Y-85785715D01*
X116683333Y-85452381D01*
X116683333Y-85595239D01*
X116730952Y-85690477D01*
X116778571Y-85738096D01*
X116873810Y-85785715D01*
X117111905Y-85785715D01*
X117207143Y-85738096D01*
X117254762Y-85690477D01*
X117302381Y-85595239D01*
X117302381Y-85309524D01*
X117254762Y-85214286D01*
X117207143Y-85166667D01*
X113602381Y-114261905D02*
X112602381Y-114261905D01*
X112602381Y-114500000D01*
X112650000Y-114642858D01*
X112745238Y-114738096D01*
X112840476Y-114785715D01*
X113030952Y-114833334D01*
X113173810Y-114833334D01*
X113364286Y-114785715D01*
X113459524Y-114738096D01*
X113554762Y-114642858D01*
X113602381Y-114500000D01*
X113602381Y-114261905D01*
X112935714Y-115690477D02*
X113602381Y-115690477D01*
X112554762Y-115452381D02*
X113269048Y-115214286D01*
X113269048Y-115833334D01*
X117302381Y-89261905D02*
X116302381Y-89261905D01*
X116302381Y-89500000D01*
X116350000Y-89642858D01*
X116445238Y-89738096D01*
X116540476Y-89785715D01*
X116730952Y-89833334D01*
X116873810Y-89833334D01*
X117064286Y-89785715D01*
X117159524Y-89738096D01*
X117254762Y-89642858D01*
X117302381Y-89500000D01*
X117302381Y-89261905D01*
X116302381Y-90738096D02*
X116302381Y-90261905D01*
X116778571Y-90214286D01*
X116730952Y-90261905D01*
X116683333Y-90357143D01*
X116683333Y-90595239D01*
X116730952Y-90690477D01*
X116778571Y-90738096D01*
X116873810Y-90785715D01*
X117111905Y-90785715D01*
X117207143Y-90738096D01*
X117254762Y-90690477D01*
X117302381Y-90595239D01*
X117302381Y-90357143D01*
X117254762Y-90261905D01*
X117207143Y-90214286D01*
X113602381Y-109261905D02*
X112602381Y-109261905D01*
X112602381Y-109500000D01*
X112650000Y-109642858D01*
X112745238Y-109738096D01*
X112840476Y-109785715D01*
X113030952Y-109833334D01*
X113173810Y-109833334D01*
X113364286Y-109785715D01*
X113459524Y-109738096D01*
X113554762Y-109642858D01*
X113602381Y-109500000D01*
X113602381Y-109261905D01*
X112602381Y-110690477D02*
X112602381Y-110500000D01*
X112650000Y-110404762D01*
X112697619Y-110357143D01*
X112840476Y-110261905D01*
X113030952Y-110214286D01*
X113411905Y-110214286D01*
X113507143Y-110261905D01*
X113554762Y-110309524D01*
X113602381Y-110404762D01*
X113602381Y-110595239D01*
X113554762Y-110690477D01*
X113507143Y-110738096D01*
X113411905Y-110785715D01*
X113173810Y-110785715D01*
X113078571Y-110738096D01*
X113030952Y-110690477D01*
X112983333Y-110595239D01*
X112983333Y-110404762D01*
X113030952Y-110309524D01*
X113078571Y-110261905D01*
X113173810Y-110214286D01*
X106595238Y-56547619D02*
X106690476Y-56500000D01*
X106785714Y-56404762D01*
X106928571Y-56261905D01*
X107023810Y-56214286D01*
X107119048Y-56214286D01*
X107071429Y-56452381D02*
X107166667Y-56404762D01*
X107261905Y-56309524D01*
X107309524Y-56119048D01*
X107309524Y-55785714D01*
X107261905Y-55595238D01*
X107166667Y-55500000D01*
X107071429Y-55452381D01*
X106880952Y-55452381D01*
X106785714Y-55500000D01*
X106690476Y-55595238D01*
X106642857Y-55785714D01*
X106642857Y-56119048D01*
X106690476Y-56309524D01*
X106785714Y-56404762D01*
X106880952Y-56452381D01*
X107071429Y-56452381D01*
X105690476Y-56452381D02*
X106261905Y-56452381D01*
X105976191Y-56452381D02*
X105976191Y-55452381D01*
X106071429Y-55595238D01*
X106166667Y-55690476D01*
X106261905Y-55738095D01*
X106595238Y-144547619D02*
X106690476Y-144500000D01*
X106785714Y-144404762D01*
X106928571Y-144261905D01*
X107023810Y-144214286D01*
X107119048Y-144214286D01*
X107071429Y-144452381D02*
X107166667Y-144404762D01*
X107261905Y-144309524D01*
X107309524Y-144119048D01*
X107309524Y-143785714D01*
X107261905Y-143595238D01*
X107166667Y-143500000D01*
X107071429Y-143452381D01*
X106880952Y-143452381D01*
X106785714Y-143500000D01*
X106690476Y-143595238D01*
X106642857Y-143785714D01*
X106642857Y-144119048D01*
X106690476Y-144309524D01*
X106785714Y-144404762D01*
X106880952Y-144452381D01*
X107071429Y-144452381D01*
X106261905Y-143547619D02*
X106214286Y-143500000D01*
X106119048Y-143452381D01*
X105880952Y-143452381D01*
X105785714Y-143500000D01*
X105738095Y-143547619D01*
X105690476Y-143642857D01*
X105690476Y-143738095D01*
X105738095Y-143880952D01*
X106309524Y-144452381D01*
X105690476Y-144452381D01*
X118595238Y-56547619D02*
X118690476Y-56500000D01*
X118785714Y-56404762D01*
X118928571Y-56261905D01*
X119023810Y-56214286D01*
X119119048Y-56214286D01*
X119071429Y-56452381D02*
X119166667Y-56404762D01*
X119261905Y-56309524D01*
X119309524Y-56119048D01*
X119309524Y-55785714D01*
X119261905Y-55595238D01*
X119166667Y-55500000D01*
X119071429Y-55452381D01*
X118880952Y-55452381D01*
X118785714Y-55500000D01*
X118690476Y-55595238D01*
X118642857Y-55785714D01*
X118642857Y-56119048D01*
X118690476Y-56309524D01*
X118785714Y-56404762D01*
X118880952Y-56452381D01*
X119071429Y-56452381D01*
X118309524Y-55452381D02*
X117690476Y-55452381D01*
X118023810Y-55833333D01*
X117880952Y-55833333D01*
X117785714Y-55880952D01*
X117738095Y-55928571D01*
X117690476Y-56023810D01*
X117690476Y-56261905D01*
X117738095Y-56357143D01*
X117785714Y-56404762D01*
X117880952Y-56452381D01*
X118166667Y-56452381D01*
X118261905Y-56404762D01*
X118309524Y-56357143D01*
X118595238Y-144547619D02*
X118690476Y-144500000D01*
X118785714Y-144404762D01*
X118928571Y-144261905D01*
X119023810Y-144214286D01*
X119119048Y-144214286D01*
X119071429Y-144452381D02*
X119166667Y-144404762D01*
X119261905Y-144309524D01*
X119309524Y-144119048D01*
X119309524Y-143785714D01*
X119261905Y-143595238D01*
X119166667Y-143500000D01*
X119071429Y-143452381D01*
X118880952Y-143452381D01*
X118785714Y-143500000D01*
X118690476Y-143595238D01*
X118642857Y-143785714D01*
X118642857Y-144119048D01*
X118690476Y-144309524D01*
X118785714Y-144404762D01*
X118880952Y-144452381D01*
X119071429Y-144452381D01*
X117785714Y-143785714D02*
X117785714Y-144452381D01*
X118023810Y-143404762D02*
X118261905Y-144119048D01*
X117642857Y-144119048D01*
X110095238Y-88047619D02*
X110190476Y-88000000D01*
X110285714Y-87904762D01*
X110428571Y-87761905D01*
X110523810Y-87714286D01*
X110619048Y-87714286D01*
X110571429Y-87952381D02*
X110666667Y-87904762D01*
X110761905Y-87809524D01*
X110809524Y-87619048D01*
X110809524Y-87285714D01*
X110761905Y-87095238D01*
X110666667Y-87000000D01*
X110571429Y-86952381D01*
X110380952Y-86952381D01*
X110285714Y-87000000D01*
X110190476Y-87095238D01*
X110142857Y-87285714D01*
X110142857Y-87619048D01*
X110190476Y-87809524D01*
X110285714Y-87904762D01*
X110380952Y-87952381D01*
X110571429Y-87952381D01*
X109238095Y-86952381D02*
X109714286Y-86952381D01*
X109761905Y-87428571D01*
X109714286Y-87380952D01*
X109619048Y-87333333D01*
X109380952Y-87333333D01*
X109285714Y-87380952D01*
X109238095Y-87428571D01*
X109190476Y-87523810D01*
X109190476Y-87761905D01*
X109238095Y-87857143D01*
X109285714Y-87904762D01*
X109380952Y-87952381D01*
X109619048Y-87952381D01*
X109714286Y-87904762D01*
X109761905Y-87857143D01*
X110095238Y-108047619D02*
X110190476Y-108000000D01*
X110285714Y-107904762D01*
X110428571Y-107761905D01*
X110523810Y-107714286D01*
X110619048Y-107714286D01*
X110571429Y-107952381D02*
X110666667Y-107904762D01*
X110761905Y-107809524D01*
X110809524Y-107619048D01*
X110809524Y-107285714D01*
X110761905Y-107095238D01*
X110666667Y-107000000D01*
X110571429Y-106952381D01*
X110380952Y-106952381D01*
X110285714Y-107000000D01*
X110190476Y-107095238D01*
X110142857Y-107285714D01*
X110142857Y-107619048D01*
X110190476Y-107809524D01*
X110285714Y-107904762D01*
X110380952Y-107952381D01*
X110571429Y-107952381D01*
X109285714Y-106952381D02*
X109476191Y-106952381D01*
X109571429Y-107000000D01*
X109619048Y-107047619D01*
X109714286Y-107190476D01*
X109761905Y-107380952D01*
X109761905Y-107761905D01*
X109714286Y-107857143D01*
X109666667Y-107904762D01*
X109571429Y-107952381D01*
X109380952Y-107952381D01*
X109285714Y-107904762D01*
X109238095Y-107857143D01*
X109190476Y-107761905D01*
X109190476Y-107523810D01*
X109238095Y-107428571D01*
X109285714Y-107380952D01*
X109380952Y-107333333D01*
X109571429Y-107333333D01*
X109666667Y-107380952D01*
X109714286Y-107428571D01*
X109761905Y-107523810D01*
X120202381Y-127988095D02*
X121011905Y-127988095D01*
X121107143Y-128035714D01*
X121154762Y-128083333D01*
X121202381Y-128178571D01*
X121202381Y-128369048D01*
X121154762Y-128464286D01*
X121107143Y-128511905D01*
X121011905Y-128559524D01*
X120202381Y-128559524D01*
X121202381Y-129559524D02*
X121202381Y-128988095D01*
X121202381Y-129273809D02*
X120202381Y-129273809D01*
X120345238Y-129178571D01*
X120440476Y-129083333D01*
X120488095Y-128988095D01*
M02*
