G04 #@! TF.FileFunction,Legend,Top*
%FSLAX46Y46*%
G04 Gerber Fmt 4.6, Leading zero omitted, Abs format (unit mm)*
G04 Created by KiCad (PCBNEW 4.0.4+e1-6308~48~ubuntu16.04.1-stable) date Sun Jan 28 16:20:55 2018*
%MOMM*%
%LPD*%
G01*
G04 APERTURE LIST*
%ADD10C,0.100000*%
%ADD11C,0.150000*%
%ADD12C,0.200000*%
%ADD13C,0.120000*%
%ADD14C,0.030000*%
G04 APERTURE END LIST*
D10*
D11*
X110619048Y-129321429D02*
X111380953Y-129321429D01*
X111000001Y-129702381D02*
X111000001Y-128940476D01*
X110619048Y-125071429D02*
X111380953Y-125071429D01*
X111000001Y-125452381D02*
X111000001Y-124690476D01*
D12*
X107500000Y-117500000D02*
X107500000Y-107500000D01*
X117500000Y-117500000D02*
X107500000Y-117500000D01*
X117500000Y-107500000D02*
X117500000Y-117500000D01*
X107500000Y-107500000D02*
X117500000Y-107500000D01*
X107500000Y-82500000D02*
X107500000Y-92500000D01*
X117500000Y-82500000D02*
X107500000Y-82500000D01*
X117500000Y-92500000D02*
X117500000Y-82500000D01*
X107500000Y-92500000D02*
X117500000Y-92500000D01*
D13*
X109310000Y-76130000D02*
X109310000Y-78870000D01*
X109310000Y-78870000D02*
X115850000Y-78870000D01*
X115850000Y-78870000D02*
X115850000Y-76130000D01*
X115850000Y-76130000D02*
X109310000Y-76130000D01*
X108540000Y-77500000D02*
X109310000Y-77500000D01*
X116620000Y-77500000D02*
X115850000Y-77500000D01*
X112060000Y-128310000D02*
X104940000Y-128310000D01*
X112060000Y-124690000D02*
X104940000Y-124690000D01*
X112060000Y-128310000D02*
X112060000Y-124690000D01*
X104940000Y-128310000D02*
X104940000Y-124690000D01*
X112060000Y-132560000D02*
X104940000Y-132560000D01*
X112060000Y-128940000D02*
X104940000Y-128940000D01*
X112060000Y-132560000D02*
X112060000Y-128940000D01*
X104940000Y-132560000D02*
X104940000Y-128940000D01*
X111500000Y-88510000D02*
X114200000Y-88510000D01*
X114200000Y-88510000D02*
X114200000Y-86490000D01*
X114200000Y-86490000D02*
X111500000Y-86490000D01*
X111500000Y-113510000D02*
X114200000Y-113510000D01*
X114200000Y-113510000D02*
X114200000Y-111490000D01*
X114200000Y-111490000D02*
X111500000Y-111490000D01*
X102290000Y-86390000D02*
X104950000Y-86390000D01*
X102290000Y-81250000D02*
X102290000Y-86390000D01*
X104950000Y-81250000D02*
X104950000Y-86390000D01*
X102290000Y-81250000D02*
X104950000Y-81250000D01*
X102290000Y-79980000D02*
X102290000Y-78650000D01*
X102290000Y-78650000D02*
X103620000Y-78650000D01*
X115100000Y-54950000D02*
X115100000Y-52290000D01*
X112500000Y-54950000D02*
X115100000Y-54950000D01*
X112500000Y-52290000D02*
X115100000Y-52290000D01*
X112500000Y-54950000D02*
X112500000Y-52290000D01*
X111230000Y-54950000D02*
X109900000Y-54950000D01*
X109900000Y-54950000D02*
X109900000Y-53620000D01*
X120050000Y-86390000D02*
X122710000Y-86390000D01*
X120050000Y-81250000D02*
X120050000Y-86390000D01*
X122710000Y-81250000D02*
X122710000Y-86390000D01*
X120050000Y-81250000D02*
X122710000Y-81250000D01*
X120050000Y-79980000D02*
X120050000Y-78650000D01*
X120050000Y-78650000D02*
X121380000Y-78650000D01*
X109900000Y-145050000D02*
X109900000Y-147710000D01*
X112500000Y-145050000D02*
X109900000Y-145050000D01*
X112500000Y-147710000D02*
X109900000Y-147710000D01*
X112500000Y-145050000D02*
X112500000Y-147710000D01*
X113770000Y-145050000D02*
X115100000Y-145050000D01*
X115100000Y-145050000D02*
X115100000Y-146380000D01*
X104950000Y-113610000D02*
X102290000Y-113610000D01*
X104950000Y-118750000D02*
X104950000Y-113610000D01*
X102290000Y-118750000D02*
X102290000Y-113610000D01*
X104950000Y-118750000D02*
X102290000Y-118750000D01*
X104950000Y-120020000D02*
X104950000Y-121350000D01*
X104950000Y-121350000D02*
X103620000Y-121350000D01*
X122710000Y-113610000D02*
X120050000Y-113610000D01*
X122710000Y-118750000D02*
X122710000Y-113610000D01*
X120050000Y-118750000D02*
X120050000Y-113610000D01*
X122710000Y-118750000D02*
X120050000Y-118750000D01*
X122710000Y-120020000D02*
X122710000Y-121350000D01*
X122710000Y-121350000D02*
X121380000Y-121350000D01*
D14*
X106150000Y-66900000D02*
X111850000Y-66900000D01*
X111850000Y-66900000D02*
X111850000Y-56300000D01*
X111850000Y-56300000D02*
X106150000Y-56300000D01*
X106150000Y-56300000D02*
X106150000Y-66900000D01*
X111850000Y-133100000D02*
X106150000Y-133100000D01*
X106150000Y-133100000D02*
X106150000Y-143700000D01*
X106150000Y-143700000D02*
X111850000Y-143700000D01*
X111850000Y-143700000D02*
X111850000Y-133100000D01*
X113150000Y-66900000D02*
X118850000Y-66900000D01*
X118850000Y-66900000D02*
X118850000Y-56300000D01*
X118850000Y-56300000D02*
X113150000Y-56300000D01*
X113150000Y-56300000D02*
X113150000Y-66900000D01*
X118850000Y-133100000D02*
X113150000Y-133100000D01*
X113150000Y-133100000D02*
X113150000Y-143700000D01*
X113150000Y-143700000D02*
X118850000Y-143700000D01*
X118850000Y-143700000D02*
X118850000Y-133100000D01*
D13*
X101130000Y-133190000D02*
X103870000Y-133190000D01*
X103870000Y-133190000D02*
X103870000Y-126650000D01*
X103870000Y-126650000D02*
X101130000Y-126650000D01*
X101130000Y-126650000D02*
X101130000Y-133190000D01*
X102500000Y-133960000D02*
X102500000Y-133190000D01*
X102500000Y-125880000D02*
X102500000Y-126650000D01*
X123870000Y-126310000D02*
X121130000Y-126310000D01*
X121130000Y-126310000D02*
X121130000Y-132850000D01*
X121130000Y-132850000D02*
X123870000Y-132850000D01*
X123870000Y-132850000D02*
X123870000Y-126310000D01*
X122500000Y-125540000D02*
X122500000Y-126310000D01*
X122500000Y-133620000D02*
X122500000Y-132850000D01*
D12*
X117132456Y-128500000D02*
G75*
G03X117132456Y-128500000I-632456J0D01*
G01*
X119000000Y-130750000D02*
X117900000Y-130750000D01*
X114000000Y-130750000D02*
X115100000Y-130750000D01*
X119000000Y-130750000D02*
X119000000Y-126250000D01*
X114000000Y-130750000D02*
X114000000Y-126250000D01*
D13*
X120000000Y-96750000D02*
X115500000Y-96750000D01*
X121250000Y-100750000D02*
X121250000Y-99250000D01*
X115500000Y-103250000D02*
X120000000Y-103250000D01*
X114250000Y-99250000D02*
X114250000Y-100750000D01*
X109000000Y-96750000D02*
X104500000Y-96750000D01*
X110250000Y-100750000D02*
X110250000Y-99250000D01*
X104500000Y-103250000D02*
X109000000Y-103250000D01*
X103250000Y-99250000D02*
X103250000Y-100750000D01*
X103870000Y-54310000D02*
X101130000Y-54310000D01*
X101130000Y-54310000D02*
X101130000Y-60850000D01*
X101130000Y-60850000D02*
X103870000Y-60850000D01*
X103870000Y-60850000D02*
X103870000Y-54310000D01*
X102500000Y-53540000D02*
X102500000Y-54310000D01*
X102500000Y-61620000D02*
X102500000Y-60850000D01*
X101130000Y-145940000D02*
X103870000Y-145940000D01*
X103870000Y-145940000D02*
X103870000Y-139400000D01*
X103870000Y-139400000D02*
X101130000Y-139400000D01*
X101130000Y-139400000D02*
X101130000Y-145940000D01*
X102500000Y-146710000D02*
X102500000Y-145940000D01*
X102500000Y-138630000D02*
X102500000Y-139400000D01*
X115690000Y-123870000D02*
X115690000Y-121130000D01*
X115690000Y-121130000D02*
X109150000Y-121130000D01*
X109150000Y-121130000D02*
X109150000Y-123870000D01*
X109150000Y-123870000D02*
X115690000Y-123870000D01*
X116460000Y-122500000D02*
X115690000Y-122500000D01*
X108380000Y-122500000D02*
X109150000Y-122500000D01*
X123870000Y-54310000D02*
X121130000Y-54310000D01*
X121130000Y-54310000D02*
X121130000Y-60850000D01*
X121130000Y-60850000D02*
X123870000Y-60850000D01*
X123870000Y-60850000D02*
X123870000Y-54310000D01*
X122500000Y-53540000D02*
X122500000Y-54310000D01*
X122500000Y-61620000D02*
X122500000Y-60850000D01*
X121130000Y-145690000D02*
X123870000Y-145690000D01*
X123870000Y-145690000D02*
X123870000Y-139150000D01*
X123870000Y-139150000D02*
X121130000Y-139150000D01*
X121130000Y-139150000D02*
X121130000Y-145690000D01*
X122500000Y-146460000D02*
X122500000Y-145690000D01*
X122500000Y-138380000D02*
X122500000Y-139150000D01*
X103870000Y-66810000D02*
X101130000Y-66810000D01*
X101130000Y-66810000D02*
X101130000Y-73350000D01*
X101130000Y-73350000D02*
X103870000Y-73350000D01*
X103870000Y-73350000D02*
X103870000Y-66810000D01*
X102500000Y-66040000D02*
X102500000Y-66810000D01*
X102500000Y-74120000D02*
X102500000Y-73350000D01*
X121130000Y-73440000D02*
X123870000Y-73440000D01*
X123870000Y-73440000D02*
X123870000Y-66900000D01*
X123870000Y-66900000D02*
X121130000Y-66900000D01*
X121130000Y-66900000D02*
X121130000Y-73440000D01*
X122500000Y-74210000D02*
X122500000Y-73440000D01*
X122500000Y-66130000D02*
X122500000Y-66900000D01*
D11*
X112333334Y-77952381D02*
X112000000Y-77476190D01*
X111761905Y-77952381D02*
X111761905Y-76952381D01*
X112142858Y-76952381D01*
X112238096Y-77000000D01*
X112285715Y-77047619D01*
X112333334Y-77142857D01*
X112333334Y-77285714D01*
X112285715Y-77380952D01*
X112238096Y-77428571D01*
X112142858Y-77476190D01*
X111761905Y-77476190D01*
X113238096Y-76952381D02*
X112761905Y-76952381D01*
X112714286Y-77428571D01*
X112761905Y-77380952D01*
X112857143Y-77333333D01*
X113095239Y-77333333D01*
X113190477Y-77380952D01*
X113238096Y-77428571D01*
X113285715Y-77523810D01*
X113285715Y-77761905D01*
X113238096Y-77857143D01*
X113190477Y-77904762D01*
X113095239Y-77952381D01*
X112857143Y-77952381D01*
X112761905Y-77904762D01*
X112714286Y-77857143D01*
X113357143Y-126666666D02*
X113404762Y-126714285D01*
X113452381Y-126857142D01*
X113452381Y-126952380D01*
X113404762Y-127095238D01*
X113309524Y-127190476D01*
X113214286Y-127238095D01*
X113023810Y-127285714D01*
X112880952Y-127285714D01*
X112690476Y-127238095D01*
X112595238Y-127190476D01*
X112500000Y-127095238D01*
X112452381Y-126952380D01*
X112452381Y-126857142D01*
X112500000Y-126714285D01*
X112547619Y-126666666D01*
X113452381Y-125714285D02*
X113452381Y-126285714D01*
X113452381Y-126000000D02*
X112452381Y-126000000D01*
X112595238Y-126095238D01*
X112690476Y-126190476D01*
X112738095Y-126285714D01*
X113357143Y-130916666D02*
X113404762Y-130964285D01*
X113452381Y-131107142D01*
X113452381Y-131202380D01*
X113404762Y-131345238D01*
X113309524Y-131440476D01*
X113214286Y-131488095D01*
X113023810Y-131535714D01*
X112880952Y-131535714D01*
X112690476Y-131488095D01*
X112595238Y-131440476D01*
X112500000Y-131345238D01*
X112452381Y-131202380D01*
X112452381Y-131107142D01*
X112500000Y-130964285D01*
X112547619Y-130916666D01*
X112547619Y-130535714D02*
X112500000Y-130488095D01*
X112452381Y-130392857D01*
X112452381Y-130154761D01*
X112500000Y-130059523D01*
X112547619Y-130011904D01*
X112642857Y-129964285D01*
X112738095Y-129964285D01*
X112880952Y-130011904D01*
X113452381Y-130583333D01*
X113452381Y-129964285D01*
X111761905Y-89802381D02*
X111761905Y-88802381D01*
X112000000Y-88802381D01*
X112142858Y-88850000D01*
X112238096Y-88945238D01*
X112285715Y-89040476D01*
X112333334Y-89230952D01*
X112333334Y-89373810D01*
X112285715Y-89564286D01*
X112238096Y-89659524D01*
X112142858Y-89754762D01*
X112000000Y-89802381D01*
X111761905Y-89802381D01*
X113285715Y-89802381D02*
X112714286Y-89802381D01*
X113000000Y-89802381D02*
X113000000Y-88802381D01*
X112904762Y-88945238D01*
X112809524Y-89040476D01*
X112714286Y-89088095D01*
X111761905Y-114802381D02*
X111761905Y-113802381D01*
X112000000Y-113802381D01*
X112142858Y-113850000D01*
X112238096Y-113945238D01*
X112285715Y-114040476D01*
X112333334Y-114230952D01*
X112333334Y-114373810D01*
X112285715Y-114564286D01*
X112238096Y-114659524D01*
X112142858Y-114754762D01*
X112000000Y-114802381D01*
X111761905Y-114802381D01*
X112714286Y-113897619D02*
X112761905Y-113850000D01*
X112857143Y-113802381D01*
X113095239Y-113802381D01*
X113190477Y-113850000D01*
X113238096Y-113897619D01*
X113285715Y-113992857D01*
X113285715Y-114088095D01*
X113238096Y-114230952D01*
X112666667Y-114802381D01*
X113285715Y-114802381D01*
X103286667Y-77102381D02*
X103286667Y-77816667D01*
X103239047Y-77959524D01*
X103143809Y-78054762D01*
X103000952Y-78102381D01*
X102905714Y-78102381D01*
X104286667Y-78102381D02*
X103715238Y-78102381D01*
X104000952Y-78102381D02*
X104000952Y-77102381D01*
X103905714Y-77245238D01*
X103810476Y-77340476D01*
X103715238Y-77388095D01*
X108352381Y-53953333D02*
X109066667Y-53953333D01*
X109209524Y-54000953D01*
X109304762Y-54096191D01*
X109352381Y-54239048D01*
X109352381Y-54334286D01*
X108447619Y-53524762D02*
X108400000Y-53477143D01*
X108352381Y-53381905D01*
X108352381Y-53143809D01*
X108400000Y-53048571D01*
X108447619Y-53000952D01*
X108542857Y-52953333D01*
X108638095Y-52953333D01*
X108780952Y-53000952D01*
X109352381Y-53572381D01*
X109352381Y-52953333D01*
X121046667Y-77102381D02*
X121046667Y-77816667D01*
X120999047Y-77959524D01*
X120903809Y-78054762D01*
X120760952Y-78102381D01*
X120665714Y-78102381D01*
X121427619Y-77102381D02*
X122046667Y-77102381D01*
X121713333Y-77483333D01*
X121856191Y-77483333D01*
X121951429Y-77530952D01*
X121999048Y-77578571D01*
X122046667Y-77673810D01*
X122046667Y-77911905D01*
X121999048Y-78007143D01*
X121951429Y-78054762D01*
X121856191Y-78102381D01*
X121570476Y-78102381D01*
X121475238Y-78054762D01*
X121427619Y-78007143D01*
X105852381Y-59138095D02*
X104852381Y-59138095D01*
X105852381Y-58566666D02*
X105280952Y-58995238D01*
X104852381Y-58566666D02*
X105423810Y-59138095D01*
X105852381Y-57614285D02*
X105852381Y-58185714D01*
X105852381Y-57900000D02*
X104852381Y-57900000D01*
X104995238Y-57995238D01*
X105090476Y-58090476D01*
X105138095Y-58185714D01*
X113052381Y-142338095D02*
X112052381Y-142338095D01*
X113052381Y-141766666D02*
X112480952Y-142195238D01*
X112052381Y-141766666D02*
X112623810Y-142338095D01*
X112147619Y-141385714D02*
X112100000Y-141338095D01*
X112052381Y-141242857D01*
X112052381Y-141004761D01*
X112100000Y-140909523D01*
X112147619Y-140861904D01*
X112242857Y-140814285D01*
X112338095Y-140814285D01*
X112480952Y-140861904D01*
X113052381Y-141433333D01*
X113052381Y-140814285D01*
X112852381Y-59138095D02*
X111852381Y-59138095D01*
X112852381Y-58566666D02*
X112280952Y-58995238D01*
X111852381Y-58566666D02*
X112423810Y-59138095D01*
X111852381Y-58233333D02*
X111852381Y-57614285D01*
X112233333Y-57947619D01*
X112233333Y-57804761D01*
X112280952Y-57709523D01*
X112328571Y-57661904D01*
X112423810Y-57614285D01*
X112661905Y-57614285D01*
X112757143Y-57661904D01*
X112804762Y-57709523D01*
X112852381Y-57804761D01*
X112852381Y-58090476D01*
X112804762Y-58185714D01*
X112757143Y-58233333D01*
X120052381Y-142338095D02*
X119052381Y-142338095D01*
X120052381Y-141766666D02*
X119480952Y-142195238D01*
X119052381Y-141766666D02*
X119623810Y-142338095D01*
X119385714Y-140909523D02*
X120052381Y-140909523D01*
X119004762Y-141147619D02*
X119719048Y-141385714D01*
X119719048Y-140766666D01*
X102952381Y-130166666D02*
X102476190Y-130500000D01*
X102952381Y-130738095D02*
X101952381Y-130738095D01*
X101952381Y-130357142D01*
X102000000Y-130261904D01*
X102047619Y-130214285D01*
X102142857Y-130166666D01*
X102285714Y-130166666D01*
X102380952Y-130214285D01*
X102428571Y-130261904D01*
X102476190Y-130357142D01*
X102476190Y-130738095D01*
X102952381Y-129214285D02*
X102952381Y-129785714D01*
X102952381Y-129500000D02*
X101952381Y-129500000D01*
X102095238Y-129595238D01*
X102190476Y-129690476D01*
X102238095Y-129785714D01*
X122952381Y-129666666D02*
X122476190Y-130000000D01*
X122952381Y-130238095D02*
X121952381Y-130238095D01*
X121952381Y-129857142D01*
X122000000Y-129761904D01*
X122047619Y-129714285D01*
X122142857Y-129666666D01*
X122285714Y-129666666D01*
X122380952Y-129714285D01*
X122428571Y-129761904D01*
X122476190Y-129857142D01*
X122476190Y-130238095D01*
X122047619Y-129285714D02*
X122000000Y-129238095D01*
X121952381Y-129142857D01*
X121952381Y-128904761D01*
X122000000Y-128809523D01*
X122047619Y-128761904D01*
X122142857Y-128714285D01*
X122238095Y-128714285D01*
X122380952Y-128761904D01*
X122952381Y-129333333D01*
X122952381Y-128714285D01*
X120352381Y-129295238D02*
X119876190Y-129628572D01*
X120352381Y-129866667D02*
X119352381Y-129866667D01*
X119352381Y-129485714D01*
X119400000Y-129390476D01*
X119447619Y-129342857D01*
X119542857Y-129295238D01*
X119685714Y-129295238D01*
X119780952Y-129342857D01*
X119828571Y-129390476D01*
X119876190Y-129485714D01*
X119876190Y-129866667D01*
X119352381Y-129009524D02*
X120352381Y-128676191D01*
X119352381Y-128342857D01*
X120352381Y-127485714D02*
X120352381Y-128057143D01*
X120352381Y-127771429D02*
X119352381Y-127771429D01*
X119495238Y-127866667D01*
X119590476Y-127961905D01*
X119638095Y-128057143D01*
X116416667Y-104654762D02*
X116559524Y-104702381D01*
X116797620Y-104702381D01*
X116892858Y-104654762D01*
X116940477Y-104607143D01*
X116988096Y-104511905D01*
X116988096Y-104416667D01*
X116940477Y-104321429D01*
X116892858Y-104273810D01*
X116797620Y-104226190D01*
X116607143Y-104178571D01*
X116511905Y-104130952D01*
X116464286Y-104083333D01*
X116416667Y-103988095D01*
X116416667Y-103892857D01*
X116464286Y-103797619D01*
X116511905Y-103750000D01*
X116607143Y-103702381D01*
X116845239Y-103702381D01*
X116988096Y-103750000D01*
X117321429Y-103702381D02*
X117559524Y-104702381D01*
X117750001Y-103988095D01*
X117940477Y-104702381D01*
X118178572Y-103702381D01*
X119083334Y-104702381D02*
X118511905Y-104702381D01*
X118797619Y-104702381D02*
X118797619Y-103702381D01*
X118702381Y-103845238D01*
X118607143Y-103940476D01*
X118511905Y-103988095D01*
X105416667Y-104654762D02*
X105559524Y-104702381D01*
X105797620Y-104702381D01*
X105892858Y-104654762D01*
X105940477Y-104607143D01*
X105988096Y-104511905D01*
X105988096Y-104416667D01*
X105940477Y-104321429D01*
X105892858Y-104273810D01*
X105797620Y-104226190D01*
X105607143Y-104178571D01*
X105511905Y-104130952D01*
X105464286Y-104083333D01*
X105416667Y-103988095D01*
X105416667Y-103892857D01*
X105464286Y-103797619D01*
X105511905Y-103750000D01*
X105607143Y-103702381D01*
X105845239Y-103702381D01*
X105988096Y-103750000D01*
X106321429Y-103702381D02*
X106559524Y-104702381D01*
X106750001Y-103988095D01*
X106940477Y-104702381D01*
X107178572Y-103702381D01*
X107511905Y-103797619D02*
X107559524Y-103750000D01*
X107654762Y-103702381D01*
X107892858Y-103702381D01*
X107988096Y-103750000D01*
X108035715Y-103797619D01*
X108083334Y-103892857D01*
X108083334Y-103988095D01*
X108035715Y-104130952D01*
X107464286Y-104702381D01*
X108083334Y-104702381D01*
X102952381Y-57666666D02*
X102476190Y-58000000D01*
X102952381Y-58238095D02*
X101952381Y-58238095D01*
X101952381Y-57857142D01*
X102000000Y-57761904D01*
X102047619Y-57714285D01*
X102142857Y-57666666D01*
X102285714Y-57666666D01*
X102380952Y-57714285D01*
X102428571Y-57761904D01*
X102476190Y-57857142D01*
X102476190Y-58238095D01*
X101952381Y-57333333D02*
X101952381Y-56714285D01*
X102333333Y-57047619D01*
X102333333Y-56904761D01*
X102380952Y-56809523D01*
X102428571Y-56761904D01*
X102523810Y-56714285D01*
X102761905Y-56714285D01*
X102857143Y-56761904D01*
X102904762Y-56809523D01*
X102952381Y-56904761D01*
X102952381Y-57190476D01*
X102904762Y-57285714D01*
X102857143Y-57333333D01*
X102952381Y-142916666D02*
X102476190Y-143250000D01*
X102952381Y-143488095D02*
X101952381Y-143488095D01*
X101952381Y-143107142D01*
X102000000Y-143011904D01*
X102047619Y-142964285D01*
X102142857Y-142916666D01*
X102285714Y-142916666D01*
X102380952Y-142964285D01*
X102428571Y-143011904D01*
X102476190Y-143107142D01*
X102476190Y-143488095D01*
X102285714Y-142059523D02*
X102952381Y-142059523D01*
X101904762Y-142297619D02*
X102619048Y-142535714D01*
X102619048Y-141916666D01*
X112333334Y-122952381D02*
X112000000Y-122476190D01*
X111761905Y-122952381D02*
X111761905Y-121952381D01*
X112142858Y-121952381D01*
X112238096Y-122000000D01*
X112285715Y-122047619D01*
X112333334Y-122142857D01*
X112333334Y-122285714D01*
X112285715Y-122380952D01*
X112238096Y-122428571D01*
X112142858Y-122476190D01*
X111761905Y-122476190D01*
X113190477Y-121952381D02*
X113000000Y-121952381D01*
X112904762Y-122000000D01*
X112857143Y-122047619D01*
X112761905Y-122190476D01*
X112714286Y-122380952D01*
X112714286Y-122761905D01*
X112761905Y-122857143D01*
X112809524Y-122904762D01*
X112904762Y-122952381D01*
X113095239Y-122952381D01*
X113190477Y-122904762D01*
X113238096Y-122857143D01*
X113285715Y-122761905D01*
X113285715Y-122523810D01*
X113238096Y-122428571D01*
X113190477Y-122380952D01*
X113095239Y-122333333D01*
X112904762Y-122333333D01*
X112809524Y-122380952D01*
X112761905Y-122428571D01*
X112714286Y-122523810D01*
X122952381Y-57666666D02*
X122476190Y-58000000D01*
X122952381Y-58238095D02*
X121952381Y-58238095D01*
X121952381Y-57857142D01*
X122000000Y-57761904D01*
X122047619Y-57714285D01*
X122142857Y-57666666D01*
X122285714Y-57666666D01*
X122380952Y-57714285D01*
X122428571Y-57761904D01*
X122476190Y-57857142D01*
X122476190Y-58238095D01*
X121952381Y-57333333D02*
X121952381Y-56666666D01*
X122952381Y-57095238D01*
X122952381Y-142666666D02*
X122476190Y-143000000D01*
X122952381Y-143238095D02*
X121952381Y-143238095D01*
X121952381Y-142857142D01*
X122000000Y-142761904D01*
X122047619Y-142714285D01*
X122142857Y-142666666D01*
X122285714Y-142666666D01*
X122380952Y-142714285D01*
X122428571Y-142761904D01*
X122476190Y-142857142D01*
X122476190Y-143238095D01*
X122380952Y-142095238D02*
X122333333Y-142190476D01*
X122285714Y-142238095D01*
X122190476Y-142285714D01*
X122142857Y-142285714D01*
X122047619Y-142238095D01*
X122000000Y-142190476D01*
X121952381Y-142095238D01*
X121952381Y-141904761D01*
X122000000Y-141809523D01*
X122047619Y-141761904D01*
X122142857Y-141714285D01*
X122190476Y-141714285D01*
X122285714Y-141761904D01*
X122333333Y-141809523D01*
X122380952Y-141904761D01*
X122380952Y-142095238D01*
X122428571Y-142190476D01*
X122476190Y-142238095D01*
X122571429Y-142285714D01*
X122761905Y-142285714D01*
X122857143Y-142238095D01*
X122904762Y-142190476D01*
X122952381Y-142095238D01*
X122952381Y-141904761D01*
X122904762Y-141809523D01*
X122857143Y-141761904D01*
X122761905Y-141714285D01*
X122571429Y-141714285D01*
X122476190Y-141761904D01*
X122428571Y-141809523D01*
X122380952Y-141904761D01*
X102952381Y-70166666D02*
X102476190Y-70500000D01*
X102952381Y-70738095D02*
X101952381Y-70738095D01*
X101952381Y-70357142D01*
X102000000Y-70261904D01*
X102047619Y-70214285D01*
X102142857Y-70166666D01*
X102285714Y-70166666D01*
X102380952Y-70214285D01*
X102428571Y-70261904D01*
X102476190Y-70357142D01*
X102476190Y-70738095D01*
X102952381Y-69690476D02*
X102952381Y-69500000D01*
X102904762Y-69404761D01*
X102857143Y-69357142D01*
X102714286Y-69261904D01*
X102523810Y-69214285D01*
X102142857Y-69214285D01*
X102047619Y-69261904D01*
X102000000Y-69309523D01*
X101952381Y-69404761D01*
X101952381Y-69595238D01*
X102000000Y-69690476D01*
X102047619Y-69738095D01*
X102142857Y-69785714D01*
X102380952Y-69785714D01*
X102476190Y-69738095D01*
X102523810Y-69690476D01*
X102571429Y-69595238D01*
X102571429Y-69404761D01*
X102523810Y-69309523D01*
X102476190Y-69261904D01*
X102380952Y-69214285D01*
X122952381Y-70892857D02*
X122476190Y-71226191D01*
X122952381Y-71464286D02*
X121952381Y-71464286D01*
X121952381Y-71083333D01*
X122000000Y-70988095D01*
X122047619Y-70940476D01*
X122142857Y-70892857D01*
X122285714Y-70892857D01*
X122380952Y-70940476D01*
X122428571Y-70988095D01*
X122476190Y-71083333D01*
X122476190Y-71464286D01*
X122952381Y-69940476D02*
X122952381Y-70511905D01*
X122952381Y-70226191D02*
X121952381Y-70226191D01*
X122095238Y-70321429D01*
X122190476Y-70416667D01*
X122238095Y-70511905D01*
X121952381Y-69321429D02*
X121952381Y-69226190D01*
X122000000Y-69130952D01*
X122047619Y-69083333D01*
X122142857Y-69035714D01*
X122333333Y-68988095D01*
X122571429Y-68988095D01*
X122761905Y-69035714D01*
X122857143Y-69083333D01*
X122904762Y-69130952D01*
X122952381Y-69226190D01*
X122952381Y-69321429D01*
X122904762Y-69416667D01*
X122857143Y-69464286D01*
X122761905Y-69511905D01*
X122571429Y-69559524D01*
X122333333Y-69559524D01*
X122142857Y-69511905D01*
X122047619Y-69464286D01*
X122000000Y-69416667D01*
X121952381Y-69321429D01*
M02*
